  0
SECTION
  2
HEADER
  9
$ANGBASE
  50
0.0
  9
$ANGDIR
  70
1
  9
$MEASUREMENT
  70
0
  0
ENDSEC
  0
SECTION
  2
TABLES
  0
TABLE
  2
LTYPE
  70
4
  0
LTYPE
  5
40F
  2
CONTINUOUS
  70
0
  3
Solid line
  72
65
  73
0
  40
0.0
  0
LTYPE
  5
410
  2
DASHDOT
 70
0
  3
Dash Dot ____ _ ____ _
 72
65
 73
4
 40
2.0
 49
1.25
 49
-0.25
 49
0.25
 49
-0.25
  0
LTYPE
  5
411
  2
DASHED
 70
0
  3
Dashed __ __ __ __ __
 72
65
 73
2
 40
0.75
 49
0.5
 49
-0.25
  0
LTYPE
  5
43B
  2
DOTTED
 70
0
  3
Dotted .  .  .  .
 72
65
 73
2
 40
0.2
 49
0.0
 49
-0.2
  0
ENDTAB
  0
TABLE
  2
STYLE
  70
4
  0
STYLE
  2
KICAD
  70
0
  40
0
  41
1
  42
1
  50
0
  71
0
  3
isocp.shx
  0
STYLE
  2
KICADB
  70
0
  40
0
  41
1
  42
1
  50
0
  71
0
  3
isocp.shx
  0
STYLE
  2
KICADI
  70
0
  40
0
  41
1
  42
1
  50
15
  71
0
  3
isocp.shx
  0
STYLE
  2
KICADBI
  70
0
  40
0
  41
1
  42
1
  50
15
  71
0
  3
isocp.shx
  0
ENDTAB
  0
TABLE
  2
LAYER
  70
1
  0
LAYER
  2
BLACK
  70
0
  62
7
  6
CONTINUOUS
  0
ENDTAB
  0
ENDSEC
  0
SECTION
  2
ENTITIES
0
LINE
8
BLACK
6
CONTINUOUS
10
2.92633
20
-10.9221
11
2.88945
21
-11.0134
0
LINE
8
BLACK
6
CONTINUOUS
10
2.88945
20
-11.0134
11
2.79637
21
-10.9758
0
LINE
8
BLACK
6
CONTINUOUS
10
2.79637
20
-10.9758
11
2.83324
21
-10.8845
0
LINE
8
BLACK
6
CONTINUOUS
10
2.83324
20
-10.8845
11
2.92633
21
-10.9221
0
LINE
8
BLACK
6
CONTINUOUS
10
8.38945
20
-10.9477
11
8.31644
21
-10.9772
0
LINE
8
BLACK
6
CONTINUOUS
10
8.31644
20
-10.9772
11
8.28694
21
-10.9042
0
LINE
8
BLACK
6
CONTINUOUS
10
8.28694
20
-10.9042
11
8.35995
21
-10.8747
0
LINE
8
BLACK
6
CONTINUOUS
10
8.35995
20
-10.8747
11
8.38945
21
-10.9477
0
LINE
8
BLACK
6
CONTINUOUS
10
2.15902
20
-10.8244
11
2.12215
21
-10.9157
0
LINE
8
BLACK
6
CONTINUOUS
10
2.12215
20
-10.9157
11
2.02907
21
-10.8781
0
LINE
8
BLACK
6
CONTINUOUS
10
2.02907
20
-10.8781
11
2.06594
21
-10.7868
0
LINE
8
BLACK
6
CONTINUOUS
10
2.06594
20
-10.7868
11
2.15902
21
-10.8244
0
LINE
8
BLACK
6
CONTINUOUS
10
9.15675
20
-10.85
11
9.08374
21
-10.8795
0
LINE
8
BLACK
6
CONTINUOUS
10
9.08374
20
-10.8795
11
9.05425
21
-10.8065
0
LINE
8
BLACK
6
CONTINUOUS
10
9.05425
20
-10.8065
11
9.12725
21
-10.777
0
LINE
8
BLACK
6
CONTINUOUS
10
9.12725
20
-10.777
11
9.15675
21
-10.85
0
LINE
8
BLACK
6
CONTINUOUS
10
8.95603
20
-10.7868
11
8.86295
21
-10.8244
0
LINE
8
BLACK
6
CONTINUOUS
10
8.86295
20
-10.8244
11
8.82608
21
-10.7331
0
LINE
8
BLACK
6
CONTINUOUS
10
8.82608
20
-10.7331
11
8.91916
21
-10.6955
0
LINE
8
BLACK
6
CONTINUOUS
10
8.91916
20
-10.6955
11
8.95603
21
-10.7868
0
LINE
8
BLACK
6
CONTINUOUS
10
1.39172
20
-10.7267
11
1.35485
21
-10.818
0
LINE
8
BLACK
6
CONTINUOUS
10
1.35485
20
-10.818
11
1.26176
21
-10.7804
0
LINE
8
BLACK
6
CONTINUOUS
10
1.26176
20
-10.7804
11
1.29863
21
-10.6891
0
LINE
8
BLACK
6
CONTINUOUS
10
1.29863
20
-10.6891
11
1.39172
21
-10.7267
0
LINE
8
BLACK
6
CONTINUOUS
10
9.92405
20
-10.7523
11
9.85105
21
-10.7818
0
LINE
8
BLACK
6
CONTINUOUS
10
9.85105
20
-10.7818
11
9.82155
21
-10.7088
0
LINE
8
BLACK
6
CONTINUOUS
10
9.82155
20
-10.7088
11
9.89456
21
-10.6793
0
LINE
8
BLACK
6
CONTINUOUS
10
9.89456
20
-10.6793
11
9.92405
21
-10.7523
0
LINE
8
BLACK
6
CONTINUOUS
10
2.39956
20
-10.6626
11
2.37007
21
-10.7356
0
LINE
8
BLACK
6
CONTINUOUS
10
2.37007
20
-10.7356
11
2.29706
21
-10.7061
0
LINE
8
BLACK
6
CONTINUOUS
10
2.29706
20
-10.7061
11
2.32656
21
-10.6331
0
LINE
8
BLACK
6
CONTINUOUS
10
2.32656
20
-10.6331
11
2.39956
21
-10.6626
0
LINE
8
BLACK
6
CONTINUOUS
10
9.72333
20
-10.6891
11
9.63025
21
-10.7267
0
LINE
8
BLACK
6
CONTINUOUS
10
9.63025
20
-10.7267
11
9.59338
21
-10.6354
0
LINE
8
BLACK
6
CONTINUOUS
10
9.59338
20
-10.6354
11
9.68646
21
-10.5978
0
LINE
8
BLACK
6
CONTINUOUS
10
9.68646
20
-10.5978
11
9.72333
21
-10.6891
0
LINE
8
BLACK
6
CONTINUOUS
10
3.13653
20
-10.6015
11
3.09818
21
-10.6964
0
LINE
8
BLACK
6
CONTINUOUS
10
3.09818
20
-10.6964
11
3.00327
21
-10.6581
0
LINE
8
BLACK
6
CONTINUOUS
10
3.00327
20
-10.6581
11
3.04162
21
-10.5632
0
LINE
8
BLACK
6
CONTINUOUS
10
3.04162
20
-10.5632
11
3.13653
21
-10.6015
0
LINE
8
BLACK
6
CONTINUOUS
10
1.63226
20
-10.5649
11
1.60276
21
-10.6379
0
LINE
8
BLACK
6
CONTINUOUS
10
1.60276
20
-10.6379
11
1.52975
21
-10.6084
0
LINE
8
BLACK
6
CONTINUOUS
10
1.52975
20
-10.6084
11
1.55925
21
-10.5354
0
LINE
8
BLACK
6
CONTINUOUS
10
1.55925
20
-10.5354
11
1.63226
21
-10.5649
0
LINE
8
BLACK
6
CONTINUOUS
10
10.4906
20
-10.5914
11
10.3976
21
-10.629
0
LINE
8
BLACK
6
CONTINUOUS
10
10.3976
20
-10.629
11
10.3607
21
-10.5377
0
LINE
8
BLACK
6
CONTINUOUS
10
10.3607
20
-10.5377
11
10.4538
21
-10.5001
0
LINE
8
BLACK
6
CONTINUOUS
10
10.4538
20
-10.5001
11
10.4906
21
-10.5914
0
LINE
8
BLACK
6
CONTINUOUS
10
2.36922
20
-10.5038
11
2.33088
21
-10.5987
0
LINE
8
BLACK
6
CONTINUOUS
10
2.33088
20
-10.5987
11
2.23597
21
-10.5604
0
LINE
8
BLACK
6
CONTINUOUS
10
2.23597
20
-10.5604
11
2.27432
21
-10.4655
0
LINE
8
BLACK
6
CONTINUOUS
10
2.27432
20
-10.4655
11
2.36922
21
-10.5038
0
LINE
8
BLACK
6
CONTINUOUS
10
8.43196
20
-10.5038
11
8.33705
21
-10.5422
0
LINE
8
BLACK
6
CONTINUOUS
10
8.33705
20
-10.5422
11
8.2987
21
-10.4472
0
LINE
8
BLACK
6
CONTINUOUS
10
8.2987
20
-10.4472
11
8.39361
21
-10.4089
0
LINE
8
BLACK
6
CONTINUOUS
10
8.39361
20
-10.4089
11
8.43196
21
-10.5038
0
LINE
8
BLACK
6
CONTINUOUS
10
0.864953
20
-10.4672
11
0.835457
21
-10.5402
0
LINE
8
BLACK
6
CONTINUOUS
10
0.835457
20
-10.5402
11
0.76245
21
-10.5107
0
LINE
8
BLACK
6
CONTINUOUS
10
0.76245
20
-10.5107
11
0.791947
21
-10.4377
0
LINE
8
BLACK
6
CONTINUOUS
10
0.791947
20
-10.4377
11
0.864953
21
-10.4672
0
LINE
8
BLACK
6
CONTINUOUS
10
1.60192
20
-10.4061
11
1.56357
21
-10.501
0
LINE
8
BLACK
6
CONTINUOUS
10
1.56357
20
-10.501
11
1.46867
21
-10.4627
0
LINE
8
BLACK
6
CONTINUOUS
10
1.46867
20
-10.4627
11
1.50701
21
-10.3678
0
LINE
8
BLACK
6
CONTINUOUS
10
1.50701
20
-10.3678
11
1.60192
21
-10.4061
0
LINE
8
BLACK
6
CONTINUOUS
10
8.88601
20
-10.4138
11
8.79111
21
-10.4521
0
LINE
8
BLACK
6
CONTINUOUS
10
8.79111
20
-10.4521
11
8.75276
21
-10.3572
0
LINE
8
BLACK
6
CONTINUOUS
10
8.75276
20
-10.3572
11
8.84767
21
-10.3189
0
LINE
8
BLACK
6
CONTINUOUS
10
8.84767
20
-10.3189
11
8.88601
21
-10.4138
0
LINE
8
BLACK
6
CONTINUOUS
10
2.74736
20
-10.3509
11
2.70902
21
-10.4458
0
LINE
8
BLACK
6
CONTINUOUS
10
2.70902
20
-10.4458
11
2.61411
21
-10.4074
0
LINE
8
BLACK
6
CONTINUOUS
10
2.61411
20
-10.4074
11
2.65245
21
-10.3125
0
LINE
8
BLACK
6
CONTINUOUS
10
2.65245
20
-10.3125
11
2.74736
21
-10.3509
0
LINE
8
BLACK
6
CONTINUOUS
10
9.19926
20
-10.4061
11
9.10435
21
-10.4445
0
LINE
8
BLACK
6
CONTINUOUS
10
9.10435
20
-10.4445
11
9.06601
21
-10.3495
0
LINE
8
BLACK
6
CONTINUOUS
10
9.06601
20
-10.3495
11
9.16091
21
-10.3112
0
LINE
8
BLACK
6
CONTINUOUS
10
9.16091
20
-10.3112
11
9.19926
21
-10.4061
0
LINE
8
BLACK
6
CONTINUOUS
10
0.757147
20
-10.3005
11
0.720277
21
-10.3917
0
LINE
8
BLACK
6
CONTINUOUS
10
0.720277
20
-10.3917
11
0.627193
21
-10.3541
0
LINE
8
BLACK
6
CONTINUOUS
10
0.627193
20
-10.3541
11
0.664064
21
-10.2629
0
LINE
8
BLACK
6
CONTINUOUS
10
0.664064
20
-10.2629
11
0.757147
21
-10.3005
0
LINE
8
BLACK
6
CONTINUOUS
10
10.5586
20
-10.3261
11
10.4856
21
-10.3556
0
LINE
8
BLACK
6
CONTINUOUS
10
10.4856
20
-10.3556
11
10.4561
21
-10.2826
0
LINE
8
BLACK
6
CONTINUOUS
10
10.4561
20
-10.2826
11
10.5291
21
-10.2531
0
LINE
8
BLACK
6
CONTINUOUS
10
10.5291
20
-10.2531
11
10.5586
21
-10.3261
0
LINE
8
BLACK
6
CONTINUOUS
10
9.65332
20
-10.3161
11
9.55841
21
-10.3544
0
LINE
8
BLACK
6
CONTINUOUS
10
9.55841
20
-10.3544
11
9.52006
21
-10.2595
0
LINE
8
BLACK
6
CONTINUOUS
10
9.52006
20
-10.2595
11
9.61497
21
-10.2212
0
LINE
8
BLACK
6
CONTINUOUS
10
9.61497
20
-10.2212
11
9.65332
21
-10.3161
0
LINE
8
BLACK
6
CONTINUOUS
10
1.98006
20
-10.2532
11
1.94171
21
-10.3481
0
LINE
8
BLACK
6
CONTINUOUS
10
1.94171
20
-10.3481
11
1.8468
21
-10.3097
0
LINE
8
BLACK
6
CONTINUOUS
10
1.8468
20
-10.3097
11
1.88515
21
-10.2148
0
LINE
8
BLACK
6
CONTINUOUS
10
1.88515
20
-10.2148
11
1.98006
21
-10.2532
0
LINE
8
BLACK
6
CONTINUOUS
10
9.96656
20
-10.3084
11
9.87165
21
-10.3468
0
LINE
8
BLACK
6
CONTINUOUS
10
9.87165
20
-10.3468
11
9.83331
21
-10.2518
0
LINE
8
BLACK
6
CONTINUOUS
10
9.83331
20
-10.2518
11
9.92822
21
-10.2135
0
LINE
8
BLACK
6
CONTINUOUS
10
9.92822
20
-10.2135
11
9.96656
21
-10.3084
0
LINE
8
BLACK
6
CONTINUOUS
10
3.20654
20
-10.2286
11
3.16967
21
-10.3198
0
LINE
8
BLACK
6
CONTINUOUS
10
3.16967
20
-10.3198
11
3.07659
21
-10.2822
0
LINE
8
BLACK
6
CONTINUOUS
10
3.07659
20
-10.2822
11
3.11346
21
-10.1909
0
LINE
8
BLACK
6
CONTINUOUS
10
3.11346
20
-10.1909
11
3.20654
21
-10.2286
0
LINE
8
BLACK
6
CONTINUOUS
10
8.10923
20
-10.2542
11
8.03622
21
-10.2837
0
LINE
8
BLACK
6
CONTINUOUS
10
8.03622
20
-10.2837
11
8.00672
21
-10.2107
0
LINE
8
BLACK
6
CONTINUOUS
10
8.00672
20
-10.2107
11
8.07973
21
-10.1812
0
LINE
8
BLACK
6
CONTINUOUS
10
8.07973
20
-10.1812
11
8.10923
21
-10.2542
0
LINE
8
BLACK
6
CONTINUOUS
10
10.4206
20
-10.2184
11
10.3257
21
-10.2567
0
LINE
8
BLACK
6
CONTINUOUS
10
10.3257
20
-10.2567
11
10.2874
21
-10.1618
0
LINE
8
BLACK
6
CONTINUOUS
10
10.2874
20
-10.1618
11
10.3823
21
-10.1235
0
LINE
8
BLACK
6
CONTINUOUS
10
10.3823
20
-10.1235
11
10.4206
21
-10.2184
0
LINE
8
BLACK
6
CONTINUOUS
10
1.21275
20
-10.1555
11
1.17441
21
-10.2504
0
LINE
8
BLACK
6
CONTINUOUS
10
1.17441
20
-10.2504
11
1.0795
21
-10.212
0
LINE
8
BLACK
6
CONTINUOUS
10
1.0795
20
-10.212
11
1.11784
21
-10.1171
0
LINE
8
BLACK
6
CONTINUOUS
10
1.11784
20
-10.1171
11
1.21275
21
-10.1555
0
LINE
8
BLACK
6
CONTINUOUS
10
2.43924
20
-10.1309
11
2.40237
21
-10.2221
0
LINE
8
BLACK
6
CONTINUOUS
10
2.40237
20
-10.2221
11
2.30928
21
-10.1845
0
LINE
8
BLACK
6
CONTINUOUS
10
2.30928
20
-10.1845
11
2.34616
21
-10.0932
0
LINE
8
BLACK
6
CONTINUOUS
10
2.34616
20
-10.0932
11
2.43924
21
-10.1309
0
LINE
8
BLACK
6
CONTINUOUS
10
11.1252
20
-10.1651
11
11.0321
21
-10.2027
0
LINE
8
BLACK
6
CONTINUOUS
10
11.0321
20
-10.2027
11
10.9953
21
-10.1115
0
LINE
8
BLACK
6
CONTINUOUS
10
10.9953
20
-10.1115
11
11.0883
21
-10.0739
0
LINE
8
BLACK
6
CONTINUOUS
10
11.0883
20
-10.0739
11
11.1252
21
-10.1651
0
LINE
8
BLACK
6
CONTINUOUS
10
8.87653
20
-10.1565
11
8.80353
21
-10.186
0
LINE
8
BLACK
6
CONTINUOUS
10
8.80353
20
-10.186
11
8.77403
21
-10.113
0
LINE
8
BLACK
6
CONTINUOUS
10
8.77403
20
-10.113
11
8.84704
21
-10.0835
0
LINE
8
BLACK
6
CONTINUOUS
10
8.84704
20
-10.0835
11
8.87653
21
-10.1565
0
LINE
8
BLACK
6
CONTINUOUS
10
8.67581
20
-10.0932
11
8.58273
21
-10.1308
0
LINE
8
BLACK
6
CONTINUOUS
10
8.58273
20
-10.1308
11
8.54586
21
-10.0395
0
LINE
8
BLACK
6
CONTINUOUS
10
8.54586
20
-10.0395
11
8.63894
21
-10.0019
0
LINE
8
BLACK
6
CONTINUOUS
10
8.63894
20
-10.0019
11
8.67581
21
-10.0932
0
LINE
8
BLACK
6
CONTINUOUS
10
1.67193
20
-10.0332
11
1.63506
21
-10.1244
0
LINE
8
BLACK
6
CONTINUOUS
10
1.63506
20
-10.1244
11
1.54198
21
-10.0868
0
LINE
8
BLACK
6
CONTINUOUS
10
1.54198
20
-10.0868
11
1.57885
21
-9.99555
0
LINE
8
BLACK
6
CONTINUOUS
10
1.57885
20
-9.99555
11
1.67193
21
-10.0332
0
LINE
8
BLACK
6
CONTINUOUS
10
0.230384
20
-10.041
11
0.200887
21
-10.114
0
LINE
8
BLACK
6
CONTINUOUS
10
0.200887
20
-10.114
11
0.127881
21
-10.0845
0
LINE
8
BLACK
6
CONTINUOUS
10
0.127881
20
-10.0845
11
0.157377
21
-10.0115
0
LINE
8
BLACK
6
CONTINUOUS
10
0.157377
20
-10.0115
11
0.230384
21
-10.041
0
LINE
8
BLACK
6
CONTINUOUS
10
9.64384
20
-10.0588
11
9.57083
21
-10.0883
0
LINE
8
BLACK
6
CONTINUOUS
10
9.57083
20
-10.0883
11
9.54133
21
-10.0153
0
LINE
8
BLACK
6
CONTINUOUS
10
9.54133
20
-10.0153
11
9.61434
21
-9.98576
0
LINE
8
BLACK
6
CONTINUOUS
10
9.61434
20
-9.98576
11
9.64384
21
-10.0588
0
LINE
8
BLACK
6
CONTINUOUS
10
0.96735
20
-9.9799
11
0.929004
21
-10.0748
0
LINE
8
BLACK
6
CONTINUOUS
10
0.929004
20
-10.0748
11
0.834096
21
-10.0365
0
LINE
8
BLACK
6
CONTINUOUS
10
0.834096
20
-10.0365
11
0.872441
21
-9.94156
0
LINE
8
BLACK
6
CONTINUOUS
10
0.872441
20
-9.94156
11
0.96735
21
-9.9799
0
LINE
8
BLACK
6
CONTINUOUS
10
2.67978
20
-9.96902
11
2.65028
21
-10.042
0
LINE
8
BLACK
6
CONTINUOUS
10
2.65028
20
-10.042
11
2.57728
21
-10.0125
0
LINE
8
BLACK
6
CONTINUOUS
10
2.57728
20
-10.0125
11
2.60677
21
-9.93953
0
LINE
8
BLACK
6
CONTINUOUS
10
2.60677
20
-9.93953
11
2.67978
21
-9.96902
0
LINE
8
BLACK
6
CONTINUOUS
10
9.44312
20
-9.99549
11
9.35003
21
-10.0331
0
LINE
8
BLACK
6
CONTINUOUS
10
9.35003
20
-10.0331
11
9.31316
21
-9.94184
0
LINE
8
BLACK
6
CONTINUOUS
10
9.31316
20
-9.94184
11
9.40625
21
-9.90423
0
LINE
8
BLACK
6
CONTINUOUS
10
9.40625
20
-9.90423
11
9.44312
21
-9.99549
0
LINE
8
BLACK
6
CONTINUOUS
10
3.41675
20
-9.90797
11
3.3784
21
-10.0029
0
LINE
8
BLACK
6
CONTINUOUS
10
3.3784
20
-10.0029
11
3.28349
21
-9.96453
0
LINE
8
BLACK
6
CONTINUOUS
10
3.28349
20
-9.96453
11
3.32184
21
-9.86963
0
LINE
8
BLACK
6
CONTINUOUS
10
3.32184
20
-9.86963
11
3.41675
21
-9.90797
0
LINE
8
BLACK
6
CONTINUOUS
10
1.91248
20
-9.87132
11
1.88298
21
-9.94433
0
LINE
8
BLACK
6
CONTINUOUS
10
1.88298
20
-9.94433
11
1.80997
21
-9.91483
0
LINE
8
BLACK
6
CONTINUOUS
10
1.80997
20
-9.91483
11
1.83947
21
-9.84182
0
LINE
8
BLACK
6
CONTINUOUS
10
1.83947
20
-9.84182
11
1.91248
21
-9.87132
0
LINE
8
BLACK
6
CONTINUOUS
10
10.2104
20
-9.89779
11
10.1173
21
-9.9354
0
LINE
8
BLACK
6
CONTINUOUS
10
10.1173
20
-9.9354
11
10.0805
21
-9.84414
0
LINE
8
BLACK
6
CONTINUOUS
10
10.0805
20
-9.84414
11
10.1735
21
-9.80653
0
LINE
8
BLACK
6
CONTINUOUS
10
10.1735
20
-9.80653
11
10.2104
21
-9.89779
0
LINE
8
BLACK
6
CONTINUOUS
10
10.6011
20
-9.88218
11
10.5062
21
-9.92052
0
LINE
8
BLACK
6
CONTINUOUS
10
10.5062
20
-9.92052
11
10.4679
21
-9.82562
0
LINE
8
BLACK
6
CONTINUOUS
10
10.4679
20
-9.82562
11
10.5628
21
-9.78727
0
LINE
8
BLACK
6
CONTINUOUS
10
10.5628
20
-9.78727
11
10.6011
21
-9.88218
0
LINE
8
BLACK
6
CONTINUOUS
10
2.64944
20
-9.81027
11
2.6111
21
-9.90518
0
LINE
8
BLACK
6
CONTINUOUS
10
2.6111
20
-9.90518
11
2.51619
21
-9.86683
0
LINE
8
BLACK
6
CONTINUOUS
10
2.51619
20
-9.86683
11
2.55453
21
-9.77192
0
LINE
8
BLACK
6
CONTINUOUS
10
2.55453
20
-9.77192
11
2.64944
21
-9.81027
0
LINE
8
BLACK
6
CONTINUOUS
10
8.15174
20
-9.81025
11
8.05683
21
-9.84859
0
LINE
8
BLACK
6
CONTINUOUS
10
8.05683
20
-9.84859
11
8.01848
21
-9.75369
0
LINE
8
BLACK
6
CONTINUOUS
10
8.01848
20
-9.75369
11
8.11339
21
-9.71534
0
LINE
8
BLACK
6
CONTINUOUS
10
8.11339
20
-9.71534
11
8.15174
21
-9.81025
0
LINE
8
BLACK
6
CONTINUOUS
10
1.14517
20
-9.77362
11
1.11567
21
-9.84663
0
LINE
8
BLACK
6
CONTINUOUS
10
1.11567
20
-9.84663
11
1.04267
21
-9.81713
0
LINE
8
BLACK
6
CONTINUOUS
10
1.04267
20
-9.81713
11
1.07216
21
-9.74412
0
LINE
8
BLACK
6
CONTINUOUS
10
1.07216
20
-9.74412
11
1.14517
21
-9.77362
0
LINE
8
BLACK
6
CONTINUOUS
10
11.0552
20
-9.79214
11
10.9603
21
-9.83049
0
LINE
8
BLACK
6
CONTINUOUS
10
10.9603
20
-9.83049
11
10.9219
21
-9.73558
0
LINE
8
BLACK
6
CONTINUOUS
10
10.9219
20
-9.73558
11
11.0168
21
-9.69723
0
LINE
8
BLACK
6
CONTINUOUS
10
11.0168
20
-9.69723
11
11.0552
21
-9.79214
0
LINE
8
BLACK
6
CONTINUOUS
10
0.578183
20
-9.72925
11
0.539837
21
-9.82416
0
LINE
8
BLACK
6
CONTINUOUS
10
0.539837
20
-9.82416
11
0.444929
21
-9.78581
0
LINE
8
BLACK
6
CONTINUOUS
10
0.444929
20
-9.78581
11
0.483274
21
-9.69091
0
LINE
8
BLACK
6
CONTINUOUS
10
0.483274
20
-9.69091
11
0.578183
21
-9.72925
0
LINE
8
BLACK
6
CONTINUOUS
10
1.88214
20
-9.71257
11
1.84379
21
-9.80748
0
LINE
8
BLACK
6
CONTINUOUS
10
1.84379
20
-9.80748
11
1.74888
21
-9.76913
0
LINE
8
BLACK
6
CONTINUOUS
10
1.74888
20
-9.76913
11
1.78723
21
-9.67422
0
LINE
8
BLACK
6
CONTINUOUS
10
1.78723
20
-9.67422
11
1.88214
21
-9.71257
0
LINE
8
BLACK
6
CONTINUOUS
10
8.6058
20
-9.72021
11
8.51089
21
-9.75856
0
LINE
8
BLACK
6
CONTINUOUS
10
8.51089
20
-9.75856
11
8.47254
21
-9.66365
0
LINE
8
BLACK
6
CONTINUOUS
10
8.47254
20
-9.66365
11
8.56745
21
-9.6253
0
LINE
8
BLACK
6
CONTINUOUS
10
8.56745
20
-9.6253
11
8.6058
21
-9.72021
0
LINE
8
BLACK
6
CONTINUOUS
10
3.02758
20
-9.65732
11
2.98923
21
-9.75223
0
LINE
8
BLACK
6
CONTINUOUS
10
2.98923
20
-9.75223
11
2.89432
21
-9.71388
0
LINE
8
BLACK
6
CONTINUOUS
10
2.89432
20
-9.71388
11
2.93267
21
-9.61898
0
LINE
8
BLACK
6
CONTINUOUS
10
2.93267
20
-9.61898
11
3.02758
21
-9.65732
0
LINE
8
BLACK
6
CONTINUOUS
10
8.91904
20
-9.71255
11
8.82413
21
-9.75089
0
LINE
8
BLACK
6
CONTINUOUS
10
8.82413
20
-9.75089
11
8.78579
21
-9.65598
0
LINE
8
BLACK
6
CONTINUOUS
10
8.78579
20
-9.65598
11
8.8807
21
-9.61764
0
LINE
8
BLACK
6
CONTINUOUS
10
8.8807
20
-9.61764
11
8.91904
21
-9.71255
0
LINE
8
BLACK
6
CONTINUOUS
10
1.03736
20
-9.60692
11
1.00049
21
-9.69818
0
LINE
8
BLACK
6
CONTINUOUS
10
1.00049
20
-9.69818
11
0.907411
21
-9.66057
0
LINE
8
BLACK
6
CONTINUOUS
10
0.907411
20
-9.66057
11
0.944282
21
-9.56932
0
LINE
8
BLACK
6
CONTINUOUS
10
0.944282
20
-9.56932
11
1.03736
21
-9.60692
0
LINE
8
BLACK
6
CONTINUOUS
10
10.2784
20
-9.63253
11
10.2054
21
-9.66203
0
LINE
8
BLACK
6
CONTINUOUS
10
10.2054
20
-9.66203
11
10.1759
21
-9.58902
0
LINE
8
BLACK
6
CONTINUOUS
10
10.1759
20
-9.58902
11
10.2489
21
-9.55953
0
LINE
8
BLACK
6
CONTINUOUS
10
10.2489
20
-9.55953
11
10.2784
21
-9.63253
0
LINE
8
BLACK
6
CONTINUOUS
10
9.3731
20
-9.62251
11
9.27819
21
-9.66086
0
LINE
8
BLACK
6
CONTINUOUS
10
9.27819
20
-9.66086
11
9.23985
21
-9.56595
0
LINE
8
BLACK
6
CONTINUOUS
10
9.23985
20
-9.56595
11
9.33476
21
-9.5276
0
LINE
8
BLACK
6
CONTINUOUS
10
9.33476
20
-9.5276
11
9.3731
21
-9.62251
0
LINE
8
BLACK
6
CONTINUOUS
10
2.26027
20
-9.55962
11
2.22193
21
-9.65453
0
LINE
8
BLACK
6
CONTINUOUS
10
2.22193
20
-9.65453
11
2.12702
21
-9.61618
0
LINE
8
BLACK
6
CONTINUOUS
10
2.12702
20
-9.61618
11
2.16537
21
-9.52127
0
LINE
8
BLACK
6
CONTINUOUS
10
2.16537
20
-9.52127
11
2.26027
21
-9.55962
0
LINE
8
BLACK
6
CONTINUOUS
10
9.68635
20
-9.61485
11
9.59144
21
-9.65319
0
LINE
8
BLACK
6
CONTINUOUS
10
9.59144
20
-9.65319
11
9.55309
21
-9.55828
0
LINE
8
BLACK
6
CONTINUOUS
10
9.55309
20
-9.55828
11
9.648
21
-9.51994
0
LINE
8
BLACK
6
CONTINUOUS
10
9.648
20
-9.51994
11
9.68635
21
-9.61485
0
LINE
8
BLACK
6
CONTINUOUS
10
3.48676
20
-9.53499
11
3.44989
21
-9.62625
0
LINE
8
BLACK
6
CONTINUOUS
10
3.44989
20
-9.62625
11
3.35681
21
-9.58864
0
LINE
8
BLACK
6
CONTINUOUS
10
3.35681
20
-9.58864
11
3.39368
21
-9.49739
0
LINE
8
BLACK
6
CONTINUOUS
10
3.39368
20
-9.49739
11
3.48676
21
-9.53499
0
LINE
8
BLACK
6
CONTINUOUS
10
7.82901
20
-9.5606
11
7.756
21
-9.5901
0
LINE
8
BLACK
6
CONTINUOUS
10
7.756
20
-9.5901
11
7.72651
21
-9.51709
0
LINE
8
BLACK
6
CONTINUOUS
10
7.72651
20
-9.51709
11
7.79951
21
-9.4876
0
LINE
8
BLACK
6
CONTINUOUS
10
7.79951
20
-9.4876
11
7.82901
21
-9.5606
0
LINE
8
BLACK
6
CONTINUOUS
10
10.1404
20
-9.52481
11
10.0455
21
-9.56316
0
LINE
8
BLACK
6
CONTINUOUS
10
10.0455
20
-9.56316
11
10.0072
21
-9.46825
0
LINE
8
BLACK
6
CONTINUOUS
10
10.0072
20
-9.46825
11
10.1021
21
-9.4299
0
LINE
8
BLACK
6
CONTINUOUS
10
10.1021
20
-9.4299
11
10.1404
21
-9.52481
0
LINE
8
BLACK
6
CONTINUOUS
10
1.49297
20
-9.46192
11
1.45462
21
-9.55683
0
LINE
8
BLACK
6
CONTINUOUS
10
1.45462
20
-9.55683
11
1.35972
21
-9.51848
0
LINE
8
BLACK
6
CONTINUOUS
10
1.35972
20
-9.51848
11
1.39806
21
-9.42357
0
LINE
8
BLACK
6
CONTINUOUS
10
1.39806
20
-9.42357
11
1.49297
21
-9.46192
0
LINE
8
BLACK
6
CONTINUOUS
10
2.71946
20
-9.43729
11
2.68259
21
-9.52855
0
LINE
8
BLACK
6
CONTINUOUS
10
2.68259
20
-9.52855
11
2.5895
21
-9.49094
0
LINE
8
BLACK
6
CONTINUOUS
10
2.5895
20
-9.49094
11
2.62637
21
-9.39968
0
LINE
8
BLACK
6
CONTINUOUS
10
2.62637
20
-9.39968
11
2.71946
21
-9.43729
0
LINE
8
BLACK
6
CONTINUOUS
10
10.845
20
-9.47156
11
10.7519
21
-9.50917
0
LINE
8
BLACK
6
CONTINUOUS
10
10.7519
20
-9.50917
11
10.715
21
-9.41791
0
LINE
8
BLACK
6
CONTINUOUS
10
10.715
20
-9.41791
11
10.8081
21
-9.3803
0
LINE
8
BLACK
6
CONTINUOUS
10
10.8081
20
-9.3803
11
10.845
21
-9.47156
0
LINE
8
BLACK
6
CONTINUOUS
10
8.59631
20
-9.4629
11
8.52331
21
-9.4924
0
LINE
8
BLACK
6
CONTINUOUS
10
8.52331
20
-9.4924
11
8.49381
21
-9.41939
0
LINE
8
BLACK
6
CONTINUOUS
10
8.49381
20
-9.41939
11
8.56682
21
-9.3899
0
LINE
8
BLACK
6
CONTINUOUS
10
8.56682
20
-9.3899
11
8.59631
21
-9.4629
0
LINE
8
BLACK
6
CONTINUOUS
10
8.39559
20
-9.39963
11
8.30251
21
-9.43724
0
LINE
8
BLACK
6
CONTINUOUS
10
8.30251
20
-9.43724
11
8.26564
21
-9.34598
0
LINE
8
BLACK
6
CONTINUOUS
10
8.26564
20
-9.34598
11
8.35872
21
-9.30837
0
LINE
8
BLACK
6
CONTINUOUS
10
8.35872
20
-9.30837
11
8.39559
21
-9.39963
0
LINE
8
BLACK
6
CONTINUOUS
10
1.95215
20
-9.33959
11
1.91528
21
-9.43085
0
LINE
8
BLACK
6
CONTINUOUS
10
1.91528
20
-9.43085
11
1.8222
21
-9.39324
0
LINE
8
BLACK
6
CONTINUOUS
10
1.8222
20
-9.39324
11
1.85907
21
-9.30198
0
LINE
8
BLACK
6
CONTINUOUS
10
1.85907
20
-9.30198
11
1.95215
21
-9.33959
0
LINE
8
BLACK
6
CONTINUOUS
10
0.510601
20
-9.34739
11
0.481105
21
-9.4204
0
LINE
8
BLACK
6
CONTINUOUS
10
0.481105
20
-9.4204
11
0.408098
21
-9.3909
0
LINE
8
BLACK
6
CONTINUOUS
10
0.408098
20
-9.3909
11
0.437595
21
-9.31789
0
LINE
8
BLACK
6
CONTINUOUS
10
0.437595
20
-9.31789
11
0.510601
21
-9.34739
0
LINE
8
BLACK
6
CONTINUOUS
10
9.36362
20
-9.3652
11
9.29061
21
-9.3947
0
LINE
8
BLACK
6
CONTINUOUS
10
9.29061
20
-9.3947
11
9.26112
21
-9.32169
0
LINE
8
BLACK
6
CONTINUOUS
10
9.26112
20
-9.32169
11
9.33412
21
-9.29219
0
LINE
8
BLACK
6
CONTINUOUS
10
9.33412
20
-9.29219
11
9.36362
21
-9.3652
0
LINE
8
BLACK
6
CONTINUOUS
10
1.24757
20
-9.28634
11
1.20922
21
-9.38125
0
LINE
8
BLACK
6
CONTINUOUS
10
1.20922
20
-9.38125
11
1.11431
21
-9.3429
0
LINE
8
BLACK
6
CONTINUOUS
10
1.11431
20
-9.3429
11
1.15266
21
-9.24799
0
LINE
8
BLACK
6
CONTINUOUS
10
1.15266
20
-9.24799
11
1.24757
21
-9.28634
0
LINE
8
BLACK
6
CONTINUOUS
10
2.96
20
-9.27546
11
2.9305
21
-9.34847
0
LINE
8
BLACK
6
CONTINUOUS
10
2.9305
20
-9.34847
11
2.85749
21
-9.31897
0
LINE
8
BLACK
6
CONTINUOUS
10
2.85749
20
-9.31897
11
2.88699
21
-9.24596
0
LINE
8
BLACK
6
CONTINUOUS
10
2.88699
20
-9.24596
11
2.96
21
-9.27546
0
LINE
8
BLACK
6
CONTINUOUS
10
9.1629
20
-9.30193
11
9.06982
21
-9.33953
0
LINE
8
BLACK
6
CONTINUOUS
10
9.06982
20
-9.33953
11
9.03294
21
-9.24828
0
LINE
8
BLACK
6
CONTINUOUS
10
9.03294
20
-9.24828
11
9.12603
21
-9.21067
0
LINE
8
BLACK
6
CONTINUOUS
10
9.12603
20
-9.21067
11
9.1629
21
-9.30193
0
LINE
8
BLACK
6
CONTINUOUS
10
3.69696
20
-9.21441
11
3.65862
21
-9.30932
0
LINE
8
BLACK
6
CONTINUOUS
10
3.65862
20
-9.30932
11
3.56371
21
-9.27097
0
LINE
8
BLACK
6
CONTINUOUS
10
3.56371
20
-9.27097
11
3.60205
21
-9.17606
0
LINE
8
BLACK
6
CONTINUOUS
10
3.60205
20
-9.17606
11
3.69696
21
-9.21441
0
LINE
8
BLACK
6
CONTINUOUS
10
2.19269
20
-9.17776
11
2.1632
21
-9.25076
0
LINE
8
BLACK
6
CONTINUOUS
10
2.1632
20
-9.25076
11
2.09019
21
-9.22127
0
LINE
8
BLACK
6
CONTINUOUS
10
2.09019
20
-9.22127
11
2.11969
21
-9.14826
0
LINE
8
BLACK
6
CONTINUOUS
10
2.11969
20
-9.14826
11
2.19269
21
-9.17776
0
LINE
8
BLACK
6
CONTINUOUS
10
9.9302
20
-9.20423
11
9.83712
21
-9.24183
0
LINE
8
BLACK
6
CONTINUOUS
10
9.83712
20
-9.24183
11
9.80025
21
-9.15058
0
LINE
8
BLACK
6
CONTINUOUS
10
9.80025
20
-9.15058
11
9.89333
21
-9.11297
0
LINE
8
BLACK
6
CONTINUOUS
10
9.89333
20
-9.11297
11
9.9302
21
-9.20423
0
LINE
8
BLACK
6
CONTINUOUS
10
10.3209
20
-9.18862
11
10.226
21
-9.22696
0
LINE
8
BLACK
6
CONTINUOUS
10
10.226
20
-9.22696
11
10.1877
21
-9.13205
0
LINE
8
BLACK
6
CONTINUOUS
10
10.1877
20
-9.13205
11
10.2826
21
-9.09371
0
LINE
8
BLACK
6
CONTINUOUS
10
10.2826
20
-9.09371
11
10.3209
21
-9.18862
0
LINE
8
BLACK
6
CONTINUOUS
10
2.92966
20
-9.11671
11
2.89131
21
-9.21162
0
LINE
8
BLACK
6
CONTINUOUS
10
2.89131
20
-9.21162
11
2.7964
21
-9.17327
0
LINE
8
BLACK
6
CONTINUOUS
10
2.7964
20
-9.17327
11
2.83475
21
-9.07836
0
LINE
8
BLACK
6
CONTINUOUS
10
2.83475
20
-9.07836
11
2.92966
21
-9.11671
0
LINE
8
BLACK
6
CONTINUOUS
10
7.87152
20
-9.11669
11
7.77661
21
-9.15503
0
LINE
8
BLACK
6
CONTINUOUS
10
7.77661
20
-9.15503
11
7.73827
21
-9.06012
0
LINE
8
BLACK
6
CONTINUOUS
10
7.73827
20
-9.06012
11
7.83317
21
-9.02178
0
LINE
8
BLACK
6
CONTINUOUS
10
7.83317
20
-9.02178
11
7.87152
21
-9.11669
0
LINE
8
BLACK
6
CONTINUOUS
10
1.42539
20
-9.08006
11
1.39589
21
-9.15306
0
LINE
8
BLACK
6
CONTINUOUS
10
1.39589
20
-9.15306
11
1.32289
21
-9.12357
0
LINE
8
BLACK
6
CONTINUOUS
10
1.32289
20
-9.12357
11
1.35238
21
-9.05056
0
LINE
8
BLACK
6
CONTINUOUS
10
1.35238
20
-9.05056
11
1.42539
21
-9.08006
0
LINE
8
BLACK
6
CONTINUOUS
10
10.775
20
-9.09858
11
10.6801
21
-9.13693
0
LINE
8
BLACK
6
CONTINUOUS
10
10.6801
20
-9.13693
11
10.6417
21
-9.04202
0
LINE
8
BLACK
6
CONTINUOUS
10
10.6417
20
-9.04202
11
10.7366
21
-9.00367
0
LINE
8
BLACK
6
CONTINUOUS
10
10.7366
20
-9.00367
11
10.775
21
-9.09858
0
LINE
8
BLACK
6
CONTINUOUS
10
0.858401
20
-9.03569
11
0.820055
21
-9.1306
0
LINE
8
BLACK
6
CONTINUOUS
10
0.820055
20
-9.1306
11
0.725146
21
-9.09225
0
LINE
8
BLACK
6
CONTINUOUS
10
0.725146
20
-9.09225
11
0.763492
21
-8.99734
0
LINE
8
BLACK
6
CONTINUOUS
10
0.763492
20
-8.99734
11
0.858401
21
-9.03569
0
LINE
8
BLACK
6
CONTINUOUS
10
2.16235
20
-9.01901
11
2.12401
21
-9.11392
0
LINE
8
BLACK
6
CONTINUOUS
10
2.12401
20
-9.11392
11
2.0291
21
-9.07557
0
LINE
8
BLACK
6
CONTINUOUS
10
2.0291
20
-9.07557
11
2.06745
21
-8.98066
0
LINE
8
BLACK
6
CONTINUOUS
10
2.06745
20
-8.98066
11
2.16235
21
-9.01901
0
LINE
8
BLACK
6
CONTINUOUS
10
8.32558
20
-9.02665
11
8.23067
21
-9.065
0
LINE
8
BLACK
6
CONTINUOUS
10
8.23067
20
-9.065
11
8.19233
21
-8.97009
0
LINE
8
BLACK
6
CONTINUOUS
10
8.19233
20
-8.97009
11
8.28723
21
-8.93174
0
LINE
8
BLACK
6
CONTINUOUS
10
8.28723
20
-8.93174
11
8.32558
21
-9.02665
0
LINE
8
BLACK
6
CONTINUOUS
10
3.3078
20
-8.96376
11
3.26945
21
-9.05867
0
LINE
8
BLACK
6
CONTINUOUS
10
3.26945
20
-9.05867
11
3.17454
21
-9.02032
0
LINE
8
BLACK
6
CONTINUOUS
10
3.17454
20
-9.02032
11
3.21289
21
-8.92541
0
LINE
8
BLACK
6
CONTINUOUS
10
3.21289
20
-8.92541
11
3.3078
21
-8.96376
0
LINE
8
BLACK
6
CONTINUOUS
10
8.63882
20
-9.01898
11
8.54392
21
-9.05733
0
LINE
8
BLACK
6
CONTINUOUS
10
8.54392
20
-9.05733
11
8.50557
21
-8.96242
0
LINE
8
BLACK
6
CONTINUOUS
10
8.50557
20
-8.96242
11
8.60048
21
-8.92408
0
LINE
8
BLACK
6
CONTINUOUS
10
8.60048
20
-8.92408
11
8.63882
21
-9.01898
0
LINE
8
BLACK
6
CONTINUOUS
10
1.31758
20
-8.91336
11
1.28071
21
-9.00462
0
LINE
8
BLACK
6
CONTINUOUS
10
1.28071
20
-9.00462
11
1.18763
21
-8.96701
0
LINE
8
BLACK
6
CONTINUOUS
10
1.18763
20
-8.96701
11
1.2245
21
-8.87575
0
LINE
8
BLACK
6
CONTINUOUS
10
1.2245
20
-8.87575
11
1.31758
21
-8.91336
0
LINE
8
BLACK
6
CONTINUOUS
10
9.99819
20
-8.93897
11
9.92518
21
-8.96847
0
LINE
8
BLACK
6
CONTINUOUS
10
9.92518
20
-8.96847
11
9.89569
21
-8.89546
0
LINE
8
BLACK
6
CONTINUOUS
10
9.89569
20
-8.89546
11
9.96869
21
-8.86596
0
LINE
8
BLACK
6
CONTINUOUS
10
9.96869
20
-8.86596
11
9.99819
21
-8.93897
0
LINE
8
BLACK
6
CONTINUOUS
10
9.09288
20
-8.92895
11
8.99798
21
-8.96729
0
LINE
8
BLACK
6
CONTINUOUS
10
8.99798
20
-8.96729
11
8.95963
21
-8.87239
0
LINE
8
BLACK
6
CONTINUOUS
10
8.95963
20
-8.87239
11
9.05454
21
-8.83404
0
LINE
8
BLACK
6
CONTINUOUS
10
9.05454
20
-8.83404
11
9.09288
21
-8.92895
0
LINE
8
BLACK
6
CONTINUOUS
10
2.54049
20
-8.86606
11
2.50215
21
-8.96097
0
LINE
8
BLACK
6
CONTINUOUS
10
2.50215
20
-8.96097
11
2.40724
21
-8.92262
0
LINE
8
BLACK
6
CONTINUOUS
10
2.40724
20
-8.92262
11
2.44558
21
-8.82771
0
LINE
8
BLACK
6
CONTINUOUS
10
2.44558
20
-8.82771
11
2.54049
21
-8.86606
0
LINE
8
BLACK
6
CONTINUOUS
10
9.40613
20
-8.92128
11
9.31122
21
-8.95963
0
LINE
8
BLACK
6
CONTINUOUS
10
9.31122
20
-8.95963
11
9.27287
21
-8.86472
0
LINE
8
BLACK
6
CONTINUOUS
10
9.27287
20
-8.86472
11
9.36778
21
-8.82637
0
LINE
8
BLACK
6
CONTINUOUS
10
9.36778
20
-8.82637
11
9.40613
21
-8.92128
0
LINE
8
BLACK
6
CONTINUOUS
10
3.76698
20
-8.84143
11
3.73011
21
-8.93269
0
LINE
8
BLACK
6
CONTINUOUS
10
3.73011
20
-8.93269
11
3.63702
21
-8.89508
0
LINE
8
BLACK
6
CONTINUOUS
10
3.63702
20
-8.89508
11
3.67389
21
-8.80382
0
LINE
8
BLACK
6
CONTINUOUS
10
3.67389
20
-8.80382
11
3.76698
21
-8.84143
0
LINE
8
BLACK
6
CONTINUOUS
10
7.54879
20
-8.86704
11
7.47579
21
-8.89654
0
LINE
8
BLACK
6
CONTINUOUS
10
7.47579
20
-8.89654
11
7.44629
21
-8.82353
0
LINE
8
BLACK
6
CONTINUOUS
10
7.44629
20
-8.82353
11
7.5193
21
-8.79403
0
LINE
8
BLACK
6
CONTINUOUS
10
7.5193
20
-8.79403
11
7.54879
21
-8.86704
0
LINE
8
BLACK
6
CONTINUOUS
10
9.86019
20
-8.83125
11
9.76528
21
-8.86959
0
LINE
8
BLACK
6
CONTINUOUS
10
9.76528
20
-8.86959
11
9.72693
21
-8.77468
0
LINE
8
BLACK
6
CONTINUOUS
10
9.72693
20
-8.77468
11
9.82184
21
-8.73634
0
LINE
8
BLACK
6
CONTINUOUS
10
9.82184
20
-8.73634
11
9.86019
21
-8.83125
0
LINE
8
BLACK
6
CONTINUOUS
10
1.77319
20
-8.76836
11
1.73484
21
-8.86327
0
LINE
8
BLACK
6
CONTINUOUS
10
1.73484
20
-8.86327
11
1.63993
21
-8.82492
0
LINE
8
BLACK
6
CONTINUOUS
10
1.63993
20
-8.82492
11
1.67828
21
-8.73001
0
LINE
8
BLACK
6
CONTINUOUS
10
1.67828
20
-8.73001
11
1.77319
21
-8.76836
0
LINE
8
BLACK
6
CONTINUOUS
10
2.99967
20
-8.74373
11
2.9628
21
-8.83499
0
LINE
8
BLACK
6
CONTINUOUS
10
2.9628
20
-8.83499
11
2.86972
21
-8.79738
0
LINE
8
BLACK
6
CONTINUOUS
10
2.86972
20
-8.79738
11
2.90659
21
-8.70612
0
LINE
8
BLACK
6
CONTINUOUS
10
2.90659
20
-8.70612
11
2.99967
21
-8.74373
0
LINE
8
BLACK
6
CONTINUOUS
10
10.5648
20
-8.778
11
10.4717
21
-8.8156
0
LINE
8
BLACK
6
CONTINUOUS
10
10.4717
20
-8.8156
11
10.4348
21
-8.72435
0
LINE
8
BLACK
6
CONTINUOUS
10
10.4348
20
-8.72435
11
10.5279
21
-8.68674
0
LINE
8
BLACK
6
CONTINUOUS
10
10.5279
20
-8.68674
11
10.5648
21
-8.778
0
LINE
8
BLACK
6
CONTINUOUS
10
8.3161
20
-8.76934
11
8.24309
21
-8.79884
0
LINE
8
BLACK
6
CONTINUOUS
10
8.24309
20
-8.79884
11
8.21359
21
-8.72583
0
LINE
8
BLACK
6
CONTINUOUS
10
8.21359
20
-8.72583
11
8.2866
21
-8.69633
0
LINE
8
BLACK
6
CONTINUOUS
10
8.2866
20
-8.69633
11
8.3161
21
-8.76934
0
LINE
8
BLACK
6
CONTINUOUS
10
8.11538
20
-8.70607
11
8.02229
21
-8.74367
0
LINE
8
BLACK
6
CONTINUOUS
10
8.02229
20
-8.74367
11
7.98542
21
-8.65242
0
LINE
8
BLACK
6
CONTINUOUS
10
7.98542
20
-8.65242
11
8.07851
21
-8.61481
0
LINE
8
BLACK
6
CONTINUOUS
10
8.07851
20
-8.61481
11
8.11538
21
-8.70607
0
LINE
8
BLACK
6
CONTINUOUS
10
2.23237
20
-8.64603
11
2.1955
21
-8.73729
0
LINE
8
BLACK
6
CONTINUOUS
10
2.1955
20
-8.73729
11
2.10242
21
-8.69968
0
LINE
8
BLACK
6
CONTINUOUS
10
2.10242
20
-8.69968
11
2.13929
21
-8.60842
0
LINE
8
BLACK
6
CONTINUOUS
10
2.13929
20
-8.60842
11
2.23237
21
-8.64603
0
LINE
8
BLACK
6
CONTINUOUS
10
0.790819
20
-8.65383
11
0.761322
21
-8.72683
0
LINE
8
BLACK
6
CONTINUOUS
10
0.761322
20
-8.72683
11
0.688316
21
-8.69734
0
LINE
8
BLACK
6
CONTINUOUS
10
0.688316
20
-8.69734
11
0.717812
21
-8.62433
0
LINE
8
BLACK
6
CONTINUOUS
10
0.717812
20
-8.62433
11
0.790819
21
-8.65383
0
LINE
8
BLACK
6
CONTINUOUS
10
9.0834
20
-8.67164
11
9.01039
21
-8.70114
0
LINE
8
BLACK
6
CONTINUOUS
10
9.01039
20
-8.70114
11
8.9809
21
-8.62813
0
LINE
8
BLACK
6
CONTINUOUS
10
8.9809
20
-8.62813
11
9.0539
21
-8.59863
0
LINE
8
BLACK
6
CONTINUOUS
10
9.0539
20
-8.59863
11
9.0834
21
-8.67164
0
LINE
8
BLACK
6
CONTINUOUS
10
1.52778
20
-8.59278
11
1.48944
21
-8.68768
0
LINE
8
BLACK
6
CONTINUOUS
10
1.48944
20
-8.68768
11
1.39453
21
-8.64934
0
LINE
8
BLACK
6
CONTINUOUS
10
1.39453
20
-8.64934
11
1.43288
21
-8.55443
0
LINE
8
BLACK
6
CONTINUOUS
10
1.43288
20
-8.55443
11
1.52778
21
-8.59278
0
LINE
8
BLACK
6
CONTINUOUS
10
3.24021
20
-8.5819
11
3.21072
21
-8.6549
0
LINE
8
BLACK
6
CONTINUOUS
10
3.21072
20
-8.6549
11
3.13771
21
-8.62541
0
LINE
8
BLACK
6
CONTINUOUS
10
3.13771
20
-8.62541
11
3.16721
21
-8.5524
0
LINE
8
BLACK
6
CONTINUOUS
10
3.16721
20
-8.5524
11
3.24021
21
-8.5819
0
LINE
8
BLACK
6
CONTINUOUS
10
8.88268
20
-8.60836
11
8.7896
21
-8.64597
0
LINE
8
BLACK
6
CONTINUOUS
10
8.7896
20
-8.64597
11
8.75273
21
-8.55471
0
LINE
8
BLACK
6
CONTINUOUS
10
8.75273
20
-8.55471
11
8.84581
21
-8.51711
0
LINE
8
BLACK
6
CONTINUOUS
10
8.84581
20
-8.51711
11
8.88268
21
-8.60836
0
LINE
8
BLACK
6
CONTINUOUS
10
3.97718
20
-8.52085
11
3.93883
21
-8.61575
0
LINE
8
BLACK
6
CONTINUOUS
10
3.93883
20
-8.61575
11
3.84393
21
-8.57741
0
LINE
8
BLACK
6
CONTINUOUS
10
3.84393
20
-8.57741
11
3.88227
21
-8.4825
0
LINE
8
BLACK
6
CONTINUOUS
10
3.88227
20
-8.4825
11
3.97718
21
-8.52085
0
LINE
8
BLACK
6
CONTINUOUS
10
2.47291
20
-8.4842
11
2.44341
21
-8.5572
0
LINE
8
BLACK
6
CONTINUOUS
10
2.44341
20
-8.5572
11
2.37041
21
-8.52771
0
LINE
8
BLACK
6
CONTINUOUS
10
2.37041
20
-8.52771
11
2.3999
21
-8.4547
0
LINE
8
BLACK
6
CONTINUOUS
10
2.3999
20
-8.4547
11
2.47291
21
-8.4842
0
LINE
8
BLACK
6
CONTINUOUS
10
9.64999
20
-8.51066
11
9.5569
21
-8.54827
0
LINE
8
BLACK
6
CONTINUOUS
10
9.5569
20
-8.54827
11
9.52003
21
-8.45701
0
LINE
8
BLACK
6
CONTINUOUS
10
9.52003
20
-8.45701
11
9.61311
21
-8.4194
0
LINE
8
BLACK
6
CONTINUOUS
10
9.61311
20
-8.4194
11
9.64999
21
-8.51066
0
LINE
8
BLACK
6
CONTINUOUS
10
10.0407
20
-8.49505
11
9.94579
21
-8.5334
0
LINE
8
BLACK
6
CONTINUOUS
10
9.94579
20
-8.5334
11
9.90744
21
-8.43849
0
LINE
8
BLACK
6
CONTINUOUS
10
9.90744
20
-8.43849
11
10.0024
21
-8.40014
0
LINE
8
BLACK
6
CONTINUOUS
10
10.0024
20
-8.40014
11
10.0407
21
-8.49505
0
LINE
8
BLACK
6
CONTINUOUS
10
3.20988
20
-8.42315
11
3.17153
21
-8.51805
0
LINE
8
BLACK
6
CONTINUOUS
10
3.17153
20
-8.51805
11
3.07662
21
-8.47971
0
LINE
8
BLACK
6
CONTINUOUS
10
3.07662
20
-8.47971
11
3.11497
21
-8.3848
0
LINE
8
BLACK
6
CONTINUOUS
10
3.11497
20
-8.3848
11
3.20988
21
-8.42315
0
LINE
8
BLACK
6
CONTINUOUS
10
7.5913
20
-8.42312
11
7.49639
21
-8.46147
0
LINE
8
BLACK
6
CONTINUOUS
10
7.49639
20
-8.46147
11
7.45805
21
-8.36656
0
LINE
8
BLACK
6
CONTINUOUS
10
7.45805
20
-8.36656
11
7.55296
21
-8.32821
0
LINE
8
BLACK
6
CONTINUOUS
10
7.55296
20
-8.32821
11
7.5913
21
-8.42312
0
LINE
8
BLACK
6
CONTINUOUS
10
1.70561
20
-8.38649
11
1.67611
21
-8.4595
0
LINE
8
BLACK
6
CONTINUOUS
10
1.67611
20
-8.4595
11
1.6031
21
-8.43
0
LINE
8
BLACK
6
CONTINUOUS
10
1.6031
20
-8.43
11
1.6326
21
-8.357
0
LINE
8
BLACK
6
CONTINUOUS
10
1.6326
20
-8.357
11
1.70561
21
-8.38649
0
LINE
8
BLACK
6
CONTINUOUS
10
10.4948
20
-8.40502
11
10.3998
21
-8.44336
0
LINE
8
BLACK
6
CONTINUOUS
10
10.3998
20
-8.44336
11
10.3615
21
-8.34845
0
LINE
8
BLACK
6
CONTINUOUS
10
10.3615
20
-8.34845
11
10.4564
21
-8.31011
0
LINE
8
BLACK
6
CONTINUOUS
10
10.4564
20
-8.31011
11
10.4948
21
-8.40502
0
LINE
8
BLACK
6
CONTINUOUS
10
1.13862
20
-8.34213
11
1.10027
21
-8.43703
0
LINE
8
BLACK
6
CONTINUOUS
10
1.10027
20
-8.43703
11
1.00536
21
-8.39869
0
LINE
8
BLACK
6
CONTINUOUS
10
1.00536
20
-8.39869
11
1.04371
21
-8.30378
0
LINE
8
BLACK
6
CONTINUOUS
10
1.04371
20
-8.30378
11
1.13862
21
-8.34213
0
LINE
8
BLACK
6
CONTINUOUS
10
2.44257
20
-8.32544
11
2.40423
21
-8.42035
0
LINE
8
BLACK
6
CONTINUOUS
10
2.40423
20
-8.42035
11
2.30932
21
-8.38201
0
LINE
8
BLACK
6
CONTINUOUS
10
2.30932
20
-8.38201
11
2.34766
21
-8.2871
0
LINE
8
BLACK
6
CONTINUOUS
10
2.34766
20
-8.2871
11
2.44257
21
-8.32544
0
LINE
8
BLACK
6
CONTINUOUS
10
8.04536
20
-8.33309
11
7.95045
21
-8.37143
0
LINE
8
BLACK
6
CONTINUOUS
10
7.95045
20
-8.37143
11
7.91211
21
-8.27652
0
LINE
8
BLACK
6
CONTINUOUS
10
7.91211
20
-8.27652
11
8.00702
21
-8.23818
0
LINE
8
BLACK
6
CONTINUOUS
10
8.00702
20
-8.23818
11
8.04536
21
-8.33309
0
LINE
8
BLACK
6
CONTINUOUS
10
3.58801
20
-8.2702
11
3.54967
21
-8.3651
0
LINE
8
BLACK
6
CONTINUOUS
10
3.54967
20
-8.3651
11
3.45476
21
-8.32676
0
LINE
8
BLACK
6
CONTINUOUS
10
3.45476
20
-8.32676
11
3.4931
21
-8.23185
0
LINE
8
BLACK
6
CONTINUOUS
10
3.4931
20
-8.23185
11
3.58801
21
-8.2702
0
LINE
8
BLACK
6
CONTINUOUS
10
8.35861
20
-8.32542
11
8.2637
21
-8.36377
0
LINE
8
BLACK
6
CONTINUOUS
10
8.2637
20
-8.36377
11
8.22535
21
-8.26886
0
LINE
8
BLACK
6
CONTINUOUS
10
8.22535
20
-8.26886
11
8.32026
21
-8.23051
0
LINE
8
BLACK
6
CONTINUOUS
10
8.32026
20
-8.23051
11
8.35861
21
-8.32542
0
LINE
8
BLACK
6
CONTINUOUS
10
1.5978
20
-8.2198
11
1.56093
21
-8.31106
0
LINE
8
BLACK
6
CONTINUOUS
10
1.56093
20
-8.31106
11
1.46785
21
-8.27345
0
LINE
8
BLACK
6
CONTINUOUS
10
1.46785
20
-8.27345
11
1.50472
21
-8.18219
0
LINE
8
BLACK
6
CONTINUOUS
10
1.50472
20
-8.18219
11
1.5978
21
-8.2198
0
LINE
8
BLACK
6
CONTINUOUS
10
9.71797
20
-8.24541
11
9.64496
21
-8.2749
0
LINE
8
BLACK
6
CONTINUOUS
10
9.64496
20
-8.2749
11
9.61547
21
-8.2019
0
LINE
8
BLACK
6
CONTINUOUS
10
9.61547
20
-8.2019
11
9.68847
21
-8.1724
0
LINE
8
BLACK
6
CONTINUOUS
10
9.68847
20
-8.1724
11
9.71797
21
-8.24541
0
LINE
8
BLACK
6
CONTINUOUS
10
8.81267
20
-8.23539
11
8.71776
21
-8.27373
0
LINE
8
BLACK
6
CONTINUOUS
10
8.71776
20
-8.27373
11
8.67941
21
-8.17882
0
LINE
8
BLACK
6
CONTINUOUS
10
8.67941
20
-8.17882
11
8.77432
21
-8.14048
0
LINE
8
BLACK
6
CONTINUOUS
10
8.77432
20
-8.14048
11
8.81267
21
-8.23539
0
LINE
8
BLACK
6
CONTINUOUS
10
2.82071
20
-8.17249
11
2.78236
21
-8.2674
0
LINE
8
BLACK
6
CONTINUOUS
10
2.78236
20
-8.2674
11
2.68746
21
-8.22906
0
LINE
8
BLACK
6
CONTINUOUS
10
2.68746
20
-8.22906
11
2.7258
21
-8.13415
0
LINE
8
BLACK
6
CONTINUOUS
10
2.7258
20
-8.13415
11
2.82071
21
-8.17249
0
LINE
8
BLACK
6
CONTINUOUS
10
9.12591
20
-8.22772
11
9.031
21
-8.26607
0
LINE
8
BLACK
6
CONTINUOUS
10
9.031
20
-8.26607
11
8.99266
21
-8.17116
0
LINE
8
BLACK
6
CONTINUOUS
10
8.99266
20
-8.17116
11
9.08757
21
-8.13281
0
LINE
8
BLACK
6
CONTINUOUS
10
9.08757
20
-8.13281
11
9.12591
21
-8.22772
0
LINE
8
BLACK
6
CONTINUOUS
10
9.57997
20
-8.13769
11
9.48506
21
-8.17603
0
LINE
8
BLACK
6
CONTINUOUS
10
9.48506
20
-8.17603
11
9.44672
21
-8.08112
0
LINE
8
BLACK
6
CONTINUOUS
10
9.44672
20
-8.08112
11
9.54162
21
-8.04278
0
LINE
8
BLACK
6
CONTINUOUS
10
9.54162
20
-8.04278
11
9.57997
21
-8.13769
0
LINE
8
BLACK
6
CONTINUOUS
10
2.05341
20
-8.07479
11
2.01506
21
-8.1697
0
LINE
8
BLACK
6
CONTINUOUS
10
2.01506
20
-8.1697
11
1.92015
21
-8.13136
0
LINE
8
BLACK
6
CONTINUOUS
10
1.92015
20
-8.13136
11
1.9585
21
-8.03645
0
LINE
8
BLACK
6
CONTINUOUS
10
1.9585
20
-8.03645
11
2.05341
21
-8.07479
0
LINE
8
BLACK
6
CONTINUOUS
10
10.2846
20
-8.08443
11
10.1915
21
-8.12204
0
LINE
8
BLACK
6
CONTINUOUS
10
10.1915
20
-8.12204
11
10.1546
21
-8.03078
0
LINE
8
BLACK
6
CONTINUOUS
10
10.1546
20
-8.03078
11
10.2477
21
-7.99317
0
LINE
8
BLACK
6
CONTINUOUS
10
10.2477
20
-7.99317
11
10.2846
21
-8.08443
0
LINE
8
BLACK
6
CONTINUOUS
10
1.07104
20
-7.96026
11
1.04154
21
-8.03327
0
LINE
8
BLACK
6
CONTINUOUS
10
1.04154
20
-8.03327
11
0.968533
21
-8.00377
0
LINE
8
BLACK
6
CONTINUOUS
10
0.968533
20
-8.00377
11
0.99803
21
-7.93077
0
LINE
8
BLACK
6
CONTINUOUS
10
0.99803
20
-7.93077
11
1.07104
21
-7.96026
0
LINE
8
BLACK
6
CONTINUOUS
10
1.808
20
-7.89921
11
1.76966
21
-7.99412
0
LINE
8
BLACK
6
CONTINUOUS
10
1.76966
20
-7.99412
11
1.67475
21
-7.95578
0
LINE
8
BLACK
6
CONTINUOUS
10
1.67475
20
-7.95578
11
1.71309
21
-7.86087
0
LINE
8
BLACK
6
CONTINUOUS
10
1.71309
20
-7.86087
11
1.808
21
-7.89921
0
LINE
8
BLACK
6
CONTINUOUS
10
9.76048
20
-7.80149
11
9.66557
21
-7.83984
0
LINE
8
BLACK
6
CONTINUOUS
10
9.66557
20
-7.83984
11
9.62723
21
-7.74493
0
LINE
8
BLACK
6
CONTINUOUS
10
9.62723
20
-7.74493
11
9.72213
21
-7.70658
0
LINE
8
BLACK
6
CONTINUOUS
10
9.72213
20
-7.70658
11
9.76048
21
-7.80149
0
LINE
8
BLACK
6
CONTINUOUS
10
10.2145
20
-7.71145
11
10.1196
21
-7.7498
0
LINE
8
BLACK
6
CONTINUOUS
10
10.1196
20
-7.7498
11
10.0813
21
-7.65489
0
LINE
8
BLACK
6
CONTINUOUS
10
10.0813
20
-7.65489
11
10.1762
21
-7.61655
0
LINE
8
BLACK
6
CONTINUOUS
10
10.1762
20
-7.61655
11
10.2145
21
-7.71145
0
LINE
8
BLACK
6
CONTINUOUS
10
1.41884
20
-7.64856
11
1.38049
21
-7.74347
0
LINE
8
BLACK
6
CONTINUOUS
10
1.38049
20
-7.74347
11
1.28558
21
-7.70513
0
LINE
8
BLACK
6
CONTINUOUS
10
1.28558
20
-7.70513
11
1.32393
21
-7.61022
0
LINE
8
BLACK
6
CONTINUOUS
10
1.32393
20
-7.61022
11
1.41884
21
-7.64856
0
LINE
8
BLACK
6
CONTINUOUS
10
6.38913
20
-5.45176
11
6.39093
21
-5.45231
0
LINE
8
BLACK
6
CONTINUOUS
10
6.39093
20
-5.45231
11
6.39259
21
-5.45319
0
LINE
8
BLACK
6
CONTINUOUS
10
6.39259
20
-5.45319
11
6.39404
21
-5.45439
0
LINE
8
BLACK
6
CONTINUOUS
10
6.39404
20
-5.45439
11
6.39523
21
-5.45584
0
LINE
8
BLACK
6
CONTINUOUS
10
6.39523
20
-5.45584
11
6.39612
21
-5.4575
0
LINE
8
BLACK
6
CONTINUOUS
10
6.39612
20
-5.4575
11
6.39667
21
-5.4593
0
LINE
8
BLACK
6
CONTINUOUS
10
6.39667
20
-5.4593
11
6.39685
21
-5.46117
0
LINE
8
BLACK
6
CONTINUOUS
10
6.39685
20
-5.46117
11
6.39685
21
-5.48036
0
LINE
8
BLACK
6
CONTINUOUS
10
6.39685
20
-5.48036
11
6.39667
21
-5.48224
0
LINE
8
BLACK
6
CONTINUOUS
10
6.39667
20
-5.48224
11
6.39612
21
-5.48404
0
LINE
8
BLACK
6
CONTINUOUS
10
6.39612
20
-5.48404
11
6.39523
21
-5.4857
0
LINE
8
BLACK
6
CONTINUOUS
10
6.39523
20
-5.4857
11
6.39404
21
-5.48715
0
LINE
8
BLACK
6
CONTINUOUS
10
6.39404
20
-5.48715
11
6.39259
21
-5.48834
0
LINE
8
BLACK
6
CONTINUOUS
10
6.39259
20
-5.48834
11
6.39093
21
-5.48923
0
LINE
8
BLACK
6
CONTINUOUS
10
6.39093
20
-5.48923
11
6.38913
21
-5.48978
0
LINE
8
BLACK
6
CONTINUOUS
10
6.38913
20
-5.48978
11
6.38725
21
-5.48996
0
LINE
8
BLACK
6
CONTINUOUS
10
6.38725
20
-5.48996
11
6.35133
21
-5.48996
0
LINE
8
BLACK
6
CONTINUOUS
10
6.35133
20
-5.48996
11
6.34946
21
-5.48978
0
LINE
8
BLACK
6
CONTINUOUS
10
6.34946
20
-5.48978
11
6.34766
21
-5.48923
0
LINE
8
BLACK
6
CONTINUOUS
10
6.34766
20
-5.48923
11
6.346
21
-5.48834
0
LINE
8
BLACK
6
CONTINUOUS
10
6.346
20
-5.48834
11
6.34454
21
-5.48715
0
LINE
8
BLACK
6
CONTINUOUS
10
6.34454
20
-5.48715
11
6.34335
21
-5.4857
0
LINE
8
BLACK
6
CONTINUOUS
10
6.34335
20
-5.4857
11
6.34246
21
-5.48404
0
LINE
8
BLACK
6
CONTINUOUS
10
6.34246
20
-5.48404
11
6.34192
21
-5.48224
0
LINE
8
BLACK
6
CONTINUOUS
10
6.34192
20
-5.48224
11
6.34173
21
-5.48036
0
LINE
8
BLACK
6
CONTINUOUS
10
6.34173
20
-5.48036
11
6.34173
21
-5.46117
0
LINE
8
BLACK
6
CONTINUOUS
10
6.34173
20
-5.46117
11
6.34192
21
-5.4593
0
LINE
8
BLACK
6
CONTINUOUS
10
6.34192
20
-5.4593
11
6.34246
21
-5.4575
0
LINE
8
BLACK
6
CONTINUOUS
10
6.34246
20
-5.4575
11
6.34335
21
-5.45584
0
LINE
8
BLACK
6
CONTINUOUS
10
6.34335
20
-5.45584
11
6.34454
21
-5.45439
0
LINE
8
BLACK
6
CONTINUOUS
10
6.34454
20
-5.45439
11
6.346
21
-5.45319
0
LINE
8
BLACK
6
CONTINUOUS
10
6.346
20
-5.45319
11
6.34766
21
-5.45231
0
LINE
8
BLACK
6
CONTINUOUS
10
6.34766
20
-5.45231
11
6.34946
21
-5.45176
0
LINE
8
BLACK
6
CONTINUOUS
10
6.34946
20
-5.45176
11
6.35133
21
-5.45157
0
LINE
8
BLACK
6
CONTINUOUS
10
6.35133
20
-5.45157
11
6.38725
21
-5.45157
0
LINE
8
BLACK
6
CONTINUOUS
10
6.38725
20
-5.45157
11
6.38913
21
-5.45176
0
LINE
8
BLACK
6
CONTINUOUS
10
6.46787
20
-5.45127
11
6.46967
21
-5.45181
0
LINE
8
BLACK
6
CONTINUOUS
10
6.46967
20
-5.45181
11
6.47133
21
-5.4527
0
LINE
8
BLACK
6
CONTINUOUS
10
6.47133
20
-5.4527
11
6.47278
21
-5.45389
0
LINE
8
BLACK
6
CONTINUOUS
10
6.47278
20
-5.45389
11
6.47397
21
-5.45535
0
LINE
8
BLACK
6
CONTINUOUS
10
6.47397
20
-5.45535
11
6.47486
21
-5.45701
0
LINE
8
BLACK
6
CONTINUOUS
10
6.47486
20
-5.45701
11
6.47541
21
-5.45881
0
LINE
8
BLACK
6
CONTINUOUS
10
6.47541
20
-5.45881
11
6.47559
21
-5.46068
0
LINE
8
BLACK
6
CONTINUOUS
10
6.47559
20
-5.46068
11
6.47559
21
-5.47987
0
LINE
8
BLACK
6
CONTINUOUS
10
6.47559
20
-5.47987
11
6.47541
21
-5.48174
0
LINE
8
BLACK
6
CONTINUOUS
10
6.47541
20
-5.48174
11
6.47486
21
-5.48354
0
LINE
8
BLACK
6
CONTINUOUS
10
6.47486
20
-5.48354
11
6.47397
21
-5.4852
0
LINE
8
BLACK
6
CONTINUOUS
10
6.47397
20
-5.4852
11
6.47278
21
-5.48666
0
LINE
8
BLACK
6
CONTINUOUS
10
6.47278
20
-5.48666
11
6.47133
21
-5.48785
0
LINE
8
BLACK
6
CONTINUOUS
10
6.47133
20
-5.48785
11
6.46967
21
-5.48874
0
LINE
8
BLACK
6
CONTINUOUS
10
6.46967
20
-5.48874
11
6.46787
21
-5.48928
0
LINE
8
BLACK
6
CONTINUOUS
10
6.46787
20
-5.48928
11
6.46599
21
-5.48947
0
LINE
8
BLACK
6
CONTINUOUS
10
6.46599
20
-5.48947
11
6.43007
21
-5.48947
0
LINE
8
BLACK
6
CONTINUOUS
10
6.43007
20
-5.48947
11
6.4282
21
-5.48928
0
LINE
8
BLACK
6
CONTINUOUS
10
6.4282
20
-5.48928
11
6.4264
21
-5.48874
0
LINE
8
BLACK
6
CONTINUOUS
10
6.4264
20
-5.48874
11
6.42474
21
-5.48785
0
LINE
8
BLACK
6
CONTINUOUS
10
6.42474
20
-5.48785
11
6.42328
21
-5.48666
0
LINE
8
BLACK
6
CONTINUOUS
10
6.42328
20
-5.48666
11
6.42209
21
-5.4852
0
LINE
8
BLACK
6
CONTINUOUS
10
6.42209
20
-5.4852
11
6.4212
21
-5.48354
0
LINE
8
BLACK
6
CONTINUOUS
10
6.4212
20
-5.48354
11
6.42066
21
-5.48174
0
LINE
8
BLACK
6
CONTINUOUS
10
6.42066
20
-5.48174
11
6.42047
21
-5.47987
0
LINE
8
BLACK
6
CONTINUOUS
10
6.42047
20
-5.47987
11
6.42047
21
-5.46068
0
LINE
8
BLACK
6
CONTINUOUS
10
6.42047
20
-5.46068
11
6.42066
21
-5.45881
0
LINE
8
BLACK
6
CONTINUOUS
10
6.42066
20
-5.45881
11
6.4212
21
-5.45701
0
LINE
8
BLACK
6
CONTINUOUS
10
6.4212
20
-5.45701
11
6.42209
21
-5.45535
0
LINE
8
BLACK
6
CONTINUOUS
10
6.42209
20
-5.45535
11
6.42328
21
-5.45389
0
LINE
8
BLACK
6
CONTINUOUS
10
6.42328
20
-5.45389
11
6.42474
21
-5.4527
0
LINE
8
BLACK
6
CONTINUOUS
10
6.42474
20
-5.4527
11
6.4264
21
-5.45181
0
LINE
8
BLACK
6
CONTINUOUS
10
6.4264
20
-5.45181
11
6.4282
21
-5.45127
0
LINE
8
BLACK
6
CONTINUOUS
10
6.4282
20
-5.45127
11
6.43007
21
-5.45108
0
LINE
8
BLACK
6
CONTINUOUS
10
6.43007
20
-5.45108
11
6.46599
21
-5.45108
0
LINE
8
BLACK
6
CONTINUOUS
10
6.46599
20
-5.45108
11
6.46787
21
-5.45127
0
LINE
8
BLACK
6
CONTINUOUS
10
6.38913
20
-5.37794
11
6.39093
21
-5.37849
0
LINE
8
BLACK
6
CONTINUOUS
10
6.39093
20
-5.37849
11
6.39259
21
-5.37937
0
LINE
8
BLACK
6
CONTINUOUS
10
6.39259
20
-5.37937
11
6.39404
21
-5.38057
0
LINE
8
BLACK
6
CONTINUOUS
10
6.39404
20
-5.38057
11
6.39523
21
-5.38202
0
LINE
8
BLACK
6
CONTINUOUS
10
6.39523
20
-5.38202
11
6.39612
21
-5.38368
0
LINE
8
BLACK
6
CONTINUOUS
10
6.39612
20
-5.38368
11
6.39667
21
-5.38548
0
LINE
8
BLACK
6
CONTINUOUS
10
6.39667
20
-5.38548
11
6.39685
21
-5.38735
0
LINE
8
BLACK
6
CONTINUOUS
10
6.39685
20
-5.38735
11
6.39685
21
-5.40655
0
LINE
8
BLACK
6
CONTINUOUS
10
6.39685
20
-5.40655
11
6.39667
21
-5.40842
0
LINE
8
BLACK
6
CONTINUOUS
10
6.39667
20
-5.40842
11
6.39612
21
-5.41022
0
LINE
8
BLACK
6
CONTINUOUS
10
6.39612
20
-5.41022
11
6.39523
21
-5.41188
0
LINE
8
BLACK
6
CONTINUOUS
10
6.39523
20
-5.41188
11
6.39404
21
-5.41333
0
LINE
8
BLACK
6
CONTINUOUS
10
6.39404
20
-5.41333
11
6.39259
21
-5.41452
0
LINE
8
BLACK
6
CONTINUOUS
10
6.39259
20
-5.41452
11
6.39093
21
-5.41541
0
LINE
8
BLACK
6
CONTINUOUS
10
6.39093
20
-5.41541
11
6.38913
21
-5.41596
0
LINE
8
BLACK
6
CONTINUOUS
10
6.38913
20
-5.41596
11
6.38725
21
-5.41614
0
LINE
8
BLACK
6
CONTINUOUS
10
6.38725
20
-5.41614
11
6.35133
21
-5.41614
0
LINE
8
BLACK
6
CONTINUOUS
10
6.35133
20
-5.41614
11
6.34946
21
-5.41596
0
LINE
8
BLACK
6
CONTINUOUS
10
6.34946
20
-5.41596
11
6.34766
21
-5.41541
0
LINE
8
BLACK
6
CONTINUOUS
10
6.34766
20
-5.41541
11
6.346
21
-5.41452
0
LINE
8
BLACK
6
CONTINUOUS
10
6.346
20
-5.41452
11
6.34454
21
-5.41333
0
LINE
8
BLACK
6
CONTINUOUS
10
6.34454
20
-5.41333
11
6.34335
21
-5.41188
0
LINE
8
BLACK
6
CONTINUOUS
10
6.34335
20
-5.41188
11
6.34246
21
-5.41022
0
LINE
8
BLACK
6
CONTINUOUS
10
6.34246
20
-5.41022
11
6.34192
21
-5.40842
0
LINE
8
BLACK
6
CONTINUOUS
10
6.34192
20
-5.40842
11
6.34173
21
-5.40655
0
LINE
8
BLACK
6
CONTINUOUS
10
6.34173
20
-5.40655
11
6.34173
21
-5.38735
0
LINE
8
BLACK
6
CONTINUOUS
10
6.34173
20
-5.38735
11
6.34192
21
-5.38548
0
LINE
8
BLACK
6
CONTINUOUS
10
6.34192
20
-5.38548
11
6.34246
21
-5.38368
0
LINE
8
BLACK
6
CONTINUOUS
10
6.34246
20
-5.38368
11
6.34335
21
-5.38202
0
LINE
8
BLACK
6
CONTINUOUS
10
6.34335
20
-5.38202
11
6.34454
21
-5.38057
0
LINE
8
BLACK
6
CONTINUOUS
10
6.34454
20
-5.38057
11
6.346
21
-5.37937
0
LINE
8
BLACK
6
CONTINUOUS
10
6.346
20
-5.37937
11
6.34766
21
-5.37849
0
LINE
8
BLACK
6
CONTINUOUS
10
6.34766
20
-5.37849
11
6.34946
21
-5.37794
0
LINE
8
BLACK
6
CONTINUOUS
10
6.34946
20
-5.37794
11
6.35133
21
-5.37776
0
LINE
8
BLACK
6
CONTINUOUS
10
6.35133
20
-5.37776
11
6.38725
21
-5.37776
0
LINE
8
BLACK
6
CONTINUOUS
10
6.38725
20
-5.37776
11
6.38913
21
-5.37794
0
LINE
8
BLACK
6
CONTINUOUS
10
6.46787
20
-5.37745
11
6.46967
21
-5.37799
0
LINE
8
BLACK
6
CONTINUOUS
10
6.46967
20
-5.37799
11
6.47133
21
-5.37888
0
LINE
8
BLACK
6
CONTINUOUS
10
6.47133
20
-5.37888
11
6.47278
21
-5.38007
0
LINE
8
BLACK
6
CONTINUOUS
10
6.47278
20
-5.38007
11
6.47397
21
-5.38153
0
LINE
8
BLACK
6
CONTINUOUS
10
6.47397
20
-5.38153
11
6.47486
21
-5.38319
0
LINE
8
BLACK
6
CONTINUOUS
10
6.47486
20
-5.38319
11
6.47541
21
-5.38499
0
LINE
8
BLACK
6
CONTINUOUS
10
6.47541
20
-5.38499
11
6.47559
21
-5.38686
0
LINE
8
BLACK
6
CONTINUOUS
10
6.47559
20
-5.38686
11
6.47559
21
-5.40605
0
LINE
8
BLACK
6
CONTINUOUS
10
6.47559
20
-5.40605
11
6.47541
21
-5.40793
0
LINE
8
BLACK
6
CONTINUOUS
10
6.47541
20
-5.40793
11
6.47486
21
-5.40973
0
LINE
8
BLACK
6
CONTINUOUS
10
6.47486
20
-5.40973
11
6.47397
21
-5.41138
0
LINE
8
BLACK
6
CONTINUOUS
10
6.47397
20
-5.41138
11
6.47278
21
-5.41284
0
LINE
8
BLACK
6
CONTINUOUS
10
6.47278
20
-5.41284
11
6.47133
21
-5.41403
0
LINE
8
BLACK
6
CONTINUOUS
10
6.47133
20
-5.41403
11
6.46967
21
-5.41492
0
LINE
8
BLACK
6
CONTINUOUS
10
6.46967
20
-5.41492
11
6.46787
21
-5.41547
0
LINE
8
BLACK
6
CONTINUOUS
10
6.46787
20
-5.41547
11
6.46599
21
-5.41565
0
LINE
8
BLACK
6
CONTINUOUS
10
6.46599
20
-5.41565
11
6.43007
21
-5.41565
0
LINE
8
BLACK
6
CONTINUOUS
10
6.43007
20
-5.41565
11
6.4282
21
-5.41547
0
LINE
8
BLACK
6
CONTINUOUS
10
6.4282
20
-5.41547
11
6.4264
21
-5.41492
0
LINE
8
BLACK
6
CONTINUOUS
10
6.4264
20
-5.41492
11
6.42474
21
-5.41403
0
LINE
8
BLACK
6
CONTINUOUS
10
6.42474
20
-5.41403
11
6.42328
21
-5.41284
0
LINE
8
BLACK
6
CONTINUOUS
10
6.42328
20
-5.41284
11
6.42209
21
-5.41138
0
LINE
8
BLACK
6
CONTINUOUS
10
6.42209
20
-5.41138
11
6.4212
21
-5.40973
0
LINE
8
BLACK
6
CONTINUOUS
10
6.4212
20
-5.40973
11
6.42066
21
-5.40793
0
LINE
8
BLACK
6
CONTINUOUS
10
6.42066
20
-5.40793
11
6.42047
21
-5.40605
0
LINE
8
BLACK
6
CONTINUOUS
10
6.42047
20
-5.40605
11
6.42047
21
-5.38686
0
LINE
8
BLACK
6
CONTINUOUS
10
6.42047
20
-5.38686
11
6.42066
21
-5.38499
0
LINE
8
BLACK
6
CONTINUOUS
10
6.42066
20
-5.38499
11
6.4212
21
-5.38319
0
LINE
8
BLACK
6
CONTINUOUS
10
6.4212
20
-5.38319
11
6.42209
21
-5.38153
0
LINE
8
BLACK
6
CONTINUOUS
10
6.42209
20
-5.38153
11
6.42328
21
-5.38007
0
LINE
8
BLACK
6
CONTINUOUS
10
6.42328
20
-5.38007
11
6.42474
21
-5.37888
0
LINE
8
BLACK
6
CONTINUOUS
10
6.42474
20
-5.37888
11
6.4264
21
-5.37799
0
LINE
8
BLACK
6
CONTINUOUS
10
6.4264
20
-5.37799
11
6.4282
21
-5.37745
0
LINE
8
BLACK
6
CONTINUOUS
10
6.4282
20
-5.37745
11
6.43007
21
-5.37726
0
LINE
8
BLACK
6
CONTINUOUS
10
6.43007
20
-5.37726
11
6.46599
21
-5.37726
0
LINE
8
BLACK
6
CONTINUOUS
10
6.46599
20
-5.37726
11
6.46787
21
-5.37745
0
LINE
8
BLACK
6
CONTINUOUS
10
4.44803
20
-5.18189
11
4.40079
21
-5.18189
0
LINE
8
BLACK
6
CONTINUOUS
10
4.40079
20
-5.18189
11
4.40079
21
-5.14646
0
LINE
8
BLACK
6
CONTINUOUS
10
4.40079
20
-5.14646
11
4.44803
21
-5.14646
0
LINE
8
BLACK
6
CONTINUOUS
10
4.44803
20
-5.14646
11
4.44803
21
-5.18189
0
LINE
8
BLACK
6
CONTINUOUS
10
3.96092
20
-5.18189
11
3.91367
21
-5.18189
0
LINE
8
BLACK
6
CONTINUOUS
10
3.91367
20
-5.18189
11
3.91367
21
-5.14646
0
LINE
8
BLACK
6
CONTINUOUS
10
3.91367
20
-5.14646
11
3.96092
21
-5.14646
0
LINE
8
BLACK
6
CONTINUOUS
10
3.96092
20
-5.14646
11
3.96092
21
-5.18189
0
LINE
8
BLACK
6
CONTINUOUS
10
4.34961
20
-5.18189
11
4.30236
21
-5.18189
0
LINE
8
BLACK
6
CONTINUOUS
10
4.30236
20
-5.18189
11
4.30236
21
-5.14646
0
LINE
8
BLACK
6
CONTINUOUS
10
4.30236
20
-5.14646
11
4.34961
21
-5.14646
0
LINE
8
BLACK
6
CONTINUOUS
10
4.34961
20
-5.14646
11
4.34961
21
-5.18189
0
LINE
8
BLACK
6
CONTINUOUS
10
4.24975
20
-5.18189
11
4.20251
21
-5.18189
0
LINE
8
BLACK
6
CONTINUOUS
10
4.20251
20
-5.18189
11
4.20251
21
-5.14646
0
LINE
8
BLACK
6
CONTINUOUS
10
4.20251
20
-5.14646
11
4.24975
21
-5.14646
0
LINE
8
BLACK
6
CONTINUOUS
10
4.24975
20
-5.14646
11
4.24975
21
-5.18189
0
LINE
8
BLACK
6
CONTINUOUS
10
4.15347
20
-5.18189
11
4.10623
21
-5.18189
0
LINE
8
BLACK
6
CONTINUOUS
10
4.10623
20
-5.18189
11
4.10623
21
-5.14646
0
LINE
8
BLACK
6
CONTINUOUS
10
4.10623
20
-5.14646
11
4.15347
21
-5.14646
0
LINE
8
BLACK
6
CONTINUOUS
10
4.15347
20
-5.14646
11
4.15347
21
-5.18189
0
LINE
8
BLACK
6
CONTINUOUS
10
4.05719
20
-5.18189
11
4.00995
21
-5.18189
0
LINE
8
BLACK
6
CONTINUOUS
10
4.00995
20
-5.18189
11
4.00995
21
-5.14646
0
LINE
8
BLACK
6
CONTINUOUS
10
4.00995
20
-5.14646
11
4.05719
21
-5.14646
0
LINE
8
BLACK
6
CONTINUOUS
10
4.05719
20
-5.14646
11
4.05719
21
-5.18189
0
LINE
8
BLACK
6
CONTINUOUS
10
4.24975
20
-5.05197
11
4.20251
21
-5.05197
0
LINE
8
BLACK
6
CONTINUOUS
10
4.20251
20
-5.05197
11
4.20251
21
-5.01654
0
LINE
8
BLACK
6
CONTINUOUS
10
4.20251
20
-5.01654
11
4.24975
21
-5.01654
0
LINE
8
BLACK
6
CONTINUOUS
10
4.24975
20
-5.01654
11
4.24975
21
-5.05197
0
LINE
8
BLACK
6
CONTINUOUS
10
4.15347
20
-5.05197
11
4.10623
21
-5.05197
0
LINE
8
BLACK
6
CONTINUOUS
10
4.10623
20
-5.05197
11
4.10623
21
-5.01654
0
LINE
8
BLACK
6
CONTINUOUS
10
4.10623
20
-5.01654
11
4.15347
21
-5.01654
0
LINE
8
BLACK
6
CONTINUOUS
10
4.15347
20
-5.01654
11
4.15347
21
-5.05197
0
LINE
8
BLACK
6
CONTINUOUS
10
4.05719
20
-5.05197
11
4.00995
21
-5.05197
0
LINE
8
BLACK
6
CONTINUOUS
10
4.00995
20
-5.05197
11
4.00995
21
-5.01654
0
LINE
8
BLACK
6
CONTINUOUS
10
4.00995
20
-5.01654
11
4.05719
21
-5.01654
0
LINE
8
BLACK
6
CONTINUOUS
10
4.05719
20
-5.01654
11
4.05719
21
-5.05197
0
LINE
8
BLACK
6
CONTINUOUS
10
3.96092
20
-5.05197
11
3.91367
21
-5.05197
0
LINE
8
BLACK
6
CONTINUOUS
10
3.91367
20
-5.05197
11
3.91367
21
-5.01654
0
LINE
8
BLACK
6
CONTINUOUS
10
3.91367
20
-5.01654
11
3.96092
21
-5.01654
0
LINE
8
BLACK
6
CONTINUOUS
10
3.96092
20
-5.01654
11
3.96092
21
-5.05197
0
LINE
8
BLACK
6
CONTINUOUS
10
4.44803
20
-5.05197
11
4.40079
21
-5.05197
0
LINE
8
BLACK
6
CONTINUOUS
10
4.40079
20
-5.05197
11
4.40079
21
-5.01654
0
LINE
8
BLACK
6
CONTINUOUS
10
4.40079
20
-5.01654
11
4.44803
21
-5.01654
0
LINE
8
BLACK
6
CONTINUOUS
10
4.44803
20
-5.01654
11
4.44803
21
-5.05197
0
LINE
8
BLACK
6
CONTINUOUS
10
4.34961
20
-5.05197
11
4.30236
21
-5.05197
0
LINE
8
BLACK
6
CONTINUOUS
10
4.30236
20
-5.05197
11
4.30236
21
-5.01654
0
LINE
8
BLACK
6
CONTINUOUS
10
4.30236
20
-5.01654
11
4.34961
21
-5.01654
0
LINE
8
BLACK
6
CONTINUOUS
10
4.34961
20
-5.01654
11
4.34961
21
-5.05197
0
LINE
8
BLACK
6
CONTINUOUS
10
6.28661
20
-4.91811
11
6.25118
21
-4.91811
0
LINE
8
BLACK
6
CONTINUOUS
10
6.25118
20
-4.91811
11
6.25118
21
-4.87087
0
LINE
8
BLACK
6
CONTINUOUS
10
6.25118
20
-4.87087
11
6.28661
21
-4.87087
0
LINE
8
BLACK
6
CONTINUOUS
10
6.28661
20
-4.87087
11
6.28661
21
-4.91811
0
LINE
8
BLACK
6
CONTINUOUS
10
6.15669
20
-4.91811
11
6.12126
21
-4.91811
0
LINE
8
BLACK
6
CONTINUOUS
10
6.12126
20
-4.91811
11
6.12126
21
-4.87087
0
LINE
8
BLACK
6
CONTINUOUS
10
6.12126
20
-4.87087
11
6.15669
21
-4.87087
0
LINE
8
BLACK
6
CONTINUOUS
10
6.15669
20
-4.87087
11
6.15669
21
-4.91811
0
LINE
8
BLACK
6
CONTINUOUS
10
3.74975
20
-4.82953
11
3.70251
21
-4.82953
0
LINE
8
BLACK
6
CONTINUOUS
10
3.70251
20
-4.82953
11
3.70251
21
-4.79409
0
LINE
8
BLACK
6
CONTINUOUS
10
3.70251
20
-4.79409
11
3.74975
21
-4.79409
0
LINE
8
BLACK
6
CONTINUOUS
10
3.74975
20
-4.79409
11
3.74975
21
-4.82953
0
LINE
8
BLACK
6
CONTINUOUS
10
3.65347
20
-4.82953
11
3.60623
21
-4.82953
0
LINE
8
BLACK
6
CONTINUOUS
10
3.60623
20
-4.82953
11
3.60623
21
-4.79409
0
LINE
8
BLACK
6
CONTINUOUS
10
3.60623
20
-4.79409
11
3.65347
21
-4.79409
0
LINE
8
BLACK
6
CONTINUOUS
10
3.65347
20
-4.79409
11
3.65347
21
-4.82953
0
LINE
8
BLACK
6
CONTINUOUS
10
3.9423
20
-4.82953
11
3.89506
21
-4.82953
0
LINE
8
BLACK
6
CONTINUOUS
10
3.89506
20
-4.82953
11
3.89506
21
-4.79409
0
LINE
8
BLACK
6
CONTINUOUS
10
3.89506
20
-4.79409
11
3.9423
21
-4.79409
0
LINE
8
BLACK
6
CONTINUOUS
10
3.9423
20
-4.79409
11
3.9423
21
-4.82953
0
LINE
8
BLACK
6
CONTINUOUS
10
3.55719
20
-4.82953
11
3.50995
21
-4.82953
0
LINE
8
BLACK
6
CONTINUOUS
10
3.50995
20
-4.82953
11
3.50995
21
-4.79409
0
LINE
8
BLACK
6
CONTINUOUS
10
3.50995
20
-4.79409
11
3.55719
21
-4.79409
0
LINE
8
BLACK
6
CONTINUOUS
10
3.55719
20
-4.79409
11
3.55719
21
-4.82953
0
LINE
8
BLACK
6
CONTINUOUS
10
3.46092
20
-4.82953
11
3.41367
21
-4.82953
0
LINE
8
BLACK
6
CONTINUOUS
10
3.41367
20
-4.82953
11
3.41367
21
-4.79409
0
LINE
8
BLACK
6
CONTINUOUS
10
3.41367
20
-4.79409
11
3.46092
21
-4.79409
0
LINE
8
BLACK
6
CONTINUOUS
10
3.46092
20
-4.79409
11
3.46092
21
-4.82953
0
LINE
8
BLACK
6
CONTINUOUS
10
3.84603
20
-4.82953
11
3.79878
21
-4.82953
0
LINE
8
BLACK
6
CONTINUOUS
10
3.79878
20
-4.82953
11
3.79878
21
-4.79409
0
LINE
8
BLACK
6
CONTINUOUS
10
3.79878
20
-4.79409
11
3.84603
21
-4.79409
0
LINE
8
BLACK
6
CONTINUOUS
10
3.84603
20
-4.79409
11
3.84603
21
-4.82953
0
LINE
8
BLACK
6
CONTINUOUS
10
4.45984
20
-4.82953
11
4.4126
21
-4.82953
0
LINE
8
BLACK
6
CONTINUOUS
10
4.4126
20
-4.82953
11
4.4126
21
-4.79409
0
LINE
8
BLACK
6
CONTINUOUS
10
4.4126
20
-4.79409
11
4.45984
21
-4.79409
0
LINE
8
BLACK
6
CONTINUOUS
10
4.45984
20
-4.79409
11
4.45984
21
-4.82953
0
LINE
8
BLACK
6
CONTINUOUS
10
4.56024
20
-4.82953
11
4.51299
21
-4.82953
0
LINE
8
BLACK
6
CONTINUOUS
10
4.51299
20
-4.82953
11
4.51299
21
-4.79409
0
LINE
8
BLACK
6
CONTINUOUS
10
4.51299
20
-4.79409
11
4.56024
21
-4.79409
0
LINE
8
BLACK
6
CONTINUOUS
10
4.56024
20
-4.79409
11
4.56024
21
-4.82953
0
LINE
8
BLACK
6
CONTINUOUS
10
4.6626
20
-4.82953
11
4.61535
21
-4.82953
0
LINE
8
BLACK
6
CONTINUOUS
10
4.61535
20
-4.82953
11
4.61535
21
-4.79409
0
LINE
8
BLACK
6
CONTINUOUS
10
4.61535
20
-4.79409
11
4.6626
21
-4.79409
0
LINE
8
BLACK
6
CONTINUOUS
10
4.6626
20
-4.79409
11
4.6626
21
-4.82953
0
LINE
8
BLACK
6
CONTINUOUS
10
4.76496
20
-4.82953
11
4.71772
21
-4.82953
0
LINE
8
BLACK
6
CONTINUOUS
10
4.71772
20
-4.82953
11
4.71772
21
-4.79409
0
LINE
8
BLACK
6
CONTINUOUS
10
4.71772
20
-4.79409
11
4.76496
21
-4.79409
0
LINE
8
BLACK
6
CONTINUOUS
10
4.76496
20
-4.79409
11
4.76496
21
-4.82953
0
LINE
8
BLACK
6
CONTINUOUS
10
4.86732
20
-4.82953
11
4.82008
21
-4.82953
0
LINE
8
BLACK
6
CONTINUOUS
10
4.82008
20
-4.82953
11
4.82008
21
-4.79409
0
LINE
8
BLACK
6
CONTINUOUS
10
4.82008
20
-4.79409
11
4.86732
21
-4.79409
0
LINE
8
BLACK
6
CONTINUOUS
10
4.86732
20
-4.79409
11
4.86732
21
-4.82953
0
LINE
8
BLACK
6
CONTINUOUS
10
4.35748
20
-4.82953
11
4.31024
21
-4.82953
0
LINE
8
BLACK
6
CONTINUOUS
10
4.31024
20
-4.82953
11
4.31024
21
-4.79409
0
LINE
8
BLACK
6
CONTINUOUS
10
4.31024
20
-4.79409
11
4.35748
21
-4.79409
0
LINE
8
BLACK
6
CONTINUOUS
10
4.35748
20
-4.79409
11
4.35748
21
-4.82953
0
LINE
8
BLACK
6
CONTINUOUS
10
4.25512
20
-4.82953
11
4.20787
21
-4.82953
0
LINE
8
BLACK
6
CONTINUOUS
10
4.20787
20
-4.82953
11
4.20787
21
-4.79409
0
LINE
8
BLACK
6
CONTINUOUS
10
4.20787
20
-4.79409
11
4.25512
21
-4.79409
0
LINE
8
BLACK
6
CONTINUOUS
10
4.25512
20
-4.79409
11
4.25512
21
-4.82953
0
LINE
8
BLACK
6
CONTINUOUS
10
4.15276
20
-4.82953
11
4.10551
21
-4.82953
0
LINE
8
BLACK
6
CONTINUOUS
10
4.10551
20
-4.82953
11
4.10551
21
-4.79409
0
LINE
8
BLACK
6
CONTINUOUS
10
4.10551
20
-4.79409
11
4.15276
21
-4.79409
0
LINE
8
BLACK
6
CONTINUOUS
10
4.15276
20
-4.79409
11
4.15276
21
-4.82953
0
LINE
8
BLACK
6
CONTINUOUS
10
6.15669
20
-4.82018
11
6.12126
21
-4.82018
0
LINE
8
BLACK
6
CONTINUOUS
10
6.12126
20
-4.82018
11
6.12126
21
-4.77293
0
LINE
8
BLACK
6
CONTINUOUS
10
6.12126
20
-4.77293
11
6.15669
21
-4.77293
0
LINE
8
BLACK
6
CONTINUOUS
10
6.15669
20
-4.77293
11
6.15669
21
-4.82018
0
LINE
8
BLACK
6
CONTINUOUS
10
6.28661
20
-4.82018
11
6.25118
21
-4.82018
0
LINE
8
BLACK
6
CONTINUOUS
10
6.25118
20
-4.82018
11
6.25118
21
-4.77293
0
LINE
8
BLACK
6
CONTINUOUS
10
6.25118
20
-4.77293
11
6.28661
21
-4.77293
0
LINE
8
BLACK
6
CONTINUOUS
10
6.28661
20
-4.77293
11
6.28661
21
-4.82018
0
LINE
8
BLACK
6
CONTINUOUS
10
7.62489
20
-4.78425
11
7.57765
21
-4.78425
0
LINE
8
BLACK
6
CONTINUOUS
10
7.57765
20
-4.78425
11
7.57765
21
-4.74882
0
LINE
8
BLACK
6
CONTINUOUS
10
7.57765
20
-4.74882
11
7.62489
21
-4.74882
0
LINE
8
BLACK
6
CONTINUOUS
10
7.62489
20
-4.74882
11
7.62489
21
-4.78425
0
LINE
8
BLACK
6
CONTINUOUS
10
7.73589
20
-4.78425
11
7.68864
21
-4.78425
0
LINE
8
BLACK
6
CONTINUOUS
10
7.68864
20
-4.78425
11
7.68864
21
-4.74882
0
LINE
8
BLACK
6
CONTINUOUS
10
7.68864
20
-4.74882
11
7.73589
21
-4.74882
0
LINE
8
BLACK
6
CONTINUOUS
10
7.73589
20
-4.74882
11
7.73589
21
-4.78425
0
LINE
8
BLACK
6
CONTINUOUS
10
7.5139
20
-4.78425
11
7.46666
21
-4.78425
0
LINE
8
BLACK
6
CONTINUOUS
10
7.46666
20
-4.78425
11
7.46666
21
-4.74882
0
LINE
8
BLACK
6
CONTINUOUS
10
7.46666
20
-4.74882
11
7.5139
21
-4.74882
0
LINE
8
BLACK
6
CONTINUOUS
10
7.5139
20
-4.74882
11
7.5139
21
-4.78425
0
LINE
8
BLACK
6
CONTINUOUS
10
7.83507
20
-4.78425
11
7.78783
21
-4.78425
0
LINE
8
BLACK
6
CONTINUOUS
10
7.78783
20
-4.78425
11
7.78783
21
-4.74882
0
LINE
8
BLACK
6
CONTINUOUS
10
7.78783
20
-4.74882
11
7.83507
21
-4.74882
0
LINE
8
BLACK
6
CONTINUOUS
10
7.83507
20
-4.74882
11
7.83507
21
-4.78425
0
LINE
8
BLACK
6
CONTINUOUS
10
7.94606
20
-4.78425
11
7.89882
21
-4.78425
0
LINE
8
BLACK
6
CONTINUOUS
10
7.89882
20
-4.78425
11
7.89882
21
-4.74882
0
LINE
8
BLACK
6
CONTINUOUS
10
7.89882
20
-4.74882
11
7.94606
21
-4.74882
0
LINE
8
BLACK
6
CONTINUOUS
10
7.94606
20
-4.74882
11
7.94606
21
-4.78425
0
LINE
8
BLACK
6
CONTINUOUS
10
6.96211
20
-4.78425
11
6.91487
21
-4.78425
0
LINE
8
BLACK
6
CONTINUOUS
10
6.91487
20
-4.78425
11
6.91487
21
-4.74882
0
LINE
8
BLACK
6
CONTINUOUS
10
6.91487
20
-4.74882
11
6.96211
21
-4.74882
0
LINE
8
BLACK
6
CONTINUOUS
10
6.96211
20
-4.74882
11
6.96211
21
-4.78425
0
LINE
8
BLACK
6
CONTINUOUS
10
6.85112
20
-4.78425
11
6.80388
21
-4.78425
0
LINE
8
BLACK
6
CONTINUOUS
10
6.80388
20
-4.78425
11
6.80388
21
-4.74882
0
LINE
8
BLACK
6
CONTINUOUS
10
6.80388
20
-4.74882
11
6.85112
21
-4.74882
0
LINE
8
BLACK
6
CONTINUOUS
10
6.85112
20
-4.74882
11
6.85112
21
-4.78425
0
LINE
8
BLACK
6
CONTINUOUS
10
6.74013
20
-4.78425
11
6.69288
21
-4.78425
0
LINE
8
BLACK
6
CONTINUOUS
10
6.69288
20
-4.78425
11
6.69288
21
-4.74882
0
LINE
8
BLACK
6
CONTINUOUS
10
6.69288
20
-4.74882
11
6.74013
21
-4.74882
0
LINE
8
BLACK
6
CONTINUOUS
10
6.74013
20
-4.74882
11
6.74013
21
-4.78425
0
LINE
8
BLACK
6
CONTINUOUS
10
6.62913
20
-4.78425
11
6.58189
21
-4.78425
0
LINE
8
BLACK
6
CONTINUOUS
10
6.58189
20
-4.78425
11
6.58189
21
-4.74882
0
LINE
8
BLACK
6
CONTINUOUS
10
6.58189
20
-4.74882
11
6.62913
21
-4.74882
0
LINE
8
BLACK
6
CONTINUOUS
10
6.62913
20
-4.74882
11
6.62913
21
-4.78425
0
LINE
8
BLACK
6
CONTINUOUS
10
7.40609
20
-4.78425
11
7.35884
21
-4.78425
0
LINE
8
BLACK
6
CONTINUOUS
10
7.35884
20
-4.78425
11
7.35884
21
-4.74882
0
LINE
8
BLACK
6
CONTINUOUS
10
7.35884
20
-4.74882
11
7.40609
21
-4.74882
0
LINE
8
BLACK
6
CONTINUOUS
10
7.40609
20
-4.74882
11
7.40609
21
-4.78425
0
LINE
8
BLACK
6
CONTINUOUS
10
7.29509
20
-4.78425
11
7.24785
21
-4.78425
0
LINE
8
BLACK
6
CONTINUOUS
10
7.24785
20
-4.78425
11
7.24785
21
-4.74882
0
LINE
8
BLACK
6
CONTINUOUS
10
7.24785
20
-4.74882
11
7.29509
21
-4.74882
0
LINE
8
BLACK
6
CONTINUOUS
10
7.29509
20
-4.74882
11
7.29509
21
-4.78425
0
LINE
8
BLACK
6
CONTINUOUS
10
7.1841
20
-4.78425
11
7.13686
21
-4.78425
0
LINE
8
BLACK
6
CONTINUOUS
10
7.13686
20
-4.78425
11
7.13686
21
-4.74882
0
LINE
8
BLACK
6
CONTINUOUS
10
7.13686
20
-4.74882
11
7.1841
21
-4.74882
0
LINE
8
BLACK
6
CONTINUOUS
10
7.1841
20
-4.74882
11
7.1841
21
-4.78425
0
LINE
8
BLACK
6
CONTINUOUS
10
7.07311
20
-4.78425
11
7.02586
21
-4.78425
0
LINE
8
BLACK
6
CONTINUOUS
10
7.02586
20
-4.78425
11
7.02586
21
-4.74882
0
LINE
8
BLACK
6
CONTINUOUS
10
7.02586
20
-4.74882
11
7.07311
21
-4.74882
0
LINE
8
BLACK
6
CONTINUOUS
10
7.07311
20
-4.74882
11
7.07311
21
-4.78425
0
LINE
8
BLACK
6
CONTINUOUS
10
6.28661
20
-4.72323
11
6.25118
21
-4.72323
0
LINE
8
BLACK
6
CONTINUOUS
10
6.25118
20
-4.72323
11
6.25118
21
-4.67598
0
LINE
8
BLACK
6
CONTINUOUS
10
6.25118
20
-4.67598
11
6.28661
21
-4.67598
0
LINE
8
BLACK
6
CONTINUOUS
10
6.28661
20
-4.67598
11
6.28661
21
-4.72323
0
LINE
8
BLACK
6
CONTINUOUS
10
6.15669
20
-4.72323
11
6.12126
21
-4.72323
0
LINE
8
BLACK
6
CONTINUOUS
10
6.12126
20
-4.72323
11
6.12126
21
-4.67598
0
LINE
8
BLACK
6
CONTINUOUS
10
6.12126
20
-4.67598
11
6.15669
21
-4.67598
0
LINE
8
BLACK
6
CONTINUOUS
10
6.15669
20
-4.67598
11
6.15669
21
-4.72323
0
LINE
8
BLACK
6
CONTINUOUS
10
4.45984
20
-4.69961
11
4.4126
21
-4.69961
0
LINE
8
BLACK
6
CONTINUOUS
10
4.4126
20
-4.69961
11
4.4126
21
-4.66417
0
LINE
8
BLACK
6
CONTINUOUS
10
4.4126
20
-4.66417
11
4.45984
21
-4.66417
0
LINE
8
BLACK
6
CONTINUOUS
10
4.45984
20
-4.66417
11
4.45984
21
-4.69961
0
LINE
8
BLACK
6
CONTINUOUS
10
3.55719
20
-4.69961
11
3.50995
21
-4.69961
0
LINE
8
BLACK
6
CONTINUOUS
10
3.50995
20
-4.69961
11
3.50995
21
-4.66417
0
LINE
8
BLACK
6
CONTINUOUS
10
3.50995
20
-4.66417
11
3.55719
21
-4.66417
0
LINE
8
BLACK
6
CONTINUOUS
10
3.55719
20
-4.66417
11
3.55719
21
-4.69961
0
LINE
8
BLACK
6
CONTINUOUS
10
4.6626
20
-4.69961
11
4.61535
21
-4.69961
0
LINE
8
BLACK
6
CONTINUOUS
10
4.61535
20
-4.69961
11
4.61535
21
-4.66417
0
LINE
8
BLACK
6
CONTINUOUS
10
4.61535
20
-4.66417
11
4.6626
21
-4.66417
0
LINE
8
BLACK
6
CONTINUOUS
10
4.6626
20
-4.66417
11
4.6626
21
-4.69961
0
LINE
8
BLACK
6
CONTINUOUS
10
3.46092
20
-4.69961
11
3.41367
21
-4.69961
0
LINE
8
BLACK
6
CONTINUOUS
10
3.41367
20
-4.69961
11
3.41367
21
-4.66417
0
LINE
8
BLACK
6
CONTINUOUS
10
3.41367
20
-4.66417
11
3.46092
21
-4.66417
0
LINE
8
BLACK
6
CONTINUOUS
10
3.46092
20
-4.66417
11
3.46092
21
-4.69961
0
LINE
8
BLACK
6
CONTINUOUS
10
4.76496
20
-4.69961
11
4.71772
21
-4.69961
0
LINE
8
BLACK
6
CONTINUOUS
10
4.71772
20
-4.69961
11
4.71772
21
-4.66417
0
LINE
8
BLACK
6
CONTINUOUS
10
4.71772
20
-4.66417
11
4.76496
21
-4.66417
0
LINE
8
BLACK
6
CONTINUOUS
10
4.76496
20
-4.66417
11
4.76496
21
-4.69961
0
LINE
8
BLACK
6
CONTINUOUS
10
3.84603
20
-4.69961
11
3.79878
21
-4.69961
0
LINE
8
BLACK
6
CONTINUOUS
10
3.79878
20
-4.69961
11
3.79878
21
-4.66417
0
LINE
8
BLACK
6
CONTINUOUS
10
3.79878
20
-4.66417
11
3.84603
21
-4.66417
0
LINE
8
BLACK
6
CONTINUOUS
10
3.84603
20
-4.66417
11
3.84603
21
-4.69961
0
LINE
8
BLACK
6
CONTINUOUS
10
3.74975
20
-4.69961
11
3.70251
21
-4.69961
0
LINE
8
BLACK
6
CONTINUOUS
10
3.70251
20
-4.69961
11
3.70251
21
-4.66417
0
LINE
8
BLACK
6
CONTINUOUS
10
3.70251
20
-4.66417
11
3.74975
21
-4.66417
0
LINE
8
BLACK
6
CONTINUOUS
10
3.74975
20
-4.66417
11
3.74975
21
-4.69961
0
LINE
8
BLACK
6
CONTINUOUS
10
4.35748
20
-4.69961
11
4.31024
21
-4.69961
0
LINE
8
BLACK
6
CONTINUOUS
10
4.31024
20
-4.69961
11
4.31024
21
-4.66417
0
LINE
8
BLACK
6
CONTINUOUS
10
4.31024
20
-4.66417
11
4.35748
21
-4.66417
0
LINE
8
BLACK
6
CONTINUOUS
10
4.35748
20
-4.66417
11
4.35748
21
-4.69961
0
LINE
8
BLACK
6
CONTINUOUS
10
4.86732
20
-4.69961
11
4.82008
21
-4.69961
0
LINE
8
BLACK
6
CONTINUOUS
10
4.82008
20
-4.69961
11
4.82008
21
-4.66417
0
LINE
8
BLACK
6
CONTINUOUS
10
4.82008
20
-4.66417
11
4.86732
21
-4.66417
0
LINE
8
BLACK
6
CONTINUOUS
10
4.86732
20
-4.66417
11
4.86732
21
-4.69961
0
LINE
8
BLACK
6
CONTINUOUS
10
4.15276
20
-4.69961
11
4.10551
21
-4.69961
0
LINE
8
BLACK
6
CONTINUOUS
10
4.10551
20
-4.69961
11
4.10551
21
-4.66417
0
LINE
8
BLACK
6
CONTINUOUS
10
4.10551
20
-4.66417
11
4.15276
21
-4.66417
0
LINE
8
BLACK
6
CONTINUOUS
10
4.15276
20
-4.66417
11
4.15276
21
-4.69961
0
LINE
8
BLACK
6
CONTINUOUS
10
3.65347
20
-4.69961
11
3.60623
21
-4.69961
0
LINE
8
BLACK
6
CONTINUOUS
10
3.60623
20
-4.69961
11
3.60623
21
-4.66417
0
LINE
8
BLACK
6
CONTINUOUS
10
3.60623
20
-4.66417
11
3.65347
21
-4.66417
0
LINE
8
BLACK
6
CONTINUOUS
10
3.65347
20
-4.66417
11
3.65347
21
-4.69961
0
LINE
8
BLACK
6
CONTINUOUS
10
4.56024
20
-4.69961
11
4.51299
21
-4.69961
0
LINE
8
BLACK
6
CONTINUOUS
10
4.51299
20
-4.69961
11
4.51299
21
-4.66417
0
LINE
8
BLACK
6
CONTINUOUS
10
4.51299
20
-4.66417
11
4.56024
21
-4.66417
0
LINE
8
BLACK
6
CONTINUOUS
10
4.56024
20
-4.66417
11
4.56024
21
-4.69961
0
LINE
8
BLACK
6
CONTINUOUS
10
4.25512
20
-4.69961
11
4.20787
21
-4.69961
0
LINE
8
BLACK
6
CONTINUOUS
10
4.20787
20
-4.69961
11
4.20787
21
-4.66417
0
LINE
8
BLACK
6
CONTINUOUS
10
4.20787
20
-4.66417
11
4.25512
21
-4.66417
0
LINE
8
BLACK
6
CONTINUOUS
10
4.25512
20
-4.66417
11
4.25512
21
-4.69961
0
LINE
8
BLACK
6
CONTINUOUS
10
3.9423
20
-4.69961
11
3.89506
21
-4.69961
0
LINE
8
BLACK
6
CONTINUOUS
10
3.89506
20
-4.69961
11
3.89506
21
-4.66417
0
LINE
8
BLACK
6
CONTINUOUS
10
3.89506
20
-4.66417
11
3.9423
21
-4.66417
0
LINE
8
BLACK
6
CONTINUOUS
10
3.9423
20
-4.66417
11
3.9423
21
-4.69961
0
LINE
8
BLACK
6
CONTINUOUS
10
7.5139
20
-4.65433
11
7.46666
21
-4.65433
0
LINE
8
BLACK
6
CONTINUOUS
10
7.46666
20
-4.65433
11
7.46666
21
-4.6189
0
LINE
8
BLACK
6
CONTINUOUS
10
7.46666
20
-4.6189
11
7.5139
21
-4.6189
0
LINE
8
BLACK
6
CONTINUOUS
10
7.5139
20
-4.6189
11
7.5139
21
-4.65433
0
LINE
8
BLACK
6
CONTINUOUS
10
7.07311
20
-4.65433
11
7.02586
21
-4.65433
0
LINE
8
BLACK
6
CONTINUOUS
10
7.02586
20
-4.65433
11
7.02586
21
-4.6189
0
LINE
8
BLACK
6
CONTINUOUS
10
7.02586
20
-4.6189
11
7.07311
21
-4.6189
0
LINE
8
BLACK
6
CONTINUOUS
10
7.07311
20
-4.6189
11
7.07311
21
-4.65433
0
LINE
8
BLACK
6
CONTINUOUS
10
7.62489
20
-4.65433
11
7.57765
21
-4.65433
0
LINE
8
BLACK
6
CONTINUOUS
10
7.57765
20
-4.65433
11
7.57765
21
-4.6189
0
LINE
8
BLACK
6
CONTINUOUS
10
7.57765
20
-4.6189
11
7.62489
21
-4.6189
0
LINE
8
BLACK
6
CONTINUOUS
10
7.62489
20
-4.6189
11
7.62489
21
-4.65433
0
LINE
8
BLACK
6
CONTINUOUS
10
7.83507
20
-4.65433
11
7.78783
21
-4.65433
0
LINE
8
BLACK
6
CONTINUOUS
10
7.78783
20
-4.65433
11
7.78783
21
-4.6189
0
LINE
8
BLACK
6
CONTINUOUS
10
7.78783
20
-4.6189
11
7.83507
21
-4.6189
0
LINE
8
BLACK
6
CONTINUOUS
10
7.83507
20
-4.6189
11
7.83507
21
-4.65433
0
LINE
8
BLACK
6
CONTINUOUS
10
7.94606
20
-4.65433
11
7.89882
21
-4.65433
0
LINE
8
BLACK
6
CONTINUOUS
10
7.89882
20
-4.65433
11
7.89882
21
-4.6189
0
LINE
8
BLACK
6
CONTINUOUS
10
7.89882
20
-4.6189
11
7.94606
21
-4.6189
0
LINE
8
BLACK
6
CONTINUOUS
10
7.94606
20
-4.6189
11
7.94606
21
-4.65433
0
LINE
8
BLACK
6
CONTINUOUS
10
6.96211
20
-4.65433
11
6.91487
21
-4.65433
0
LINE
8
BLACK
6
CONTINUOUS
10
6.91487
20
-4.65433
11
6.91487
21
-4.6189
0
LINE
8
BLACK
6
CONTINUOUS
10
6.91487
20
-4.6189
11
6.96211
21
-4.6189
0
LINE
8
BLACK
6
CONTINUOUS
10
6.96211
20
-4.6189
11
6.96211
21
-4.65433
0
LINE
8
BLACK
6
CONTINUOUS
10
7.1841
20
-4.65433
11
7.13686
21
-4.65433
0
LINE
8
BLACK
6
CONTINUOUS
10
7.13686
20
-4.65433
11
7.13686
21
-4.6189
0
LINE
8
BLACK
6
CONTINUOUS
10
7.13686
20
-4.6189
11
7.1841
21
-4.6189
0
LINE
8
BLACK
6
CONTINUOUS
10
7.1841
20
-4.6189
11
7.1841
21
-4.65433
0
LINE
8
BLACK
6
CONTINUOUS
10
6.85112
20
-4.65433
11
6.80388
21
-4.65433
0
LINE
8
BLACK
6
CONTINUOUS
10
6.80388
20
-4.65433
11
6.80388
21
-4.6189
0
LINE
8
BLACK
6
CONTINUOUS
10
6.80388
20
-4.6189
11
6.85112
21
-4.6189
0
LINE
8
BLACK
6
CONTINUOUS
10
6.85112
20
-4.6189
11
6.85112
21
-4.65433
0
LINE
8
BLACK
6
CONTINUOUS
10
7.29509
20
-4.65433
11
7.24785
21
-4.65433
0
LINE
8
BLACK
6
CONTINUOUS
10
7.24785
20
-4.65433
11
7.24785
21
-4.6189
0
LINE
8
BLACK
6
CONTINUOUS
10
7.24785
20
-4.6189
11
7.29509
21
-4.6189
0
LINE
8
BLACK
6
CONTINUOUS
10
7.29509
20
-4.6189
11
7.29509
21
-4.65433
0
LINE
8
BLACK
6
CONTINUOUS
10
6.74013
20
-4.65433
11
6.69288
21
-4.65433
0
LINE
8
BLACK
6
CONTINUOUS
10
6.69288
20
-4.65433
11
6.69288
21
-4.6189
0
LINE
8
BLACK
6
CONTINUOUS
10
6.69288
20
-4.6189
11
6.74013
21
-4.6189
0
LINE
8
BLACK
6
CONTINUOUS
10
6.74013
20
-4.6189
11
6.74013
21
-4.65433
0
LINE
8
BLACK
6
CONTINUOUS
10
6.62913
20
-4.65433
11
6.58189
21
-4.65433
0
LINE
8
BLACK
6
CONTINUOUS
10
6.58189
20
-4.65433
11
6.58189
21
-4.6189
0
LINE
8
BLACK
6
CONTINUOUS
10
6.58189
20
-4.6189
11
6.62913
21
-4.6189
0
LINE
8
BLACK
6
CONTINUOUS
10
6.62913
20
-4.6189
11
6.62913
21
-4.65433
0
LINE
8
BLACK
6
CONTINUOUS
10
7.40609
20
-4.65433
11
7.35884
21
-4.65433
0
LINE
8
BLACK
6
CONTINUOUS
10
7.35884
20
-4.65433
11
7.35884
21
-4.6189
0
LINE
8
BLACK
6
CONTINUOUS
10
7.35884
20
-4.6189
11
7.40609
21
-4.6189
0
LINE
8
BLACK
6
CONTINUOUS
10
7.40609
20
-4.6189
11
7.40609
21
-4.65433
0
LINE
8
BLACK
6
CONTINUOUS
10
7.73589
20
-4.65433
11
7.68864
21
-4.65433
0
LINE
8
BLACK
6
CONTINUOUS
10
7.68864
20
-4.65433
11
7.68864
21
-4.6189
0
LINE
8
BLACK
6
CONTINUOUS
10
7.68864
20
-4.6189
11
7.73589
21
-4.6189
0
LINE
8
BLACK
6
CONTINUOUS
10
7.73589
20
-4.6189
11
7.73589
21
-4.65433
0
LINE
8
BLACK
6
CONTINUOUS
10
6.15669
20
-4.6248
11
6.12126
21
-4.6248
0
LINE
8
BLACK
6
CONTINUOUS
10
6.12126
20
-4.6248
11
6.12126
21
-4.57756
0
LINE
8
BLACK
6
CONTINUOUS
10
6.12126
20
-4.57756
11
6.15669
21
-4.57756
0
LINE
8
BLACK
6
CONTINUOUS
10
6.15669
20
-4.57756
11
6.15669
21
-4.6248
0
LINE
8
BLACK
6
CONTINUOUS
10
6.28661
20
-4.6248
11
6.25118
21
-4.6248
0
LINE
8
BLACK
6
CONTINUOUS
10
6.25118
20
-4.6248
11
6.25118
21
-4.57756
0
LINE
8
BLACK
6
CONTINUOUS
10
6.25118
20
-4.57756
11
6.28661
21
-4.57756
0
LINE
8
BLACK
6
CONTINUOUS
10
6.28661
20
-4.57756
11
6.28661
21
-4.6248
0
LINE
8
BLACK
6
CONTINUOUS
10
5.06128
20
-4.53415
11
5.02585
21
-4.53415
0
LINE
8
BLACK
6
CONTINUOUS
10
5.02585
20
-4.53415
11
5.02585
21
-4.48691
0
LINE
8
BLACK
6
CONTINUOUS
10
5.02585
20
-4.48691
11
5.06128
21
-4.48691
0
LINE
8
BLACK
6
CONTINUOUS
10
5.06128
20
-4.48691
11
5.06128
21
-4.53415
0
LINE
8
BLACK
6
CONTINUOUS
10
5.1912
20
-4.53415
11
5.15577
21
-4.53415
0
LINE
8
BLACK
6
CONTINUOUS
10
5.15577
20
-4.53415
11
5.15577
21
-4.48691
0
LINE
8
BLACK
6
CONTINUOUS
10
5.15577
20
-4.48691
11
5.1912
21
-4.48691
0
LINE
8
BLACK
6
CONTINUOUS
10
5.1912
20
-4.48691
11
5.1912
21
-4.53415
0
LINE
8
BLACK
6
CONTINUOUS
10
6.28661
20
-4.52638
11
6.25118
21
-4.52638
0
LINE
8
BLACK
6
CONTINUOUS
10
6.25118
20
-4.52638
11
6.25118
21
-4.47913
0
LINE
8
BLACK
6
CONTINUOUS
10
6.25118
20
-4.47913
11
6.28661
21
-4.47913
0
LINE
8
BLACK
6
CONTINUOUS
10
6.28661
20
-4.47913
11
6.28661
21
-4.52638
0
LINE
8
BLACK
6
CONTINUOUS
10
6.15669
20
-4.52638
11
6.12126
21
-4.52638
0
LINE
8
BLACK
6
CONTINUOUS
10
6.12126
20
-4.52638
11
6.12126
21
-4.47913
0
LINE
8
BLACK
6
CONTINUOUS
10
6.12126
20
-4.47913
11
6.15669
21
-4.47913
0
LINE
8
BLACK
6
CONTINUOUS
10
6.15669
20
-4.47913
11
6.15669
21
-4.52638
0
LINE
8
BLACK
6
CONTINUOUS
10
5.1912
20
-4.43612
11
5.15577
21
-4.43612
0
LINE
8
BLACK
6
CONTINUOUS
10
5.15577
20
-4.43612
11
5.15577
21
-4.38887
0
LINE
8
BLACK
6
CONTINUOUS
10
5.15577
20
-4.38887
11
5.1912
21
-4.38887
0
LINE
8
BLACK
6
CONTINUOUS
10
5.1912
20
-4.38887
11
5.1912
21
-4.43612
0
LINE
8
BLACK
6
CONTINUOUS
10
5.06128
20
-4.43612
11
5.02585
21
-4.43612
0
LINE
8
BLACK
6
CONTINUOUS
10
5.02585
20
-4.43612
11
5.02585
21
-4.38887
0
LINE
8
BLACK
6
CONTINUOUS
10
5.02585
20
-4.38887
11
5.06128
21
-4.38887
0
LINE
8
BLACK
6
CONTINUOUS
10
5.06128
20
-4.38887
11
5.06128
21
-4.43612
0
LINE
8
BLACK
6
CONTINUOUS
10
6.28661
20
-4.42795
11
6.25118
21
-4.42795
0
LINE
8
BLACK
6
CONTINUOUS
10
6.25118
20
-4.42795
11
6.25118
21
-4.38071
0
LINE
8
BLACK
6
CONTINUOUS
10
6.25118
20
-4.38071
11
6.28661
21
-4.38071
0
LINE
8
BLACK
6
CONTINUOUS
10
6.28661
20
-4.38071
11
6.28661
21
-4.42795
0
LINE
8
BLACK
6
CONTINUOUS
10
6.15669
20
-4.42795
11
6.12126
21
-4.42795
0
LINE
8
BLACK
6
CONTINUOUS
10
6.12126
20
-4.42795
11
6.12126
21
-4.38071
0
LINE
8
BLACK
6
CONTINUOUS
10
6.12126
20
-4.38071
11
6.15669
21
-4.38071
0
LINE
8
BLACK
6
CONTINUOUS
10
6.15669
20
-4.38071
11
6.15669
21
-4.42795
0
LINE
8
BLACK
6
CONTINUOUS
10
5.06128
20
-4.33769
11
5.02585
21
-4.33769
0
LINE
8
BLACK
6
CONTINUOUS
10
5.02585
20
-4.33769
11
5.02585
21
-4.29045
0
LINE
8
BLACK
6
CONTINUOUS
10
5.02585
20
-4.29045
11
5.06128
21
-4.29045
0
LINE
8
BLACK
6
CONTINUOUS
10
5.06128
20
-4.29045
11
5.06128
21
-4.33769
0
LINE
8
BLACK
6
CONTINUOUS
10
5.1912
20
-4.33769
11
5.15577
21
-4.33769
0
LINE
8
BLACK
6
CONTINUOUS
10
5.15577
20
-4.33769
11
5.15577
21
-4.29045
0
LINE
8
BLACK
6
CONTINUOUS
10
5.15577
20
-4.29045
11
5.1912
21
-4.29045
0
LINE
8
BLACK
6
CONTINUOUS
10
5.1912
20
-4.29045
11
5.1912
21
-4.33769
0
LINE
8
BLACK
6
CONTINUOUS
10
6.28661
20
-4.32953
11
6.25118
21
-4.32953
0
LINE
8
BLACK
6
CONTINUOUS
10
6.25118
20
-4.32953
11
6.25118
21
-4.28228
0
LINE
8
BLACK
6
CONTINUOUS
10
6.25118
20
-4.28228
11
6.28661
21
-4.28228
0
LINE
8
BLACK
6
CONTINUOUS
10
6.28661
20
-4.28228
11
6.28661
21
-4.32953
0
LINE
8
BLACK
6
CONTINUOUS
10
6.15669
20
-4.32953
11
6.12126
21
-4.32953
0
LINE
8
BLACK
6
CONTINUOUS
10
6.12126
20
-4.32953
11
6.12126
21
-4.28228
0
LINE
8
BLACK
6
CONTINUOUS
10
6.12126
20
-4.28228
11
6.15669
21
-4.28228
0
LINE
8
BLACK
6
CONTINUOUS
10
6.15669
20
-4.28228
11
6.15669
21
-4.32953
0
LINE
8
BLACK
6
CONTINUOUS
10
4.25052
20
-4.19746
11
4.21365
21
-4.28872
0
LINE
8
BLACK
6
CONTINUOUS
10
4.21365
20
-4.28872
11
4.12057
21
-4.25111
0
LINE
8
BLACK
6
CONTINUOUS
10
4.12057
20
-4.25111
11
4.15744
21
-4.15986
0
LINE
8
BLACK
6
CONTINUOUS
10
4.15744
20
-4.15986
11
4.25052
21
-4.19746
0
LINE
8
BLACK
6
CONTINUOUS
10
2.64217
20
-4.18458
11
2.6053
21
-4.27584
0
LINE
8
BLACK
6
CONTINUOUS
10
2.6053
20
-4.27584
11
2.51222
21
-4.23823
0
LINE
8
BLACK
6
CONTINUOUS
10
2.51222
20
-4.23823
11
2.54909
21
-4.14697
0
LINE
8
BLACK
6
CONTINUOUS
10
2.54909
20
-4.14697
11
2.64217
21
-4.18458
0
LINE
8
BLACK
6
CONTINUOUS
10
7.05738
20
-4.22307
11
6.98437
21
-4.25257
0
LINE
8
BLACK
6
CONTINUOUS
10
6.98437
20
-4.25257
11
6.95487
21
-4.17956
0
LINE
8
BLACK
6
CONTINUOUS
10
6.95487
20
-4.17956
11
7.02788
21
-4.15007
0
LINE
8
BLACK
6
CONTINUOUS
10
7.02788
20
-4.15007
11
7.05738
21
-4.22307
0
LINE
8
BLACK
6
CONTINUOUS
10
8.66573
20
-4.21019
11
8.59272
21
-4.23969
0
LINE
8
BLACK
6
CONTINUOUS
10
8.59272
20
-4.23969
11
8.56322
21
-4.16668
0
LINE
8
BLACK
6
CONTINUOUS
10
8.56322
20
-4.16668
11
8.63623
21
-4.13718
0
LINE
8
BLACK
6
CONTINUOUS
10
8.63623
20
-4.13718
11
8.66573
21
-4.21019
0
LINE
8
BLACK
6
CONTINUOUS
10
5.1912
20
-4.23927
11
5.15577
21
-4.23927
0
LINE
8
BLACK
6
CONTINUOUS
10
5.15577
20
-4.23927
11
5.15577
21
-4.19202
0
LINE
8
BLACK
6
CONTINUOUS
10
5.15577
20
-4.19202
11
5.1912
21
-4.19202
0
LINE
8
BLACK
6
CONTINUOUS
10
5.1912
20
-4.19202
11
5.1912
21
-4.23927
0
LINE
8
BLACK
6
CONTINUOUS
10
5.06128
20
-4.23927
11
5.02585
21
-4.23927
0
LINE
8
BLACK
6
CONTINUOUS
10
5.02585
20
-4.23927
11
5.02585
21
-4.19202
0
LINE
8
BLACK
6
CONTINUOUS
10
5.02585
20
-4.19202
11
5.06128
21
-4.19202
0
LINE
8
BLACK
6
CONTINUOUS
10
5.06128
20
-4.19202
11
5.06128
21
-4.23927
0
LINE
8
BLACK
6
CONTINUOUS
10
6.28661
20
-4.22913
11
6.25118
21
-4.22913
0
LINE
8
BLACK
6
CONTINUOUS
10
6.25118
20
-4.22913
11
6.25118
21
-4.18189
0
LINE
8
BLACK
6
CONTINUOUS
10
6.25118
20
-4.18189
11
6.28661
21
-4.18189
0
LINE
8
BLACK
6
CONTINUOUS
10
6.28661
20
-4.18189
11
6.28661
21
-4.22913
0
LINE
8
BLACK
6
CONTINUOUS
10
6.15669
20
-4.22913
11
6.12126
21
-4.22913
0
LINE
8
BLACK
6
CONTINUOUS
10
6.12126
20
-4.22913
11
6.12126
21
-4.18189
0
LINE
8
BLACK
6
CONTINUOUS
10
6.12126
20
-4.18189
11
6.15669
21
-4.18189
0
LINE
8
BLACK
6
CONTINUOUS
10
6.15669
20
-4.18189
11
6.15669
21
-4.22913
0
LINE
8
BLACK
6
CONTINUOUS
10
1.87487
20
-4.08688
11
1.838
21
-4.17814
0
LINE
8
BLACK
6
CONTINUOUS
10
1.838
20
-4.17814
11
1.74491
21
-4.14053
0
LINE
8
BLACK
6
CONTINUOUS
10
1.74491
20
-4.14053
11
1.78178
21
-4.04927
0
LINE
8
BLACK
6
CONTINUOUS
10
1.78178
20
-4.04927
11
1.87487
21
-4.08688
0
LINE
8
BLACK
6
CONTINUOUS
10
9.43303
20
-4.11249
11
9.36002
21
-4.14198
0
LINE
8
BLACK
6
CONTINUOUS
10
9.36002
20
-4.14198
11
9.33053
21
-4.06898
0
LINE
8
BLACK
6
CONTINUOUS
10
9.33053
20
-4.06898
11
9.40353
21
-4.03948
0
LINE
8
BLACK
6
CONTINUOUS
10
9.40353
20
-4.03948
11
9.43303
21
-4.11249
0
LINE
8
BLACK
6
CONTINUOUS
10
5.06128
20
-4.14067
11
5.02585
21
-4.14067
0
LINE
8
BLACK
6
CONTINUOUS
10
5.02585
20
-4.14067
11
5.02585
21
-4.09342
0
LINE
8
BLACK
6
CONTINUOUS
10
5.02585
20
-4.09342
11
5.06128
21
-4.09342
0
LINE
8
BLACK
6
CONTINUOUS
10
5.06128
20
-4.09342
11
5.06128
21
-4.14067
0
LINE
8
BLACK
6
CONTINUOUS
10
5.1912
20
-4.14067
11
5.15577
21
-4.14067
0
LINE
8
BLACK
6
CONTINUOUS
10
5.15577
20
-4.14067
11
5.15577
21
-4.09342
0
LINE
8
BLACK
6
CONTINUOUS
10
5.15577
20
-4.09342
11
5.1912
21
-4.09342
0
LINE
8
BLACK
6
CONTINUOUS
10
5.1912
20
-4.09342
11
5.1912
21
-4.14067
0
LINE
8
BLACK
6
CONTINUOUS
10
6.28661
20
-4.13268
11
6.25118
21
-4.13268
0
LINE
8
BLACK
6
CONTINUOUS
10
6.25118
20
-4.13268
11
6.25118
21
-4.08543
0
LINE
8
BLACK
6
CONTINUOUS
10
6.25118
20
-4.08543
11
6.28661
21
-4.08543
0
LINE
8
BLACK
6
CONTINUOUS
10
6.28661
20
-4.08543
11
6.28661
21
-4.13268
0
LINE
8
BLACK
6
CONTINUOUS
10
6.15669
20
-4.13268
11
6.12126
21
-4.13268
0
LINE
8
BLACK
6
CONTINUOUS
10
6.12126
20
-4.13268
11
6.12126
21
-4.08543
0
LINE
8
BLACK
6
CONTINUOUS
10
6.12126
20
-4.08543
11
6.15669
21
-4.08543
0
LINE
8
BLACK
6
CONTINUOUS
10
6.15669
20
-4.08543
11
6.15669
21
-4.13268
0
LINE
8
BLACK
6
CONTINUOUS
10
7.62396
20
-4.0621
11
7.53088
21
-4.09971
0
LINE
8
BLACK
6
CONTINUOUS
10
7.53088
20
-4.09971
11
7.49401
21
-4.00845
0
LINE
8
BLACK
6
CONTINUOUS
10
7.49401
20
-4.00845
11
7.58709
21
-3.97084
0
LINE
8
BLACK
6
CONTINUOUS
10
7.58709
20
-3.97084
11
7.62396
21
-4.0621
0
LINE
8
BLACK
6
CONTINUOUS
10
9.23231
20
-4.04921
11
9.13923
21
-4.08682
0
LINE
8
BLACK
6
CONTINUOUS
10
9.13923
20
-4.08682
11
9.10236
21
-3.99556
0
LINE
8
BLACK
6
CONTINUOUS
10
9.10236
20
-3.99556
11
9.19544
21
-3.95796
0
LINE
8
BLACK
6
CONTINUOUS
10
9.19544
20
-3.95796
11
9.23231
21
-4.04921
0
LINE
8
BLACK
6
CONTINUOUS
10
3.54221
20
-3.95375
11
3.50534
21
-4.04501
0
LINE
8
BLACK
6
CONTINUOUS
10
3.50534
20
-4.04501
11
3.41226
21
-4.0074
0
LINE
8
BLACK
6
CONTINUOUS
10
3.41226
20
-4.0074
11
3.44913
21
-3.91614
0
LINE
8
BLACK
6
CONTINUOUS
10
3.44913
20
-3.91614
11
3.54221
21
-3.95375
0
LINE
8
BLACK
6
CONTINUOUS
10
5.1912
20
-4.04229
11
5.15577
21
-4.04229
0
LINE
8
BLACK
6
CONTINUOUS
10
5.15577
20
-4.04229
11
5.15577
21
-3.99504
0
LINE
8
BLACK
6
CONTINUOUS
10
5.15577
20
-3.99504
11
5.1912
21
-3.99504
0
LINE
8
BLACK
6
CONTINUOUS
10
5.1912
20
-3.99504
11
5.1912
21
-4.04229
0
LINE
8
BLACK
6
CONTINUOUS
10
5.06128
20
-4.04229
11
5.02585
21
-4.04229
0
LINE
8
BLACK
6
CONTINUOUS
10
5.02585
20
-4.04229
11
5.02585
21
-3.99504
0
LINE
8
BLACK
6
CONTINUOUS
10
5.02585
20
-3.99504
11
5.06128
21
-3.99504
0
LINE
8
BLACK
6
CONTINUOUS
10
5.06128
20
-3.99504
11
5.06128
21
-4.04229
0
LINE
8
BLACK
6
CONTINUOUS
10
6.28661
20
-4.03622
11
6.25118
21
-4.03622
0
LINE
8
BLACK
6
CONTINUOUS
10
6.25118
20
-4.03622
11
6.25118
21
-3.98898
0
LINE
8
BLACK
6
CONTINUOUS
10
6.25118
20
-3.98898
11
6.28661
21
-3.98898
0
LINE
8
BLACK
6
CONTINUOUS
10
6.28661
20
-3.98898
11
6.28661
21
-4.03622
0
LINE
8
BLACK
6
CONTINUOUS
10
6.15669
20
-4.03622
11
6.12126
21
-4.03622
0
LINE
8
BLACK
6
CONTINUOUS
10
6.12126
20
-4.03622
11
6.12126
21
-3.98898
0
LINE
8
BLACK
6
CONTINUOUS
10
6.12126
20
-3.98898
11
6.15669
21
-3.98898
0
LINE
8
BLACK
6
CONTINUOUS
10
6.15669
20
-3.98898
11
6.15669
21
-4.03622
0
LINE
8
BLACK
6
CONTINUOUS
10
3.72376
20
-3.93793
11
3.69426
21
-4.01094
0
LINE
8
BLACK
6
CONTINUOUS
10
3.69426
20
-4.01094
11
3.62125
21
-3.98144
0
LINE
8
BLACK
6
CONTINUOUS
10
3.62125
20
-3.98144
11
3.65075
21
-3.90843
0
LINE
8
BLACK
6
CONTINUOUS
10
3.65075
20
-3.90843
11
3.72376
21
-3.93793
0
LINE
8
BLACK
6
CONTINUOUS
10
7.76569
20
-3.97936
11
7.69268
21
-4.00886
0
LINE
8
BLACK
6
CONTINUOUS
10
7.69268
20
-4.00886
11
7.66318
21
-3.93585
0
LINE
8
BLACK
6
CONTINUOUS
10
7.66318
20
-3.93585
11
7.73619
21
-3.90635
0
LINE
8
BLACK
6
CONTINUOUS
10
7.73619
20
-3.90635
11
7.76569
21
-3.97936
0
LINE
8
BLACK
6
CONTINUOUS
10
2.11541
20
-3.92504
11
2.08591
21
-3.99805
0
LINE
8
BLACK
6
CONTINUOUS
10
2.08591
20
-3.99805
11
2.0129
21
-3.96855
0
LINE
8
BLACK
6
CONTINUOUS
10
2.0129
20
-3.96855
11
2.0424
21
-3.89555
0
LINE
8
BLACK
6
CONTINUOUS
10
2.0424
20
-3.89555
11
2.11541
21
-3.92504
0
LINE
8
BLACK
6
CONTINUOUS
10
9.99961
20
-3.95151
11
9.90653
21
-3.98912
0
LINE
8
BLACK
6
CONTINUOUS
10
9.90653
20
-3.98912
11
9.86966
21
-3.89786
0
LINE
8
BLACK
6
CONTINUOUS
10
9.86966
20
-3.89786
11
9.96274
21
-3.86025
0
LINE
8
BLACK
6
CONTINUOUS
10
9.96274
20
-3.86025
11
9.99961
21
-3.95151
0
LINE
8
BLACK
6
CONTINUOUS
10
4.46072
20
-3.87688
11
4.42238
21
-3.97179
0
LINE
8
BLACK
6
CONTINUOUS
10
4.42238
20
-3.97179
11
4.32747
21
-3.93344
0
LINE
8
BLACK
6
CONTINUOUS
10
4.32747
20
-3.93344
11
4.36581
21
-3.83853
0
LINE
8
BLACK
6
CONTINUOUS
10
4.36581
20
-3.83853
11
4.46072
21
-3.87688
0
LINE
8
BLACK
6
CONTINUOUS
10
2.85237
20
-3.86399
11
2.81403
21
-3.9589
0
LINE
8
BLACK
6
CONTINUOUS
10
2.81403
20
-3.9589
11
2.71912
21
-3.92056
0
LINE
8
BLACK
6
CONTINUOUS
10
2.71912
20
-3.92056
11
2.75746
21
-3.82565
0
LINE
8
BLACK
6
CONTINUOUS
10
2.75746
20
-3.82565
11
2.85237
21
-3.86399
0
LINE
8
BLACK
6
CONTINUOUS
10
5.06128
20
-3.9439
11
5.02585
21
-3.9439
0
LINE
8
BLACK
6
CONTINUOUS
10
5.02585
20
-3.9439
11
5.02585
21
-3.89666
0
LINE
8
BLACK
6
CONTINUOUS
10
5.02585
20
-3.89666
11
5.06128
21
-3.89666
0
LINE
8
BLACK
6
CONTINUOUS
10
5.06128
20
-3.89666
11
5.06128
21
-3.9439
0
LINE
8
BLACK
6
CONTINUOUS
10
5.1912
20
-3.9439
11
5.15577
21
-3.9439
0
LINE
8
BLACK
6
CONTINUOUS
10
5.15577
20
-3.9439
11
5.15577
21
-3.89666
0
LINE
8
BLACK
6
CONTINUOUS
10
5.15577
20
-3.89666
11
5.1912
21
-3.89666
0
LINE
8
BLACK
6
CONTINUOUS
10
5.1912
20
-3.89666
11
5.1912
21
-3.9439
0
LINE
8
BLACK
6
CONTINUOUS
10
6.15669
20
-3.94173
11
6.12126
21
-3.94173
0
LINE
8
BLACK
6
CONTINUOUS
10
6.12126
20
-3.94173
11
6.12126
21
-3.89449
0
LINE
8
BLACK
6
CONTINUOUS
10
6.12126
20
-3.89449
11
6.15669
21
-3.89449
0
LINE
8
BLACK
6
CONTINUOUS
10
6.15669
20
-3.89449
11
6.15669
21
-3.94173
0
LINE
8
BLACK
6
CONTINUOUS
10
6.28661
20
-3.94173
11
6.25118
21
-3.94173
0
LINE
8
BLACK
6
CONTINUOUS
10
6.25118
20
-3.94173
11
6.25118
21
-3.89449
0
LINE
8
BLACK
6
CONTINUOUS
10
6.25118
20
-3.89449
11
6.28661
21
-3.89449
0
LINE
8
BLACK
6
CONTINUOUS
10
6.28661
20
-3.89449
11
6.28661
21
-3.94173
0
LINE
8
BLACK
6
CONTINUOUS
10
1.3481
20
-3.82734
11
1.31861
21
-3.90035
0
LINE
8
BLACK
6
CONTINUOUS
10
1.31861
20
-3.90035
11
1.2456
21
-3.87085
0
LINE
8
BLACK
6
CONTINUOUS
10
1.2456
20
-3.87085
11
1.2751
21
-3.79785
0
LINE
8
BLACK
6
CONTINUOUS
10
1.2751
20
-3.79785
11
1.3481
21
-3.82734
0
LINE
8
BLACK
6
CONTINUOUS
10
2.08507
20
-3.76629
11
2.04672
21
-3.8612
0
LINE
8
BLACK
6
CONTINUOUS
10
2.04672
20
-3.8612
11
1.95181
21
-3.82286
0
LINE
8
BLACK
6
CONTINUOUS
10
1.95181
20
-3.82286
11
1.99016
21
-3.72795
0
LINE
8
BLACK
6
CONTINUOUS
10
1.99016
20
-3.72795
11
2.08507
21
-3.76629
0
LINE
8
BLACK
6
CONTINUOUS
10
8.33227
20
-3.81838
11
8.23919
21
-3.85599
0
LINE
8
BLACK
6
CONTINUOUS
10
8.23919
20
-3.85599
11
8.20232
21
-3.76473
0
LINE
8
BLACK
6
CONTINUOUS
10
8.20232
20
-3.76473
11
8.2954
21
-3.72713
0
LINE
8
BLACK
6
CONTINUOUS
10
8.2954
20
-3.72713
11
8.33227
21
-3.81838
0
LINE
8
BLACK
6
CONTINUOUS
10
6.28661
20
-3.84724
11
6.25118
21
-3.84724
0
LINE
8
BLACK
6
CONTINUOUS
10
6.25118
20
-3.84724
11
6.25118
21
-3.8
0
LINE
8
BLACK
6
CONTINUOUS
10
6.25118
20
-3.8
11
6.28661
21
-3.8
0
LINE
8
BLACK
6
CONTINUOUS
10
6.28661
20
-3.8
11
6.28661
21
-3.84724
0
LINE
8
BLACK
6
CONTINUOUS
10
6.15669
20
-3.84724
11
6.12126
21
-3.84724
0
LINE
8
BLACK
6
CONTINUOUS
10
6.12126
20
-3.84724
11
6.12126
21
-3.8
0
LINE
8
BLACK
6
CONTINUOUS
10
6.12126
20
-3.8
11
6.15669
21
-3.8
0
LINE
8
BLACK
6
CONTINUOUS
10
6.15669
20
-3.8
11
6.15669
21
-3.84724
0
LINE
8
BLACK
6
CONTINUOUS
10
5.1912
20
-3.84552
11
5.15577
21
-3.84552
0
LINE
8
BLACK
6
CONTINUOUS
10
5.15577
20
-3.84552
11
5.15577
21
-3.79828
0
LINE
8
BLACK
6
CONTINUOUS
10
5.15577
20
-3.79828
11
5.1912
21
-3.79828
0
LINE
8
BLACK
6
CONTINUOUS
10
5.1912
20
-3.79828
11
5.1912
21
-3.84552
0
LINE
8
BLACK
6
CONTINUOUS
10
5.06128
20
-3.84552
11
5.02585
21
-3.84552
0
LINE
8
BLACK
6
CONTINUOUS
10
5.02585
20
-3.84552
11
5.02585
21
-3.79828
0
LINE
8
BLACK
6
CONTINUOUS
10
5.02585
20
-3.79828
11
5.06128
21
-3.79828
0
LINE
8
BLACK
6
CONTINUOUS
10
5.06128
20
-3.79828
11
5.06128
21
-3.84552
0
LINE
8
BLACK
6
CONTINUOUS
10
7.09989
20
-3.77916
11
7.00498
21
-3.8175
0
LINE
8
BLACK
6
CONTINUOUS
10
7.00498
20
-3.8175
11
6.96663
21
-3.72259
0
LINE
8
BLACK
6
CONTINUOUS
10
6.96663
20
-3.72259
11
7.06154
21
-3.68425
0
LINE
8
BLACK
6
CONTINUOUS
10
7.06154
20
-3.68425
11
7.09989
21
-3.77916
0
LINE
8
BLACK
6
CONTINUOUS
10
8.70824
20
-3.76627
11
8.61333
21
-3.80462
0
LINE
8
BLACK
6
CONTINUOUS
10
8.61333
20
-3.80462
11
8.57498
21
-3.70971
0
LINE
8
BLACK
6
CONTINUOUS
10
8.57498
20
-3.70971
11
8.66989
21
-3.67136
0
LINE
8
BLACK
6
CONTINUOUS
10
8.66989
20
-3.67136
11
8.70824
21
-3.76627
0
LINE
8
BLACK
6
CONTINUOUS
10
3.01545
20
-3.69422
11
2.98595
21
-3.76722
0
LINE
8
BLACK
6
CONTINUOUS
10
2.98595
20
-3.76722
11
2.91294
21
-3.73773
0
LINE
8
BLACK
6
CONTINUOUS
10
2.91294
20
-3.73773
11
2.94244
21
-3.66472
0
LINE
8
BLACK
6
CONTINUOUS
10
2.94244
20
-3.66472
11
3.01545
21
-3.69422
0
LINE
8
BLACK
6
CONTINUOUS
10
6.15669
20
-3.75276
11
6.12126
21
-3.75276
0
LINE
8
BLACK
6
CONTINUOUS
10
6.12126
20
-3.75276
11
6.12126
21
-3.70551
0
LINE
8
BLACK
6
CONTINUOUS
10
6.12126
20
-3.70551
11
6.15669
21
-3.70551
0
LINE
8
BLACK
6
CONTINUOUS
10
6.15669
20
-3.70551
11
6.15669
21
-3.75276
0
LINE
8
BLACK
6
CONTINUOUS
10
6.28661
20
-3.75276
11
6.25118
21
-3.75276
0
LINE
8
BLACK
6
CONTINUOUS
10
6.25118
20
-3.75276
11
6.25118
21
-3.70551
0
LINE
8
BLACK
6
CONTINUOUS
10
6.25118
20
-3.70551
11
6.28661
21
-3.70551
0
LINE
8
BLACK
6
CONTINUOUS
10
6.28661
20
-3.70551
11
6.28661
21
-3.75276
0
LINE
8
BLACK
6
CONTINUOUS
10
5.1912
20
-3.74911
11
5.15577
21
-3.74911
0
LINE
8
BLACK
6
CONTINUOUS
10
5.15577
20
-3.74911
11
5.15577
21
-3.70187
0
LINE
8
BLACK
6
CONTINUOUS
10
5.15577
20
-3.70187
11
5.1912
21
-3.70187
0
LINE
8
BLACK
6
CONTINUOUS
10
5.1912
20
-3.70187
11
5.1912
21
-3.74911
0
LINE
8
BLACK
6
CONTINUOUS
10
5.06128
20
-3.74911
11
5.02585
21
-3.74911
0
LINE
8
BLACK
6
CONTINUOUS
10
5.02585
20
-3.74911
11
5.02585
21
-3.70187
0
LINE
8
BLACK
6
CONTINUOUS
10
5.02585
20
-3.70187
11
5.06128
21
-3.70187
0
LINE
8
BLACK
6
CONTINUOUS
10
5.06128
20
-3.70187
11
5.06128
21
-3.74911
0
LINE
8
BLACK
6
CONTINUOUS
10
3.75241
20
-3.63317
11
3.71407
21
-3.72807
0
LINE
8
BLACK
6
CONTINUOUS
10
3.71407
20
-3.72807
11
3.61916
21
-3.68973
0
LINE
8
BLACK
6
CONTINUOUS
10
3.61916
20
-3.68973
11
3.6575
21
-3.59482
0
LINE
8
BLACK
6
CONTINUOUS
10
3.6575
20
-3.59482
11
3.75241
21
-3.63317
0
LINE
8
BLACK
6
CONTINUOUS
10
7.55395
20
-3.68912
11
7.45904
21
-3.72747
0
LINE
8
BLACK
6
CONTINUOUS
10
7.45904
20
-3.72747
11
7.42069
21
-3.63256
0
LINE
8
BLACK
6
CONTINUOUS
10
7.42069
20
-3.63256
11
7.5156
21
-3.59421
0
LINE
8
BLACK
6
CONTINUOUS
10
7.5156
20
-3.59421
11
7.55395
21
-3.68912
0
LINE
8
BLACK
6
CONTINUOUS
10
4.07156
20
-3.62623
11
4.03321
21
-3.72114
0
LINE
8
BLACK
6
CONTINUOUS
10
4.03321
20
-3.72114
11
3.9383
21
-3.68279
0
LINE
8
BLACK
6
CONTINUOUS
10
3.9383
20
-3.68279
11
3.97665
21
-3.58788
0
LINE
8
BLACK
6
CONTINUOUS
10
3.97665
20
-3.58788
11
4.07156
21
-3.62623
0
LINE
8
BLACK
6
CONTINUOUS
10
9.1623
20
-3.67624
11
9.06739
21
-3.71458
0
LINE
8
BLACK
6
CONTINUOUS
10
9.06739
20
-3.71458
11
9.02904
21
-3.61967
0
LINE
8
BLACK
6
CONTINUOUS
10
9.02904
20
-3.61967
11
9.12395
21
-3.58133
0
LINE
8
BLACK
6
CONTINUOUS
10
9.12395
20
-3.58133
11
9.1623
21
-3.67624
0
LINE
8
BLACK
6
CONTINUOUS
10
2.46321
20
-3.61334
11
2.42486
21
-3.70825
0
LINE
8
BLACK
6
CONTINUOUS
10
2.42486
20
-3.70825
11
2.32995
21
-3.66991
0
LINE
8
BLACK
6
CONTINUOUS
10
2.32995
20
-3.66991
11
2.3683
21
-3.575
0
LINE
8
BLACK
6
CONTINUOUS
10
2.3683
20
-3.575
11
2.46321
21
-3.61334
0
LINE
8
BLACK
6
CONTINUOUS
10
9.47554
20
-3.66857
11
9.38063
21
-3.70692
0
LINE
8
BLACK
6
CONTINUOUS
10
9.38063
20
-3.70692
11
9.34229
21
-3.61201
0
LINE
8
BLACK
6
CONTINUOUS
10
9.34229
20
-3.61201
11
9.43719
21
-3.57366
0
LINE
8
BLACK
6
CONTINUOUS
10
9.43719
20
-3.57366
11
9.47554
21
-3.66857
0
LINE
8
BLACK
6
CONTINUOUS
10
6.28661
20
-3.6563
11
6.25118
21
-3.6563
0
LINE
8
BLACK
6
CONTINUOUS
10
6.25118
20
-3.6563
11
6.25118
21
-3.60906
0
LINE
8
BLACK
6
CONTINUOUS
10
6.25118
20
-3.60906
11
6.28661
21
-3.60906
0
LINE
8
BLACK
6
CONTINUOUS
10
6.28661
20
-3.60906
11
6.28661
21
-3.6563
0
LINE
8
BLACK
6
CONTINUOUS
10
6.15669
20
-3.6563
11
6.12126
21
-3.6563
0
LINE
8
BLACK
6
CONTINUOUS
10
6.12126
20
-3.6563
11
6.12126
21
-3.60906
0
LINE
8
BLACK
6
CONTINUOUS
10
6.12126
20
-3.60906
11
6.15669
21
-3.60906
0
LINE
8
BLACK
6
CONTINUOUS
10
6.15669
20
-3.60906
11
6.15669
21
-3.6563
0
LINE
8
BLACK
6
CONTINUOUS
10
5.06128
20
-3.65069
11
5.02585
21
-3.65069
0
LINE
8
BLACK
6
CONTINUOUS
10
5.02585
20
-3.65069
11
5.02585
21
-3.60344
0
LINE
8
BLACK
6
CONTINUOUS
10
5.02585
20
-3.60344
11
5.06128
21
-3.60344
0
LINE
8
BLACK
6
CONTINUOUS
10
5.06128
20
-3.60344
11
5.06128
21
-3.65069
0
LINE
8
BLACK
6
CONTINUOUS
10
5.1912
20
-3.65069
11
5.15577
21
-3.65069
0
LINE
8
BLACK
6
CONTINUOUS
10
5.15577
20
-3.65069
11
5.15577
21
-3.60344
0
LINE
8
BLACK
6
CONTINUOUS
10
5.15577
20
-3.60344
11
5.1912
21
-3.60344
0
LINE
8
BLACK
6
CONTINUOUS
10
5.1912
20
-3.60344
11
5.1912
21
-3.65069
0
LINE
8
BLACK
6
CONTINUOUS
10
9.9296
20
-3.57853
11
9.83469
21
-3.61688
0
LINE
8
BLACK
6
CONTINUOUS
10
9.83469
20
-3.61688
11
9.79635
21
-3.52197
0
LINE
8
BLACK
6
CONTINUOUS
10
9.79635
20
-3.52197
11
9.89125
21
-3.48363
0
LINE
8
BLACK
6
CONTINUOUS
10
9.89125
20
-3.48363
11
9.9296
21
-3.57853
0
LINE
8
BLACK
6
CONTINUOUS
10
1.6959
20
-3.51564
11
1.65756
21
-3.61055
0
LINE
8
BLACK
6
CONTINUOUS
10
1.65756
20
-3.61055
11
1.56265
21
-3.57221
0
LINE
8
BLACK
6
CONTINUOUS
10
1.56265
20
-3.57221
11
1.60099
21
-3.4773
0
LINE
8
BLACK
6
CONTINUOUS
10
1.60099
20
-3.4773
11
1.6959
21
-3.51564
0
LINE
8
BLACK
6
CONTINUOUS
10
4.53074
20
-3.5039
11
4.49387
21
-3.59516
0
LINE
8
BLACK
6
CONTINUOUS
10
4.49387
20
-3.59516
11
4.40078
21
-3.55755
0
LINE
8
BLACK
6
CONTINUOUS
10
4.40078
20
-3.55755
11
4.43765
21
-3.46629
0
LINE
8
BLACK
6
CONTINUOUS
10
4.43765
20
-3.46629
11
4.53074
21
-3.5039
0
LINE
8
BLACK
6
CONTINUOUS
10
7.8082
20
-3.53544
11
7.71329
21
-3.57379
0
LINE
8
BLACK
6
CONTINUOUS
10
7.71329
20
-3.57379
11
7.67494
21
-3.47888
0
LINE
8
BLACK
6
CONTINUOUS
10
7.67494
20
-3.47888
11
7.76985
21
-3.44053
0
LINE
8
BLACK
6
CONTINUOUS
10
7.76985
20
-3.44053
11
7.8082
21
-3.53544
0
LINE
8
BLACK
6
CONTINUOUS
10
6.28661
20
-3.55984
11
6.25118
21
-3.55984
0
LINE
8
BLACK
6
CONTINUOUS
10
6.25118
20
-3.55984
11
6.25118
21
-3.5126
0
LINE
8
BLACK
6
CONTINUOUS
10
6.25118
20
-3.5126
11
6.28661
21
-3.5126
0
LINE
8
BLACK
6
CONTINUOUS
10
6.28661
20
-3.5126
11
6.28661
21
-3.55984
0
LINE
8
BLACK
6
CONTINUOUS
10
6.15669
20
-3.55984
11
6.12126
21
-3.55984
0
LINE
8
BLACK
6
CONTINUOUS
10
6.12126
20
-3.55984
11
6.12126
21
-3.5126
0
LINE
8
BLACK
6
CONTINUOUS
10
6.12126
20
-3.5126
11
6.15669
21
-3.5126
0
LINE
8
BLACK
6
CONTINUOUS
10
6.15669
20
-3.5126
11
6.15669
21
-3.55984
0
LINE
8
BLACK
6
CONTINUOUS
10
6.77716
20
-3.52951
11
6.70415
21
-3.55901
0
LINE
8
BLACK
6
CONTINUOUS
10
6.70415
20
-3.55901
11
6.67466
21
-3.486
0
LINE
8
BLACK
6
CONTINUOUS
10
6.67466
20
-3.486
11
6.74766
21
-3.45651
0
LINE
8
BLACK
6
CONTINUOUS
10
6.74766
20
-3.45651
11
6.77716
21
-3.52951
0
LINE
8
BLACK
6
CONTINUOUS
10
8.26226
20
-3.44541
11
8.16735
21
-3.48375
0
LINE
8
BLACK
6
CONTINUOUS
10
8.16735
20
-3.48375
11
8.129
21
-3.38884
0
LINE
8
BLACK
6
CONTINUOUS
10
8.129
20
-3.38884
11
8.22391
21
-3.3505
0
LINE
8
BLACK
6
CONTINUOUS
10
8.22391
20
-3.3505
11
8.26226
21
-3.44541
0
LINE
8
BLACK
6
CONTINUOUS
10
3.36325
20
-3.38252
11
3.3249
21
-3.47742
0
LINE
8
BLACK
6
CONTINUOUS
10
3.3249
20
-3.47742
11
3.22999
21
-3.43908
0
LINE
8
BLACK
6
CONTINUOUS
10
3.22999
20
-3.43908
11
3.26834
21
-3.34417
0
LINE
8
BLACK
6
CONTINUOUS
10
3.26834
20
-3.34417
11
3.36325
21
-3.38252
0
LINE
8
BLACK
6
CONTINUOUS
10
7.34374
20
-3.36854
11
7.25066
21
-3.40614
0
LINE
8
BLACK
6
CONTINUOUS
10
7.25066
20
-3.40614
11
7.21379
21
-3.31489
0
LINE
8
BLACK
6
CONTINUOUS
10
7.21379
20
-3.31489
11
7.30687
21
-3.27728
0
LINE
8
BLACK
6
CONTINUOUS
10
7.30687
20
-3.27728
11
7.34374
21
-3.36854
0
LINE
8
BLACK
6
CONTINUOUS
10
3.82644
20
-3.26181
11
3.78957
21
-3.35307
0
LINE
8
BLACK
6
CONTINUOUS
10
3.78957
20
-3.35307
11
3.69649
21
-3.31546
0
LINE
8
BLACK
6
CONTINUOUS
10
3.69649
20
-3.31546
11
3.73336
21
-3.2242
0
LINE
8
BLACK
6
CONTINUOUS
10
3.73336
20
-3.2242
11
3.82644
21
-3.26181
0
LINE
8
BLACK
6
CONTINUOUS
10
4.00397
20
-3.24437
11
3.97448
21
-3.31737
0
LINE
8
BLACK
6
CONTINUOUS
10
3.97448
20
-3.31737
11
3.90147
21
-3.28788
0
LINE
8
BLACK
6
CONTINUOUS
10
3.90147
20
-3.28788
11
3.93097
21
-3.21487
0
LINE
8
BLACK
6
CONTINUOUS
10
3.93097
20
-3.21487
11
4.00397
21
-3.24437
0
LINE
8
BLACK
6
CONTINUOUS
10
7.48547
20
-3.2858
11
7.41246
21
-3.31529
0
LINE
8
BLACK
6
CONTINUOUS
10
7.41246
20
-3.31529
11
7.38297
21
-3.24229
0
LINE
8
BLACK
6
CONTINUOUS
10
7.38297
20
-3.24229
11
7.45597
21
-3.21279
0
LINE
8
BLACK
6
CONTINUOUS
10
7.45597
20
-3.21279
11
7.48547
21
-3.2858
0
LINE
8
BLACK
6
CONTINUOUS
10
4.74094
20
-3.18332
11
4.7026
21
-3.27823
0
LINE
8
BLACK
6
CONTINUOUS
10
4.7026
20
-3.27823
11
4.60769
21
-3.23988
0
LINE
8
BLACK
6
CONTINUOUS
10
4.60769
20
-3.23988
11
4.64603
21
-3.14497
0
LINE
8
BLACK
6
CONTINUOUS
10
4.64603
20
-3.14497
11
4.74094
21
-3.18332
0
LINE
8
BLACK
6
CONTINUOUS
10
8.05205
20
-3.12482
11
7.95897
21
-3.16243
0
LINE
8
BLACK
6
CONTINUOUS
10
7.95897
20
-3.16243
11
7.9221
21
-3.07117
0
LINE
8
BLACK
6
CONTINUOUS
10
7.9221
20
-3.07117
11
8.01518
21
-3.03356
0
LINE
8
BLACK
6
CONTINUOUS
10
8.01518
20
-3.03356
11
8.05205
21
-3.12482
0
LINE
8
BLACK
6
CONTINUOUS
10
6.81967
20
-3.08559
11
6.72476
21
-3.12394
0
LINE
8
BLACK
6
CONTINUOUS
10
6.72476
20
-3.12394
11
6.68641
21
-3.02903
0
LINE
8
BLACK
6
CONTINUOUS
10
6.68641
20
-3.02903
11
6.78132
21
-2.99069
0
LINE
8
BLACK
6
CONTINUOUS
10
6.78132
20
-2.99069
11
6.81967
21
-3.08559
0
LINE
8
BLACK
6
CONTINUOUS
10
3.29968
20
-3.00228
11
3.27018
21
-3.07528
0
LINE
8
BLACK
6
CONTINUOUS
10
3.27018
20
-3.07528
11
3.19718
21
-3.04579
0
LINE
8
BLACK
6
CONTINUOUS
10
3.19718
20
-3.04579
11
3.22667
21
-2.97278
0
LINE
8
BLACK
6
CONTINUOUS
10
3.22667
20
-2.97278
11
3.29968
21
-3.00228
0
LINE
8
BLACK
6
CONTINUOUS
10
4.03665
20
-2.94123
11
3.9983
21
-3.03613
0
LINE
8
BLACK
6
CONTINUOUS
10
3.9983
20
-3.03613
11
3.90339
21
-2.99779
0
LINE
8
BLACK
6
CONTINUOUS
10
3.90339
20
-2.99779
11
3.94174
21
-2.90288
0
LINE
8
BLACK
6
CONTINUOUS
10
3.94174
20
-2.90288
11
4.03665
21
-2.94123
0
LINE
8
BLACK
6
CONTINUOUS
10
7.27373
20
-2.99556
11
7.17882
21
-3.0339
0
LINE
8
BLACK
6
CONTINUOUS
10
7.17882
20
-3.0339
11
7.14047
21
-2.939
0
LINE
8
BLACK
6
CONTINUOUS
10
7.14047
20
-2.939
11
7.23538
21
-2.90065
0
LINE
8
BLACK
6
CONTINUOUS
10
7.23538
20
-2.90065
11
7.27373
21
-2.99556
0
LINE
8
BLACK
6
CONTINUOUS
10
4.35177
20
-2.93267
11
4.31343
21
-3.02758
0
LINE
8
BLACK
6
CONTINUOUS
10
4.31343
20
-3.02758
11
4.21852
21
-2.98923
0
LINE
8
BLACK
6
CONTINUOUS
10
4.21852
20
-2.98923
11
4.25687
21
-2.89432
0
LINE
8
BLACK
6
CONTINUOUS
10
4.25687
20
-2.89432
11
4.35177
21
-2.93267
0
LINE
8
BLACK
6
CONTINUOUS
10
4.81096
20
-2.81034
11
4.77408
21
-2.9016
0
LINE
8
BLACK
6
CONTINUOUS
10
4.77408
20
-2.9016
11
4.681
21
-2.86399
0
LINE
8
BLACK
6
CONTINUOUS
10
4.681
20
-2.86399
11
4.71787
21
-2.77273
0
LINE
8
BLACK
6
CONTINUOUS
10
4.71787
20
-2.77273
11
4.81096
21
-2.81034
0
LINE
8
BLACK
6
CONTINUOUS
10
7.52798
20
-2.84188
11
7.43307
21
-2.88023
0
LINE
8
BLACK
6
CONTINUOUS
10
7.43307
20
-2.88023
11
7.39473
21
-2.78532
0
LINE
8
BLACK
6
CONTINUOUS
10
7.39473
20
-2.78532
11
7.48963
21
-2.74697
0
LINE
8
BLACK
6
CONTINUOUS
10
7.48963
20
-2.74697
11
7.52798
21
-2.84188
0
LINE
8
BLACK
6
CONTINUOUS
10
6.49694
20
-2.83595
11
6.42393
21
-2.86545
0
LINE
8
BLACK
6
CONTINUOUS
10
6.42393
20
-2.86545
11
6.39444
21
-2.79244
0
LINE
8
BLACK
6
CONTINUOUS
10
6.39444
20
-2.79244
11
6.46744
21
-2.76294
0
LINE
8
BLACK
6
CONTINUOUS
10
6.46744
20
-2.76294
11
6.49694
21
-2.83595
0
LINE
8
BLACK
6
CONTINUOUS
10
7.98204
20
-2.75184
11
7.88713
21
-2.79019
0
LINE
8
BLACK
6
CONTINUOUS
10
7.88713
20
-2.79019
11
7.84878
21
-2.69528
0
LINE
8
BLACK
6
CONTINUOUS
10
7.84878
20
-2.69528
11
7.94369
21
-2.65694
0
LINE
8
BLACK
6
CONTINUOUS
10
7.94369
20
-2.65694
11
7.98204
21
-2.75184
0
LINE
8
BLACK
6
CONTINUOUS
10
3.64748
20
-2.69058
11
3.60913
21
-2.78548
0
LINE
8
BLACK
6
CONTINUOUS
10
3.60913
20
-2.78548
11
3.51422
21
-2.74714
0
LINE
8
BLACK
6
CONTINUOUS
10
3.51422
20
-2.74714
11
3.55257
21
-2.65223
0
LINE
8
BLACK
6
CONTINUOUS
10
3.55257
20
-2.65223
11
3.64748
21
-2.69058
0
LINE
8
BLACK
6
CONTINUOUS
10
7.06353
20
-2.67497
11
6.97044
21
-2.71258
0
LINE
8
BLACK
6
CONTINUOUS
10
6.97044
20
-2.71258
11
6.93357
21
-2.62132
0
LINE
8
BLACK
6
CONTINUOUS
10
6.93357
20
-2.62132
11
7.02665
21
-2.58372
0
LINE
8
BLACK
6
CONTINUOUS
10
7.02665
20
-2.58372
11
7.06353
21
-2.67497
0
LINE
8
BLACK
6
CONTINUOUS
10
4.10666
20
-2.56825
11
4.06979
21
-2.65951
0
LINE
8
BLACK
6
CONTINUOUS
10
4.06979
20
-2.65951
11
3.97671
21
-2.6219
0
LINE
8
BLACK
6
CONTINUOUS
10
3.97671
20
-2.6219
11
4.01358
21
-2.53064
0
LINE
8
BLACK
6
CONTINUOUS
10
4.01358
20
-2.53064
11
4.10666
21
-2.56825
0
LINE
8
BLACK
6
CONTINUOUS
10
4.28419
20
-2.55081
11
4.2547
21
-2.62381
0
LINE
8
BLACK
6
CONTINUOUS
10
4.2547
20
-2.62381
11
4.18169
21
-2.59432
0
LINE
8
BLACK
6
CONTINUOUS
10
4.18169
20
-2.59432
11
4.21119
21
-2.52131
0
LINE
8
BLACK
6
CONTINUOUS
10
4.21119
20
-2.52131
11
4.28419
21
-2.55081
0
LINE
8
BLACK
6
CONTINUOUS
10
7.20525
20
-2.59224
11
7.13225
21
-2.62173
0
LINE
8
BLACK
6
CONTINUOUS
10
7.13225
20
-2.62173
11
7.10275
21
-2.54873
0
LINE
8
BLACK
6
CONTINUOUS
10
7.10275
20
-2.54873
11
7.17576
21
-2.51923
0
LINE
8
BLACK
6
CONTINUOUS
10
7.17576
20
-2.51923
11
7.20525
21
-2.59224
0
LINE
8
BLACK
6
CONTINUOUS
10
5.02116
20
-2.48975
11
4.98281
21
-2.58466
0
LINE
8
BLACK
6
CONTINUOUS
10
4.98281
20
-2.58466
11
4.8879
21
-2.54632
0
LINE
8
BLACK
6
CONTINUOUS
10
4.8879
20
-2.54632
11
4.92625
21
-2.45141
0
LINE
8
BLACK
6
CONTINUOUS
10
4.92625
20
-2.45141
11
5.02116
21
-2.48975
0
LINE
8
BLACK
6
CONTINUOUS
10
7.77184
20
-2.43126
11
7.67875
21
-2.46887
0
LINE
8
BLACK
6
CONTINUOUS
10
7.67875
20
-2.46887
11
7.64188
21
-2.37761
0
LINE
8
BLACK
6
CONTINUOUS
10
7.64188
20
-2.37761
11
7.73497
21
-2.34
0
LINE
8
BLACK
6
CONTINUOUS
10
7.73497
20
-2.34
11
7.77184
21
-2.43126
0
LINE
8
BLACK
6
CONTINUOUS
10
6.53945
20
-2.39203
11
6.44454
21
-2.43038
0
LINE
8
BLACK
6
CONTINUOUS
10
6.44454
20
-2.43038
11
6.4062
21
-2.33547
0
LINE
8
BLACK
6
CONTINUOUS
10
6.4062
20
-2.33547
11
6.50111
21
-2.29712
0
LINE
8
BLACK
6
CONTINUOUS
10
6.50111
20
-2.29712
11
6.53945
21
-2.39203
0
LINE
8
BLACK
6
CONTINUOUS
10
3.5799
20
-2.30871
11
3.5504
21
-2.38172
0
LINE
8
BLACK
6
CONTINUOUS
10
3.5504
20
-2.38172
11
3.47739
21
-2.35222
0
LINE
8
BLACK
6
CONTINUOUS
10
3.47739
20
-2.35222
11
3.50689
21
-2.27922
0
LINE
8
BLACK
6
CONTINUOUS
10
3.50689
20
-2.27922
11
3.5799
21
-2.30871
0
LINE
8
BLACK
6
CONTINUOUS
10
4.31686
20
-2.24766
11
4.27852
21
-2.34257
0
LINE
8
BLACK
6
CONTINUOUS
10
4.27852
20
-2.34257
11
4.18361
21
-2.30423
0
LINE
8
BLACK
6
CONTINUOUS
10
4.18361
20
-2.30423
11
4.22195
21
-2.20932
0
LINE
8
BLACK
6
CONTINUOUS
10
4.22195
20
-2.20932
11
4.31686
21
-2.24766
0
LINE
8
BLACK
6
CONTINUOUS
10
6.99351
20
-2.302
11
6.8986
21
-2.34034
0
LINE
8
BLACK
6
CONTINUOUS
10
6.8986
20
-2.34034
11
6.86026
21
-2.24543
0
LINE
8
BLACK
6
CONTINUOUS
10
6.86026
20
-2.24543
11
6.95516
21
-2.20709
0
LINE
8
BLACK
6
CONTINUOUS
10
6.95516
20
-2.20709
11
6.99351
21
-2.302
0
LINE
8
BLACK
6
CONTINUOUS
10
4.63199
20
-2.2391
11
4.59365
21
-2.33401
0
LINE
8
BLACK
6
CONTINUOUS
10
4.59365
20
-2.33401
11
4.49874
21
-2.29567
0
LINE
8
BLACK
6
CONTINUOUS
10
4.49874
20
-2.29567
11
4.53708
21
-2.20076
0
LINE
8
BLACK
6
CONTINUOUS
10
4.53708
20
-2.20076
11
4.63199
21
-2.2391
0
LINE
8
BLACK
6
CONTINUOUS
10
5.09117
20
-2.11678
11
5.0543
21
-2.20803
0
LINE
8
BLACK
6
CONTINUOUS
10
5.0543
20
-2.20803
11
4.96122
21
-2.17043
0
LINE
8
BLACK
6
CONTINUOUS
10
4.96122
20
-2.17043
11
4.99809
21
-2.07917
0
LINE
8
BLACK
6
CONTINUOUS
10
4.99809
20
-2.07917
11
5.09117
21
-2.11678
0
LINE
8
BLACK
6
CONTINUOUS
10
7.24776
20
-2.14832
11
7.15285
21
-2.18666
0
LINE
8
BLACK
6
CONTINUOUS
10
7.15285
20
-2.18666
11
7.11451
21
-2.09175
0
LINE
8
BLACK
6
CONTINUOUS
10
7.11451
20
-2.09175
11
7.20942
21
-2.05341
0
LINE
8
BLACK
6
CONTINUOUS
10
7.20942
20
-2.05341
11
7.24776
21
-2.14832
0
LINE
8
BLACK
6
CONTINUOUS
10
6.21672
20
-2.14239
11
6.14372
21
-2.17188
0
LINE
8
BLACK
6
CONTINUOUS
10
6.14372
20
-2.17188
11
6.11422
21
-2.09888
0
LINE
8
BLACK
6
CONTINUOUS
10
6.11422
20
-2.09888
11
6.18723
21
-2.06938
0
LINE
8
BLACK
6
CONTINUOUS
10
6.18723
20
-2.06938
11
6.21672
21
-2.14239
0
LINE
8
BLACK
6
CONTINUOUS
10
7.70182
20
-2.05828
11
7.60691
21
-2.09663
0
LINE
8
BLACK
6
CONTINUOUS
10
7.60691
20
-2.09663
11
7.56857
21
-2.00172
0
LINE
8
BLACK
6
CONTINUOUS
10
7.56857
20
-2.00172
11
7.66348
21
-1.96337
0
LINE
8
BLACK
6
CONTINUOUS
10
7.66348
20
-1.96337
11
7.70182
21
-2.05828
0
LINE
8
BLACK
6
CONTINUOUS
10
3.9277
20
-1.99701
11
3.88935
21
-2.09192
0
LINE
8
BLACK
6
CONTINUOUS
10
3.88935
20
-2.09192
11
3.79444
21
-2.05358
0
LINE
8
BLACK
6
CONTINUOUS
10
3.79444
20
-2.05358
11
3.83279
21
-1.95867
0
LINE
8
BLACK
6
CONTINUOUS
10
3.83279
20
-1.95867
11
3.9277
21
-1.99701
0
LINE
8
BLACK
6
CONTINUOUS
10
6.78331
20
-1.98141
11
6.69022
21
-2.01902
0
LINE
8
BLACK
6
CONTINUOUS
10
6.69022
20
-2.01902
11
6.65335
21
-1.92776
0
LINE
8
BLACK
6
CONTINUOUS
10
6.65335
20
-1.92776
11
6.74644
21
-1.89015
0
LINE
8
BLACK
6
CONTINUOUS
10
6.74644
20
-1.89015
11
6.78331
21
-1.98141
0
LINE
8
BLACK
6
CONTINUOUS
10
4.38688
20
-1.87468
11
4.35001
21
-1.96594
0
LINE
8
BLACK
6
CONTINUOUS
10
4.35001
20
-1.96594
11
4.25692
21
-1.92833
0
LINE
8
BLACK
6
CONTINUOUS
10
4.25692
20
-1.92833
11
4.29379
21
-1.83708
0
LINE
8
BLACK
6
CONTINUOUS
10
4.29379
20
-1.83708
11
4.38688
21
-1.87468
0
LINE
8
BLACK
6
CONTINUOUS
10
4.56441
20
-1.85724
11
4.53491
21
-1.93025
0
LINE
8
BLACK
6
CONTINUOUS
10
4.53491
20
-1.93025
11
4.46191
21
-1.90075
0
LINE
8
BLACK
6
CONTINUOUS
10
4.46191
20
-1.90075
11
4.4914
21
-1.82775
0
LINE
8
BLACK
6
CONTINUOUS
10
4.4914
20
-1.82775
11
4.56441
21
-1.85724
0
LINE
8
BLACK
6
CONTINUOUS
10
6.92503
20
-1.89867
11
6.85203
21
-1.92817
0
LINE
8
BLACK
6
CONTINUOUS
10
6.85203
20
-1.92817
11
6.82253
21
-1.85516
0
LINE
8
BLACK
6
CONTINUOUS
10
6.82253
20
-1.85516
11
6.89554
21
-1.82567
0
LINE
8
BLACK
6
CONTINUOUS
10
6.89554
20
-1.82567
11
6.92503
21
-1.89867
0
LINE
8
BLACK
6
CONTINUOUS
10
5.30138
20
-1.79619
11
5.26303
21
-1.8911
0
LINE
8
BLACK
6
CONTINUOUS
10
5.26303
20
-1.8911
11
5.16812
21
-1.85275
0
LINE
8
BLACK
6
CONTINUOUS
10
5.16812
20
-1.85275
11
5.20647
21
-1.75785
0
LINE
8
BLACK
6
CONTINUOUS
10
5.20647
20
-1.75785
11
5.30138
21
-1.79619
0
LINE
8
BLACK
6
CONTINUOUS
10
7.49162
20
-1.7377
11
7.39854
21
-1.7753
0
LINE
8
BLACK
6
CONTINUOUS
10
7.39854
20
-1.7753
11
7.36166
21
-1.68405
0
LINE
8
BLACK
6
CONTINUOUS
10
7.36166
20
-1.68405
11
7.45475
21
-1.64644
0
LINE
8
BLACK
6
CONTINUOUS
10
7.45475
20
-1.64644
11
7.49162
21
-1.7377
0
LINE
8
BLACK
6
CONTINUOUS
10
6.25923
20
-1.69847
11
6.16432
21
-1.73681
0
LINE
8
BLACK
6
CONTINUOUS
10
6.16432
20
-1.73681
11
6.12598
21
-1.64191
0
LINE
8
BLACK
6
CONTINUOUS
10
6.12598
20
-1.64191
11
6.22089
21
-1.60356
0
LINE
8
BLACK
6
CONTINUOUS
10
6.22089
20
-1.60356
11
6.25923
21
-1.69847
0
LINE
8
BLACK
6
CONTINUOUS
10
3.86011
20
-1.61515
11
3.83062
21
-1.68816
0
LINE
8
BLACK
6
CONTINUOUS
10
3.83062
20
-1.68816
11
3.75761
21
-1.65866
0
LINE
8
BLACK
6
CONTINUOUS
10
3.75761
20
-1.65866
11
3.78711
21
-1.58565
0
LINE
8
BLACK
6
CONTINUOUS
10
3.78711
20
-1.58565
11
3.86011
21
-1.61515
0
LINE
8
BLACK
6
CONTINUOUS
10
4.59708
20
-1.5541
11
4.55873
21
-1.64901
0
LINE
8
BLACK
6
CONTINUOUS
10
4.55873
20
-1.64901
11
4.46383
21
-1.61066
0
LINE
8
BLACK
6
CONTINUOUS
10
4.46383
20
-1.61066
11
4.50217
21
-1.51575
0
LINE
8
BLACK
6
CONTINUOUS
10
4.50217
20
-1.51575
11
4.59708
21
-1.5541
0
LINE
8
BLACK
6
CONTINUOUS
10
6.71329
20
-1.60843
11
6.61838
21
-1.64678
0
LINE
8
BLACK
6
CONTINUOUS
10
6.61838
20
-1.64678
11
6.58004
21
-1.55187
0
LINE
8
BLACK
6
CONTINUOUS
10
6.58004
20
-1.55187
11
6.67495
21
-1.51352
0
LINE
8
BLACK
6
CONTINUOUS
10
6.67495
20
-1.51352
11
6.71329
21
-1.60843
0
LINE
8
BLACK
6
CONTINUOUS
10
4.91221
20
-1.54554
11
4.87386
21
-1.64045
0
LINE
8
BLACK
6
CONTINUOUS
10
4.87386
20
-1.64045
11
4.77895
21
-1.6021
0
LINE
8
BLACK
6
CONTINUOUS
10
4.77895
20
-1.6021
11
4.8173
21
-1.5072
0
LINE
8
BLACK
6
CONTINUOUS
10
4.8173
20
-1.5072
11
4.91221
21
-1.54554
0
LINE
8
BLACK
6
CONTINUOUS
10
6.96754
20
-1.45475
11
6.87264
21
-1.4931
0
LINE
8
BLACK
6
CONTINUOUS
10
6.87264
20
-1.4931
11
6.83429
21
-1.39819
0
LINE
8
BLACK
6
CONTINUOUS
10
6.83429
20
-1.39819
11
6.9292
21
-1.35985
0
LINE
8
BLACK
6
CONTINUOUS
10
6.9292
20
-1.35985
11
6.96754
21
-1.45475
0
LINE
8
BLACK
6
CONTINUOUS
10
7.4216
20
-1.36472
11
7.3267
21
-1.40306
0
LINE
8
BLACK
6
CONTINUOUS
10
7.3267
20
-1.40306
11
7.28835
21
-1.30816
0
LINE
8
BLACK
6
CONTINUOUS
10
7.28835
20
-1.30816
11
7.38326
21
-1.26981
0
LINE
8
BLACK
6
CONTINUOUS
10
7.38326
20
-1.26981
11
7.4216
21
-1.36472
0
LINE
8
BLACK
6
CONTINUOUS
10
4.20791
20
-1.30345
11
4.16957
21
-1.39836
0
LINE
8
BLACK
6
CONTINUOUS
10
4.16957
20
-1.39836
11
4.07466
21
-1.36001
0
LINE
8
BLACK
6
CONTINUOUS
10
4.07466
20
-1.36001
11
4.113
21
-1.2651
0
LINE
8
BLACK
6
CONTINUOUS
10
4.113
20
-1.2651
11
4.20791
21
-1.30345
0
LINE
8
BLACK
6
CONTINUOUS
10
4.40653
20
1.74935
11
4.3473
21
1.67074
0
LINE
8
BLACK
6
CONTINUOUS
10
4.3473
20
1.67074
11
4.26712
21
1.73116
0
LINE
8
BLACK
6
CONTINUOUS
10
4.26712
20
1.73116
11
4.32636
21
1.80977
0
LINE
8
BLACK
6
CONTINUOUS
10
4.32636
20
1.80977
11
4.40653
21
1.74935
0
LINE
8
BLACK
6
CONTINUOUS
10
6.90749
20
1.73334
11
6.84461
21
1.68595
0
LINE
8
BLACK
6
CONTINUOUS
10
6.84461
20
1.68595
11
6.79722
21
1.74884
0
LINE
8
BLACK
6
CONTINUOUS
10
6.79722
20
1.74884
11
6.86011
21
1.79622
0
LINE
8
BLACK
6
CONTINUOUS
10
6.86011
20
1.79622
11
6.90749
21
1.73334
0
LINE
8
BLACK
6
CONTINUOUS
10
4.69255
20
2.0046
11
4.63094
21
1.92285
0
LINE
8
BLACK
6
CONTINUOUS
10
4.63094
20
1.92285
11
4.54919
21
1.98446
0
LINE
8
BLACK
6
CONTINUOUS
10
4.54919
20
1.98446
11
4.6108
21
2.06621
0
LINE
8
BLACK
6
CONTINUOUS
10
4.6108
20
2.06621
11
4.69255
21
2.0046
0
LINE
8
BLACK
6
CONTINUOUS
10
7.41311
20
2.03547
11
7.33293
21
1.97505
0
LINE
8
BLACK
6
CONTINUOUS
10
7.33293
20
1.97505
11
7.27369
21
2.05366
0
LINE
8
BLACK
6
CONTINUOUS
10
7.27369
20
2.05366
11
7.35387
21
2.11408
0
LINE
8
BLACK
6
CONTINUOUS
10
7.35387
20
2.11408
11
7.41311
21
2.03547
0
LINE
8
BLACK
6
CONTINUOUS
10
3.96489
20
2.13638
11
3.9175
21
2.07349
0
LINE
8
BLACK
6
CONTINUOUS
10
3.9175
20
2.07349
11
3.85462
21
2.12088
0
LINE
8
BLACK
6
CONTINUOUS
10
3.85462
20
2.12088
11
3.90201
21
2.18376
0
LINE
8
BLACK
6
CONTINUOUS
10
3.90201
20
2.18376
11
3.96489
21
2.13638
0
LINE
8
BLACK
6
CONTINUOUS
10
6.83366
20
2.17313
11
6.75191
21
2.11153
0
LINE
8
BLACK
6
CONTINUOUS
10
6.75191
20
2.11153
11
6.69031
21
2.19328
0
LINE
8
BLACK
6
CONTINUOUS
10
6.69031
20
2.19328
11
6.77206
21
2.25488
0
LINE
8
BLACK
6
CONTINUOUS
10
6.77206
20
2.25488
11
6.83366
21
2.17313
0
LINE
8
BLACK
6
CONTINUOUS
10
3.80913
20
2.19952
11
3.74989
21
2.12092
0
LINE
8
BLACK
6
CONTINUOUS
10
3.74989
20
2.12092
11
3.66972
21
2.18134
0
LINE
8
BLACK
6
CONTINUOUS
10
3.66972
20
2.18134
11
3.72895
21
2.25994
0
LINE
8
BLACK
6
CONTINUOUS
10
3.72895
20
2.25994
11
3.80913
21
2.19952
0
LINE
8
BLACK
6
CONTINUOUS
10
7.5049
20
2.18352
11
7.44201
21
2.13613
0
LINE
8
BLACK
6
CONTINUOUS
10
7.44201
20
2.13613
11
7.39463
21
2.19901
0
LINE
8
BLACK
6
CONTINUOUS
10
7.39463
20
2.19901
11
7.45751
21
2.2464
0
LINE
8
BLACK
6
CONTINUOUS
10
7.45751
20
2.2464
11
7.5049
21
2.18352
0
LINE
8
BLACK
6
CONTINUOUS
10
4.38151
20
2.34744
11
4.31991
21
2.26569
0
LINE
8
BLACK
6
CONTINUOUS
10
4.31991
20
2.26569
11
4.23816
21
2.32729
0
LINE
8
BLACK
6
CONTINUOUS
10
4.23816
20
2.32729
11
4.29976
21
2.40904
0
LINE
8
BLACK
6
CONTINUOUS
10
4.29976
20
2.40904
11
4.38151
21
2.34744
0
LINE
8
BLACK
6
CONTINUOUS
10
7.24894
20
2.37762
11
7.16719
21
2.31602
0
LINE
8
BLACK
6
CONTINUOUS
10
7.16719
20
2.31602
11
7.10559
21
2.39777
0
LINE
8
BLACK
6
CONTINUOUS
10
7.10559
20
2.39777
11
7.18734
21
2.45937
0
LINE
8
BLACK
6
CONTINUOUS
10
7.18734
20
2.45937
11
7.24894
21
2.37762
0
LINE
8
BLACK
6
CONTINUOUS
10
4.09514
20
2.45478
11
4.03354
21
2.37303
0
LINE
8
BLACK
6
CONTINUOUS
10
4.03354
20
2.37303
11
3.95179
21
2.43463
0
LINE
8
BLACK
6
CONTINUOUS
10
3.95179
20
2.43463
11
4.01339
21
2.51638
0
LINE
8
BLACK
6
CONTINUOUS
10
4.01339
20
2.51638
11
4.09514
21
2.45478
0
LINE
8
BLACK
6
CONTINUOUS
10
8.01051
20
2.48565
11
7.93033
21
2.42523
0
LINE
8
BLACK
6
CONTINUOUS
10
7.93033
20
2.42523
11
7.8711
21
2.50384
0
LINE
8
BLACK
6
CONTINUOUS
10
7.8711
20
2.50384
11
7.95128
21
2.56426
0
LINE
8
BLACK
6
CONTINUOUS
10
7.95128
20
2.56426
11
8.01051
21
2.48565
0
LINE
8
BLACK
6
CONTINUOUS
10
3.36749
20
2.58655
11
3.3201
21
2.52367
0
LINE
8
BLACK
6
CONTINUOUS
10
3.3201
20
2.52367
11
3.25721
21
2.57105
0
LINE
8
BLACK
6
CONTINUOUS
10
3.25721
20
2.57105
11
3.3046
21
2.63394
0
LINE
8
BLACK
6
CONTINUOUS
10
3.3046
20
2.63394
11
3.36749
21
2.58655
0
LINE
8
BLACK
6
CONTINUOUS
10
6.71181
20
2.53071
11
6.65276
21
2.53071
0
LINE
8
BLACK
6
CONTINUOUS
10
6.65276
20
2.53071
11
6.65276
21
2.5622
0
LINE
8
BLACK
6
CONTINUOUS
10
6.65276
20
2.5622
11
6.71181
21
2.5622
0
LINE
8
BLACK
6
CONTINUOUS
10
6.71181
20
2.5622
11
6.71181
21
2.53071
0
LINE
8
BLACK
6
CONTINUOUS
10
6.60157
20
2.53071
11
6.54252
21
2.53071
0
LINE
8
BLACK
6
CONTINUOUS
10
6.54252
20
2.53071
11
6.54252
21
2.5622
0
LINE
8
BLACK
6
CONTINUOUS
10
6.54252
20
2.5622
11
6.60157
21
2.5622
0
LINE
8
BLACK
6
CONTINUOUS
10
6.60157
20
2.5622
11
6.60157
21
2.53071
0
LINE
8
BLACK
6
CONTINUOUS
10
7.43106
20
2.62331
11
7.34931
21
2.56171
0
LINE
8
BLACK
6
CONTINUOUS
10
7.34931
20
2.56171
11
7.28771
21
2.64346
0
LINE
8
BLACK
6
CONTINUOUS
10
7.28771
20
2.64346
11
7.36946
21
2.70506
0
LINE
8
BLACK
6
CONTINUOUS
10
7.36946
20
2.70506
11
7.43106
21
2.62331
0
LINE
8
BLACK
6
CONTINUOUS
10
3.21172
20
2.6497
11
3.15249
21
2.5711
0
LINE
8
BLACK
6
CONTINUOUS
10
3.15249
20
2.5711
11
3.07231
21
2.63151
0
LINE
8
BLACK
6
CONTINUOUS
10
3.07231
20
2.63151
11
3.13155
21
2.71012
0
LINE
8
BLACK
6
CONTINUOUS
10
3.13155
20
2.71012
11
3.21172
21
2.6497
0
LINE
8
BLACK
6
CONTINUOUS
10
6.60157
20
2.57402
11
6.54252
21
2.57402
0
LINE
8
BLACK
6
CONTINUOUS
10
6.54252
20
2.57402
11
6.54252
21
2.59764
0
LINE
8
BLACK
6
CONTINUOUS
10
6.54252
20
2.59764
11
6.60157
21
2.59764
0
LINE
8
BLACK
6
CONTINUOUS
10
6.60157
20
2.59764
11
6.60157
21
2.57402
0
LINE
8
BLACK
6
CONTINUOUS
10
8.1023
20
2.63369
11
8.03942
21
2.58631
0
LINE
8
BLACK
6
CONTINUOUS
10
8.03942
20
2.58631
11
7.99203
21
2.64919
0
LINE
8
BLACK
6
CONTINUOUS
10
7.99203
20
2.64919
11
8.05491
21
2.69658
0
LINE
8
BLACK
6
CONTINUOUS
10
8.05491
20
2.69658
11
8.1023
21
2.63369
0
LINE
8
BLACK
6
CONTINUOUS
10
6.71181
20
2.5937
11
6.65276
21
2.5937
0
LINE
8
BLACK
6
CONTINUOUS
10
6.65276
20
2.5937
11
6.65276
21
2.61732
0
LINE
8
BLACK
6
CONTINUOUS
10
6.65276
20
2.61732
11
6.71181
21
2.61732
0
LINE
8
BLACK
6
CONTINUOUS
10
6.71181
20
2.61732
11
6.71181
21
2.5937
0
LINE
8
BLACK
6
CONTINUOUS
10
6.60157
20
2.61339
11
6.54252
21
2.61339
0
LINE
8
BLACK
6
CONTINUOUS
10
6.54252
20
2.61339
11
6.54252
21
2.63701
0
LINE
8
BLACK
6
CONTINUOUS
10
6.54252
20
2.63701
11
6.60157
21
2.63701
0
LINE
8
BLACK
6
CONTINUOUS
10
6.60157
20
2.63701
11
6.60157
21
2.61339
0
LINE
8
BLACK
6
CONTINUOUS
10
6.71181
20
2.63307
11
6.65276
21
2.63307
0
LINE
8
BLACK
6
CONTINUOUS
10
6.65276
20
2.63307
11
6.65276
21
2.65669
0
LINE
8
BLACK
6
CONTINUOUS
10
6.65276
20
2.65669
11
6.71181
21
2.65669
0
LINE
8
BLACK
6
CONTINUOUS
10
6.71181
20
2.65669
11
6.71181
21
2.63307
0
LINE
8
BLACK
6
CONTINUOUS
10
6.60157
20
2.65276
11
6.54252
21
2.65276
0
LINE
8
BLACK
6
CONTINUOUS
10
6.54252
20
2.65276
11
6.54252
21
2.67638
0
LINE
8
BLACK
6
CONTINUOUS
10
6.54252
20
2.67638
11
6.60157
21
2.67638
0
LINE
8
BLACK
6
CONTINUOUS
10
6.60157
20
2.67638
11
6.60157
21
2.65276
0
LINE
8
BLACK
6
CONTINUOUS
10
6.71181
20
2.67244
11
6.65276
21
2.67244
0
LINE
8
BLACK
6
CONTINUOUS
10
6.65276
20
2.67244
11
6.65276
21
2.69606
0
LINE
8
BLACK
6
CONTINUOUS
10
6.65276
20
2.69606
11
6.71181
21
2.69606
0
LINE
8
BLACK
6
CONTINUOUS
10
6.71181
20
2.69606
11
6.71181
21
2.67244
0
LINE
8
BLACK
6
CONTINUOUS
10
6.60157
20
2.69213
11
6.54252
21
2.69213
0
LINE
8
BLACK
6
CONTINUOUS
10
6.54252
20
2.69213
11
6.54252
21
2.71575
0
LINE
8
BLACK
6
CONTINUOUS
10
6.54252
20
2.71575
11
6.60157
21
2.71575
0
LINE
8
BLACK
6
CONTINUOUS
10
6.60157
20
2.71575
11
6.60157
21
2.69213
0
LINE
8
BLACK
6
CONTINUOUS
10
6.71181
20
2.71181
11
6.65276
21
2.71181
0
LINE
8
BLACK
6
CONTINUOUS
10
6.65276
20
2.71181
11
6.65276
21
2.73543
0
LINE
8
BLACK
6
CONTINUOUS
10
6.65276
20
2.73543
11
6.71181
21
2.73543
0
LINE
8
BLACK
6
CONTINUOUS
10
6.71181
20
2.73543
11
6.71181
21
2.71181
0
LINE
8
BLACK
6
CONTINUOUS
10
3.78411
20
2.79761
11
3.72251
21
2.71586
0
LINE
8
BLACK
6
CONTINUOUS
10
3.72251
20
2.71586
11
3.64076
21
2.77747
0
LINE
8
BLACK
6
CONTINUOUS
10
3.64076
20
2.77747
11
3.70236
21
2.85922
0
LINE
8
BLACK
6
CONTINUOUS
10
3.70236
20
2.85922
11
3.78411
21
2.79761
0
LINE
8
BLACK
6
CONTINUOUS
10
6.60157
20
2.7315
11
6.54252
21
2.7315
0
LINE
8
BLACK
6
CONTINUOUS
10
6.54252
20
2.7315
11
6.54252
21
2.75512
0
LINE
8
BLACK
6
CONTINUOUS
10
6.54252
20
2.75512
11
6.60157
21
2.75512
0
LINE
8
BLACK
6
CONTINUOUS
10
6.60157
20
2.75512
11
6.60157
21
2.7315
0
LINE
8
BLACK
6
CONTINUOUS
10
6.71181
20
2.75118
11
6.65276
21
2.75118
0
LINE
8
BLACK
6
CONTINUOUS
10
6.65276
20
2.75118
11
6.65276
21
2.7748
0
LINE
8
BLACK
6
CONTINUOUS
10
6.65276
20
2.7748
11
6.71181
21
2.7748
0
LINE
8
BLACK
6
CONTINUOUS
10
6.71181
20
2.7748
11
6.71181
21
2.75118
0
LINE
8
BLACK
6
CONTINUOUS
10
7.84635
20
2.8278
11
7.7646
21
2.76619
0
LINE
8
BLACK
6
CONTINUOUS
10
7.7646
20
2.76619
11
7.70299
21
2.84794
0
LINE
8
BLACK
6
CONTINUOUS
10
7.70299
20
2.84794
11
7.78474
21
2.90955
0
LINE
8
BLACK
6
CONTINUOUS
10
7.78474
20
2.90955
11
7.84635
21
2.8278
0
LINE
8
BLACK
6
CONTINUOUS
10
6.60157
20
2.77087
11
6.54252
21
2.77087
0
LINE
8
BLACK
6
CONTINUOUS
10
6.54252
20
2.77087
11
6.54252
21
2.79449
0
LINE
8
BLACK
6
CONTINUOUS
10
6.54252
20
2.79449
11
6.60157
21
2.79449
0
LINE
8
BLACK
6
CONTINUOUS
10
6.60157
20
2.79449
11
6.60157
21
2.77087
0
LINE
8
BLACK
6
CONTINUOUS
10
6.71181
20
2.79055
11
6.65276
21
2.79055
0
LINE
8
BLACK
6
CONTINUOUS
10
6.65276
20
2.79055
11
6.65276
21
2.81417
0
LINE
8
BLACK
6
CONTINUOUS
10
6.65276
20
2.81417
11
6.71181
21
2.81417
0
LINE
8
BLACK
6
CONTINUOUS
10
6.71181
20
2.81417
11
6.71181
21
2.79055
0
LINE
8
BLACK
6
CONTINUOUS
10
3.49774
20
2.90496
11
3.43613
21
2.82321
0
LINE
8
BLACK
6
CONTINUOUS
10
3.43613
20
2.82321
11
3.35438
21
2.88481
0
LINE
8
BLACK
6
CONTINUOUS
10
3.35438
20
2.88481
11
3.41599
21
2.96656
0
LINE
8
BLACK
6
CONTINUOUS
10
3.41599
20
2.96656
11
3.49774
21
2.90496
0
LINE
8
BLACK
6
CONTINUOUS
10
6.71181
20
2.82598
11
6.65276
21
2.82598
0
LINE
8
BLACK
6
CONTINUOUS
10
6.65276
20
2.82598
11
6.65276
21
2.85748
0
LINE
8
BLACK
6
CONTINUOUS
10
6.65276
20
2.85748
11
6.71181
21
2.85748
0
LINE
8
BLACK
6
CONTINUOUS
10
6.71181
20
2.85748
11
6.71181
21
2.82598
0
LINE
8
BLACK
6
CONTINUOUS
10
6.60157
20
2.82598
11
6.54252
21
2.82598
0
LINE
8
BLACK
6
CONTINUOUS
10
6.54252
20
2.82598
11
6.54252
21
2.85748
0
LINE
8
BLACK
6
CONTINUOUS
10
6.54252
20
2.85748
11
6.60157
21
2.85748
0
LINE
8
BLACK
6
CONTINUOUS
10
6.60157
20
2.85748
11
6.60157
21
2.82598
0
LINE
8
BLACK
6
CONTINUOUS
10
8.60792
20
2.93583
11
8.52774
21
2.87541
0
LINE
8
BLACK
6
CONTINUOUS
10
8.52774
20
2.87541
11
8.4685
21
2.95401
0
LINE
8
BLACK
6
CONTINUOUS
10
8.4685
20
2.95401
11
8.54868
21
3.01443
0
LINE
8
BLACK
6
CONTINUOUS
10
8.54868
20
3.01443
11
8.60792
21
2.93583
0
LINE
8
BLACK
6
CONTINUOUS
10
2.77008
20
3.03673
11
2.7227
21
2.97384
0
LINE
8
BLACK
6
CONTINUOUS
10
2.7227
20
2.97384
11
2.65981
21
3.02123
0
LINE
8
BLACK
6
CONTINUOUS
10
2.65981
20
3.02123
11
2.7072
21
3.08412
0
LINE
8
BLACK
6
CONTINUOUS
10
2.7072
20
3.08412
11
2.77008
21
3.03673
0
LINE
8
BLACK
6
CONTINUOUS
10
8.02847
20
3.07349
11
7.94672
21
3.01188
0
LINE
8
BLACK
6
CONTINUOUS
10
7.94672
20
3.01188
11
7.88511
21
3.09363
0
LINE
8
BLACK
6
CONTINUOUS
10
7.88511
20
3.09363
11
7.96686
21
3.15524
0
LINE
8
BLACK
6
CONTINUOUS
10
7.96686
20
3.15524
11
8.02847
21
3.07349
0
LINE
8
BLACK
6
CONTINUOUS
10
3.1867
20
3.24779
11
3.1251
21
3.16604
0
LINE
8
BLACK
6
CONTINUOUS
10
3.1251
20
3.16604
11
3.04335
21
3.22764
0
LINE
8
BLACK
6
CONTINUOUS
10
3.04335
20
3.22764
11
3.10495
21
3.30939
0
LINE
8
BLACK
6
CONTINUOUS
10
3.10495
20
3.30939
11
3.1867
21
3.24779
0
LINE
8
BLACK
6
CONTINUOUS
10
8.44375
20
3.27797
11
8.362
21
3.21637
0
LINE
8
BLACK
6
CONTINUOUS
10
8.362
20
3.21637
11
8.3004
21
3.29812
0
LINE
8
BLACK
6
CONTINUOUS
10
8.3004
20
3.29812
11
8.38215
21
3.35972
0
LINE
8
BLACK
6
CONTINUOUS
10
8.38215
20
3.35972
11
8.44375
21
3.27797
  0
ENDSEC
  0
EOF
