  0
SECTION
  2
HEADER
  9
$ANGBASE
  50
0.0
  9
$ANGDIR
  70
1
  9
$MEASUREMENT
  70
0
  0
ENDSEC
  0
SECTION
  2
TABLES
  0
TABLE
  2
LTYPE
  70
4
  0
LTYPE
  5
40F
  2
CONTINUOUS
  70
0
  3
Solid line
  72
65
  73
0
  40
0.0
  0
LTYPE
  5
410
  2
DASHDOT
 70
0
  3
Dash Dot ____ _ ____ _
 72
65
 73
4
 40
2.0
 49
1.25
 49
-0.25
 49
0.25
 49
-0.25
  0
LTYPE
  5
411
  2
DASHED
 70
0
  3
Dashed __ __ __ __ __
 72
65
 73
2
 40
0.75
 49
0.5
 49
-0.25
  0
LTYPE
  5
43B
  2
DOTTED
 70
0
  3
Dotted .  .  .  .
 72
65
 73
2
 40
0.2
 49
0.0
 49
-0.2
  0
ENDTAB
  0
TABLE
  2
STYLE
  70
4
  0
STYLE
  2
KICAD
  70
0
  40
0
  41
1
  42
1
  50
0
  71
0
  3
isocp.shx
  0
STYLE
  2
KICADB
  70
0
  40
0
  41
1
  42
1
  50
0
  71
0
  3
isocp.shx
  0
STYLE
  2
KICADI
  70
0
  40
0
  41
1
  42
1
  50
15
  71
0
  3
isocp.shx
  0
STYLE
  2
KICADBI
  70
0
  40
0
  41
1
  42
1
  50
15
  71
0
  3
isocp.shx
  0
ENDTAB
  0
TABLE
  2
LAYER
  70
1
  0
LAYER
  2
BLACK
  70
0
  62
7
  6
CONTINUOUS
  0
ENDTAB
  0
ENDSEC
  0
SECTION
  2
ENTITIES
0
LINE
8
BLACK
6
CONTINUOUS
10
8.70447
20
-7.9746
11
8.7045
21
-7.9746
0
LINE
8
BLACK
6
CONTINUOUS
10
8.7045
20
-7.9746
11
8.70468
21
-7.97466
0
LINE
8
BLACK
6
CONTINUOUS
10
8.70468
20
-7.97466
11
8.70472
21
-7.97468
0
LINE
8
BLACK
6
CONTINUOUS
10
8.70472
20
-7.97468
11
8.75556
21
-7.99626
0
LINE
8
BLACK
6
CONTINUOUS
10
8.75556
20
-7.99626
11
10.0254
21
-7.48319
0
LINE
8
BLACK
6
CONTINUOUS
10
10.0254
20
-7.48319
11
10.0255
21
-7.48316
0
LINE
8
BLACK
6
CONTINUOUS
10
10.0255
20
-7.48316
11
10.0257
21
-7.48311
0
LINE
8
BLACK
6
CONTINUOUS
10
10.0257
20
-7.48311
11
10.0259
21
-7.48309
0
LINE
8
BLACK
6
CONTINUOUS
10
10.0259
20
-7.48309
11
10.0261
21
-7.48311
0
LINE
8
BLACK
6
CONTINUOUS
10
10.0261
20
-7.48311
11
10.0262
21
-7.48317
0
LINE
8
BLACK
6
CONTINUOUS
10
10.0262
20
-7.48317
11
10.0263
21
-7.48319
0
LINE
8
BLACK
6
CONTINUOUS
10
10.0263
20
-7.48319
11
10.139
21
-7.53102
0
LINE
8
BLACK
6
CONTINUOUS
10
10.139
20
-7.53102
11
10.139
21
-7.53103
0
LINE
8
BLACK
6
CONTINUOUS
10
10.139
20
-7.53103
11
10.1392
21
-7.53113
0
LINE
8
BLACK
6
CONTINUOUS
10
10.1392
20
-7.53113
11
10.1392
21
-7.53116
0
LINE
8
BLACK
6
CONTINUOUS
10
10.1392
20
-7.53116
11
10.1393
21
-7.53125
0
LINE
8
BLACK
6
CONTINUOUS
10
10.1393
20
-7.53125
11
10.1394
21
-7.5314
0
LINE
8
BLACK
6
CONTINUOUS
10
10.1394
20
-7.5314
11
10.1395
21
-7.53157
0
LINE
8
BLACK
6
CONTINUOUS
10
10.1395
20
-7.53157
11
10.1395
21
-7.53162
0
LINE
8
BLACK
6
CONTINUOUS
10
10.1395
20
-7.53162
11
11.1955
21
-10.1452
0
LINE
8
BLACK
6
CONTINUOUS
10
11.1955
20
-10.1452
11
11.1955
21
-10.1452
0
LINE
8
BLACK
6
CONTINUOUS
10
11.1955
20
-10.1452
11
11.1956
21
-10.1454
0
LINE
8
BLACK
6
CONTINUOUS
10
11.1956
20
-10.1454
11
11.1956
21
-10.1456
0
LINE
8
BLACK
6
CONTINUOUS
10
11.1956
20
-10.1456
11
11.1956
21
-10.1456
0
LINE
8
BLACK
6
CONTINUOUS
10
11.1956
20
-10.1456
11
11.1956
21
-10.1458
0
LINE
8
BLACK
6
CONTINUOUS
10
11.1956
20
-10.1458
11
11.1955
21
-10.146
0
LINE
8
BLACK
6
CONTINUOUS
10
11.1955
20
-10.146
11
11.1955
21
-10.146
0
LINE
8
BLACK
6
CONTINUOUS
10
11.1955
20
-10.146
11
11.1477
21
-10.2587
0
LINE
8
BLACK
6
CONTINUOUS
10
11.1477
20
-10.2587
11
11.1476
21
-10.2587
0
LINE
8
BLACK
6
CONTINUOUS
10
11.1476
20
-10.2587
11
11.1475
21
-10.2589
0
LINE
8
BLACK
6
CONTINUOUS
10
11.1475
20
-10.2589
11
11.1474
21
-10.259
0
LINE
8
BLACK
6
CONTINUOUS
10
11.1474
20
-10.259
11
11.1473
21
-10.2592
0
LINE
8
BLACK
6
CONTINUOUS
10
11.1473
20
-10.2592
11
11.1471
21
-10.2592
0
LINE
8
BLACK
6
CONTINUOUS
10
11.1471
20
-10.2592
11
11.1471
21
-10.2592
0
LINE
8
BLACK
6
CONTINUOUS
10
11.1471
20
-10.2592
11
11.1471
21
-10.2592
0
LINE
8
BLACK
6
CONTINUOUS
10
11.1471
20
-10.2592
11
11.1471
21
-10.2593
0
LINE
8
BLACK
6
CONTINUOUS
10
11.1471
20
-10.2593
11
10.6145
21
-10.4744
0
LINE
8
BLACK
6
CONTINUOUS
10
10.6145
20
-10.4744
11
10.5668
21
-10.5868
0
LINE
8
BLACK
6
CONTINUOUS
10
10.5668
20
-10.5868
11
10.5668
21
-10.5868
0
LINE
8
BLACK
6
CONTINUOUS
10
10.5668
20
-10.5868
11
10.5277
21
-10.679
0
LINE
8
BLACK
6
CONTINUOUS
10
10.5277
20
-10.679
11
10.5277
21
-10.6791
0
LINE
8
BLACK
6
CONTINUOUS
10
10.5277
20
-10.6791
11
10.5276
21
-10.6792
0
LINE
8
BLACK
6
CONTINUOUS
10
10.5276
20
-10.6792
11
10.5275
21
-10.6794
0
LINE
8
BLACK
6
CONTINUOUS
10
10.5275
20
-10.6794
11
10.5273
21
-10.6795
0
LINE
8
BLACK
6
CONTINUOUS
10
10.5273
20
-10.6795
11
10.5272
21
-10.6796
0
LINE
8
BLACK
6
CONTINUOUS
10
10.5272
20
-10.6796
11
10.5272
21
-10.6796
0
LINE
8
BLACK
6
CONTINUOUS
10
10.5272
20
-10.6796
11
10.5271
21
-10.6796
0
LINE
8
BLACK
6
CONTINUOUS
10
10.5271
20
-10.6796
11
10.5271
21
-10.6796
0
LINE
8
BLACK
6
CONTINUOUS
10
10.5271
20
-10.6796
11
10.1369
21
-10.8372
0
LINE
8
BLACK
6
CONTINUOUS
10
10.1369
20
-10.8372
11
10.0568
21
-11.0261
0
LINE
8
BLACK
6
CONTINUOUS
10
10.0568
20
-11.0261
11
10.1908
21
-11.3579
0
LINE
8
BLACK
6
CONTINUOUS
10
10.1908
20
-11.3579
11
10.1908
21
-11.3579
0
LINE
8
BLACK
6
CONTINUOUS
10
10.1908
20
-11.3579
11
10.1909
21
-11.3581
0
LINE
8
BLACK
6
CONTINUOUS
10
10.1909
20
-11.3581
11
10.1909
21
-11.3583
0
LINE
8
BLACK
6
CONTINUOUS
10
10.1909
20
-11.3583
11
10.1909
21
-11.3585
0
LINE
8
BLACK
6
CONTINUOUS
10
10.1909
20
-11.3585
11
10.1908
21
-11.3587
0
LINE
8
BLACK
6
CONTINUOUS
10
10.1908
20
-11.3587
11
10.1908
21
-11.3587
0
LINE
8
BLACK
6
CONTINUOUS
10
10.1908
20
-11.3587
11
10.1647
21
-11.4201
0
LINE
8
BLACK
6
CONTINUOUS
10
10.1647
20
-11.4201
11
10.1647
21
-11.4202
0
LINE
8
BLACK
6
CONTINUOUS
10
10.1647
20
-11.4202
11
10.1646
21
-11.4203
0
LINE
8
BLACK
6
CONTINUOUS
10
10.1646
20
-11.4203
11
10.1645
21
-11.4205
0
LINE
8
BLACK
6
CONTINUOUS
10
10.1645
20
-11.4205
11
10.1643
21
-11.4206
0
LINE
8
BLACK
6
CONTINUOUS
10
10.1643
20
-11.4206
11
10.1642
21
-11.4207
0
LINE
8
BLACK
6
CONTINUOUS
10
10.1642
20
-11.4207
11
10.1642
21
-11.4207
0
LINE
8
BLACK
6
CONTINUOUS
10
10.1642
20
-11.4207
11
10.1642
21
-11.4207
0
LINE
8
BLACK
6
CONTINUOUS
10
10.1642
20
-11.4207
11
10.1641
21
-11.4207
0
LINE
8
BLACK
6
CONTINUOUS
10
10.1641
20
-11.4207
11
8.68589
21
-12.018
0
LINE
8
BLACK
6
CONTINUOUS
10
8.68589
20
-12.018
11
6.94399
21
-13.3289
0
LINE
8
BLACK
6
CONTINUOUS
10
6.94399
20
-13.3289
11
6.94393
21
-13.3289
0
LINE
8
BLACK
6
CONTINUOUS
10
6.94393
20
-13.3289
11
6.94387
21
-13.329
0
LINE
8
BLACK
6
CONTINUOUS
10
6.94387
20
-13.329
11
6.94381
21
-13.329
0
LINE
8
BLACK
6
CONTINUOUS
10
6.94381
20
-13.329
11
6.94378
21
-13.329
0
LINE
8
BLACK
6
CONTINUOUS
10
6.94378
20
-13.329
11
6.94376
21
-13.329
0
LINE
8
BLACK
6
CONTINUOUS
10
6.94376
20
-13.329
11
6.94369
21
-13.3291
0
LINE
8
BLACK
6
CONTINUOUS
10
6.94369
20
-13.3291
11
6.94363
21
-13.3291
0
LINE
8
BLACK
6
CONTINUOUS
10
6.94363
20
-13.3291
11
6.9436
21
-13.3291
0
LINE
8
BLACK
6
CONTINUOUS
10
6.9436
20
-13.3291
11
6.94357
21
-13.3291
0
LINE
8
BLACK
6
CONTINUOUS
10
6.94357
20
-13.3291
11
6.9435
21
-13.3291
0
LINE
8
BLACK
6
CONTINUOUS
10
6.9435
20
-13.3291
11
6.94343
21
-13.3291
0
LINE
8
BLACK
6
CONTINUOUS
10
6.94343
20
-13.3291
11
6.94336
21
-13.3291
0
LINE
8
BLACK
6
CONTINUOUS
10
6.94336
20
-13.3291
11
4.3422
21
-13.3291
0
LINE
8
BLACK
6
CONTINUOUS
10
4.3422
20
-13.3291
11
4.34213
21
-13.3291
0
LINE
8
BLACK
6
CONTINUOUS
10
4.34213
20
-13.3291
11
4.34206
21
-13.3291
0
LINE
8
BLACK
6
CONTINUOUS
10
4.34206
20
-13.3291
11
4.34199
21
-13.3291
0
LINE
8
BLACK
6
CONTINUOUS
10
4.34199
20
-13.3291
11
4.34196
21
-13.3291
0
LINE
8
BLACK
6
CONTINUOUS
10
4.34196
20
-13.3291
11
4.34194
21
-13.3291
0
LINE
8
BLACK
6
CONTINUOUS
10
4.34194
20
-13.3291
11
4.34187
21
-13.3291
0
LINE
8
BLACK
6
CONTINUOUS
10
4.34187
20
-13.3291
11
4.3418
21
-13.329
0
LINE
8
BLACK
6
CONTINUOUS
10
4.3418
20
-13.329
11
4.34178
21
-13.329
0
LINE
8
BLACK
6
CONTINUOUS
10
4.34178
20
-13.329
11
4.34175
21
-13.329
0
LINE
8
BLACK
6
CONTINUOUS
10
4.34175
20
-13.329
11
4.3417
21
-13.329
0
LINE
8
BLACK
6
CONTINUOUS
10
4.3417
20
-13.329
11
4.34163
21
-13.3289
0
LINE
8
BLACK
6
CONTINUOUS
10
4.34163
20
-13.3289
11
4.34157
21
-13.3289
0
LINE
8
BLACK
6
CONTINUOUS
10
4.34157
20
-13.3289
11
2.59967
21
-12.018
0
LINE
8
BLACK
6
CONTINUOUS
10
2.59967
20
-12.018
11
1.12145
21
-11.4207
0
LINE
8
BLACK
6
CONTINUOUS
10
1.12145
20
-11.4207
11
1.1214
21
-11.4207
0
LINE
8
BLACK
6
CONTINUOUS
10
1.1214
20
-11.4207
11
1.12123
21
-11.4206
0
LINE
8
BLACK
6
CONTINUOUS
10
1.12123
20
-11.4206
11
1.12108
21
-11.4205
0
LINE
8
BLACK
6
CONTINUOUS
10
1.12108
20
-11.4205
11
1.12096
21
-11.4203
0
LINE
8
BLACK
6
CONTINUOUS
10
1.12096
20
-11.4203
11
1.12089
21
-11.4202
0
LINE
8
BLACK
6
CONTINUOUS
10
1.12089
20
-11.4202
11
1.12089
21
-11.4202
0
LINE
8
BLACK
6
CONTINUOUS
10
1.12089
20
-11.4202
11
1.12086
21
-11.4202
0
LINE
8
BLACK
6
CONTINUOUS
10
1.12086
20
-11.4202
11
1.12085
21
-11.4201
0
LINE
8
BLACK
6
CONTINUOUS
10
1.12085
20
-11.4201
11
1.09478
21
-11.3587
0
LINE
8
BLACK
6
CONTINUOUS
10
1.09478
20
-11.3587
11
1.09476
21
-11.3587
0
LINE
8
BLACK
6
CONTINUOUS
10
1.09476
20
-11.3587
11
1.0947
21
-11.3585
0
LINE
8
BLACK
6
CONTINUOUS
10
1.0947
20
-11.3585
11
1.09468
21
-11.3583
0
LINE
8
BLACK
6
CONTINUOUS
10
1.09468
20
-11.3583
11
1.0947
21
-11.3581
0
LINE
8
BLACK
6
CONTINUOUS
10
1.0947
20
-11.3581
11
1.09475
21
-11.3579
0
LINE
8
BLACK
6
CONTINUOUS
10
1.09475
20
-11.3579
11
1.09477
21
-11.3579
0
LINE
8
BLACK
6
CONTINUOUS
10
1.09477
20
-11.3579
11
1.22881
21
-11.0261
0
LINE
8
BLACK
6
CONTINUOUS
10
1.22881
20
-11.0261
11
1.14864
21
-10.8372
0
LINE
8
BLACK
6
CONTINUOUS
10
1.14864
20
-10.8372
11
0.758474
21
-10.6796
0
LINE
8
BLACK
6
CONTINUOUS
10
0.758474
20
-10.6796
11
0.758427
21
-10.6796
0
LINE
8
BLACK
6
CONTINUOUS
10
0.758427
20
-10.6796
11
0.758256
21
-10.6795
0
LINE
8
BLACK
6
CONTINUOUS
10
0.758256
20
-10.6795
11
0.758105
21
-10.6794
0
LINE
8
BLACK
6
CONTINUOUS
10
0.758105
20
-10.6794
11
0.75798
21
-10.6792
0
LINE
8
BLACK
6
CONTINUOUS
10
0.75798
20
-10.6792
11
0.757911
21
-10.6791
0
LINE
8
BLACK
6
CONTINUOUS
10
0.757911
20
-10.6791
11
0.757911
21
-10.6791
0
LINE
8
BLACK
6
CONTINUOUS
10
0.757911
20
-10.6791
11
0.757887
21
-10.6791
0
LINE
8
BLACK
6
CONTINUOUS
10
0.757887
20
-10.6791
11
0.757873
21
-10.679
0
LINE
8
BLACK
6
CONTINUOUS
10
0.757873
20
-10.679
11
0.718752
21
-10.5868
0
LINE
8
BLACK
6
CONTINUOUS
10
0.718752
20
-10.5868
11
0.718752
21
-10.5868
0
LINE
8
BLACK
6
CONTINUOUS
10
0.718752
20
-10.5868
11
0.671031
21
-10.4744
0
LINE
8
BLACK
6
CONTINUOUS
10
0.671031
20
-10.4744
11
0.138506
21
-10.2593
0
LINE
8
BLACK
6
CONTINUOUS
10
0.138506
20
-10.2593
11
0.138459
21
-10.2592
0
LINE
8
BLACK
6
CONTINUOUS
10
0.138459
20
-10.2592
11
0.138287
21
-10.2592
0
LINE
8
BLACK
6
CONTINUOUS
10
0.138287
20
-10.2592
11
0.138136
21
-10.259
0
LINE
8
BLACK
6
CONTINUOUS
10
0.138136
20
-10.259
11
0.138051
21
-10.2589
0
LINE
8
BLACK
6
CONTINUOUS
10
0.138051
20
-10.2589
11
0.138012
21
-10.2589
0
LINE
8
BLACK
6
CONTINUOUS
10
0.138012
20
-10.2589
11
0.137919
21
-10.2587
0
LINE
8
BLACK
6
CONTINUOUS
10
0.137919
20
-10.2587
11
0.137905
21
-10.2587
0
LINE
8
BLACK
6
CONTINUOUS
10
0.137905
20
-10.2587
11
0.0900814
21
-10.146
0
LINE
8
BLACK
6
CONTINUOUS
10
0.0900814
20
-10.146
11
0.0900582
21
-10.146
0
LINE
8
BLACK
6
CONTINUOUS
10
0.0900582
20
-10.146
11
0.0900003
21
-10.1458
0
LINE
8
BLACK
6
CONTINUOUS
10
0.0900003
20
-10.1458
11
0.0899796
21
-10.1456
0
LINE
8
BLACK
6
CONTINUOUS
10
0.0899796
20
-10.1456
11
0.089997
21
-10.1454
0
LINE
8
BLACK
6
CONTINUOUS
10
0.089997
20
-10.1454
11
0.0900516
21
-10.1452
0
LINE
8
BLACK
6
CONTINUOUS
10
0.0900516
20
-10.1452
11
0.0900742
21
-10.1452
0
LINE
8
BLACK
6
CONTINUOUS
10
0.0900742
20
-10.1452
11
1.14602
21
-7.53162
0
LINE
8
BLACK
6
CONTINUOUS
10
1.14602
20
-7.53162
11
1.14603
21
-7.53157
0
LINE
8
BLACK
6
CONTINUOUS
10
1.14603
20
-7.53157
11
1.14605
21
-7.53153
0
LINE
8
BLACK
6
CONTINUOUS
10
1.14605
20
-7.53153
11
1.14612
21
-7.5314
0
LINE
8
BLACK
6
CONTINUOUS
10
1.14612
20
-7.5314
11
1.14624
21
-7.53125
0
LINE
8
BLACK
6
CONTINUOUS
10
1.14624
20
-7.53125
11
1.14639
21
-7.53113
0
LINE
8
BLACK
6
CONTINUOUS
10
1.14639
20
-7.53113
11
1.14656
21
-7.53103
0
LINE
8
BLACK
6
CONTINUOUS
10
1.14656
20
-7.53103
11
1.14661
21
-7.53102
0
LINE
8
BLACK
6
CONTINUOUS
10
1.14661
20
-7.53102
11
1.25927
21
-7.48319
0
LINE
8
BLACK
6
CONTINUOUS
10
1.25927
20
-7.48319
11
1.25931
21
-7.48317
0
LINE
8
BLACK
6
CONTINUOUS
10
1.25931
20
-7.48317
11
1.2595
21
-7.48311
0
LINE
8
BLACK
6
CONTINUOUS
10
1.2595
20
-7.48311
11
1.25967
21
-7.48309
0
LINE
8
BLACK
6
CONTINUOUS
10
1.25967
20
-7.48309
11
1.25969
21
-7.48309
0
LINE
8
BLACK
6
CONTINUOUS
10
1.25969
20
-7.48309
11
1.25969
21
-7.48309
0
LINE
8
BLACK
6
CONTINUOUS
10
1.25969
20
-7.48309
11
1.25971
21
-7.48309
0
LINE
8
BLACK
6
CONTINUOUS
10
1.25971
20
-7.48309
11
1.25988
21
-7.48311
0
LINE
8
BLACK
6
CONTINUOUS
10
1.25988
20
-7.48311
11
1.26007
21
-7.48316
0
LINE
8
BLACK
6
CONTINUOUS
10
1.26007
20
-7.48316
11
1.26011
21
-7.48319
0
LINE
8
BLACK
6
CONTINUOUS
10
1.26011
20
-7.48319
11
2.53001
21
-7.99626
0
LINE
8
BLACK
6
CONTINUOUS
10
2.53001
20
-7.99626
11
2.58084
21
-7.97468
0
LINE
8
BLACK
6
CONTINUOUS
10
2.58084
20
-7.97468
11
2.58088
21
-7.97466
0
LINE
8
BLACK
6
CONTINUOUS
10
2.58088
20
-7.97466
11
2.58106
21
-7.9746
0
LINE
8
BLACK
6
CONTINUOUS
10
2.58106
20
-7.9746
11
2.58124
21
-7.97458
0
LINE
8
BLACK
6
CONTINUOUS
10
2.58124
20
-7.97458
11
2.58126
21
-7.97458
0
LINE
8
BLACK
6
CONTINUOUS
10
2.58126
20
-7.97458
11
2.58126
21
-7.97458
0
LINE
8
BLACK
6
CONTINUOUS
10
2.58126
20
-7.97458
11
2.58127
21
-7.97458
0
LINE
8
BLACK
6
CONTINUOUS
10
2.58127
20
-7.97458
11
2.58145
21
-7.9746
0
LINE
8
BLACK
6
CONTINUOUS
10
2.58145
20
-7.9746
11
2.58164
21
-7.97465
0
LINE
8
BLACK
6
CONTINUOUS
10
2.58164
20
-7.97465
11
2.58168
21
-7.97467
0
LINE
8
BLACK
6
CONTINUOUS
10
2.58168
20
-7.97467
11
3.0923
21
-8.18098
0
LINE
8
BLACK
6
CONTINUOUS
10
3.0923
20
-8.18098
11
3.34814
21
-8.07238
0
LINE
8
BLACK
6
CONTINUOUS
10
3.34814
20
-8.07238
11
3.34818
21
-8.07236
0
LINE
8
BLACK
6
CONTINUOUS
10
3.34818
20
-8.07236
11
3.34837
21
-8.0723
0
LINE
8
BLACK
6
CONTINUOUS
10
3.34837
20
-8.0723
11
3.34854
21
-8.07228
0
LINE
8
BLACK
6
CONTINUOUS
10
3.34854
20
-8.07228
11
3.34856
21
-8.07228
0
LINE
8
BLACK
6
CONTINUOUS
10
3.34856
20
-8.07228
11
3.34856
21
-8.07228
0
LINE
8
BLACK
6
CONTINUOUS
10
3.34856
20
-8.07228
11
3.34858
21
-8.07228
0
LINE
8
BLACK
6
CONTINUOUS
10
3.34858
20
-8.07228
11
3.34875
21
-8.0723
0
LINE
8
BLACK
6
CONTINUOUS
10
3.34875
20
-8.0723
11
3.34894
21
-8.07235
0
LINE
8
BLACK
6
CONTINUOUS
10
3.34894
20
-8.07235
11
3.34898
21
-8.07237
0
LINE
8
BLACK
6
CONTINUOUS
10
3.34898
20
-8.07237
11
4.04246
21
-8.35256
0
LINE
8
BLACK
6
CONTINUOUS
10
4.04246
20
-8.35256
11
4.0425
21
-8.35257
0
LINE
8
BLACK
6
CONTINUOUS
10
4.0425
20
-8.35257
11
4.04255
21
-8.35259
0
LINE
8
BLACK
6
CONTINUOUS
10
4.04255
20
-8.35259
11
4.04255
21
-8.35259
0
LINE
8
BLACK
6
CONTINUOUS
10
4.04255
20
-8.35259
11
4.04268
21
-8.35266
0
LINE
8
BLACK
6
CONTINUOUS
10
4.04268
20
-8.35266
11
4.04283
21
-8.35278
0
LINE
8
BLACK
6
CONTINUOUS
10
4.04283
20
-8.35278
11
4.04295
21
-8.35293
0
LINE
8
BLACK
6
CONTINUOUS
10
4.04295
20
-8.35293
11
4.04304
21
-8.3531
0
LINE
8
BLACK
6
CONTINUOUS
10
4.04304
20
-8.3531
11
4.04306
21
-8.35315
0
LINE
8
BLACK
6
CONTINUOUS
10
4.04306
20
-8.35315
11
4.12337
21
-8.54236
0
LINE
8
BLACK
6
CONTINUOUS
10
4.12337
20
-8.54236
11
5.18243
21
-8.97037
0
LINE
8
BLACK
6
CONTINUOUS
10
5.18243
20
-8.97037
11
5.18243
21
-8.97037
0
LINE
8
BLACK
6
CONTINUOUS
10
5.18243
20
-8.97037
11
5.57565
21
-9.12911
0
LINE
8
BLACK
6
CONTINUOUS
10
5.57565
20
-9.12911
11
5.70991
21
-9.12911
0
LINE
8
BLACK
6
CONTINUOUS
10
5.70991
20
-9.12911
11
6.10322
21
-8.97033
0
LINE
8
BLACK
6
CONTINUOUS
10
6.10322
20
-8.97033
11
6.10322
21
-8.97033
0
LINE
8
BLACK
6
CONTINUOUS
10
6.10322
20
-8.97033
11
7.16219
21
-8.54236
0
LINE
8
BLACK
6
CONTINUOUS
10
7.16219
20
-8.54236
11
7.2425
21
-8.35315
0
LINE
8
BLACK
6
CONTINUOUS
10
7.2425
20
-8.35315
11
7.24252
21
-8.3531
0
LINE
8
BLACK
6
CONTINUOUS
10
7.24252
20
-8.3531
11
7.24261
21
-8.35293
0
LINE
8
BLACK
6
CONTINUOUS
10
7.24261
20
-8.35293
11
7.24261
21
-8.35293
0
LINE
8
BLACK
6
CONTINUOUS
10
7.24261
20
-8.35293
11
7.24274
21
-8.35278
0
LINE
8
BLACK
6
CONTINUOUS
10
7.24274
20
-8.35278
11
7.24289
21
-8.35266
0
LINE
8
BLACK
6
CONTINUOUS
10
7.24289
20
-8.35266
11
7.24306
21
-8.35257
0
LINE
8
BLACK
6
CONTINUOUS
10
7.24306
20
-8.35257
11
7.2431
21
-8.35256
0
LINE
8
BLACK
6
CONTINUOUS
10
7.2431
20
-8.35256
11
7.93658
21
-8.07237
0
LINE
8
BLACK
6
CONTINUOUS
10
7.93658
20
-8.07237
11
7.93662
21
-8.07235
0
LINE
8
BLACK
6
CONTINUOUS
10
7.93662
20
-8.07235
11
7.93681
21
-8.0723
0
LINE
8
BLACK
6
CONTINUOUS
10
7.93681
20
-8.0723
11
7.937
21
-8.07228
0
LINE
8
BLACK
6
CONTINUOUS
10
7.937
20
-8.07228
11
7.93719
21
-8.0723
0
LINE
8
BLACK
6
CONTINUOUS
10
7.93719
20
-8.0723
11
7.93738
21
-8.07236
0
LINE
8
BLACK
6
CONTINUOUS
10
7.93738
20
-8.07236
11
7.93742
21
-8.07238
0
LINE
8
BLACK
6
CONTINUOUS
10
7.93742
20
-8.07238
11
8.19326
21
-8.18098
0
LINE
8
BLACK
6
CONTINUOUS
10
8.19326
20
-8.18098
11
8.70388
21
-7.97467
0
LINE
8
BLACK
6
CONTINUOUS
10
8.70388
20
-7.97467
11
8.70393
21
-7.97465
0
LINE
8
BLACK
6
CONTINUOUS
10
8.70393
20
-7.97465
11
8.70411
21
-7.9746
0
LINE
8
BLACK
6
CONTINUOUS
10
8.70411
20
-7.9746
11
8.70429
21
-7.97458
0
LINE
8
BLACK
6
CONTINUOUS
10
8.70429
20
-7.97458
11
8.7043
21
-7.97458
0
LINE
8
BLACK
6
CONTINUOUS
10
8.7043
20
-7.97458
11
8.7043
21
-7.97458
0
LINE
8
BLACK
6
CONTINUOUS
10
8.7043
20
-7.97458
11
8.70447
21
-7.9746
0
LINE
8
BLACK
6
CONTINUOUS
10
8.75552
20
-7.99831
11
8.75535
21
-7.99829
0
LINE
8
BLACK
6
CONTINUOUS
10
8.75535
20
-7.99829
11
8.75516
21
-7.99823
0
LINE
8
BLACK
6
CONTINUOUS
10
8.75516
20
-7.99823
11
8.75512
21
-7.99821
0
LINE
8
BLACK
6
CONTINUOUS
10
8.75512
20
-7.99821
11
8.70429
21
-7.97663
0
LINE
8
BLACK
6
CONTINUOUS
10
8.70429
20
-7.97663
11
8.19366
21
-8.18294
0
LINE
8
BLACK
6
CONTINUOUS
10
8.19366
20
-8.18294
11
8.19362
21
-8.18296
0
LINE
8
BLACK
6
CONTINUOUS
10
8.19362
20
-8.18296
11
8.19343
21
-8.18302
0
LINE
8
BLACK
6
CONTINUOUS
10
8.19343
20
-8.18302
11
8.19326
21
-8.18303
0
LINE
8
BLACK
6
CONTINUOUS
10
8.19326
20
-8.18303
11
8.19324
21
-8.18303
0
LINE
8
BLACK
6
CONTINUOUS
10
8.19324
20
-8.18303
11
8.19324
21
-8.18303
0
LINE
8
BLACK
6
CONTINUOUS
10
8.19324
20
-8.18303
11
8.19322
21
-8.18303
0
LINE
8
BLACK
6
CONTINUOUS
10
8.19322
20
-8.18303
11
8.19305
21
-8.18301
0
LINE
8
BLACK
6
CONTINUOUS
10
8.19305
20
-8.18301
11
8.19286
21
-8.18295
0
LINE
8
BLACK
6
CONTINUOUS
10
8.19286
20
-8.18295
11
8.19282
21
-8.18293
0
LINE
8
BLACK
6
CONTINUOUS
10
8.19282
20
-8.18293
11
7.93698
21
-8.07433
0
LINE
8
BLACK
6
CONTINUOUS
10
7.93698
20
-8.07433
11
7.24418
21
-8.35425
0
LINE
8
BLACK
6
CONTINUOUS
10
7.24418
20
-8.35425
11
7.16386
21
-8.54346
0
LINE
8
BLACK
6
CONTINUOUS
10
7.16386
20
-8.54346
11
7.16385
21
-8.5435
0
LINE
8
BLACK
6
CONTINUOUS
10
7.16385
20
-8.5435
11
7.16375
21
-8.54367
0
LINE
8
BLACK
6
CONTINUOUS
10
7.16375
20
-8.54367
11
7.16363
21
-8.54382
0
LINE
8
BLACK
6
CONTINUOUS
10
7.16363
20
-8.54382
11
7.16348
21
-8.54394
0
LINE
8
BLACK
6
CONTINUOUS
10
7.16348
20
-8.54394
11
7.16335
21
-8.54401
0
LINE
8
BLACK
6
CONTINUOUS
10
7.16335
20
-8.54401
11
7.16335
21
-8.54401
0
LINE
8
BLACK
6
CONTINUOUS
10
7.16335
20
-8.54401
11
7.16331
21
-8.54403
0
LINE
8
BLACK
6
CONTINUOUS
10
7.16331
20
-8.54403
11
7.16326
21
-8.54405
0
LINE
8
BLACK
6
CONTINUOUS
10
7.16326
20
-8.54405
11
6.10396
21
-8.97215
0
LINE
8
BLACK
6
CONTINUOUS
10
6.10396
20
-8.97215
11
6.10396
21
-8.97215
0
LINE
8
BLACK
6
CONTINUOUS
10
6.10396
20
-8.97215
11
5.71052
21
-9.13099
0
LINE
8
BLACK
6
CONTINUOUS
10
5.71052
20
-9.13099
11
5.71048
21
-9.13101
0
LINE
8
BLACK
6
CONTINUOUS
10
5.71048
20
-9.13101
11
5.71043
21
-9.13103
0
LINE
8
BLACK
6
CONTINUOUS
10
5.71043
20
-9.13103
11
5.71043
21
-9.13103
0
LINE
8
BLACK
6
CONTINUOUS
10
5.71043
20
-9.13103
11
5.71039
21
-9.13104
0
LINE
8
BLACK
6
CONTINUOUS
10
5.71039
20
-9.13104
11
5.7103
21
-9.13107
0
LINE
8
BLACK
6
CONTINUOUS
10
5.7103
20
-9.13107
11
5.71029
21
-9.13107
0
LINE
8
BLACK
6
CONTINUOUS
10
5.71029
20
-9.13107
11
5.71029
21
-9.13107
0
LINE
8
BLACK
6
CONTINUOUS
10
5.71029
20
-9.13107
11
5.7102
21
-9.13108
0
LINE
8
BLACK
6
CONTINUOUS
10
5.7102
20
-9.13108
11
5.71015
21
-9.13108
0
LINE
8
BLACK
6
CONTINUOUS
10
5.71015
20
-9.13108
11
5.71015
21
-9.13108
0
LINE
8
BLACK
6
CONTINUOUS
10
5.71015
20
-9.13108
11
5.71009
21
-9.13109
0
LINE
8
BLACK
6
CONTINUOUS
10
5.71009
20
-9.13109
11
5.71005
21
-9.13108
0
LINE
8
BLACK
6
CONTINUOUS
10
5.71005
20
-9.13108
11
5.57551
21
-9.13108
0
LINE
8
BLACK
6
CONTINUOUS
10
5.57551
20
-9.13108
11
5.57547
21
-9.13109
0
LINE
8
BLACK
6
CONTINUOUS
10
5.57547
20
-9.13109
11
5.57541
21
-9.13108
0
LINE
8
BLACK
6
CONTINUOUS
10
5.57541
20
-9.13108
11
5.57541
21
-9.13108
0
LINE
8
BLACK
6
CONTINUOUS
10
5.57541
20
-9.13108
11
5.57537
21
-9.13108
0
LINE
8
BLACK
6
CONTINUOUS
10
5.57537
20
-9.13108
11
5.57527
21
-9.13107
0
LINE
8
BLACK
6
CONTINUOUS
10
5.57527
20
-9.13107
11
5.57527
21
-9.13107
0
LINE
8
BLACK
6
CONTINUOUS
10
5.57527
20
-9.13107
11
5.57527
21
-9.13107
0
LINE
8
BLACK
6
CONTINUOUS
10
5.57527
20
-9.13107
11
5.57518
21
-9.13104
0
LINE
8
BLACK
6
CONTINUOUS
10
5.57518
20
-9.13104
11
5.57513
21
-9.13103
0
LINE
8
BLACK
6
CONTINUOUS
10
5.57513
20
-9.13103
11
5.57513
21
-9.13103
0
LINE
8
BLACK
6
CONTINUOUS
10
5.57513
20
-9.13103
11
5.57508
21
-9.13101
0
LINE
8
BLACK
6
CONTINUOUS
10
5.57508
20
-9.13101
11
5.57504
21
-9.13099
0
LINE
8
BLACK
6
CONTINUOUS
10
5.57504
20
-9.13099
11
5.18169
21
-8.97219
0
LINE
8
BLACK
6
CONTINUOUS
10
5.18169
20
-8.97219
11
5.18169
21
-8.97219
0
LINE
8
BLACK
6
CONTINUOUS
10
5.18169
20
-8.97219
11
5.18161
21
-8.97215
0
LINE
8
BLACK
6
CONTINUOUS
10
5.18161
20
-8.97215
11
5.18161
21
-8.97215
0
LINE
8
BLACK
6
CONTINUOUS
10
5.18161
20
-8.97215
11
4.1223
21
-8.54405
0
LINE
8
BLACK
6
CONTINUOUS
10
4.1223
20
-8.54405
11
4.12226
21
-8.54403
0
LINE
8
BLACK
6
CONTINUOUS
10
4.12226
20
-8.54403
11
4.12208
21
-8.54394
0
LINE
8
BLACK
6
CONTINUOUS
10
4.12208
20
-8.54394
11
4.12193
21
-8.54382
0
LINE
8
BLACK
6
CONTINUOUS
10
4.12193
20
-8.54382
11
4.12181
21
-8.54367
0
LINE
8
BLACK
6
CONTINUOUS
10
4.12181
20
-8.54367
11
4.12174
21
-8.54355
0
LINE
8
BLACK
6
CONTINUOUS
10
4.12174
20
-8.54355
11
4.12174
21
-8.54355
0
LINE
8
BLACK
6
CONTINUOUS
10
4.12174
20
-8.54355
11
4.12172
21
-8.5435
0
LINE
8
BLACK
6
CONTINUOUS
10
4.12172
20
-8.5435
11
4.1217
21
-8.54346
0
LINE
8
BLACK
6
CONTINUOUS
10
4.1217
20
-8.54346
11
4.04139
21
-8.35425
0
LINE
8
BLACK
6
CONTINUOUS
10
4.04139
20
-8.35425
11
3.34858
21
-8.07433
0
LINE
8
BLACK
6
CONTINUOUS
10
3.34858
20
-8.07433
11
3.09274
21
-8.18293
0
LINE
8
BLACK
6
CONTINUOUS
10
3.09274
20
-8.18293
11
3.0927
21
-8.18295
0
LINE
8
BLACK
6
CONTINUOUS
10
3.0927
20
-8.18295
11
3.09251
21
-8.18301
0
LINE
8
BLACK
6
CONTINUOUS
10
3.09251
20
-8.18301
11
3.09232
21
-8.18303
0
LINE
8
BLACK
6
CONTINUOUS
10
3.09232
20
-8.18303
11
3.09232
21
-8.18303
0
LINE
8
BLACK
6
CONTINUOUS
10
3.09232
20
-8.18303
11
3.0923
21
-8.18303
0
LINE
8
BLACK
6
CONTINUOUS
10
3.0923
20
-8.18303
11
3.09213
21
-8.18302
0
LINE
8
BLACK
6
CONTINUOUS
10
3.09213
20
-8.18302
11
3.09194
21
-8.18296
0
LINE
8
BLACK
6
CONTINUOUS
10
3.09194
20
-8.18296
11
3.0919
21
-8.18294
0
LINE
8
BLACK
6
CONTINUOUS
10
3.0919
20
-8.18294
11
2.58128
21
-7.97663
0
LINE
8
BLACK
6
CONTINUOUS
10
2.58128
20
-7.97663
11
2.53044
21
-7.99821
0
LINE
8
BLACK
6
CONTINUOUS
10
2.53044
20
-7.99821
11
2.5304
21
-7.99823
0
LINE
8
BLACK
6
CONTINUOUS
10
2.5304
20
-7.99823
11
2.53022
21
-7.99829
0
LINE
8
BLACK
6
CONTINUOUS
10
2.53022
20
-7.99829
11
2.53002
21
-7.99831
0
LINE
8
BLACK
6
CONTINUOUS
10
2.53002
20
-7.99831
11
2.52983
21
-7.99829
0
LINE
8
BLACK
6
CONTINUOUS
10
2.52983
20
-7.99829
11
2.52964
21
-7.99824
0
LINE
8
BLACK
6
CONTINUOUS
10
2.52964
20
-7.99824
11
2.5296
21
-7.99822
0
LINE
8
BLACK
6
CONTINUOUS
10
2.5296
20
-7.99822
11
1.25971
21
-7.48515
0
LINE
8
BLACK
6
CONTINUOUS
10
1.25971
20
-7.48515
11
1.14771
21
-7.53269
0
LINE
8
BLACK
6
CONTINUOUS
10
1.14771
20
-7.53269
11
0.0920339
21
-10.1456
0
LINE
8
BLACK
6
CONTINUOUS
10
0.0920339
20
-10.1456
11
0.139576
21
-10.2576
0
LINE
8
BLACK
6
CONTINUOUS
10
0.139576
20
-10.2576
11
0.672102
21
-10.4727
0
LINE
8
BLACK
6
CONTINUOUS
10
0.672102
20
-10.4727
11
0.672148
21
-10.4727
0
LINE
8
BLACK
6
CONTINUOUS
10
0.672148
20
-10.4727
11
0.672191
21
-10.4728
0
LINE
8
BLACK
6
CONTINUOUS
10
0.672191
20
-10.4728
11
0.672191
21
-10.4728
0
LINE
8
BLACK
6
CONTINUOUS
10
0.672191
20
-10.4728
11
0.67232
21
-10.4728
0
LINE
8
BLACK
6
CONTINUOUS
10
0.67232
20
-10.4728
11
0.672471
21
-10.473
0
LINE
8
BLACK
6
CONTINUOUS
10
0.672471
20
-10.473
11
0.672595
21
-10.4731
0
LINE
8
BLACK
6
CONTINUOUS
10
0.672595
20
-10.4731
11
0.672688
21
-10.4733
0
LINE
8
BLACK
6
CONTINUOUS
10
0.672688
20
-10.4733
11
0.672703
21
-10.4733
0
LINE
8
BLACK
6
CONTINUOUS
10
0.672703
20
-10.4733
11
0.720526
21
-10.586
0
LINE
8
BLACK
6
CONTINUOUS
10
0.720526
20
-10.586
11
0.759545
21
-10.6779
0
LINE
8
BLACK
6
CONTINUOUS
10
0.759545
20
-10.6779
11
1.14971
21
-10.8355
0
LINE
8
BLACK
6
CONTINUOUS
10
1.14971
20
-10.8355
11
1.14975
21
-10.8356
0
LINE
8
BLACK
6
CONTINUOUS
10
1.14975
20
-10.8356
11
1.1498
21
-10.8356
0
LINE
8
BLACK
6
CONTINUOUS
10
1.1498
20
-10.8356
11
1.1498
21
-10.8356
0
LINE
8
BLACK
6
CONTINUOUS
10
1.1498
20
-10.8356
11
1.14993
21
-10.8356
0
LINE
8
BLACK
6
CONTINUOUS
10
1.14993
20
-10.8356
11
1.15008
21
-10.8358
0
LINE
8
BLACK
6
CONTINUOUS
10
1.15008
20
-10.8358
11
1.1502
21
-10.8359
0
LINE
8
BLACK
6
CONTINUOUS
10
1.1502
20
-10.8359
11
1.15029
21
-10.8361
0
LINE
8
BLACK
6
CONTINUOUS
10
1.15029
20
-10.8361
11
1.15031
21
-10.8361
0
LINE
8
BLACK
6
CONTINUOUS
10
1.15031
20
-10.8361
11
1.23076
21
-11.0257
0
LINE
8
BLACK
6
CONTINUOUS
10
1.23076
20
-11.0257
11
1.23079
21
-11.0257
0
LINE
8
BLACK
6
CONTINUOUS
10
1.23079
20
-11.0257
11
1.23084
21
-11.0259
0
LINE
8
BLACK
6
CONTINUOUS
10
1.23084
20
-11.0259
11
1.23087
21
-11.0261
0
LINE
8
BLACK
6
CONTINUOUS
10
1.23087
20
-11.0261
11
1.23085
21
-11.0263
0
LINE
8
BLACK
6
CONTINUOUS
10
1.23085
20
-11.0263
11
1.23079
21
-11.0265
0
LINE
8
BLACK
6
CONTINUOUS
10
1.23079
20
-11.0265
11
1.23077
21
-11.0265
0
LINE
8
BLACK
6
CONTINUOUS
10
1.23077
20
-11.0265
11
1.09673
21
-11.3583
0
LINE
8
BLACK
6
CONTINUOUS
10
1.09673
20
-11.3583
11
1.12252
21
-11.419
0
LINE
8
BLACK
6
CONTINUOUS
10
1.12252
20
-11.419
11
2.60051
21
-12.0162
0
LINE
8
BLACK
6
CONTINUOUS
10
2.60051
20
-12.0162
11
2.60059
21
-12.0162
0
LINE
8
BLACK
6
CONTINUOUS
10
2.60059
20
-12.0162
11
2.60064
21
-12.0162
0
LINE
8
BLACK
6
CONTINUOUS
10
2.60064
20
-12.0162
11
2.6007
21
-12.0163
0
LINE
8
BLACK
6
CONTINUOUS
10
2.6007
20
-12.0163
11
2.60076
21
-12.0163
0
LINE
8
BLACK
6
CONTINUOUS
10
2.60076
20
-12.0163
11
4.34251
21
-13.3271
0
LINE
8
BLACK
6
CONTINUOUS
10
4.34251
20
-13.3271
11
6.94305
21
-13.3271
0
LINE
8
BLACK
6
CONTINUOUS
10
6.94305
20
-13.3271
11
8.6848
21
-12.0163
0
LINE
8
BLACK
6
CONTINUOUS
10
8.6848
20
-12.0163
11
8.68486
21
-12.0163
0
LINE
8
BLACK
6
CONTINUOUS
10
8.68486
20
-12.0163
11
8.68492
21
-12.0162
0
LINE
8
BLACK
6
CONTINUOUS
10
8.68492
20
-12.0162
11
8.68498
21
-12.0162
0
LINE
8
BLACK
6
CONTINUOUS
10
8.68498
20
-12.0162
11
8.68505
21
-12.0162
0
LINE
8
BLACK
6
CONTINUOUS
10
8.68505
20
-12.0162
11
10.163
21
-11.419
0
LINE
8
BLACK
6
CONTINUOUS
10
10.163
20
-11.419
11
10.1888
21
-11.3583
0
LINE
8
BLACK
6
CONTINUOUS
10
10.1888
20
-11.3583
11
10.0548
21
-11.0265
0
LINE
8
BLACK
6
CONTINUOUS
10
10.0548
20
-11.0265
11
10.0548
21
-11.0265
0
LINE
8
BLACK
6
CONTINUOUS
10
10.0548
20
-11.0265
11
10.0547
21
-11.0263
0
LINE
8
BLACK
6
CONTINUOUS
10
10.0547
20
-11.0263
11
10.0547
21
-11.0261
0
LINE
8
BLACK
6
CONTINUOUS
10
10.0547
20
-11.0261
11
10.0547
21
-11.0259
0
LINE
8
BLACK
6
CONTINUOUS
10
10.0547
20
-11.0259
11
10.0548
21
-11.0257
0
LINE
8
BLACK
6
CONTINUOUS
10
10.0548
20
-11.0257
11
10.0548
21
-11.0257
0
LINE
8
BLACK
6
CONTINUOUS
10
10.0548
20
-11.0257
11
10.1353
21
-10.8361
0
LINE
8
BLACK
6
CONTINUOUS
10
10.1353
20
-10.8361
11
10.1353
21
-10.8361
0
LINE
8
BLACK
6
CONTINUOUS
10
10.1353
20
-10.8361
11
10.1354
21
-10.8359
0
LINE
8
BLACK
6
CONTINUOUS
10
10.1354
20
-10.8359
11
10.1354
21
-10.8359
0
LINE
8
BLACK
6
CONTINUOUS
10
10.1354
20
-10.8359
11
10.1355
21
-10.8358
0
LINE
8
BLACK
6
CONTINUOUS
10
10.1355
20
-10.8358
11
10.1356
21
-10.8356
0
LINE
8
BLACK
6
CONTINUOUS
10
10.1356
20
-10.8356
11
10.1358
21
-10.8356
0
LINE
8
BLACK
6
CONTINUOUS
10
10.1358
20
-10.8356
11
10.1359
21
-10.8355
0
LINE
8
BLACK
6
CONTINUOUS
10
10.1359
20
-10.8355
11
10.526
21
-10.6779
0
LINE
8
BLACK
6
CONTINUOUS
10
10.526
20
-10.6779
11
10.565
21
-10.586
0
LINE
8
BLACK
6
CONTINUOUS
10
10.565
20
-10.586
11
10.565
21
-10.586
0
LINE
8
BLACK
6
CONTINUOUS
10
10.565
20
-10.586
11
10.6129
21
-10.4733
0
LINE
8
BLACK
6
CONTINUOUS
10
10.6129
20
-10.4733
11
10.6129
21
-10.4733
0
LINE
8
BLACK
6
CONTINUOUS
10
10.6129
20
-10.4733
11
10.613
21
-10.4731
0
LINE
8
BLACK
6
CONTINUOUS
10
10.613
20
-10.4731
11
10.613
21
-10.4731
0
LINE
8
BLACK
6
CONTINUOUS
10
10.613
20
-10.4731
11
10.6131
21
-10.473
0
LINE
8
BLACK
6
CONTINUOUS
10
10.6131
20
-10.473
11
10.6132
21
-10.4728
0
LINE
8
BLACK
6
CONTINUOUS
10
10.6132
20
-10.4728
11
10.6134
21
-10.4727
0
LINE
8
BLACK
6
CONTINUOUS
10
10.6134
20
-10.4727
11
10.6135
21
-10.4727
0
LINE
8
BLACK
6
CONTINUOUS
10
10.6135
20
-10.4727
11
11.146
21
-10.2576
0
LINE
8
BLACK
6
CONTINUOUS
10
11.146
20
-10.2576
11
11.1935
21
-10.1456
0
LINE
8
BLACK
6
CONTINUOUS
10
11.1935
20
-10.1456
11
10.1379
21
-7.53269
0
LINE
8
BLACK
6
CONTINUOUS
10
10.1379
20
-7.53269
11
10.0259
21
-7.48515
0
LINE
8
BLACK
6
CONTINUOUS
10
10.0259
20
-7.48515
11
8.75596
21
-7.99822
0
LINE
8
BLACK
6
CONTINUOUS
10
8.75596
20
-7.99822
11
8.75592
21
-7.99824
0
LINE
8
BLACK
6
CONTINUOUS
10
8.75592
20
-7.99824
11
8.75573
21
-7.99829
0
LINE
8
BLACK
6
CONTINUOUS
10
8.75573
20
-7.99829
11
8.75556
21
-7.99831
0
LINE
8
BLACK
6
CONTINUOUS
10
8.75556
20
-7.99831
11
8.75554
21
-7.99831
0
LINE
8
BLACK
6
CONTINUOUS
10
8.75554
20
-7.99831
11
8.75554
21
-7.99831
0
LINE
8
BLACK
6
CONTINUOUS
10
8.75554
20
-7.99831
11
8.75552
21
-7.99831
0
LINE
8
BLACK
6
CONTINUOUS
10
8.9354
20
-3.55257
11
8.93543
21
-3.55257
0
LINE
8
BLACK
6
CONTINUOUS
10
8.93543
20
-3.55257
11
8.93562
21
-3.55263
0
LINE
8
BLACK
6
CONTINUOUS
10
8.93562
20
-3.55263
11
8.93566
21
-3.55265
0
LINE
8
BLACK
6
CONTINUOUS
10
8.93566
20
-3.55265
11
9.1915
21
-3.66125
0
LINE
8
BLACK
6
CONTINUOUS
10
9.1915
20
-3.66125
11
9.68025
21
-3.46378
0
LINE
8
BLACK
6
CONTINUOUS
10
9.68025
20
-3.46378
11
9.68033
21
-3.46375
0
LINE
8
BLACK
6
CONTINUOUS
10
9.68033
20
-3.46375
11
9.68039
21
-3.46374
0
LINE
8
BLACK
6
CONTINUOUS
10
9.68039
20
-3.46374
11
9.68045
21
-3.46372
0
LINE
8
BLACK
6
CONTINUOUS
10
9.68045
20
-3.46372
11
9.68048
21
-3.46372
0
LINE
8
BLACK
6
CONTINUOUS
10
9.68048
20
-3.46372
11
9.68052
21
-3.46371
0
LINE
8
BLACK
6
CONTINUOUS
10
9.68052
20
-3.46371
11
9.68058
21
-3.46371
0
LINE
8
BLACK
6
CONTINUOUS
10
9.68058
20
-3.46371
11
9.68064
21
-3.4637
0
LINE
8
BLACK
6
CONTINUOUS
10
9.68064
20
-3.4637
11
9.68068
21
-3.4637
0
LINE
8
BLACK
6
CONTINUOUS
10
9.68068
20
-3.4637
11
9.68071
21
-3.4637
0
LINE
8
BLACK
6
CONTINUOUS
10
9.68071
20
-3.4637
11
9.68077
21
-3.46371
0
LINE
8
BLACK
6
CONTINUOUS
10
9.68077
20
-3.46371
11
9.68084
21
-3.46372
0
LINE
8
BLACK
6
CONTINUOUS
10
9.68084
20
-3.46372
11
9.68091
21
-3.46375
0
LINE
8
BLACK
6
CONTINUOUS
10
9.68091
20
-3.46375
11
10.0401
21
-3.56483
0
LINE
8
BLACK
6
CONTINUOUS
10
10.0401
20
-3.56483
11
10.0402
21
-3.56483
0
LINE
8
BLACK
6
CONTINUOUS
10
10.0402
20
-3.56483
11
10.0402
21
-3.56485
0
LINE
8
BLACK
6
CONTINUOUS
10
10.0402
20
-3.56485
11
10.0403
21
-3.56486
0
LINE
8
BLACK
6
CONTINUOUS
10
10.0403
20
-3.56486
11
10.0403
21
-3.56487
0
LINE
8
BLACK
6
CONTINUOUS
10
10.0403
20
-3.56487
11
10.0403
21
-3.56489
0
LINE
8
BLACK
6
CONTINUOUS
10
10.0403
20
-3.56489
11
10.0404
21
-3.5649
0
LINE
8
BLACK
6
CONTINUOUS
10
10.0404
20
-3.5649
11
10.0404
21
-3.56492
0
LINE
8
BLACK
6
CONTINUOUS
10
10.0404
20
-3.56492
11
10.0405
21
-3.56495
0
LINE
8
BLACK
6
CONTINUOUS
10
10.0405
20
-3.56495
11
10.0405
21
-3.56498
0
LINE
8
BLACK
6
CONTINUOUS
10
10.0405
20
-3.56498
11
10.0405
21
-3.565
0
LINE
8
BLACK
6
CONTINUOUS
10
10.0405
20
-3.565
11
10.0406
21
-3.56502
0
LINE
8
BLACK
6
CONTINUOUS
10
10.0406
20
-3.56502
11
10.0406
21
-3.56506
0
LINE
8
BLACK
6
CONTINUOUS
10
10.0406
20
-3.56506
11
10.0407
21
-3.5651
0
LINE
8
BLACK
6
CONTINUOUS
10
10.0407
20
-3.5651
11
10.0407
21
-3.56513
0
LINE
8
BLACK
6
CONTINUOUS
10
10.0407
20
-3.56513
11
10.0407
21
-3.56515
0
LINE
8
BLACK
6
CONTINUOUS
10
10.0407
20
-3.56515
11
10.0407
21
-3.56521
0
LINE
8
BLACK
6
CONTINUOUS
10
10.0407
20
-3.56521
11
10.0408
21
-3.56525
0
LINE
8
BLACK
6
CONTINUOUS
10
10.0408
20
-3.56525
11
10.0408
21
-3.56528
0
LINE
8
BLACK
6
CONTINUOUS
10
10.0408
20
-3.56528
11
10.0408
21
-3.56531
0
LINE
8
BLACK
6
CONTINUOUS
10
10.0408
20
-3.56531
11
10.0408
21
-3.56537
0
LINE
8
BLACK
6
CONTINUOUS
10
10.0408
20
-3.56537
11
10.0408
21
-3.56538
0
LINE
8
BLACK
6
CONTINUOUS
10
10.0408
20
-3.56538
11
10.0409
21
-3.56542
0
LINE
8
BLACK
6
CONTINUOUS
10
10.0409
20
-3.56542
11
10.0409
21
-3.56549
0
LINE
8
BLACK
6
CONTINUOUS
10
10.0409
20
-3.56549
11
10.0409
21
-3.5655
0
LINE
8
BLACK
6
CONTINUOUS
10
10.0409
20
-3.5655
11
10.0526
21
-3.59459
0
LINE
8
BLACK
6
CONTINUOUS
10
10.0526
20
-3.59459
11
10.0526
21
-3.59459
0
LINE
8
BLACK
6
CONTINUOUS
10
10.0526
20
-3.59459
11
10.1869
21
-3.92677
0
LINE
8
BLACK
6
CONTINUOUS
10
10.1869
20
-3.92677
11
10.1869
21
-3.92681
0
LINE
8
BLACK
6
CONTINUOUS
10
10.1869
20
-3.92681
11
10.1869
21
-3.927
0
LINE
8
BLACK
6
CONTINUOUS
10
10.1869
20
-3.927
11
10.1869
21
-3.92719
0
LINE
8
BLACK
6
CONTINUOUS
10
10.1869
20
-3.92719
11
10.1869
21
-3.92738
0
LINE
8
BLACK
6
CONTINUOUS
10
10.1869
20
-3.92738
11
10.1869
21
-3.92757
0
LINE
8
BLACK
6
CONTINUOUS
10
10.1869
20
-3.92757
11
10.1868
21
-3.92761
0
LINE
8
BLACK
6
CONTINUOUS
10
10.1868
20
-3.92761
11
10.1608
21
-3.98902
0
LINE
8
BLACK
6
CONTINUOUS
10
10.1608
20
-3.98902
11
10.1608
21
-3.98907
0
LINE
8
BLACK
6
CONTINUOUS
10
10.1608
20
-3.98907
11
10.1607
21
-3.98924
0
LINE
8
BLACK
6
CONTINUOUS
10
10.1607
20
-3.98924
11
10.1605
21
-3.98939
0
LINE
8
BLACK
6
CONTINUOUS
10
10.1605
20
-3.98939
11
10.1604
21
-3.98951
0
LINE
8
BLACK
6
CONTINUOUS
10
10.1604
20
-3.98951
11
10.1603
21
-3.98958
0
LINE
8
BLACK
6
CONTINUOUS
10
10.1603
20
-3.98958
11
10.1603
21
-3.98958
0
LINE
8
BLACK
6
CONTINUOUS
10
10.1603
20
-3.98958
11
10.1602
21
-3.9896
0
LINE
8
BLACK
6
CONTINUOUS
10
10.1602
20
-3.9896
11
10.1602
21
-3.98961
0
LINE
8
BLACK
6
CONTINUOUS
10
10.1602
20
-3.98961
11
8.68196
21
-4.58685
0
LINE
8
BLACK
6
CONTINUOUS
10
8.68196
20
-4.58685
11
6.94005
21
-5.89779
0
LINE
8
BLACK
6
CONTINUOUS
10
6.94005
20
-5.89779
11
6.93999
21
-5.89784
0
LINE
8
BLACK
6
CONTINUOUS
10
6.93999
20
-5.89784
11
6.93993
21
-5.89787
0
LINE
8
BLACK
6
CONTINUOUS
10
6.93993
20
-5.89787
11
6.93987
21
-5.89791
0
LINE
8
BLACK
6
CONTINUOUS
10
6.93987
20
-5.89791
11
6.93984
21
-5.89792
0
LINE
8
BLACK
6
CONTINUOUS
10
6.93984
20
-5.89792
11
6.93982
21
-5.89793
0
LINE
8
BLACK
6
CONTINUOUS
10
6.93982
20
-5.89793
11
6.93975
21
-5.89795
0
LINE
8
BLACK
6
CONTINUOUS
10
6.93975
20
-5.89795
11
6.93969
21
-5.89798
0
LINE
8
BLACK
6
CONTINUOUS
10
6.93969
20
-5.89798
11
6.93966
21
-5.89798
0
LINE
8
BLACK
6
CONTINUOUS
10
6.93966
20
-5.89798
11
6.93963
21
-5.89799
0
LINE
8
BLACK
6
CONTINUOUS
10
6.93963
20
-5.89799
11
6.93957
21
-5.89799
0
LINE
8
BLACK
6
CONTINUOUS
10
6.93957
20
-5.89799
11
6.9395
21
-5.89801
0
LINE
8
BLACK
6
CONTINUOUS
10
6.9395
20
-5.89801
11
6.93942
21
-5.898
0
LINE
8
BLACK
6
CONTINUOUS
10
6.93942
20
-5.898
11
4.33827
21
-5.898
0
LINE
8
BLACK
6
CONTINUOUS
10
4.33827
20
-5.898
11
4.33819
21
-5.89801
0
LINE
8
BLACK
6
CONTINUOUS
10
4.33819
20
-5.89801
11
4.33812
21
-5.89799
0
LINE
8
BLACK
6
CONTINUOUS
10
4.33812
20
-5.89799
11
4.33805
21
-5.89799
0
LINE
8
BLACK
6
CONTINUOUS
10
4.33805
20
-5.89799
11
4.33803
21
-5.89798
0
LINE
8
BLACK
6
CONTINUOUS
10
4.33803
20
-5.89798
11
4.338
21
-5.89798
0
LINE
8
BLACK
6
CONTINUOUS
10
4.338
20
-5.89798
11
4.33793
21
-5.89795
0
LINE
8
BLACK
6
CONTINUOUS
10
4.33793
20
-5.89795
11
4.33787
21
-5.89793
0
LINE
8
BLACK
6
CONTINUOUS
10
4.33787
20
-5.89793
11
4.33784
21
-5.89792
0
LINE
8
BLACK
6
CONTINUOUS
10
4.33784
20
-5.89792
11
4.33782
21
-5.89791
0
LINE
8
BLACK
6
CONTINUOUS
10
4.33782
20
-5.89791
11
4.33776
21
-5.89787
0
LINE
8
BLACK
6
CONTINUOUS
10
4.33776
20
-5.89787
11
4.3377
21
-5.89784
0
LINE
8
BLACK
6
CONTINUOUS
10
4.3377
20
-5.89784
11
4.33764
21
-5.89779
0
LINE
8
BLACK
6
CONTINUOUS
10
4.33764
20
-5.89779
11
2.59573
21
-4.58685
0
LINE
8
BLACK
6
CONTINUOUS
10
2.59573
20
-4.58685
11
1.11751
21
-3.98961
0
LINE
8
BLACK
6
CONTINUOUS
10
1.11751
20
-3.98961
11
1.11747
21
-3.9896
0
LINE
8
BLACK
6
CONTINUOUS
10
1.11747
20
-3.9896
11
1.11729
21
-3.98951
0
LINE
8
BLACK
6
CONTINUOUS
10
1.11729
20
-3.98951
11
1.11714
21
-3.98939
0
LINE
8
BLACK
6
CONTINUOUS
10
1.11714
20
-3.98939
11
1.11702
21
-3.98924
0
LINE
8
BLACK
6
CONTINUOUS
10
1.11702
20
-3.98924
11
1.11695
21
-3.98911
0
LINE
8
BLACK
6
CONTINUOUS
10
1.11695
20
-3.98911
11
1.11695
21
-3.98911
0
LINE
8
BLACK
6
CONTINUOUS
10
1.11695
20
-3.98911
11
1.11693
21
-3.98907
0
LINE
8
BLACK
6
CONTINUOUS
10
1.11693
20
-3.98907
11
1.11691
21
-3.98902
0
LINE
8
BLACK
6
CONTINUOUS
10
1.11691
20
-3.98902
11
1.09084
21
-3.92761
0
LINE
8
BLACK
6
CONTINUOUS
10
1.09084
20
-3.92761
11
1.09082
21
-3.92757
0
LINE
8
BLACK
6
CONTINUOUS
10
1.09082
20
-3.92757
11
1.09076
21
-3.92738
0
LINE
8
BLACK
6
CONTINUOUS
10
1.09076
20
-3.92738
11
1.09074
21
-3.92719
0
LINE
8
BLACK
6
CONTINUOUS
10
1.09074
20
-3.92719
11
1.09076
21
-3.927
0
LINE
8
BLACK
6
CONTINUOUS
10
1.09076
20
-3.927
11
1.09081
21
-3.92681
0
LINE
8
BLACK
6
CONTINUOUS
10
1.09081
20
-3.92681
11
1.09084
21
-3.92677
0
LINE
8
BLACK
6
CONTINUOUS
10
1.09084
20
-3.92677
11
1.22505
21
-3.59459
0
LINE
8
BLACK
6
CONTINUOUS
10
1.22505
20
-3.59459
11
1.22505
21
-3.59459
0
LINE
8
BLACK
6
CONTINUOUS
10
1.22505
20
-3.59459
11
1.23679
21
-3.5655
0
LINE
8
BLACK
6
CONTINUOUS
10
1.23679
20
-3.5655
11
1.2368
21
-3.56549
0
LINE
8
BLACK
6
CONTINUOUS
10
1.2368
20
-3.56549
11
1.23683
21
-3.56542
0
LINE
8
BLACK
6
CONTINUOUS
10
1.23683
20
-3.56542
11
1.23684
21
-3.56538
0
LINE
8
BLACK
6
CONTINUOUS
10
1.23684
20
-3.56538
11
1.23685
21
-3.56537
0
LINE
8
BLACK
6
CONTINUOUS
10
1.23685
20
-3.56537
11
1.23688
21
-3.56531
0
LINE
8
BLACK
6
CONTINUOUS
10
1.23688
20
-3.56531
11
1.2369
21
-3.56529
0
LINE
8
BLACK
6
CONTINUOUS
10
1.2369
20
-3.56529
11
1.23691
21
-3.56525
0
LINE
8
BLACK
6
CONTINUOUS
10
1.23691
20
-3.56525
11
1.23695
21
-3.56521
0
LINE
8
BLACK
6
CONTINUOUS
10
1.23695
20
-3.56521
11
1.23699
21
-3.56515
0
LINE
8
BLACK
6
CONTINUOUS
10
1.23699
20
-3.56515
11
1.23701
21
-3.56513
0
LINE
8
BLACK
6
CONTINUOUS
10
1.23701
20
-3.56513
11
1.23703
21
-3.5651
0
LINE
8
BLACK
6
CONTINUOUS
10
1.23703
20
-3.5651
11
1.23708
21
-3.56506
0
LINE
8
BLACK
6
CONTINUOUS
10
1.23708
20
-3.56506
11
1.23713
21
-3.56502
0
LINE
8
BLACK
6
CONTINUOUS
10
1.23713
20
-3.56502
11
1.23716
21
-3.565
0
LINE
8
BLACK
6
CONTINUOUS
10
1.23716
20
-3.565
11
1.23718
21
-3.56498
0
LINE
8
BLACK
6
CONTINUOUS
10
1.23718
20
-3.56498
11
1.23724
21
-3.56495
0
LINE
8
BLACK
6
CONTINUOUS
10
1.23724
20
-3.56495
11
1.23729
21
-3.56492
0
LINE
8
BLACK
6
CONTINUOUS
10
1.23729
20
-3.56492
11
1.23732
21
-3.5649
0
LINE
8
BLACK
6
CONTINUOUS
10
1.23732
20
-3.5649
11
1.23735
21
-3.56489
0
LINE
8
BLACK
6
CONTINUOUS
10
1.23735
20
-3.56489
11
1.23741
21
-3.56487
0
LINE
8
BLACK
6
CONTINUOUS
10
1.23741
20
-3.56487
11
1.23743
21
-3.56486
0
LINE
8
BLACK
6
CONTINUOUS
10
1.23743
20
-3.56486
11
1.23746
21
-3.56485
0
LINE
8
BLACK
6
CONTINUOUS
10
1.23746
20
-3.56485
11
1.23754
21
-3.56483
0
LINE
8
BLACK
6
CONTINUOUS
10
1.23754
20
-3.56483
11
1.23755
21
-3.56483
0
LINE
8
BLACK
6
CONTINUOUS
10
1.23755
20
-3.56483
11
1.59677
21
-3.46375
0
LINE
8
BLACK
6
CONTINUOUS
10
1.59677
20
-3.46375
11
1.59685
21
-3.46372
0
LINE
8
BLACK
6
CONTINUOUS
10
1.59685
20
-3.46372
11
1.59691
21
-3.46371
0
LINE
8
BLACK
6
CONTINUOUS
10
1.59691
20
-3.46371
11
1.59698
21
-3.4637
0
LINE
8
BLACK
6
CONTINUOUS
10
1.59698
20
-3.4637
11
1.59701
21
-3.4637
0
LINE
8
BLACK
6
CONTINUOUS
10
1.59701
20
-3.4637
11
1.59704
21
-3.4637
0
LINE
8
BLACK
6
CONTINUOUS
10
1.59704
20
-3.4637
11
1.59711
21
-3.46371
0
LINE
8
BLACK
6
CONTINUOUS
10
1.59711
20
-3.46371
11
1.59717
21
-3.46371
0
LINE
8
BLACK
6
CONTINUOUS
10
1.59717
20
-3.46371
11
1.5972
21
-3.46372
0
LINE
8
BLACK
6
CONTINUOUS
10
1.5972
20
-3.46372
11
1.59724
21
-3.46372
0
LINE
8
BLACK
6
CONTINUOUS
10
1.59724
20
-3.46372
11
1.5973
21
-3.46374
0
LINE
8
BLACK
6
CONTINUOUS
10
1.5973
20
-3.46374
11
1.59736
21
-3.46375
0
LINE
8
BLACK
6
CONTINUOUS
10
1.59736
20
-3.46375
11
1.59744
21
-3.46378
0
LINE
8
BLACK
6
CONTINUOUS
10
1.59744
20
-3.46378
11
2.08619
21
-3.66125
0
LINE
8
BLACK
6
CONTINUOUS
10
2.08619
20
-3.66125
11
2.34203
21
-3.55265
0
LINE
8
BLACK
6
CONTINUOUS
10
2.34203
20
-3.55265
11
2.34207
21
-3.55263
0
LINE
8
BLACK
6
CONTINUOUS
10
2.34207
20
-3.55263
11
2.34225
21
-3.55257
0
LINE
8
BLACK
6
CONTINUOUS
10
2.34225
20
-3.55257
11
2.34243
21
-3.55255
0
LINE
8
BLACK
6
CONTINUOUS
10
2.34243
20
-3.55255
11
2.34245
21
-3.55255
0
LINE
8
BLACK
6
CONTINUOUS
10
2.34245
20
-3.55255
11
2.34245
21
-3.55255
0
LINE
8
BLACK
6
CONTINUOUS
10
2.34245
20
-3.55255
11
2.34246
21
-3.55255
0
LINE
8
BLACK
6
CONTINUOUS
10
2.34246
20
-3.55255
11
2.34264
21
-3.55257
0
LINE
8
BLACK
6
CONTINUOUS
10
2.34264
20
-3.55257
11
2.34283
21
-3.55262
0
LINE
8
BLACK
6
CONTINUOUS
10
2.34283
20
-3.55262
11
2.34287
21
-3.55265
0
LINE
8
BLACK
6
CONTINUOUS
10
2.34287
20
-3.55265
11
2.87902
21
-3.76927
0
LINE
8
BLACK
6
CONTINUOUS
10
2.87902
20
-3.76927
11
2.93101
21
-3.74421
0
LINE
8
BLACK
6
CONTINUOUS
10
2.93101
20
-3.74421
11
3.96913
21
-1.17478
0
LINE
8
BLACK
6
CONTINUOUS
10
3.96913
20
-1.17478
11
3.96914
21
-1.17473
0
LINE
8
BLACK
6
CONTINUOUS
10
3.96914
20
-1.17473
11
3.96923
21
-1.17456
0
LINE
8
BLACK
6
CONTINUOUS
10
3.96923
20
-1.17456
11
3.96924
21
-1.17455
0
LINE
8
BLACK
6
CONTINUOUS
10
3.96924
20
-1.17455
11
3.96935
21
-1.17441
0
LINE
8
BLACK
6
CONTINUOUS
10
3.96935
20
-1.17441
11
3.9695
21
-1.17429
0
LINE
8
BLACK
6
CONTINUOUS
10
3.9695
20
-1.17429
11
3.96967
21
-1.17419
0
LINE
8
BLACK
6
CONTINUOUS
10
3.96967
20
-1.17419
11
3.96972
21
-1.17418
0
LINE
8
BLACK
6
CONTINUOUS
10
3.96972
20
-1.17418
11
4.11826
21
-1.11113
0
LINE
8
BLACK
6
CONTINUOUS
10
4.11826
20
-1.11113
11
4.1183
21
-1.1111
0
LINE
8
BLACK
6
CONTINUOUS
10
4.1183
20
-1.1111
11
4.11842
21
-1.11107
0
LINE
8
BLACK
6
CONTINUOUS
10
4.11842
20
-1.11107
11
4.11849
21
-1.11105
0
LINE
8
BLACK
6
CONTINUOUS
10
4.11849
20
-1.11105
11
4.11849
21
-1.11105
0
LINE
8
BLACK
6
CONTINUOUS
10
4.11849
20
-1.11105
11
4.11849
21
-1.11105
0
LINE
8
BLACK
6
CONTINUOUS
10
4.11849
20
-1.11105
11
4.1186
21
-1.11103
0
LINE
8
BLACK
6
CONTINUOUS
10
4.1186
20
-1.11103
11
4.11868
21
-1.11103
0
LINE
8
BLACK
6
CONTINUOUS
10
4.11868
20
-1.11103
11
4.11868
21
-1.11103
0
LINE
8
BLACK
6
CONTINUOUS
10
4.11868
20
-1.11103
11
4.11874
21
-1.11103
0
LINE
8
BLACK
6
CONTINUOUS
10
4.11874
20
-1.11103
11
4.11887
21
-1.11104
0
LINE
8
BLACK
6
CONTINUOUS
10
4.11887
20
-1.11104
11
4.11906
21
-1.1111
0
LINE
8
BLACK
6
CONTINUOUS
10
4.11906
20
-1.1111
11
4.1191
21
-1.11112
0
LINE
8
BLACK
6
CONTINUOUS
10
4.1191
20
-1.11112
11
5.17837
21
-1.53921
0
LINE
8
BLACK
6
CONTINUOUS
10
5.17837
20
-1.53921
11
5.17839
21
-1.53922
0
LINE
8
BLACK
6
CONTINUOUS
10
5.17839
20
-1.53922
11
5.17846
21
-1.53925
0
LINE
8
BLACK
6
CONTINUOUS
10
5.17846
20
-1.53925
11
5.17849
21
-1.53926
0
LINE
8
BLACK
6
CONTINUOUS
10
5.17849
20
-1.53926
11
5.17851
21
-1.53927
0
LINE
8
BLACK
6
CONTINUOUS
10
5.17851
20
-1.53927
11
5.17852
21
-1.53928
0
LINE
8
BLACK
6
CONTINUOUS
10
5.17852
20
-1.53928
11
5.17855
21
-1.53929
0
LINE
8
BLACK
6
CONTINUOUS
10
5.17855
20
-1.53929
11
5.17862
21
-1.53933
0
LINE
8
BLACK
6
CONTINUOUS
10
5.17862
20
-1.53933
11
5.17864
21
-1.53934
0
LINE
8
BLACK
6
CONTINUOUS
10
5.17864
20
-1.53934
11
5.30454
21
-1.61016
0
LINE
8
BLACK
6
CONTINUOUS
10
5.30454
20
-1.61016
11
5.30462
21
-1.6102
0
LINE
8
BLACK
6
CONTINUOUS
10
5.30462
20
-1.6102
11
5.30466
21
-1.61024
0
LINE
8
BLACK
6
CONTINUOUS
10
5.30466
20
-1.61024
11
5.30471
21
-1.61027
0
LINE
8
BLACK
6
CONTINUOUS
10
5.30471
20
-1.61027
11
5.30474
21
-1.6103
0
LINE
8
BLACK
6
CONTINUOUS
10
5.30474
20
-1.6103
11
5.30476
21
-1.61032
0
LINE
8
BLACK
6
CONTINUOUS
10
5.30476
20
-1.61032
11
5.3048
21
-1.61037
0
LINE
8
BLACK
6
CONTINUOUS
10
5.3048
20
-1.61037
11
5.30484
21
-1.61041
0
LINE
8
BLACK
6
CONTINUOUS
10
5.30484
20
-1.61041
11
5.30486
21
-1.61044
0
LINE
8
BLACK
6
CONTINUOUS
10
5.30486
20
-1.61044
11
5.30489
21
-1.61047
0
LINE
8
BLACK
6
CONTINUOUS
10
5.30489
20
-1.61047
11
5.30492
21
-1.61053
0
LINE
8
BLACK
6
CONTINUOUS
10
5.30492
20
-1.61053
11
5.30495
21
-1.61058
0
LINE
8
BLACK
6
CONTINUOUS
10
5.30495
20
-1.61058
11
5.30496
21
-1.61061
0
LINE
8
BLACK
6
CONTINUOUS
10
5.30496
20
-1.61061
11
5.30498
21
-1.61065
0
LINE
8
BLACK
6
CONTINUOUS
10
5.30498
20
-1.61065
11
5.305
21
-1.6107
0
LINE
8
BLACK
6
CONTINUOUS
10
5.305
20
-1.6107
11
5.30502
21
-1.61076
0
LINE
8
BLACK
6
CONTINUOUS
10
5.30502
20
-1.61076
11
5.30502
21
-1.61079
0
LINE
8
BLACK
6
CONTINUOUS
10
5.30502
20
-1.61079
11
5.30504
21
-1.61083
0
LINE
8
BLACK
6
CONTINUOUS
10
5.30504
20
-1.61083
11
5.30504
21
-1.61089
0
LINE
8
BLACK
6
CONTINUOUS
10
5.30504
20
-1.61089
11
5.30505
21
-1.61095
0
LINE
8
BLACK
6
CONTINUOUS
10
5.30505
20
-1.61095
11
5.30505
21
-1.61103
0
LINE
8
BLACK
6
CONTINUOUS
10
5.30505
20
-1.61103
11
5.30505
21
-2.5555
0
LINE
8
BLACK
6
CONTINUOUS
10
5.30505
20
-2.5555
11
5.39096
21
-2.64154
0
LINE
8
BLACK
6
CONTINUOUS
10
5.39096
20
-2.64154
11
5.8866
21
-2.64154
0
LINE
8
BLACK
6
CONTINUOUS
10
5.8866
20
-2.64154
11
5.97264
21
-2.5555
0
LINE
8
BLACK
6
CONTINUOUS
10
5.97264
20
-2.5555
11
5.97264
21
-1.61103
0
LINE
8
BLACK
6
CONTINUOUS
10
5.97264
20
-1.61103
11
5.97264
21
-1.61095
0
LINE
8
BLACK
6
CONTINUOUS
10
5.97264
20
-1.61095
11
5.97265
21
-1.61089
0
LINE
8
BLACK
6
CONTINUOUS
10
5.97265
20
-1.61089
11
5.97265
21
-1.61083
0
LINE
8
BLACK
6
CONTINUOUS
10
5.97265
20
-1.61083
11
5.97266
21
-1.61079
0
LINE
8
BLACK
6
CONTINUOUS
10
5.97266
20
-1.61079
11
5.97267
21
-1.61076
0
LINE
8
BLACK
6
CONTINUOUS
10
5.97267
20
-1.61076
11
5.97269
21
-1.6107
0
LINE
8
BLACK
6
CONTINUOUS
10
5.97269
20
-1.6107
11
5.97271
21
-1.61065
0
LINE
8
BLACK
6
CONTINUOUS
10
5.97271
20
-1.61065
11
5.97273
21
-1.61061
0
LINE
8
BLACK
6
CONTINUOUS
10
5.97273
20
-1.61061
11
5.97274
21
-1.61058
0
LINE
8
BLACK
6
CONTINUOUS
10
5.97274
20
-1.61058
11
5.97277
21
-1.61053
0
LINE
8
BLACK
6
CONTINUOUS
10
5.97277
20
-1.61053
11
5.9728
21
-1.61047
0
LINE
8
BLACK
6
CONTINUOUS
10
5.9728
20
-1.61047
11
5.97282
21
-1.61044
0
LINE
8
BLACK
6
CONTINUOUS
10
5.97282
20
-1.61044
11
5.97284
21
-1.61041
0
LINE
8
BLACK
6
CONTINUOUS
10
5.97284
20
-1.61041
11
5.97288
21
-1.61037
0
LINE
8
BLACK
6
CONTINUOUS
10
5.97288
20
-1.61037
11
5.97292
21
-1.61032
0
LINE
8
BLACK
6
CONTINUOUS
10
5.97292
20
-1.61032
11
5.97295
21
-1.6103
0
LINE
8
BLACK
6
CONTINUOUS
10
5.97295
20
-1.6103
11
5.97298
21
-1.61027
0
LINE
8
BLACK
6
CONTINUOUS
10
5.97298
20
-1.61027
11
5.97303
21
-1.61024
0
LINE
8
BLACK
6
CONTINUOUS
10
5.97303
20
-1.61024
11
5.97307
21
-1.6102
0
LINE
8
BLACK
6
CONTINUOUS
10
5.97307
20
-1.6102
11
5.97315
21
-1.61016
0
LINE
8
BLACK
6
CONTINUOUS
10
5.97315
20
-1.61016
11
6.09905
21
-1.53934
0
LINE
8
BLACK
6
CONTINUOUS
10
6.09905
20
-1.53934
11
6.09906
21
-1.53933
0
LINE
8
BLACK
6
CONTINUOUS
10
6.09906
20
-1.53933
11
6.09914
21
-1.53929
0
LINE
8
BLACK
6
CONTINUOUS
10
6.09914
20
-1.53929
11
6.09917
21
-1.53928
0
LINE
8
BLACK
6
CONTINUOUS
10
6.09917
20
-1.53928
11
6.09918
21
-1.53927
0
LINE
8
BLACK
6
CONTINUOUS
10
6.09918
20
-1.53927
11
6.09919
21
-1.53926
0
LINE
8
BLACK
6
CONTINUOUS
10
6.09919
20
-1.53926
11
6.09923
21
-1.53925
0
LINE
8
BLACK
6
CONTINUOUS
10
6.09923
20
-1.53925
11
6.0993
21
-1.53922
0
LINE
8
BLACK
6
CONTINUOUS
10
6.0993
20
-1.53922
11
6.09931
21
-1.53921
0
LINE
8
BLACK
6
CONTINUOUS
10
6.09931
20
-1.53921
11
7.15858
21
-1.11112
0
LINE
8
BLACK
6
CONTINUOUS
10
7.15858
20
-1.11112
11
7.15863
21
-1.1111
0
LINE
8
BLACK
6
CONTINUOUS
10
7.15863
20
-1.1111
11
7.15881
21
-1.11104
0
LINE
8
BLACK
6
CONTINUOUS
10
7.15881
20
-1.11104
11
7.15897
21
-1.11103
0
LINE
8
BLACK
6
CONTINUOUS
10
7.15897
20
-1.11103
11
7.15901
21
-1.11103
0
LINE
8
BLACK
6
CONTINUOUS
10
7.15901
20
-1.11103
11
7.15901
21
-1.11103
0
LINE
8
BLACK
6
CONTINUOUS
10
7.15901
20
-1.11103
11
7.15905
21
-1.11103
0
LINE
8
BLACK
6
CONTINUOUS
10
7.15905
20
-1.11103
11
7.1592
21
-1.11105
0
LINE
8
BLACK
6
CONTINUOUS
10
7.1592
20
-1.11105
11
7.15938
21
-1.1111
0
LINE
8
BLACK
6
CONTINUOUS
10
7.15938
20
-1.1111
11
7.15943
21
-1.11113
0
LINE
8
BLACK
6
CONTINUOUS
10
7.15943
20
-1.11113
11
7.30797
21
-1.17418
0
LINE
8
BLACK
6
CONTINUOUS
10
7.30797
20
-1.17418
11
7.30801
21
-1.17419
0
LINE
8
BLACK
6
CONTINUOUS
10
7.30801
20
-1.17419
11
7.30818
21
-1.17429
0
LINE
8
BLACK
6
CONTINUOUS
10
7.30818
20
-1.17429
11
7.30825
21
-1.17434
0
LINE
8
BLACK
6
CONTINUOUS
10
7.30825
20
-1.17434
11
7.30833
21
-1.17441
0
LINE
8
BLACK
6
CONTINUOUS
10
7.30833
20
-1.17441
11
7.30845
21
-1.17456
0
LINE
8
BLACK
6
CONTINUOUS
10
7.30845
20
-1.17456
11
7.30854
21
-1.17473
0
LINE
8
BLACK
6
CONTINUOUS
10
7.30854
20
-1.17473
11
7.30856
21
-1.17478
0
LINE
8
BLACK
6
CONTINUOUS
10
7.30856
20
-1.17478
11
8.34668
21
-3.74422
0
LINE
8
BLACK
6
CONTINUOUS
10
8.34668
20
-3.74422
11
8.39867
21
-3.76927
0
LINE
8
BLACK
6
CONTINUOUS
10
8.39867
20
-3.76927
11
8.93482
21
-3.55265
0
LINE
8
BLACK
6
CONTINUOUS
10
8.93482
20
-3.55265
11
8.93486
21
-3.55262
0
LINE
8
BLACK
6
CONTINUOUS
10
8.93486
20
-3.55262
11
8.93505
21
-3.55257
0
LINE
8
BLACK
6
CONTINUOUS
10
8.93505
20
-3.55257
11
8.93522
21
-3.55255
0
LINE
8
BLACK
6
CONTINUOUS
10
8.93522
20
-3.55255
11
8.93524
21
-3.55255
0
LINE
8
BLACK
6
CONTINUOUS
10
8.93524
20
-3.55255
11
8.93524
21
-3.55255
0
LINE
8
BLACK
6
CONTINUOUS
10
8.93524
20
-3.55255
11
8.9354
21
-3.55257
0
LINE
8
BLACK
6
CONTINUOUS
10
9.19146
20
-3.6633
11
9.19129
21
-3.66329
0
LINE
8
BLACK
6
CONTINUOUS
10
9.19129
20
-3.66329
11
9.1911
21
-3.66323
0
LINE
8
BLACK
6
CONTINUOUS
10
9.1911
20
-3.66323
11
9.19106
21
-3.6632
0
LINE
8
BLACK
6
CONTINUOUS
10
9.19106
20
-3.6632
11
8.93522
21
-3.55461
0
LINE
8
BLACK
6
CONTINUOUS
10
8.93522
20
-3.55461
11
8.39903
21
-3.77125
0
LINE
8
BLACK
6
CONTINUOUS
10
8.39903
20
-3.77125
11
8.39896
21
-3.77128
0
LINE
8
BLACK
6
CONTINUOUS
10
8.39896
20
-3.77128
11
8.39889
21
-3.77129
0
LINE
8
BLACK
6
CONTINUOUS
10
8.39889
20
-3.77129
11
8.39882
21
-3.77131
0
LINE
8
BLACK
6
CONTINUOUS
10
8.39882
20
-3.77131
11
8.39879
21
-3.77132
0
LINE
8
BLACK
6
CONTINUOUS
10
8.39879
20
-3.77132
11
8.39877
21
-3.77132
0
LINE
8
BLACK
6
CONTINUOUS
10
8.39877
20
-3.77132
11
8.3987
21
-3.77132
0
LINE
8
BLACK
6
CONTINUOUS
10
8.3987
20
-3.77132
11
8.39863
21
-3.77133
0
LINE
8
BLACK
6
CONTINUOUS
10
8.39863
20
-3.77133
11
8.3986
21
-3.77133
0
LINE
8
BLACK
6
CONTINUOUS
10
8.3986
20
-3.77133
11
8.39858
21
-3.77133
0
LINE
8
BLACK
6
CONTINUOUS
10
8.39858
20
-3.77133
11
8.39851
21
-3.77132
0
LINE
8
BLACK
6
CONTINUOUS
10
8.39851
20
-3.77132
11
8.39843
21
-3.77131
0
LINE
8
BLACK
6
CONTINUOUS
10
8.39843
20
-3.77131
11
8.39841
21
-3.7713
0
LINE
8
BLACK
6
CONTINUOUS
10
8.39841
20
-3.7713
11
8.39839
21
-3.7713
0
LINE
8
BLACK
6
CONTINUOUS
10
8.39839
20
-3.7713
11
8.39832
21
-3.77127
0
LINE
8
BLACK
6
CONTINUOUS
10
8.39832
20
-3.77127
11
8.39825
21
-3.77125
0
LINE
8
BLACK
6
CONTINUOUS
10
8.39825
20
-3.77125
11
8.39818
21
-3.77122
0
LINE
8
BLACK
6
CONTINUOUS
10
8.39818
20
-3.77122
11
8.34554
21
-3.74585
0
LINE
8
BLACK
6
CONTINUOUS
10
8.34554
20
-3.74585
11
8.34552
21
-3.74585
0
LINE
8
BLACK
6
CONTINUOUS
10
8.34552
20
-3.74585
11
8.34546
21
-3.74581
0
LINE
8
BLACK
6
CONTINUOUS
10
8.34546
20
-3.74581
11
8.34544
21
-3.7458
0
LINE
8
BLACK
6
CONTINUOUS
10
8.34544
20
-3.7458
11
8.34542
21
-3.74579
0
LINE
8
BLACK
6
CONTINUOUS
10
8.34542
20
-3.74579
11
8.34535
21
-3.74575
0
LINE
8
BLACK
6
CONTINUOUS
10
8.34535
20
-3.74575
11
8.34533
21
-3.74574
0
LINE
8
BLACK
6
CONTINUOUS
10
8.34533
20
-3.74574
11
8.34531
21
-3.74573
0
LINE
8
BLACK
6
CONTINUOUS
10
8.34531
20
-3.74573
11
8.34526
21
-3.74568
0
LINE
8
BLACK
6
CONTINUOUS
10
8.34526
20
-3.74568
11
8.3452
21
-3.74563
0
LINE
8
BLACK
6
CONTINUOUS
10
8.3452
20
-3.74563
11
8.34519
21
-3.74561
0
LINE
8
BLACK
6
CONTINUOUS
10
8.34519
20
-3.74561
11
8.34517
21
-3.7456
0
LINE
8
BLACK
6
CONTINUOUS
10
8.34517
20
-3.7456
11
8.34513
21
-3.74554
0
LINE
8
BLACK
6
CONTINUOUS
10
8.34513
20
-3.74554
11
8.34508
21
-3.74548
0
LINE
8
BLACK
6
CONTINUOUS
10
8.34508
20
-3.74548
11
8.34507
21
-3.74546
0
LINE
8
BLACK
6
CONTINUOUS
10
8.34507
20
-3.74546
11
8.34506
21
-3.74544
0
LINE
8
BLACK
6
CONTINUOUS
10
8.34506
20
-3.74544
11
8.34502
21
-3.74537
0
LINE
8
BLACK
6
CONTINUOUS
10
8.34502
20
-3.74537
11
8.34501
21
-3.74535
0
LINE
8
BLACK
6
CONTINUOUS
10
8.34501
20
-3.74535
11
8.345
21
-3.74533
0
LINE
8
BLACK
6
CONTINUOUS
10
8.345
20
-3.74533
11
8.34497
21
-3.74526
0
LINE
8
BLACK
6
CONTINUOUS
10
8.34497
20
-3.74526
11
8.34497
21
-3.74524
0
LINE
8
BLACK
6
CONTINUOUS
10
8.34497
20
-3.74524
11
7.30687
21
-1.17585
0
LINE
8
BLACK
6
CONTINUOUS
10
7.30687
20
-1.17585
11
7.15899
21
-1.11308
0
LINE
8
BLACK
6
CONTINUOUS
10
7.15899
20
-1.11308
11
6.10003
21
-1.54105
0
LINE
8
BLACK
6
CONTINUOUS
10
6.10003
20
-1.54105
11
5.97461
21
-1.6116
0
LINE
8
BLACK
6
CONTINUOUS
10
5.97461
20
-1.6116
11
5.97461
21
-2.55586
0
LINE
8
BLACK
6
CONTINUOUS
10
5.97461
20
-2.55586
11
5.97461
21
-2.55591
0
LINE
8
BLACK
6
CONTINUOUS
10
5.97461
20
-2.55591
11
5.97459
21
-2.5561
0
LINE
8
BLACK
6
CONTINUOUS
10
5.97459
20
-2.5561
11
5.97454
21
-2.55628
0
LINE
8
BLACK
6
CONTINUOUS
10
5.97454
20
-2.55628
11
5.9745
21
-2.55634
0
LINE
8
BLACK
6
CONTINUOUS
10
5.9745
20
-2.55634
11
5.97444
21
-2.55645
0
LINE
8
BLACK
6
CONTINUOUS
10
5.97444
20
-2.55645
11
5.97432
21
-2.5566
0
LINE
8
BLACK
6
CONTINUOUS
10
5.97432
20
-2.5566
11
5.97428
21
-2.55664
0
LINE
8
BLACK
6
CONTINUOUS
10
5.97428
20
-2.55664
11
5.88774
21
-2.64318
0
LINE
8
BLACK
6
CONTINUOUS
10
5.88774
20
-2.64318
11
5.88771
21
-2.64322
0
LINE
8
BLACK
6
CONTINUOUS
10
5.88771
20
-2.64322
11
5.88756
21
-2.64334
0
LINE
8
BLACK
6
CONTINUOUS
10
5.88756
20
-2.64334
11
5.88739
21
-2.64343
0
LINE
8
BLACK
6
CONTINUOUS
10
5.88739
20
-2.64343
11
5.8872
21
-2.64349
0
LINE
8
BLACK
6
CONTINUOUS
10
5.8872
20
-2.64349
11
5.88706
21
-2.6435
0
LINE
8
BLACK
6
CONTINUOUS
10
5.88706
20
-2.6435
11
5.88706
21
-2.6435
0
LINE
8
BLACK
6
CONTINUOUS
10
5.88706
20
-2.6435
11
5.88701
21
-2.64351
0
LINE
8
BLACK
6
CONTINUOUS
10
5.88701
20
-2.64351
11
5.88696
21
-2.6435
0
LINE
8
BLACK
6
CONTINUOUS
10
5.88696
20
-2.6435
11
5.3906
21
-2.6435
0
LINE
8
BLACK
6
CONTINUOUS
10
5.3906
20
-2.6435
11
5.39055
21
-2.64351
0
LINE
8
BLACK
6
CONTINUOUS
10
5.39055
20
-2.64351
11
5.39043
21
-2.6435
0
LINE
8
BLACK
6
CONTINUOUS
10
5.39043
20
-2.6435
11
5.39036
21
-2.64349
0
LINE
8
BLACK
6
CONTINUOUS
10
5.39036
20
-2.64349
11
5.39036
21
-2.64349
0
LINE
8
BLACK
6
CONTINUOUS
10
5.39036
20
-2.64349
11
5.39036
21
-2.64349
0
LINE
8
BLACK
6
CONTINUOUS
10
5.39036
20
-2.64349
11
5.39026
21
-2.64346
0
LINE
8
BLACK
6
CONTINUOUS
10
5.39026
20
-2.64346
11
5.39017
21
-2.64343
0
LINE
8
BLACK
6
CONTINUOUS
10
5.39017
20
-2.64343
11
5.39017
21
-2.64343
0
LINE
8
BLACK
6
CONTINUOUS
10
5.39017
20
-2.64343
11
5.39017
21
-2.64343
0
LINE
8
BLACK
6
CONTINUOUS
10
5.39017
20
-2.64343
11
5.39011
21
-2.6434
0
LINE
8
BLACK
6
CONTINUOUS
10
5.39011
20
-2.6434
11
5.39
21
-2.64334
0
LINE
8
BLACK
6
CONTINUOUS
10
5.39
20
-2.64334
11
5.39
21
-2.64334
0
LINE
8
BLACK
6
CONTINUOUS
10
5.39
20
-2.64334
11
5.39
21
-2.64334
0
LINE
8
BLACK
6
CONTINUOUS
10
5.39
20
-2.64334
11
5.38995
21
-2.6433
0
LINE
8
BLACK
6
CONTINUOUS
10
5.38995
20
-2.6433
11
5.38985
21
-2.64322
0
LINE
8
BLACK
6
CONTINUOUS
10
5.38985
20
-2.64322
11
5.38982
21
-2.64318
0
LINE
8
BLACK
6
CONTINUOUS
10
5.38982
20
-2.64318
11
5.3034
21
-2.55664
0
LINE
8
BLACK
6
CONTINUOUS
10
5.3034
20
-2.55664
11
5.30337
21
-2.5566
0
LINE
8
BLACK
6
CONTINUOUS
10
5.30337
20
-2.5566
11
5.30324
21
-2.55645
0
LINE
8
BLACK
6
CONTINUOUS
10
5.30324
20
-2.55645
11
5.30324
21
-2.55645
0
LINE
8
BLACK
6
CONTINUOUS
10
5.30324
20
-2.55645
11
5.30324
21
-2.55645
0
LINE
8
BLACK
6
CONTINUOUS
10
5.30324
20
-2.55645
11
5.30321
21
-2.55639
0
LINE
8
BLACK
6
CONTINUOUS
10
5.30321
20
-2.55639
11
5.30315
21
-2.55628
0
LINE
8
BLACK
6
CONTINUOUS
10
5.30315
20
-2.55628
11
5.30315
21
-2.55628
0
LINE
8
BLACK
6
CONTINUOUS
10
5.30315
20
-2.55628
11
5.30315
21
-2.55628
0
LINE
8
BLACK
6
CONTINUOUS
10
5.30315
20
-2.55628
11
5.30311
21
-2.55614
0
LINE
8
BLACK
6
CONTINUOUS
10
5.30311
20
-2.55614
11
5.3031
21
-2.5561
0
LINE
8
BLACK
6
CONTINUOUS
10
5.3031
20
-2.5561
11
5.3031
21
-2.5561
0
LINE
8
BLACK
6
CONTINUOUS
10
5.3031
20
-2.5561
11
5.3031
21
-2.5561
0
LINE
8
BLACK
6
CONTINUOUS
10
5.3031
20
-2.5561
11
5.30308
21
-2.5559
0
LINE
8
BLACK
6
CONTINUOUS
10
5.30308
20
-2.5559
11
5.30308
21
-2.55586
0
LINE
8
BLACK
6
CONTINUOUS
10
5.30308
20
-2.55586
11
5.30308
21
-1.6116
0
LINE
8
BLACK
6
CONTINUOUS
10
5.30308
20
-1.6116
11
5.17765
21
-1.54105
0
LINE
8
BLACK
6
CONTINUOUS
10
5.17765
20
-1.54105
11
4.1187
21
-1.11308
0
LINE
8
BLACK
6
CONTINUOUS
10
4.1187
20
-1.11308
11
3.97082
21
-1.17585
0
LINE
8
BLACK
6
CONTINUOUS
10
3.97082
20
-1.17585
11
2.93272
21
-3.74524
0
LINE
8
BLACK
6
CONTINUOUS
10
2.93272
20
-3.74524
11
2.93271
21
-3.74526
0
LINE
8
BLACK
6
CONTINUOUS
10
2.93271
20
-3.74526
11
2.93268
21
-3.74533
0
LINE
8
BLACK
6
CONTINUOUS
10
2.93268
20
-3.74533
11
2.93267
21
-3.74535
0
LINE
8
BLACK
6
CONTINUOUS
10
2.93267
20
-3.74535
11
2.93266
21
-3.74537
0
LINE
8
BLACK
6
CONTINUOUS
10
2.93266
20
-3.74537
11
2.93263
21
-3.74544
0
LINE
8
BLACK
6
CONTINUOUS
10
2.93263
20
-3.74544
11
2.93262
21
-3.74546
0
LINE
8
BLACK
6
CONTINUOUS
10
2.93262
20
-3.74546
11
2.93261
21
-3.74548
0
LINE
8
BLACK
6
CONTINUOUS
10
2.93261
20
-3.74548
11
2.93256
21
-3.74554
0
LINE
8
BLACK
6
CONTINUOUS
10
2.93256
20
-3.74554
11
2.93252
21
-3.7456
0
LINE
8
BLACK
6
CONTINUOUS
10
2.93252
20
-3.7456
11
2.9325
21
-3.74561
0
LINE
8
BLACK
6
CONTINUOUS
10
2.9325
20
-3.74561
11
2.93249
21
-3.74563
0
LINE
8
BLACK
6
CONTINUOUS
10
2.93249
20
-3.74563
11
2.93243
21
-3.74568
0
LINE
8
BLACK
6
CONTINUOUS
10
2.93243
20
-3.74568
11
2.93238
21
-3.74573
0
LINE
8
BLACK
6
CONTINUOUS
10
2.93238
20
-3.74573
11
2.93236
21
-3.74574
0
LINE
8
BLACK
6
CONTINUOUS
10
2.93236
20
-3.74574
11
2.93234
21
-3.74575
0
LINE
8
BLACK
6
CONTINUOUS
10
2.93234
20
-3.74575
11
2.93227
21
-3.74579
0
LINE
8
BLACK
6
CONTINUOUS
10
2.93227
20
-3.74579
11
2.93225
21
-3.7458
0
LINE
8
BLACK
6
CONTINUOUS
10
2.93225
20
-3.7458
11
2.93223
21
-3.74581
0
LINE
8
BLACK
6
CONTINUOUS
10
2.93223
20
-3.74581
11
2.93217
21
-3.74585
0
LINE
8
BLACK
6
CONTINUOUS
10
2.93217
20
-3.74585
11
2.93214
21
-3.74585
0
LINE
8
BLACK
6
CONTINUOUS
10
2.93214
20
-3.74585
11
2.8795
21
-3.77122
0
LINE
8
BLACK
6
CONTINUOUS
10
2.8795
20
-3.77122
11
2.87944
21
-3.77125
0
LINE
8
BLACK
6
CONTINUOUS
10
2.87944
20
-3.77125
11
2.87937
21
-3.77127
0
LINE
8
BLACK
6
CONTINUOUS
10
2.87937
20
-3.77127
11
2.8793
21
-3.7713
0
LINE
8
BLACK
6
CONTINUOUS
10
2.8793
20
-3.7713
11
2.87928
21
-3.7713
0
LINE
8
BLACK
6
CONTINUOUS
10
2.87928
20
-3.7713
11
2.87926
21
-3.77131
0
LINE
8
BLACK
6
CONTINUOUS
10
2.87926
20
-3.77131
11
2.87918
21
-3.77132
0
LINE
8
BLACK
6
CONTINUOUS
10
2.87918
20
-3.77132
11
2.87911
21
-3.77133
0
LINE
8
BLACK
6
CONTINUOUS
10
2.87911
20
-3.77133
11
2.87909
21
-3.77133
0
LINE
8
BLACK
6
CONTINUOUS
10
2.87909
20
-3.77133
11
2.87906
21
-3.77133
0
LINE
8
BLACK
6
CONTINUOUS
10
2.87906
20
-3.77133
11
2.87899
21
-3.77132
0
LINE
8
BLACK
6
CONTINUOUS
10
2.87899
20
-3.77132
11
2.87892
21
-3.77132
0
LINE
8
BLACK
6
CONTINUOUS
10
2.87892
20
-3.77132
11
2.87889
21
-3.77132
0
LINE
8
BLACK
6
CONTINUOUS
10
2.87889
20
-3.77132
11
2.87887
21
-3.77131
0
LINE
8
BLACK
6
CONTINUOUS
10
2.87887
20
-3.77131
11
2.8788
21
-3.77129
0
LINE
8
BLACK
6
CONTINUOUS
10
2.8788
20
-3.77129
11
2.87873
21
-3.77128
0
LINE
8
BLACK
6
CONTINUOUS
10
2.87873
20
-3.77128
11
2.87866
21
-3.77125
0
LINE
8
BLACK
6
CONTINUOUS
10
2.87866
20
-3.77125
11
2.34246
21
-3.55461
0
LINE
8
BLACK
6
CONTINUOUS
10
2.34246
20
-3.55461
11
2.08663
21
-3.6632
0
LINE
8
BLACK
6
CONTINUOUS
10
2.08663
20
-3.6632
11
2.08658
21
-3.66323
0
LINE
8
BLACK
6
CONTINUOUS
10
2.08658
20
-3.66323
11
2.0864
21
-3.66329
0
LINE
8
BLACK
6
CONTINUOUS
10
2.0864
20
-3.66329
11
2.08621
21
-3.66331
0
LINE
8
BLACK
6
CONTINUOUS
10
2.08621
20
-3.66331
11
2.08601
21
-3.66329
0
LINE
8
BLACK
6
CONTINUOUS
10
2.08601
20
-3.66329
11
2.08583
21
-3.66323
0
LINE
8
BLACK
6
CONTINUOUS
10
2.08583
20
-3.66323
11
2.08578
21
-3.66321
0
LINE
8
BLACK
6
CONTINUOUS
10
2.08578
20
-3.66321
11
1.597
21
-3.46573
0
LINE
8
BLACK
6
CONTINUOUS
10
1.597
20
-3.46573
11
1.23847
21
-3.56661
0
LINE
8
BLACK
6
CONTINUOUS
10
1.23847
20
-3.56661
11
1.22687
21
-3.59532
0
LINE
8
BLACK
6
CONTINUOUS
10
1.22687
20
-3.59532
11
1.0928
21
-3.92717
0
LINE
8
BLACK
6
CONTINUOUS
10
1.0928
20
-3.92717
11
1.11858
21
-3.98792
0
LINE
8
BLACK
6
CONTINUOUS
10
1.11858
20
-3.98792
11
2.59658
21
-4.58507
0
LINE
8
BLACK
6
CONTINUOUS
10
2.59658
20
-4.58507
11
2.59665
21
-4.5851
0
LINE
8
BLACK
6
CONTINUOUS
10
2.59665
20
-4.5851
11
2.5967
21
-4.58513
0
LINE
8
BLACK
6
CONTINUOUS
10
2.5967
20
-4.58513
11
2.59676
21
-4.58516
0
LINE
8
BLACK
6
CONTINUOUS
10
2.59676
20
-4.58516
11
2.59682
21
-4.58521
0
LINE
8
BLACK
6
CONTINUOUS
10
2.59682
20
-4.58521
11
4.33857
21
-5.89603
0
LINE
8
BLACK
6
CONTINUOUS
10
4.33857
20
-5.89603
11
6.93911
21
-5.89603
0
LINE
8
BLACK
6
CONTINUOUS
10
6.93911
20
-5.89603
11
8.68086
21
-4.58521
0
LINE
8
BLACK
6
CONTINUOUS
10
8.68086
20
-4.58521
11
8.68093
21
-4.58516
0
LINE
8
BLACK
6
CONTINUOUS
10
8.68093
20
-4.58516
11
8.68098
21
-4.58513
0
LINE
8
BLACK
6
CONTINUOUS
10
8.68098
20
-4.58513
11
8.68104
21
-4.5851
0
LINE
8
BLACK
6
CONTINUOUS
10
8.68104
20
-4.5851
11
8.68111
21
-4.58507
0
LINE
8
BLACK
6
CONTINUOUS
10
8.68111
20
-4.58507
11
10.1591
21
-3.98792
0
LINE
8
BLACK
6
CONTINUOUS
10
10.1591
20
-3.98792
11
10.1849
21
-3.92717
0
LINE
8
BLACK
6
CONTINUOUS
10
10.1849
20
-3.92717
11
10.0509
21
-3.59541
0
LINE
8
BLACK
6
CONTINUOUS
10
10.0509
20
-3.59541
11
10.0509
21
-3.59541
0
LINE
8
BLACK
6
CONTINUOUS
10
10.0509
20
-3.59541
11
10.0392
21
-3.56661
0
LINE
8
BLACK
6
CONTINUOUS
10
10.0392
20
-3.56661
11
9.68069
21
-3.46573
0
LINE
8
BLACK
6
CONTINUOUS
10
9.68069
20
-3.46573
11
9.1919
21
-3.66321
0
LINE
8
BLACK
6
CONTINUOUS
10
9.1919
20
-3.66321
11
9.19186
21
-3.66323
0
LINE
8
BLACK
6
CONTINUOUS
10
9.19186
20
-3.66323
11
9.19167
21
-3.66329
0
LINE
8
BLACK
6
CONTINUOUS
10
9.19167
20
-3.66329
11
9.1915
21
-3.6633
0
LINE
8
BLACK
6
CONTINUOUS
10
9.1915
20
-3.6633
11
9.19148
21
-3.66331
0
LINE
8
BLACK
6
CONTINUOUS
10
9.19148
20
-3.66331
11
9.19148
21
-3.66331
0
LINE
8
BLACK
6
CONTINUOUS
10
9.19148
20
-3.66331
11
9.19146
21
-3.6633
0
LINE
8
BLACK
6
CONTINUOUS
10
5.94599
20
4.95492
11
5.94607
21
4.95492
0
LINE
8
BLACK
6
CONTINUOUS
10
5.94607
20
4.95492
11
5.94611
21
4.95492
0
LINE
8
BLACK
6
CONTINUOUS
10
5.94611
20
4.95492
11
5.94612
21
4.95492
0
LINE
8
BLACK
6
CONTINUOUS
10
5.94612
20
4.95492
11
5.94618
21
4.95492
0
LINE
8
BLACK
6
CONTINUOUS
10
5.94618
20
4.95492
11
5.94622
21
4.95491
0
LINE
8
BLACK
6
CONTINUOUS
10
5.94622
20
4.95491
11
5.94626
21
4.95491
0
LINE
8
BLACK
6
CONTINUOUS
10
5.94626
20
4.95491
11
5.94631
21
4.95489
0
LINE
8
BLACK
6
CONTINUOUS
10
5.94631
20
4.95489
11
5.94637
21
4.95488
0
LINE
8
BLACK
6
CONTINUOUS
10
5.94637
20
4.95488
11
5.94641
21
4.95486
0
LINE
8
BLACK
6
CONTINUOUS
10
5.94641
20
4.95486
11
5.94644
21
4.95485
0
LINE
8
BLACK
6
CONTINUOUS
10
5.94644
20
4.95485
11
5.94649
21
4.95482
0
LINE
8
BLACK
6
CONTINUOUS
10
5.94649
20
4.95482
11
5.94651
21
4.95482
0
LINE
8
BLACK
6
CONTINUOUS
10
5.94651
20
4.95482
11
5.94654
21
4.9548
0
LINE
8
BLACK
6
CONTINUOUS
10
5.94654
20
4.9548
11
5.94661
21
4.95476
0
LINE
8
BLACK
6
CONTINUOUS
10
5.94661
20
4.95476
11
5.94662
21
4.95475
0
LINE
8
BLACK
6
CONTINUOUS
10
5.94662
20
4.95475
11
6.03708
21
4.90362
0
LINE
8
BLACK
6
CONTINUOUS
10
6.03708
20
4.90362
11
6.03715
21
4.90358
0
LINE
8
BLACK
6
CONTINUOUS
10
6.03715
20
4.90358
11
6.03721
21
4.90354
0
LINE
8
BLACK
6
CONTINUOUS
10
6.03721
20
4.90354
11
6.03726
21
4.90351
0
LINE
8
BLACK
6
CONTINUOUS
10
6.03726
20
4.90351
11
6.03728
21
4.90348
0
LINE
8
BLACK
6
CONTINUOUS
10
6.03728
20
4.90348
11
6.0373
21
4.90346
0
LINE
8
BLACK
6
CONTINUOUS
10
6.0373
20
4.90346
11
6.03735
21
4.90341
0
LINE
8
BLACK
6
CONTINUOUS
10
6.03735
20
4.90341
11
6.03739
21
4.90337
0
LINE
8
BLACK
6
CONTINUOUS
10
6.03739
20
4.90337
11
6.03741
21
4.90334
0
LINE
8
BLACK
6
CONTINUOUS
10
6.03741
20
4.90334
11
6.03743
21
4.90332
0
LINE
8
BLACK
6
CONTINUOUS
10
6.03743
20
4.90332
11
6.03746
21
4.90326
0
LINE
8
BLACK
6
CONTINUOUS
10
6.03746
20
4.90326
11
6.0375
21
4.9032
0
LINE
8
BLACK
6
CONTINUOUS
10
6.0375
20
4.9032
11
6.03753
21
4.90313
0
LINE
8
BLACK
6
CONTINUOUS
10
6.03753
20
4.90313
11
6.04932
21
4.87562
0
LINE
8
BLACK
6
CONTINUOUS
10
6.04932
20
4.87562
11
6.04932
21
4.87561
0
LINE
8
BLACK
6
CONTINUOUS
10
6.04932
20
4.87561
11
6.04933
21
4.87558
0
LINE
8
BLACK
6
CONTINUOUS
10
6.04933
20
4.87558
11
6.04935
21
4.87554
0
LINE
8
BLACK
6
CONTINUOUS
10
6.04935
20
4.87554
11
6.04935
21
4.87553
0
LINE
8
BLACK
6
CONTINUOUS
10
6.04935
20
4.87553
11
6.85041
21
2.8929
0
LINE
8
BLACK
6
CONTINUOUS
10
6.85041
20
2.8929
11
6.93678
21
2.85623
0
LINE
8
BLACK
6
CONTINUOUS
10
6.93678
20
2.85623
11
8.25778
21
3.38995
0
LINE
8
BLACK
6
CONTINUOUS
10
8.25778
20
3.38995
11
8.25782
21
3.38997
0
LINE
8
BLACK
6
CONTINUOUS
10
8.25782
20
3.38997
11
8.25787
21
3.38998
0
LINE
8
BLACK
6
CONTINUOUS
10
8.25787
20
3.38998
11
8.25787
21
3.38998
0
LINE
8
BLACK
6
CONTINUOUS
10
8.25787
20
3.38998
11
8.25792
21
3.39
0
LINE
8
BLACK
6
CONTINUOUS
10
8.25792
20
3.39
11
8.258
21
3.39002
0
LINE
8
BLACK
6
CONTINUOUS
10
8.258
20
3.39002
11
8.25801
21
3.39002
0
LINE
8
BLACK
6
CONTINUOUS
10
8.25801
20
3.39002
11
8.25801
21
3.39003
0
LINE
8
BLACK
6
CONTINUOUS
10
8.25801
20
3.39003
11
8.2581
21
3.39003
0
LINE
8
BLACK
6
CONTINUOUS
10
8.2581
20
3.39003
11
8.25815
21
3.39004
0
LINE
8
BLACK
6
CONTINUOUS
10
8.25815
20
3.39004
11
8.25815
21
3.39004
0
LINE
8
BLACK
6
CONTINUOUS
10
8.25815
20
3.39004
11
8.2582
21
3.39004
0
LINE
8
BLACK
6
CONTINUOUS
10
8.2582
20
3.39004
11
8.25825
21
3.39004
0
LINE
8
BLACK
6
CONTINUOUS
10
8.25825
20
3.39004
11
8.3473
21
3.38996
0
LINE
8
BLACK
6
CONTINUOUS
10
8.3473
20
3.38996
11
8.34732
21
3.38996
0
LINE
8
BLACK
6
CONTINUOUS
10
8.34732
20
3.38996
11
8.34739
21
3.38996
0
LINE
8
BLACK
6
CONTINUOUS
10
8.34739
20
3.38996
11
8.34742
21
3.38996
0
LINE
8
BLACK
6
CONTINUOUS
10
8.34742
20
3.38996
11
8.34744
21
3.38996
0
LINE
8
BLACK
6
CONTINUOUS
10
8.34744
20
3.38996
11
8.34751
21
3.38996
0
LINE
8
BLACK
6
CONTINUOUS
10
8.34751
20
3.38996
11
8.34754
21
3.38995
0
LINE
8
BLACK
6
CONTINUOUS
10
8.34754
20
3.38995
11
8.34757
21
3.38995
0
LINE
8
BLACK
6
CONTINUOUS
10
8.34757
20
3.38995
11
8.34763
21
3.38993
0
LINE
8
BLACK
6
CONTINUOUS
10
8.34763
20
3.38993
11
8.3477
21
3.38991
0
LINE
8
BLACK
6
CONTINUOUS
10
8.3477
20
3.38991
11
8.34773
21
3.3899
0
LINE
8
BLACK
6
CONTINUOUS
10
8.34773
20
3.3899
11
8.34775
21
3.38989
0
LINE
8
BLACK
6
CONTINUOUS
10
8.34775
20
3.38989
11
8.34781
21
3.38986
0
LINE
8
BLACK
6
CONTINUOUS
10
8.34781
20
3.38986
11
8.34787
21
3.38983
0
LINE
8
BLACK
6
CONTINUOUS
10
8.34787
20
3.38983
11
8.3479
21
3.38981
0
LINE
8
BLACK
6
CONTINUOUS
10
8.3479
20
3.38981
11
8.34792
21
3.3898
0
LINE
8
BLACK
6
CONTINUOUS
10
8.34792
20
3.3898
11
8.34798
21
3.38975
0
LINE
8
BLACK
6
CONTINUOUS
10
8.34798
20
3.38975
11
8.34803
21
3.38971
0
LINE
8
BLACK
6
CONTINUOUS
10
8.34803
20
3.38971
11
8.34805
21
3.38969
0
LINE
8
BLACK
6
CONTINUOUS
10
8.34805
20
3.38969
11
8.34807
21
3.38968
0
LINE
8
BLACK
6
CONTINUOUS
10
8.34807
20
3.38968
11
8.34812
21
3.38962
0
LINE
8
BLACK
6
CONTINUOUS
10
8.34812
20
3.38962
11
8.34813
21
3.38961
0
LINE
8
BLACK
6
CONTINUOUS
10
8.34813
20
3.38961
11
8.34815
21
3.38958
0
LINE
8
BLACK
6
CONTINUOUS
10
8.34815
20
3.38958
11
8.3482
21
3.38953
0
LINE
8
BLACK
6
CONTINUOUS
10
8.3482
20
3.38953
11
8.34821
21
3.38951
0
LINE
8
BLACK
6
CONTINUOUS
10
8.34821
20
3.38951
11
8.71427
21
2.9034
0
LINE
8
BLACK
6
CONTINUOUS
10
8.71427
20
2.9034
11
8.71429
21
2.90337
0
LINE
8
BLACK
6
CONTINUOUS
10
8.71429
20
2.90337
11
8.71432
21
2.90332
0
LINE
8
BLACK
6
CONTINUOUS
10
8.71432
20
2.90332
11
8.71433
21
2.90331
0
LINE
8
BLACK
6
CONTINUOUS
10
8.71433
20
2.90331
11
8.71435
21
2.90328
0
LINE
8
BLACK
6
CONTINUOUS
10
8.71435
20
2.90328
11
8.7144
21
2.90321
0
LINE
8
BLACK
6
CONTINUOUS
10
8.7144
20
2.90321
11
8.7144
21
2.9032
0
LINE
8
BLACK
6
CONTINUOUS
10
8.7144
20
2.9032
11
8.71441
21
2.90319
0
LINE
8
BLACK
6
CONTINUOUS
10
8.71441
20
2.90319
11
8.71443
21
2.9031
0
LINE
8
BLACK
6
CONTINUOUS
10
8.71443
20
2.9031
11
8.71447
21
2.90302
0
LINE
8
BLACK
6
CONTINUOUS
10
8.71447
20
2.90302
11
8.71447
21
2.90301
0
LINE
8
BLACK
6
CONTINUOUS
10
8.71447
20
2.90301
11
8.71447
21
2.903
0
LINE
8
BLACK
6
CONTINUOUS
10
8.71447
20
2.903
11
8.71449
21
2.90292
0
LINE
8
BLACK
6
CONTINUOUS
10
8.71449
20
2.90292
11
8.7145
21
2.90283
0
LINE
8
BLACK
6
CONTINUOUS
10
8.7145
20
2.90283
11
8.7145
21
2.90282
0
LINE
8
BLACK
6
CONTINUOUS
10
8.7145
20
2.90282
11
8.7145
21
2.90281
0
LINE
8
BLACK
6
CONTINUOUS
10
8.7145
20
2.90281
11
8.7145
21
2.90273
0
LINE
8
BLACK
6
CONTINUOUS
10
8.7145
20
2.90273
11
8.7145
21
2.90269
0
LINE
8
BLACK
6
CONTINUOUS
10
8.7145
20
2.90269
11
8.7145
21
2.90268
0
LINE
8
BLACK
6
CONTINUOUS
10
8.7145
20
2.90268
11
8.71449
21
2.90262
0
LINE
8
BLACK
6
CONTINUOUS
10
8.71449
20
2.90262
11
8.71449
21
2.90258
0
LINE
8
BLACK
6
CONTINUOUS
10
8.71449
20
2.90258
11
8.71056
21
2.86921
0
LINE
8
BLACK
6
CONTINUOUS
10
8.71056
20
2.86921
11
8.71056
21
2.86915
0
LINE
8
BLACK
6
CONTINUOUS
10
8.71056
20
2.86915
11
8.71054
21
2.86907
0
LINE
8
BLACK
6
CONTINUOUS
10
8.71054
20
2.86907
11
8.71052
21
2.86899
0
LINE
8
BLACK
6
CONTINUOUS
10
8.71052
20
2.86899
11
8.71051
21
2.86898
0
LINE
8
BLACK
6
CONTINUOUS
10
8.71051
20
2.86898
11
8.71051
21
2.86897
0
LINE
8
BLACK
6
CONTINUOUS
10
8.71051
20
2.86897
11
8.71047
21
2.86889
0
LINE
8
BLACK
6
CONTINUOUS
10
8.71047
20
2.86889
11
8.71044
21
2.86881
0
LINE
8
BLACK
6
CONTINUOUS
10
8.71044
20
2.86881
11
8.71043
21
2.8688
0
LINE
8
BLACK
6
CONTINUOUS
10
8.71043
20
2.8688
11
8.71043
21
2.86879
0
LINE
8
BLACK
6
CONTINUOUS
10
8.71043
20
2.86879
11
8.71038
21
2.86872
0
LINE
8
BLACK
6
CONTINUOUS
10
8.71038
20
2.86872
11
8.71033
21
2.86865
0
LINE
8
BLACK
6
CONTINUOUS
10
8.71033
20
2.86865
11
8.71032
21
2.86864
0
LINE
8
BLACK
6
CONTINUOUS
10
8.71032
20
2.86864
11
8.71032
21
2.86863
0
LINE
8
BLACK
6
CONTINUOUS
10
8.71032
20
2.86863
11
8.71025
21
2.86857
0
LINE
8
BLACK
6
CONTINUOUS
10
8.71025
20
2.86857
11
8.71019
21
2.86852
0
LINE
8
BLACK
6
CONTINUOUS
10
8.71019
20
2.86852
11
8.71014
21
2.86848
0
LINE
8
BLACK
6
CONTINUOUS
10
8.71014
20
2.86848
11
8.67816
21
2.84436
0
LINE
8
BLACK
6
CONTINUOUS
10
8.67816
20
2.84436
11
8.67816
21
2.84436
0
LINE
8
BLACK
6
CONTINUOUS
10
8.67816
20
2.84436
11
8.6781
21
2.84431
0
LINE
8
BLACK
6
CONTINUOUS
10
8.6781
20
2.84431
11
8.67809
21
2.8443
0
LINE
8
BLACK
6
CONTINUOUS
10
8.67809
20
2.8443
11
8.67808
21
2.8443
0
LINE
8
BLACK
6
CONTINUOUS
10
8.67808
20
2.8443
11
6.93611
21
1.53331
0
LINE
8
BLACK
6
CONTINUOUS
10
6.93611
20
1.53331
11
6.93605
21
1.53326
0
LINE
8
BLACK
6
CONTINUOUS
10
6.93605
20
1.53326
11
6.93599
21
1.53323
0
LINE
8
BLACK
6
CONTINUOUS
10
6.93599
20
1.53323
11
6.93593
21
1.53319
0
LINE
8
BLACK
6
CONTINUOUS
10
6.93593
20
1.53319
11
6.93591
21
1.53318
0
LINE
8
BLACK
6
CONTINUOUS
10
6.93591
20
1.53318
11
6.93588
21
1.53317
0
LINE
8
BLACK
6
CONTINUOUS
10
6.93588
20
1.53317
11
6.93582
21
1.53315
0
LINE
8
BLACK
6
CONTINUOUS
10
6.93582
20
1.53315
11
6.93575
21
1.53313
0
LINE
8
BLACK
6
CONTINUOUS
10
6.93575
20
1.53313
11
6.93572
21
1.53312
0
LINE
8
BLACK
6
CONTINUOUS
10
6.93572
20
1.53312
11
6.9357
21
1.53311
0
LINE
8
BLACK
6
CONTINUOUS
10
6.9357
20
1.53311
11
6.93563
21
1.53311
0
LINE
8
BLACK
6
CONTINUOUS
10
6.93563
20
1.53311
11
6.93556
21
1.5331
0
LINE
8
BLACK
6
CONTINUOUS
10
6.93556
20
1.5331
11
6.93548
21
1.5331
0
LINE
8
BLACK
6
CONTINUOUS
10
6.93548
20
1.5331
11
4.33433
21
1.5331
0
LINE
8
BLACK
6
CONTINUOUS
10
4.33433
20
1.5331
11
4.33425
21
1.5331
0
LINE
8
BLACK
6
CONTINUOUS
10
4.33425
20
1.5331
11
4.33418
21
1.53311
0
LINE
8
BLACK
6
CONTINUOUS
10
4.33418
20
1.53311
11
4.33412
21
1.53311
0
LINE
8
BLACK
6
CONTINUOUS
10
4.33412
20
1.53311
11
4.33409
21
1.53312
0
LINE
8
BLACK
6
CONTINUOUS
10
4.33409
20
1.53312
11
4.33406
21
1.53313
0
LINE
8
BLACK
6
CONTINUOUS
10
4.33406
20
1.53313
11
4.334
21
1.53315
0
LINE
8
BLACK
6
CONTINUOUS
10
4.334
20
1.53315
11
4.33393
21
1.53317
0
LINE
8
BLACK
6
CONTINUOUS
10
4.33393
20
1.53317
11
4.33391
21
1.53318
0
LINE
8
BLACK
6
CONTINUOUS
10
4.33391
20
1.53318
11
4.33388
21
1.53319
0
LINE
8
BLACK
6
CONTINUOUS
10
4.33388
20
1.53319
11
4.33382
21
1.53323
0
LINE
8
BLACK
6
CONTINUOUS
10
4.33382
20
1.53323
11
4.33376
21
1.53326
0
LINE
8
BLACK
6
CONTINUOUS
10
4.33376
20
1.53326
11
4.3337
21
1.53331
0
LINE
8
BLACK
6
CONTINUOUS
10
4.3337
20
1.53331
11
2.59173
21
2.8443
0
LINE
8
BLACK
6
CONTINUOUS
10
2.59173
20
2.8443
11
2.59173
21
2.8443
0
LINE
8
BLACK
6
CONTINUOUS
10
2.59173
20
2.8443
11
2.59166
21
2.84435
0
LINE
8
BLACK
6
CONTINUOUS
10
2.59166
20
2.84435
11
2.59165
21
2.84436
0
LINE
8
BLACK
6
CONTINUOUS
10
2.59165
20
2.84436
11
2.59165
21
2.84436
0
LINE
8
BLACK
6
CONTINUOUS
10
2.59165
20
2.84436
11
2.55967
21
2.86848
0
LINE
8
BLACK
6
CONTINUOUS
10
2.55967
20
2.86848
11
2.55962
21
2.86852
0
LINE
8
BLACK
6
CONTINUOUS
10
2.55962
20
2.86852
11
2.55956
21
2.86858
0
LINE
8
BLACK
6
CONTINUOUS
10
2.55956
20
2.86858
11
2.5595
21
2.86863
0
LINE
8
BLACK
6
CONTINUOUS
10
2.5595
20
2.86863
11
2.55949
21
2.86864
0
LINE
8
BLACK
6
CONTINUOUS
10
2.55949
20
2.86864
11
2.55948
21
2.86865
0
LINE
8
BLACK
6
CONTINUOUS
10
2.55948
20
2.86865
11
2.55943
21
2.86872
0
LINE
8
BLACK
6
CONTINUOUS
10
2.55943
20
2.86872
11
2.55938
21
2.86879
0
LINE
8
BLACK
6
CONTINUOUS
10
2.55938
20
2.86879
11
2.55938
21
2.8688
0
LINE
8
BLACK
6
CONTINUOUS
10
2.55938
20
2.8688
11
2.55937
21
2.86881
0
LINE
8
BLACK
6
CONTINUOUS
10
2.55937
20
2.86881
11
2.55934
21
2.86889
0
LINE
8
BLACK
6
CONTINUOUS
10
2.55934
20
2.86889
11
2.5593
21
2.86897
0
LINE
8
BLACK
6
CONTINUOUS
10
2.5593
20
2.86897
11
2.5593
21
2.86898
0
LINE
8
BLACK
6
CONTINUOUS
10
2.5593
20
2.86898
11
2.5593
21
2.86899
0
LINE
8
BLACK
6
CONTINUOUS
10
2.5593
20
2.86899
11
2.55928
21
2.86907
0
LINE
8
BLACK
6
CONTINUOUS
10
2.55928
20
2.86907
11
2.55926
21
2.86915
0
LINE
8
BLACK
6
CONTINUOUS
10
2.55926
20
2.86915
11
2.55925
21
2.86921
0
LINE
8
BLACK
6
CONTINUOUS
10
2.55925
20
2.86921
11
2.55533
21
2.90258
0
LINE
8
BLACK
6
CONTINUOUS
10
2.55533
20
2.90258
11
2.55532
21
2.90262
0
LINE
8
BLACK
6
CONTINUOUS
10
2.55532
20
2.90262
11
2.55532
21
2.90268
0
LINE
8
BLACK
6
CONTINUOUS
10
2.55532
20
2.90268
11
2.55532
21
2.90269
0
LINE
8
BLACK
6
CONTINUOUS
10
2.55532
20
2.90269
11
2.55532
21
2.90272
0
LINE
8
BLACK
6
CONTINUOUS
10
2.55532
20
2.90272
11
2.55531
21
2.90281
0
LINE
8
BLACK
6
CONTINUOUS
10
2.55531
20
2.90281
11
2.55531
21
2.90282
0
LINE
8
BLACK
6
CONTINUOUS
10
2.55531
20
2.90282
11
2.55531
21
2.90283
0
LINE
8
BLACK
6
CONTINUOUS
10
2.55531
20
2.90283
11
2.55533
21
2.90292
0
LINE
8
BLACK
6
CONTINUOUS
10
2.55533
20
2.90292
11
2.55534
21
2.903
0
LINE
8
BLACK
6
CONTINUOUS
10
2.55534
20
2.903
11
2.55535
21
2.90301
0
LINE
8
BLACK
6
CONTINUOUS
10
2.55535
20
2.90301
11
2.55535
21
2.90302
0
LINE
8
BLACK
6
CONTINUOUS
10
2.55535
20
2.90302
11
2.55538
21
2.9031
0
LINE
8
BLACK
6
CONTINUOUS
10
2.55538
20
2.9031
11
2.55541
21
2.90319
0
LINE
8
BLACK
6
CONTINUOUS
10
2.55541
20
2.90319
11
2.55541
21
2.90319
0
LINE
8
BLACK
6
CONTINUOUS
10
2.55541
20
2.90319
11
2.55542
21
2.90321
0
LINE
8
BLACK
6
CONTINUOUS
10
2.55542
20
2.90321
11
2.55546
21
2.90328
0
LINE
8
BLACK
6
CONTINUOUS
10
2.55546
20
2.90328
11
2.55548
21
2.90331
0
LINE
8
BLACK
6
CONTINUOUS
10
2.55548
20
2.90331
11
2.55549
21
2.90332
0
LINE
8
BLACK
6
CONTINUOUS
10
2.55549
20
2.90332
11
2.55552
21
2.90337
0
LINE
8
BLACK
6
CONTINUOUS
10
2.55552
20
2.90337
11
2.55555
21
2.9034
0
LINE
8
BLACK
6
CONTINUOUS
10
2.55555
20
2.9034
11
2.92161
21
3.38951
0
LINE
8
BLACK
6
CONTINUOUS
10
2.92161
20
3.38951
11
2.92162
21
3.38953
0
LINE
8
BLACK
6
CONTINUOUS
10
2.92162
20
3.38953
11
2.92167
21
3.38958
0
LINE
8
BLACK
6
CONTINUOUS
10
2.92167
20
3.38958
11
2.92168
21
3.38961
0
LINE
8
BLACK
6
CONTINUOUS
10
2.92168
20
3.38961
11
2.9217
21
3.38962
0
LINE
8
BLACK
6
CONTINUOUS
10
2.9217
20
3.38962
11
2.92174
21
3.38968
0
LINE
8
BLACK
6
CONTINUOUS
10
2.92174
20
3.38968
11
2.92176
21
3.38969
0
LINE
8
BLACK
6
CONTINUOUS
10
2.92176
20
3.38969
11
2.92178
21
3.38971
0
LINE
8
BLACK
6
CONTINUOUS
10
2.92178
20
3.38971
11
2.92184
21
3.38975
0
LINE
8
BLACK
6
CONTINUOUS
10
2.92184
20
3.38975
11
2.92189
21
3.3898
0
LINE
8
BLACK
6
CONTINUOUS
10
2.92189
20
3.3898
11
2.92192
21
3.38981
0
LINE
8
BLACK
6
CONTINUOUS
10
2.92192
20
3.38981
11
2.92194
21
3.38983
0
LINE
8
BLACK
6
CONTINUOUS
10
2.92194
20
3.38983
11
2.922
21
3.38986
0
LINE
8
BLACK
6
CONTINUOUS
10
2.922
20
3.38986
11
2.92206
21
3.38989
0
LINE
8
BLACK
6
CONTINUOUS
10
2.92206
20
3.38989
11
2.92209
21
3.3899
0
LINE
8
BLACK
6
CONTINUOUS
10
2.92209
20
3.3899
11
2.92211
21
3.38991
0
LINE
8
BLACK
6
CONTINUOUS
10
2.92211
20
3.38991
11
2.92218
21
3.38993
0
LINE
8
BLACK
6
CONTINUOUS
10
2.92218
20
3.38993
11
2.92225
21
3.38995
0
LINE
8
BLACK
6
CONTINUOUS
10
2.92225
20
3.38995
11
2.92228
21
3.38995
0
LINE
8
BLACK
6
CONTINUOUS
10
2.92228
20
3.38995
11
2.9223
21
3.38996
0
LINE
8
BLACK
6
CONTINUOUS
10
2.9223
20
3.38996
11
2.92237
21
3.38996
0
LINE
8
BLACK
6
CONTINUOUS
10
2.92237
20
3.38996
11
2.92239
21
3.38996
0
LINE
8
BLACK
6
CONTINUOUS
10
2.92239
20
3.38996
11
2.92242
21
3.38996
0
LINE
8
BLACK
6
CONTINUOUS
10
2.92242
20
3.38996
11
2.9225
21
3.38996
0
LINE
8
BLACK
6
CONTINUOUS
10
2.9225
20
3.38996
11
2.92252
21
3.38996
0
LINE
8
BLACK
6
CONTINUOUS
10
2.92252
20
3.38996
11
3.01157
21
3.39004
0
LINE
8
BLACK
6
CONTINUOUS
10
3.01157
20
3.39004
11
3.01161
21
3.39004
0
LINE
8
BLACK
6
CONTINUOUS
10
3.01161
20
3.39004
11
3.01166
21
3.39004
0
LINE
8
BLACK
6
CONTINUOUS
10
3.01166
20
3.39004
11
3.01167
21
3.39004
0
LINE
8
BLACK
6
CONTINUOUS
10
3.01167
20
3.39004
11
3.01171
21
3.39003
0
LINE
8
BLACK
6
CONTINUOUS
10
3.01171
20
3.39003
11
3.0118
21
3.39003
0
LINE
8
BLACK
6
CONTINUOUS
10
3.0118
20
3.39003
11
3.01181
21
3.39002
0
LINE
8
BLACK
6
CONTINUOUS
10
3.01181
20
3.39002
11
3.01181
21
3.39002
0
LINE
8
BLACK
6
CONTINUOUS
10
3.01181
20
3.39002
11
3.0119
21
3.39
0
LINE
8
BLACK
6
CONTINUOUS
10
3.0119
20
3.39
11
3.01194
21
3.38998
0
LINE
8
BLACK
6
CONTINUOUS
10
3.01194
20
3.38998
11
3.01195
21
3.38998
0
LINE
8
BLACK
6
CONTINUOUS
10
3.01195
20
3.38998
11
3.012
21
3.38997
0
LINE
8
BLACK
6
CONTINUOUS
10
3.012
20
3.38997
11
3.01204
21
3.38995
0
LINE
8
BLACK
6
CONTINUOUS
10
3.01204
20
3.38995
11
4.33303
21
2.85623
0
LINE
8
BLACK
6
CONTINUOUS
10
4.33303
20
2.85623
11
4.41941
21
2.8929
0
LINE
8
BLACK
6
CONTINUOUS
10
4.41941
20
2.8929
11
5.22046
21
4.87553
0
LINE
8
BLACK
6
CONTINUOUS
10
5.22046
20
4.87553
11
5.22046
21
4.87554
0
LINE
8
BLACK
6
CONTINUOUS
10
5.22046
20
4.87554
11
5.22048
21
4.87557
0
LINE
8
BLACK
6
CONTINUOUS
10
5.22048
20
4.87557
11
5.22049
21
4.87561
0
LINE
8
BLACK
6
CONTINUOUS
10
5.22049
20
4.87561
11
5.2205
21
4.87562
0
LINE
8
BLACK
6
CONTINUOUS
10
5.2205
20
4.87562
11
5.23229
21
4.90313
0
LINE
8
BLACK
6
CONTINUOUS
10
5.23229
20
4.90313
11
5.23232
21
4.9032
0
LINE
8
BLACK
6
CONTINUOUS
10
5.23232
20
4.9032
11
5.23235
21
4.90326
0
LINE
8
BLACK
6
CONTINUOUS
10
5.23235
20
4.90326
11
5.23238
21
4.90332
0
LINE
8
BLACK
6
CONTINUOUS
10
5.23238
20
4.90332
11
5.2324
21
4.90334
0
LINE
8
BLACK
6
CONTINUOUS
10
5.2324
20
4.90334
11
5.23242
21
4.90337
0
LINE
8
BLACK
6
CONTINUOUS
10
5.23242
20
4.90337
11
5.23247
21
4.90341
0
LINE
8
BLACK
6
CONTINUOUS
10
5.23247
20
4.90341
11
5.23251
21
4.90346
0
LINE
8
BLACK
6
CONTINUOUS
10
5.23251
20
4.90346
11
5.23253
21
4.90348
0
LINE
8
BLACK
6
CONTINUOUS
10
5.23253
20
4.90348
11
5.23255
21
4.90351
0
LINE
8
BLACK
6
CONTINUOUS
10
5.23255
20
4.90351
11
5.23261
21
4.90354
0
LINE
8
BLACK
6
CONTINUOUS
10
5.23261
20
4.90354
11
5.23266
21
4.90358
0
LINE
8
BLACK
6
CONTINUOUS
10
5.23266
20
4.90358
11
5.23273
21
4.90362
0
LINE
8
BLACK
6
CONTINUOUS
10
5.23273
20
4.90362
11
5.32319
21
4.95475
0
LINE
8
BLACK
6
CONTINUOUS
10
5.32319
20
4.95475
11
5.3232
21
4.95476
0
LINE
8
BLACK
6
CONTINUOUS
10
5.3232
20
4.95476
11
5.32328
21
4.9548
0
LINE
8
BLACK
6
CONTINUOUS
10
5.32328
20
4.9548
11
5.32331
21
4.95482
0
LINE
8
BLACK
6
CONTINUOUS
10
5.32331
20
4.95482
11
5.32332
21
4.95482
0
LINE
8
BLACK
6
CONTINUOUS
10
5.32332
20
4.95482
11
5.32337
21
4.95485
0
LINE
8
BLACK
6
CONTINUOUS
10
5.32337
20
4.95485
11
5.32341
21
4.95486
0
LINE
8
BLACK
6
CONTINUOUS
10
5.32341
20
4.95486
11
5.32344
21
4.95488
0
LINE
8
BLACK
6
CONTINUOUS
10
5.32344
20
4.95488
11
5.3235
21
4.95489
0
LINE
8
BLACK
6
CONTINUOUS
10
5.3235
20
4.95489
11
5.32356
21
4.95491
0
LINE
8
BLACK
6
CONTINUOUS
10
5.32356
20
4.95491
11
5.32359
21
4.95491
0
LINE
8
BLACK
6
CONTINUOUS
10
5.32359
20
4.95491
11
5.32363
21
4.95492
0
LINE
8
BLACK
6
CONTINUOUS
10
5.32363
20
4.95492
11
5.32369
21
4.95492
0
LINE
8
BLACK
6
CONTINUOUS
10
5.32369
20
4.95492
11
5.3237
21
4.95492
0
LINE
8
BLACK
6
CONTINUOUS
10
5.3237
20
4.95492
11
5.32374
21
4.95492
0
LINE
8
BLACK
6
CONTINUOUS
10
5.32374
20
4.95492
11
5.32382
21
4.95492
0
LINE
8
BLACK
6
CONTINUOUS
10
5.32382
20
4.95492
11
5.32384
21
4.95492
0
LINE
8
BLACK
6
CONTINUOUS
10
5.32384
20
4.95492
11
5.94598
21
4.95492
0
LINE
8
BLACK
6
CONTINUOUS
10
5.94598
20
4.95492
11
5.94599
21
4.95492
0
LINE
8
BLACK
6
CONTINUOUS
10
5.23397
20
4.90206
11
5.2223
21
4.87482
0
LINE
8
BLACK
6
CONTINUOUS
10
5.2223
20
4.87482
11
4.4211
21
2.89183
0
LINE
8
BLACK
6
CONTINUOUS
10
4.4211
20
2.89183
11
4.42108
21
2.89178
0
LINE
8
BLACK
6
CONTINUOUS
10
4.42108
20
2.89178
11
4.42099
21
2.89161
0
LINE
8
BLACK
6
CONTINUOUS
10
4.42099
20
2.89161
11
4.42087
21
2.89146
0
LINE
8
BLACK
6
CONTINUOUS
10
4.42087
20
2.89146
11
4.42072
21
2.89133
0
LINE
8
BLACK
6
CONTINUOUS
10
4.42072
20
2.89133
11
4.4206
21
2.89126
0
LINE
8
BLACK
6
CONTINUOUS
10
4.4206
20
2.89126
11
4.42055
21
2.89124
0
LINE
8
BLACK
6
CONTINUOUS
10
4.42055
20
2.89124
11
4.42051
21
2.89122
0
LINE
8
BLACK
6
CONTINUOUS
10
4.42051
20
2.89122
11
4.33347
21
2.85428
0
LINE
8
BLACK
6
CONTINUOUS
10
4.33347
20
2.85428
11
4.33343
21
2.85426
0
LINE
8
BLACK
6
CONTINUOUS
10
4.33343
20
2.85426
11
4.33324
21
2.8542
0
LINE
8
BLACK
6
CONTINUOUS
10
4.33324
20
2.8542
11
4.33305
21
2.85418
0
LINE
8
BLACK
6
CONTINUOUS
10
4.33305
20
2.85418
11
4.33285
21
2.85419
0
LINE
8
BLACK
6
CONTINUOUS
10
4.33285
20
2.85419
11
4.33272
21
2.85423
0
LINE
8
BLACK
6
CONTINUOUS
10
4.33272
20
2.85423
11
4.33271
21
2.85423
0
LINE
8
BLACK
6
CONTINUOUS
10
4.33271
20
2.85423
11
4.33267
21
2.85425
0
LINE
8
BLACK
6
CONTINUOUS
10
4.33267
20
2.85425
11
4.33263
21
2.85427
0
LINE
8
BLACK
6
CONTINUOUS
10
4.33263
20
2.85427
11
3.01143
21
3.38807
0
LINE
8
BLACK
6
CONTINUOUS
10
3.01143
20
3.38807
11
2.92293
21
3.38799
0
LINE
8
BLACK
6
CONTINUOUS
10
2.92293
20
3.38799
11
2.55732
21
2.90248
0
LINE
8
BLACK
6
CONTINUOUS
10
2.55732
20
2.90248
11
2.56116
21
2.86982
0
LINE
8
BLACK
6
CONTINUOUS
10
2.56116
20
2.86982
11
2.59291
21
2.84587
0
LINE
8
BLACK
6
CONTINUOUS
10
2.59291
20
2.84587
11
4.33464
21
1.53507
0
LINE
8
BLACK
6
CONTINUOUS
10
4.33464
20
1.53507
11
6.93518
21
1.53507
0
LINE
8
BLACK
6
CONTINUOUS
10
6.93518
20
1.53507
11
8.67694
21
2.8459
0
LINE
8
BLACK
6
CONTINUOUS
10
8.67694
20
2.8459
11
8.70865
21
2.86982
0
LINE
8
BLACK
6
CONTINUOUS
10
8.70865
20
2.86982
11
8.71249
21
2.90248
0
LINE
8
BLACK
6
CONTINUOUS
10
8.71249
20
2.90248
11
8.34688
21
3.38799
0
LINE
8
BLACK
6
CONTINUOUS
10
8.34688
20
3.38799
11
8.25839
21
3.38807
0
LINE
8
BLACK
6
CONTINUOUS
10
8.25839
20
3.38807
11
6.93719
21
2.85427
0
LINE
8
BLACK
6
CONTINUOUS
10
6.93719
20
2.85427
11
6.93714
21
2.85425
0
LINE
8
BLACK
6
CONTINUOUS
10
6.93714
20
2.85425
11
6.93696
21
2.85419
0
LINE
8
BLACK
6
CONTINUOUS
10
6.93696
20
2.85419
11
6.93678
21
2.85418
0
LINE
8
BLACK
6
CONTINUOUS
10
6.93678
20
2.85418
11
6.93677
21
2.85418
0
LINE
8
BLACK
6
CONTINUOUS
10
6.93677
20
2.85418
11
6.93677
21
2.85418
0
LINE
8
BLACK
6
CONTINUOUS
10
6.93677
20
2.85418
11
6.93675
21
2.85418
0
LINE
8
BLACK
6
CONTINUOUS
10
6.93675
20
2.85418
11
6.93657
21
2.8542
0
LINE
8
BLACK
6
CONTINUOUS
10
6.93657
20
2.8542
11
6.93639
21
2.85426
0
LINE
8
BLACK
6
CONTINUOUS
10
6.93639
20
2.85426
11
6.93635
21
2.85428
0
LINE
8
BLACK
6
CONTINUOUS
10
6.93635
20
2.85428
11
6.84931
21
2.89122
0
LINE
8
BLACK
6
CONTINUOUS
10
6.84931
20
2.89122
11
6.84926
21
2.89124
0
LINE
8
BLACK
6
CONTINUOUS
10
6.84926
20
2.89124
11
6.84909
21
2.89133
0
LINE
8
BLACK
6
CONTINUOUS
10
6.84909
20
2.89133
11
6.84894
21
2.89146
0
LINE
8
BLACK
6
CONTINUOUS
10
6.84894
20
2.89146
11
6.84882
21
2.89161
0
LINE
8
BLACK
6
CONTINUOUS
10
6.84882
20
2.89161
11
6.84875
21
2.89174
0
LINE
8
BLACK
6
CONTINUOUS
10
6.84875
20
2.89174
11
6.84875
21
2.89174
0
LINE
8
BLACK
6
CONTINUOUS
10
6.84875
20
2.89174
11
6.84873
21
2.89178
0
LINE
8
BLACK
6
CONTINUOUS
10
6.84873
20
2.89178
11
6.84872
21
2.89182
0
LINE
8
BLACK
6
CONTINUOUS
10
6.84872
20
2.89182
11
6.04752
21
4.87482
0
LINE
8
BLACK
6
CONTINUOUS
10
6.04752
20
4.87482
11
6.03584
21
4.90206
0
LINE
8
BLACK
6
CONTINUOUS
10
6.03584
20
4.90206
11
5.9458
21
4.95295
0
LINE
8
BLACK
6
CONTINUOUS
10
5.9458
20
4.95295
11
5.32401
21
4.95295
0
LINE
8
BLACK
6
CONTINUOUS
10
5.32401
20
4.95295
11
5.23397
21
4.90206
  0
ENDSEC
  0
EOF
