0
SECTION
2
HEADER
9
$INSUNITS
70
4
9
$ACADVER
1
AC1014
9
$HANDSEED
5
FFFF
0
ENDSEC
0
SECTION
2
TABLES
0
TABLE
2
VPORT
5
8
100
AcDbSymbolTable
0
ENDTAB
0
TABLE
2
LTYPE
5
5
100
AcDbSymbolTable
0
LTYPE
5
14
100
AcDbSymbolTableRecord
100
AcDbLinetypeTableRecord
2
BYBLOCK
70
0
0
LTYPE
5
15
100
AcDbSymbolTableRecord
100
AcDbLinetypeTableRecord
2
BYLAYER
70
0
0
LTYPE
5
16
100
AcDbSymbolTableRecord
100
AcDbLinetypeTableRecord
2
DASHED
70
0
3
Dashed __ __ __ __ __ __ __ __ __ __ __ __ __ _
72
65
73
2
40
0.75
49
0.5
74
0
49
-0.25
74
0
0
ENDTAB
0
TABLE
2
LAYER
5
2
100
AcDbSymbolTable
70
3
0
LAYER
5
50
100
AcDbSymbolTableRecord
100
AcDbLayerTableRecord
2
1
70
0
62
7
6
DASHED
0
LAYER
5
51
100
AcDbSymbolTableRecord
100
AcDbLayerTableRecord
2
0
70
0
62
7
6
CONTINUOUS
0
ENDTAB
0
TABLE
2
STYLE
5
3
100
AcDbSymbolTable
70
1
0
STYLE
5
11
100
AcDbSymbolTableRecord
100
AcDbTextStyleTableRecord
2
STANDARD
70
0
0
ENDTAB
0
TABLE
2
VIEW
5
6
100
AcDbSymbolTable
70
0
0
ENDTAB
0
TABLE
2
UCS
5
7
100
AcDbSymbolTable
70
0
0
ENDTAB
0
TABLE
2
APPID
5
9
100
AcDbSymbolTable
70
2
0
APPID
5
12
100
AcDbSymbolTableRecord
100
AcDbRegAppTableRecord
2
ACAD
70
0
0
ENDTAB
0
TABLE
2
DIMSTYLE
5
A
100
AcDbSymbolTable
70
1
0
ENDTAB
0
TABLE
2
BLOCK_RECORD
5
1
100
AcDbSymbolTable
70
1
0
BLOCK_RECORD
5
1F
100
AcDbSymbolTableRecord
100
AcDbBlockTableRecord
2
*MODEL_SPACE
0
BLOCK_RECORD
5
1B
100
AcDbSymbolTableRecord
100
AcDbBlockTableRecord
2
*PAPER_SPACE
0
ENDTAB
0
ENDSEC
0
SECTION
2
BLOCKS
0
BLOCK
5
20
100
AcDbEntity
100
AcDbBlockBegin
2
*MODEL_SPACE
0
ENDBLK
5
21
100
AcDbEntity
100
AcDbBlockEnd
0
BLOCK
5
1C
100
AcDbEntity
100
AcDbBlockBegin
2
*PAPER_SPACE
0
ENDBLK
5
1D
100
AcDbEntity
100
AcDbBlockEnd
0
ENDSEC
0
SECTION
2
ENTITIES
0
LWPOLYLINE
5
100
100
AcDbEntity
8
0
100
AcDbPolyline
90
42
70
1
43
0.0
10
110.291449
20
-338.53425800000002
10
176.361819
20
-338.53425800000002
10
220.60928100000001
20
-305.23407600000002
10
258.16022700000008
20
-290.06250899999998
10
258.82332000000008
20
-288.50036
10
255.4144
20
-280.06298700000002
10
257.45893599999999
20
-275.24636299999997
10
267.37980299999998
20
-271.23807199999999
10
268.37444199999999
20
-268.89484900000002
10
269.59011199999998
20
-266.03091000000001
10
283.12699600000002
20
-260.56165399999998
10
284.34266600000001
20
-257.69771500000002
10
257.52083399999998
20
-191.311351
10
254.65689499999999
20
-190.09568100000001
10
222.390897
20
-203.13199100000003
10
221.08910700000001
20
-202.57941299999999
10
208.10853300000002
20
-207.82390599999999
10
201.59958000000003
20
-205.06101900000002
10
183.98308700000001
20
-212.17854500000001
10
181.93855100000002
20
-216.99516900000003
10
155.03
20
-227.87000000000003
10
145.03663399999999
20
-231.90451200000001
10
141.61663400000003
20
-231.90451200000001
10
131.623268
20
-227.87000000000003
10
104.71471700000001
20
-216.99516900000003
10
102.67018100000001
20
-212.17854500000001
10
85.053687999999994
20
-205.06101900000002
10
78.544735000000003
20
-207.82390599999999
10
65.564160999999999
20
-202.57941299999999
10
64.262371000000002
20
-203.13199100000003
10
31.996372999999998
20
-190.09568100000001
10
29.132434000000003
20
-191.311351
10
2.3106019999999994
20
-257.69771500000002
10
3.5262720000000005
20
-260.56165399999998
10
17.063155999999999
20
-266.03091000000001
10
18.278825999999999
20
-268.89484900000002
10
19.273465000000002
20
-271.23807199999999
10
29.194332000000003
20
-275.24636299999997
10
31.238868000000004
20
-280.06298700000002
10
27.829948000000005
20
-288.50036
10
28.493041000000005
20
-290.06250899999998
10
66.043987000000016
20
-305.23407600000002
0
CIRCLE
5
101
100
AcDbEntity
8
0
100
AcDbCircle
10
228.09875520011002
20
-230.59342473620003
30
0
40
0.85089999999999999
210
0
220
0
230
1
0
CIRCLE
5
102
100
AcDbEntity
8
0
100
AcDbCircle
10
227.56390993401001
20
-237.0110910208
30
0
40
1.4750000000000001
210
0
220
0
230
1
0
CIRCLE
5
103
100
AcDbEntity
8
0
100
AcDbCircle
10
222.99924400000003
20
-232.653761
30
0
40
2.4750000000000001
210
0
220
0
230
1
0
CIRCLE
5
104
100
AcDbEntity
8
0
100
AcDbCircle
10
220.68028602896004
20
-238.65979412740003
30
0
40
1.4750000000000001
210
0
220
0
230
1
0
CIRCLE
5
105
100
AcDbEntity
8
0
100
AcDbCircle
10
220.77033476917001
20
-227.13701706530003
30
0
40
1.5000000000000002
210
0
220
0
230
1
0
CIRCLE
5
106
100
AcDbEntity
8
0
100
AcDbCircle
10
217.89973279988004
20
-234.71409726370001
30
0
40
0.85089999999999999
210
0
220
0
230
1
0
CIRCLE
5
107
100
AcDbEntity
8
0
100
AcDbCircle
10
208.07438393401
20
-239.49269702080002
30
0
40
1.4750000000000001
210
0
220
0
230
1
0
CIRCLE
5
108
100
AcDbEntity
8
0
100
AcDbCircle
10
206.74086254752001
20
-229.78539457820003
30
0
40
1.5000000000000002
210
0
220
0
230
1
0
CIRCLE
5
109
100
AcDbEntity
8
0
100
AcDbCircle
10
208.60922920011004
20
-233.07503073620001
30
0
40
0.85089999999999999
210
0
220
0
230
1
0
CIRCLE
5
110
100
AcDbEntity
8
0
100
AcDbCircle
10
205.52773279988003
20
-254.81219626370003
30
0
40
0.85089999999999999
210
0
220
0
230
1
0
CIRCLE
5
111
100
AcDbEntity
8
0
100
AcDbCircle
10
210.62724400000002
20
-252.75186000000002
30
0
40
2.4750000000000001
210
0
220
0
230
1
0
CIRCLE
5
112
100
AcDbEntity
8
0
100
AcDbCircle
10
208.30828602896003
20
-258.7578931274
30
0
40
1.4750000000000001
210
0
220
0
230
1
0
CIRCLE
5
113
100
AcDbEntity
8
0
100
AcDbCircle
10
215.72675520011003
20
-250.6915237362
30
0
40
0.85089999999999999
210
0
220
0
230
1
0
CIRCLE
5
114
100
AcDbEntity
8
0
100
AcDbCircle
10
215.19190993401
20
-257.10919002079999
30
0
40
1.4750000000000001
210
0
220
0
230
1
0
CIRCLE
5
115
100
AcDbEntity
8
0
100
AcDbCircle
10
227.79781202896004
20
-256.2762871274
30
0
40
1.4750000000000001
210
0
220
0
230
1
0
CIRCLE
5
116
100
AcDbEntity
8
0
100
AcDbCircle
10
225.01725879988001
20
-252.3305902637
30
0
40
0.85089999999999999
210
0
220
0
230
1
0
CIRCLE
5
117
100
AcDbEntity
8
0
100
AcDbCircle
10
208.39833476916999
20
-247.23511606529999
30
0
40
1.5000000000000002
210
0
220
0
230
1
0
CIRCLE
5
118
100
AcDbEntity
8
0
100
AcDbCircle
10
213.85838854752001
20
-247.40188757819999
30
0
40
1.5000000000000002
210
0
220
0
230
1
0
CIRCLE
5
119
100
AcDbEntity
8
0
100
AcDbCircle
10
94.499471009399997
20
-255.3557182527
30
0
40
0.5
210
0
220
0
230
1
0
CIRCLE
5
120
100
AcDbEntity
8
0
100
AcDbCircle
10
220.97591354752001
20
-265.01838157819998
30
0
40
1.5000000000000002
210
0
220
0
230
1
0
CIRCLE
5
121
100
AcDbEntity
8
0
100
AcDbCircle
10
222.84428020011003
20
-268.30801773619999
30
0
40
0.85089999999999999
210
0
220
0
230
1
0
CIRCLE
5
122
100
AcDbEntity
8
0
100
AcDbCircle
10
222.30943493401
20
-274.72568402080003
30
0
40
1.4750000000000001
210
0
220
0
230
1
0
CIRCLE
5
123
100
AcDbEntity
8
0
100
AcDbCircle
10
73.997769200117006
20
-272.43472626369999
30
0
40
0.85089999999999999
210
0
220
0
230
1
0
CIRCLE
5
124
100
AcDbEntity
8
0
100
AcDbCircle
10
74.938951998144006
20
-268.77048351240001
30
0
40
1.5000000000000002
210
0
220
0
230
1
0
CIRCLE
5
125
100
AcDbEntity
8
0
100
AcDbCircle
10
76.272473109732005
20
-259.06318130659997
30
0
40
1.4750000000000001
210
0
220
0
230
1
0
CIRCLE
5
126
100
AcDbEntity
8
0
100
AcDbCircle
10
77.293048050850999
20
-237.8508991054
30
0
40
1.4750000000000001
210
0
220
0
230
1
0
CIRCLE
5
127
100
AcDbEntity
8
0
100
AcDbCircle
10
76.015782999999999
20
-252.75789700000004
30
0
40
2.4750000000000001
210
0
220
0
230
1
0
CIRCLE
5
128
100
AcDbEntity
8
0
100
AcDbCircle
10
101.6169960094
20
-237.73922525270001
30
0
40
0.5
210
0
220
0
230
1
0
CIRCLE
5
129
100
AcDbEntity
8
0
100
AcDbCircle
10
99.261949018801019
20
-236.78772450540004
30
0
40
0.5
210
0
220
0
230
1
0
CIRCLE
5
130
100
AcDbEntity
8
0
100
AcDbCircle
10
96.854518000000013
20
-256.30721899999998
30
0
40
0.5
210
0
220
0
230
1
0
CIRCLE
5
131
100
AcDbEntity
8
0
100
AcDbCircle
10
89.789377028201017
20
-253.4527167581
30
0
40
0.5
210
0
220
0
230
1
0
CIRCLE
5
132
100
AcDbEntity
8
0
100
AcDbCircle
10
92.144424018801004
20
-254.4042175054
30
0
40
0.5
210
0
220
0
230
1
0
CIRCLE
5
133
100
AcDbEntity
8
0
100
AcDbCircle
10
83.133308000000014
20
-235.14140400000002
30
0
40
2.4750000000000001
210
0
220
0
230
1
0
CIRCLE
5
134
100
AcDbEntity
8
0
100
AcDbCircle
10
89.174001998144007
20
-233.53749751240002
30
0
40
1.5000000000000002
210
0
220
0
230
1
0
CIRCLE
5
135
100
AcDbEntity
8
0
100
AcDbCircle
10
88.232819200117007
20
-237.20174026370003
30
0
40
0.85089999999999999
210
0
220
0
230
1
0
CIRCLE
5
136
100
AcDbEntity
8
0
100
AcDbCircle
10
82.056476998144007
20
-251.15399051240001
30
0
40
1.5000000000000002
210
0
220
0
230
1
0
CIRCLE
5
137
100
AcDbEntity
8
0
100
AcDbCircle
10
83.389998109732005
20
-241.44668830660004
30
0
40
1.4750000000000001
210
0
220
0
230
1
0
CIRCLE
5
138
100
AcDbEntity
8
0
100
AcDbCircle
10
81.115294200117006
20
-254.81823326370002
30
0
40
0.85089999999999999
210
0
220
0
230
1
0
CIRCLE
5
139
100
AcDbEntity
8
0
100
AcDbCircle
10
78.033796799883007
20
-233.0810677362
30
0
40
0.85089999999999999
210
0
220
0
230
1
0
CIRCLE
5
140
100
AcDbEntity
8
0
100
AcDbCircle
10
78.244692230824995
20
-247.24115306530001
30
0
40
1.5000000000000002
210
0
220
0
230
1
0
CIRCLE
5
141
100
AcDbEntity
8
0
100
AcDbCircle
10
96.906902028201003
20
-235.8362237581
30
0
40
0.5
210
0
220
0
230
1
0
CIRCLE
5
142
100
AcDbEntity
8
0
100
AcDbCircle
10
103.972043
20
-238.69072600000004
30
0
40
0.5
210
0
220
0
230
1
0
CIRCLE
5
143
100
AcDbEntity
8
0
100
AcDbCircle
10
204.00101297179003
20
-271.06778475810006
30
0
40
0.5
210
0
220
0
230
1
0
CIRCLE
5
144
100
AcDbEntity
8
0
100
AcDbCircle
10
201.64596598119002
20
-272.01928550539998
30
0
40
0.5
210
0
220
0
230
1
0
CIRCLE
5
145
100
AcDbEntity
8
0
100
AcDbCircle
10
199.29091899060001
20
-272.97078625270001
30
0
40
0.5
210
0
220
0
230
1
0
CIRCLE
5
146
100
AcDbEntity
8
0
100
AcDbCircle
10
189.81834700000002
20
-256.30579399999999
30
0
40
0.5
210
0
220
0
230
1
0
CIRCLE
5
147
100
AcDbEntity
8
0
100
AcDbCircle
10
192.1733939906
20
-255.35429325270002
30
0
40
0.5
210
0
220
0
230
1
0
CIRCLE
5
148
100
AcDbEntity
8
0
100
AcDbCircle
10
187.41091598118999
20
-236.7862995054
30
0
40
0.5
210
0
220
0
230
1
0
CIRCLE
5
149
100
AcDbEntity
8
0
100
AcDbCircle
10
189.76596297179
20
-235.83479875809999
30
0
40
0.5
210
0
220
0
230
1
0
CIRCLE
5
150
100
AcDbEntity
8
0
100
AcDbCircle
10
196.88348797179003
20
-253.45129175810001
30
0
40
0.5
210
0
220
0
230
1
0
CIRCLE
5
151
100
AcDbEntity
8
0
100
AcDbCircle
10
194.52844098119002
20
-254.40279250540001
30
0
40
0.5
210
0
220
0
230
1
0
CIRCLE
5
152
100
AcDbEntity
8
0
100
AcDbCircle
10
198.41020679988003
20
-237.19570326370004
30
0
40
0.85089999999999999
210
0
220
0
230
1
0
CIRCLE
5
153
100
AcDbEntity
8
0
100
AcDbCircle
10
203.50971799999999
20
-235.13536700000003
30
0
40
2.4750000000000001
210
0
220
0
230
1
0
CIRCLE
5
154
100
AcDbEntity
8
0
100
AcDbCircle
10
201.19076002896003
20
-241.1414001274
30
0
40
1.4750000000000001
210
0
220
0
230
1
0
CIRCLE
5
155
100
AcDbEntity
8
0
100
AcDbCircle
10
185.05586899060003
20
-237.7378002527
30
0
40
0.5
210
0
220
0
230
1
0
CIRCLE
5
156
100
AcDbEntity
8
0
100
AcDbCircle
10
182.70082200000002
20
-238.689301
30
0
40
0.5
210
0
220
0
230
1
0
CIRCLE
5
157
100
AcDbEntity
8
0
100
AcDbCircle
10
85.362217230824996
20
-229.62466006530002
30
0
40
1.5000000000000002
210
0
220
0
230
1
0
CIRCLE
5
158
100
AcDbEntity
8
0
100
AcDbCircle
10
201.28080876916999
20
-229.61862306530003
30
0
40
1.5000000000000002
210
0
220
0
230
1
0
CIRCLE
5
159
100
AcDbEntity
8
0
100
AcDbCircle
10
26.018175200117
20
-239.02876026370001
30
0
40
0.85089999999999999
210
0
220
0
230
1
0
CIRCLE
5
160
100
AcDbEntity
8
0
100
AcDbCircle
10
24.819693799883002
20
-263.35084173619998
30
0
40
0.85089999999999999
210
0
220
0
230
1
0
CIRCLE
5
161
100
AcDbEntity
8
0
100
AcDbCircle
10
29.919205000000005
20
-265.41117800000001
30
0
40
2.4750000000000001
210
0
220
0
230
1
0
CIRCLE
5
162
100
AcDbEntity
8
0
100
AcDbCircle
10
32.148114230825001
20
-259.8944340653
30
0
40
1.5000000000000002
210
0
220
0
230
1
0
CIRCLE
5
163
100
AcDbEntity
8
0
100
AcDbCircle
10
24.078945050851001
20
-268.12067310539999
30
0
40
1.4750000000000001
210
0
220
0
230
1
0
CIRCLE
5
164
100
AcDbEntity
8
0
100
AcDbCircle
10
31.196471050851002
20
-250.5041801054
30
0
40
1.4750000000000001
210
0
220
0
230
1
0
CIRCLE
5
165
100
AcDbEntity
8
0
100
AcDbCircle
10
37.036731000000003
20
-247.79468500000002
30
0
40
2.4750000000000001
210
0
220
0
230
1
0
CIRCLE
5
166
100
AcDbEntity
8
0
100
AcDbCircle
10
39.265640230824999
20
-242.27794106530001
30
0
40
1.5000000000000002
210
0
220
0
230
1
0
CIRCLE
5
167
100
AcDbEntity
8
0
100
AcDbCircle
10
37.293421109732002
20
-254.0999693066
30
0
40
1.4750000000000001
210
0
220
0
230
1
0
CIRCLE
5
168
100
AcDbEntity
8
0
100
AcDbCircle
10
44.410946109732009
20
-236.48347630660001
30
0
40
1.4750000000000001
210
0
220
0
230
1
0
CIRCLE
5
169
100
AcDbEntity
8
0
100
AcDbCircle
10
43.077424998143997
20
-246.19077851240002
30
0
40
1.5000000000000002
210
0
220
0
230
1
0
CIRCLE
5
170
100
AcDbEntity
8
0
100
AcDbCircle
10
26.959357998144
20
-235.36451751240003
30
0
40
1.5000000000000002
210
0
220
0
230
1
0
CIRCLE
5
171
100
AcDbEntity
8
0
100
AcDbCircle
10
31.937219799883003
20
-245.73434873620002
30
0
40
0.85089999999999999
210
0
220
0
230
1
0
CIRCLE
5
172
100
AcDbEntity
8
0
100
AcDbCircle
10
42.13624220011701
20
-249.8550212637
30
0
40
0.85089999999999999
210
0
220
0
230
1
0
CIRCLE
5
173
100
AcDbEntity
8
0
100
AcDbCircle
10
23.147573230825
20
-231.4516800653
30
0
40
1.5000000000000002
210
0
220
0
230
1
0
CIRCLE
5
174
100
AcDbEntity
8
0
100
AcDbCircle
10
71.127167230824995
20
-264.8576460653
30
0
40
1.5000000000000002
210
0
220
0
230
1
0
CIRCLE
5
175
100
AcDbEntity
8
0
100
AcDbCircle
10
70.175523050851012
20
-255.46739210539999
30
0
40
1.4750000000000001
210
0
220
0
230
1
0
CIRCLE
5
176
100
AcDbEntity
8
0
100
AcDbCircle
10
56.782947109732007
20
-256.58157530659997
30
0
40
1.4750000000000001
210
0
220
0
230
1
0
CIRCLE
5
177
100
AcDbEntity
8
0
100
AcDbCircle
10
58.755166230825004
20
-244.75954706530004
30
0
40
1.5000000000000002
210
0
220
0
230
1
0
CIRCLE
5
178
100
AcDbEntity
8
0
100
AcDbCircle
10
61.625768200117008
20
-252.3366272637
30
0
40
0.85089999999999999
210
0
220
0
230
1
0
CIRCLE
5
179
100
AcDbEntity
8
0
100
AcDbCircle
10
62.566950998144009
20
-248.67238451239999
30
0
40
1.5000000000000002
210
0
220
0
230
1
0
CIRCLE
5
180
100
AcDbEntity
8
0
100
AcDbCircle
10
56.526257000000008
20
-250.27629099999999
30
0
40
2.4750000000000001
210
0
220
0
230
1
0
CIRCLE
5
181
100
AcDbEntity
8
0
100
AcDbCircle
10
70.916271799883006
20
-250.69756073619999
30
0
40
0.85089999999999999
210
0
220
0
230
1
0
CIRCLE
5
182
100
AcDbEntity
8
0
100
AcDbCircle
10
63.900472109732007
20
-238.96508230660004
30
0
40
1.4750000000000001
210
0
220
0
230
1
0
CIRCLE
5
183
100
AcDbEntity
8
0
100
AcDbCircle
10
50.685997050851
20
-252.98578610540002
30
0
40
1.4750000000000001
210
0
220
0
230
1
0
CIRCLE
5
184
100
AcDbEntity
8
0
100
AcDbCircle
10
49.408732000000001
20
-267.89278400000001
30
0
40
2.4750000000000001
210
0
220
0
230
1
0
CIRCLE
5
185
100
AcDbEntity
8
0
100
AcDbCircle
10
51.637641230825004
20
-262.3760400653
30
0
40
1.5000000000000002
210
0
220
0
230
1
0
CIRCLE
5
186
100
AcDbEntity
8
0
100
AcDbCircle
10
51.426745799883008
20
-248.21595473619999
30
0
40
0.85089999999999999
210
0
220
0
230
1
0
CIRCLE
5
187
100
AcDbEntity
8
0
100
AcDbCircle
10
63.643782000000009
20
-232.65979799999999
30
0
40
2.4750000000000001
210
0
220
0
230
1
0
CIRCLE
5
188
100
AcDbEntity
8
0
100
AcDbCircle
10
69.684475998143995
20
-231.0558915124
30
0
40
1.5000000000000002
210
0
220
0
230
1
0
CIRCLE
5
189
100
AcDbEntity
8
0
100
AcDbCircle
10
68.743293200116995
20
-234.7201342637
30
0
40
0.85089999999999999
210
0
220
0
230
1
0
CIRCLE
5
190
100
AcDbEntity
8
0
100
AcDbCircle
10
57.803522050851008
20
-235.36929310540003
30
0
40
1.4750000000000001
210
0
220
0
230
1
0
CIRCLE
5
191
100
AcDbEntity
8
0
100
AcDbCircle
10
44.154255999999997
20
-230.17819200000002
30
0
40
2.4750000000000001
210
0
220
0
230
1
0
CIRCLE
5
192
100
AcDbEntity
8
0
100
AcDbCircle
10
50.194949998143997
20
-228.57428551240002
30
0
40
1.5000000000000002
210
0
220
0
230
1
0
CIRCLE
5
193
100
AcDbEntity
8
0
100
AcDbCircle
10
49.253767200116997
20
-232.23852826370003
30
0
40
0.85089999999999999
210
0
220
0
230
1
0
CIRCLE
5
194
100
AcDbEntity
8
0
100
AcDbCircle
10
39.054744799882997
20
-228.1178557362
30
0
40
0.85089999999999999
210
0
220
0
230
1
0
CIRCLE
5
195
100
AcDbEntity
8
0
100
AcDbCircle
10
38.313996050851003
20
-232.8876871054
30
0
40
1.4750000000000001
210
0
220
0
230
1
0
CIRCLE
5
196
100
AcDbEntity
8
0
100
AcDbCircle
10
65.872691230824998
20
-227.14305406530002
30
0
40
1.5000000000000002
210
0
220
0
230
1
0
CIRCLE
5
197
100
AcDbEntity
8
0
100
AcDbCircle
10
58.544270799883009
20
-230.59946173620003
30
0
40
0.85089999999999999
210
0
220
0
230
1
0
CIRCLE
5
198
100
AcDbEntity
8
0
100
AcDbCircle
10
35.410404109731999
20
-208.0407223066
30
0
40
1.4750000000000001
210
0
220
0
230
1
0
CIRCLE
5
199
100
AcDbEntity
8
0
100
AcDbCircle
10
199.62333754752001
20
-212.16890157820004
30
0
40
1.5000000000000002
210
0
220
0
230
1
0
CIRCLE
5
200
100
AcDbEntity
8
0
100
AcDbCircle
10
200.95685893401
20
-221.8762040208
30
0
40
1.4750000000000001
210
0
220
0
230
1
0
CIRCLE
5
201
100
AcDbEntity
8
0
100
AcDbCircle
10
201.49170420011004
20
-215.45853773619999
30
0
40
0.85089999999999999
210
0
220
0
230
1
0
CIRCLE
5
202
100
AcDbEntity
8
0
100
AcDbCircle
10
196.39219300000002
20
-217.51887400000001
30
0
40
2.4750000000000001
210
0
220
0
230
1
0
CIRCLE
5
203
100
AcDbEntity
8
0
100
AcDbCircle
10
191.29268179988
20
-219.57921026370002
30
0
40
0.85089999999999999
210
0
220
0
230
1
0
CIRCLE
5
204
100
AcDbEntity
8
0
100
AcDbCircle
10
180.79406997179004
20
-218.9675187581
30
0
40
0.5
210
0
220
0
230
1
0
CIRCLE
5
205
100
AcDbEntity
8
0
100
AcDbCircle
10
96.291527998144005
20
-215.92100351240003
30
0
40
1.5000000000000002
210
0
220
0
230
1
0
CIRCLE
5
206
100
AcDbEntity
8
0
100
AcDbCircle
10
95.350345200117005
20
-219.58524626370001
30
0
40
0.85089999999999999
210
0
220
0
230
1
0
CIRCLE
5
207
100
AcDbEntity
8
0
100
AcDbCircle
10
84.410574050851011
20
-220.23440510539999
30
0
40
1.4750000000000001
210
0
220
0
230
1
0
CIRCLE
5
208
100
AcDbEntity
8
0
100
AcDbCircle
10
90.250833999999998
20
-217.52491000000003
30
0
40
2.4750000000000001
210
0
220
0
230
1
0
CIRCLE
5
209
100
AcDbEntity
8
0
100
AcDbCircle
10
112.94393599999999
20
-221.82344599999999
30
0
40
0.5
210
0
220
0
230
1
0
CIRCLE
5
210
100
AcDbEntity
8
0
100
AcDbCircle
10
110.58888900940002
20
-220.87194525270002
30
0
40
0.5
210
0
220
0
230
1
0
CIRCLE
5
211
100
AcDbEntity
8
0
100
AcDbCircle
10
105.87879502820002
20
-218.96894375810004
30
0
40
0.5
210
0
220
0
230
1
0
CIRCLE
5
212
100
AcDbEntity
8
0
100
AcDbCircle
10
108.23384201880002
20
-219.92044450540004
30
0
40
0.5
210
0
220
0
230
1
0
CIRCLE
5
213
100
AcDbEntity
8
0
100
AcDbCircle
10
194.16328376916999
20
-212.00213006530004
30
0
40
1.5000000000000002
210
0
220
0
230
1
0
CIRCLE
5
214
100
AcDbEntity
8
0
100
AcDbCircle
10
45.431521050851003
20
-215.27119310540002
30
0
40
1.4750000000000001
210
0
220
0
230
1
0
CIRCLE
5
215
100
AcDbEntity
8
0
100
AcDbCircle
10
46.172269799882997
20
-210.50136173620004
30
0
40
0.85089999999999999
210
0
220
0
230
1
0
CIRCLE
5
216
100
AcDbEntity
8
0
100
AcDbCircle
10
51.271781000000004
20
-212.56169800000004
30
0
40
2.4750000000000001
210
0
220
0
230
1
0
CIRCLE
5
217
100
AcDbEntity
8
0
100
AcDbCircle
10
56.371292200117004
20
-214.62203426369999
30
0
40
0.85089999999999999
210
0
220
0
230
1
0
CIRCLE
5
218
100
AcDbEntity
8
0
100
AcDbCircle
10
57.312474998144005
20
-210.95779151240004
30
0
40
1.5000000000000002
210
0
220
0
230
1
0
CIRCLE
5
219
100
AcDbEntity
8
0
100
AcDbCircle
10
51.52847110973201
20
-218.86698230660002
30
0
40
1.4750000000000001
210
0
220
0
230
1
0
CIRCLE
5
220
100
AcDbEntity
8
0
100
AcDbCircle
10
72.990216230824998
20
-209.52656006530003
30
0
40
1.5000000000000002
210
0
220
0
230
1
0
CIRCLE
5
221
100
AcDbEntity
8
0
100
AcDbCircle
10
70.761307000000002
20
-215.04330400000001
30
0
40
2.4750000000000001
210
0
220
0
230
1
0
CIRCLE
5
222
100
AcDbEntity
8
0
100
AcDbCircle
10
65.661795799882995
20
-212.98296773620001
30
0
40
0.85089999999999999
210
0
220
0
230
1
0
CIRCLE
5
223
100
AcDbEntity
8
0
100
AcDbCircle
10
64.921047050851001
20
-217.75279910540002
30
0
40
1.4750000000000001
210
0
220
0
230
1
0
CIRCLE
5
224
100
AcDbEntity
8
0
100
AcDbCircle
10
71.017997109731994
20
-221.34858830659999
30
0
40
1.4750000000000001
210
0
220
0
230
1
0
CIRCLE
5
225
100
AcDbEntity
8
0
100
AcDbCircle
10
46.383165230825007
20
-224.66144806529999
30
0
40
1.5000000000000002
210
0
220
0
230
1
0
CIRCLE
5
226
100
AcDbEntity
8
0
100
AcDbCircle
10
92.479743230825008
20
-212.0081660653
30
0
40
1.5000000000000002
210
0
220
0
230
1
0
CIRCLE
5
227
100
AcDbEntity
8
0
100
AcDbCircle
10
90.507524109732017
20
-223.83019430659999
30
0
40
1.4750000000000001
210
0
220
0
230
1
0
CIRCLE
5
228
100
AcDbEntity
8
0
100
AcDbCircle
10
85.151322799883005
20
-215.46457373620001
30
0
40
0.85089999999999999
210
0
220
0
230
1
0
CIRCLE
5
229
100
AcDbEntity
8
0
100
AcDbCircle
10
76.802000998143996
20
-213.43939751240001
30
0
40
1.5000000000000002
210
0
220
0
230
1
0
CIRCLE
5
230
100
AcDbEntity
8
0
100
AcDbCircle
10
75.860818200116995
20
-217.10364026370002
30
0
40
0.85089999999999999
210
0
220
0
230
1
0
CIRCLE
5
231
100
AcDbEntity
8
0
100
AcDbCircle
10
34.076882998144001
20
-217.74802451240004
30
0
40
1.5000000000000002
210
0
220
0
230
1
0
CIRCLE
5
232
100
AcDbEntity
8
0
100
AcDbCircle
10
33.135700200117
20
-221.41226726370002
30
0
40
0.85089999999999999
210
0
220
0
230
1
0
CIRCLE
5
233
100
AcDbEntity
8
0
100
AcDbCircle
10
173.72892899999999
20
-221.82202100000001
30
0
40
0.5
210
0
220
0
230
1
0
CIRCLE
5
234
100
AcDbEntity
8
0
100
AcDbCircle
10
176.08397599060001
20
-220.8705202527
30
0
40
0.5
210
0
220
0
230
1
0
CIRCLE
5
235
100
AcDbEntity
8
0
100
AcDbCircle
10
178.43902298119002
20
-219.9190195054
30
0
40
0.5
210
0
220
0
230
1
0
CIRCLE
5
236
100
AcDbEntity
8
0
100
AcDbCircle
10
194.07323502896003
20
-223.52490712740004
30
0
40
1.4750000000000001
210
0
220
0
230
1
0
CIRCLE
5
237
100
AcDbEntity
8
0
100
AcDbCircle
10
213.56276102896004
20
-221.04330112740001
30
0
40
1.4750000000000001
210
0
220
0
230
1
0
CIRCLE
5
238
100
AcDbEntity
8
0
100
AcDbCircle
10
213.65280976917003
20
-209.52052406530001
30
0
40
1.5000000000000002
210
0
220
0
230
1
0
CIRCLE
5
239
100
AcDbEntity
8
0
100
AcDbCircle
10
215.88171900000003
20
-215.03726800000004
30
0
40
2.4750000000000001
210
0
220
0
230
1
0
CIRCLE
5
240
100
AcDbEntity
8
0
100
AcDbCircle
10
210.78220779988001
20
-217.09760426369999
30
0
40
0.85089999999999999
210
0
220
0
230
1
0
CIRCLE
5
241
100
AcDbEntity
8
0
100
AcDbCircle
10
219.11286354752002
20
-209.68729557820001
30
0
40
1.5000000000000002
210
0
220
0
230
1
0
CIRCLE
5
242
100
AcDbEntity
8
0
100
AcDbCircle
10
220.98123020011002
20
-212.97693173620002
30
0
40
0.85089999999999999
210
0
220
0
230
1
0
CIRCLE
5
243
100
AcDbEntity
8
0
100
AcDbCircle
10
220.44638493401004
20
-219.3945980208
30
0
40
1.4750000000000001
210
0
220
0
230
1
0
CIRCLE
5
244
100
AcDbEntity
8
0
100
AcDbCircle
10
30.265098230825004
20
-213.8351870653
30
0
40
1.5000000000000002
210
0
220
0
230
1
0
CIRCLE
5
245
100
AcDbEntity
8
0
100
AcDbCircle
10
28.036189
20
-219.35193100000004
30
0
40
2.4750000000000001
210
0
220
0
230
1
0
CIRCLE
5
246
100
AcDbEntity
8
0
100
AcDbCircle
10
28.292879109731999
20
-225.65721530659999
30
0
40
1.4750000000000001
210
0
220
0
230
1
0
CIRCLE
5
247
100
AcDbEntity
8
0
100
AcDbCircle
10
22.195929050851003
20
-222.06142610539999
30
0
40
1.4750000000000001
210
0
220
0
230
1
0
CIRCLE
5
248
100
AcDbEntity
8
0
100
AcDbCircle
10
22.936677799883004
20
-217.29159473620001
30
0
40
0.85089999999999999
210
0
220
0
230
1
0
CIRCLE
5
249
100
AcDbEntity
8
0
100
AcDbCircle
10
182.72776099999999
20
-331.72009500000001
30
0
40
0.5
210
0
220
0
230
1
0
CIRCLE
5
250
100
AcDbEntity
8
0
100
AcDbCircle
10
147.784773
20
-308.42477300000002
30
0
40
0.40000000000000008
210
0
220
0
230
1
0
CIRCLE
5
251
100
AcDbEntity
8
0
100
AcDbCircle
10
143.33000000000001
20
-303.97000000000003
30
0
40
4.2000000000000002
210
0
220
0
230
1
0
CIRCLE
5
252
100
AcDbEntity
8
0
100
AcDbCircle
10
138.875227
20
-299.51522699999998
30
0
40
0.40000000000000008
210
0
220
0
230
1
0
CIRCLE
5
253
100
AcDbEntity
8
0
100
AcDbCircle
10
138.875227
20
-308.42477300000002
30
0
40
0.40000000000000008
210
0
220
0
230
1
0
CIRCLE
5
254
100
AcDbEntity
8
0
100
AcDbCircle
10
147.784773
20
-299.51522699999998
30
0
40
0.40000000000000008
210
0
220
0
230
1
0
CIRCLE
5
255
100
AcDbEntity
8
0
100
AcDbCircle
10
143.33000000000001
20
-310.26999999999998
30
0
40
0.40000000000000008
210
0
220
0
230
1
0
CIRCLE
5
256
100
AcDbEntity
8
0
100
AcDbCircle
10
149.63
20
-303.97000000000003
30
0
40
0.40000000000000008
210
0
220
0
230
1
0
CIRCLE
5
257
100
AcDbEntity
8
0
100
AcDbCircle
10
146.61198100000001
20
-291.85198100000002
30
0
40
0.29999999999999999
210
0
220
0
230
1
0
CIRCLE
5
258
100
AcDbEntity
8
0
100
AcDbCircle
10
143.43000000000001
20
-293.17000000000002
30
0
40
0.29999999999999999
210
0
220
0
230
1
0
CIRCLE
5
259
100
AcDbEntity
8
0
100
AcDbCircle
10
143.33000000000001
20
-297.67000000000002
30
0
40
0.40000000000000008
210
0
220
0
230
1
0
CIRCLE
5
260
100
AcDbEntity
8
0
100
AcDbCircle
10
140.248019
20
-291.85198100000002
30
0
40
0.29999999999999999
210
0
220
0
230
1
0
CIRCLE
5
261
100
AcDbEntity
8
0
100
AcDbCircle
10
137.03
20
-303.97000000000003
30
0
40
0.40000000000000008
210
0
220
0
230
1
0
CIRCLE
5
262
100
AcDbEntity
8
0
100
AcDbCircle
10
89.736992000000001
20
-273.92371200000002
30
0
40
0.5
210
0
220
0
230
1
0
CIRCLE
5
263
100
AcDbEntity
8
0
100
AcDbCircle
10
143.43000000000001
20
-284.17000000000002
30
0
40
0.29999999999999999
210
0
220
0
230
1
0
CIRCLE
5
264
100
AcDbEntity
8
0
100
AcDbCircle
10
138.93000000000001
20
-288.67000000000007
30
0
40
0.29999999999999999
210
0
220
0
230
1
0
CIRCLE
5
265
100
AcDbEntity
8
0
100
AcDbCircle
10
143.43000000000001
20
-288.67000000000007
30
0
40
3.0000000000000004
210
0
220
0
230
1
0
CIRCLE
5
266
100
AcDbEntity
8
0
100
AcDbCircle
10
146.61198100000001
20
-285.48801900000001
30
0
40
0.29999999999999999
210
0
220
0
230
1
0
CIRCLE
5
267
100
AcDbEntity
8
0
100
AcDbCircle
10
140.248019
20
-285.48801900000001
30
0
40
0.29999999999999999
210
0
220
0
230
1
0
CIRCLE
5
268
100
AcDbEntity
8
0
100
AcDbCircle
10
147.93000000000001
20
-288.67000000000007
30
0
40
0.29999999999999999
210
0
220
0
230
1
0
CIRCLE
5
269
100
AcDbEntity
8
0
100
AcDbCircle
10
103.73000000000002
20
-331.67000000000002
30
0
40
0.5
210
0
220
0
230
1
0
CIRCLE
5
270
100
AcDbEntity
8
0
100
AcDbCircle
10
30.379666505446998
20
-285.73302098110003
30
0
40
0.5
210
0
220
0
230
1
0
CIRCLE
5
271
100
AcDbEntity
8
0
100
AcDbCircle
10
32.282668000000001
20
-281.02292699999998
30
0
40
0.5
210
0
220
0
230
1
0
CIRCLE
5
272
100
AcDbEntity
8
0
100
AcDbCircle
10
31.331167252724001
20
-283.37797399060003
30
0
40
0.5
210
0
220
0
230
1
0
CIRCLE
5
273
100
AcDbEntity
8
0
100
AcDbCircle
10
30.175895109732004
20
-271.71646230660002
30
0
40
1.4750000000000001
210
0
220
0
230
1
0
CIRCLE
5
274
100
AcDbEntity
8
0
100
AcDbCircle
10
49.665422109732006
20
-274.19806830660002
30
0
40
1.4750000000000001
210
0
220
0
230
1
0
CIRCLE
5
275
100
AcDbEntity
8
0
100
AcDbCircle
10
29.428165758171005
20
-288.08806797170001
30
0
40
0.5
210
0
220
0
230
1
0
CIRCLE
5
276
100
AcDbEntity
8
0
100
AcDbCircle
10
87.381945009399999
20
-272.97221125269999
30
0
40
0.5
210
0
220
0
230
1
0
CIRCLE
5
277
100
AcDbEntity
8
0
100
AcDbCircle
10
85.026898018801006
20
-272.02071050540002
30
0
40
0.5
210
0
220
0
230
1
0
CIRCLE
5
278
100
AcDbEntity
8
0
100
AcDbCircle
10
69.154948109732004
20
-276.67967430660002
30
0
40
1.4750000000000001
210
0
220
0
230
1
0
CIRCLE
5
279
100
AcDbEntity
8
0
100
AcDbCircle
10
196.93587199999999
20
-273.92228699999998
30
0
40
0.5
210
0
220
0
230
1
0
CIRCLE
5
280
100
AcDbEntity
8
0
100
AcDbCircle
10
35.018716200116998
20
-267.47151426369999
30
0
40
0.85089999999999999
210
0
220
0
230
1
0
CIRCLE
5
281
100
AcDbEntity
8
0
100
AcDbCircle
10
35.959898998143998
20
-263.80727151240001
30
0
40
1.5000000000000002
210
0
220
0
230
1
0
CIRCLE
5
282
100
AcDbEntity
8
0
100
AcDbCircle
10
43.568472050851
20
-270.60227910539999
30
0
40
1.4750000000000001
210
0
220
0
230
1
0
CIRCLE
5
283
100
AcDbEntity
8
0
100
AcDbCircle
10
44.309220799883001
20
-265.83244773619998
30
0
40
0.85089999999999999
210
0
220
0
230
1
0
CIRCLE
5
284
100
AcDbEntity
8
0
100
AcDbCircle
10
54.508243200117008
20
-269.95312026370004
30
0
40
0.85089999999999999
210
0
220
0
230
1
0
CIRCLE
5
285
100
AcDbEntity
8
0
100
AcDbCircle
10
55.449425998144008
20
-266.28887751240001
30
0
40
1.5000000000000002
210
0
220
0
230
1
0
CIRCLE
5
286
100
AcDbEntity
8
0
100
AcDbCircle
10
63.798746799883006
20
-268.31405373619998
30
0
40
0.85089999999999999
210
0
220
0
230
1
0
CIRCLE
5
287
100
AcDbEntity
8
0
100
AcDbCircle
10
63.057998050851005
20
-273.08388510539999
30
0
40
1.4750000000000001
210
0
220
0
230
1
0
CIRCLE
5
288
100
AcDbEntity
8
0
100
AcDbCircle
10
82.671851028201004
20
-271.06920975809999
30
0
40
0.5
210
0
220
0
230
1
0
CIRCLE
5
289
100
AcDbEntity
8
0
100
AcDbCircle
10
68.898257999999998
20
-270.37439000000001
30
0
40
2.4750000000000001
210
0
220
0
230
1
0
CIRCLE
5
290
100
AcDbEntity
8
0
100
AcDbCircle
10
215.42581102896003
20
-276.37438712739998
30
0
40
1.4750000000000001
210
0
220
0
230
1
0
CIRCLE
5
291
100
AcDbEntity
8
0
100
AcDbCircle
10
217.74476899999999
20
-270.36835400000001
30
0
40
2.4750000000000001
210
0
220
0
230
1
0
CIRCLE
5
292
100
AcDbEntity
8
0
100
AcDbCircle
10
212.64525779988003
20
-272.42869026369999
30
0
40
0.85089999999999999
210
0
220
0
230
1
0
CIRCLE
5
293
100
AcDbEntity
8
0
100
AcDbCircle
10
215.51585976916999
20
-264.85161006530001
30
0
40
1.5000000000000002
210
0
220
0
230
1
0
CIRCLE
5
294
100
AcDbEntity
8
0
100
AcDbCircle
10
268.95550754752003
20
-231.61241557820003
30
0
40
1.5000000000000002
210
0
220
0
230
1
0
CIRCLE
5
295
100
AcDbEntity
8
0
100
AcDbCircle
10
270.82387420011003
20
-234.90205173620001
30
0
40
0.85089999999999999
210
0
220
0
230
1
0
CIRCLE
5
296
100
AcDbEntity
8
0
100
AcDbCircle
10
270.28902893400999
20
-241.31971802080002
30
0
40
1.4750000000000001
210
0
220
0
230
1
0
CIRCLE
5
297
100
AcDbEntity
8
0
100
AcDbCircle
10
270.52293002895999
20
-260.5849141274
30
0
40
1.4750000000000001
210
0
220
0
230
1
0
CIRCLE
5
298
100
AcDbEntity
8
0
100
AcDbCircle
10
270.61297876917001
20
-249.06213706529999
30
0
40
1.5000000000000002
210
0
220
0
230
1
0
CIRCLE
5
299
100
AcDbEntity
8
0
100
AcDbCircle
10
267.74237679987999
20
-256.6392172637
30
0
40
0.85089999999999999
210
0
220
0
230
1
0
CIRCLE
5
300
100
AcDbEntity
8
0
100
AcDbCircle
10
263.40540502895999
20
-242.96842112740001
30
0
40
1.4750000000000001
210
0
220
0
230
1
0
CIRCLE
5
301
100
AcDbEntity
8
0
100
AcDbCircle
10
263.49545376917001
20
-231.44564406530003
30
0
40
1.5000000000000002
210
0
220
0
230
1
0
CIRCLE
5
302
100
AcDbEntity
8
0
100
AcDbCircle
10
265.72436299999998
20
-236.96238800000003
30
0
40
2.4750000000000001
210
0
220
0
230
1
0
CIRCLE
5
303
100
AcDbEntity
8
0
100
AcDbCircle
10
259.95496554751998
20
-260.05516957819998
30
0
40
1.5000000000000002
210
0
220
0
230
1
0
CIRCLE
5
304
100
AcDbEntity
8
0
100
AcDbCircle
10
260.62485179988005
20
-239.02272426370004
30
0
40
0.85089999999999999
210
0
220
0
230
1
0
CIRCLE
5
305
100
AcDbEntity
8
0
100
AcDbCircle
10
240.46543954751999
20
-262.53677557819998
30
0
40
1.5000000000000002
210
0
220
0
230
1
0
CIRCLE
5
306
100
AcDbEntity
8
0
100
AcDbCircle
10
247.37738676917002
20
-242.27190406529999
30
0
40
1.5000000000000002
210
0
220
0
230
1
0
CIRCLE
5
307
100
AcDbEntity
8
0
100
AcDbCircle
10
240.16981302895999
20
-236.17818812740001
30
0
40
1.4750000000000001
210
0
220
0
230
1
0
CIRCLE
5
308
100
AcDbEntity
8
0
100
AcDbCircle
10
247.05343693401002
20
-234.52948502080002
30
0
40
1.4750000000000001
210
0
220
0
230
1
0
CIRCLE
5
309
100
AcDbEntity
8
0
100
AcDbCircle
10
254.70580720011
20
-245.72831173620003
30
0
40
0.85089999999999999
210
0
220
0
230
1
0
CIRCLE
5
310
100
AcDbEntity
8
0
100
AcDbCircle
10
237.38925979987999
20
-232.23249126370004
30
0
40
0.85089999999999999
210
0
220
0
230
1
0
CIRCLE
5
311
100
AcDbEntity
8
0
100
AcDbCircle
10
232.13478379988004
20
-269.94708426369999
30
0
40
0.85089999999999999
210
0
220
0
230
1
0
CIRCLE
5
312
100
AcDbEntity
8
0
100
AcDbCircle
10
237.23429500000003
20
-267.88674800000001
30
0
40
2.4750000000000001
210
0
220
0
230
1
0
CIRCLE
5
313
100
AcDbEntity
8
0
100
AcDbCircle
10
235.00538576917
20
-262.37000406530001
30
0
40
1.5000000000000002
210
0
220
0
230
1
0
CIRCLE
5
314
100
AcDbEntity
8
0
100
AcDbCircle
10
235.21628120011002
20
-248.2099177362
30
0
40
0.85089999999999999
210
0
220
0
230
1
0
CIRCLE
5
315
100
AcDbEntity
8
0
100
AcDbCircle
10
230.11677000000003
20
-250.27025399999999
30
0
40
2.4750000000000001
210
0
220
0
230
1
0
CIRCLE
5
316
100
AcDbEntity
8
0
100
AcDbCircle
10
234.68143593401004
20
-254.62758402079999
30
0
40
1.4750000000000001
210
0
220
0
230
1
0
CIRCLE
5
317
100
AcDbEntity
8
0
100
AcDbCircle
10
242.33380620011002
20
-265.82641173619999
30
0
40
0.85089999999999999
210
0
220
0
230
1
0
CIRCLE
5
318
100
AcDbEntity
8
0
100
AcDbCircle
10
241.79896093401001
20
-272.24407802079998
30
0
40
1.4750000000000001
210
0
220
0
230
1
0
CIRCLE
5
319
100
AcDbEntity
8
0
100
AcDbCircle
10
234.91533702896004
20
-273.89278112739999
30
0
40
1.4750000000000001
210
0
220
0
230
1
0
CIRCLE
5
320
100
AcDbEntity
8
0
100
AcDbCircle
10
254.40486302896002
20
-271.41117512739999
30
0
40
1.4750000000000001
210
0
220
0
230
1
0
CIRCLE
5
321
100
AcDbEntity
8
0
100
AcDbCircle
10
251.62430979988002
20
-267.46547826369999
30
0
40
0.85089999999999999
210
0
220
0
230
1
0
CIRCLE
5
322
100
AcDbEntity
8
0
100
AcDbCircle
10
256.72382099999999
20
-265.40514200000007
30
0
40
2.4750000000000001
210
0
220
0
230
1
0
CIRCLE
5
323
100
AcDbEntity
8
0
100
AcDbCircle
10
247.28733802896002
20
-253.7946811274
30
0
40
1.4750000000000001
210
0
220
0
230
1
0
CIRCLE
5
324
100
AcDbEntity
8
0
100
AcDbCircle
10
254.17096193400999
20
-252.14597802079999
30
0
40
1.4750000000000001
210
0
220
0
230
1
0
CIRCLE
5
325
100
AcDbEntity
8
0
100
AcDbCircle
10
254.49491176917002
20
-259.88839806530001
30
0
40
1.5000000000000002
210
0
220
0
230
1
0
CIRCLE
5
326
100
AcDbEntity
8
0
100
AcDbCircle
10
244.50678479987999
20
-249.8489842637
30
0
40
0.85089999999999999
210
0
220
0
230
1
0
CIRCLE
5
327
100
AcDbEntity
8
0
100
AcDbCircle
10
261.28848693401
20
-269.76247202079998
30
0
40
1.4750000000000001
210
0
220
0
230
1
0
CIRCLE
5
328
100
AcDbEntity
8
0
100
AcDbCircle
10
261.82333220010997
20
-263.34480573619999
30
0
40
0.85089999999999999
210
0
220
0
230
1
0
CIRCLE
5
329
100
AcDbEntity
8
0
100
AcDbCircle
10
233.34791454752002
20
-244.92028157820002
30
0
40
1.5000000000000002
210
0
220
0
230
1
0
CIRCLE
5
330
100
AcDbEntity
8
0
100
AcDbCircle
10
227.88786076917003
20
-244.75351006530002
30
0
40
1.5000000000000002
210
0
220
0
230
1
0
CIRCLE
5
331
100
AcDbEntity
8
0
100
AcDbCircle
10
252.83744054752003
20
-242.43867557819999
30
0
40
1.5000000000000002
210
0
220
0
230
1
0
CIRCLE
5
332
100
AcDbEntity
8
0
100
AcDbCircle
10
249.60629600000001
20
-247.78864800000002
30
0
40
2.4750000000000001
210
0
220
0
230
1
0
CIRCLE
5
333
100
AcDbEntity
8
0
100
AcDbCircle
10
258.60683799999998
20
-219.34589500000001
30
0
40
2.4750000000000001
210
0
220
0
230
1
0
CIRCLE
5
334
100
AcDbEntity
8
0
100
AcDbCircle
10
263.70634920011003
20
-217.28555873619999
30
0
40
0.85089999999999999
210
0
220
0
230
1
0
CIRCLE
5
335
100
AcDbEntity
8
0
100
AcDbCircle
10
263.17150393400999
20
-223.70322502080001
30
0
40
1.4750000000000001
210
0
220
0
230
1
0
CIRCLE
5
336
100
AcDbEntity
8
0
100
AcDbCircle
10
256.28788002895999
20
-225.35192812740002
30
0
40
1.4750000000000001
210
0
220
0
230
1
0
CIRCLE
5
337
100
AcDbEntity
8
0
100
AcDbCircle
10
253.50732679987999
20
-221.40623126370002
30
0
40
0.85089999999999999
210
0
220
0
230
1
0
CIRCLE
5
338
100
AcDbEntity
8
0
100
AcDbCircle
10
245.71991554752003
20
-224.8221825782
30
0
40
1.5000000000000002
210
0
220
0
230
1
0
CIRCLE
5
339
100
AcDbEntity
8
0
100
AcDbCircle
10
247.58828220011
20
-228.11181873620001
30
0
40
0.85089999999999999
210
0
220
0
230
1
0
CIRCLE
5
340
100
AcDbEntity
8
0
100
AcDbCircle
10
242.48877100000001
20
-230.17215500000003
30
0
40
2.4750000000000001
210
0
220
0
230
1
0
CIRCLE
5
341
100
AcDbEntity
8
0
100
AcDbCircle
10
240.25986176917002
20
-224.6554110653
30
0
40
1.5000000000000002
210
0
220
0
230
1
0
CIRCLE
5
342
100
AcDbEntity
8
0
100
AcDbCircle
10
226.23038854751999
20
-227.3037885782
30
0
40
1.5000000000000002
210
0
220
0
230
1
0
CIRCLE
5
343
100
AcDbEntity
8
0
100
AcDbCircle
10
255.26545150544001
20
-283.16463401880003
30
0
40
0.5
210
0
220
0
230
1
0
CIRCLE
5
344
100
AcDbEntity
8
0
100
AcDbCircle
10
254.31395075816999
20
-280.80958702819999
30
0
40
0.5
210
0
220
0
230
1
0
CIRCLE
5
345
100
AcDbEntity
8
0
100
AcDbCircle
10
256.21695225271998
20
-285.51968100940002
30
0
40
0.5
210
0
220
0
230
1
0
CIRCLE
5
346
100
AcDbEntity
8
0
100
AcDbCircle
10
261.83798254752003
20
-213.99592257820004
30
0
40
1.5000000000000002
210
0
220
0
230
1
0
CIRCLE
5
347
100
AcDbEntity
8
0
100
AcDbCircle
10
256.37792876917001
20
-213.82915106530004
30
0
40
1.5000000000000002
210
0
220
0
230
1
0
CIRCLE
5
348
100
AcDbEntity
8
0
100
AcDbCircle
10
235.37124500000002
20
-212.55566200000004
30
0
40
2.4750000000000001
210
0
220
0
230
1
0
CIRCLE
5
349
100
AcDbEntity
8
0
100
AcDbCircle
10
240.47075620011
20
-210.49532573619999
30
0
40
0.85089999999999999
210
0
220
0
230
1
0
CIRCLE
5
350
100
AcDbEntity
8
0
100
AcDbCircle
10
239.93591093401
20
-216.91299202080003
30
0
40
1.4750000000000001
210
0
220
0
230
1
0
CIRCLE
5
351
100
AcDbEntity
8
0
100
AcDbCircle
10
233.05228702896002
20
-218.56169512739999
30
0
40
1.4750000000000001
210
0
220
0
230
1
0
CIRCLE
5
352
100
AcDbEntity
8
0
100
AcDbCircle
10
230.27173379988
20
-214.61599826370002
30
0
40
0.85089999999999999
210
0
220
0
230
1
0
CIRCLE
5
353
100
AcDbEntity
8
0
100
AcDbCircle
10
249.17035402896002
20
-207.7354341274
30
0
40
1.4750000000000001
210
0
220
0
230
1
0
CIRCLE
5
354
100
AcDbEntity
8
0
100
AcDbCircle
10
256.05397793400999
20
-206.08673102080002
30
0
40
1.4750000000000001
210
0
220
0
230
1
0
CIRCLE
5
355
100
AcDbEntity
8
0
100
AcDbCircle
10
257.168453
20
-287.874728
30
0
40
0.5
210
0
220
0
230
1
0
CIRCLE
5
356
100
AcDbEntity
8
0
100
AcDbCircle
10
8.7016277998829992
20
-252.52458073620002
30
0
40
0.85089999999999999
210
0
220
0
230
1
0
CIRCLE
5
357
100
AcDbEntity
8
0
100
AcDbCircle
10
7.960879050851001
20
-257.29441210540006
30
0
40
1.4750000000000001
210
0
220
0
230
1
0
CIRCLE
5
358
100
AcDbEntity
8
0
100
AcDbCircle
10
13.801138999999999
20
-254.58491699999999
30
0
40
2.4750000000000001
210
0
220
0
230
1
0
CIRCLE
5
359
100
AcDbEntity
8
0
100
AcDbCircle
10
14.057829109732001
20
-260.89020130659998
30
0
40
1.4750000000000001
210
0
220
0
230
1
0
CIRCLE
5
360
100
AcDbEntity
8
0
100
AcDbCircle
10
15.819152799883
20
-234.90808773620003
30
0
40
0.85089999999999999
210
0
220
0
230
1
0
CIRCLE
5
361
100
AcDbEntity
8
0
100
AcDbCircle
10
15.078404050851002
20
-239.67791910540001
30
0
40
1.4750000000000001
210
0
220
0
230
1
0
CIRCLE
5
362
100
AcDbEntity
8
0
100
AcDbCircle
10
16.030048230824999
20
-249.06817306530002
30
0
40
1.5000000000000002
210
0
220
0
230
1
0
CIRCLE
5
363
100
AcDbEntity
8
0
100
AcDbCircle
10
21.175354109732002
20
-243.27370830660001
30
0
40
1.4750000000000001
210
0
220
0
230
1
0
CIRCLE
5
364
100
AcDbEntity
8
0
100
AcDbCircle
10
19.841832998144
20
-252.98101051239999
30
0
40
1.5000000000000002
210
0
220
0
230
1
0
CIRCLE
5
365
100
AcDbEntity
8
0
100
AcDbCircle
10
20.918664000000003
20
-236.96842400000003
30
0
40
2.4750000000000001
210
0
220
0
230
1
0
CIRCLE
5
366
100
AcDbEntity
8
0
100
AcDbCircle
10
18.900650200116999
20
-256.6452532637
30
0
40
0.85089999999999999
210
0
220
0
230
1
0
CIRCLE
5
367
100
AcDbEntity
8
0
100
AcDbCircle
10
277.94139920011003
20
-252.5185447362
30
0
40
0.85089999999999999
210
0
220
0
230
1
0
CIRCLE
5
368
100
AcDbEntity
8
0
100
AcDbCircle
10
277.40655393400999
20
-258.93621102079999
30
0
40
1.4750000000000001
210
0
220
0
230
1
0
CIRCLE
5
369
100
AcDbEntity
8
0
100
AcDbCircle
10
276.07303254751997
20
-249.22890857819999
30
0
40
1.5000000000000002
210
0
220
0
230
1
0
CIRCLE
5
370
100
AcDbEntity
8
0
100
AcDbCircle
10
272.84188799999998
20
-254.57888100000002
30
0
40
2.4750000000000001
210
0
220
0
230
1
0
CIRCLE
5
371
100
AcDbEntity
8
0
100
AcDbCircle
10
29.313454050851
20
-204.4449331054
30
0
40
1.4750000000000001
210
0
220
0
230
1
0
CIRCLE
5
372
100
AcDbEntity
8
0
100
AcDbCircle
10
40.253225200117001
20
-203.79577426370003
30
0
40
0.85089999999999999
210
0
220
0
230
1
0
CIRCLE
5
373
100
AcDbEntity
8
0
100
AcDbCircle
10
41.194407998144001
20
-200.13153151240002
30
0
40
1.5000000000000002
210
0
220
0
230
1
0
CIRCLE
5
374
100
AcDbEntity
8
0
100
AcDbCircle
10
35.153714000000001
20
-201.73543800000002
30
0
40
2.4750000000000001
210
0
220
0
230
1
0
CIRCLE
5
375
100
AcDbEntity
8
0
100
AcDbCircle
10
30.054202799883001
20
-199.67510173619999
30
0
40
0.85089999999999999
210
0
220
0
230
1
0
CIRCLE
5
376
100
AcDbEntity
8
0
100
AcDbCircle
10
53.500690230825008
20
-207.0449540653
30
0
40
1.5000000000000002
210
0
220
0
230
1
0
CIRCLE
5
377
100
AcDbEntity
8
0
100
AcDbCircle
10
251.48931200000004
20
-201.72940100000002
30
0
40
2.4750000000000001
210
0
220
0
230
1
0
CIRCLE
5
378
100
AcDbEntity
8
0
100
AcDbCircle
10
246.38980079988002
20
-203.78973726370003
30
0
40
0.85089999999999999
210
0
220
0
230
1
0
CIRCLE
5
379
100
AcDbEntity
8
0
100
AcDbCircle
10
238.60238954752003
20
-207.20568957820004
30
0
40
1.5000000000000002
210
0
220
0
230
1
0
CIRCLE
5
380
100
AcDbEntity
8
0
100
AcDbCircle
10
233.14233576917002
20
-207.03891806530004
30
0
40
1.5000000000000002
210
0
220
0
230
1
0
CIRCLE
5
381
100
AcDbEntity
8
0
100
AcDbCircle
10
256.58882320011003
20
-199.6690647362
30
0
40
0.85089999999999999
210
0
220
0
230
1
0
CIRCLE
5
382
100
AcDbEntity
8
0
100
AcDbCircle
10
249.26040276917004
20
-196.21265706529999
30
0
40
1.5000000000000002
210
0
220
0
230
1
0
CIRCLE
5
383
100
AcDbEntity
8
0
100
AcDbCircle
10
37.382623230825004
20
-196.21869406530004
30
0
40
1.5000000000000002
210
0
220
0
230
1
0
CIRCLE
5
384
100
AcDbEntity
8
0
100
AcDbCircle
10
254.72045654752003
20
-196.37942857820002
30
0
40
1.5000000000000002
210
0
220
0
230
1
0
CIRCLE
5
385
100
AcDbEntity
8
0
100
AcDbCircle
10
176.64215841344
20
-336.30592547639998
30
0
40
0.5
210
0
220
0
230
1
0
CIRCLE
5
386
100
AcDbEntity
8
0
100
AcDbCircle
10
178.67069260896
20
-334.77731531760008
30
0
40
0.5
210
0
220
0
230
1
0
CIRCLE
5
387
100
AcDbEntity
8
0
100
AcDbCircle
10
180.69922680447999
20
-333.24870515880002
30
0
40
0.5
210
0
220
0
230
1
0
CIRCLE
5
388
100
AcDbEntity
8
0
100
AcDbCircle
10
105.75853419552001
20
-333.19861015880002
30
0
40
0.5
210
0
220
0
230
1
0
CIRCLE
5
389
100
AcDbEntity
8
0
100
AcDbCircle
10
107.78706839104001
20
-334.72722031759997
30
0
40
0.5
210
0
220
0
230
1
0
CIRCLE
5
390
100
AcDbEntity
8
0
100
AcDbCircle
10
109.81560258656002
20
-336.25583047639998
30
0
40
0.5
210
0
220
0
230
1
0
LWPOLYLINE
5
391
100
AcDbEntity
8
0
100
AcDbPolyline
90
42
70
1
43
0.0
10
110.291449
20
-338.53425800000002
10
176.361819
20
-338.53425800000002
10
220.60928100000001
20
-305.23407600000002
10
258.16022700000008
20
-290.06250899999998
10
258.82332000000008
20
-288.50036
10
255.4144
20
-280.06298700000002
10
257.45893599999999
20
-275.24636299999997
10
267.37980299999998
20
-271.23807199999999
10
268.37444199999999
20
-268.89484900000002
10
269.59011199999998
20
-266.03091000000001
10
283.12699600000002
20
-260.56165399999998
10
284.34266600000001
20
-257.69771500000002
10
257.52083399999998
20
-191.311351
10
254.65689499999999
20
-190.09568100000001
10
222.390897
20
-203.13199100000003
10
221.08910700000001
20
-202.57941299999999
10
208.10853300000002
20
-207.82390599999999
10
201.59958000000003
20
-205.06101900000002
10
183.98308700000001
20
-212.17854500000001
10
181.93855100000002
20
-216.99516900000003
10
155.03
20
-227.87000000000003
10
145.03663399999999
20
-231.90451200000001
10
141.61663400000003
20
-231.90451200000001
10
131.623268
20
-227.87000000000003
10
104.71471700000001
20
-216.99516900000003
10
102.67018100000001
20
-212.17854500000001
10
85.053687999999994
20
-205.06101900000002
10
78.544735000000003
20
-207.82390599999999
10
65.564160999999999
20
-202.57941299999999
10
64.262371000000002
20
-203.13199100000003
10
31.996372999999998
20
-190.09568100000001
10
29.132434000000003
20
-191.311351
10
2.3106019999999994
20
-257.69771500000002
10
3.5262720000000005
20
-260.56165399999998
10
17.063155999999999
20
-266.03091000000001
10
18.278825999999999
20
-268.89484900000002
10
19.273465000000002
20
-271.23807199999999
10
29.194332000000003
20
-275.24636299999997
10
31.238868000000004
20
-280.06298700000002
10
27.829948000000005
20
-288.50036
10
28.493041000000005
20
-290.06250899999998
10
66.043987000000016
20
-305.23407600000002
0
CIRCLE
5
392
100
AcDbEntity
8
0
100
AcDbCircle
10
228.09875520011002
20
-230.59342473620003
30
0
40
0.85089999999999999
210
0
220
-0
230
1
0
CIRCLE
5
393
100
AcDbEntity
8
0
100
AcDbCircle
10
227.56390993401001
20
-237.0110910208
30
0
40
1.4750000000000001
210
0
220
-0
230
1
0
CIRCLE
5
394
100
AcDbEntity
8
0
100
AcDbCircle
10
222.99924400000003
20
-232.653761
30
0
40
2.4750000000000001
210
0
220
-0
230
1
0
CIRCLE
5
395
100
AcDbEntity
8
0
100
AcDbCircle
10
220.68028602896004
20
-238.65979412740003
30
0
40
1.4750000000000001
210
0
220
-0
230
1
0
CIRCLE
5
396
100
AcDbEntity
8
0
100
AcDbCircle
10
220.77033476917001
20
-227.13701706530003
30
0
40
1.5000000000000002
210
0
220
-0
230
1
0
CIRCLE
5
397
100
AcDbEntity
8
0
100
AcDbCircle
10
217.89973279988004
20
-234.71409726370001
30
0
40
0.85089999999999999
210
0
220
-0
230
1
0
CIRCLE
5
398
100
AcDbEntity
8
0
100
AcDbCircle
10
208.07438393401
20
-239.49269702080002
30
0
40
1.4750000000000001
210
0
220
-0
230
1
0
CIRCLE
5
399
100
AcDbEntity
8
0
100
AcDbCircle
10
206.74086254752001
20
-229.78539457820003
30
0
40
1.5000000000000002
210
0
220
-0
230
1
0
CIRCLE
5
400
100
AcDbEntity
8
0
100
AcDbCircle
10
208.60922920011004
20
-233.07503073620001
30
0
40
0.85089999999999999
210
0
220
-0
230
1
0
CIRCLE
5
401
100
AcDbEntity
8
0
100
AcDbCircle
10
205.52773279988003
20
-254.81219626370003
30
0
40
0.85089999999999999
210
0
220
-0
230
1
0
CIRCLE
5
402
100
AcDbEntity
8
0
100
AcDbCircle
10
210.62724400000002
20
-252.75186000000002
30
0
40
2.4750000000000001
210
0
220
-0
230
1
0
CIRCLE
5
403
100
AcDbEntity
8
0
100
AcDbCircle
10
208.30828602896003
20
-258.7578931274
30
0
40
1.4750000000000001
210
0
220
-0
230
1
0
CIRCLE
5
404
100
AcDbEntity
8
0
100
AcDbCircle
10
215.72675520011003
20
-250.6915237362
30
0
40
0.85089999999999999
210
0
220
-0
230
1
0
CIRCLE
5
405
100
AcDbEntity
8
0
100
AcDbCircle
10
215.19190993401
20
-257.10919002079999
30
0
40
1.4750000000000001
210
0
220
-0
230
1
0
CIRCLE
5
406
100
AcDbEntity
8
0
100
AcDbCircle
10
227.79781202896004
20
-256.2762871274
30
0
40
1.4750000000000001
210
0
220
-0
230
1
0
CIRCLE
5
407
100
AcDbEntity
8
0
100
AcDbCircle
10
225.01725879988001
20
-252.3305902637
30
0
40
0.85089999999999999
210
0
220
-0
230
1
0
CIRCLE
5
408
100
AcDbEntity
8
0
100
AcDbCircle
10
208.39833476916999
20
-247.23511606529999
30
0
40
1.5000000000000002
210
0
220
-0
230
1
0
CIRCLE
5
409
100
AcDbEntity
8
0
100
AcDbCircle
10
213.85838854752001
20
-247.40188757819999
30
0
40
1.5000000000000002
210
0
220
-0
230
1
0
CIRCLE
5
410
100
AcDbEntity
8
0
100
AcDbCircle
10
94.499471009399997
20
-255.3557182527
30
0
40
0.5
210
0
220
-0
230
1
0
CIRCLE
5
411
100
AcDbEntity
8
0
100
AcDbCircle
10
220.97591354752001
20
-265.01838157819998
30
0
40
1.5000000000000002
210
0
220
-0
230
1
0
CIRCLE
5
412
100
AcDbEntity
8
0
100
AcDbCircle
10
222.84428020011003
20
-268.30801773619999
30
0
40
0.85089999999999999
210
0
220
-0
230
1
0
CIRCLE
5
413
100
AcDbEntity
8
0
100
AcDbCircle
10
222.30943493401
20
-274.72568402080003
30
0
40
1.4750000000000001
210
0
220
-0
230
1
0
CIRCLE
5
414
100
AcDbEntity
8
0
100
AcDbCircle
10
73.997769200117006
20
-272.43472626369999
30
0
40
0.85089999999999999
210
0
220
-0
230
1
0
CIRCLE
5
415
100
AcDbEntity
8
0
100
AcDbCircle
10
74.938951998144006
20
-268.77048351240001
30
0
40
1.5000000000000002
210
0
220
-0
230
1
0
CIRCLE
5
416
100
AcDbEntity
8
0
100
AcDbCircle
10
76.272473109732005
20
-259.06318130659997
30
0
40
1.4750000000000001
210
0
220
-0
230
1
0
CIRCLE
5
417
100
AcDbEntity
8
0
100
AcDbCircle
10
77.293048050850999
20
-237.8508991054
30
0
40
1.4750000000000001
210
0
220
-0
230
1
0
CIRCLE
5
418
100
AcDbEntity
8
0
100
AcDbCircle
10
76.015782999999999
20
-252.75789700000004
30
0
40
2.4750000000000001
210
0
220
-0
230
1
0
CIRCLE
5
419
100
AcDbEntity
8
0
100
AcDbCircle
10
101.6169960094
20
-237.73922525270001
30
0
40
0.5
210
0
220
-0
230
1
0
CIRCLE
5
420
100
AcDbEntity
8
0
100
AcDbCircle
10
99.261949018801019
20
-236.78772450540004
30
0
40
0.5
210
0
220
-0
230
1
0
CIRCLE
5
421
100
AcDbEntity
8
0
100
AcDbCircle
10
96.854518000000013
20
-256.30721899999998
30
0
40
0.5
210
0
220
-0
230
1
0
CIRCLE
5
422
100
AcDbEntity
8
0
100
AcDbCircle
10
89.789377028201017
20
-253.4527167581
30
0
40
0.5
210
0
220
-0
230
1
0
CIRCLE
5
423
100
AcDbEntity
8
0
100
AcDbCircle
10
92.144424018801004
20
-254.4042175054
30
0
40
0.5
210
0
220
-0
230
1
0
CIRCLE
5
424
100
AcDbEntity
8
0
100
AcDbCircle
10
83.133308000000014
20
-235.14140400000002
30
0
40
2.4750000000000001
210
0
220
-0
230
1
0
CIRCLE
5
425
100
AcDbEntity
8
0
100
AcDbCircle
10
89.174001998144007
20
-233.53749751240002
30
0
40
1.5000000000000002
210
0
220
-0
230
1
0
CIRCLE
5
426
100
AcDbEntity
8
0
100
AcDbCircle
10
88.232819200117007
20
-237.20174026370003
30
0
40
0.85089999999999999
210
0
220
-0
230
1
0
CIRCLE
5
427
100
AcDbEntity
8
0
100
AcDbCircle
10
82.056476998144007
20
-251.15399051240001
30
0
40
1.5000000000000002
210
0
220
-0
230
1
0
CIRCLE
5
428
100
AcDbEntity
8
0
100
AcDbCircle
10
83.389998109732005
20
-241.44668830660004
30
0
40
1.4750000000000001
210
0
220
-0
230
1
0
CIRCLE
5
429
100
AcDbEntity
8
0
100
AcDbCircle
10
81.115294200117006
20
-254.81823326370002
30
0
40
0.85089999999999999
210
0
220
-0
230
1
0
CIRCLE
5
430
100
AcDbEntity
8
0
100
AcDbCircle
10
78.033796799883007
20
-233.0810677362
30
0
40
0.85089999999999999
210
0
220
-0
230
1
0
CIRCLE
5
431
100
AcDbEntity
8
0
100
AcDbCircle
10
78.244692230824995
20
-247.24115306530001
30
0
40
1.5000000000000002
210
0
220
-0
230
1
0
CIRCLE
5
432
100
AcDbEntity
8
0
100
AcDbCircle
10
96.906902028201003
20
-235.8362237581
30
0
40
0.5
210
0
220
-0
230
1
0
CIRCLE
5
433
100
AcDbEntity
8
0
100
AcDbCircle
10
103.972043
20
-238.69072600000004
30
0
40
0.5
210
0
220
-0
230
1
0
CIRCLE
5
434
100
AcDbEntity
8
0
100
AcDbCircle
10
204.00101297179003
20
-271.06778475810006
30
0
40
0.5
210
0
220
-0
230
1
0
CIRCLE
5
435
100
AcDbEntity
8
0
100
AcDbCircle
10
201.64596598119002
20
-272.01928550539998
30
0
40
0.5
210
0
220
-0
230
1
0
CIRCLE
5
436
100
AcDbEntity
8
0
100
AcDbCircle
10
199.29091899060001
20
-272.97078625270001
30
0
40
0.5
210
0
220
-0
230
1
0
CIRCLE
5
437
100
AcDbEntity
8
0
100
AcDbCircle
10
189.81834700000002
20
-256.30579399999999
30
0
40
0.5
210
0
220
-0
230
1
0
CIRCLE
5
438
100
AcDbEntity
8
0
100
AcDbCircle
10
192.1733939906
20
-255.35429325270002
30
0
40
0.5
210
0
220
-0
230
1
0
CIRCLE
5
439
100
AcDbEntity
8
0
100
AcDbCircle
10
187.41091598118999
20
-236.7862995054
30
0
40
0.5
210
0
220
-0
230
1
0
CIRCLE
5
440
100
AcDbEntity
8
0
100
AcDbCircle
10
189.76596297179
20
-235.83479875809999
30
0
40
0.5
210
0
220
-0
230
1
0
CIRCLE
5
441
100
AcDbEntity
8
0
100
AcDbCircle
10
196.88348797179003
20
-253.45129175810001
30
0
40
0.5
210
0
220
-0
230
1
0
CIRCLE
5
442
100
AcDbEntity
8
0
100
AcDbCircle
10
194.52844098119002
20
-254.40279250540001
30
0
40
0.5
210
0
220
-0
230
1
0
CIRCLE
5
443
100
AcDbEntity
8
0
100
AcDbCircle
10
198.41020679988003
20
-237.19570326370004
30
0
40
0.85089999999999999
210
0
220
-0
230
1
0
CIRCLE
5
444
100
AcDbEntity
8
0
100
AcDbCircle
10
203.50971799999999
20
-235.13536700000003
30
0
40
2.4750000000000001
210
0
220
-0
230
1
0
CIRCLE
5
445
100
AcDbEntity
8
0
100
AcDbCircle
10
201.19076002896003
20
-241.1414001274
30
0
40
1.4750000000000001
210
0
220
-0
230
1
0
CIRCLE
5
446
100
AcDbEntity
8
0
100
AcDbCircle
10
185.05586899060003
20
-237.7378002527
30
0
40
0.5
210
0
220
-0
230
1
0
CIRCLE
5
447
100
AcDbEntity
8
0
100
AcDbCircle
10
182.70082200000002
20
-238.689301
30
0
40
0.5
210
0
220
-0
230
1
0
CIRCLE
5
448
100
AcDbEntity
8
0
100
AcDbCircle
10
85.362217230824996
20
-229.62466006530002
30
0
40
1.5000000000000002
210
0
220
-0
230
1
0
CIRCLE
5
449
100
AcDbEntity
8
0
100
AcDbCircle
10
201.28080876916999
20
-229.61862306530003
30
0
40
1.5000000000000002
210
0
220
-0
230
1
0
CIRCLE
5
450
100
AcDbEntity
8
0
100
AcDbCircle
10
26.018175200117
20
-239.02876026370001
30
0
40
0.85089999999999999
210
0
220
-0
230
1
0
CIRCLE
5
451
100
AcDbEntity
8
0
100
AcDbCircle
10
24.819693799883002
20
-263.35084173619998
30
0
40
0.85089999999999999
210
0
220
-0
230
1
0
CIRCLE
5
452
100
AcDbEntity
8
0
100
AcDbCircle
10
29.919205000000005
20
-265.41117800000001
30
0
40
2.4750000000000001
210
0
220
-0
230
1
0
CIRCLE
5
453
100
AcDbEntity
8
0
100
AcDbCircle
10
32.148114230825001
20
-259.8944340653
30
0
40
1.5000000000000002
210
0
220
-0
230
1
0
CIRCLE
5
454
100
AcDbEntity
8
0
100
AcDbCircle
10
24.078945050851001
20
-268.12067310539999
30
0
40
1.4750000000000001
210
0
220
-0
230
1
0
CIRCLE
5
455
100
AcDbEntity
8
0
100
AcDbCircle
10
31.196471050851002
20
-250.5041801054
30
0
40
1.4750000000000001
210
0
220
-0
230
1
0
CIRCLE
5
456
100
AcDbEntity
8
0
100
AcDbCircle
10
37.036731000000003
20
-247.79468500000002
30
0
40
2.4750000000000001
210
0
220
-0
230
1
0
CIRCLE
5
457
100
AcDbEntity
8
0
100
AcDbCircle
10
39.265640230824999
20
-242.27794106530001
30
0
40
1.5000000000000002
210
0
220
-0
230
1
0
CIRCLE
5
458
100
AcDbEntity
8
0
100
AcDbCircle
10
37.293421109732002
20
-254.0999693066
30
0
40
1.4750000000000001
210
0
220
-0
230
1
0
CIRCLE
5
459
100
AcDbEntity
8
0
100
AcDbCircle
10
44.410946109732009
20
-236.48347630660001
30
0
40
1.4750000000000001
210
0
220
-0
230
1
0
CIRCLE
5
460
100
AcDbEntity
8
0
100
AcDbCircle
10
43.077424998143997
20
-246.19077851240002
30
0
40
1.5000000000000002
210
0
220
-0
230
1
0
CIRCLE
5
461
100
AcDbEntity
8
0
100
AcDbCircle
10
26.959357998144
20
-235.36451751240003
30
0
40
1.5000000000000002
210
0
220
-0
230
1
0
CIRCLE
5
462
100
AcDbEntity
8
0
100
AcDbCircle
10
31.937219799883003
20
-245.73434873620002
30
0
40
0.85089999999999999
210
0
220
-0
230
1
0
CIRCLE
5
463
100
AcDbEntity
8
0
100
AcDbCircle
10
42.13624220011701
20
-249.8550212637
30
0
40
0.85089999999999999
210
0
220
-0
230
1
0
CIRCLE
5
464
100
AcDbEntity
8
0
100
AcDbCircle
10
23.147573230825
20
-231.4516800653
30
0
40
1.5000000000000002
210
0
220
-0
230
1
0
CIRCLE
5
465
100
AcDbEntity
8
0
100
AcDbCircle
10
71.127167230824995
20
-264.8576460653
30
0
40
1.5000000000000002
210
0
220
-0
230
1
0
CIRCLE
5
466
100
AcDbEntity
8
0
100
AcDbCircle
10
70.175523050851012
20
-255.46739210539999
30
0
40
1.4750000000000001
210
0
220
-0
230
1
0
CIRCLE
5
467
100
AcDbEntity
8
0
100
AcDbCircle
10
56.782947109732007
20
-256.58157530659997
30
0
40
1.4750000000000001
210
0
220
-0
230
1
0
CIRCLE
5
468
100
AcDbEntity
8
0
100
AcDbCircle
10
58.755166230825004
20
-244.75954706530004
30
0
40
1.5000000000000002
210
0
220
-0
230
1
0
CIRCLE
5
469
100
AcDbEntity
8
0
100
AcDbCircle
10
61.625768200117008
20
-252.3366272637
30
0
40
0.85089999999999999
210
0
220
-0
230
1
0
CIRCLE
5
470
100
AcDbEntity
8
0
100
AcDbCircle
10
62.566950998144009
20
-248.67238451239999
30
0
40
1.5000000000000002
210
0
220
-0
230
1
0
CIRCLE
5
471
100
AcDbEntity
8
0
100
AcDbCircle
10
56.526257000000008
20
-250.27629099999999
30
0
40
2.4750000000000001
210
0
220
-0
230
1
0
CIRCLE
5
472
100
AcDbEntity
8
0
100
AcDbCircle
10
70.916271799883006
20
-250.69756073619999
30
0
40
0.85089999999999999
210
0
220
-0
230
1
0
CIRCLE
5
473
100
AcDbEntity
8
0
100
AcDbCircle
10
63.900472109732007
20
-238.96508230660004
30
0
40
1.4750000000000001
210
0
220
-0
230
1
0
CIRCLE
5
474
100
AcDbEntity
8
0
100
AcDbCircle
10
50.685997050851
20
-252.98578610540002
30
0
40
1.4750000000000001
210
0
220
-0
230
1
0
CIRCLE
5
475
100
AcDbEntity
8
0
100
AcDbCircle
10
49.408732000000001
20
-267.89278400000001
30
0
40
2.4750000000000001
210
0
220
-0
230
1
0
CIRCLE
5
476
100
AcDbEntity
8
0
100
AcDbCircle
10
51.637641230825004
20
-262.3760400653
30
0
40
1.5000000000000002
210
0
220
-0
230
1
0
CIRCLE
5
477
100
AcDbEntity
8
0
100
AcDbCircle
10
51.426745799883008
20
-248.21595473619999
30
0
40
0.85089999999999999
210
0
220
-0
230
1
0
CIRCLE
5
478
100
AcDbEntity
8
0
100
AcDbCircle
10
63.643782000000009
20
-232.65979799999999
30
0
40
2.4750000000000001
210
0
220
-0
230
1
0
CIRCLE
5
479
100
AcDbEntity
8
0
100
AcDbCircle
10
69.684475998143995
20
-231.0558915124
30
0
40
1.5000000000000002
210
0
220
-0
230
1
0
CIRCLE
5
480
100
AcDbEntity
8
0
100
AcDbCircle
10
68.743293200116995
20
-234.7201342637
30
0
40
0.85089999999999999
210
0
220
-0
230
1
0
CIRCLE
5
481
100
AcDbEntity
8
0
100
AcDbCircle
10
57.803522050851008
20
-235.36929310540003
30
0
40
1.4750000000000001
210
0
220
-0
230
1
0
CIRCLE
5
482
100
AcDbEntity
8
0
100
AcDbCircle
10
44.154255999999997
20
-230.17819200000002
30
0
40
2.4750000000000001
210
0
220
-0
230
1
0
CIRCLE
5
483
100
AcDbEntity
8
0
100
AcDbCircle
10
50.194949998143997
20
-228.57428551240002
30
0
40
1.5000000000000002
210
0
220
-0
230
1
0
CIRCLE
5
484
100
AcDbEntity
8
0
100
AcDbCircle
10
49.253767200116997
20
-232.23852826370003
30
0
40
0.85089999999999999
210
0
220
-0
230
1
0
CIRCLE
5
485
100
AcDbEntity
8
0
100
AcDbCircle
10
39.054744799882997
20
-228.1178557362
30
0
40
0.85089999999999999
210
0
220
-0
230
1
0
CIRCLE
5
486
100
AcDbEntity
8
0
100
AcDbCircle
10
38.313996050851003
20
-232.8876871054
30
0
40
1.4750000000000001
210
0
220
-0
230
1
0
CIRCLE
5
487
100
AcDbEntity
8
0
100
AcDbCircle
10
65.872691230824998
20
-227.14305406530002
30
0
40
1.5000000000000002
210
0
220
-0
230
1
0
CIRCLE
5
488
100
AcDbEntity
8
0
100
AcDbCircle
10
58.544270799883009
20
-230.59946173620003
30
0
40
0.85089999999999999
210
0
220
-0
230
1
0
CIRCLE
5
489
100
AcDbEntity
8
0
100
AcDbCircle
10
35.410404109731999
20
-208.0407223066
30
0
40
1.4750000000000001
210
0
220
-0
230
1
0
CIRCLE
5
490
100
AcDbEntity
8
0
100
AcDbCircle
10
199.62333754752001
20
-212.16890157820004
30
0
40
1.5000000000000002
210
0
220
-0
230
1
0
CIRCLE
5
491
100
AcDbEntity
8
0
100
AcDbCircle
10
200.95685893401
20
-221.8762040208
30
0
40
1.4750000000000001
210
0
220
-0
230
1
0
CIRCLE
5
492
100
AcDbEntity
8
0
100
AcDbCircle
10
201.49170420011004
20
-215.45853773619999
30
0
40
0.85089999999999999
210
0
220
-0
230
1
0
CIRCLE
5
493
100
AcDbEntity
8
0
100
AcDbCircle
10
196.39219300000002
20
-217.51887400000001
30
0
40
2.4750000000000001
210
0
220
-0
230
1
0
CIRCLE
5
494
100
AcDbEntity
8
0
100
AcDbCircle
10
191.29268179988
20
-219.57921026370002
30
0
40
0.85089999999999999
210
0
220
-0
230
1
0
CIRCLE
5
495
100
AcDbEntity
8
0
100
AcDbCircle
10
180.79406997179004
20
-218.9675187581
30
0
40
0.5
210
0
220
-0
230
1
0
CIRCLE
5
496
100
AcDbEntity
8
0
100
AcDbCircle
10
96.291527998144005
20
-215.92100351240003
30
0
40
1.5000000000000002
210
0
220
-0
230
1
0
CIRCLE
5
497
100
AcDbEntity
8
0
100
AcDbCircle
10
95.350345200117005
20
-219.58524626370001
30
0
40
0.85089999999999999
210
0
220
-0
230
1
0
CIRCLE
5
498
100
AcDbEntity
8
0
100
AcDbCircle
10
84.410574050851011
20
-220.23440510539999
30
0
40
1.4750000000000001
210
0
220
-0
230
1
0
CIRCLE
5
499
100
AcDbEntity
8
0
100
AcDbCircle
10
90.250833999999998
20
-217.52491000000003
30
0
40
2.4750000000000001
210
0
220
-0
230
1
0
CIRCLE
5
500
100
AcDbEntity
8
0
100
AcDbCircle
10
112.94393599999999
20
-221.82344599999999
30
0
40
0.5
210
0
220
-0
230
1
0
CIRCLE
5
501
100
AcDbEntity
8
0
100
AcDbCircle
10
110.58888900940002
20
-220.87194525270002
30
0
40
0.5
210
0
220
-0
230
1
0
CIRCLE
5
502
100
AcDbEntity
8
0
100
AcDbCircle
10
105.87879502820002
20
-218.96894375810004
30
0
40
0.5
210
0
220
-0
230
1
0
CIRCLE
5
503
100
AcDbEntity
8
0
100
AcDbCircle
10
108.23384201880002
20
-219.92044450540004
30
0
40
0.5
210
0
220
-0
230
1
0
CIRCLE
5
504
100
AcDbEntity
8
0
100
AcDbCircle
10
194.16328376916999
20
-212.00213006530004
30
0
40
1.5000000000000002
210
0
220
-0
230
1
0
CIRCLE
5
505
100
AcDbEntity
8
0
100
AcDbCircle
10
45.431521050851003
20
-215.27119310540002
30
0
40
1.4750000000000001
210
0
220
-0
230
1
0
CIRCLE
5
506
100
AcDbEntity
8
0
100
AcDbCircle
10
46.172269799882997
20
-210.50136173620004
30
0
40
0.85089999999999999
210
0
220
-0
230
1
0
CIRCLE
5
507
100
AcDbEntity
8
0
100
AcDbCircle
10
51.271781000000004
20
-212.56169800000004
30
0
40
2.4750000000000001
210
0
220
-0
230
1
0
CIRCLE
5
508
100
AcDbEntity
8
0
100
AcDbCircle
10
56.371292200117004
20
-214.62203426369999
30
0
40
0.85089999999999999
210
0
220
-0
230
1
0
CIRCLE
5
509
100
AcDbEntity
8
0
100
AcDbCircle
10
57.312474998144005
20
-210.95779151240004
30
0
40
1.5000000000000002
210
0
220
-0
230
1
0
CIRCLE
5
510
100
AcDbEntity
8
0
100
AcDbCircle
10
51.52847110973201
20
-218.86698230660002
30
0
40
1.4750000000000001
210
0
220
-0
230
1
0
CIRCLE
5
511
100
AcDbEntity
8
0
100
AcDbCircle
10
72.990216230824998
20
-209.52656006530003
30
0
40
1.5000000000000002
210
0
220
-0
230
1
0
CIRCLE
5
512
100
AcDbEntity
8
0
100
AcDbCircle
10
70.761307000000002
20
-215.04330400000001
30
0
40
2.4750000000000001
210
0
220
-0
230
1
0
CIRCLE
5
513
100
AcDbEntity
8
0
100
AcDbCircle
10
65.661795799882995
20
-212.98296773620001
30
0
40
0.85089999999999999
210
0
220
-0
230
1
0
CIRCLE
5
514
100
AcDbEntity
8
0
100
AcDbCircle
10
64.921047050851001
20
-217.75279910540002
30
0
40
1.4750000000000001
210
0
220
-0
230
1
0
CIRCLE
5
515
100
AcDbEntity
8
0
100
AcDbCircle
10
71.017997109731994
20
-221.34858830659999
30
0
40
1.4750000000000001
210
0
220
-0
230
1
0
CIRCLE
5
516
100
AcDbEntity
8
0
100
AcDbCircle
10
46.383165230825007
20
-224.66144806529999
30
0
40
1.5000000000000002
210
0
220
-0
230
1
0
CIRCLE
5
517
100
AcDbEntity
8
0
100
AcDbCircle
10
92.479743230825008
20
-212.0081660653
30
0
40
1.5000000000000002
210
0
220
-0
230
1
0
CIRCLE
5
518
100
AcDbEntity
8
0
100
AcDbCircle
10
90.507524109732017
20
-223.83019430659999
30
0
40
1.4750000000000001
210
0
220
-0
230
1
0
CIRCLE
5
519
100
AcDbEntity
8
0
100
AcDbCircle
10
85.151322799883005
20
-215.46457373620001
30
0
40
0.85089999999999999
210
0
220
-0
230
1
0
CIRCLE
5
520
100
AcDbEntity
8
0
100
AcDbCircle
10
76.802000998143996
20
-213.43939751240001
30
0
40
1.5000000000000002
210
0
220
-0
230
1
0
CIRCLE
5
521
100
AcDbEntity
8
0
100
AcDbCircle
10
75.860818200116995
20
-217.10364026370002
30
0
40
0.85089999999999999
210
0
220
-0
230
1
0
CIRCLE
5
522
100
AcDbEntity
8
0
100
AcDbCircle
10
34.076882998144001
20
-217.74802451240004
30
0
40
1.5000000000000002
210
0
220
-0
230
1
0
CIRCLE
5
523
100
AcDbEntity
8
0
100
AcDbCircle
10
33.135700200117
20
-221.41226726370002
30
0
40
0.85089999999999999
210
0
220
-0
230
1
0
CIRCLE
5
524
100
AcDbEntity
8
0
100
AcDbCircle
10
173.72892899999999
20
-221.82202100000001
30
0
40
0.5
210
0
220
-0
230
1
0
CIRCLE
5
525
100
AcDbEntity
8
0
100
AcDbCircle
10
176.08397599060001
20
-220.8705202527
30
0
40
0.5
210
0
220
-0
230
1
0
CIRCLE
5
526
100
AcDbEntity
8
0
100
AcDbCircle
10
178.43902298119002
20
-219.9190195054
30
0
40
0.5
210
0
220
-0
230
1
0
CIRCLE
5
527
100
AcDbEntity
8
0
100
AcDbCircle
10
194.07323502896003
20
-223.52490712740004
30
0
40
1.4750000000000001
210
0
220
-0
230
1
0
CIRCLE
5
528
100
AcDbEntity
8
0
100
AcDbCircle
10
213.56276102896004
20
-221.04330112740001
30
0
40
1.4750000000000001
210
0
220
-0
230
1
0
CIRCLE
5
529
100
AcDbEntity
8
0
100
AcDbCircle
10
213.65280976917003
20
-209.52052406530001
30
0
40
1.5000000000000002
210
0
220
-0
230
1
0
CIRCLE
5
530
100
AcDbEntity
8
0
100
AcDbCircle
10
215.88171900000003
20
-215.03726800000004
30
0
40
2.4750000000000001
210
0
220
-0
230
1
0
CIRCLE
5
531
100
AcDbEntity
8
0
100
AcDbCircle
10
210.78220779988001
20
-217.09760426369999
30
0
40
0.85089999999999999
210
0
220
-0
230
1
0
CIRCLE
5
532
100
AcDbEntity
8
0
100
AcDbCircle
10
219.11286354752002
20
-209.68729557820001
30
0
40
1.5000000000000002
210
0
220
-0
230
1
0
CIRCLE
5
533
100
AcDbEntity
8
0
100
AcDbCircle
10
220.98123020011002
20
-212.97693173620002
30
0
40
0.85089999999999999
210
0
220
-0
230
1
0
CIRCLE
5
534
100
AcDbEntity
8
0
100
AcDbCircle
10
220.44638493401004
20
-219.3945980208
30
0
40
1.4750000000000001
210
0
220
-0
230
1
0
CIRCLE
5
535
100
AcDbEntity
8
0
100
AcDbCircle
10
30.265098230825004
20
-213.8351870653
30
0
40
1.5000000000000002
210
0
220
-0
230
1
0
CIRCLE
5
536
100
AcDbEntity
8
0
100
AcDbCircle
10
28.036189
20
-219.35193100000004
30
0
40
2.4750000000000001
210
0
220
-0
230
1
0
CIRCLE
5
537
100
AcDbEntity
8
0
100
AcDbCircle
10
28.292879109731999
20
-225.65721530659999
30
0
40
1.4750000000000001
210
0
220
-0
230
1
0
CIRCLE
5
538
100
AcDbEntity
8
0
100
AcDbCircle
10
22.195929050851003
20
-222.06142610539999
30
0
40
1.4750000000000001
210
0
220
-0
230
1
0
CIRCLE
5
539
100
AcDbEntity
8
0
100
AcDbCircle
10
22.936677799883004
20
-217.29159473620001
30
0
40
0.85089999999999999
210
0
220
-0
230
1
0
CIRCLE
5
540
100
AcDbEntity
8
0
100
AcDbCircle
10
182.72776099999999
20
-331.72009500000001
30
0
40
0.5
210
0
220
-0
230
1
0
CIRCLE
5
541
100
AcDbEntity
8
0
100
AcDbCircle
10
147.784773
20
-308.42477300000002
30
0
40
0.40000000000000008
210
0
220
-0
230
1
0
CIRCLE
5
542
100
AcDbEntity
8
0
100
AcDbCircle
10
143.33000000000001
20
-303.97000000000003
30
0
40
4.2000000000000002
210
0
220
-0
230
1
0
CIRCLE
5
543
100
AcDbEntity
8
0
100
AcDbCircle
10
138.875227
20
-299.51522699999998
30
0
40
0.40000000000000008
210
0
220
-0
230
1
0
CIRCLE
5
544
100
AcDbEntity
8
0
100
AcDbCircle
10
138.875227
20
-308.42477300000002
30
0
40
0.40000000000000008
210
0
220
-0
230
1
0
CIRCLE
5
545
100
AcDbEntity
8
0
100
AcDbCircle
10
147.784773
20
-299.51522699999998
30
0
40
0.40000000000000008
210
0
220
-0
230
1
0
CIRCLE
5
546
100
AcDbEntity
8
0
100
AcDbCircle
10
143.33000000000001
20
-310.26999999999998
30
0
40
0.40000000000000008
210
0
220
-0
230
1
0
CIRCLE
5
547
100
AcDbEntity
8
0
100
AcDbCircle
10
149.63
20
-303.97000000000003
30
0
40
0.40000000000000008
210
0
220
-0
230
1
0
CIRCLE
5
548
100
AcDbEntity
8
0
100
AcDbCircle
10
146.61198100000001
20
-291.85198100000002
30
0
40
0.29999999999999999
210
0
220
-0
230
1
0
CIRCLE
5
549
100
AcDbEntity
8
0
100
AcDbCircle
10
143.43000000000001
20
-293.17000000000002
30
0
40
0.29999999999999999
210
0
220
-0
230
1
0
CIRCLE
5
550
100
AcDbEntity
8
0
100
AcDbCircle
10
143.33000000000001
20
-297.67000000000002
30
0
40
0.40000000000000008
210
0
220
-0
230
1
0
CIRCLE
5
551
100
AcDbEntity
8
0
100
AcDbCircle
10
140.248019
20
-291.85198100000002
30
0
40
0.29999999999999999
210
0
220
-0
230
1
0
CIRCLE
5
552
100
AcDbEntity
8
0
100
AcDbCircle
10
137.03
20
-303.97000000000003
30
0
40
0.40000000000000008
210
0
220
-0
230
1
0
CIRCLE
5
553
100
AcDbEntity
8
0
100
AcDbCircle
10
89.736992000000001
20
-273.92371200000002
30
0
40
0.5
210
0
220
-0
230
1
0
CIRCLE
5
554
100
AcDbEntity
8
0
100
AcDbCircle
10
143.43000000000001
20
-284.17000000000002
30
0
40
0.29999999999999999
210
0
220
-0
230
1
0
CIRCLE
5
555
100
AcDbEntity
8
0
100
AcDbCircle
10
138.93000000000001
20
-288.67000000000007
30
0
40
0.29999999999999999
210
0
220
-0
230
1
0
CIRCLE
5
556
100
AcDbEntity
8
0
100
AcDbCircle
10
143.43000000000001
20
-288.67000000000007
30
0
40
3.0000000000000004
210
0
220
-0
230
1
0
CIRCLE
5
557
100
AcDbEntity
8
0
100
AcDbCircle
10
146.61198100000001
20
-285.48801900000001
30
0
40
0.29999999999999999
210
0
220
-0
230
1
0
CIRCLE
5
558
100
AcDbEntity
8
0
100
AcDbCircle
10
140.248019
20
-285.48801900000001
30
0
40
0.29999999999999999
210
0
220
-0
230
1
0
CIRCLE
5
559
100
AcDbEntity
8
0
100
AcDbCircle
10
147.93000000000001
20
-288.67000000000007
30
0
40
0.29999999999999999
210
0
220
-0
230
1
0
CIRCLE
5
560
100
AcDbEntity
8
0
100
AcDbCircle
10
103.73000000000002
20
-331.67000000000002
30
0
40
0.5
210
0
220
-0
230
1
0
CIRCLE
5
561
100
AcDbEntity
8
0
100
AcDbCircle
10
30.379666505446998
20
-285.73302098110003
30
0
40
0.5
210
0
220
-0
230
1
0
CIRCLE
5
562
100
AcDbEntity
8
0
100
AcDbCircle
10
32.282668000000001
20
-281.02292699999998
30
0
40
0.5
210
0
220
-0
230
1
0
CIRCLE
5
563
100
AcDbEntity
8
0
100
AcDbCircle
10
31.331167252724001
20
-283.37797399060003
30
0
40
0.5
210
0
220
-0
230
1
0
CIRCLE
5
564
100
AcDbEntity
8
0
100
AcDbCircle
10
30.175895109732004
20
-271.71646230660002
30
0
40
1.4750000000000001
210
0
220
-0
230
1
0
CIRCLE
5
565
100
AcDbEntity
8
0
100
AcDbCircle
10
49.665422109732006
20
-274.19806830660002
30
0
40
1.4750000000000001
210
0
220
-0
230
1
0
CIRCLE
5
566
100
AcDbEntity
8
0
100
AcDbCircle
10
29.428165758171005
20
-288.08806797170001
30
0
40
0.5
210
0
220
-0
230
1
0
CIRCLE
5
567
100
AcDbEntity
8
0
100
AcDbCircle
10
87.381945009399999
20
-272.97221125269999
30
0
40
0.5
210
0
220
-0
230
1
0
CIRCLE
5
568
100
AcDbEntity
8
0
100
AcDbCircle
10
85.026898018801006
20
-272.02071050540002
30
0
40
0.5
210
0
220
-0
230
1
0
CIRCLE
5
569
100
AcDbEntity
8
0
100
AcDbCircle
10
69.154948109732004
20
-276.67967430660002
30
0
40
1.4750000000000001
210
0
220
-0
230
1
0
CIRCLE
5
570
100
AcDbEntity
8
0
100
AcDbCircle
10
196.93587199999999
20
-273.92228699999998
30
0
40
0.5
210
0
220
-0
230
1
0
CIRCLE
5
571
100
AcDbEntity
8
0
100
AcDbCircle
10
35.018716200116998
20
-267.47151426369999
30
0
40
0.85089999999999999
210
0
220
-0
230
1
0
CIRCLE
5
572
100
AcDbEntity
8
0
100
AcDbCircle
10
35.959898998143998
20
-263.80727151240001
30
0
40
1.5000000000000002
210
0
220
-0
230
1
0
CIRCLE
5
573
100
AcDbEntity
8
0
100
AcDbCircle
10
43.568472050851
20
-270.60227910539999
30
0
40
1.4750000000000001
210
0
220
-0
230
1
0
CIRCLE
5
574
100
AcDbEntity
8
0
100
AcDbCircle
10
44.309220799883001
20
-265.83244773619998
30
0
40
0.85089999999999999
210
0
220
-0
230
1
0
CIRCLE
5
575
100
AcDbEntity
8
0
100
AcDbCircle
10
54.508243200117008
20
-269.95312026370004
30
0
40
0.85089999999999999
210
0
220
-0
230
1
0
CIRCLE
5
576
100
AcDbEntity
8
0
100
AcDbCircle
10
55.449425998144008
20
-266.28887751240001
30
0
40
1.5000000000000002
210
0
220
-0
230
1
0
CIRCLE
5
577
100
AcDbEntity
8
0
100
AcDbCircle
10
63.798746799883006
20
-268.31405373619998
30
0
40
0.85089999999999999
210
0
220
-0
230
1
0
CIRCLE
5
578
100
AcDbEntity
8
0
100
AcDbCircle
10
63.057998050851005
20
-273.08388510539999
30
0
40
1.4750000000000001
210
0
220
-0
230
1
0
CIRCLE
5
579
100
AcDbEntity
8
0
100
AcDbCircle
10
82.671851028201004
20
-271.06920975809999
30
0
40
0.5
210
0
220
-0
230
1
0
CIRCLE
5
580
100
AcDbEntity
8
0
100
AcDbCircle
10
68.898257999999998
20
-270.37439000000001
30
0
40
2.4750000000000001
210
0
220
-0
230
1
0
CIRCLE
5
581
100
AcDbEntity
8
0
100
AcDbCircle
10
215.42581102896003
20
-276.37438712739998
30
0
40
1.4750000000000001
210
0
220
-0
230
1
0
CIRCLE
5
582
100
AcDbEntity
8
0
100
AcDbCircle
10
217.74476899999999
20
-270.36835400000001
30
0
40
2.4750000000000001
210
0
220
-0
230
1
0
CIRCLE
5
583
100
AcDbEntity
8
0
100
AcDbCircle
10
212.64525779988003
20
-272.42869026369999
30
0
40
0.85089999999999999
210
0
220
-0
230
1
0
CIRCLE
5
584
100
AcDbEntity
8
0
100
AcDbCircle
10
215.51585976916999
20
-264.85161006530001
30
0
40
1.5000000000000002
210
0
220
-0
230
1
0
CIRCLE
5
585
100
AcDbEntity
8
0
100
AcDbCircle
10
268.95550754752003
20
-231.61241557820003
30
0
40
1.5000000000000002
210
0
220
-0
230
1
0
CIRCLE
5
586
100
AcDbEntity
8
0
100
AcDbCircle
10
270.82387420011003
20
-234.90205173620001
30
0
40
0.85089999999999999
210
0
220
-0
230
1
0
CIRCLE
5
587
100
AcDbEntity
8
0
100
AcDbCircle
10
270.28902893400999
20
-241.31971802080002
30
0
40
1.4750000000000001
210
0
220
-0
230
1
0
CIRCLE
5
588
100
AcDbEntity
8
0
100
AcDbCircle
10
270.52293002895999
20
-260.5849141274
30
0
40
1.4750000000000001
210
0
220
-0
230
1
0
CIRCLE
5
589
100
AcDbEntity
8
0
100
AcDbCircle
10
270.61297876917001
20
-249.06213706529999
30
0
40
1.5000000000000002
210
0
220
-0
230
1
0
CIRCLE
5
590
100
AcDbEntity
8
0
100
AcDbCircle
10
267.74237679987999
20
-256.6392172637
30
0
40
0.85089999999999999
210
0
220
-0
230
1
0
CIRCLE
5
591
100
AcDbEntity
8
0
100
AcDbCircle
10
263.40540502895999
20
-242.96842112740001
30
0
40
1.4750000000000001
210
0
220
-0
230
1
0
CIRCLE
5
592
100
AcDbEntity
8
0
100
AcDbCircle
10
263.49545376917001
20
-231.44564406530003
30
0
40
1.5000000000000002
210
0
220
-0
230
1
0
CIRCLE
5
593
100
AcDbEntity
8
0
100
AcDbCircle
10
265.72436299999998
20
-236.96238800000003
30
0
40
2.4750000000000001
210
0
220
-0
230
1
0
CIRCLE
5
594
100
AcDbEntity
8
0
100
AcDbCircle
10
259.95496554751998
20
-260.05516957819998
30
0
40
1.5000000000000002
210
0
220
-0
230
1
0
CIRCLE
5
595
100
AcDbEntity
8
0
100
AcDbCircle
10
260.62485179988005
20
-239.02272426370004
30
0
40
0.85089999999999999
210
0
220
-0
230
1
0
CIRCLE
5
596
100
AcDbEntity
8
0
100
AcDbCircle
10
240.46543954751999
20
-262.53677557819998
30
0
40
1.5000000000000002
210
0
220
-0
230
1
0
CIRCLE
5
597
100
AcDbEntity
8
0
100
AcDbCircle
10
247.37738676917002
20
-242.27190406529999
30
0
40
1.5000000000000002
210
0
220
-0
230
1
0
CIRCLE
5
598
100
AcDbEntity
8
0
100
AcDbCircle
10
240.16981302895999
20
-236.17818812740001
30
0
40
1.4750000000000001
210
0
220
-0
230
1
0
CIRCLE
5
599
100
AcDbEntity
8
0
100
AcDbCircle
10
247.05343693401002
20
-234.52948502080002
30
0
40
1.4750000000000001
210
0
220
-0
230
1
0
CIRCLE
5
600
100
AcDbEntity
8
0
100
AcDbCircle
10
254.70580720011
20
-245.72831173620003
30
0
40
0.85089999999999999
210
0
220
-0
230
1
0
CIRCLE
5
601
100
AcDbEntity
8
0
100
AcDbCircle
10
237.38925979987999
20
-232.23249126370004
30
0
40
0.85089999999999999
210
0
220
-0
230
1
0
CIRCLE
5
602
100
AcDbEntity
8
0
100
AcDbCircle
10
232.13478379988004
20
-269.94708426369999
30
0
40
0.85089999999999999
210
0
220
-0
230
1
0
CIRCLE
5
603
100
AcDbEntity
8
0
100
AcDbCircle
10
237.23429500000003
20
-267.88674800000001
30
0
40
2.4750000000000001
210
0
220
-0
230
1
0
CIRCLE
5
604
100
AcDbEntity
8
0
100
AcDbCircle
10
235.00538576917
20
-262.37000406530001
30
0
40
1.5000000000000002
210
0
220
-0
230
1
0
CIRCLE
5
605
100
AcDbEntity
8
0
100
AcDbCircle
10
235.21628120011002
20
-248.2099177362
30
0
40
0.85089999999999999
210
0
220
-0
230
1
0
CIRCLE
5
606
100
AcDbEntity
8
0
100
AcDbCircle
10
230.11677000000003
20
-250.27025399999999
30
0
40
2.4750000000000001
210
0
220
-0
230
1
0
CIRCLE
5
607
100
AcDbEntity
8
0
100
AcDbCircle
10
234.68143593401004
20
-254.62758402079999
30
0
40
1.4750000000000001
210
0
220
-0
230
1
0
CIRCLE
5
608
100
AcDbEntity
8
0
100
AcDbCircle
10
242.33380620011002
20
-265.82641173619999
30
0
40
0.85089999999999999
210
0
220
-0
230
1
0
CIRCLE
5
609
100
AcDbEntity
8
0
100
AcDbCircle
10
241.79896093401001
20
-272.24407802079998
30
0
40
1.4750000000000001
210
0
220
-0
230
1
0
CIRCLE
5
610
100
AcDbEntity
8
0
100
AcDbCircle
10
234.91533702896004
20
-273.89278112739999
30
0
40
1.4750000000000001
210
0
220
-0
230
1
0
CIRCLE
5
611
100
AcDbEntity
8
0
100
AcDbCircle
10
254.40486302896002
20
-271.41117512739999
30
0
40
1.4750000000000001
210
0
220
-0
230
1
0
CIRCLE
5
612
100
AcDbEntity
8
0
100
AcDbCircle
10
251.62430979988002
20
-267.46547826369999
30
0
40
0.85089999999999999
210
0
220
-0
230
1
0
CIRCLE
5
613
100
AcDbEntity
8
0
100
AcDbCircle
10
256.72382099999999
20
-265.40514200000007
30
0
40
2.4750000000000001
210
0
220
-0
230
1
0
CIRCLE
5
614
100
AcDbEntity
8
0
100
AcDbCircle
10
247.28733802896002
20
-253.7946811274
30
0
40
1.4750000000000001
210
0
220
-0
230
1
0
CIRCLE
5
615
100
AcDbEntity
8
0
100
AcDbCircle
10
254.17096193400999
20
-252.14597802079999
30
0
40
1.4750000000000001
210
0
220
-0
230
1
0
CIRCLE
5
616
100
AcDbEntity
8
0
100
AcDbCircle
10
254.49491176917002
20
-259.88839806530001
30
0
40
1.5000000000000002
210
0
220
-0
230
1
0
CIRCLE
5
617
100
AcDbEntity
8
0
100
AcDbCircle
10
244.50678479987999
20
-249.8489842637
30
0
40
0.85089999999999999
210
0
220
-0
230
1
0
CIRCLE
5
618
100
AcDbEntity
8
0
100
AcDbCircle
10
261.28848693401
20
-269.76247202079998
30
0
40
1.4750000000000001
210
0
220
-0
230
1
0
CIRCLE
5
619
100
AcDbEntity
8
0
100
AcDbCircle
10
261.82333220010997
20
-263.34480573619999
30
0
40
0.85089999999999999
210
0
220
-0
230
1
0
CIRCLE
5
620
100
AcDbEntity
8
0
100
AcDbCircle
10
233.34791454752002
20
-244.92028157820002
30
0
40
1.5000000000000002
210
0
220
-0
230
1
0
CIRCLE
5
621
100
AcDbEntity
8
0
100
AcDbCircle
10
227.88786076917003
20
-244.75351006530002
30
0
40
1.5000000000000002
210
0
220
-0
230
1
0
CIRCLE
5
622
100
AcDbEntity
8
0
100
AcDbCircle
10
252.83744054752003
20
-242.43867557819999
30
0
40
1.5000000000000002
210
0
220
-0
230
1
0
CIRCLE
5
623
100
AcDbEntity
8
0
100
AcDbCircle
10
249.60629600000001
20
-247.78864800000002
30
0
40
2.4750000000000001
210
0
220
-0
230
1
0
CIRCLE
5
624
100
AcDbEntity
8
0
100
AcDbCircle
10
258.60683799999998
20
-219.34589500000001
30
0
40
2.4750000000000001
210
0
220
-0
230
1
0
CIRCLE
5
625
100
AcDbEntity
8
0
100
AcDbCircle
10
263.70634920011003
20
-217.28555873619999
30
0
40
0.85089999999999999
210
0
220
-0
230
1
0
CIRCLE
5
626
100
AcDbEntity
8
0
100
AcDbCircle
10
263.17150393400999
20
-223.70322502080001
30
0
40
1.4750000000000001
210
0
220
-0
230
1
0
CIRCLE
5
627
100
AcDbEntity
8
0
100
AcDbCircle
10
256.28788002895999
20
-225.35192812740002
30
0
40
1.4750000000000001
210
0
220
-0
230
1
0
CIRCLE
5
628
100
AcDbEntity
8
0
100
AcDbCircle
10
253.50732679987999
20
-221.40623126370002
30
0
40
0.85089999999999999
210
0
220
-0
230
1
0
CIRCLE
5
629
100
AcDbEntity
8
0
100
AcDbCircle
10
245.71991554752003
20
-224.8221825782
30
0
40
1.5000000000000002
210
0
220
-0
230
1
0
CIRCLE
5
630
100
AcDbEntity
8
0
100
AcDbCircle
10
247.58828220011
20
-228.11181873620001
30
0
40
0.85089999999999999
210
0
220
-0
230
1
0
CIRCLE
5
631
100
AcDbEntity
8
0
100
AcDbCircle
10
242.48877100000001
20
-230.17215500000003
30
0
40
2.4750000000000001
210
0
220
-0
230
1
0
CIRCLE
5
632
100
AcDbEntity
8
0
100
AcDbCircle
10
240.25986176917002
20
-224.6554110653
30
0
40
1.5000000000000002
210
0
220
-0
230
1
0
CIRCLE
5
633
100
AcDbEntity
8
0
100
AcDbCircle
10
226.23038854751999
20
-227.3037885782
30
0
40
1.5000000000000002
210
0
220
-0
230
1
0
CIRCLE
5
634
100
AcDbEntity
8
0
100
AcDbCircle
10
255.26545150544001
20
-283.16463401880003
30
0
40
0.5
210
0
220
-0
230
1
0
CIRCLE
5
635
100
AcDbEntity
8
0
100
AcDbCircle
10
254.31395075816999
20
-280.80958702819999
30
0
40
0.5
210
0
220
-0
230
1
0
CIRCLE
5
636
100
AcDbEntity
8
0
100
AcDbCircle
10
256.21695225271998
20
-285.51968100940002
30
0
40
0.5
210
0
220
-0
230
1
0
CIRCLE
5
637
100
AcDbEntity
8
0
100
AcDbCircle
10
261.83798254752003
20
-213.99592257820004
30
0
40
1.5000000000000002
210
0
220
-0
230
1
0
CIRCLE
5
638
100
AcDbEntity
8
0
100
AcDbCircle
10
256.37792876917001
20
-213.82915106530004
30
0
40
1.5000000000000002
210
0
220
-0
230
1
0
CIRCLE
5
639
100
AcDbEntity
8
0
100
AcDbCircle
10
235.37124500000002
20
-212.55566200000004
30
0
40
2.4750000000000001
210
0
220
-0
230
1
0
CIRCLE
5
640
100
AcDbEntity
8
0
100
AcDbCircle
10
240.47075620011
20
-210.49532573619999
30
0
40
0.85089999999999999
210
0
220
-0
230
1
0
CIRCLE
5
641
100
AcDbEntity
8
0
100
AcDbCircle
10
239.93591093401
20
-216.91299202080003
30
0
40
1.4750000000000001
210
0
220
-0
230
1
0
CIRCLE
5
642
100
AcDbEntity
8
0
100
AcDbCircle
10
233.05228702896002
20
-218.56169512739999
30
0
40
1.4750000000000001
210
0
220
-0
230
1
0
CIRCLE
5
643
100
AcDbEntity
8
0
100
AcDbCircle
10
230.27173379988
20
-214.61599826370002
30
0
40
0.85089999999999999
210
0
220
-0
230
1
0
CIRCLE
5
644
100
AcDbEntity
8
0
100
AcDbCircle
10
249.17035402896002
20
-207.7354341274
30
0
40
1.4750000000000001
210
0
220
-0
230
1
0
CIRCLE
5
645
100
AcDbEntity
8
0
100
AcDbCircle
10
256.05397793400999
20
-206.08673102080002
30
0
40
1.4750000000000001
210
0
220
-0
230
1
0
CIRCLE
5
646
100
AcDbEntity
8
0
100
AcDbCircle
10
257.168453
20
-287.874728
30
0
40
0.5
210
0
220
-0
230
1
0
CIRCLE
5
647
100
AcDbEntity
8
0
100
AcDbCircle
10
8.7016277998829992
20
-252.52458073620002
30
0
40
0.85089999999999999
210
0
220
-0
230
1
0
CIRCLE
5
648
100
AcDbEntity
8
0
100
AcDbCircle
10
7.960879050851001
20
-257.29441210540006
30
0
40
1.4750000000000001
210
0
220
-0
230
1
0
CIRCLE
5
649
100
AcDbEntity
8
0
100
AcDbCircle
10
13.801138999999999
20
-254.58491699999999
30
0
40
2.4750000000000001
210
0
220
-0
230
1
0
CIRCLE
5
650
100
AcDbEntity
8
0
100
AcDbCircle
10
14.057829109732001
20
-260.89020130659998
30
0
40
1.4750000000000001
210
0
220
-0
230
1
0
CIRCLE
5
651
100
AcDbEntity
8
0
100
AcDbCircle
10
15.819152799883
20
-234.90808773620003
30
0
40
0.85089999999999999
210
0
220
-0
230
1
0
CIRCLE
5
652
100
AcDbEntity
8
0
100
AcDbCircle
10
15.078404050851002
20
-239.67791910540001
30
0
40
1.4750000000000001
210
0
220
-0
230
1
0
CIRCLE
5
653
100
AcDbEntity
8
0
100
AcDbCircle
10
16.030048230824999
20
-249.06817306530002
30
0
40
1.5000000000000002
210
0
220
-0
230
1
0
CIRCLE
5
654
100
AcDbEntity
8
0
100
AcDbCircle
10
21.175354109732002
20
-243.27370830660001
30
0
40
1.4750000000000001
210
0
220
-0
230
1
0
CIRCLE
5
655
100
AcDbEntity
8
0
100
AcDbCircle
10
19.841832998144
20
-252.98101051239999
30
0
40
1.5000000000000002
210
0
220
-0
230
1
0
CIRCLE
5
656
100
AcDbEntity
8
0
100
AcDbCircle
10
20.918664000000003
20
-236.96842400000003
30
0
40
2.4750000000000001
210
0
220
-0
230
1
0
CIRCLE
5
657
100
AcDbEntity
8
0
100
AcDbCircle
10
18.900650200116999
20
-256.6452532637
30
0
40
0.85089999999999999
210
0
220
-0
230
1
0
CIRCLE
5
658
100
AcDbEntity
8
0
100
AcDbCircle
10
277.94139920011003
20
-252.5185447362
30
0
40
0.85089999999999999
210
0
220
-0
230
1
0
CIRCLE
5
659
100
AcDbEntity
8
0
100
AcDbCircle
10
277.40655393400999
20
-258.93621102079999
30
0
40
1.4750000000000001
210
0
220
-0
230
1
0
CIRCLE
5
660
100
AcDbEntity
8
0
100
AcDbCircle
10
276.07303254751997
20
-249.22890857819999
30
0
40
1.5000000000000002
210
0
220
-0
230
1
0
CIRCLE
5
661
100
AcDbEntity
8
0
100
AcDbCircle
10
272.84188799999998
20
-254.57888100000002
30
0
40
2.4750000000000001
210
0
220
-0
230
1
0
CIRCLE
5
662
100
AcDbEntity
8
0
100
AcDbCircle
10
29.313454050851
20
-204.4449331054
30
0
40
1.4750000000000001
210
0
220
-0
230
1
0
CIRCLE
5
663
100
AcDbEntity
8
0
100
AcDbCircle
10
40.253225200117001
20
-203.79577426370003
30
0
40
0.85089999999999999
210
0
220
-0
230
1
0
CIRCLE
5
664
100
AcDbEntity
8
0
100
AcDbCircle
10
41.194407998144001
20
-200.13153151240002
30
0
40
1.5000000000000002
210
0
220
-0
230
1
0
CIRCLE
5
665
100
AcDbEntity
8
0
100
AcDbCircle
10
35.153714000000001
20
-201.73543800000002
30
0
40
2.4750000000000001
210
0
220
-0
230
1
0
CIRCLE
5
666
100
AcDbEntity
8
0
100
AcDbCircle
10
30.054202799883001
20
-199.67510173619999
30
0
40
0.85089999999999999
210
0
220
-0
230
1
0
CIRCLE
5
667
100
AcDbEntity
8
0
100
AcDbCircle
10
53.500690230825008
20
-207.0449540653
30
0
40
1.5000000000000002
210
0
220
-0
230
1
0
CIRCLE
5
668
100
AcDbEntity
8
0
100
AcDbCircle
10
251.48931200000004
20
-201.72940100000002
30
0
40
2.4750000000000001
210
0
220
-0
230
1
0
CIRCLE
5
669
100
AcDbEntity
8
0
100
AcDbCircle
10
246.38980079988002
20
-203.78973726370003
30
0
40
0.85089999999999999
210
0
220
-0
230
1
0
CIRCLE
5
670
100
AcDbEntity
8
0
100
AcDbCircle
10
238.60238954752003
20
-207.20568957820004
30
0
40
1.5000000000000002
210
0
220
-0
230
1
0
CIRCLE
5
671
100
AcDbEntity
8
0
100
AcDbCircle
10
233.14233576917002
20
-207.03891806530004
30
0
40
1.5000000000000002
210
0
220
-0
230
1
0
CIRCLE
5
672
100
AcDbEntity
8
0
100
AcDbCircle
10
256.58882320011003
20
-199.6690647362
30
0
40
0.85089999999999999
210
0
220
-0
230
1
0
CIRCLE
5
673
100
AcDbEntity
8
0
100
AcDbCircle
10
249.26040276917004
20
-196.21265706529999
30
0
40
1.5000000000000002
210
0
220
-0
230
1
0
CIRCLE
5
674
100
AcDbEntity
8
0
100
AcDbCircle
10
37.382623230825004
20
-196.21869406530004
30
0
40
1.5000000000000002
210
0
220
-0
230
1
0
CIRCLE
5
675
100
AcDbEntity
8
0
100
AcDbCircle
10
254.72045654752003
20
-196.37942857820002
30
0
40
1.5000000000000002
210
0
220
-0
230
1
0
CIRCLE
5
676
100
AcDbEntity
8
0
100
AcDbCircle
10
176.64215841344
20
-336.30592547639998
30
0
40
0.5
210
0
220
-0
230
1
0
CIRCLE
5
677
100
AcDbEntity
8
0
100
AcDbCircle
10
178.67069260896
20
-334.77731531760008
30
0
40
0.5
210
0
220
-0
230
1
0
CIRCLE
5
678
100
AcDbEntity
8
0
100
AcDbCircle
10
180.69922680447999
20
-333.24870515880002
30
0
40
0.5
210
0
220
-0
230
1
0
CIRCLE
5
679
100
AcDbEntity
8
0
100
AcDbCircle
10
105.75853419552001
20
-333.19861015880002
30
0
40
0.5
210
0
220
-0
230
1
0
CIRCLE
5
680
100
AcDbEntity
8
0
100
AcDbCircle
10
107.78706839104001
20
-334.72722031759997
30
0
40
0.5
210
0
220
-0
230
1
0
CIRCLE
5
681
100
AcDbEntity
8
0
100
AcDbCircle
10
109.81560258656002
20
-336.25583047639998
30
0
40
0.5
210
0
220
-0
230
1
0
ENDSEC
0
SECTION
2
OBJECTS
0
DICTIONARY
5
C
100
AcDbDictionary
3
ACAD_GROUP
350
D
3
ACAD_MLINESTYLE
350
17
0
DICTIONARY
5
D
100
AcDbDictionary
0
DICTIONARY
5
1A
330
C
100
AcDbDictionary
0
DICTIONARY
5
17
100
AcDbDictionary
0
ENDSEC
0
EOF
