%FSLAX45Y45*%
G04 Gerber Fmt 4.5, Leading zero omitted, Abs format (unit mm)*
G04 Created by KiCad (PCBNEW (5.1.4)-1) date 2023-11-05 18:19:30*
%MOMM*%
%LPD*%
G04 APERTURE LIST*
%ADD10C,0.050000*%
%ADD11C,0.200000*%
%ADD12C,0.300000*%
G04 APERTURE END LIST*
D10*
X6556416Y-20257941D02*
X6426237Y-20313199D01*
X26837444Y-26889485D02*
X26737980Y-27123807D01*
X3199637Y-19009568D02*
X6426237Y-20313199D01*
X3199637Y-19009568D02*
X2913243Y-19131135D01*
X8505369Y-20506102D02*
X7854473Y-20782391D01*
X231060Y-25769771D02*
X352627Y-26056165D01*
X2782995Y-28850036D02*
X2849304Y-29006251D01*
X22108911Y-20257941D02*
X22239090Y-20313199D01*
X28434267Y-25769771D02*
X25752083Y-19131135D01*
X20810853Y-20782391D02*
X22108911Y-20257941D01*
X14503663Y-23190451D02*
X14161663Y-23190451D01*
X1706316Y-26603091D02*
X1827883Y-26889485D01*
X18398309Y-21217855D02*
X18193855Y-21699517D01*
X10267018Y-21217855D02*
X10471472Y-21699517D01*
X1927346Y-27123807D02*
X2919433Y-27524636D01*
X22060928Y-30523408D02*
X17636182Y-33853426D01*
X28434267Y-25769771D02*
X28312700Y-26056165D01*
X7854473Y-20782391D02*
X6556416Y-20257941D01*
X25541440Y-28006299D02*
X25882332Y-28850036D01*
X25745894Y-27524636D02*
X25541440Y-28006299D01*
X13162327Y-22787000D02*
X14161663Y-23190451D01*
X26737980Y-27123807D02*
X25745894Y-27524636D01*
X2919433Y-27524636D02*
X3123887Y-28006299D01*
X26959011Y-26603091D02*
X26837444Y-26889485D01*
X3123887Y-28006299D02*
X2782995Y-28850036D01*
X18398309Y-21217855D02*
X20159958Y-20506102D01*
X25465689Y-19009568D02*
X22239090Y-20313199D01*
X1827883Y-26889485D02*
X1927346Y-27123807D01*
X352627Y-26056165D02*
X1706316Y-26603091D01*
X6604399Y-30523408D02*
X11029145Y-33853426D01*
X11029145Y-33853426D02*
X17636182Y-33853426D01*
X20159958Y-20506102D02*
X20810853Y-20782391D01*
X15503000Y-22787000D02*
X14503663Y-23190451D01*
X25465689Y-19009568D02*
X25752083Y-19131135D01*
X18193855Y-21699517D02*
X15503000Y-22787000D01*
X10471472Y-21699517D02*
X13162327Y-22787000D01*
X231060Y-25769771D02*
X2913243Y-19131135D01*
X25882332Y-28850036D02*
X25816023Y-29006251D01*
X25816023Y-29006251D02*
X22060928Y-30523408D01*
X28312700Y-26056165D02*
X26959011Y-26603091D01*
X10267018Y-21217855D02*
X8505369Y-20506102D01*
X2849304Y-29006251D02*
X6604399Y-30523408D01*
D11*
X1496825Y-23405719D02*
X1667005Y-23575899D01*
X1667005Y-23405719D02*
X1496825Y-23575899D01*
X2516728Y-23817786D02*
X2686908Y-23987966D01*
X2686908Y-23817786D02*
X2516728Y-23987966D01*
X6294785Y-26746315D02*
X6464965Y-26916495D01*
X6464965Y-26746315D02*
X6294785Y-26916495D01*
X7314687Y-27158383D02*
X7484867Y-27328563D01*
X7484867Y-27158383D02*
X7314687Y-27328563D01*
X6481090Y-21213207D02*
X6651270Y-21383387D01*
X6651270Y-21213207D02*
X6481090Y-21383387D01*
X7500992Y-21625274D02*
X7671172Y-21795454D01*
X7671172Y-21625274D02*
X7500992Y-21795454D01*
X25265643Y-22055533D02*
X25435823Y-22225713D01*
X25435823Y-22055533D02*
X25265643Y-22225713D01*
X26285545Y-21643466D02*
X26455725Y-21813646D01*
X26455725Y-21643466D02*
X26285545Y-21813646D01*
X25077341Y-26661458D02*
X25247521Y-26831638D01*
X25247521Y-26661458D02*
X25077341Y-26831638D01*
X26097243Y-26249391D02*
X26267423Y-26419571D01*
X26267423Y-26249391D02*
X26097243Y-26419571D01*
X3820384Y-22726696D02*
X3990564Y-22896876D01*
X3990564Y-22726696D02*
X3820384Y-22896876D01*
X4840287Y-23138763D02*
X5010467Y-23308943D01*
X5010467Y-23138763D02*
X4840287Y-23308943D01*
X3108632Y-24488345D02*
X3278812Y-24658525D01*
X3278812Y-24488345D02*
X3108632Y-24658525D01*
X4128534Y-24900412D02*
X4298714Y-25070592D01*
X4298714Y-24900412D02*
X4128534Y-25070592D01*
X7006537Y-24984666D02*
X7176717Y-25154846D01*
X7176717Y-24984666D02*
X7006537Y-25154846D01*
X8026439Y-25396733D02*
X8196619Y-25566913D01*
X8196619Y-25396733D02*
X8026439Y-25566913D01*
X23653836Y-23138159D02*
X23824016Y-23308339D01*
X23824016Y-23138159D02*
X23653836Y-23308339D01*
X24673738Y-22726092D02*
X24843918Y-22896272D01*
X24843918Y-22726092D02*
X24673738Y-22896272D01*
X25977395Y-23817182D02*
X26147575Y-23987362D01*
X26147575Y-23817182D02*
X25977395Y-23987362D01*
X26997297Y-23405115D02*
X27167477Y-23575295D01*
X27167477Y-23405115D02*
X26997297Y-23575295D01*
X26689148Y-25578832D02*
X26859328Y-25749012D01*
X26859328Y-25578832D02*
X26689148Y-25749012D01*
X27709050Y-25166764D02*
X27879230Y-25336944D01*
X27879230Y-25166764D02*
X27709050Y-25336944D01*
X24365588Y-24899808D02*
X24535768Y-25069988D01*
X24535768Y-24899808D02*
X24365588Y-25069988D01*
X25385491Y-24487741D02*
X25555671Y-24657921D01*
X25555671Y-24487741D02*
X25385491Y-24657921D01*
X20993131Y-21624670D02*
X21163311Y-21794850D01*
X21163311Y-21624670D02*
X20993131Y-21794850D01*
X22013033Y-21212603D02*
X22183213Y-21382783D01*
X22183213Y-21212603D02*
X22013033Y-21382783D01*
X785073Y-25167368D02*
X955253Y-25337548D01*
X955253Y-25167368D02*
X785073Y-25337548D01*
X1804975Y-25579435D02*
X1975155Y-25749615D01*
X1975155Y-25579435D02*
X1804975Y-25749615D01*
X24553890Y-20293884D02*
X24724070Y-20464064D01*
X24724070Y-20293884D02*
X24553890Y-20464064D01*
X25573792Y-19881817D02*
X25743972Y-20051997D01*
X25743972Y-19881817D02*
X25573792Y-20051997D01*
X2208578Y-21644070D02*
X2378758Y-21814250D01*
X2378758Y-21644070D02*
X2208578Y-21814250D01*
X3228480Y-22056137D02*
X3398660Y-22226317D01*
X3398660Y-22056137D02*
X3228480Y-22226317D01*
X5769337Y-22974856D02*
X5939517Y-23145036D01*
X5939517Y-22974856D02*
X5769337Y-23145036D01*
X6789239Y-23386923D02*
X6959419Y-23557103D01*
X6959419Y-23386923D02*
X6789239Y-23557103D01*
X21179436Y-27157779D02*
X21349616Y-27327959D01*
X21349616Y-27157779D02*
X21179436Y-27327959D01*
X22199338Y-26745712D02*
X22369518Y-26915892D01*
X22369518Y-26745712D02*
X22199338Y-26915892D01*
X23128388Y-26909618D02*
X23298568Y-27079798D01*
X23298568Y-26909618D02*
X23128388Y-27079798D01*
X24148291Y-26497551D02*
X24318471Y-26667731D01*
X24318471Y-26497551D02*
X24148291Y-26667731D01*
X22942083Y-21376510D02*
X23112263Y-21546690D01*
X23112263Y-21376510D02*
X22942083Y-21546690D01*
X23961986Y-20964443D02*
X24132166Y-21134623D01*
X24132166Y-20964443D02*
X23961986Y-21134623D01*
X22416636Y-25147969D02*
X22586816Y-25318149D01*
X22586816Y-25147969D02*
X22416636Y-25318149D01*
X23436538Y-24735902D02*
X23606718Y-24906082D01*
X23606718Y-24735902D02*
X23436538Y-24906082D01*
X4532137Y-20965046D02*
X4702317Y-21135226D01*
X4702317Y-20965046D02*
X4532137Y-21135226D01*
X5552039Y-21377113D02*
X5722219Y-21547293D01*
X5722219Y-21377113D02*
X5552039Y-21547293D01*
X7718290Y-23223017D02*
X7888470Y-23393197D01*
X7888470Y-23223017D02*
X7718290Y-23393197D01*
X8738192Y-23635084D02*
X8908372Y-23805264D01*
X8908372Y-23635084D02*
X8738192Y-23805264D01*
X2396879Y-26249994D02*
X2567059Y-26420174D01*
X2567059Y-26249994D02*
X2396879Y-26420174D01*
X3416782Y-26662061D02*
X3586962Y-26832241D01*
X3586962Y-26662061D02*
X3416782Y-26832241D01*
X2920330Y-19882420D02*
X3090510Y-20052600D01*
X3090510Y-19882420D02*
X2920330Y-20052600D01*
X3940232Y-20294487D02*
X4110412Y-20464667D01*
X4110412Y-20294487D02*
X3940232Y-20464667D01*
X4345832Y-26498155D02*
X4516012Y-26668335D01*
X4516012Y-26498155D02*
X4345832Y-26668335D01*
X5365734Y-26910222D02*
X5535914Y-27080402D01*
X5535914Y-26910222D02*
X5365734Y-27080402D01*
X20467683Y-25396130D02*
X20637863Y-25566310D01*
X20637863Y-25396130D02*
X20467683Y-25566310D01*
X21487586Y-24984062D02*
X21657766Y-25154242D01*
X21657766Y-24984062D02*
X21487586Y-25154242D01*
X19755931Y-23634480D02*
X19926111Y-23804660D01*
X19926111Y-23634480D02*
X19755931Y-23804660D01*
X20775833Y-23222413D02*
X20946013Y-23392593D01*
X20946013Y-23222413D02*
X20775833Y-23392593D01*
X19044178Y-21872831D02*
X19214358Y-22043011D01*
X19214358Y-21872831D02*
X19044178Y-22043011D01*
X20064080Y-21460764D02*
X20234260Y-21630944D01*
X20234260Y-21460764D02*
X20064080Y-21630944D01*
X21704883Y-23386320D02*
X21875063Y-23556500D01*
X21875063Y-23386320D02*
X21704883Y-23556500D01*
X22724785Y-22974252D02*
X22894965Y-23144432D01*
X22894965Y-22974252D02*
X22724785Y-23144432D01*
X5057585Y-24736505D02*
X5227765Y-24906685D01*
X5227765Y-24736505D02*
X5057585Y-24906685D01*
X6077487Y-25148573D02*
X6247667Y-25318753D01*
X6247667Y-25148573D02*
X6077487Y-25318753D01*
X8430042Y-21461367D02*
X8600222Y-21631547D01*
X8600222Y-21461367D02*
X8430042Y-21631547D01*
X9449945Y-21873435D02*
X9620125Y-22043615D01*
X9620125Y-21873435D02*
X9449945Y-22043615D01*
X23639034Y-27389278D02*
G75*
G03X23639034Y-27389278I-147500J0D01*
G01*
X24327396Y-27224408D02*
G75*
G03X24327396Y-27224408I-147500J0D01*
G01*
X23452729Y-21856170D02*
G75*
G03X23452729Y-21856170I-147500J0D01*
G01*
X24141091Y-21691299D02*
G75*
G03X24141091Y-21691299I-147500J0D01*
G01*
X22927281Y-25627629D02*
G75*
G03X22927281Y-25627629I-147500J0D01*
G01*
X23615644Y-25462758D02*
G75*
G03X23615644Y-25462758I-147500J0D01*
G01*
X4690652Y-21527119D02*
G75*
G03X4690652Y-21527119I-147500J0D01*
G01*
X5300347Y-21886698D02*
G75*
G03X5300347Y-21886698I-147500J0D01*
G01*
X7876805Y-23785090D02*
G75*
G03X7876805Y-23785090I-147500J0D01*
G01*
X8486500Y-24144669D02*
G75*
G03X8486500Y-24144669I-147500J0D01*
G01*
X2555395Y-26812067D02*
G75*
G03X2555395Y-26812067I-147500J0D01*
G01*
X3165089Y-27171646D02*
G75*
G03X3165089Y-27171646I-147500J0D01*
G01*
X3078845Y-20444493D02*
G75*
G03X3078845Y-20444493I-147500J0D01*
G01*
X3688540Y-20804072D02*
G75*
G03X3688540Y-20804072I-147500J0D01*
G01*
X4504347Y-27060228D02*
G75*
G03X4504347Y-27060228I-147500J0D01*
G01*
X5114042Y-27419807D02*
G75*
G03X5114042Y-27419807I-147500J0D01*
G01*
X20978329Y-25875789D02*
G75*
G03X20978329Y-25875789I-147500J0D01*
G01*
X21666691Y-25710919D02*
G75*
G03X21666691Y-25710919I-147500J0D01*
G01*
X20266576Y-24114140D02*
G75*
G03X20266576Y-24114140I-147500J0D01*
G01*
X20954938Y-23949270D02*
G75*
G03X20954938Y-23949270I-147500J0D01*
G01*
X19554824Y-22352491D02*
G75*
G03X19554824Y-22352491I-147500J0D01*
G01*
X20243186Y-22187620D02*
G75*
G03X20243186Y-22187620I-147500J0D01*
G01*
X22215529Y-23865979D02*
G75*
G03X22215529Y-23865979I-147500J0D01*
G01*
X22903891Y-23701109D02*
G75*
G03X22903891Y-23701109I-147500J0D01*
G01*
X5216100Y-25298579D02*
G75*
G03X5216100Y-25298579I-147500J0D01*
G01*
X5825795Y-25658157D02*
G75*
G03X5825795Y-25658157I-147500J0D01*
G01*
X8588557Y-22023441D02*
G75*
G03X8588557Y-22023441I-147500J0D01*
G01*
X9198252Y-22383019D02*
G75*
G03X9198252Y-22383019I-147500J0D01*
G01*
X1655340Y-23967792D02*
G75*
G03X1655340Y-23967792I-147500J0D01*
G01*
X2265035Y-24327371D02*
G75*
G03X2265035Y-24327371I-147500J0D01*
G01*
X6453300Y-27308388D02*
G75*
G03X6453300Y-27308388I-147500J0D01*
G01*
X7062995Y-27667967D02*
G75*
G03X7062995Y-27667967I-147500J0D01*
G01*
X6639605Y-21775280D02*
G75*
G03X6639605Y-21775280I-147500J0D01*
G01*
X7249300Y-22134859D02*
G75*
G03X7249300Y-22134859I-147500J0D01*
G01*
X25776288Y-22535193D02*
G75*
G03X25776288Y-22535193I-147500J0D01*
G01*
X26464650Y-22370322D02*
G75*
G03X26464650Y-22370322I-147500J0D01*
G01*
X25587986Y-27141117D02*
G75*
G03X25587986Y-27141117I-147500J0D01*
G01*
X26276349Y-26976247D02*
G75*
G03X26276349Y-26976247I-147500J0D01*
G01*
X3978900Y-23288769D02*
G75*
G03X3978900Y-23288769I-147500J0D01*
G01*
X4588595Y-23648348D02*
G75*
G03X4588595Y-23648348I-147500J0D01*
G01*
X3267147Y-25050418D02*
G75*
G03X3267147Y-25050418I-147500J0D01*
G01*
X3876842Y-25409997D02*
G75*
G03X3876842Y-25409997I-147500J0D01*
G01*
X7165052Y-25546739D02*
G75*
G03X7165052Y-25546739I-147500J0D01*
G01*
X7774747Y-25906318D02*
G75*
G03X7774747Y-25906318I-147500J0D01*
G01*
X24164481Y-23617819D02*
G75*
G03X24164481Y-23617819I-147500J0D01*
G01*
X24852844Y-23452948D02*
G75*
G03X24852844Y-23452948I-147500J0D01*
G01*
X26488040Y-24296842D02*
G75*
G03X26488040Y-24296842I-147500J0D01*
G01*
X27176403Y-24131972D02*
G75*
G03X27176403Y-24131972I-147500J0D01*
G01*
X27199793Y-26058491D02*
G75*
G03X27199793Y-26058491I-147500J0D01*
G01*
X27888155Y-25893621D02*
G75*
G03X27888155Y-25893621I-147500J0D01*
G01*
X24876234Y-25379468D02*
G75*
G03X24876234Y-25379468I-147500J0D01*
G01*
X25564596Y-25214598D02*
G75*
G03X25564596Y-25214598I-147500J0D01*
G01*
X21503776Y-22104330D02*
G75*
G03X21503776Y-22104330I-147500J0D01*
G01*
X22192139Y-21939460D02*
G75*
G03X22192139Y-21939460I-147500J0D01*
G01*
X943588Y-25729441D02*
G75*
G03X943588Y-25729441I-147500J0D01*
G01*
X1553283Y-26089020D02*
G75*
G03X1553283Y-26089020I-147500J0D01*
G01*
X25064535Y-20773543D02*
G75*
G03X25064535Y-20773543I-147500J0D01*
G01*
X25752898Y-20608673D02*
G75*
G03X25752898Y-20608673I-147500J0D01*
G01*
X2367093Y-22206143D02*
G75*
G03X2367093Y-22206143I-147500J0D01*
G01*
X2976788Y-22565721D02*
G75*
G03X2976788Y-22565721I-147500J0D01*
G01*
X5927852Y-23536929D02*
G75*
G03X5927852Y-23536929I-147500J0D01*
G01*
X6537547Y-23896508D02*
G75*
G03X6537547Y-23896508I-147500J0D01*
G01*
X21690081Y-27637439D02*
G75*
G03X21690081Y-27637439I-147500J0D01*
G01*
X22378443Y-27472568D02*
G75*
G03X22378443Y-27472568I-147500J0D01*
G01*
X2314757Y-22995168D02*
X2314757Y-23295168D01*
X2164757Y-23145168D02*
X2464757Y-23145168D01*
X2695936Y-23386452D02*
X2695936Y-23686452D01*
X2545936Y-23536452D02*
X2845936Y-23536452D01*
X7112717Y-26335765D02*
X7112717Y-26635765D01*
X6962717Y-26485765D02*
X7262717Y-26485765D01*
X7493895Y-26727048D02*
X7493895Y-27027048D01*
X7343895Y-26877048D02*
X7643895Y-26877048D01*
X7299022Y-20802656D02*
X7299022Y-21102656D01*
X7149022Y-20952656D02*
X7449022Y-20952656D01*
X7680200Y-21193940D02*
X7680200Y-21493940D01*
X7530200Y-21343940D02*
X7830200Y-21343940D01*
X25637793Y-21232915D02*
X25637793Y-21532915D01*
X25487793Y-21382915D02*
X25787793Y-21382915D01*
X26183798Y-21249592D02*
X26183798Y-21549592D01*
X26033798Y-21399592D02*
X26333798Y-21399592D01*
X25449491Y-25838840D02*
X25449491Y-26138840D01*
X25299491Y-25988840D02*
X25599491Y-25988840D01*
X25995497Y-25855517D02*
X25995497Y-26155517D01*
X25845497Y-26005517D02*
X26145497Y-26005517D01*
X4638317Y-22316145D02*
X4638317Y-22616145D01*
X4488317Y-22466145D02*
X4788317Y-22466145D01*
X5019495Y-22707429D02*
X5019495Y-23007429D01*
X4869495Y-22857429D02*
X5169495Y-22857429D01*
X3926564Y-24077794D02*
X3926564Y-24377794D01*
X3776564Y-24227794D02*
X4076564Y-24227794D01*
X4307743Y-24469078D02*
X4307743Y-24769078D01*
X4157742Y-24619078D02*
X4457743Y-24619078D01*
X7824469Y-24574115D02*
X7824469Y-24874115D01*
X7674469Y-24724115D02*
X7974469Y-24724115D01*
X8205648Y-24965399D02*
X8205648Y-25265399D01*
X8055648Y-25115399D02*
X8355648Y-25115399D01*
X24025986Y-22315541D02*
X24025986Y-22615541D01*
X23875986Y-22465541D02*
X24175986Y-22465541D01*
X24571992Y-22332218D02*
X24571992Y-22632218D01*
X24421992Y-22482218D02*
X24721992Y-22482218D01*
X26349545Y-22994564D02*
X26349545Y-23294564D01*
X26199545Y-23144564D02*
X26499545Y-23144564D01*
X26895551Y-23011242D02*
X26895551Y-23311242D01*
X26745551Y-23161242D02*
X27045551Y-23161242D01*
X27061298Y-24756214D02*
X27061298Y-25056214D01*
X26911298Y-24906214D02*
X27211298Y-24906214D01*
X27607303Y-24772891D02*
X27607303Y-25072891D01*
X27457303Y-24922891D02*
X27757303Y-24922891D01*
X24737739Y-24077190D02*
X24737739Y-24377190D01*
X24587739Y-24227190D02*
X24887739Y-24227190D01*
X25283744Y-24093868D02*
X25283744Y-24393868D01*
X25133744Y-24243868D02*
X25433744Y-24243868D01*
X21365281Y-20802052D02*
X21365281Y-21102052D01*
X21215281Y-20952052D02*
X21515281Y-20952052D01*
X21911286Y-20818730D02*
X21911286Y-21118730D01*
X21761286Y-20968730D02*
X22061286Y-20968730D01*
X1603005Y-24756817D02*
X1603005Y-25056817D01*
X1453005Y-24906817D02*
X1753005Y-24906817D01*
X1984183Y-25148101D02*
X1984183Y-25448101D01*
X1834183Y-25298101D02*
X2134183Y-25298101D01*
X24926040Y-19471266D02*
X24926040Y-19771266D01*
X24776040Y-19621266D02*
X25076040Y-19621266D01*
X25472046Y-19487943D02*
X25472046Y-19787943D01*
X25322046Y-19637943D02*
X25622046Y-19637943D01*
X3026510Y-21233519D02*
X3026510Y-21533519D01*
X2876510Y-21383519D02*
X3176510Y-21383519D01*
X3407688Y-21624803D02*
X3407688Y-21924803D01*
X3257688Y-21774803D02*
X3557688Y-21774803D01*
X6587269Y-22564305D02*
X6587269Y-22864305D01*
X6437269Y-22714305D02*
X6737269Y-22714305D01*
X6968448Y-22955589D02*
X6968448Y-23255589D01*
X6818448Y-23105589D02*
X7118448Y-23105589D01*
X21551586Y-26335161D02*
X21551586Y-26635161D01*
X21401586Y-26485161D02*
X21701586Y-26485161D01*
X22097591Y-26351838D02*
X22097591Y-26651838D01*
X21947591Y-26501838D02*
X22247591Y-26501838D01*
X23500539Y-26087000D02*
X23500539Y-26387000D01*
X23350539Y-26237000D02*
X23650539Y-26237000D01*
X24046544Y-26103678D02*
X24046544Y-26403678D01*
X23896544Y-26253678D02*
X24196544Y-26253678D01*
X23314234Y-20553892D02*
X23314234Y-20853892D01*
X23164234Y-20703892D02*
X23464234Y-20703892D01*
X23860239Y-20570569D02*
X23860239Y-20870569D01*
X23710239Y-20720569D02*
X24010239Y-20720569D01*
X22788786Y-24325351D02*
X22788786Y-24625351D01*
X22638786Y-24475351D02*
X22938786Y-24475351D01*
X23334791Y-24342028D02*
X23334791Y-24642028D01*
X23184791Y-24492028D02*
X23484791Y-24492028D01*
X5350069Y-20554495D02*
X5350069Y-20854495D01*
X5200069Y-20704495D02*
X5500069Y-20704495D01*
X5731247Y-20945779D02*
X5731247Y-21245779D01*
X5581248Y-21095779D02*
X5881247Y-21095779D01*
X8536222Y-22812466D02*
X8536222Y-23112466D01*
X8386222Y-22962466D02*
X8686222Y-22962466D01*
X8917400Y-23203750D02*
X8917400Y-23503750D01*
X8767400Y-23353750D02*
X9067400Y-23353750D01*
X3214811Y-25839443D02*
X3214811Y-26139443D01*
X3064811Y-25989443D02*
X3364811Y-25989443D01*
X3595990Y-26230727D02*
X3595990Y-26530727D01*
X3445990Y-26380727D02*
X3745990Y-26380727D01*
X3738262Y-19471869D02*
X3738262Y-19771869D01*
X3588262Y-19621869D02*
X3888262Y-19621869D01*
X4119441Y-19863153D02*
X4119441Y-20163153D01*
X3969441Y-20013153D02*
X4269441Y-20013153D01*
X5163764Y-26087604D02*
X5163764Y-26387604D01*
X5013764Y-26237604D02*
X5313764Y-26237604D01*
X5544943Y-26478888D02*
X5544943Y-26778888D01*
X5394943Y-26628888D02*
X5694943Y-26628888D01*
X20839834Y-24573512D02*
X20839834Y-24873512D01*
X20689834Y-24723512D02*
X20989834Y-24723512D01*
X21385839Y-24590189D02*
X21385839Y-24890189D01*
X21235839Y-24740189D02*
X21535839Y-24740189D01*
X20128081Y-22811862D02*
X20128081Y-23111862D01*
X19978081Y-22961862D02*
X20278081Y-22961862D01*
X20674086Y-22828539D02*
X20674086Y-23128539D01*
X20524086Y-22978539D02*
X20824086Y-22978539D01*
X19416328Y-21050213D02*
X19416328Y-21350213D01*
X19266328Y-21200213D02*
X19566328Y-21200213D01*
X19962334Y-21066890D02*
X19962334Y-21366890D01*
X19812334Y-21216890D02*
X20112334Y-21216890D01*
X22077034Y-22563702D02*
X22077034Y-22863702D01*
X21927034Y-22713702D02*
X22227034Y-22713702D01*
X22623039Y-22580379D02*
X22623039Y-22880379D01*
X22473039Y-22730379D02*
X22773039Y-22730379D01*
X5875517Y-24325955D02*
X5875517Y-24625955D01*
X5725517Y-24475955D02*
X6025517Y-24475955D01*
X6256695Y-24717238D02*
X6256695Y-25017238D01*
X6106695Y-24867238D02*
X6406695Y-24867238D01*
X9247974Y-21050817D02*
X9247974Y-21350817D01*
X9097974Y-21200817D02*
X9397974Y-21200817D01*
X9629153Y-21442100D02*
X9629153Y-21742100D01*
X9479153Y-21592100D02*
X9779153Y-21592100D01*
X2266877Y-23871853D02*
X2266877Y-23521832D01*
X1916856Y-23521832D01*
X1916856Y-23871853D01*
X2266877Y-23871853D01*
X7064836Y-27212450D02*
X7064836Y-26862428D01*
X6714815Y-26862428D01*
X6714815Y-27212450D01*
X7064836Y-27212450D01*
X7251141Y-21679341D02*
X7251141Y-21329320D01*
X6901120Y-21329320D01*
X6901120Y-21679341D01*
X7251141Y-21679341D01*
X26035694Y-22109600D02*
X26035694Y-21759579D01*
X25685673Y-21759579D01*
X25685673Y-22109600D01*
X26035694Y-22109600D01*
X25847393Y-26715525D02*
X25847393Y-26365504D01*
X25497371Y-26365504D01*
X25497371Y-26715525D01*
X25847393Y-26715525D01*
X4590436Y-23192830D02*
X4590436Y-22842809D01*
X4240415Y-22842809D01*
X4240415Y-23192830D01*
X4590436Y-23192830D01*
X3878684Y-24954479D02*
X3878684Y-24604458D01*
X3528662Y-24604458D01*
X3528662Y-24954479D01*
X3878684Y-24954479D01*
X7776589Y-25450800D02*
X7776589Y-25100779D01*
X7426568Y-25100779D01*
X7426568Y-25450800D01*
X7776589Y-25450800D01*
X24423888Y-23192226D02*
X24423888Y-22842205D01*
X24073866Y-22842205D01*
X24073866Y-23192226D01*
X24423888Y-23192226D01*
X26747447Y-23871249D02*
X26747447Y-23521228D01*
X26397426Y-23521228D01*
X26397426Y-23871249D01*
X26747447Y-23871249D01*
X27459199Y-25632899D02*
X27459199Y-25282877D01*
X27109178Y-25282877D01*
X27109178Y-25632899D01*
X27459199Y-25632899D01*
X25135640Y-24953875D02*
X25135640Y-24603854D01*
X24785619Y-24603854D01*
X24785619Y-24953875D01*
X25135640Y-24953875D01*
X21763183Y-21678737D02*
X21763183Y-21328716D01*
X21413161Y-21328716D01*
X21413161Y-21678737D01*
X21763183Y-21678737D01*
X1555124Y-25633502D02*
X1555124Y-25283481D01*
X1205103Y-25283481D01*
X1205103Y-25633502D01*
X1555124Y-25633502D01*
X25323942Y-20347951D02*
X25323942Y-19997930D01*
X24973921Y-19997930D01*
X24973921Y-20347951D01*
X25323942Y-20347951D01*
X2978629Y-22110204D02*
X2978629Y-21760183D01*
X2628608Y-21760183D01*
X2628608Y-22110204D01*
X2978629Y-22110204D01*
X6539389Y-23440990D02*
X6539389Y-23090969D01*
X6189368Y-23090969D01*
X6189368Y-23440990D01*
X6539389Y-23440990D01*
X21949488Y-27211846D02*
X21949488Y-26861825D01*
X21599466Y-26861825D01*
X21599466Y-27211846D01*
X21949488Y-27211846D01*
X23898440Y-26963685D02*
X23898440Y-26613664D01*
X23548419Y-26613664D01*
X23548419Y-26963685D01*
X23898440Y-26963685D01*
X23712135Y-21430577D02*
X23712135Y-21080556D01*
X23362114Y-21080556D01*
X23362114Y-21430577D01*
X23712135Y-21430577D01*
X23186688Y-25202036D02*
X23186688Y-24852015D01*
X22836666Y-24852015D01*
X22836666Y-25202036D01*
X23186688Y-25202036D01*
X5302189Y-21431180D02*
X5302189Y-21081159D01*
X4952168Y-21081159D01*
X4952168Y-21431180D01*
X5302189Y-21431180D01*
X8488341Y-23689151D02*
X8488341Y-23339130D01*
X8138320Y-23339130D01*
X8138320Y-23689151D01*
X8488341Y-23689151D01*
X3166931Y-26716128D02*
X3166931Y-26366107D01*
X2816910Y-26366107D01*
X2816910Y-26716128D01*
X3166931Y-26716128D01*
X3690382Y-20348554D02*
X3690382Y-19998533D01*
X3340361Y-19998533D01*
X3340361Y-20348554D01*
X3690382Y-20348554D01*
X5115884Y-26964289D02*
X5115884Y-26614268D01*
X4765863Y-26614268D01*
X4765863Y-26964289D01*
X5115884Y-26964289D01*
X21237735Y-25450197D02*
X21237735Y-25100175D01*
X20887714Y-25100175D01*
X20887714Y-25450197D01*
X21237735Y-25450197D01*
X20525982Y-23688547D02*
X20525982Y-23338526D01*
X20175961Y-23338526D01*
X20175961Y-23688547D01*
X20525982Y-23688547D01*
X19814230Y-21926898D02*
X19814230Y-21576877D01*
X19464209Y-21576877D01*
X19464209Y-21926898D01*
X19814230Y-21926898D01*
X22474935Y-23440387D02*
X22474935Y-23090365D01*
X22124914Y-23090365D01*
X22124914Y-23440387D01*
X22474935Y-23440387D01*
X5827636Y-25202640D02*
X5827636Y-24852618D01*
X5477615Y-24852618D01*
X5477615Y-25202640D01*
X5827636Y-25202640D01*
X9200094Y-21927502D02*
X9200094Y-21577480D01*
X8850073Y-21577480D01*
X8850073Y-21927502D01*
X9200094Y-21927502D01*
D12*
X514989Y-34321640D02*
X514989Y-34021640D01*
X586417Y-34021640D01*
X629274Y-34035926D01*
X657846Y-34064497D01*
X672132Y-34093069D01*
X686417Y-34150212D01*
X686417Y-34193069D01*
X672132Y-34250212D01*
X657846Y-34278783D01*
X629274Y-34307354D01*
X586417Y-34321640D01*
X514989Y-34321640D01*
X814989Y-34321640D02*
X814989Y-34121640D01*
X814989Y-34178783D02*
X829274Y-34150212D01*
X843560Y-34135926D01*
X872131Y-34121640D01*
X900703Y-34121640D01*
X1000703Y-34321640D02*
X1000703Y-34121640D01*
X1000703Y-34021640D02*
X986417Y-34035926D01*
X1000703Y-34050212D01*
X1014989Y-34035926D01*
X1000703Y-34021640D01*
X1000703Y-34050212D01*
X1186417Y-34321640D02*
X1157846Y-34307354D01*
X1143560Y-34278783D01*
X1143560Y-34021640D01*
X1343560Y-34321640D02*
X1314989Y-34307354D01*
X1300703Y-34278783D01*
X1300703Y-34021640D01*
X1686417Y-34321640D02*
X1686417Y-34021640D01*
X1786417Y-34235926D01*
X1886417Y-34021640D01*
X1886417Y-34321640D01*
X2157846Y-34321640D02*
X2157846Y-34164497D01*
X2143560Y-34135926D01*
X2114989Y-34121640D01*
X2057846Y-34121640D01*
X2029274Y-34135926D01*
X2157846Y-34307354D02*
X2129274Y-34321640D01*
X2057846Y-34321640D01*
X2029274Y-34307354D01*
X2014989Y-34278783D01*
X2014989Y-34250212D01*
X2029274Y-34221640D01*
X2057846Y-34207354D01*
X2129274Y-34207354D01*
X2157846Y-34193069D01*
X2300703Y-34121640D02*
X2300703Y-34421640D01*
X2300703Y-34135926D02*
X2329274Y-34121640D01*
X2386417Y-34121640D01*
X2414989Y-34135926D01*
X2429274Y-34150212D01*
X2443560Y-34178783D01*
X2443560Y-34264497D01*
X2429274Y-34293069D01*
X2414989Y-34307354D01*
X2386417Y-34321640D01*
X2329274Y-34321640D01*
X2300703Y-34307354D01*
X2572132Y-34293069D02*
X2586417Y-34307354D01*
X2572132Y-34321640D01*
X2557846Y-34307354D01*
X2572132Y-34293069D01*
X2572132Y-34321640D01*
X2572132Y-34135926D02*
X2586417Y-34150212D01*
X2572132Y-34164497D01*
X2557846Y-34150212D01*
X2572132Y-34135926D01*
X2572132Y-34164497D01*
X58380Y-34730836D02*
X228560Y-34901016D01*
X228560Y-34730836D02*
X58380Y-34901016D01*
X672132Y-34951640D02*
X500703Y-34951640D01*
X586417Y-34951640D02*
X586417Y-34651640D01*
X557846Y-34694497D01*
X529274Y-34723069D01*
X500703Y-34737354D01*
X800703Y-34923069D02*
X814989Y-34937354D01*
X800703Y-34951640D01*
X786417Y-34937354D01*
X800703Y-34923069D01*
X800703Y-34951640D01*
X914989Y-34651640D02*
X1114989Y-34651640D01*
X986417Y-34951640D01*
X1286417Y-34651640D02*
X1314989Y-34651640D01*
X1343560Y-34665926D01*
X1357846Y-34680212D01*
X1372132Y-34708783D01*
X1386417Y-34765926D01*
X1386417Y-34837354D01*
X1372132Y-34894497D01*
X1357846Y-34923069D01*
X1343560Y-34937354D01*
X1314989Y-34951640D01*
X1286417Y-34951640D01*
X1257846Y-34937354D01*
X1243560Y-34923069D01*
X1229274Y-34894497D01*
X1214989Y-34837354D01*
X1214989Y-34765926D01*
X1229274Y-34708783D01*
X1243560Y-34680212D01*
X1257846Y-34665926D01*
X1286417Y-34651640D01*
X1514989Y-34951640D02*
X1514989Y-34751640D01*
X1514989Y-34780212D02*
X1529274Y-34765926D01*
X1557846Y-34751640D01*
X1600703Y-34751640D01*
X1629274Y-34765926D01*
X1643560Y-34794497D01*
X1643560Y-34951640D01*
X1643560Y-34794497D02*
X1657846Y-34765926D01*
X1686417Y-34751640D01*
X1729274Y-34751640D01*
X1757846Y-34765926D01*
X1772131Y-34794497D01*
X1772131Y-34951640D01*
X1914989Y-34951640D02*
X1914989Y-34751640D01*
X1914989Y-34780212D02*
X1929274Y-34765926D01*
X1957846Y-34751640D01*
X2000703Y-34751640D01*
X2029274Y-34765926D01*
X2043560Y-34794497D01*
X2043560Y-34951640D01*
X2043560Y-34794497D02*
X2057846Y-34765926D01*
X2086417Y-34751640D01*
X2129274Y-34751640D01*
X2157846Y-34765926D01*
X2172132Y-34794497D01*
X2172132Y-34951640D01*
X2757846Y-34637354D02*
X2500703Y-35023069D01*
X3143560Y-34651640D02*
X3172131Y-34651640D01*
X3200703Y-34665926D01*
X3214989Y-34680212D01*
X3229274Y-34708783D01*
X3243560Y-34765926D01*
X3243560Y-34837354D01*
X3229274Y-34894497D01*
X3214989Y-34923069D01*
X3200703Y-34937354D01*
X3172131Y-34951640D01*
X3143560Y-34951640D01*
X3114989Y-34937354D01*
X3100703Y-34923069D01*
X3086417Y-34894497D01*
X3072131Y-34837354D01*
X3072131Y-34765926D01*
X3086417Y-34708783D01*
X3100703Y-34680212D01*
X3114989Y-34665926D01*
X3143560Y-34651640D01*
X3372131Y-34923069D02*
X3386417Y-34937354D01*
X3372131Y-34951640D01*
X3357846Y-34937354D01*
X3372131Y-34923069D01*
X3372131Y-34951640D01*
X3572131Y-34651640D02*
X3600703Y-34651640D01*
X3629274Y-34665926D01*
X3643560Y-34680212D01*
X3657846Y-34708783D01*
X3672131Y-34765926D01*
X3672131Y-34837354D01*
X3657846Y-34894497D01*
X3643560Y-34923069D01*
X3629274Y-34937354D01*
X3600703Y-34951640D01*
X3572131Y-34951640D01*
X3543560Y-34937354D01*
X3529274Y-34923069D01*
X3514989Y-34894497D01*
X3500703Y-34837354D01*
X3500703Y-34765926D01*
X3514989Y-34708783D01*
X3529274Y-34680212D01*
X3543560Y-34665926D01*
X3572131Y-34651640D01*
X3929274Y-34651640D02*
X3872131Y-34651640D01*
X3843560Y-34665926D01*
X3829274Y-34680212D01*
X3800703Y-34723069D01*
X3786417Y-34780212D01*
X3786417Y-34894497D01*
X3800703Y-34923069D01*
X3814989Y-34937354D01*
X3843560Y-34951640D01*
X3900703Y-34951640D01*
X3929274Y-34937354D01*
X3943560Y-34923069D01*
X3957846Y-34894497D01*
X3957846Y-34823069D01*
X3943560Y-34794497D01*
X3929274Y-34780212D01*
X3900703Y-34765926D01*
X3843560Y-34765926D01*
X3814989Y-34780212D01*
X3800703Y-34794497D01*
X3786417Y-34823069D01*
X4057846Y-34651640D02*
X4257846Y-34651640D01*
X4129274Y-34951640D01*
X4357846Y-34651640D02*
X4357846Y-34708783D01*
X4472132Y-34651640D02*
X4472132Y-34708783D01*
X4914989Y-35065926D02*
X4900703Y-35051640D01*
X4872132Y-35008783D01*
X4857846Y-34980212D01*
X4843560Y-34937354D01*
X4829274Y-34865926D01*
X4829274Y-34808783D01*
X4843560Y-34737354D01*
X4857846Y-34694497D01*
X4872132Y-34665926D01*
X4900703Y-34623069D01*
X4914989Y-34608783D01*
X5157846Y-34651640D02*
X5100703Y-34651640D01*
X5072132Y-34665926D01*
X5057846Y-34680212D01*
X5029274Y-34723069D01*
X5014989Y-34780212D01*
X5014989Y-34894497D01*
X5029274Y-34923069D01*
X5043560Y-34937354D01*
X5072132Y-34951640D01*
X5129274Y-34951640D01*
X5157846Y-34937354D01*
X5172132Y-34923069D01*
X5186417Y-34894497D01*
X5186417Y-34823069D01*
X5172132Y-34794497D01*
X5157846Y-34780212D01*
X5129274Y-34765926D01*
X5072132Y-34765926D01*
X5043560Y-34780212D01*
X5029274Y-34794497D01*
X5014989Y-34823069D01*
X5443560Y-34751640D02*
X5443560Y-34951640D01*
X5372132Y-34637354D02*
X5300703Y-34851640D01*
X5486417Y-34851640D01*
X5829274Y-34951640D02*
X5829274Y-34651640D01*
X5957846Y-34951640D02*
X5957846Y-34794497D01*
X5943560Y-34765926D01*
X5914989Y-34751640D01*
X5872131Y-34751640D01*
X5843560Y-34765926D01*
X5829274Y-34780212D01*
X6143560Y-34951640D02*
X6114989Y-34937354D01*
X6100703Y-34923069D01*
X6086417Y-34894497D01*
X6086417Y-34808783D01*
X6100703Y-34780212D01*
X6114989Y-34765926D01*
X6143560Y-34751640D01*
X6186417Y-34751640D01*
X6214989Y-34765926D01*
X6229274Y-34780212D01*
X6243560Y-34808783D01*
X6243560Y-34894497D01*
X6229274Y-34923069D01*
X6214989Y-34937354D01*
X6186417Y-34951640D01*
X6143560Y-34951640D01*
X6414989Y-34951640D02*
X6386417Y-34937354D01*
X6372131Y-34908783D01*
X6372131Y-34651640D01*
X6643560Y-34937354D02*
X6614989Y-34951640D01*
X6557846Y-34951640D01*
X6529274Y-34937354D01*
X6514989Y-34908783D01*
X6514989Y-34794497D01*
X6529274Y-34765926D01*
X6557846Y-34751640D01*
X6614989Y-34751640D01*
X6643560Y-34765926D01*
X6657846Y-34794497D01*
X6657846Y-34823069D01*
X6514989Y-34851640D01*
X6772131Y-34937354D02*
X6800703Y-34951640D01*
X6857846Y-34951640D01*
X6886417Y-34937354D01*
X6900703Y-34908783D01*
X6900703Y-34894497D01*
X6886417Y-34865926D01*
X6857846Y-34851640D01*
X6814989Y-34851640D01*
X6786417Y-34837354D01*
X6772131Y-34808783D01*
X6772131Y-34794497D01*
X6786417Y-34765926D01*
X6814989Y-34751640D01*
X6857846Y-34751640D01*
X6886417Y-34765926D01*
X7000703Y-35065926D02*
X7014989Y-35051640D01*
X7043560Y-35008783D01*
X7057846Y-34980212D01*
X7072131Y-34937354D01*
X7086417Y-34865926D01*
X7086417Y-34808783D01*
X7072131Y-34737354D01*
X7057846Y-34694497D01*
X7043560Y-34665926D01*
X7014989Y-34623069D01*
X7000703Y-34608783D01*
X7543560Y-35065926D02*
X7529274Y-35051640D01*
X7500703Y-35008783D01*
X7486417Y-34980212D01*
X7472131Y-34937354D01*
X7457846Y-34865926D01*
X7457846Y-34808783D01*
X7472131Y-34737354D01*
X7486417Y-34694497D01*
X7500703Y-34665926D01*
X7529274Y-34623069D01*
X7543560Y-34608783D01*
X7657846Y-34751640D02*
X7657846Y-34951640D01*
X7657846Y-34780212D02*
X7672131Y-34765926D01*
X7700703Y-34751640D01*
X7743560Y-34751640D01*
X7772131Y-34765926D01*
X7786417Y-34794497D01*
X7786417Y-34951640D01*
X7972131Y-34951640D02*
X7943560Y-34937354D01*
X7929274Y-34923069D01*
X7914989Y-34894497D01*
X7914989Y-34808783D01*
X7929274Y-34780212D01*
X7943560Y-34765926D01*
X7972131Y-34751640D01*
X8014989Y-34751640D01*
X8043560Y-34765926D01*
X8057846Y-34780212D01*
X8072131Y-34808783D01*
X8072131Y-34894497D01*
X8057846Y-34923069D01*
X8043560Y-34937354D01*
X8014989Y-34951640D01*
X7972131Y-34951640D01*
X8157846Y-34751640D02*
X8272131Y-34751640D01*
X8200703Y-34651640D02*
X8200703Y-34908783D01*
X8214989Y-34937354D01*
X8243560Y-34951640D01*
X8272131Y-34951640D01*
X8600703Y-34751640D02*
X8600703Y-35051640D01*
X8600703Y-34765926D02*
X8629274Y-34751640D01*
X8686417Y-34751640D01*
X8714989Y-34765926D01*
X8729274Y-34780212D01*
X8743560Y-34808783D01*
X8743560Y-34894497D01*
X8729274Y-34923069D01*
X8714989Y-34937354D01*
X8686417Y-34951640D01*
X8629274Y-34951640D01*
X8600703Y-34937354D01*
X8914989Y-34951640D02*
X8886417Y-34937354D01*
X8872132Y-34908783D01*
X8872132Y-34651640D01*
X9157846Y-34951640D02*
X9157846Y-34794497D01*
X9143560Y-34765926D01*
X9114989Y-34751640D01*
X9057846Y-34751640D01*
X9029274Y-34765926D01*
X9157846Y-34937354D02*
X9129274Y-34951640D01*
X9057846Y-34951640D01*
X9029274Y-34937354D01*
X9014989Y-34908783D01*
X9014989Y-34880212D01*
X9029274Y-34851640D01*
X9057846Y-34837354D01*
X9129274Y-34837354D01*
X9157846Y-34823069D01*
X9257846Y-34751640D02*
X9372132Y-34751640D01*
X9300703Y-34651640D02*
X9300703Y-34908783D01*
X9314989Y-34937354D01*
X9343560Y-34951640D01*
X9372132Y-34951640D01*
X9586417Y-34937354D02*
X9557846Y-34951640D01*
X9500703Y-34951640D01*
X9472132Y-34937354D01*
X9457846Y-34908783D01*
X9457846Y-34794497D01*
X9472132Y-34765926D01*
X9500703Y-34751640D01*
X9557846Y-34751640D01*
X9586417Y-34765926D01*
X9600703Y-34794497D01*
X9600703Y-34823069D01*
X9457846Y-34851640D01*
X9857846Y-34951640D02*
X9857846Y-34651640D01*
X9857846Y-34937354D02*
X9829274Y-34951640D01*
X9772132Y-34951640D01*
X9743560Y-34937354D01*
X9729274Y-34923069D01*
X9714989Y-34894497D01*
X9714989Y-34808783D01*
X9729274Y-34780212D01*
X9743560Y-34765926D01*
X9772132Y-34751640D01*
X9829274Y-34751640D01*
X9857846Y-34765926D01*
X9972132Y-35065926D02*
X9986417Y-35051640D01*
X10014989Y-35008783D01*
X10029274Y-34980212D01*
X10043560Y-34937354D01*
X10057846Y-34865926D01*
X10057846Y-34808783D01*
X10043560Y-34737354D01*
X10029274Y-34694497D01*
X10014989Y-34665926D01*
X9986417Y-34623069D01*
X9972132Y-34608783D01*
X228560Y-35211926D02*
G75*
G03X228560Y-35211926I-147500J0D01*
G01*
X500703Y-35076212D02*
X514989Y-35061926D01*
X543560Y-35047640D01*
X614989Y-35047640D01*
X643560Y-35061926D01*
X657846Y-35076212D01*
X672132Y-35104783D01*
X672132Y-35133354D01*
X657846Y-35176212D01*
X486417Y-35347640D01*
X672132Y-35347640D01*
X800703Y-35319069D02*
X814989Y-35333354D01*
X800703Y-35347640D01*
X786417Y-35333354D01*
X800703Y-35319069D01*
X800703Y-35347640D01*
X957846Y-35347640D02*
X1014989Y-35347640D01*
X1043560Y-35333354D01*
X1057846Y-35319069D01*
X1086417Y-35276212D01*
X1100703Y-35219069D01*
X1100703Y-35104783D01*
X1086417Y-35076212D01*
X1072132Y-35061926D01*
X1043560Y-35047640D01*
X986417Y-35047640D01*
X957846Y-35061926D01*
X943560Y-35076212D01*
X929274Y-35104783D01*
X929274Y-35176212D01*
X943560Y-35204783D01*
X957846Y-35219069D01*
X986417Y-35233354D01*
X1043560Y-35233354D01*
X1072132Y-35219069D01*
X1086417Y-35204783D01*
X1100703Y-35176212D01*
X1372132Y-35047640D02*
X1229274Y-35047640D01*
X1214989Y-35190497D01*
X1229274Y-35176212D01*
X1257846Y-35161926D01*
X1329274Y-35161926D01*
X1357846Y-35176212D01*
X1372132Y-35190497D01*
X1386417Y-35219069D01*
X1386417Y-35290497D01*
X1372132Y-35319069D01*
X1357846Y-35333354D01*
X1329274Y-35347640D01*
X1257846Y-35347640D01*
X1229274Y-35333354D01*
X1214989Y-35319069D01*
X1514989Y-35347640D02*
X1514989Y-35147640D01*
X1514989Y-35176212D02*
X1529274Y-35161926D01*
X1557846Y-35147640D01*
X1600703Y-35147640D01*
X1629274Y-35161926D01*
X1643560Y-35190497D01*
X1643560Y-35347640D01*
X1643560Y-35190497D02*
X1657846Y-35161926D01*
X1686417Y-35147640D01*
X1729274Y-35147640D01*
X1757846Y-35161926D01*
X1772131Y-35190497D01*
X1772131Y-35347640D01*
X1914989Y-35347640D02*
X1914989Y-35147640D01*
X1914989Y-35176212D02*
X1929274Y-35161926D01*
X1957846Y-35147640D01*
X2000703Y-35147640D01*
X2029274Y-35161926D01*
X2043560Y-35190497D01*
X2043560Y-35347640D01*
X2043560Y-35190497D02*
X2057846Y-35161926D01*
X2086417Y-35147640D01*
X2129274Y-35147640D01*
X2157846Y-35161926D01*
X2172132Y-35190497D01*
X2172132Y-35347640D01*
X2757846Y-35033354D02*
X2500703Y-35419069D01*
X3143560Y-35047640D02*
X3172131Y-35047640D01*
X3200703Y-35061926D01*
X3214989Y-35076212D01*
X3229274Y-35104783D01*
X3243560Y-35161926D01*
X3243560Y-35233354D01*
X3229274Y-35290497D01*
X3214989Y-35319069D01*
X3200703Y-35333354D01*
X3172131Y-35347640D01*
X3143560Y-35347640D01*
X3114989Y-35333354D01*
X3100703Y-35319069D01*
X3086417Y-35290497D01*
X3072131Y-35233354D01*
X3072131Y-35161926D01*
X3086417Y-35104783D01*
X3100703Y-35076212D01*
X3114989Y-35061926D01*
X3143560Y-35047640D01*
X3372131Y-35319069D02*
X3386417Y-35333354D01*
X3372131Y-35347640D01*
X3357846Y-35333354D01*
X3372131Y-35319069D01*
X3372131Y-35347640D01*
X3672131Y-35347640D02*
X3500703Y-35347640D01*
X3586417Y-35347640D02*
X3586417Y-35047640D01*
X3557846Y-35090497D01*
X3529274Y-35119069D01*
X3500703Y-35133354D01*
X3957846Y-35347640D02*
X3786417Y-35347640D01*
X3872131Y-35347640D02*
X3872131Y-35047640D01*
X3843560Y-35090497D01*
X3814989Y-35119069D01*
X3786417Y-35133354D01*
X4214989Y-35047640D02*
X4157846Y-35047640D01*
X4129274Y-35061926D01*
X4114989Y-35076212D01*
X4086417Y-35119069D01*
X4072131Y-35176212D01*
X4072131Y-35290497D01*
X4086417Y-35319069D01*
X4100703Y-35333354D01*
X4129274Y-35347640D01*
X4186417Y-35347640D01*
X4214989Y-35333354D01*
X4229274Y-35319069D01*
X4243560Y-35290497D01*
X4243560Y-35219069D01*
X4229274Y-35190497D01*
X4214989Y-35176212D01*
X4186417Y-35161926D01*
X4129274Y-35161926D01*
X4100703Y-35176212D01*
X4086417Y-35190497D01*
X4072131Y-35219069D01*
X4357846Y-35047640D02*
X4357846Y-35104783D01*
X4472132Y-35047640D02*
X4472132Y-35104783D01*
X4914989Y-35461926D02*
X4900703Y-35447640D01*
X4872132Y-35404783D01*
X4857846Y-35376212D01*
X4843560Y-35333354D01*
X4829274Y-35261926D01*
X4829274Y-35204783D01*
X4843560Y-35133354D01*
X4857846Y-35090497D01*
X4872132Y-35061926D01*
X4900703Y-35019069D01*
X4914989Y-35004783D01*
X5157846Y-35047640D02*
X5100703Y-35047640D01*
X5072132Y-35061926D01*
X5057846Y-35076212D01*
X5029274Y-35119069D01*
X5014989Y-35176212D01*
X5014989Y-35290497D01*
X5029274Y-35319069D01*
X5043560Y-35333354D01*
X5072132Y-35347640D01*
X5129274Y-35347640D01*
X5157846Y-35333354D01*
X5172132Y-35319069D01*
X5186417Y-35290497D01*
X5186417Y-35219069D01*
X5172132Y-35190497D01*
X5157846Y-35176212D01*
X5129274Y-35161926D01*
X5072132Y-35161926D01*
X5043560Y-35176212D01*
X5029274Y-35190497D01*
X5014989Y-35219069D01*
X5443560Y-35147640D02*
X5443560Y-35347640D01*
X5372132Y-35033354D02*
X5300703Y-35247640D01*
X5486417Y-35247640D01*
X5829274Y-35347640D02*
X5829274Y-35047640D01*
X5957846Y-35347640D02*
X5957846Y-35190497D01*
X5943560Y-35161926D01*
X5914989Y-35147640D01*
X5872131Y-35147640D01*
X5843560Y-35161926D01*
X5829274Y-35176212D01*
X6143560Y-35347640D02*
X6114989Y-35333354D01*
X6100703Y-35319069D01*
X6086417Y-35290497D01*
X6086417Y-35204783D01*
X6100703Y-35176212D01*
X6114989Y-35161926D01*
X6143560Y-35147640D01*
X6186417Y-35147640D01*
X6214989Y-35161926D01*
X6229274Y-35176212D01*
X6243560Y-35204783D01*
X6243560Y-35290497D01*
X6229274Y-35319069D01*
X6214989Y-35333354D01*
X6186417Y-35347640D01*
X6143560Y-35347640D01*
X6414989Y-35347640D02*
X6386417Y-35333354D01*
X6372131Y-35304783D01*
X6372131Y-35047640D01*
X6643560Y-35333354D02*
X6614989Y-35347640D01*
X6557846Y-35347640D01*
X6529274Y-35333354D01*
X6514989Y-35304783D01*
X6514989Y-35190497D01*
X6529274Y-35161926D01*
X6557846Y-35147640D01*
X6614989Y-35147640D01*
X6643560Y-35161926D01*
X6657846Y-35190497D01*
X6657846Y-35219069D01*
X6514989Y-35247640D01*
X6772131Y-35333354D02*
X6800703Y-35347640D01*
X6857846Y-35347640D01*
X6886417Y-35333354D01*
X6900703Y-35304783D01*
X6900703Y-35290497D01*
X6886417Y-35261926D01*
X6857846Y-35247640D01*
X6814989Y-35247640D01*
X6786417Y-35233354D01*
X6772131Y-35204783D01*
X6772131Y-35190497D01*
X6786417Y-35161926D01*
X6814989Y-35147640D01*
X6857846Y-35147640D01*
X6886417Y-35161926D01*
X7000703Y-35461926D02*
X7014989Y-35447640D01*
X7043560Y-35404783D01*
X7057846Y-35376212D01*
X7072131Y-35333354D01*
X7086417Y-35261926D01*
X7086417Y-35204783D01*
X7072131Y-35133354D01*
X7057846Y-35090497D01*
X7043560Y-35061926D01*
X7014989Y-35019069D01*
X7000703Y-35004783D01*
X7543560Y-35461926D02*
X7529274Y-35447640D01*
X7500703Y-35404783D01*
X7486417Y-35376212D01*
X7472131Y-35333354D01*
X7457846Y-35261926D01*
X7457846Y-35204783D01*
X7472131Y-35133354D01*
X7486417Y-35090497D01*
X7500703Y-35061926D01*
X7529274Y-35019069D01*
X7543560Y-35004783D01*
X7657846Y-35147640D02*
X7657846Y-35347640D01*
X7657846Y-35176212D02*
X7672131Y-35161926D01*
X7700703Y-35147640D01*
X7743560Y-35147640D01*
X7772131Y-35161926D01*
X7786417Y-35190497D01*
X7786417Y-35347640D01*
X7972131Y-35347640D02*
X7943560Y-35333354D01*
X7929274Y-35319069D01*
X7914989Y-35290497D01*
X7914989Y-35204783D01*
X7929274Y-35176212D01*
X7943560Y-35161926D01*
X7972131Y-35147640D01*
X8014989Y-35147640D01*
X8043560Y-35161926D01*
X8057846Y-35176212D01*
X8072131Y-35204783D01*
X8072131Y-35290497D01*
X8057846Y-35319069D01*
X8043560Y-35333354D01*
X8014989Y-35347640D01*
X7972131Y-35347640D01*
X8157846Y-35147640D02*
X8272131Y-35147640D01*
X8200703Y-35047640D02*
X8200703Y-35304783D01*
X8214989Y-35333354D01*
X8243560Y-35347640D01*
X8272131Y-35347640D01*
X8600703Y-35147640D02*
X8600703Y-35447640D01*
X8600703Y-35161926D02*
X8629274Y-35147640D01*
X8686417Y-35147640D01*
X8714989Y-35161926D01*
X8729274Y-35176212D01*
X8743560Y-35204783D01*
X8743560Y-35290497D01*
X8729274Y-35319069D01*
X8714989Y-35333354D01*
X8686417Y-35347640D01*
X8629274Y-35347640D01*
X8600703Y-35333354D01*
X8914989Y-35347640D02*
X8886417Y-35333354D01*
X8872132Y-35304783D01*
X8872132Y-35047640D01*
X9157846Y-35347640D02*
X9157846Y-35190497D01*
X9143560Y-35161926D01*
X9114989Y-35147640D01*
X9057846Y-35147640D01*
X9029274Y-35161926D01*
X9157846Y-35333354D02*
X9129274Y-35347640D01*
X9057846Y-35347640D01*
X9029274Y-35333354D01*
X9014989Y-35304783D01*
X9014989Y-35276212D01*
X9029274Y-35247640D01*
X9057846Y-35233354D01*
X9129274Y-35233354D01*
X9157846Y-35219069D01*
X9257846Y-35147640D02*
X9372132Y-35147640D01*
X9300703Y-35047640D02*
X9300703Y-35304783D01*
X9314989Y-35333354D01*
X9343560Y-35347640D01*
X9372132Y-35347640D01*
X9586417Y-35333354D02*
X9557846Y-35347640D01*
X9500703Y-35347640D01*
X9472132Y-35333354D01*
X9457846Y-35304783D01*
X9457846Y-35190497D01*
X9472132Y-35161926D01*
X9500703Y-35147640D01*
X9557846Y-35147640D01*
X9586417Y-35161926D01*
X9600703Y-35190497D01*
X9600703Y-35219069D01*
X9457846Y-35247640D01*
X9857846Y-35347640D02*
X9857846Y-35047640D01*
X9857846Y-35333354D02*
X9829274Y-35347640D01*
X9772132Y-35347640D01*
X9743560Y-35333354D01*
X9729274Y-35319069D01*
X9714989Y-35290497D01*
X9714989Y-35204783D01*
X9729274Y-35176212D01*
X9743560Y-35161926D01*
X9772132Y-35147640D01*
X9829274Y-35147640D01*
X9857846Y-35161926D01*
X9972132Y-35461926D02*
X9986417Y-35447640D01*
X10014989Y-35404783D01*
X10029274Y-35376212D01*
X10043560Y-35333354D01*
X10057846Y-35261926D01*
X10057846Y-35204783D01*
X10043560Y-35133354D01*
X10029274Y-35090497D01*
X10014989Y-35061926D01*
X9986417Y-35019069D01*
X9972132Y-35004783D01*
X78560Y-35486926D02*
X78560Y-35786926D01*
X-71440Y-35636926D02*
X228560Y-35636926D01*
X486417Y-35472640D02*
X672132Y-35472640D01*
X572132Y-35586926D01*
X614989Y-35586926D01*
X643560Y-35601212D01*
X657846Y-35615497D01*
X672132Y-35644069D01*
X672132Y-35715497D01*
X657846Y-35744069D01*
X643560Y-35758354D01*
X614989Y-35772640D01*
X529274Y-35772640D01*
X500703Y-35758354D01*
X486417Y-35744069D01*
X800703Y-35744069D02*
X814989Y-35758354D01*
X800703Y-35772640D01*
X786417Y-35758354D01*
X800703Y-35744069D01*
X800703Y-35772640D01*
X1000703Y-35472640D02*
X1029274Y-35472640D01*
X1057846Y-35486926D01*
X1072132Y-35501212D01*
X1086417Y-35529783D01*
X1100703Y-35586926D01*
X1100703Y-35658354D01*
X1086417Y-35715497D01*
X1072132Y-35744069D01*
X1057846Y-35758354D01*
X1029274Y-35772640D01*
X1000703Y-35772640D01*
X972131Y-35758354D01*
X957846Y-35744069D01*
X943560Y-35715497D01*
X929274Y-35658354D01*
X929274Y-35586926D01*
X943560Y-35529783D01*
X957846Y-35501212D01*
X972131Y-35486926D01*
X1000703Y-35472640D01*
X1286417Y-35472640D02*
X1314989Y-35472640D01*
X1343560Y-35486926D01*
X1357846Y-35501212D01*
X1372132Y-35529783D01*
X1386417Y-35586926D01*
X1386417Y-35658354D01*
X1372132Y-35715497D01*
X1357846Y-35744069D01*
X1343560Y-35758354D01*
X1314989Y-35772640D01*
X1286417Y-35772640D01*
X1257846Y-35758354D01*
X1243560Y-35744069D01*
X1229274Y-35715497D01*
X1214989Y-35658354D01*
X1214989Y-35586926D01*
X1229274Y-35529783D01*
X1243560Y-35501212D01*
X1257846Y-35486926D01*
X1286417Y-35472640D01*
X1514989Y-35772640D02*
X1514989Y-35572640D01*
X1514989Y-35601212D02*
X1529274Y-35586926D01*
X1557846Y-35572640D01*
X1600703Y-35572640D01*
X1629274Y-35586926D01*
X1643560Y-35615497D01*
X1643560Y-35772640D01*
X1643560Y-35615497D02*
X1657846Y-35586926D01*
X1686417Y-35572640D01*
X1729274Y-35572640D01*
X1757846Y-35586926D01*
X1772131Y-35615497D01*
X1772131Y-35772640D01*
X1914989Y-35772640D02*
X1914989Y-35572640D01*
X1914989Y-35601212D02*
X1929274Y-35586926D01*
X1957846Y-35572640D01*
X2000703Y-35572640D01*
X2029274Y-35586926D01*
X2043560Y-35615497D01*
X2043560Y-35772640D01*
X2043560Y-35615497D02*
X2057846Y-35586926D01*
X2086417Y-35572640D01*
X2129274Y-35572640D01*
X2157846Y-35586926D01*
X2172132Y-35615497D01*
X2172132Y-35772640D01*
X2757846Y-35458354D02*
X2500703Y-35844069D01*
X3143560Y-35472640D02*
X3172131Y-35472640D01*
X3200703Y-35486926D01*
X3214989Y-35501212D01*
X3229274Y-35529783D01*
X3243560Y-35586926D01*
X3243560Y-35658354D01*
X3229274Y-35715497D01*
X3214989Y-35744069D01*
X3200703Y-35758354D01*
X3172131Y-35772640D01*
X3143560Y-35772640D01*
X3114989Y-35758354D01*
X3100703Y-35744069D01*
X3086417Y-35715497D01*
X3072131Y-35658354D01*
X3072131Y-35586926D01*
X3086417Y-35529783D01*
X3100703Y-35501212D01*
X3114989Y-35486926D01*
X3143560Y-35472640D01*
X3372131Y-35744069D02*
X3386417Y-35758354D01*
X3372131Y-35772640D01*
X3357846Y-35758354D01*
X3372131Y-35744069D01*
X3372131Y-35772640D01*
X3672131Y-35772640D02*
X3500703Y-35772640D01*
X3586417Y-35772640D02*
X3586417Y-35472640D01*
X3557846Y-35515497D01*
X3529274Y-35544069D01*
X3500703Y-35558354D01*
X3957846Y-35772640D02*
X3786417Y-35772640D01*
X3872131Y-35772640D02*
X3872131Y-35472640D01*
X3843560Y-35515497D01*
X3814989Y-35544069D01*
X3786417Y-35558354D01*
X4129274Y-35601212D02*
X4100703Y-35586926D01*
X4086417Y-35572640D01*
X4072131Y-35544069D01*
X4072131Y-35529783D01*
X4086417Y-35501212D01*
X4100703Y-35486926D01*
X4129274Y-35472640D01*
X4186417Y-35472640D01*
X4214989Y-35486926D01*
X4229274Y-35501212D01*
X4243560Y-35529783D01*
X4243560Y-35544069D01*
X4229274Y-35572640D01*
X4214989Y-35586926D01*
X4186417Y-35601212D01*
X4129274Y-35601212D01*
X4100703Y-35615497D01*
X4086417Y-35629783D01*
X4072131Y-35658354D01*
X4072131Y-35715497D01*
X4086417Y-35744069D01*
X4100703Y-35758354D01*
X4129274Y-35772640D01*
X4186417Y-35772640D01*
X4214989Y-35758354D01*
X4229274Y-35744069D01*
X4243560Y-35715497D01*
X4243560Y-35658354D01*
X4229274Y-35629783D01*
X4214989Y-35615497D01*
X4186417Y-35601212D01*
X4357846Y-35472640D02*
X4357846Y-35529783D01*
X4472132Y-35472640D02*
X4472132Y-35529783D01*
X4914989Y-35886926D02*
X4900703Y-35872640D01*
X4872132Y-35829783D01*
X4857846Y-35801212D01*
X4843560Y-35758354D01*
X4829274Y-35686926D01*
X4829274Y-35629783D01*
X4843560Y-35558354D01*
X4857846Y-35515497D01*
X4872132Y-35486926D01*
X4900703Y-35444069D01*
X4914989Y-35429783D01*
X5157846Y-35472640D02*
X5100703Y-35472640D01*
X5072132Y-35486926D01*
X5057846Y-35501212D01*
X5029274Y-35544069D01*
X5014989Y-35601212D01*
X5014989Y-35715497D01*
X5029274Y-35744069D01*
X5043560Y-35758354D01*
X5072132Y-35772640D01*
X5129274Y-35772640D01*
X5157846Y-35758354D01*
X5172132Y-35744069D01*
X5186417Y-35715497D01*
X5186417Y-35644069D01*
X5172132Y-35615497D01*
X5157846Y-35601212D01*
X5129274Y-35586926D01*
X5072132Y-35586926D01*
X5043560Y-35601212D01*
X5029274Y-35615497D01*
X5014989Y-35644069D01*
X5443560Y-35572640D02*
X5443560Y-35772640D01*
X5372132Y-35458354D02*
X5300703Y-35672640D01*
X5486417Y-35672640D01*
X5829274Y-35772640D02*
X5829274Y-35472640D01*
X5957846Y-35772640D02*
X5957846Y-35615497D01*
X5943560Y-35586926D01*
X5914989Y-35572640D01*
X5872131Y-35572640D01*
X5843560Y-35586926D01*
X5829274Y-35601212D01*
X6143560Y-35772640D02*
X6114989Y-35758354D01*
X6100703Y-35744069D01*
X6086417Y-35715497D01*
X6086417Y-35629783D01*
X6100703Y-35601212D01*
X6114989Y-35586926D01*
X6143560Y-35572640D01*
X6186417Y-35572640D01*
X6214989Y-35586926D01*
X6229274Y-35601212D01*
X6243560Y-35629783D01*
X6243560Y-35715497D01*
X6229274Y-35744069D01*
X6214989Y-35758354D01*
X6186417Y-35772640D01*
X6143560Y-35772640D01*
X6414989Y-35772640D02*
X6386417Y-35758354D01*
X6372131Y-35729783D01*
X6372131Y-35472640D01*
X6643560Y-35758354D02*
X6614989Y-35772640D01*
X6557846Y-35772640D01*
X6529274Y-35758354D01*
X6514989Y-35729783D01*
X6514989Y-35615497D01*
X6529274Y-35586926D01*
X6557846Y-35572640D01*
X6614989Y-35572640D01*
X6643560Y-35586926D01*
X6657846Y-35615497D01*
X6657846Y-35644069D01*
X6514989Y-35672640D01*
X6772131Y-35758354D02*
X6800703Y-35772640D01*
X6857846Y-35772640D01*
X6886417Y-35758354D01*
X6900703Y-35729783D01*
X6900703Y-35715497D01*
X6886417Y-35686926D01*
X6857846Y-35672640D01*
X6814989Y-35672640D01*
X6786417Y-35658354D01*
X6772131Y-35629783D01*
X6772131Y-35615497D01*
X6786417Y-35586926D01*
X6814989Y-35572640D01*
X6857846Y-35572640D01*
X6886417Y-35586926D01*
X7000703Y-35886926D02*
X7014989Y-35872640D01*
X7043560Y-35829783D01*
X7057846Y-35801212D01*
X7072131Y-35758354D01*
X7086417Y-35686926D01*
X7086417Y-35629783D01*
X7072131Y-35558354D01*
X7057846Y-35515497D01*
X7043560Y-35486926D01*
X7014989Y-35444069D01*
X7000703Y-35429783D01*
X7543560Y-35886926D02*
X7529274Y-35872640D01*
X7500703Y-35829783D01*
X7486417Y-35801212D01*
X7472131Y-35758354D01*
X7457846Y-35686926D01*
X7457846Y-35629783D01*
X7472131Y-35558354D01*
X7486417Y-35515497D01*
X7500703Y-35486926D01*
X7529274Y-35444069D01*
X7543560Y-35429783D01*
X7657846Y-35572640D02*
X7657846Y-35772640D01*
X7657846Y-35601212D02*
X7672131Y-35586926D01*
X7700703Y-35572640D01*
X7743560Y-35572640D01*
X7772131Y-35586926D01*
X7786417Y-35615497D01*
X7786417Y-35772640D01*
X7972131Y-35772640D02*
X7943560Y-35758354D01*
X7929274Y-35744069D01*
X7914989Y-35715497D01*
X7914989Y-35629783D01*
X7929274Y-35601212D01*
X7943560Y-35586926D01*
X7972131Y-35572640D01*
X8014989Y-35572640D01*
X8043560Y-35586926D01*
X8057846Y-35601212D01*
X8072131Y-35629783D01*
X8072131Y-35715497D01*
X8057846Y-35744069D01*
X8043560Y-35758354D01*
X8014989Y-35772640D01*
X7972131Y-35772640D01*
X8157846Y-35572640D02*
X8272131Y-35572640D01*
X8200703Y-35472640D02*
X8200703Y-35729783D01*
X8214989Y-35758354D01*
X8243560Y-35772640D01*
X8272131Y-35772640D01*
X8600703Y-35572640D02*
X8600703Y-35872640D01*
X8600703Y-35586926D02*
X8629274Y-35572640D01*
X8686417Y-35572640D01*
X8714989Y-35586926D01*
X8729274Y-35601212D01*
X8743560Y-35629783D01*
X8743560Y-35715497D01*
X8729274Y-35744069D01*
X8714989Y-35758354D01*
X8686417Y-35772640D01*
X8629274Y-35772640D01*
X8600703Y-35758354D01*
X8914989Y-35772640D02*
X8886417Y-35758354D01*
X8872132Y-35729783D01*
X8872132Y-35472640D01*
X9157846Y-35772640D02*
X9157846Y-35615497D01*
X9143560Y-35586926D01*
X9114989Y-35572640D01*
X9057846Y-35572640D01*
X9029274Y-35586926D01*
X9157846Y-35758354D02*
X9129274Y-35772640D01*
X9057846Y-35772640D01*
X9029274Y-35758354D01*
X9014989Y-35729783D01*
X9014989Y-35701212D01*
X9029274Y-35672640D01*
X9057846Y-35658354D01*
X9129274Y-35658354D01*
X9157846Y-35644069D01*
X9257846Y-35572640D02*
X9372132Y-35572640D01*
X9300703Y-35472640D02*
X9300703Y-35729783D01*
X9314989Y-35758354D01*
X9343560Y-35772640D01*
X9372132Y-35772640D01*
X9586417Y-35758354D02*
X9557846Y-35772640D01*
X9500703Y-35772640D01*
X9472132Y-35758354D01*
X9457846Y-35729783D01*
X9457846Y-35615497D01*
X9472132Y-35586926D01*
X9500703Y-35572640D01*
X9557846Y-35572640D01*
X9586417Y-35586926D01*
X9600703Y-35615497D01*
X9600703Y-35644069D01*
X9457846Y-35672640D01*
X9857846Y-35772640D02*
X9857846Y-35472640D01*
X9857846Y-35758354D02*
X9829274Y-35772640D01*
X9772132Y-35772640D01*
X9743560Y-35758354D01*
X9729274Y-35744069D01*
X9714989Y-35715497D01*
X9714989Y-35629783D01*
X9729274Y-35601212D01*
X9743560Y-35586926D01*
X9772132Y-35572640D01*
X9829274Y-35572640D01*
X9857846Y-35586926D01*
X9972132Y-35886926D02*
X9986417Y-35872640D01*
X10014989Y-35829783D01*
X10029274Y-35801212D01*
X10043560Y-35758354D01*
X10057846Y-35686926D01*
X10057846Y-35629783D01*
X10043560Y-35558354D01*
X10029274Y-35515497D01*
X10014989Y-35486926D01*
X9986417Y-35444069D01*
X9972132Y-35429783D01*
X156071Y-36241937D02*
X156071Y-35891915D01*
X-193950Y-35891915D01*
X-193950Y-36241937D01*
X156071Y-36241937D01*
X643560Y-36002640D02*
X643560Y-36202640D01*
X572132Y-35888354D02*
X500703Y-36102640D01*
X686417Y-36102640D01*
X800703Y-36174069D02*
X814989Y-36188354D01*
X800703Y-36202640D01*
X786417Y-36188354D01*
X800703Y-36174069D01*
X800703Y-36202640D01*
X957846Y-36202640D02*
X1014989Y-36202640D01*
X1043560Y-36188354D01*
X1057846Y-36174069D01*
X1086417Y-36131212D01*
X1100703Y-36074069D01*
X1100703Y-35959783D01*
X1086417Y-35931212D01*
X1072132Y-35916926D01*
X1043560Y-35902640D01*
X986417Y-35902640D01*
X957846Y-35916926D01*
X943560Y-35931212D01*
X929274Y-35959783D01*
X929274Y-36031212D01*
X943560Y-36059783D01*
X957846Y-36074069D01*
X986417Y-36088354D01*
X1043560Y-36088354D01*
X1072132Y-36074069D01*
X1086417Y-36059783D01*
X1100703Y-36031212D01*
X1372132Y-35902640D02*
X1229274Y-35902640D01*
X1214989Y-36045497D01*
X1229274Y-36031212D01*
X1257846Y-36016926D01*
X1329274Y-36016926D01*
X1357846Y-36031212D01*
X1372132Y-36045497D01*
X1386417Y-36074069D01*
X1386417Y-36145497D01*
X1372132Y-36174069D01*
X1357846Y-36188354D01*
X1329274Y-36202640D01*
X1257846Y-36202640D01*
X1229274Y-36188354D01*
X1214989Y-36174069D01*
X1514989Y-36202640D02*
X1514989Y-36002640D01*
X1514989Y-36031212D02*
X1529274Y-36016926D01*
X1557846Y-36002640D01*
X1600703Y-36002640D01*
X1629274Y-36016926D01*
X1643560Y-36045497D01*
X1643560Y-36202640D01*
X1643560Y-36045497D02*
X1657846Y-36016926D01*
X1686417Y-36002640D01*
X1729274Y-36002640D01*
X1757846Y-36016926D01*
X1772131Y-36045497D01*
X1772131Y-36202640D01*
X1914989Y-36202640D02*
X1914989Y-36002640D01*
X1914989Y-36031212D02*
X1929274Y-36016926D01*
X1957846Y-36002640D01*
X2000703Y-36002640D01*
X2029274Y-36016926D01*
X2043560Y-36045497D01*
X2043560Y-36202640D01*
X2043560Y-36045497D02*
X2057846Y-36016926D01*
X2086417Y-36002640D01*
X2129274Y-36002640D01*
X2157846Y-36016926D01*
X2172132Y-36045497D01*
X2172132Y-36202640D01*
X2757846Y-35888354D02*
X2500703Y-36274069D01*
X3143560Y-35902640D02*
X3172131Y-35902640D01*
X3200703Y-35916926D01*
X3214989Y-35931212D01*
X3229274Y-35959783D01*
X3243560Y-36016926D01*
X3243560Y-36088354D01*
X3229274Y-36145497D01*
X3214989Y-36174069D01*
X3200703Y-36188354D01*
X3172131Y-36202640D01*
X3143560Y-36202640D01*
X3114989Y-36188354D01*
X3100703Y-36174069D01*
X3086417Y-36145497D01*
X3072131Y-36088354D01*
X3072131Y-36016926D01*
X3086417Y-35959783D01*
X3100703Y-35931212D01*
X3114989Y-35916926D01*
X3143560Y-35902640D01*
X3372131Y-36174069D02*
X3386417Y-36188354D01*
X3372131Y-36202640D01*
X3357846Y-36188354D01*
X3372131Y-36174069D01*
X3372131Y-36202640D01*
X3672131Y-36202640D02*
X3500703Y-36202640D01*
X3586417Y-36202640D02*
X3586417Y-35902640D01*
X3557846Y-35945497D01*
X3529274Y-35974069D01*
X3500703Y-35988354D01*
X3814989Y-36202640D02*
X3872131Y-36202640D01*
X3900703Y-36188354D01*
X3914989Y-36174069D01*
X3943560Y-36131212D01*
X3957846Y-36074069D01*
X3957846Y-35959783D01*
X3943560Y-35931212D01*
X3929274Y-35916926D01*
X3900703Y-35902640D01*
X3843560Y-35902640D01*
X3814989Y-35916926D01*
X3800703Y-35931212D01*
X3786417Y-35959783D01*
X3786417Y-36031212D01*
X3800703Y-36059783D01*
X3814989Y-36074069D01*
X3843560Y-36088354D01*
X3900703Y-36088354D01*
X3929274Y-36074069D01*
X3943560Y-36059783D01*
X3957846Y-36031212D01*
X4229274Y-35902640D02*
X4086417Y-35902640D01*
X4072131Y-36045497D01*
X4086417Y-36031212D01*
X4114989Y-36016926D01*
X4186417Y-36016926D01*
X4214989Y-36031212D01*
X4229274Y-36045497D01*
X4243560Y-36074069D01*
X4243560Y-36145497D01*
X4229274Y-36174069D01*
X4214989Y-36188354D01*
X4186417Y-36202640D01*
X4114989Y-36202640D01*
X4086417Y-36188354D01*
X4072131Y-36174069D01*
X4357846Y-35902640D02*
X4357846Y-35959783D01*
X4472132Y-35902640D02*
X4472132Y-35959783D01*
X4914989Y-36316926D02*
X4900703Y-36302640D01*
X4872132Y-36259783D01*
X4857846Y-36231212D01*
X4843560Y-36188354D01*
X4829274Y-36116926D01*
X4829274Y-36059783D01*
X4843560Y-35988354D01*
X4857846Y-35945497D01*
X4872132Y-35916926D01*
X4900703Y-35874069D01*
X4914989Y-35859783D01*
X5000703Y-35902640D02*
X5186417Y-35902640D01*
X5086417Y-36016926D01*
X5129274Y-36016926D01*
X5157846Y-36031212D01*
X5172132Y-36045497D01*
X5186417Y-36074069D01*
X5186417Y-36145497D01*
X5172132Y-36174069D01*
X5157846Y-36188354D01*
X5129274Y-36202640D01*
X5043560Y-36202640D01*
X5014989Y-36188354D01*
X5000703Y-36174069D01*
X5300703Y-35931212D02*
X5314989Y-35916926D01*
X5343560Y-35902640D01*
X5414989Y-35902640D01*
X5443560Y-35916926D01*
X5457846Y-35931212D01*
X5472132Y-35959783D01*
X5472132Y-35988354D01*
X5457846Y-36031212D01*
X5286417Y-36202640D01*
X5472132Y-36202640D01*
X5829274Y-36202640D02*
X5829274Y-35902640D01*
X5957846Y-36202640D02*
X5957846Y-36045497D01*
X5943560Y-36016926D01*
X5914989Y-36002640D01*
X5872131Y-36002640D01*
X5843560Y-36016926D01*
X5829274Y-36031212D01*
X6143560Y-36202640D02*
X6114989Y-36188354D01*
X6100703Y-36174069D01*
X6086417Y-36145497D01*
X6086417Y-36059783D01*
X6100703Y-36031212D01*
X6114989Y-36016926D01*
X6143560Y-36002640D01*
X6186417Y-36002640D01*
X6214989Y-36016926D01*
X6229274Y-36031212D01*
X6243560Y-36059783D01*
X6243560Y-36145497D01*
X6229274Y-36174069D01*
X6214989Y-36188354D01*
X6186417Y-36202640D01*
X6143560Y-36202640D01*
X6414989Y-36202640D02*
X6386417Y-36188354D01*
X6372131Y-36159783D01*
X6372131Y-35902640D01*
X6643560Y-36188354D02*
X6614989Y-36202640D01*
X6557846Y-36202640D01*
X6529274Y-36188354D01*
X6514989Y-36159783D01*
X6514989Y-36045497D01*
X6529274Y-36016926D01*
X6557846Y-36002640D01*
X6614989Y-36002640D01*
X6643560Y-36016926D01*
X6657846Y-36045497D01*
X6657846Y-36074069D01*
X6514989Y-36102640D01*
X6772131Y-36188354D02*
X6800703Y-36202640D01*
X6857846Y-36202640D01*
X6886417Y-36188354D01*
X6900703Y-36159783D01*
X6900703Y-36145497D01*
X6886417Y-36116926D01*
X6857846Y-36102640D01*
X6814989Y-36102640D01*
X6786417Y-36088354D01*
X6772131Y-36059783D01*
X6772131Y-36045497D01*
X6786417Y-36016926D01*
X6814989Y-36002640D01*
X6857846Y-36002640D01*
X6886417Y-36016926D01*
X7000703Y-36316926D02*
X7014989Y-36302640D01*
X7043560Y-36259783D01*
X7057846Y-36231212D01*
X7072131Y-36188354D01*
X7086417Y-36116926D01*
X7086417Y-36059783D01*
X7072131Y-35988354D01*
X7057846Y-35945497D01*
X7043560Y-35916926D01*
X7014989Y-35874069D01*
X7000703Y-35859783D01*
X7543560Y-36316926D02*
X7529274Y-36302640D01*
X7500703Y-36259783D01*
X7486417Y-36231212D01*
X7472131Y-36188354D01*
X7457846Y-36116926D01*
X7457846Y-36059783D01*
X7472131Y-35988354D01*
X7486417Y-35945497D01*
X7500703Y-35916926D01*
X7529274Y-35874069D01*
X7543560Y-35859783D01*
X7657846Y-36002640D02*
X7657846Y-36202640D01*
X7657846Y-36031212D02*
X7672131Y-36016926D01*
X7700703Y-36002640D01*
X7743560Y-36002640D01*
X7772131Y-36016926D01*
X7786417Y-36045497D01*
X7786417Y-36202640D01*
X7972131Y-36202640D02*
X7943560Y-36188354D01*
X7929274Y-36174069D01*
X7914989Y-36145497D01*
X7914989Y-36059783D01*
X7929274Y-36031212D01*
X7943560Y-36016926D01*
X7972131Y-36002640D01*
X8014989Y-36002640D01*
X8043560Y-36016926D01*
X8057846Y-36031212D01*
X8072131Y-36059783D01*
X8072131Y-36145497D01*
X8057846Y-36174069D01*
X8043560Y-36188354D01*
X8014989Y-36202640D01*
X7972131Y-36202640D01*
X8157846Y-36002640D02*
X8272131Y-36002640D01*
X8200703Y-35902640D02*
X8200703Y-36159783D01*
X8214989Y-36188354D01*
X8243560Y-36202640D01*
X8272131Y-36202640D01*
X8600703Y-36002640D02*
X8600703Y-36302640D01*
X8600703Y-36016926D02*
X8629274Y-36002640D01*
X8686417Y-36002640D01*
X8714989Y-36016926D01*
X8729274Y-36031212D01*
X8743560Y-36059783D01*
X8743560Y-36145497D01*
X8729274Y-36174069D01*
X8714989Y-36188354D01*
X8686417Y-36202640D01*
X8629274Y-36202640D01*
X8600703Y-36188354D01*
X8914989Y-36202640D02*
X8886417Y-36188354D01*
X8872132Y-36159783D01*
X8872132Y-35902640D01*
X9157846Y-36202640D02*
X9157846Y-36045497D01*
X9143560Y-36016926D01*
X9114989Y-36002640D01*
X9057846Y-36002640D01*
X9029274Y-36016926D01*
X9157846Y-36188354D02*
X9129274Y-36202640D01*
X9057846Y-36202640D01*
X9029274Y-36188354D01*
X9014989Y-36159783D01*
X9014989Y-36131212D01*
X9029274Y-36102640D01*
X9057846Y-36088354D01*
X9129274Y-36088354D01*
X9157846Y-36074069D01*
X9257846Y-36002640D02*
X9372132Y-36002640D01*
X9300703Y-35902640D02*
X9300703Y-36159783D01*
X9314989Y-36188354D01*
X9343560Y-36202640D01*
X9372132Y-36202640D01*
X9586417Y-36188354D02*
X9557846Y-36202640D01*
X9500703Y-36202640D01*
X9472132Y-36188354D01*
X9457846Y-36159783D01*
X9457846Y-36045497D01*
X9472132Y-36016926D01*
X9500703Y-36002640D01*
X9557846Y-36002640D01*
X9586417Y-36016926D01*
X9600703Y-36045497D01*
X9600703Y-36074069D01*
X9457846Y-36102640D01*
X9857846Y-36202640D02*
X9857846Y-35902640D01*
X9857846Y-36188354D02*
X9829274Y-36202640D01*
X9772132Y-36202640D01*
X9743560Y-36188354D01*
X9729274Y-36174069D01*
X9714989Y-36145497D01*
X9714989Y-36059783D01*
X9729274Y-36031212D01*
X9743560Y-36016926D01*
X9772132Y-36002640D01*
X9829274Y-36002640D01*
X9857846Y-36016926D01*
X9972132Y-36316926D02*
X9986417Y-36302640D01*
X10014989Y-36259783D01*
X10029274Y-36231212D01*
X10043560Y-36188354D01*
X10057846Y-36116926D01*
X10057846Y-36059783D01*
X10043560Y-35988354D01*
X10029274Y-35945497D01*
X10014989Y-35916926D01*
X9986417Y-35874069D01*
X9972132Y-35859783D01*
M02*
