%FSLAX45Y45*%
G04 Gerber Fmt 4.5, Leading zero omitted, Abs format (unit mm)*
G04 Created by KiCad (PCBNEW (5.1.4)-1) date 2023-10-04 20:40:30*
%MOMM*%
%LPD*%
G04 APERTURE LIST*
%ADD10C,0.050000*%
%ADD11C,0.200000*%
%ADD12C,0.300000*%
G04 APERTURE END LIST*
D10*
X-28214691Y-39220855D02*
X-26453042Y-38509102D01*
X-19653989Y-44606091D02*
X-19775556Y-44892485D01*
X-24504089Y-38260941D02*
X-24373910Y-38316199D01*
X-21147311Y-37012568D02*
X-24373910Y-38316199D01*
X-26453042Y-38509102D02*
X-25802147Y-38785391D01*
X-31110000Y-40790000D02*
X-32109337Y-41193451D01*
X-21147311Y-37012568D02*
X-20860917Y-37134135D01*
X-19775556Y-44892485D02*
X-19875020Y-45126807D01*
X-28419145Y-39702517D02*
X-31110000Y-40790000D01*
X-18300300Y-44059165D02*
X-19653989Y-44606091D01*
X-18178733Y-43772772D02*
X-20860917Y-37134135D01*
X-25802147Y-38785391D02*
X-24504089Y-38260941D01*
X-18178733Y-43772772D02*
X-18300300Y-44059165D01*
X-28214691Y-39220855D02*
X-28419145Y-39702517D01*
X-36141528Y-39702517D02*
X-33450673Y-40790000D01*
X-33450673Y-40790000D02*
X-32451337Y-41193451D01*
X-32109337Y-41193451D02*
X-32451337Y-41193451D01*
X-36345982Y-39220855D02*
X-38107631Y-38509102D01*
X-43763696Y-47009251D02*
X-40008601Y-48526408D01*
X-44906684Y-44606091D02*
X-44785117Y-44892485D01*
X-40056584Y-38260941D02*
X-40186763Y-38316199D01*
X-43413363Y-37012568D02*
X-40186763Y-38316199D01*
X-43413363Y-37012568D02*
X-43699757Y-37134135D01*
X-36345982Y-39220855D02*
X-36141528Y-39702517D01*
X-43693567Y-45527636D02*
X-43489113Y-46009299D01*
X-38107631Y-38509102D02*
X-38758527Y-38785391D01*
X-44785117Y-44892485D02*
X-44685654Y-45126807D01*
X-43489113Y-46009299D02*
X-43830005Y-46853036D01*
X-44685654Y-45126807D02*
X-43693567Y-45527636D01*
X-46381940Y-43772772D02*
X-46260373Y-44059165D01*
X-46260373Y-44059165D02*
X-44906684Y-44606091D01*
X-46381940Y-43772772D02*
X-43699757Y-37134135D01*
X-43830005Y-46853036D02*
X-43763696Y-47009251D01*
X-38758527Y-38785391D02*
X-40056584Y-38260941D01*
X-40008601Y-48526408D02*
X-35583855Y-51856426D01*
X-20730668Y-46853036D02*
X-20796977Y-47009251D01*
X-20796977Y-47009251D02*
X-24552072Y-48526408D01*
X-24552072Y-48526408D02*
X-28976818Y-51856426D01*
X-21071560Y-46009299D02*
X-20730668Y-46853036D01*
X-20867106Y-45527636D02*
X-21071560Y-46009299D01*
X-19875020Y-45126807D02*
X-20867106Y-45527636D01*
X-35583855Y-51856426D02*
X-28976818Y-51856426D01*
D11*
X-26145317Y-43399130D02*
X-25975137Y-43569310D01*
X-25975137Y-43399130D02*
X-26145317Y-43569310D01*
X-25125414Y-42987062D02*
X-24955234Y-43157242D01*
X-24955234Y-42987062D02*
X-25125414Y-43157242D01*
X-22247412Y-42902808D02*
X-22077232Y-43072988D01*
X-22077232Y-42902808D02*
X-22247412Y-43072988D01*
X-21227509Y-42490741D02*
X-21057329Y-42660921D01*
X-21057329Y-42490741D02*
X-21227509Y-42660921D01*
X-45827927Y-43170368D02*
X-45657747Y-43340548D01*
X-45657747Y-43170368D02*
X-45827927Y-43340548D01*
X-44808025Y-43582435D02*
X-44637845Y-43752615D01*
X-44637845Y-43582435D02*
X-44808025Y-43752615D01*
X-26857069Y-41637480D02*
X-26686889Y-41807660D01*
X-26686889Y-41637480D02*
X-26857069Y-41807660D01*
X-25837167Y-41225413D02*
X-25666987Y-41395593D01*
X-25666987Y-41225413D02*
X-25837167Y-41395593D01*
X-24196364Y-43150969D02*
X-24026184Y-43321149D01*
X-24026184Y-43150969D02*
X-24196364Y-43321149D01*
X-23176462Y-42738902D02*
X-23006282Y-42909082D01*
X-23006282Y-42738902D02*
X-23176462Y-42909082D01*
X-38182958Y-39464367D02*
X-38012778Y-39634547D01*
X-38012778Y-39464367D02*
X-38182958Y-39634547D01*
X-37163056Y-39876435D02*
X-36992876Y-40046615D01*
X-36992876Y-39876435D02*
X-37163056Y-40046615D01*
X-44404422Y-39647070D02*
X-44234242Y-39817250D01*
X-44234242Y-39647070D02*
X-44404422Y-39817250D01*
X-43384520Y-40059137D02*
X-43214340Y-40229317D01*
X-43214340Y-40059137D02*
X-43384520Y-40229317D01*
X-42792616Y-40729696D02*
X-42622436Y-40899876D01*
X-42622436Y-40729696D02*
X-42792616Y-40899876D01*
X-41772713Y-41141763D02*
X-41602533Y-41311943D01*
X-41602533Y-41141763D02*
X-41772713Y-41311943D01*
X-24908117Y-41389320D02*
X-24737937Y-41559500D01*
X-24737937Y-41389320D02*
X-24908117Y-41559500D01*
X-23888214Y-40977253D02*
X-23718034Y-41147433D01*
X-23718034Y-40977253D02*
X-23888214Y-41147433D01*
X-19923852Y-43581832D02*
X-19753672Y-43752012D01*
X-19753672Y-43581832D02*
X-19923852Y-43752012D01*
X-18903950Y-43169765D02*
X-18733770Y-43339945D01*
X-18733770Y-43169765D02*
X-18903950Y-43339945D01*
X-23670917Y-39379510D02*
X-23500737Y-39549690D01*
X-23500737Y-39379510D02*
X-23670917Y-39549690D01*
X-22651014Y-38967443D02*
X-22480834Y-39137623D01*
X-22480834Y-38967443D02*
X-22651014Y-39137623D01*
X-20635605Y-41820182D02*
X-20465425Y-41990362D01*
X-20465425Y-41820182D02*
X-20635605Y-41990362D01*
X-19615703Y-41408115D02*
X-19445523Y-41578295D01*
X-19445523Y-41408115D02*
X-19615703Y-41578295D01*
X-39606463Y-42987666D02*
X-39436283Y-43157846D01*
X-39436283Y-42987666D02*
X-39606463Y-43157846D01*
X-38586561Y-43399733D02*
X-38416381Y-43569913D01*
X-38416381Y-43399733D02*
X-38586561Y-43569913D01*
X-25619869Y-39627670D02*
X-25449689Y-39797850D01*
X-25449689Y-39627670D02*
X-25619869Y-39797850D01*
X-24599967Y-39215603D02*
X-24429787Y-39385783D01*
X-24429787Y-39215603D02*
X-24599967Y-39385783D01*
X-40843663Y-40977856D02*
X-40673483Y-41148036D01*
X-40673483Y-40977856D02*
X-40843663Y-41148036D01*
X-39823761Y-41389923D02*
X-39653581Y-41560103D01*
X-39653581Y-41389923D02*
X-39823761Y-41560103D01*
X-25433564Y-45160779D02*
X-25263384Y-45330959D01*
X-25263384Y-45160779D02*
X-25433564Y-45330959D01*
X-24413662Y-44748712D02*
X-24243482Y-44918892D01*
X-24243482Y-44748712D02*
X-24413662Y-44918892D01*
X-27568822Y-39875831D02*
X-27398642Y-40046011D01*
X-27398642Y-39875831D02*
X-27568822Y-40046011D01*
X-26548920Y-39463764D02*
X-26378740Y-39633944D01*
X-26378740Y-39463764D02*
X-26548920Y-39633944D01*
X-44216121Y-44252994D02*
X-44045941Y-44423174D01*
X-44045941Y-44252994D02*
X-44216121Y-44423174D01*
X-43196218Y-44665061D02*
X-43026038Y-44835241D01*
X-43026038Y-44665061D02*
X-43196218Y-44835241D01*
X-40318215Y-44749315D02*
X-40148035Y-44919495D01*
X-40148035Y-44749315D02*
X-40318215Y-44919495D01*
X-39298313Y-45161383D02*
X-39128133Y-45331563D01*
X-39128133Y-45161383D02*
X-39298313Y-45331563D01*
X-42267168Y-44501155D02*
X-42096988Y-44671335D01*
X-42096988Y-44501155D02*
X-42267168Y-44671335D01*
X-41247266Y-44913222D02*
X-41077086Y-45083402D01*
X-41077086Y-44913222D02*
X-41247266Y-45083402D01*
X-45116175Y-41408719D02*
X-44945995Y-41578899D01*
X-44945995Y-41408719D02*
X-45116175Y-41578899D01*
X-44096273Y-41820786D02*
X-43926093Y-41990966D01*
X-43926093Y-41820786D02*
X-44096273Y-41990966D01*
X-38894710Y-41226017D02*
X-38724530Y-41396197D01*
X-38724530Y-41226017D02*
X-38894710Y-41396197D01*
X-37874808Y-41638084D02*
X-37704628Y-41808264D01*
X-37704628Y-41638084D02*
X-37874808Y-41808264D01*
X-43692670Y-37885420D02*
X-43522490Y-38055600D01*
X-43522490Y-37885420D02*
X-43692670Y-38055600D01*
X-42672768Y-38297487D02*
X-42502588Y-38467667D01*
X-42502588Y-38297487D02*
X-42672768Y-38467667D01*
X-22059110Y-38296884D02*
X-21888930Y-38467064D01*
X-21888930Y-38296884D02*
X-22059110Y-38467064D01*
X-21039208Y-37884817D02*
X-20869028Y-38054997D01*
X-20869028Y-37884817D02*
X-21039208Y-38054997D01*
X-41555415Y-42739506D02*
X-41385235Y-42909686D01*
X-41385235Y-42739506D02*
X-41555415Y-42909686D01*
X-40535513Y-43151573D02*
X-40365333Y-43321753D01*
X-40365333Y-43151573D02*
X-40535513Y-43321753D01*
X-23484612Y-44912618D02*
X-23314432Y-45082798D01*
X-23314432Y-44912618D02*
X-23484612Y-45082798D01*
X-22464709Y-44500551D02*
X-22294529Y-44670731D01*
X-22294529Y-44500551D02*
X-22464709Y-44670731D01*
X-21535659Y-44664458D02*
X-21365479Y-44834638D01*
X-21365479Y-44664458D02*
X-21535659Y-44834638D01*
X-20515757Y-44252391D02*
X-20345577Y-44422571D01*
X-20345577Y-44252391D02*
X-20515757Y-44422571D01*
X-40131910Y-39216207D02*
X-39961730Y-39386387D01*
X-39961730Y-39216207D02*
X-40131910Y-39386387D01*
X-39112008Y-39628274D02*
X-38941828Y-39798454D01*
X-38941828Y-39628274D02*
X-39112008Y-39798454D01*
X-22959164Y-41141159D02*
X-22788984Y-41311339D01*
X-22788984Y-41141159D02*
X-22959164Y-41311339D01*
X-21939262Y-40729092D02*
X-21769082Y-40899272D01*
X-21769082Y-40729092D02*
X-21939262Y-40899272D01*
X-42080863Y-38968046D02*
X-41910683Y-39138226D01*
X-41910683Y-38968046D02*
X-42080863Y-39138226D01*
X-41060961Y-39380113D02*
X-40890781Y-39550293D01*
X-40890781Y-39380113D02*
X-41060961Y-39550293D01*
X-43504368Y-42491345D02*
X-43334188Y-42661525D01*
X-43334188Y-42491345D02*
X-43504368Y-42661525D01*
X-42484466Y-42903412D02*
X-42314286Y-43073592D01*
X-42314286Y-42903412D02*
X-42484466Y-43073592D01*
X-21347357Y-40058533D02*
X-21177177Y-40228713D01*
X-21177177Y-40058533D02*
X-21347357Y-40228713D01*
X-20327455Y-39646466D02*
X-20157275Y-39816646D01*
X-20157275Y-39646466D02*
X-20327455Y-39816646D01*
X-23013020Y-45375701D02*
G75*
G03X-23013020Y-45375701I-147500J0D01*
G01*
X-22285604Y-45227408D02*
G75*
G03X-22285604Y-45227408I-147500J0D01*
G01*
X-21064067Y-45127540D02*
G75*
G03X-21064067Y-45127540I-147500J0D01*
G01*
X-20336651Y-44979247D02*
G75*
G03X-20336651Y-44979247I-147500J0D01*
G01*
X-39989973Y-39739226D02*
G75*
G03X-39989973Y-39739226I-147500J0D01*
G01*
X-39363700Y-40137859D02*
G75*
G03X-39363700Y-40137859I-147500J0D01*
G01*
X-22487572Y-41604242D02*
G75*
G03X-22487572Y-41604242I-147500J0D01*
G01*
X-21760156Y-41455949D02*
G75*
G03X-21760156Y-41455949I-147500J0D01*
G01*
X-41938925Y-39491066D02*
G75*
G03X-41938925Y-39491066I-147500J0D01*
G01*
X-41312653Y-39889698D02*
G75*
G03X-41312653Y-39889698I-147500J0D01*
G01*
X-43362430Y-43014364D02*
G75*
G03X-43362430Y-43014364I-147500J0D01*
G01*
X-42736158Y-43412997D02*
G75*
G03X-42736158Y-43412997I-147500J0D01*
G01*
X-20875766Y-40521616D02*
G75*
G03X-20875766Y-40521616I-147500J0D01*
G01*
X-20148350Y-40373323D02*
G75*
G03X-20148350Y-40373323I-147500J0D01*
G01*
X-25673725Y-43862212D02*
G75*
G03X-25673725Y-43862212I-147500J0D01*
G01*
X-24946309Y-43713919D02*
G75*
G03X-24946309Y-43713919I-147500J0D01*
G01*
X-21775820Y-43365891D02*
G75*
G03X-21775820Y-43365891I-147500J0D01*
G01*
X-21048404Y-43217598D02*
G75*
G03X-21048404Y-43217598I-147500J0D01*
G01*
X-45685989Y-43693388D02*
G75*
G03X-45685989Y-43693388I-147500J0D01*
G01*
X-45059717Y-44092020D02*
G75*
G03X-45059717Y-44092020I-147500J0D01*
G01*
X-26385478Y-42100563D02*
G75*
G03X-26385478Y-42100563I-147500J0D01*
G01*
X-25658062Y-41952270D02*
G75*
G03X-25658062Y-41952270I-147500J0D01*
G01*
X-23724772Y-43614051D02*
G75*
G03X-23724772Y-43614051I-147500J0D01*
G01*
X-22997356Y-43465758D02*
G75*
G03X-22997356Y-43465758I-147500J0D01*
G01*
X-38041020Y-39987387D02*
G75*
G03X-38041020Y-39987387I-147500J0D01*
G01*
X-37414748Y-40386019D02*
G75*
G03X-37414748Y-40386019I-147500J0D01*
G01*
X-44262484Y-40170089D02*
G75*
G03X-44262484Y-40170089I-147500J0D01*
G01*
X-43636212Y-40568722D02*
G75*
G03X-43636212Y-40568722I-147500J0D01*
G01*
X-42650678Y-41252715D02*
G75*
G03X-42650678Y-41252715I-147500J0D01*
G01*
X-42024405Y-41651348D02*
G75*
G03X-42024405Y-41651348I-147500J0D01*
G01*
X-24436525Y-41852402D02*
G75*
G03X-24436525Y-41852402I-147500J0D01*
G01*
X-23709109Y-41704109D02*
G75*
G03X-23709109Y-41704109I-147500J0D01*
G01*
X-19452261Y-44044914D02*
G75*
G03X-19452261Y-44044914I-147500J0D01*
G01*
X-18724845Y-43896621D02*
G75*
G03X-18724845Y-43896621I-147500J0D01*
G01*
X-23199325Y-39842592D02*
G75*
G03X-23199325Y-39842592I-147500J0D01*
G01*
X-22471909Y-39694299D02*
G75*
G03X-22471909Y-39694299I-147500J0D01*
G01*
X-20164013Y-42283265D02*
G75*
G03X-20164013Y-42283265I-147500J0D01*
G01*
X-19436597Y-42134972D02*
G75*
G03X-19436597Y-42134972I-147500J0D01*
G01*
X-39464525Y-43510686D02*
G75*
G03X-39464525Y-43510686I-147500J0D01*
G01*
X-38838253Y-43909318D02*
G75*
G03X-38838253Y-43909318I-147500J0D01*
G01*
X-25148278Y-40090753D02*
G75*
G03X-25148278Y-40090753I-147500J0D01*
G01*
X-24420861Y-39942460D02*
G75*
G03X-24420861Y-39942460I-147500J0D01*
G01*
X-40701725Y-41500876D02*
G75*
G03X-40701725Y-41500876I-147500J0D01*
G01*
X-40075453Y-41899508D02*
G75*
G03X-40075453Y-41899508I-147500J0D01*
G01*
X-24961973Y-45623861D02*
G75*
G03X-24961973Y-45623861I-147500J0D01*
G01*
X-24234556Y-45475568D02*
G75*
G03X-24234556Y-45475568I-147500J0D01*
G01*
X-27097230Y-40338913D02*
G75*
G03X-27097230Y-40338913I-147500J0D01*
G01*
X-26369814Y-40190620D02*
G75*
G03X-26369814Y-40190620I-147500J0D01*
G01*
X-44074183Y-44776014D02*
G75*
G03X-44074183Y-44776014I-147500J0D01*
G01*
X-43447911Y-45174646D02*
G75*
G03X-43447911Y-45174646I-147500J0D01*
G01*
X-40176278Y-45272335D02*
G75*
G03X-40176278Y-45272335I-147500J0D01*
G01*
X-39550005Y-45670967D02*
G75*
G03X-39550005Y-45670967I-147500J0D01*
G01*
X-42125230Y-45024174D02*
G75*
G03X-42125230Y-45024174I-147500J0D01*
G01*
X-41498958Y-45422807D02*
G75*
G03X-41498958Y-45422807I-147500J0D01*
G01*
X-44974237Y-41931738D02*
G75*
G03X-44974237Y-41931738I-147500J0D01*
G01*
X-44347965Y-42330371D02*
G75*
G03X-44347965Y-42330371I-147500J0D01*
G01*
X-38752773Y-41749036D02*
G75*
G03X-38752773Y-41749036I-147500J0D01*
G01*
X-38126500Y-42147669D02*
G75*
G03X-38126500Y-42147669I-147500J0D01*
G01*
X-43550732Y-38408440D02*
G75*
G03X-43550732Y-38408440I-147500J0D01*
G01*
X-42924460Y-38807072D02*
G75*
G03X-42924460Y-38807072I-147500J0D01*
G01*
X-21587518Y-38759966D02*
G75*
G03X-21587518Y-38759966I-147500J0D01*
G01*
X-20860102Y-38611673D02*
G75*
G03X-20860102Y-38611673I-147500J0D01*
G01*
X-41413478Y-43262525D02*
G75*
G03X-41413478Y-43262525I-147500J0D01*
G01*
X-40787205Y-43661158D02*
G75*
G03X-40787205Y-43661158I-147500J0D01*
G01*
X-20263455Y-40997564D02*
X-20263455Y-41297564D01*
X-20413455Y-41147564D02*
X-20113455Y-41147564D01*
X-19717449Y-41014242D02*
X-19717449Y-41314242D01*
X-19867449Y-41164242D02*
X-19567449Y-41164242D01*
X-38788531Y-42577115D02*
X-38788531Y-42877115D01*
X-38938531Y-42727115D02*
X-38638531Y-42727115D01*
X-38407352Y-42968399D02*
X-38407352Y-43268399D01*
X-38557352Y-43118399D02*
X-38257352Y-43118399D01*
X-25247719Y-38805052D02*
X-25247719Y-39105052D01*
X-25397719Y-38955052D02*
X-25097719Y-38955052D01*
X-24701714Y-38821730D02*
X-24701714Y-39121730D01*
X-24851714Y-38971730D02*
X-24551714Y-38971730D01*
X-40025731Y-40567305D02*
X-40025731Y-40867305D01*
X-40175731Y-40717305D02*
X-39875731Y-40717305D01*
X-39644552Y-40958589D02*
X-39644552Y-41258589D01*
X-39794552Y-41108589D02*
X-39494552Y-41108589D01*
X-25061414Y-44338161D02*
X-25061414Y-44638161D01*
X-25211414Y-44488161D02*
X-24911414Y-44488161D01*
X-24515409Y-44354838D02*
X-24515409Y-44654838D01*
X-24665409Y-44504838D02*
X-24365409Y-44504838D01*
X-27196672Y-39053213D02*
X-27196672Y-39353213D01*
X-27346672Y-39203213D02*
X-27046672Y-39203213D01*
X-26650666Y-39069890D02*
X-26650666Y-39369890D01*
X-26800666Y-39219890D02*
X-26500666Y-39219890D01*
X-43398189Y-43842443D02*
X-43398189Y-44142443D01*
X-43548189Y-43992443D02*
X-43248189Y-43992443D01*
X-43017010Y-44233727D02*
X-43017010Y-44533727D01*
X-43167010Y-44383727D02*
X-42867010Y-44383727D01*
X-39500283Y-44338765D02*
X-39500283Y-44638765D01*
X-39650283Y-44488765D02*
X-39350283Y-44488765D01*
X-39119105Y-44730048D02*
X-39119105Y-45030048D01*
X-39269105Y-44880048D02*
X-38969105Y-44880048D01*
X-41449236Y-44090604D02*
X-41449236Y-44390604D01*
X-41599236Y-44240604D02*
X-41299236Y-44240604D01*
X-41068057Y-44481888D02*
X-41068057Y-44781888D01*
X-41218057Y-44631888D02*
X-40918057Y-44631888D01*
X-44298243Y-40998168D02*
X-44298243Y-41298168D01*
X-44448243Y-41148168D02*
X-44148243Y-41148168D01*
X-43917064Y-41389452D02*
X-43917064Y-41689452D01*
X-44067064Y-41539452D02*
X-43767064Y-41539452D01*
X-38076778Y-40815466D02*
X-38076778Y-41115466D01*
X-38226778Y-40965466D02*
X-37926778Y-40965466D01*
X-37695600Y-41206750D02*
X-37695600Y-41506750D01*
X-37845600Y-41356750D02*
X-37545600Y-41356750D01*
X-42874738Y-37474869D02*
X-42874738Y-37774869D01*
X-43024738Y-37624869D02*
X-42724738Y-37624869D01*
X-42493559Y-37866153D02*
X-42493559Y-38166153D01*
X-42643559Y-38016153D02*
X-42343559Y-38016153D01*
X-21686960Y-37474266D02*
X-21686960Y-37774266D01*
X-21836960Y-37624266D02*
X-21536960Y-37624266D01*
X-21140954Y-37490943D02*
X-21140954Y-37790943D01*
X-21290954Y-37640943D02*
X-20990954Y-37640943D01*
X-40737483Y-42328955D02*
X-40737483Y-42628955D01*
X-40887483Y-42478955D02*
X-40587483Y-42478955D01*
X-40356305Y-42720239D02*
X-40356305Y-43020239D01*
X-40506305Y-42870239D02*
X-40206305Y-42870239D01*
X-23112461Y-44090000D02*
X-23112461Y-44390000D01*
X-23262461Y-44240000D02*
X-22962461Y-44240000D01*
X-22566456Y-44106678D02*
X-22566456Y-44406678D01*
X-22716456Y-44256678D02*
X-22416456Y-44256678D01*
X-21163509Y-43841840D02*
X-21163509Y-44141840D01*
X-21313509Y-43991840D02*
X-21013509Y-43991840D01*
X-20617503Y-43858517D02*
X-20617503Y-44158517D01*
X-20767503Y-44008517D02*
X-20467503Y-44008517D01*
X-39313978Y-38805656D02*
X-39313978Y-39105656D01*
X-39463978Y-38955656D02*
X-39163978Y-38955656D01*
X-38932800Y-39196940D02*
X-38932800Y-39496940D01*
X-39082800Y-39346940D02*
X-38782800Y-39346940D01*
X-22587014Y-40318541D02*
X-22587014Y-40618541D01*
X-22737014Y-40468541D02*
X-22437014Y-40468541D01*
X-22041008Y-40335218D02*
X-22041008Y-40635218D01*
X-22191008Y-40485218D02*
X-21891008Y-40485218D01*
X-41262931Y-38557495D02*
X-41262931Y-38857495D01*
X-41412931Y-38707495D02*
X-41112931Y-38707495D01*
X-40881753Y-38948779D02*
X-40881753Y-39248779D01*
X-41031753Y-39098779D02*
X-40731753Y-39098779D01*
X-42686436Y-42080794D02*
X-42686436Y-42380794D01*
X-42836436Y-42230794D02*
X-42536436Y-42230794D01*
X-42305258Y-42472078D02*
X-42305258Y-42772078D01*
X-42455258Y-42622078D02*
X-42155258Y-42622078D01*
X-20975207Y-39235915D02*
X-20975207Y-39535915D01*
X-21125207Y-39385915D02*
X-20825207Y-39385915D01*
X-20429202Y-39252592D02*
X-20429202Y-39552592D01*
X-20579202Y-39402592D02*
X-20279202Y-39402592D01*
X-25773166Y-42576512D02*
X-25773166Y-42876512D01*
X-25923166Y-42726512D02*
X-25623166Y-42726512D01*
X-25227161Y-42593189D02*
X-25227161Y-42893189D01*
X-25377161Y-42743189D02*
X-25077161Y-42743189D01*
X-21875261Y-42080190D02*
X-21875261Y-42380190D01*
X-22025261Y-42230190D02*
X-21725261Y-42230190D01*
X-21329256Y-42096868D02*
X-21329256Y-42396868D01*
X-21479256Y-42246868D02*
X-21179256Y-42246868D01*
X-45009995Y-42759817D02*
X-45009995Y-43059817D01*
X-45159995Y-42909817D02*
X-44859995Y-42909817D01*
X-44628817Y-43151101D02*
X-44628817Y-43451101D01*
X-44778817Y-43301101D02*
X-44478817Y-43301101D01*
X-26484919Y-40814862D02*
X-26484919Y-41114862D01*
X-26634919Y-40964862D02*
X-26334919Y-40964862D01*
X-25938914Y-40831540D02*
X-25938914Y-41131540D01*
X-26088914Y-40981540D02*
X-25788914Y-40981540D01*
X-23824214Y-42328351D02*
X-23824214Y-42628351D01*
X-23974214Y-42478351D02*
X-23674214Y-42478351D01*
X-23278208Y-42345028D02*
X-23278208Y-42645028D01*
X-23428208Y-42495028D02*
X-23128208Y-42495028D01*
X-37365026Y-39053817D02*
X-37365026Y-39353817D01*
X-37515026Y-39203817D02*
X-37215026Y-39203817D01*
X-36983847Y-39445100D02*
X-36983847Y-39745100D01*
X-37133847Y-39595100D02*
X-36833847Y-39595100D01*
X-43586490Y-39236519D02*
X-43586490Y-39536519D01*
X-43736490Y-39386519D02*
X-43436490Y-39386519D01*
X-43205312Y-39627803D02*
X-43205312Y-39927803D01*
X-43355312Y-39777803D02*
X-43055312Y-39777803D01*
X-41974684Y-40319145D02*
X-41974684Y-40619145D01*
X-42124684Y-40469145D02*
X-41824684Y-40469145D01*
X-41593505Y-40710429D02*
X-41593505Y-41010429D01*
X-41743505Y-40860429D02*
X-41443505Y-40860429D01*
X-24535966Y-40566702D02*
X-24535966Y-40866702D01*
X-24685966Y-40716702D02*
X-24385966Y-40716702D01*
X-23989961Y-40583379D02*
X-23989961Y-40883379D01*
X-24139961Y-40733379D02*
X-23839961Y-40733379D01*
X-19551702Y-42759214D02*
X-19551702Y-43059214D01*
X-19701702Y-42909214D02*
X-19401702Y-42909214D01*
X-19005697Y-42775891D02*
X-19005697Y-43075891D01*
X-19155697Y-42925891D02*
X-18855697Y-42925891D01*
X-23298766Y-38556892D02*
X-23298766Y-38856892D01*
X-23448766Y-38706892D02*
X-23148766Y-38706892D01*
X-22752761Y-38573569D02*
X-22752761Y-38873569D01*
X-22902761Y-38723569D02*
X-22602761Y-38723569D01*
X-25371729Y-43456732D02*
X-25371729Y-43099640D01*
X-25728822Y-43099640D01*
X-25728822Y-43456732D01*
X-25371729Y-43456732D01*
X-21473824Y-42960411D02*
X-21473824Y-42603319D01*
X-21830917Y-42603319D01*
X-21830917Y-42960411D01*
X-21473824Y-42960411D01*
X-45054340Y-43640038D02*
X-45054340Y-43282946D01*
X-45411432Y-43282946D01*
X-45411432Y-43640038D01*
X-45054340Y-43640038D01*
X-26083482Y-41695083D02*
X-26083482Y-41337991D01*
X-26440574Y-41337991D01*
X-26440574Y-41695083D01*
X-26083482Y-41695083D01*
X-23422777Y-43208572D02*
X-23422777Y-42851479D01*
X-23779869Y-42851479D01*
X-23779869Y-43208572D01*
X-23422777Y-43208572D01*
X-37409370Y-39934037D02*
X-37409370Y-39576945D01*
X-37766463Y-39576945D01*
X-37766463Y-39934037D01*
X-37409370Y-39934037D01*
X-43630835Y-40116739D02*
X-43630835Y-39759647D01*
X-43987927Y-39759647D01*
X-43987927Y-40116739D01*
X-43630835Y-40116739D01*
X-42019028Y-41199365D02*
X-42019028Y-40842273D01*
X-42376121Y-40842273D01*
X-42376121Y-41199365D01*
X-42019028Y-41199365D01*
X-24134529Y-41446922D02*
X-24134529Y-41089830D01*
X-24491622Y-41089830D01*
X-24491622Y-41446922D01*
X-24134529Y-41446922D01*
X-19150265Y-43639434D02*
X-19150265Y-43282342D01*
X-19507357Y-43282342D01*
X-19507357Y-43639434D01*
X-19150265Y-43639434D01*
X-22897329Y-39437112D02*
X-22897329Y-39080020D01*
X-23254422Y-39080020D01*
X-23254422Y-39437112D01*
X-22897329Y-39437112D01*
X-19862018Y-41877785D02*
X-19862018Y-41520693D01*
X-20219110Y-41520693D01*
X-20219110Y-41877785D01*
X-19862018Y-41877785D01*
X-38832876Y-43457336D02*
X-38832876Y-43100244D01*
X-39189968Y-43100244D01*
X-39189968Y-43457336D01*
X-38832876Y-43457336D01*
X-24846282Y-39685273D02*
X-24846282Y-39328181D01*
X-25203374Y-39328181D01*
X-25203374Y-39685273D01*
X-24846282Y-39685273D01*
X-40070076Y-41447526D02*
X-40070076Y-41090434D01*
X-40427168Y-41090434D01*
X-40427168Y-41447526D01*
X-40070076Y-41447526D01*
X-24659977Y-45218382D02*
X-24659977Y-44861289D01*
X-25017069Y-44861289D01*
X-25017069Y-45218382D01*
X-24659977Y-45218382D01*
X-26795234Y-39933434D02*
X-26795234Y-39576341D01*
X-27152327Y-39576341D01*
X-27152327Y-39933434D01*
X-26795234Y-39933434D01*
X-43442533Y-44722664D02*
X-43442533Y-44365572D01*
X-43799626Y-44365572D01*
X-43799626Y-44722664D01*
X-43442533Y-44722664D01*
X-39544628Y-45218985D02*
X-39544628Y-44861893D01*
X-39901720Y-44861893D01*
X-39901720Y-45218985D01*
X-39544628Y-45218985D01*
X-41493581Y-44970825D02*
X-41493581Y-44613732D01*
X-41850673Y-44613732D01*
X-41850673Y-44970825D01*
X-41493581Y-44970825D01*
X-44342587Y-41878389D02*
X-44342587Y-41521296D01*
X-44699680Y-41521296D01*
X-44699680Y-41878389D01*
X-44342587Y-41878389D01*
X-38121123Y-41695687D02*
X-38121123Y-41338594D01*
X-38478215Y-41338594D01*
X-38478215Y-41695687D01*
X-38121123Y-41695687D01*
X-42919082Y-38355090D02*
X-42919082Y-37997998D01*
X-43276175Y-37997998D01*
X-43276175Y-38355090D01*
X-42919082Y-38355090D01*
X-21285523Y-38354486D02*
X-21285523Y-37997394D01*
X-21642615Y-37997394D01*
X-21642615Y-38354486D01*
X-21285523Y-38354486D01*
X-40781828Y-43209175D02*
X-40781828Y-42852083D01*
X-41138921Y-42852083D01*
X-41138921Y-43209175D01*
X-40781828Y-43209175D01*
X-22711024Y-44970221D02*
X-22711024Y-44613129D01*
X-23068117Y-44613129D01*
X-23068117Y-44970221D01*
X-22711024Y-44970221D01*
X-20762072Y-44722060D02*
X-20762072Y-44364968D01*
X-21119164Y-44364968D01*
X-21119164Y-44722060D01*
X-20762072Y-44722060D01*
X-39358323Y-39685877D02*
X-39358323Y-39328784D01*
X-39715416Y-39328784D01*
X-39715416Y-39685877D01*
X-39358323Y-39685877D01*
X-22185577Y-41198762D02*
X-22185577Y-40841669D01*
X-22542669Y-40841669D01*
X-22542669Y-41198762D01*
X-22185577Y-41198762D01*
X-41307276Y-39437716D02*
X-41307276Y-39080624D01*
X-41664368Y-39080624D01*
X-41664368Y-39437716D01*
X-41307276Y-39437716D01*
X-42730781Y-42961015D02*
X-42730781Y-42603922D01*
X-43087873Y-42603922D01*
X-43087873Y-42961015D01*
X-42730781Y-42961015D01*
X-20573770Y-40116136D02*
X-20573770Y-39759043D01*
X-20930862Y-39759043D01*
X-20930862Y-40116136D01*
X-20573770Y-40116136D01*
D12*
X-46098011Y-52324640D02*
X-46098011Y-52024640D01*
X-46026583Y-52024640D01*
X-45983726Y-52038926D01*
X-45955154Y-52067497D01*
X-45940868Y-52096069D01*
X-45926583Y-52153212D01*
X-45926583Y-52196069D01*
X-45940868Y-52253212D01*
X-45955154Y-52281783D01*
X-45983726Y-52310354D01*
X-46026583Y-52324640D01*
X-46098011Y-52324640D01*
X-45798011Y-52324640D02*
X-45798011Y-52124640D01*
X-45798011Y-52181783D02*
X-45783726Y-52153212D01*
X-45769440Y-52138926D01*
X-45740868Y-52124640D01*
X-45712297Y-52124640D01*
X-45612297Y-52324640D02*
X-45612297Y-52124640D01*
X-45612297Y-52024640D02*
X-45626583Y-52038926D01*
X-45612297Y-52053212D01*
X-45598011Y-52038926D01*
X-45612297Y-52024640D01*
X-45612297Y-52053212D01*
X-45426583Y-52324640D02*
X-45455154Y-52310354D01*
X-45469440Y-52281783D01*
X-45469440Y-52024640D01*
X-45269440Y-52324640D02*
X-45298011Y-52310354D01*
X-45312297Y-52281783D01*
X-45312297Y-52024640D01*
X-44926583Y-52324640D02*
X-44926583Y-52024640D01*
X-44826583Y-52238926D01*
X-44726583Y-52024640D01*
X-44726583Y-52324640D01*
X-44455154Y-52324640D02*
X-44455154Y-52167497D01*
X-44469440Y-52138926D01*
X-44498011Y-52124640D01*
X-44555154Y-52124640D01*
X-44583726Y-52138926D01*
X-44455154Y-52310354D02*
X-44483726Y-52324640D01*
X-44555154Y-52324640D01*
X-44583726Y-52310354D01*
X-44598011Y-52281783D01*
X-44598011Y-52253212D01*
X-44583726Y-52224640D01*
X-44555154Y-52210354D01*
X-44483726Y-52210354D01*
X-44455154Y-52196069D01*
X-44312297Y-52124640D02*
X-44312297Y-52424640D01*
X-44312297Y-52138926D02*
X-44283726Y-52124640D01*
X-44226583Y-52124640D01*
X-44198011Y-52138926D01*
X-44183726Y-52153212D01*
X-44169440Y-52181783D01*
X-44169440Y-52267497D01*
X-44183726Y-52296069D01*
X-44198011Y-52310354D01*
X-44226583Y-52324640D01*
X-44283726Y-52324640D01*
X-44312297Y-52310354D01*
X-44040868Y-52296069D02*
X-44026583Y-52310354D01*
X-44040868Y-52324640D01*
X-44055154Y-52310354D01*
X-44040868Y-52296069D01*
X-44040868Y-52324640D01*
X-44040868Y-52138926D02*
X-44026583Y-52153212D01*
X-44040868Y-52167497D01*
X-44055154Y-52153212D01*
X-44040868Y-52138926D01*
X-44040868Y-52167497D01*
X-46554620Y-52733836D02*
X-46384440Y-52904016D01*
X-46384440Y-52733836D02*
X-46554620Y-52904016D01*
X-45940868Y-52954640D02*
X-46112297Y-52954640D01*
X-46026583Y-52954640D02*
X-46026583Y-52654640D01*
X-46055154Y-52697497D01*
X-46083726Y-52726069D01*
X-46112297Y-52740354D01*
X-45812297Y-52926069D02*
X-45798011Y-52940354D01*
X-45812297Y-52954640D01*
X-45826583Y-52940354D01*
X-45812297Y-52926069D01*
X-45812297Y-52954640D01*
X-45698011Y-52654640D02*
X-45498011Y-52654640D01*
X-45626583Y-52954640D01*
X-45326583Y-52654640D02*
X-45298011Y-52654640D01*
X-45269440Y-52668926D01*
X-45255154Y-52683212D01*
X-45240868Y-52711783D01*
X-45226583Y-52768926D01*
X-45226583Y-52840354D01*
X-45240868Y-52897497D01*
X-45255154Y-52926069D01*
X-45269440Y-52940354D01*
X-45298011Y-52954640D01*
X-45326583Y-52954640D01*
X-45355154Y-52940354D01*
X-45369440Y-52926069D01*
X-45383726Y-52897497D01*
X-45398011Y-52840354D01*
X-45398011Y-52768926D01*
X-45383726Y-52711783D01*
X-45369440Y-52683212D01*
X-45355154Y-52668926D01*
X-45326583Y-52654640D01*
X-45098011Y-52954640D02*
X-45098011Y-52754640D01*
X-45098011Y-52783212D02*
X-45083726Y-52768926D01*
X-45055154Y-52754640D01*
X-45012297Y-52754640D01*
X-44983726Y-52768926D01*
X-44969440Y-52797497D01*
X-44969440Y-52954640D01*
X-44969440Y-52797497D02*
X-44955154Y-52768926D01*
X-44926583Y-52754640D01*
X-44883726Y-52754640D01*
X-44855154Y-52768926D01*
X-44840868Y-52797497D01*
X-44840868Y-52954640D01*
X-44698011Y-52954640D02*
X-44698011Y-52754640D01*
X-44698011Y-52783212D02*
X-44683726Y-52768926D01*
X-44655154Y-52754640D01*
X-44612297Y-52754640D01*
X-44583726Y-52768926D01*
X-44569440Y-52797497D01*
X-44569440Y-52954640D01*
X-44569440Y-52797497D02*
X-44555154Y-52768926D01*
X-44526583Y-52754640D01*
X-44483726Y-52754640D01*
X-44455154Y-52768926D01*
X-44440868Y-52797497D01*
X-44440868Y-52954640D01*
X-43855154Y-52640354D02*
X-44112297Y-53026069D01*
X-43469440Y-52654640D02*
X-43440868Y-52654640D01*
X-43412297Y-52668926D01*
X-43398011Y-52683212D01*
X-43383726Y-52711783D01*
X-43369440Y-52768926D01*
X-43369440Y-52840354D01*
X-43383726Y-52897497D01*
X-43398011Y-52926069D01*
X-43412297Y-52940354D01*
X-43440868Y-52954640D01*
X-43469440Y-52954640D01*
X-43498011Y-52940354D01*
X-43512297Y-52926069D01*
X-43526583Y-52897497D01*
X-43540868Y-52840354D01*
X-43540868Y-52768926D01*
X-43526583Y-52711783D01*
X-43512297Y-52683212D01*
X-43498011Y-52668926D01*
X-43469440Y-52654640D01*
X-43240868Y-52926069D02*
X-43226583Y-52940354D01*
X-43240868Y-52954640D01*
X-43255154Y-52940354D01*
X-43240868Y-52926069D01*
X-43240868Y-52954640D01*
X-43040868Y-52654640D02*
X-43012297Y-52654640D01*
X-42983726Y-52668926D01*
X-42969440Y-52683212D01*
X-42955154Y-52711783D01*
X-42940868Y-52768926D01*
X-42940868Y-52840354D01*
X-42955154Y-52897497D01*
X-42969440Y-52926069D01*
X-42983726Y-52940354D01*
X-43012297Y-52954640D01*
X-43040868Y-52954640D01*
X-43069440Y-52940354D01*
X-43083726Y-52926069D01*
X-43098011Y-52897497D01*
X-43112297Y-52840354D01*
X-43112297Y-52768926D01*
X-43098011Y-52711783D01*
X-43083726Y-52683212D01*
X-43069440Y-52668926D01*
X-43040868Y-52654640D01*
X-42683726Y-52654640D02*
X-42740868Y-52654640D01*
X-42769440Y-52668926D01*
X-42783726Y-52683212D01*
X-42812297Y-52726069D01*
X-42826583Y-52783212D01*
X-42826583Y-52897497D01*
X-42812297Y-52926069D01*
X-42798011Y-52940354D01*
X-42769440Y-52954640D01*
X-42712297Y-52954640D01*
X-42683726Y-52940354D01*
X-42669440Y-52926069D01*
X-42655154Y-52897497D01*
X-42655154Y-52826069D01*
X-42669440Y-52797497D01*
X-42683726Y-52783212D01*
X-42712297Y-52768926D01*
X-42769440Y-52768926D01*
X-42798011Y-52783212D01*
X-42812297Y-52797497D01*
X-42826583Y-52826069D01*
X-42555154Y-52654640D02*
X-42355154Y-52654640D01*
X-42483726Y-52954640D01*
X-42255154Y-52654640D02*
X-42255154Y-52711783D01*
X-42140868Y-52654640D02*
X-42140868Y-52711783D01*
X-41698011Y-53068926D02*
X-41712297Y-53054640D01*
X-41740868Y-53011783D01*
X-41755154Y-52983212D01*
X-41769440Y-52940354D01*
X-41783726Y-52868926D01*
X-41783726Y-52811783D01*
X-41769440Y-52740354D01*
X-41755154Y-52697497D01*
X-41740868Y-52668926D01*
X-41712297Y-52626069D01*
X-41698011Y-52611783D01*
X-41455154Y-52654640D02*
X-41512297Y-52654640D01*
X-41540868Y-52668926D01*
X-41555154Y-52683212D01*
X-41583726Y-52726069D01*
X-41598011Y-52783212D01*
X-41598011Y-52897497D01*
X-41583726Y-52926069D01*
X-41569440Y-52940354D01*
X-41540868Y-52954640D01*
X-41483726Y-52954640D01*
X-41455154Y-52940354D01*
X-41440868Y-52926069D01*
X-41426583Y-52897497D01*
X-41426583Y-52826069D01*
X-41440868Y-52797497D01*
X-41455154Y-52783212D01*
X-41483726Y-52768926D01*
X-41540868Y-52768926D01*
X-41569440Y-52783212D01*
X-41583726Y-52797497D01*
X-41598011Y-52826069D01*
X-41169440Y-52754640D02*
X-41169440Y-52954640D01*
X-41240868Y-52640354D02*
X-41312297Y-52854640D01*
X-41126583Y-52854640D01*
X-40783726Y-52954640D02*
X-40783726Y-52654640D01*
X-40655154Y-52954640D02*
X-40655154Y-52797497D01*
X-40669440Y-52768926D01*
X-40698011Y-52754640D01*
X-40740868Y-52754640D01*
X-40769440Y-52768926D01*
X-40783726Y-52783212D01*
X-40469440Y-52954640D02*
X-40498011Y-52940354D01*
X-40512297Y-52926069D01*
X-40526583Y-52897497D01*
X-40526583Y-52811783D01*
X-40512297Y-52783212D01*
X-40498011Y-52768926D01*
X-40469440Y-52754640D01*
X-40426583Y-52754640D01*
X-40398011Y-52768926D01*
X-40383726Y-52783212D01*
X-40369440Y-52811783D01*
X-40369440Y-52897497D01*
X-40383726Y-52926069D01*
X-40398011Y-52940354D01*
X-40426583Y-52954640D01*
X-40469440Y-52954640D01*
X-40198011Y-52954640D02*
X-40226583Y-52940354D01*
X-40240868Y-52911783D01*
X-40240868Y-52654640D01*
X-39969440Y-52940354D02*
X-39998011Y-52954640D01*
X-40055154Y-52954640D01*
X-40083726Y-52940354D01*
X-40098011Y-52911783D01*
X-40098011Y-52797497D01*
X-40083726Y-52768926D01*
X-40055154Y-52754640D01*
X-39998011Y-52754640D01*
X-39969440Y-52768926D01*
X-39955154Y-52797497D01*
X-39955154Y-52826069D01*
X-40098011Y-52854640D01*
X-39840868Y-52940354D02*
X-39812297Y-52954640D01*
X-39755154Y-52954640D01*
X-39726583Y-52940354D01*
X-39712297Y-52911783D01*
X-39712297Y-52897497D01*
X-39726583Y-52868926D01*
X-39755154Y-52854640D01*
X-39798011Y-52854640D01*
X-39826583Y-52840354D01*
X-39840868Y-52811783D01*
X-39840868Y-52797497D01*
X-39826583Y-52768926D01*
X-39798011Y-52754640D01*
X-39755154Y-52754640D01*
X-39726583Y-52768926D01*
X-39612297Y-53068926D02*
X-39598011Y-53054640D01*
X-39569440Y-53011783D01*
X-39555154Y-52983212D01*
X-39540868Y-52940354D01*
X-39526583Y-52868926D01*
X-39526583Y-52811783D01*
X-39540868Y-52740354D01*
X-39555154Y-52697497D01*
X-39569440Y-52668926D01*
X-39598011Y-52626069D01*
X-39612297Y-52611783D01*
X-39069440Y-53068926D02*
X-39083726Y-53054640D01*
X-39112297Y-53011783D01*
X-39126583Y-52983212D01*
X-39140868Y-52940354D01*
X-39155154Y-52868926D01*
X-39155154Y-52811783D01*
X-39140868Y-52740354D01*
X-39126583Y-52697497D01*
X-39112297Y-52668926D01*
X-39083726Y-52626069D01*
X-39069440Y-52611783D01*
X-38955154Y-52754640D02*
X-38955154Y-52954640D01*
X-38955154Y-52783212D02*
X-38940868Y-52768926D01*
X-38912297Y-52754640D01*
X-38869440Y-52754640D01*
X-38840868Y-52768926D01*
X-38826583Y-52797497D01*
X-38826583Y-52954640D01*
X-38640868Y-52954640D02*
X-38669440Y-52940354D01*
X-38683726Y-52926069D01*
X-38698011Y-52897497D01*
X-38698011Y-52811783D01*
X-38683726Y-52783212D01*
X-38669440Y-52768926D01*
X-38640868Y-52754640D01*
X-38598011Y-52754640D01*
X-38569440Y-52768926D01*
X-38555154Y-52783212D01*
X-38540868Y-52811783D01*
X-38540868Y-52897497D01*
X-38555154Y-52926069D01*
X-38569440Y-52940354D01*
X-38598011Y-52954640D01*
X-38640868Y-52954640D01*
X-38455154Y-52754640D02*
X-38340868Y-52754640D01*
X-38412297Y-52654640D02*
X-38412297Y-52911783D01*
X-38398011Y-52940354D01*
X-38369440Y-52954640D01*
X-38340868Y-52954640D01*
X-38012297Y-52754640D02*
X-38012297Y-53054640D01*
X-38012297Y-52768926D02*
X-37983726Y-52754640D01*
X-37926583Y-52754640D01*
X-37898011Y-52768926D01*
X-37883726Y-52783212D01*
X-37869440Y-52811783D01*
X-37869440Y-52897497D01*
X-37883726Y-52926069D01*
X-37898011Y-52940354D01*
X-37926583Y-52954640D01*
X-37983726Y-52954640D01*
X-38012297Y-52940354D01*
X-37698011Y-52954640D02*
X-37726583Y-52940354D01*
X-37740868Y-52911783D01*
X-37740868Y-52654640D01*
X-37455154Y-52954640D02*
X-37455154Y-52797497D01*
X-37469440Y-52768926D01*
X-37498011Y-52754640D01*
X-37555154Y-52754640D01*
X-37583726Y-52768926D01*
X-37455154Y-52940354D02*
X-37483726Y-52954640D01*
X-37555154Y-52954640D01*
X-37583726Y-52940354D01*
X-37598011Y-52911783D01*
X-37598011Y-52883212D01*
X-37583726Y-52854640D01*
X-37555154Y-52840354D01*
X-37483726Y-52840354D01*
X-37455154Y-52826069D01*
X-37355154Y-52754640D02*
X-37240868Y-52754640D01*
X-37312297Y-52654640D02*
X-37312297Y-52911783D01*
X-37298011Y-52940354D01*
X-37269440Y-52954640D01*
X-37240868Y-52954640D01*
X-37026583Y-52940354D02*
X-37055154Y-52954640D01*
X-37112297Y-52954640D01*
X-37140868Y-52940354D01*
X-37155154Y-52911783D01*
X-37155154Y-52797497D01*
X-37140868Y-52768926D01*
X-37112297Y-52754640D01*
X-37055154Y-52754640D01*
X-37026583Y-52768926D01*
X-37012297Y-52797497D01*
X-37012297Y-52826069D01*
X-37155154Y-52854640D01*
X-36755154Y-52954640D02*
X-36755154Y-52654640D01*
X-36755154Y-52940354D02*
X-36783726Y-52954640D01*
X-36840868Y-52954640D01*
X-36869440Y-52940354D01*
X-36883726Y-52926069D01*
X-36898011Y-52897497D01*
X-36898011Y-52811783D01*
X-36883726Y-52783212D01*
X-36869440Y-52768926D01*
X-36840868Y-52754640D01*
X-36783726Y-52754640D01*
X-36755154Y-52768926D01*
X-36640868Y-53068926D02*
X-36626583Y-53054640D01*
X-36598011Y-53011783D01*
X-36583726Y-52983212D01*
X-36569440Y-52940354D01*
X-36555154Y-52868926D01*
X-36555154Y-52811783D01*
X-36569440Y-52740354D01*
X-36583726Y-52697497D01*
X-36598011Y-52668926D01*
X-36626583Y-52626069D01*
X-36640868Y-52611783D01*
X-46384440Y-53214926D02*
G75*
G03X-46384440Y-53214926I-147500J0D01*
G01*
X-46112297Y-53079212D02*
X-46098011Y-53064926D01*
X-46069440Y-53050640D01*
X-45998011Y-53050640D01*
X-45969440Y-53064926D01*
X-45955154Y-53079212D01*
X-45940868Y-53107783D01*
X-45940868Y-53136354D01*
X-45955154Y-53179212D01*
X-46126583Y-53350640D01*
X-45940868Y-53350640D01*
X-45812297Y-53322069D02*
X-45798011Y-53336354D01*
X-45812297Y-53350640D01*
X-45826583Y-53336354D01*
X-45812297Y-53322069D01*
X-45812297Y-53350640D01*
X-45655154Y-53350640D02*
X-45598011Y-53350640D01*
X-45569440Y-53336354D01*
X-45555154Y-53322069D01*
X-45526583Y-53279212D01*
X-45512297Y-53222069D01*
X-45512297Y-53107783D01*
X-45526583Y-53079212D01*
X-45540868Y-53064926D01*
X-45569440Y-53050640D01*
X-45626583Y-53050640D01*
X-45655154Y-53064926D01*
X-45669440Y-53079212D01*
X-45683726Y-53107783D01*
X-45683726Y-53179212D01*
X-45669440Y-53207783D01*
X-45655154Y-53222069D01*
X-45626583Y-53236354D01*
X-45569440Y-53236354D01*
X-45540868Y-53222069D01*
X-45526583Y-53207783D01*
X-45512297Y-53179212D01*
X-45240868Y-53050640D02*
X-45383726Y-53050640D01*
X-45398011Y-53193497D01*
X-45383726Y-53179212D01*
X-45355154Y-53164926D01*
X-45283726Y-53164926D01*
X-45255154Y-53179212D01*
X-45240868Y-53193497D01*
X-45226583Y-53222069D01*
X-45226583Y-53293497D01*
X-45240868Y-53322069D01*
X-45255154Y-53336354D01*
X-45283726Y-53350640D01*
X-45355154Y-53350640D01*
X-45383726Y-53336354D01*
X-45398011Y-53322069D01*
X-45098011Y-53350640D02*
X-45098011Y-53150640D01*
X-45098011Y-53179212D02*
X-45083726Y-53164926D01*
X-45055154Y-53150640D01*
X-45012297Y-53150640D01*
X-44983726Y-53164926D01*
X-44969440Y-53193497D01*
X-44969440Y-53350640D01*
X-44969440Y-53193497D02*
X-44955154Y-53164926D01*
X-44926583Y-53150640D01*
X-44883726Y-53150640D01*
X-44855154Y-53164926D01*
X-44840868Y-53193497D01*
X-44840868Y-53350640D01*
X-44698011Y-53350640D02*
X-44698011Y-53150640D01*
X-44698011Y-53179212D02*
X-44683726Y-53164926D01*
X-44655154Y-53150640D01*
X-44612297Y-53150640D01*
X-44583726Y-53164926D01*
X-44569440Y-53193497D01*
X-44569440Y-53350640D01*
X-44569440Y-53193497D02*
X-44555154Y-53164926D01*
X-44526583Y-53150640D01*
X-44483726Y-53150640D01*
X-44455154Y-53164926D01*
X-44440868Y-53193497D01*
X-44440868Y-53350640D01*
X-43855154Y-53036354D02*
X-44112297Y-53422069D01*
X-43469440Y-53050640D02*
X-43440868Y-53050640D01*
X-43412297Y-53064926D01*
X-43398011Y-53079212D01*
X-43383726Y-53107783D01*
X-43369440Y-53164926D01*
X-43369440Y-53236354D01*
X-43383726Y-53293497D01*
X-43398011Y-53322069D01*
X-43412297Y-53336354D01*
X-43440868Y-53350640D01*
X-43469440Y-53350640D01*
X-43498011Y-53336354D01*
X-43512297Y-53322069D01*
X-43526583Y-53293497D01*
X-43540868Y-53236354D01*
X-43540868Y-53164926D01*
X-43526583Y-53107783D01*
X-43512297Y-53079212D01*
X-43498011Y-53064926D01*
X-43469440Y-53050640D01*
X-43240868Y-53322069D02*
X-43226583Y-53336354D01*
X-43240868Y-53350640D01*
X-43255154Y-53336354D01*
X-43240868Y-53322069D01*
X-43240868Y-53350640D01*
X-42940868Y-53350640D02*
X-43112297Y-53350640D01*
X-43026583Y-53350640D02*
X-43026583Y-53050640D01*
X-43055154Y-53093497D01*
X-43083726Y-53122069D01*
X-43112297Y-53136354D01*
X-42655154Y-53350640D02*
X-42826583Y-53350640D01*
X-42740868Y-53350640D02*
X-42740868Y-53050640D01*
X-42769440Y-53093497D01*
X-42798011Y-53122069D01*
X-42826583Y-53136354D01*
X-42398011Y-53050640D02*
X-42455154Y-53050640D01*
X-42483726Y-53064926D01*
X-42498011Y-53079212D01*
X-42526583Y-53122069D01*
X-42540868Y-53179212D01*
X-42540868Y-53293497D01*
X-42526583Y-53322069D01*
X-42512297Y-53336354D01*
X-42483726Y-53350640D01*
X-42426583Y-53350640D01*
X-42398011Y-53336354D01*
X-42383726Y-53322069D01*
X-42369440Y-53293497D01*
X-42369440Y-53222069D01*
X-42383726Y-53193497D01*
X-42398011Y-53179212D01*
X-42426583Y-53164926D01*
X-42483726Y-53164926D01*
X-42512297Y-53179212D01*
X-42526583Y-53193497D01*
X-42540868Y-53222069D01*
X-42255154Y-53050640D02*
X-42255154Y-53107783D01*
X-42140868Y-53050640D02*
X-42140868Y-53107783D01*
X-41698011Y-53464926D02*
X-41712297Y-53450640D01*
X-41740868Y-53407783D01*
X-41755154Y-53379212D01*
X-41769440Y-53336354D01*
X-41783726Y-53264926D01*
X-41783726Y-53207783D01*
X-41769440Y-53136354D01*
X-41755154Y-53093497D01*
X-41740868Y-53064926D01*
X-41712297Y-53022069D01*
X-41698011Y-53007783D01*
X-41455154Y-53050640D02*
X-41512297Y-53050640D01*
X-41540868Y-53064926D01*
X-41555154Y-53079212D01*
X-41583726Y-53122069D01*
X-41598011Y-53179212D01*
X-41598011Y-53293497D01*
X-41583726Y-53322069D01*
X-41569440Y-53336354D01*
X-41540868Y-53350640D01*
X-41483726Y-53350640D01*
X-41455154Y-53336354D01*
X-41440868Y-53322069D01*
X-41426583Y-53293497D01*
X-41426583Y-53222069D01*
X-41440868Y-53193497D01*
X-41455154Y-53179212D01*
X-41483726Y-53164926D01*
X-41540868Y-53164926D01*
X-41569440Y-53179212D01*
X-41583726Y-53193497D01*
X-41598011Y-53222069D01*
X-41169440Y-53150640D02*
X-41169440Y-53350640D01*
X-41240868Y-53036354D02*
X-41312297Y-53250640D01*
X-41126583Y-53250640D01*
X-40783726Y-53350640D02*
X-40783726Y-53050640D01*
X-40655154Y-53350640D02*
X-40655154Y-53193497D01*
X-40669440Y-53164926D01*
X-40698011Y-53150640D01*
X-40740868Y-53150640D01*
X-40769440Y-53164926D01*
X-40783726Y-53179212D01*
X-40469440Y-53350640D02*
X-40498011Y-53336354D01*
X-40512297Y-53322069D01*
X-40526583Y-53293497D01*
X-40526583Y-53207783D01*
X-40512297Y-53179212D01*
X-40498011Y-53164926D01*
X-40469440Y-53150640D01*
X-40426583Y-53150640D01*
X-40398011Y-53164926D01*
X-40383726Y-53179212D01*
X-40369440Y-53207783D01*
X-40369440Y-53293497D01*
X-40383726Y-53322069D01*
X-40398011Y-53336354D01*
X-40426583Y-53350640D01*
X-40469440Y-53350640D01*
X-40198011Y-53350640D02*
X-40226583Y-53336354D01*
X-40240868Y-53307783D01*
X-40240868Y-53050640D01*
X-39969440Y-53336354D02*
X-39998011Y-53350640D01*
X-40055154Y-53350640D01*
X-40083726Y-53336354D01*
X-40098011Y-53307783D01*
X-40098011Y-53193497D01*
X-40083726Y-53164926D01*
X-40055154Y-53150640D01*
X-39998011Y-53150640D01*
X-39969440Y-53164926D01*
X-39955154Y-53193497D01*
X-39955154Y-53222069D01*
X-40098011Y-53250640D01*
X-39840868Y-53336354D02*
X-39812297Y-53350640D01*
X-39755154Y-53350640D01*
X-39726583Y-53336354D01*
X-39712297Y-53307783D01*
X-39712297Y-53293497D01*
X-39726583Y-53264926D01*
X-39755154Y-53250640D01*
X-39798011Y-53250640D01*
X-39826583Y-53236354D01*
X-39840868Y-53207783D01*
X-39840868Y-53193497D01*
X-39826583Y-53164926D01*
X-39798011Y-53150640D01*
X-39755154Y-53150640D01*
X-39726583Y-53164926D01*
X-39612297Y-53464926D02*
X-39598011Y-53450640D01*
X-39569440Y-53407783D01*
X-39555154Y-53379212D01*
X-39540868Y-53336354D01*
X-39526583Y-53264926D01*
X-39526583Y-53207783D01*
X-39540868Y-53136354D01*
X-39555154Y-53093497D01*
X-39569440Y-53064926D01*
X-39598011Y-53022069D01*
X-39612297Y-53007783D01*
X-39069440Y-53464926D02*
X-39083726Y-53450640D01*
X-39112297Y-53407783D01*
X-39126583Y-53379212D01*
X-39140868Y-53336354D01*
X-39155154Y-53264926D01*
X-39155154Y-53207783D01*
X-39140868Y-53136354D01*
X-39126583Y-53093497D01*
X-39112297Y-53064926D01*
X-39083726Y-53022069D01*
X-39069440Y-53007783D01*
X-38955154Y-53150640D02*
X-38955154Y-53350640D01*
X-38955154Y-53179212D02*
X-38940868Y-53164926D01*
X-38912297Y-53150640D01*
X-38869440Y-53150640D01*
X-38840868Y-53164926D01*
X-38826583Y-53193497D01*
X-38826583Y-53350640D01*
X-38640868Y-53350640D02*
X-38669440Y-53336354D01*
X-38683726Y-53322069D01*
X-38698011Y-53293497D01*
X-38698011Y-53207783D01*
X-38683726Y-53179212D01*
X-38669440Y-53164926D01*
X-38640868Y-53150640D01*
X-38598011Y-53150640D01*
X-38569440Y-53164926D01*
X-38555154Y-53179212D01*
X-38540868Y-53207783D01*
X-38540868Y-53293497D01*
X-38555154Y-53322069D01*
X-38569440Y-53336354D01*
X-38598011Y-53350640D01*
X-38640868Y-53350640D01*
X-38455154Y-53150640D02*
X-38340868Y-53150640D01*
X-38412297Y-53050640D02*
X-38412297Y-53307783D01*
X-38398011Y-53336354D01*
X-38369440Y-53350640D01*
X-38340868Y-53350640D01*
X-38012297Y-53150640D02*
X-38012297Y-53450640D01*
X-38012297Y-53164926D02*
X-37983726Y-53150640D01*
X-37926583Y-53150640D01*
X-37898011Y-53164926D01*
X-37883726Y-53179212D01*
X-37869440Y-53207783D01*
X-37869440Y-53293497D01*
X-37883726Y-53322069D01*
X-37898011Y-53336354D01*
X-37926583Y-53350640D01*
X-37983726Y-53350640D01*
X-38012297Y-53336354D01*
X-37698011Y-53350640D02*
X-37726583Y-53336354D01*
X-37740868Y-53307783D01*
X-37740868Y-53050640D01*
X-37455154Y-53350640D02*
X-37455154Y-53193497D01*
X-37469440Y-53164926D01*
X-37498011Y-53150640D01*
X-37555154Y-53150640D01*
X-37583726Y-53164926D01*
X-37455154Y-53336354D02*
X-37483726Y-53350640D01*
X-37555154Y-53350640D01*
X-37583726Y-53336354D01*
X-37598011Y-53307783D01*
X-37598011Y-53279212D01*
X-37583726Y-53250640D01*
X-37555154Y-53236354D01*
X-37483726Y-53236354D01*
X-37455154Y-53222069D01*
X-37355154Y-53150640D02*
X-37240868Y-53150640D01*
X-37312297Y-53050640D02*
X-37312297Y-53307783D01*
X-37298011Y-53336354D01*
X-37269440Y-53350640D01*
X-37240868Y-53350640D01*
X-37026583Y-53336354D02*
X-37055154Y-53350640D01*
X-37112297Y-53350640D01*
X-37140868Y-53336354D01*
X-37155154Y-53307783D01*
X-37155154Y-53193497D01*
X-37140868Y-53164926D01*
X-37112297Y-53150640D01*
X-37055154Y-53150640D01*
X-37026583Y-53164926D01*
X-37012297Y-53193497D01*
X-37012297Y-53222069D01*
X-37155154Y-53250640D01*
X-36755154Y-53350640D02*
X-36755154Y-53050640D01*
X-36755154Y-53336354D02*
X-36783726Y-53350640D01*
X-36840868Y-53350640D01*
X-36869440Y-53336354D01*
X-36883726Y-53322069D01*
X-36898011Y-53293497D01*
X-36898011Y-53207783D01*
X-36883726Y-53179212D01*
X-36869440Y-53164926D01*
X-36840868Y-53150640D01*
X-36783726Y-53150640D01*
X-36755154Y-53164926D01*
X-36640868Y-53464926D02*
X-36626583Y-53450640D01*
X-36598011Y-53407783D01*
X-36583726Y-53379212D01*
X-36569440Y-53336354D01*
X-36555154Y-53264926D01*
X-36555154Y-53207783D01*
X-36569440Y-53136354D01*
X-36583726Y-53093497D01*
X-36598011Y-53064926D01*
X-36626583Y-53022069D01*
X-36640868Y-53007783D01*
X-46534440Y-53489926D02*
X-46534440Y-53789926D01*
X-46684440Y-53639926D02*
X-46384440Y-53639926D01*
X-46126583Y-53475640D02*
X-45940868Y-53475640D01*
X-46040868Y-53589926D01*
X-45998011Y-53589926D01*
X-45969440Y-53604212D01*
X-45955154Y-53618497D01*
X-45940868Y-53647069D01*
X-45940868Y-53718497D01*
X-45955154Y-53747069D01*
X-45969440Y-53761354D01*
X-45998011Y-53775640D01*
X-46083726Y-53775640D01*
X-46112297Y-53761354D01*
X-46126583Y-53747069D01*
X-45812297Y-53747069D02*
X-45798011Y-53761354D01*
X-45812297Y-53775640D01*
X-45826583Y-53761354D01*
X-45812297Y-53747069D01*
X-45812297Y-53775640D01*
X-45612297Y-53475640D02*
X-45583726Y-53475640D01*
X-45555154Y-53489926D01*
X-45540868Y-53504212D01*
X-45526583Y-53532783D01*
X-45512297Y-53589926D01*
X-45512297Y-53661354D01*
X-45526583Y-53718497D01*
X-45540868Y-53747069D01*
X-45555154Y-53761354D01*
X-45583726Y-53775640D01*
X-45612297Y-53775640D01*
X-45640868Y-53761354D01*
X-45655154Y-53747069D01*
X-45669440Y-53718497D01*
X-45683726Y-53661354D01*
X-45683726Y-53589926D01*
X-45669440Y-53532783D01*
X-45655154Y-53504212D01*
X-45640868Y-53489926D01*
X-45612297Y-53475640D01*
X-45326583Y-53475640D02*
X-45298011Y-53475640D01*
X-45269440Y-53489926D01*
X-45255154Y-53504212D01*
X-45240868Y-53532783D01*
X-45226583Y-53589926D01*
X-45226583Y-53661354D01*
X-45240868Y-53718497D01*
X-45255154Y-53747069D01*
X-45269440Y-53761354D01*
X-45298011Y-53775640D01*
X-45326583Y-53775640D01*
X-45355154Y-53761354D01*
X-45369440Y-53747069D01*
X-45383726Y-53718497D01*
X-45398011Y-53661354D01*
X-45398011Y-53589926D01*
X-45383726Y-53532783D01*
X-45369440Y-53504212D01*
X-45355154Y-53489926D01*
X-45326583Y-53475640D01*
X-45098011Y-53775640D02*
X-45098011Y-53575640D01*
X-45098011Y-53604212D02*
X-45083726Y-53589926D01*
X-45055154Y-53575640D01*
X-45012297Y-53575640D01*
X-44983726Y-53589926D01*
X-44969440Y-53618497D01*
X-44969440Y-53775640D01*
X-44969440Y-53618497D02*
X-44955154Y-53589926D01*
X-44926583Y-53575640D01*
X-44883726Y-53575640D01*
X-44855154Y-53589926D01*
X-44840868Y-53618497D01*
X-44840868Y-53775640D01*
X-44698011Y-53775640D02*
X-44698011Y-53575640D01*
X-44698011Y-53604212D02*
X-44683726Y-53589926D01*
X-44655154Y-53575640D01*
X-44612297Y-53575640D01*
X-44583726Y-53589926D01*
X-44569440Y-53618497D01*
X-44569440Y-53775640D01*
X-44569440Y-53618497D02*
X-44555154Y-53589926D01*
X-44526583Y-53575640D01*
X-44483726Y-53575640D01*
X-44455154Y-53589926D01*
X-44440868Y-53618497D01*
X-44440868Y-53775640D01*
X-43855154Y-53461354D02*
X-44112297Y-53847069D01*
X-43469440Y-53475640D02*
X-43440868Y-53475640D01*
X-43412297Y-53489926D01*
X-43398011Y-53504212D01*
X-43383726Y-53532783D01*
X-43369440Y-53589926D01*
X-43369440Y-53661354D01*
X-43383726Y-53718497D01*
X-43398011Y-53747069D01*
X-43412297Y-53761354D01*
X-43440868Y-53775640D01*
X-43469440Y-53775640D01*
X-43498011Y-53761354D01*
X-43512297Y-53747069D01*
X-43526583Y-53718497D01*
X-43540868Y-53661354D01*
X-43540868Y-53589926D01*
X-43526583Y-53532783D01*
X-43512297Y-53504212D01*
X-43498011Y-53489926D01*
X-43469440Y-53475640D01*
X-43240868Y-53747069D02*
X-43226583Y-53761354D01*
X-43240868Y-53775640D01*
X-43255154Y-53761354D01*
X-43240868Y-53747069D01*
X-43240868Y-53775640D01*
X-42940868Y-53775640D02*
X-43112297Y-53775640D01*
X-43026583Y-53775640D02*
X-43026583Y-53475640D01*
X-43055154Y-53518497D01*
X-43083726Y-53547069D01*
X-43112297Y-53561354D01*
X-42655154Y-53775640D02*
X-42826583Y-53775640D01*
X-42740868Y-53775640D02*
X-42740868Y-53475640D01*
X-42769440Y-53518497D01*
X-42798011Y-53547069D01*
X-42826583Y-53561354D01*
X-42483726Y-53604212D02*
X-42512297Y-53589926D01*
X-42526583Y-53575640D01*
X-42540868Y-53547069D01*
X-42540868Y-53532783D01*
X-42526583Y-53504212D01*
X-42512297Y-53489926D01*
X-42483726Y-53475640D01*
X-42426583Y-53475640D01*
X-42398011Y-53489926D01*
X-42383726Y-53504212D01*
X-42369440Y-53532783D01*
X-42369440Y-53547069D01*
X-42383726Y-53575640D01*
X-42398011Y-53589926D01*
X-42426583Y-53604212D01*
X-42483726Y-53604212D01*
X-42512297Y-53618497D01*
X-42526583Y-53632783D01*
X-42540868Y-53661354D01*
X-42540868Y-53718497D01*
X-42526583Y-53747069D01*
X-42512297Y-53761354D01*
X-42483726Y-53775640D01*
X-42426583Y-53775640D01*
X-42398011Y-53761354D01*
X-42383726Y-53747069D01*
X-42369440Y-53718497D01*
X-42369440Y-53661354D01*
X-42383726Y-53632783D01*
X-42398011Y-53618497D01*
X-42426583Y-53604212D01*
X-42255154Y-53475640D02*
X-42255154Y-53532783D01*
X-42140868Y-53475640D02*
X-42140868Y-53532783D01*
X-41698011Y-53889926D02*
X-41712297Y-53875640D01*
X-41740868Y-53832783D01*
X-41755154Y-53804212D01*
X-41769440Y-53761354D01*
X-41783726Y-53689926D01*
X-41783726Y-53632783D01*
X-41769440Y-53561354D01*
X-41755154Y-53518497D01*
X-41740868Y-53489926D01*
X-41712297Y-53447069D01*
X-41698011Y-53432783D01*
X-41455154Y-53475640D02*
X-41512297Y-53475640D01*
X-41540868Y-53489926D01*
X-41555154Y-53504212D01*
X-41583726Y-53547069D01*
X-41598011Y-53604212D01*
X-41598011Y-53718497D01*
X-41583726Y-53747069D01*
X-41569440Y-53761354D01*
X-41540868Y-53775640D01*
X-41483726Y-53775640D01*
X-41455154Y-53761354D01*
X-41440868Y-53747069D01*
X-41426583Y-53718497D01*
X-41426583Y-53647069D01*
X-41440868Y-53618497D01*
X-41455154Y-53604212D01*
X-41483726Y-53589926D01*
X-41540868Y-53589926D01*
X-41569440Y-53604212D01*
X-41583726Y-53618497D01*
X-41598011Y-53647069D01*
X-41169440Y-53575640D02*
X-41169440Y-53775640D01*
X-41240868Y-53461354D02*
X-41312297Y-53675640D01*
X-41126583Y-53675640D01*
X-40783726Y-53775640D02*
X-40783726Y-53475640D01*
X-40655154Y-53775640D02*
X-40655154Y-53618497D01*
X-40669440Y-53589926D01*
X-40698011Y-53575640D01*
X-40740868Y-53575640D01*
X-40769440Y-53589926D01*
X-40783726Y-53604212D01*
X-40469440Y-53775640D02*
X-40498011Y-53761354D01*
X-40512297Y-53747069D01*
X-40526583Y-53718497D01*
X-40526583Y-53632783D01*
X-40512297Y-53604212D01*
X-40498011Y-53589926D01*
X-40469440Y-53575640D01*
X-40426583Y-53575640D01*
X-40398011Y-53589926D01*
X-40383726Y-53604212D01*
X-40369440Y-53632783D01*
X-40369440Y-53718497D01*
X-40383726Y-53747069D01*
X-40398011Y-53761354D01*
X-40426583Y-53775640D01*
X-40469440Y-53775640D01*
X-40198011Y-53775640D02*
X-40226583Y-53761354D01*
X-40240868Y-53732783D01*
X-40240868Y-53475640D01*
X-39969440Y-53761354D02*
X-39998011Y-53775640D01*
X-40055154Y-53775640D01*
X-40083726Y-53761354D01*
X-40098011Y-53732783D01*
X-40098011Y-53618497D01*
X-40083726Y-53589926D01*
X-40055154Y-53575640D01*
X-39998011Y-53575640D01*
X-39969440Y-53589926D01*
X-39955154Y-53618497D01*
X-39955154Y-53647069D01*
X-40098011Y-53675640D01*
X-39840868Y-53761354D02*
X-39812297Y-53775640D01*
X-39755154Y-53775640D01*
X-39726583Y-53761354D01*
X-39712297Y-53732783D01*
X-39712297Y-53718497D01*
X-39726583Y-53689926D01*
X-39755154Y-53675640D01*
X-39798011Y-53675640D01*
X-39826583Y-53661354D01*
X-39840868Y-53632783D01*
X-39840868Y-53618497D01*
X-39826583Y-53589926D01*
X-39798011Y-53575640D01*
X-39755154Y-53575640D01*
X-39726583Y-53589926D01*
X-39612297Y-53889926D02*
X-39598011Y-53875640D01*
X-39569440Y-53832783D01*
X-39555154Y-53804212D01*
X-39540868Y-53761354D01*
X-39526583Y-53689926D01*
X-39526583Y-53632783D01*
X-39540868Y-53561354D01*
X-39555154Y-53518497D01*
X-39569440Y-53489926D01*
X-39598011Y-53447069D01*
X-39612297Y-53432783D01*
X-39069440Y-53889926D02*
X-39083726Y-53875640D01*
X-39112297Y-53832783D01*
X-39126583Y-53804212D01*
X-39140868Y-53761354D01*
X-39155154Y-53689926D01*
X-39155154Y-53632783D01*
X-39140868Y-53561354D01*
X-39126583Y-53518497D01*
X-39112297Y-53489926D01*
X-39083726Y-53447069D01*
X-39069440Y-53432783D01*
X-38955154Y-53575640D02*
X-38955154Y-53775640D01*
X-38955154Y-53604212D02*
X-38940868Y-53589926D01*
X-38912297Y-53575640D01*
X-38869440Y-53575640D01*
X-38840868Y-53589926D01*
X-38826583Y-53618497D01*
X-38826583Y-53775640D01*
X-38640868Y-53775640D02*
X-38669440Y-53761354D01*
X-38683726Y-53747069D01*
X-38698011Y-53718497D01*
X-38698011Y-53632783D01*
X-38683726Y-53604212D01*
X-38669440Y-53589926D01*
X-38640868Y-53575640D01*
X-38598011Y-53575640D01*
X-38569440Y-53589926D01*
X-38555154Y-53604212D01*
X-38540868Y-53632783D01*
X-38540868Y-53718497D01*
X-38555154Y-53747069D01*
X-38569440Y-53761354D01*
X-38598011Y-53775640D01*
X-38640868Y-53775640D01*
X-38455154Y-53575640D02*
X-38340868Y-53575640D01*
X-38412297Y-53475640D02*
X-38412297Y-53732783D01*
X-38398011Y-53761354D01*
X-38369440Y-53775640D01*
X-38340868Y-53775640D01*
X-38012297Y-53575640D02*
X-38012297Y-53875640D01*
X-38012297Y-53589926D02*
X-37983726Y-53575640D01*
X-37926583Y-53575640D01*
X-37898011Y-53589926D01*
X-37883726Y-53604212D01*
X-37869440Y-53632783D01*
X-37869440Y-53718497D01*
X-37883726Y-53747069D01*
X-37898011Y-53761354D01*
X-37926583Y-53775640D01*
X-37983726Y-53775640D01*
X-38012297Y-53761354D01*
X-37698011Y-53775640D02*
X-37726583Y-53761354D01*
X-37740868Y-53732783D01*
X-37740868Y-53475640D01*
X-37455154Y-53775640D02*
X-37455154Y-53618497D01*
X-37469440Y-53589926D01*
X-37498011Y-53575640D01*
X-37555154Y-53575640D01*
X-37583726Y-53589926D01*
X-37455154Y-53761354D02*
X-37483726Y-53775640D01*
X-37555154Y-53775640D01*
X-37583726Y-53761354D01*
X-37598011Y-53732783D01*
X-37598011Y-53704212D01*
X-37583726Y-53675640D01*
X-37555154Y-53661354D01*
X-37483726Y-53661354D01*
X-37455154Y-53647069D01*
X-37355154Y-53575640D02*
X-37240868Y-53575640D01*
X-37312297Y-53475640D02*
X-37312297Y-53732783D01*
X-37298011Y-53761354D01*
X-37269440Y-53775640D01*
X-37240868Y-53775640D01*
X-37026583Y-53761354D02*
X-37055154Y-53775640D01*
X-37112297Y-53775640D01*
X-37140868Y-53761354D01*
X-37155154Y-53732783D01*
X-37155154Y-53618497D01*
X-37140868Y-53589926D01*
X-37112297Y-53575640D01*
X-37055154Y-53575640D01*
X-37026583Y-53589926D01*
X-37012297Y-53618497D01*
X-37012297Y-53647069D01*
X-37155154Y-53675640D01*
X-36755154Y-53775640D02*
X-36755154Y-53475640D01*
X-36755154Y-53761354D02*
X-36783726Y-53775640D01*
X-36840868Y-53775640D01*
X-36869440Y-53761354D01*
X-36883726Y-53747069D01*
X-36898011Y-53718497D01*
X-36898011Y-53632783D01*
X-36883726Y-53604212D01*
X-36869440Y-53589926D01*
X-36840868Y-53575640D01*
X-36783726Y-53575640D01*
X-36755154Y-53589926D01*
X-36640868Y-53889926D02*
X-36626583Y-53875640D01*
X-36598011Y-53832783D01*
X-36583726Y-53804212D01*
X-36569440Y-53761354D01*
X-36555154Y-53689926D01*
X-36555154Y-53632783D01*
X-36569440Y-53561354D01*
X-36583726Y-53518497D01*
X-36598011Y-53489926D01*
X-36626583Y-53447069D01*
X-36640868Y-53432783D01*
X-46458394Y-54248472D02*
X-46458394Y-53891380D01*
X-46815486Y-53891380D01*
X-46815486Y-54248472D01*
X-46458394Y-54248472D01*
X-45955154Y-53905640D02*
X-46098011Y-53905640D01*
X-46112297Y-54048497D01*
X-46098011Y-54034212D01*
X-46069440Y-54019926D01*
X-45998011Y-54019926D01*
X-45969440Y-54034212D01*
X-45955154Y-54048497D01*
X-45940868Y-54077069D01*
X-45940868Y-54148497D01*
X-45955154Y-54177069D01*
X-45969440Y-54191354D01*
X-45998011Y-54205640D01*
X-46069440Y-54205640D01*
X-46098011Y-54191354D01*
X-46112297Y-54177069D01*
X-45812297Y-54177069D02*
X-45798011Y-54191354D01*
X-45812297Y-54205640D01*
X-45826583Y-54191354D01*
X-45812297Y-54177069D01*
X-45812297Y-54205640D01*
X-45612297Y-53905640D02*
X-45583726Y-53905640D01*
X-45555154Y-53919926D01*
X-45540868Y-53934212D01*
X-45526583Y-53962783D01*
X-45512297Y-54019926D01*
X-45512297Y-54091354D01*
X-45526583Y-54148497D01*
X-45540868Y-54177069D01*
X-45555154Y-54191354D01*
X-45583726Y-54205640D01*
X-45612297Y-54205640D01*
X-45640868Y-54191354D01*
X-45655154Y-54177069D01*
X-45669440Y-54148497D01*
X-45683726Y-54091354D01*
X-45683726Y-54019926D01*
X-45669440Y-53962783D01*
X-45655154Y-53934212D01*
X-45640868Y-53919926D01*
X-45612297Y-53905640D01*
X-45240868Y-53905640D02*
X-45383726Y-53905640D01*
X-45398011Y-54048497D01*
X-45383726Y-54034212D01*
X-45355154Y-54019926D01*
X-45283726Y-54019926D01*
X-45255154Y-54034212D01*
X-45240868Y-54048497D01*
X-45226583Y-54077069D01*
X-45226583Y-54148497D01*
X-45240868Y-54177069D01*
X-45255154Y-54191354D01*
X-45283726Y-54205640D01*
X-45355154Y-54205640D01*
X-45383726Y-54191354D01*
X-45398011Y-54177069D01*
X-45098011Y-54205640D02*
X-45098011Y-54005640D01*
X-45098011Y-54034212D02*
X-45083726Y-54019926D01*
X-45055154Y-54005640D01*
X-45012297Y-54005640D01*
X-44983726Y-54019926D01*
X-44969440Y-54048497D01*
X-44969440Y-54205640D01*
X-44969440Y-54048497D02*
X-44955154Y-54019926D01*
X-44926583Y-54005640D01*
X-44883726Y-54005640D01*
X-44855154Y-54019926D01*
X-44840868Y-54048497D01*
X-44840868Y-54205640D01*
X-44698011Y-54205640D02*
X-44698011Y-54005640D01*
X-44698011Y-54034212D02*
X-44683726Y-54019926D01*
X-44655154Y-54005640D01*
X-44612297Y-54005640D01*
X-44583726Y-54019926D01*
X-44569440Y-54048497D01*
X-44569440Y-54205640D01*
X-44569440Y-54048497D02*
X-44555154Y-54019926D01*
X-44526583Y-54005640D01*
X-44483726Y-54005640D01*
X-44455154Y-54019926D01*
X-44440868Y-54048497D01*
X-44440868Y-54205640D01*
X-43855154Y-53891354D02*
X-44112297Y-54277069D01*
X-43469440Y-53905640D02*
X-43440868Y-53905640D01*
X-43412297Y-53919926D01*
X-43398011Y-53934212D01*
X-43383726Y-53962783D01*
X-43369440Y-54019926D01*
X-43369440Y-54091354D01*
X-43383726Y-54148497D01*
X-43398011Y-54177069D01*
X-43412297Y-54191354D01*
X-43440868Y-54205640D01*
X-43469440Y-54205640D01*
X-43498011Y-54191354D01*
X-43512297Y-54177069D01*
X-43526583Y-54148497D01*
X-43540868Y-54091354D01*
X-43540868Y-54019926D01*
X-43526583Y-53962783D01*
X-43512297Y-53934212D01*
X-43498011Y-53919926D01*
X-43469440Y-53905640D01*
X-43240868Y-54177069D02*
X-43226583Y-54191354D01*
X-43240868Y-54205640D01*
X-43255154Y-54191354D01*
X-43240868Y-54177069D01*
X-43240868Y-54205640D01*
X-42940868Y-54205640D02*
X-43112297Y-54205640D01*
X-43026583Y-54205640D02*
X-43026583Y-53905640D01*
X-43055154Y-53948497D01*
X-43083726Y-53977069D01*
X-43112297Y-53991354D01*
X-42798011Y-54205640D02*
X-42740868Y-54205640D01*
X-42712297Y-54191354D01*
X-42698011Y-54177069D01*
X-42669440Y-54134212D01*
X-42655154Y-54077069D01*
X-42655154Y-53962783D01*
X-42669440Y-53934212D01*
X-42683726Y-53919926D01*
X-42712297Y-53905640D01*
X-42769440Y-53905640D01*
X-42798011Y-53919926D01*
X-42812297Y-53934212D01*
X-42826583Y-53962783D01*
X-42826583Y-54034212D01*
X-42812297Y-54062783D01*
X-42798011Y-54077069D01*
X-42769440Y-54091354D01*
X-42712297Y-54091354D01*
X-42683726Y-54077069D01*
X-42669440Y-54062783D01*
X-42655154Y-54034212D01*
X-42512297Y-54205640D02*
X-42455154Y-54205640D01*
X-42426583Y-54191354D01*
X-42412297Y-54177069D01*
X-42383726Y-54134212D01*
X-42369440Y-54077069D01*
X-42369440Y-53962783D01*
X-42383726Y-53934212D01*
X-42398011Y-53919926D01*
X-42426583Y-53905640D01*
X-42483726Y-53905640D01*
X-42512297Y-53919926D01*
X-42526583Y-53934212D01*
X-42540868Y-53962783D01*
X-42540868Y-54034212D01*
X-42526583Y-54062783D01*
X-42512297Y-54077069D01*
X-42483726Y-54091354D01*
X-42426583Y-54091354D01*
X-42398011Y-54077069D01*
X-42383726Y-54062783D01*
X-42369440Y-54034212D01*
X-42255154Y-53905640D02*
X-42255154Y-53962783D01*
X-42140868Y-53905640D02*
X-42140868Y-53962783D01*
X-41698011Y-54319926D02*
X-41712297Y-54305640D01*
X-41740868Y-54262783D01*
X-41755154Y-54234212D01*
X-41769440Y-54191354D01*
X-41783726Y-54119926D01*
X-41783726Y-54062783D01*
X-41769440Y-53991354D01*
X-41755154Y-53948497D01*
X-41740868Y-53919926D01*
X-41712297Y-53877069D01*
X-41698011Y-53862783D01*
X-41612297Y-53905640D02*
X-41426583Y-53905640D01*
X-41526583Y-54019926D01*
X-41483726Y-54019926D01*
X-41455154Y-54034212D01*
X-41440868Y-54048497D01*
X-41426583Y-54077069D01*
X-41426583Y-54148497D01*
X-41440868Y-54177069D01*
X-41455154Y-54191354D01*
X-41483726Y-54205640D01*
X-41569440Y-54205640D01*
X-41598011Y-54191354D01*
X-41612297Y-54177069D01*
X-41312297Y-53934212D02*
X-41298011Y-53919926D01*
X-41269440Y-53905640D01*
X-41198011Y-53905640D01*
X-41169440Y-53919926D01*
X-41155154Y-53934212D01*
X-41140868Y-53962783D01*
X-41140868Y-53991354D01*
X-41155154Y-54034212D01*
X-41326583Y-54205640D01*
X-41140868Y-54205640D01*
X-40783726Y-54205640D02*
X-40783726Y-53905640D01*
X-40655154Y-54205640D02*
X-40655154Y-54048497D01*
X-40669440Y-54019926D01*
X-40698011Y-54005640D01*
X-40740868Y-54005640D01*
X-40769440Y-54019926D01*
X-40783726Y-54034212D01*
X-40469440Y-54205640D02*
X-40498011Y-54191354D01*
X-40512297Y-54177069D01*
X-40526583Y-54148497D01*
X-40526583Y-54062783D01*
X-40512297Y-54034212D01*
X-40498011Y-54019926D01*
X-40469440Y-54005640D01*
X-40426583Y-54005640D01*
X-40398011Y-54019926D01*
X-40383726Y-54034212D01*
X-40369440Y-54062783D01*
X-40369440Y-54148497D01*
X-40383726Y-54177069D01*
X-40398011Y-54191354D01*
X-40426583Y-54205640D01*
X-40469440Y-54205640D01*
X-40198011Y-54205640D02*
X-40226583Y-54191354D01*
X-40240868Y-54162783D01*
X-40240868Y-53905640D01*
X-39969440Y-54191354D02*
X-39998011Y-54205640D01*
X-40055154Y-54205640D01*
X-40083726Y-54191354D01*
X-40098011Y-54162783D01*
X-40098011Y-54048497D01*
X-40083726Y-54019926D01*
X-40055154Y-54005640D01*
X-39998011Y-54005640D01*
X-39969440Y-54019926D01*
X-39955154Y-54048497D01*
X-39955154Y-54077069D01*
X-40098011Y-54105640D01*
X-39840868Y-54191354D02*
X-39812297Y-54205640D01*
X-39755154Y-54205640D01*
X-39726583Y-54191354D01*
X-39712297Y-54162783D01*
X-39712297Y-54148497D01*
X-39726583Y-54119926D01*
X-39755154Y-54105640D01*
X-39798011Y-54105640D01*
X-39826583Y-54091354D01*
X-39840868Y-54062783D01*
X-39840868Y-54048497D01*
X-39826583Y-54019926D01*
X-39798011Y-54005640D01*
X-39755154Y-54005640D01*
X-39726583Y-54019926D01*
X-39612297Y-54319926D02*
X-39598011Y-54305640D01*
X-39569440Y-54262783D01*
X-39555154Y-54234212D01*
X-39540868Y-54191354D01*
X-39526583Y-54119926D01*
X-39526583Y-54062783D01*
X-39540868Y-53991354D01*
X-39555154Y-53948497D01*
X-39569440Y-53919926D01*
X-39598011Y-53877069D01*
X-39612297Y-53862783D01*
X-39069440Y-54319926D02*
X-39083726Y-54305640D01*
X-39112297Y-54262783D01*
X-39126583Y-54234212D01*
X-39140868Y-54191354D01*
X-39155154Y-54119926D01*
X-39155154Y-54062783D01*
X-39140868Y-53991354D01*
X-39126583Y-53948497D01*
X-39112297Y-53919926D01*
X-39083726Y-53877069D01*
X-39069440Y-53862783D01*
X-38955154Y-54005640D02*
X-38955154Y-54205640D01*
X-38955154Y-54034212D02*
X-38940868Y-54019926D01*
X-38912297Y-54005640D01*
X-38869440Y-54005640D01*
X-38840868Y-54019926D01*
X-38826583Y-54048497D01*
X-38826583Y-54205640D01*
X-38640868Y-54205640D02*
X-38669440Y-54191354D01*
X-38683726Y-54177069D01*
X-38698011Y-54148497D01*
X-38698011Y-54062783D01*
X-38683726Y-54034212D01*
X-38669440Y-54019926D01*
X-38640868Y-54005640D01*
X-38598011Y-54005640D01*
X-38569440Y-54019926D01*
X-38555154Y-54034212D01*
X-38540868Y-54062783D01*
X-38540868Y-54148497D01*
X-38555154Y-54177069D01*
X-38569440Y-54191354D01*
X-38598011Y-54205640D01*
X-38640868Y-54205640D01*
X-38455154Y-54005640D02*
X-38340868Y-54005640D01*
X-38412297Y-53905640D02*
X-38412297Y-54162783D01*
X-38398011Y-54191354D01*
X-38369440Y-54205640D01*
X-38340868Y-54205640D01*
X-38012297Y-54005640D02*
X-38012297Y-54305640D01*
X-38012297Y-54019926D02*
X-37983726Y-54005640D01*
X-37926583Y-54005640D01*
X-37898011Y-54019926D01*
X-37883726Y-54034212D01*
X-37869440Y-54062783D01*
X-37869440Y-54148497D01*
X-37883726Y-54177069D01*
X-37898011Y-54191354D01*
X-37926583Y-54205640D01*
X-37983726Y-54205640D01*
X-38012297Y-54191354D01*
X-37698011Y-54205640D02*
X-37726583Y-54191354D01*
X-37740868Y-54162783D01*
X-37740868Y-53905640D01*
X-37455154Y-54205640D02*
X-37455154Y-54048497D01*
X-37469440Y-54019926D01*
X-37498011Y-54005640D01*
X-37555154Y-54005640D01*
X-37583726Y-54019926D01*
X-37455154Y-54191354D02*
X-37483726Y-54205640D01*
X-37555154Y-54205640D01*
X-37583726Y-54191354D01*
X-37598011Y-54162783D01*
X-37598011Y-54134212D01*
X-37583726Y-54105640D01*
X-37555154Y-54091354D01*
X-37483726Y-54091354D01*
X-37455154Y-54077069D01*
X-37355154Y-54005640D02*
X-37240868Y-54005640D01*
X-37312297Y-53905640D02*
X-37312297Y-54162783D01*
X-37298011Y-54191354D01*
X-37269440Y-54205640D01*
X-37240868Y-54205640D01*
X-37026583Y-54191354D02*
X-37055154Y-54205640D01*
X-37112297Y-54205640D01*
X-37140868Y-54191354D01*
X-37155154Y-54162783D01*
X-37155154Y-54048497D01*
X-37140868Y-54019926D01*
X-37112297Y-54005640D01*
X-37055154Y-54005640D01*
X-37026583Y-54019926D01*
X-37012297Y-54048497D01*
X-37012297Y-54077069D01*
X-37155154Y-54105640D01*
X-36755154Y-54205640D02*
X-36755154Y-53905640D01*
X-36755154Y-54191354D02*
X-36783726Y-54205640D01*
X-36840868Y-54205640D01*
X-36869440Y-54191354D01*
X-36883726Y-54177069D01*
X-36898011Y-54148497D01*
X-36898011Y-54062783D01*
X-36883726Y-54034212D01*
X-36869440Y-54019926D01*
X-36840868Y-54005640D01*
X-36783726Y-54005640D01*
X-36755154Y-54019926D01*
X-36640868Y-54319926D02*
X-36626583Y-54305640D01*
X-36598011Y-54262783D01*
X-36583726Y-54234212D01*
X-36569440Y-54191354D01*
X-36555154Y-54119926D01*
X-36555154Y-54062783D01*
X-36569440Y-53991354D01*
X-36583726Y-53948497D01*
X-36598011Y-53919926D01*
X-36626583Y-53877069D01*
X-36640868Y-53862783D01*
M02*
