G04 #@! TF.GenerationSoftware,KiCad,Pcbnew,(5.1.4)-1*
G04 #@! TF.CreationDate,2023-10-04T20:40:26-04:00*
G04 #@! TF.ProjectId,ThumbsUp,5468756d-6273-4557-902e-6b696361645f,rev?*
G04 #@! TF.SameCoordinates,Original*
G04 #@! TF.FileFunction,Profile,NP*
%FSLAX46Y46*%
G04 Gerber Fmt 4.6, Leading zero omitted, Abs format (unit mm)*
G04 Created by KiCad (PCBNEW (5.1.4)-1) date 2023-10-04 20:40:26*
%MOMM*%
%LPD*%
G04 APERTURE LIST*
%ADD10C,0.050000*%
G04 APERTURE END LIST*
D10*
X-282146913Y-392208545D02*
X-264530420Y-385091019D01*
X-196539888Y-446060910D02*
X-197755558Y-448924849D01*
X-245040893Y-382609413D02*
X-243739103Y-383161991D01*
X-211473105Y-370125681D02*
X-243739103Y-383161991D01*
X-264530420Y-385091019D02*
X-258021467Y-387853906D01*
X-311100000Y-407900000D02*
X-321093366Y-411934512D01*
X-211473105Y-370125681D02*
X-208609166Y-371341351D01*
X-197755558Y-448924849D02*
X-198750197Y-451268072D01*
X-284191449Y-397025169D02*
X-311100000Y-407900000D01*
X-183003004Y-440591654D02*
X-196539888Y-446060910D01*
X-181787334Y-437727715D02*
X-208609166Y-371341351D01*
X-258021467Y-387853906D02*
X-245040893Y-382609413D01*
X-181787334Y-437727715D02*
X-183003004Y-440591654D01*
X-282146913Y-392208545D02*
X-284191449Y-397025169D01*
X-361415283Y-397025169D02*
X-334506732Y-407900000D01*
X-334506732Y-407900000D02*
X-324513366Y-411934512D01*
X-321093366Y-411934512D02*
X-324513366Y-411934512D01*
X-363459819Y-392208545D02*
X-381076312Y-385091019D01*
X-437636959Y-470092509D02*
X-400086013Y-485264076D01*
X-449066844Y-446060910D02*
X-447851174Y-448924849D01*
X-400565839Y-382609413D02*
X-401867629Y-383161991D01*
X-434133627Y-370125681D02*
X-401867629Y-383161991D01*
X-434133627Y-370125681D02*
X-436997566Y-371341351D01*
X-363459819Y-392208545D02*
X-361415283Y-397025169D01*
X-436935668Y-455276363D02*
X-434891132Y-460092987D01*
X-381076312Y-385091019D02*
X-387585265Y-387853906D01*
X-447851174Y-448924849D02*
X-446856535Y-451268072D01*
X-434891132Y-460092987D02*
X-438300052Y-468530360D01*
X-446856535Y-451268072D02*
X-436935668Y-455276363D01*
X-463819398Y-437727715D02*
X-462603728Y-440591654D01*
X-462603728Y-440591654D02*
X-449066844Y-446060910D01*
X-463819398Y-437727715D02*
X-436997566Y-371341351D01*
X-438300052Y-468530360D02*
X-437636959Y-470092509D01*
X-387585265Y-387853906D02*
X-400565839Y-382609413D01*
X-400086013Y-485264076D02*
X-355838551Y-518564258D01*
X-207306680Y-468530360D02*
X-207969773Y-470092509D01*
X-207969773Y-470092509D02*
X-245520719Y-485264076D01*
X-245520719Y-485264076D02*
X-289768181Y-518564258D01*
X-210715600Y-460092987D02*
X-207306680Y-468530360D01*
X-208671064Y-455276363D02*
X-210715600Y-460092987D01*
X-198750197Y-451268072D02*
X-208671064Y-455276363D01*
X-355838551Y-518564258D02*
X-289768181Y-518564258D01*
M02*
