M48
; DRILL file {KiCad (5.1.4)-1} date 10/4/2023 8:40:30 PM
; FORMAT={-:-/ absolute / metric / decimal}
; #@! TF.CreationDate,2023-10-04T20:40:30-04:00
; #@! TF.GenerationSoftware,Kicad,Pcbnew,(5.1.4)-1
; #@! TF.FileFunction,Plated,1,2,PTH
FMAT,2
METRIC
T1C0.400
T2C0.600
T3C0.800
T4C1.000
T5C6.000
T6C8.400
%
G90
G05
T1
X-447.345Y-406.855
X-444.653Y-438.447
X-442.0Y-427.0
X-434.8Y-409.15
X-430.4Y-407.95
X-429.3Y-450.45
X-428.15Y-391.65
X-422.0Y-432.24
X-415.7Y-415.8
X-409.725Y-410.425
X-408.713Y-451.424
X-407.8Y-397.05
X-402.825Y-435.075
X-398.46Y-418.76
X-390.55Y-454.4
X-388.55Y-399.9
X-386.869Y-442.269
X-386.0Y-408.4
X-380.069Y-424.669
X-366.802Y-399.986
X-261.4Y-402.95
X-258.55Y-407.4
X-252.2Y-465.35
X-252.1Y-464.255
X-251.4Y-424.95
X-243.85Y-442.627
X-241.9Y-399.7
X-235.45Y-417.65
X-227.45Y-435.4
X-222.25Y-397.15
X-220.72Y-452.424
X-216.5Y-455.0
X-214.95Y-414.9
X-208.05Y-432.8
X-206.25Y-386.8
X-203.9Y-437.1
X-201.3Y-441.55
X-199.15Y-404.4
X-192.55Y-422.4
X-189.35Y-426.25
T2
X-327.2Y-468.7
X-325.882Y-465.518
X-325.882Y-471.882
X-322.7Y-464.2
X-322.7Y-473.2
X-319.518Y-465.518
X-319.518Y-471.882
X-318.2Y-468.7
T3
X-329.1Y-484.0
X-327.255Y-479.545
X-327.255Y-488.455
X-322.8Y-477.7
X-322.8Y-490.3
X-318.345Y-479.545
X-318.345Y-488.455
X-316.5Y-484.0
T4
X-360.251Y-398.999
X-357.896Y-399.95
X-355.541Y-400.902
X-353.186Y-401.853
X-276.312Y-436.336
X-273.957Y-435.384
X-271.602Y-434.433
X-269.247Y-433.481
X-436.702Y-468.118
X-435.75Y-465.763
X-434.799Y-463.408
X-433.847Y-461.053
X-369.223Y-415.866
X-366.868Y-416.818
X-364.513Y-417.769
X-362.158Y-418.721
X-283.429Y-418.719
X-281.074Y-417.768
X-278.719Y-416.816
X-276.364Y-415.865
X-376.341Y-433.483
X-373.986Y-434.434
X-371.631Y-435.386
X-369.275Y-436.337
X-289.488Y-516.336
X-287.459Y-514.807
X-285.431Y-513.279
X-283.402Y-511.75
X-292.401Y-401.852
X-290.046Y-400.901
X-287.691Y-399.949
X-285.336Y-398.998
X-211.816Y-460.84
X-210.865Y-463.195
X-209.913Y-465.55
X-208.962Y-467.905
X-269.194Y-453.952
X-266.839Y-453.001
X-264.484Y-452.049
X-262.129Y-451.098
X-362.4Y-511.7
X-360.371Y-513.229
X-358.343Y-514.757
X-356.314Y-516.286
X-383.458Y-451.099
X-381.103Y-452.051
X-378.748Y-453.002
X-376.393Y-453.954
T5
X-322.7Y-468.7
T6
X-322.8Y-484.0
T0
M30
