M48
; DRILL file {KiCad (5.1.4)-1} date 11/5/2023 6:19:30 PM
; FORMAT={-:-/ absolute / metric / decimal}
; #@! TF.CreationDate,2023-11-05T18:19:30-05:00
; #@! TF.GenerationSoftware,Kicad,Pcbnew,(5.1.4)-1
; #@! TF.FileFunction,Plated,1,2,PTH
FMAT,2
METRIC
T1C0.400
T2C0.600
T3C0.800
T4C1.000
T5C6.000
T6C8.400
%
G90
G05
T1
X18.785Y-226.825
X21.477Y-258.417
X24.13Y-246.97
X31.33Y-229.12
X35.73Y-227.92
X36.83Y-270.42
X37.98Y-211.62
X44.13Y-252.21
X50.43Y-235.77
X56.405Y-230.395
X57.417Y-271.394
X58.33Y-217.02
X63.305Y-255.045
X67.67Y-238.73
X75.58Y-274.37
X77.58Y-219.87
X79.261Y-262.239
X80.13Y-228.37
X86.061Y-244.639
X99.328Y-219.956
X204.73Y-222.92
X207.58Y-227.37
X213.93Y-285.32
X214.03Y-284.225
X214.73Y-244.92
X222.28Y-262.597
X224.23Y-219.67
X230.68Y-237.62
X238.68Y-255.37
X243.88Y-217.12
X245.41Y-272.394
X249.63Y-274.97
X251.18Y-234.87
X258.08Y-252.77
X259.88Y-206.77
X262.23Y-257.07
X264.83Y-261.52
X266.98Y-224.37
X273.58Y-242.37
X276.78Y-246.22
T2
X138.93Y-288.67
X140.248Y-285.488
X140.248Y-291.852
X143.43Y-284.17
X143.43Y-293.17
X146.612Y-285.488
X146.612Y-291.852
X147.93Y-288.67
T3
X137.03Y-303.97
X138.875Y-299.515
X138.875Y-308.425
X143.33Y-297.67
X143.33Y-310.27
X147.785Y-299.515
X147.785Y-308.425
X149.63Y-303.97
T4
X176.642Y-336.306
X178.671Y-334.777
X180.699Y-333.249
X182.728Y-331.72
X105.879Y-218.969
X108.234Y-219.92
X110.589Y-220.872
X112.944Y-221.823
X173.729Y-221.822
X176.084Y-220.871
X178.439Y-219.919
X180.794Y-218.968
X182.701Y-238.689
X185.056Y-237.738
X187.411Y-236.786
X189.766Y-235.835
X29.428Y-288.088
X30.38Y-285.733
X31.331Y-283.378
X32.283Y-281.023
X189.818Y-256.306
X192.173Y-255.354
X194.528Y-254.403
X196.883Y-253.451
X89.789Y-253.453
X92.144Y-254.404
X94.499Y-255.356
X96.855Y-256.307
X254.314Y-280.81
X255.265Y-283.165
X256.217Y-285.52
X257.168Y-287.875
X196.936Y-273.922
X199.291Y-272.971
X201.646Y-272.019
X204.001Y-271.068
X96.907Y-235.836
X99.262Y-236.788
X101.617Y-237.739
X103.972Y-238.691
X103.73Y-331.67
X105.759Y-333.199
X107.787Y-334.727
X109.816Y-336.256
X82.672Y-271.069
X85.027Y-272.021
X87.382Y-272.972
X89.737Y-273.924
T5
X143.43Y-288.67
T6
X143.33Y-303.97
T0
M30
