M48
; DRILL file {KiCad (5.1.4)-1} date 10/4/2023 8:40:30 PM
; FORMAT={-:-/ absolute / metric / decimal}
; #@! TF.CreationDate,2023-10-04T20:40:30-04:00
; #@! TF.GenerationSoftware,Kicad,Pcbnew,(5.1.4)-1
; #@! TF.FileFunction,NonPlated,1,2,NPTH
FMAT,2
METRIC
T1C1.702
T2C2.950
T3C3.000
T4C5.050
%
G90
G05
T1
X-260.602Y-434.842
X-250.403Y-430.722
X-221.623Y-429.879
X-211.424Y-425.758
X-457.428Y-432.555
X-447.229Y-436.675
X-267.72Y-417.226
X-257.521Y-413.105
X-241.113Y-432.361
X-230.914Y-428.24
X-380.979Y-395.495
X-370.78Y-399.615
X-443.193Y-397.322
X-432.994Y-401.442
X-427.075Y-408.148
X-416.876Y-412.269
X-248.23Y-414.744
X-238.031Y-410.623
X-198.388Y-436.669
X-188.189Y-432.549
X-235.858Y-394.646
X-225.659Y-390.525
X-205.505Y-419.053
X-195.306Y-414.932
X-395.214Y-430.728
X-385.015Y-434.848
X-255.348Y-397.128
X-245.149Y-393.007
X-407.586Y-410.629
X-397.387Y-414.75
X-253.485Y-452.459
X-243.286Y-448.338
X-274.837Y-399.609
X-264.638Y-395.489
X-441.31Y-443.381
X-431.111Y-447.502
X-402.331Y-448.344
X-392.132Y-452.465
X-421.821Y-445.862
X-411.622Y-449.983
X-450.311Y-414.938
X-440.112Y-419.059
X-388.096Y-413.111
X-377.897Y-417.232
X-436.076Y-379.705
X-425.877Y-383.826
X-219.74Y-383.82
X-209.541Y-379.699
X-414.703Y-428.246
X-404.504Y-432.367
X-233.995Y-449.977
X-223.796Y-445.856
X-214.506Y-447.495
X-204.307Y-443.375
X-400.468Y-393.013
X-390.269Y-397.134
X-228.741Y-412.262
X-218.542Y-408.142
X-419.958Y-390.531
X-409.759Y-394.652
X-434.193Y-425.764
X-423.994Y-429.885
X-212.623Y-401.436
X-202.424Y-397.316
T2
X-231.605Y-453.757
X-224.331Y-452.274
X-212.116Y-451.275
X-204.842Y-449.792
X-401.375Y-397.392
X-395.112Y-401.379
X-226.351Y-416.042
X-219.077Y-414.559
X-420.864Y-394.911
X-414.602Y-398.897
X-435.099Y-430.144
X-428.837Y-434.13
X-210.233Y-405.216
X-202.958Y-403.733
X-258.212Y-438.622
X-250.938Y-437.139
X-219.233Y-433.659
X-211.959Y-432.176
X-458.335Y-436.934
X-452.072Y-440.92
X-265.33Y-421.006
X-258.056Y-419.523
X-238.723Y-436.141
X-231.449Y-434.658
X-381.885Y-399.874
X-375.622Y-403.86
X-444.1Y-401.701
X-437.837Y-405.687
X-427.982Y-412.527
X-421.719Y-416.513
X-245.84Y-418.524
X-238.566Y-417.041
X-195.998Y-440.449
X-188.723Y-438.966
X-233.468Y-398.426
X-226.194Y-396.943
X-203.115Y-422.833
X-195.841Y-421.35
X-396.12Y-435.107
X-389.858Y-439.093
X-252.958Y-400.908
X-245.684Y-399.425
X-408.492Y-415.009
X-402.23Y-418.995
X-251.095Y-456.239
X-243.821Y-454.756
X-272.447Y-403.389
X-265.173Y-401.906
X-442.217Y-447.76
X-435.954Y-451.746
X-403.238Y-452.723
X-396.975Y-456.71
X-422.727Y-450.242
X-416.465Y-454.228
X-451.217Y-419.317
X-444.955Y-423.304
X-389.003Y-417.49
X-382.74Y-421.477
X-436.982Y-384.084
X-430.72Y-388.071
X-217.35Y-387.6
X-210.076Y-386.117
X-415.61Y-432.625
X-409.347Y-436.612
T3
X-202.635Y-411.476
X-197.174Y-411.642
X-387.885Y-427.271
X-384.074Y-431.184
X-252.477Y-389.551
X-247.017Y-389.717
X-400.257Y-407.173
X-396.446Y-411.086
X-250.614Y-444.882
X-245.154Y-445.048
X-271.967Y-392.032
X-266.507Y-392.199
X-433.982Y-439.924
X-430.17Y-443.837
X-395.003Y-444.888
X-391.191Y-448.8
X-414.492Y-442.406
X-410.681Y-446.319
X-442.982Y-411.482
X-439.171Y-415.395
X-380.768Y-409.655
X-376.956Y-413.567
X-428.747Y-376.249
X-424.936Y-380.162
X-216.87Y-376.243
X-211.41Y-376.409
X-407.375Y-424.79
X-403.563Y-428.702
X-231.125Y-442.4
X-225.665Y-442.567
X-211.635Y-439.918
X-206.175Y-440.085
X-393.14Y-389.557
X-389.328Y-393.469
X-225.87Y-404.685
X-220.41Y-404.852
X-412.629Y-387.075
X-408.818Y-390.988
X-426.864Y-422.308
X-423.053Y-426.221
X-209.752Y-393.859
X-204.292Y-394.026
X-257.732Y-427.265
X-252.272Y-427.432
X-218.753Y-422.302
X-213.293Y-422.469
X-450.1Y-429.098
X-446.288Y-433.011
X-264.849Y-409.649
X-259.389Y-409.815
X-238.242Y-424.784
X-232.782Y-424.95
X-373.65Y-392.038
X-369.838Y-395.951
X-435.865Y-393.865
X-432.053Y-397.778
X-419.747Y-404.691
X-415.935Y-408.604
X-245.36Y-407.167
X-239.9Y-407.334
X-195.517Y-429.092
X-190.057Y-429.259
X-232.988Y-387.069
X-227.528Y-387.236
T4
X-255.503Y-432.782
X-216.524Y-427.819
X-452.329Y-434.615
X-262.62Y-415.165
X-236.013Y-430.3
X-375.879Y-397.555
X-438.094Y-399.382
X-421.976Y-410.208
X-243.131Y-412.684
X-193.288Y-434.609
X-230.759Y-392.586
X-200.406Y-416.992
X-390.114Y-432.788
X-250.248Y-395.067
X-402.486Y-412.69
X-248.385Y-450.398
X-269.738Y-397.549
X-436.211Y-445.441
X-397.232Y-450.404
X-416.721Y-447.923
X-445.211Y-416.998
X-382.997Y-415.171
X-430.976Y-381.765
X-214.641Y-381.759
X-409.604Y-430.306
X-228.896Y-447.917
X-209.406Y-445.435
X-395.369Y-395.073
X-223.641Y-410.202
X-414.858Y-392.592
X-429.093Y-427.825
X-207.523Y-399.376
T0
M30
