G04 #@! TF.GenerationSoftware,KiCad,Pcbnew,(5.1.4)-1*
G04 #@! TF.CreationDate,2023-11-05T18:19:26-05:00*
G04 #@! TF.ProjectId,ThumbsUp,5468756d-6273-4557-902e-6b696361645f,rev?*
G04 #@! TF.SameCoordinates,Original*
G04 #@! TF.FileFunction,Paste,Bot*
G04 #@! TF.FilePolarity,Positive*
%FSLAX46Y46*%
G04 Gerber Fmt 4.6, Leading zero omitted, Abs format (unit mm)*
G04 Created by KiCad (PCBNEW (5.1.4)-1) date 2023-11-05 18:19:26*
%MOMM*%
%LPD*%
G04 APERTURE LIST*
%ADD10C,2.000000*%
%ADD11C,0.100000*%
%ADD12C,2.500000*%
%ADD13C,2.600000*%
G04 APERTURE END LIST*
D10*
X47275080Y-251284126D03*
D11*
G36*
X45973290Y-251836703D02*
G01*
X46722503Y-249982336D01*
X48576870Y-250731549D01*
X47827657Y-252585916D01*
X45973290Y-251836703D01*
X45973290Y-251836703D01*
G37*
D12*
X60306246Y-258005080D03*
D11*
G36*
X58655828Y-258686436D02*
G01*
X59592345Y-256368477D01*
X61956664Y-257323724D01*
X61020147Y-259641683D01*
X58655828Y-258686436D01*
X58655828Y-258686436D01*
G37*
D13*
X65603478Y-249899221D03*
D11*
G36*
X63911150Y-250617571D02*
G01*
X64885128Y-248206893D01*
X67295806Y-249180871D01*
X66321828Y-251591549D01*
X63911150Y-250617571D01*
X63911150Y-250617571D01*
G37*
D13*
X55718639Y-243532710D03*
D11*
G36*
X54026311Y-244251060D02*
G01*
X55000289Y-241840382D01*
X57410967Y-242814360D01*
X56436989Y-245225038D01*
X54026311Y-244251060D01*
X54026311Y-244251060D01*
G37*
D10*
X73882131Y-236149239D03*
D11*
G36*
X72580341Y-236701816D02*
G01*
X73329554Y-234847449D01*
X75183921Y-235596662D01*
X74434708Y-237451029D01*
X72580341Y-236701816D01*
X72580341Y-236701816D01*
G37*
D12*
X86913297Y-242870193D03*
D11*
G36*
X85262879Y-243551549D02*
G01*
X86199396Y-241233590D01*
X88563715Y-242188837D01*
X87627198Y-244506796D01*
X85262879Y-243551549D01*
X85262879Y-243551549D01*
G37*
D13*
X92210529Y-234764334D03*
D11*
G36*
X90518201Y-235482684D02*
G01*
X91492179Y-233072006D01*
X93902857Y-234045984D01*
X92928879Y-236456662D01*
X90518201Y-235482684D01*
X90518201Y-235482684D01*
G37*
D13*
X82325690Y-228397823D03*
D11*
G36*
X80633362Y-229116173D02*
G01*
X81607340Y-226705495D01*
X84018018Y-227679473D01*
X83044040Y-230090151D01*
X80633362Y-229116173D01*
X80633362Y-229116173D01*
G37*
D10*
X209927080Y-222188651D03*
D11*
G36*
X209374503Y-223490441D02*
G01*
X208625290Y-221636074D01*
X210479657Y-220886861D01*
X211228870Y-222741228D01*
X209374503Y-223490441D01*
X209374503Y-223490441D01*
G37*
D12*
X223969684Y-217971093D03*
D11*
G36*
X223255783Y-219607696D02*
G01*
X222319266Y-217289737D01*
X224683585Y-216334490D01*
X225620102Y-218652449D01*
X223255783Y-219607696D01*
X223255783Y-219607696D01*
G37*
D13*
X222149391Y-208460459D03*
D11*
G36*
X221431041Y-210152787D02*
G01*
X220457063Y-207742109D01*
X222867741Y-206768131D01*
X223841719Y-209178809D01*
X221431041Y-210152787D01*
X221431041Y-210152787D01*
G37*
D13*
X210616283Y-210747361D03*
D11*
G36*
X209897933Y-212439689D02*
G01*
X208923955Y-210029011D01*
X211334633Y-209055033D01*
X212308611Y-211465711D01*
X209897933Y-212439689D01*
X209897933Y-212439689D01*
G37*
D10*
X25902537Y-202743273D03*
D11*
G36*
X24600747Y-203295850D02*
G01*
X25349960Y-201441483D01*
X27204327Y-202190696D01*
X26455114Y-204045063D01*
X24600747Y-203295850D01*
X24600747Y-203295850D01*
G37*
D12*
X38933703Y-209464227D03*
D11*
G36*
X37283285Y-210145583D02*
G01*
X38219802Y-207827624D01*
X40584121Y-208782871D01*
X39647604Y-211100830D01*
X37283285Y-210145583D01*
X37283285Y-210145583D01*
G37*
D13*
X44230935Y-201358368D03*
D11*
G36*
X42538607Y-202076718D02*
G01*
X43512585Y-199666040D01*
X45923263Y-200640018D01*
X44949285Y-203050696D01*
X42538607Y-202076718D01*
X42538607Y-202076718D01*
G37*
D13*
X34346096Y-194991857D03*
D11*
G36*
X32653768Y-195710207D02*
G01*
X33627746Y-193299529D01*
X36038424Y-194273507D01*
X35064446Y-196684185D01*
X32653768Y-195710207D01*
X32653768Y-195710207D01*
G37*
D10*
X59647081Y-271382225D03*
D11*
G36*
X58345291Y-271934802D02*
G01*
X59094504Y-270080435D01*
X60948871Y-270829648D01*
X60199658Y-272684015D01*
X58345291Y-271934802D01*
X58345291Y-271934802D01*
G37*
D12*
X72678247Y-278103179D03*
D11*
G36*
X71027829Y-278784535D02*
G01*
X71964346Y-276466576D01*
X74328665Y-277421823D01*
X73392148Y-279739782D01*
X71027829Y-278784535D01*
X71027829Y-278784535D01*
G37*
D13*
X77975479Y-269997320D03*
D11*
G36*
X76283151Y-270715670D02*
G01*
X77257129Y-268304992D01*
X79667807Y-269278970D01*
X78693829Y-271689648D01*
X76283151Y-270715670D01*
X76283151Y-270715670D01*
G37*
D13*
X68090640Y-263630809D03*
D11*
G36*
X66398312Y-264349159D02*
G01*
X67372290Y-261938481D01*
X69782968Y-262912459D01*
X68808990Y-265323137D01*
X66398312Y-264349159D01*
X66398312Y-264349159D01*
G37*
D10*
X245534673Y-208880784D03*
D11*
G36*
X244982096Y-210182574D02*
G01*
X244232883Y-208328207D01*
X246087250Y-207578994D01*
X246836463Y-209433361D01*
X244982096Y-210182574D01*
X244982096Y-210182574D01*
G37*
D12*
X259577277Y-204663226D03*
D11*
G36*
X258863376Y-206299829D02*
G01*
X257926859Y-203981870D01*
X260291178Y-203026623D01*
X261227695Y-205344582D01*
X258863376Y-206299829D01*
X258863376Y-206299829D01*
G37*
D13*
X257756984Y-195152592D03*
D11*
G36*
X257038634Y-196844920D02*
G01*
X256064656Y-194434242D01*
X258475334Y-193460264D01*
X259449312Y-195870942D01*
X257038634Y-196844920D01*
X257038634Y-196844920D01*
G37*
D13*
X246223876Y-197439494D03*
D11*
G36*
X245505526Y-199131822D02*
G01*
X244531548Y-196721144D01*
X246942226Y-195747166D01*
X247916204Y-198157844D01*
X245505526Y-199131822D01*
X245505526Y-199131822D01*
G37*
D10*
X252652199Y-226497278D03*
D11*
G36*
X252099622Y-227799068D02*
G01*
X251350409Y-225944701D01*
X253204776Y-225195488D01*
X253953989Y-227049855D01*
X252099622Y-227799068D01*
X252099622Y-227799068D01*
G37*
D12*
X266694803Y-222279720D03*
D11*
G36*
X265980902Y-223916323D02*
G01*
X265044385Y-221598364D01*
X267408704Y-220643117D01*
X268345221Y-222961076D01*
X265980902Y-223916323D01*
X265980902Y-223916323D01*
G37*
D13*
X264874510Y-212769086D03*
D11*
G36*
X264156160Y-214461414D02*
G01*
X263182182Y-212050736D01*
X265592860Y-211076758D01*
X266566838Y-213487436D01*
X264156160Y-214461414D01*
X264156160Y-214461414D01*
G37*
D13*
X253341402Y-215055988D03*
D11*
G36*
X252623052Y-216748316D02*
G01*
X251649074Y-214337638D01*
X254059752Y-213363660D01*
X255033730Y-215774338D01*
X252623052Y-216748316D01*
X252623052Y-216748316D01*
G37*
D10*
X54392605Y-233667633D03*
D11*
G36*
X53090815Y-234220210D02*
G01*
X53840028Y-232365843D01*
X55694395Y-233115056D01*
X54945182Y-234969423D01*
X53090815Y-234220210D01*
X53090815Y-234220210D01*
G37*
D12*
X67423771Y-240388587D03*
D11*
G36*
X65773353Y-241069943D02*
G01*
X66709870Y-238751984D01*
X69074189Y-239707231D01*
X68137672Y-242025190D01*
X65773353Y-241069943D01*
X65773353Y-241069943D01*
G37*
D13*
X72721003Y-232282728D03*
D11*
G36*
X71028675Y-233001078D02*
G01*
X72002653Y-230590400D01*
X74413331Y-231564378D01*
X73439353Y-233975056D01*
X71028675Y-233001078D01*
X71028675Y-233001078D01*
G37*
D13*
X62836164Y-225916217D03*
D11*
G36*
X61143836Y-226634567D02*
G01*
X62117814Y-224223889D01*
X64528492Y-225197867D01*
X63554514Y-227608545D01*
X61143836Y-226634567D01*
X61143836Y-226634567D01*
G37*
D10*
X34903079Y-231186027D03*
D11*
G36*
X33601289Y-231738604D02*
G01*
X34350502Y-229884237D01*
X36204869Y-230633450D01*
X35455656Y-232487817D01*
X33601289Y-231738604D01*
X33601289Y-231738604D01*
G37*
D12*
X47934245Y-237906981D03*
D11*
G36*
X46283827Y-238588337D02*
G01*
X47220344Y-236270378D01*
X49584663Y-237225625D01*
X48648146Y-239543584D01*
X46283827Y-238588337D01*
X46283827Y-238588337D01*
G37*
D13*
X53231477Y-229801122D03*
D11*
G36*
X51539149Y-230519472D02*
G01*
X52513127Y-228108794D01*
X54923805Y-229082772D01*
X53949827Y-231493450D01*
X51539149Y-230519472D01*
X51539149Y-230519472D01*
G37*
D13*
X43346638Y-223434611D03*
D11*
G36*
X41654310Y-224152961D02*
G01*
X42628288Y-221742283D01*
X45038966Y-222716261D01*
X44064988Y-225126939D01*
X41654310Y-224152961D01*
X41654310Y-224152961D01*
G37*
D10*
X211790130Y-277519737D03*
D11*
G36*
X211237553Y-278821527D02*
G01*
X210488340Y-276967160D01*
X212342707Y-276217947D01*
X213091920Y-278072314D01*
X211237553Y-278821527D01*
X211237553Y-278821527D01*
G37*
D12*
X225832734Y-273302179D03*
D11*
G36*
X225118833Y-274938782D02*
G01*
X224182316Y-272620823D01*
X226546635Y-271665576D01*
X227483152Y-273983535D01*
X225118833Y-274938782D01*
X225118833Y-274938782D01*
G37*
D13*
X224012441Y-263791545D03*
D11*
G36*
X223294091Y-265483873D02*
G01*
X222320113Y-263073195D01*
X224730791Y-262099217D01*
X225704769Y-264509895D01*
X223294091Y-265483873D01*
X223294091Y-265483873D01*
G37*
D13*
X212479333Y-266078447D03*
D11*
G36*
X211760983Y-267770775D02*
G01*
X210787005Y-265360097D01*
X213197683Y-264386119D01*
X214171661Y-266796797D01*
X211760983Y-267770775D01*
X211760983Y-267770775D01*
G37*
D10*
X204672605Y-259903243D03*
D11*
G36*
X204120028Y-261205033D02*
G01*
X203370815Y-259350666D01*
X205225182Y-258601453D01*
X205974395Y-260455820D01*
X204120028Y-261205033D01*
X204120028Y-261205033D01*
G37*
D12*
X218715209Y-255685685D03*
D11*
G36*
X218001308Y-257322288D02*
G01*
X217064791Y-255004329D01*
X219429110Y-254049082D01*
X220365627Y-256367041D01*
X218001308Y-257322288D01*
X218001308Y-257322288D01*
G37*
D13*
X216894916Y-246175051D03*
D11*
G36*
X216176566Y-247867379D02*
G01*
X215202588Y-245456701D01*
X217613266Y-244482723D01*
X218587244Y-246893401D01*
X216176566Y-247867379D01*
X216176566Y-247867379D01*
G37*
D13*
X205361808Y-248461953D03*
D11*
G36*
X204643458Y-250154281D02*
G01*
X203669480Y-247743603D01*
X206080158Y-246769625D01*
X207054136Y-249180303D01*
X204643458Y-250154281D01*
X204643458Y-250154281D01*
G37*
D10*
X27785554Y-248802520D03*
D11*
G36*
X26483764Y-249355097D02*
G01*
X27232977Y-247500730D01*
X29087344Y-248249943D01*
X28338131Y-250104310D01*
X26483764Y-249355097D01*
X26483764Y-249355097D01*
G37*
D12*
X40816720Y-255523474D03*
D11*
G36*
X39166302Y-256204830D02*
G01*
X40102819Y-253886871D01*
X42467138Y-254842118D01*
X41530621Y-257160077D01*
X39166302Y-256204830D01*
X39166302Y-256204830D01*
G37*
D13*
X46113952Y-247417615D03*
D11*
G36*
X44421624Y-248135965D02*
G01*
X45395602Y-245725287D01*
X47806280Y-246699265D01*
X46832302Y-249109943D01*
X44421624Y-248135965D01*
X44421624Y-248135965D01*
G37*
D13*
X36229113Y-241051104D03*
D11*
G36*
X34536785Y-241769454D02*
G01*
X35510763Y-239358776D01*
X37921441Y-240332754D01*
X36947463Y-242743432D01*
X34536785Y-241769454D01*
X34536785Y-241769454D01*
G37*
D10*
X231279656Y-275038131D03*
D11*
G36*
X230727079Y-276339921D02*
G01*
X229977866Y-274485554D01*
X231832233Y-273736341D01*
X232581446Y-275590708D01*
X230727079Y-276339921D01*
X230727079Y-276339921D01*
G37*
D12*
X245322260Y-270820573D03*
D11*
G36*
X244608359Y-272457176D02*
G01*
X243671842Y-270139217D01*
X246036161Y-269183970D01*
X246972678Y-271501929D01*
X244608359Y-272457176D01*
X244608359Y-272457176D01*
G37*
D13*
X243501967Y-261309939D03*
D11*
G36*
X242783617Y-263002267D02*
G01*
X241809639Y-260591589D01*
X244220317Y-259617611D01*
X245194295Y-262028289D01*
X242783617Y-263002267D01*
X242783617Y-263002267D01*
G37*
D13*
X231968859Y-263596841D03*
D11*
G36*
X231250509Y-265289169D02*
G01*
X230276531Y-262878491D01*
X232687209Y-261904513D01*
X233661187Y-264315191D01*
X231250509Y-265289169D01*
X231250509Y-265289169D01*
G37*
D10*
X197555079Y-242286750D03*
D11*
G36*
X197002502Y-243588540D02*
G01*
X196253289Y-241734173D01*
X198107656Y-240984960D01*
X198856869Y-242839327D01*
X197002502Y-243588540D01*
X197002502Y-243588540D01*
G37*
D12*
X211597683Y-238069192D03*
D11*
G36*
X210883782Y-239705795D02*
G01*
X209947265Y-237387836D01*
X212311584Y-236432589D01*
X213248101Y-238750548D01*
X210883782Y-239705795D01*
X210883782Y-239705795D01*
G37*
D13*
X209777390Y-228558558D03*
D11*
G36*
X209059040Y-230250886D02*
G01*
X208085062Y-227840208D01*
X210495740Y-226866230D01*
X211469718Y-229276908D01*
X209059040Y-230250886D01*
X209059040Y-230250886D01*
G37*
D13*
X198244282Y-230845460D03*
D11*
G36*
X197525932Y-232537788D02*
G01*
X196551954Y-230127110D01*
X198962632Y-229153132D01*
X199936610Y-231563810D01*
X197525932Y-232537788D01*
X197525932Y-232537788D01*
G37*
D10*
X66764606Y-253765732D03*
D11*
G36*
X65462816Y-254318309D02*
G01*
X66212029Y-252463942D01*
X68066396Y-253213155D01*
X67317183Y-255067522D01*
X65462816Y-254318309D01*
X65462816Y-254318309D01*
G37*
D12*
X79795772Y-260486686D03*
D11*
G36*
X78145354Y-261168042D02*
G01*
X79081871Y-258850083D01*
X81446190Y-259805330D01*
X80509673Y-262123289D01*
X78145354Y-261168042D01*
X78145354Y-261168042D01*
G37*
D13*
X85093004Y-252380827D03*
D11*
G36*
X83400676Y-253099177D02*
G01*
X84374654Y-250688499D01*
X86785332Y-251662477D01*
X85811354Y-254073155D01*
X83400676Y-253099177D01*
X83400676Y-253099177D01*
G37*
D13*
X75208165Y-246014316D03*
D11*
G36*
X73515837Y-246732666D02*
G01*
X74489815Y-244321988D01*
X76900493Y-245295966D01*
X75926515Y-247706644D01*
X73515837Y-246732666D01*
X73515837Y-246732666D01*
G37*
D10*
X229416606Y-219707045D03*
D11*
G36*
X228864029Y-221008835D02*
G01*
X228114816Y-219154468D01*
X229969183Y-218405255D01*
X230718396Y-220259622D01*
X228864029Y-221008835D01*
X228864029Y-221008835D01*
G37*
D12*
X243459210Y-215489487D03*
D11*
G36*
X242745309Y-217126090D02*
G01*
X241808792Y-214808131D01*
X244173111Y-213852884D01*
X245109628Y-216170843D01*
X242745309Y-217126090D01*
X242745309Y-217126090D01*
G37*
D13*
X241638917Y-205978853D03*
D11*
G36*
X240920567Y-207671181D02*
G01*
X239946589Y-205260503D01*
X242357267Y-204286525D01*
X243331245Y-206697203D01*
X240920567Y-207671181D01*
X240920567Y-207671181D01*
G37*
D13*
X230105809Y-208265755D03*
D11*
G36*
X229387459Y-209958083D02*
G01*
X228413481Y-207547405D01*
X230824159Y-206573427D01*
X231798137Y-208984105D01*
X229387459Y-209958083D01*
X229387459Y-209958083D01*
G37*
D10*
X236534132Y-237323538D03*
D11*
G36*
X235981555Y-238625328D02*
G01*
X235232342Y-236770961D01*
X237086709Y-236021748D01*
X237835922Y-237876115D01*
X235981555Y-238625328D01*
X235981555Y-238625328D01*
G37*
D12*
X250576736Y-233105980D03*
D11*
G36*
X249862835Y-234742583D02*
G01*
X248926318Y-232424624D01*
X251290637Y-231469377D01*
X252227154Y-233787336D01*
X249862835Y-234742583D01*
X249862835Y-234742583D01*
G37*
D13*
X248756443Y-223595346D03*
D11*
G36*
X248038093Y-225287674D02*
G01*
X247064115Y-222876996D01*
X249474793Y-221903018D01*
X250448771Y-224313696D01*
X248038093Y-225287674D01*
X248038093Y-225287674D01*
G37*
D13*
X237223335Y-225882248D03*
D11*
G36*
X236504985Y-227574576D02*
G01*
X235531007Y-225163898D01*
X237941685Y-224189920D01*
X238915663Y-226600598D01*
X236504985Y-227574576D01*
X236504985Y-227574576D01*
G37*
D10*
X190437554Y-224670257D03*
D11*
G36*
X189884977Y-225972047D02*
G01*
X189135764Y-224117680D01*
X190990131Y-223368467D01*
X191739344Y-225222834D01*
X189884977Y-225972047D01*
X189884977Y-225972047D01*
G37*
D12*
X204480158Y-220452699D03*
D11*
G36*
X203766257Y-222089302D02*
G01*
X202829740Y-219771343D01*
X205194059Y-218816096D01*
X206130576Y-221134055D01*
X203766257Y-222089302D01*
X203766257Y-222089302D01*
G37*
D13*
X202659865Y-210942065D03*
D11*
G36*
X201941515Y-212634393D02*
G01*
X200967537Y-210223715D01*
X203378215Y-209249737D01*
X204352193Y-211660415D01*
X201941515Y-212634393D01*
X201941515Y-212634393D01*
G37*
D13*
X191126757Y-213228967D03*
D11*
G36*
X190408407Y-214921295D02*
G01*
X189434429Y-212510617D01*
X191845107Y-211536639D01*
X192819085Y-213947317D01*
X190408407Y-214921295D01*
X190408407Y-214921295D01*
G37*
D10*
X259769724Y-244113771D03*
D11*
G36*
X259217147Y-245415561D02*
G01*
X258467934Y-243561194D01*
X260322301Y-242811981D01*
X261071514Y-244666348D01*
X259217147Y-245415561D01*
X259217147Y-245415561D01*
G37*
D12*
X273812328Y-239896213D03*
D11*
G36*
X273098427Y-241532816D02*
G01*
X272161910Y-239214857D01*
X274526229Y-238259610D01*
X275462746Y-240577569D01*
X273098427Y-241532816D01*
X273098427Y-241532816D01*
G37*
D13*
X271992035Y-230385579D03*
D11*
G36*
X271273685Y-232077907D02*
G01*
X270299707Y-229667229D01*
X272710385Y-228693251D01*
X273684363Y-231103929D01*
X271273685Y-232077907D01*
X271273685Y-232077907D01*
G37*
D13*
X260458927Y-232672481D03*
D11*
G36*
X259740577Y-234364809D02*
G01*
X258766599Y-231954131D01*
X261177277Y-230980153D01*
X262151255Y-233390831D01*
X259740577Y-234364809D01*
X259740577Y-234364809D01*
G37*
D10*
X224162131Y-257421637D03*
D11*
G36*
X223609554Y-258723427D02*
G01*
X222860341Y-256869060D01*
X224714708Y-256119847D01*
X225463921Y-257974214D01*
X223609554Y-258723427D01*
X223609554Y-258723427D01*
G37*
D12*
X238204735Y-253204079D03*
D11*
G36*
X237490834Y-254840682D02*
G01*
X236554317Y-252522723D01*
X238918636Y-251567476D01*
X239855153Y-253885435D01*
X237490834Y-254840682D01*
X237490834Y-254840682D01*
G37*
D13*
X236384442Y-243693445D03*
D11*
G36*
X235666092Y-245385773D02*
G01*
X234692114Y-242975095D01*
X237102792Y-242001117D01*
X238076770Y-244411795D01*
X235666092Y-245385773D01*
X235666092Y-245385773D01*
G37*
D13*
X224851334Y-245980347D03*
D11*
G36*
X224132984Y-247672675D02*
G01*
X223159006Y-245261997D01*
X225569684Y-244288019D01*
X226543662Y-246698697D01*
X224132984Y-247672675D01*
X224132984Y-247672675D01*
G37*
D10*
X217044605Y-239805144D03*
D11*
G36*
X216492028Y-241106934D02*
G01*
X215742815Y-239252567D01*
X217597182Y-238503354D01*
X218346395Y-240357721D01*
X216492028Y-241106934D01*
X216492028Y-241106934D01*
G37*
D12*
X231087209Y-235587586D03*
D11*
G36*
X230373308Y-237224189D02*
G01*
X229436791Y-234906230D01*
X231801110Y-233950983D01*
X232737627Y-236268942D01*
X230373308Y-237224189D01*
X230373308Y-237224189D01*
G37*
D13*
X229266916Y-226076952D03*
D11*
G36*
X228548566Y-227769280D02*
G01*
X227574588Y-225358602D01*
X229985266Y-224384624D01*
X230959244Y-226795302D01*
X228548566Y-227769280D01*
X228548566Y-227769280D01*
G37*
D13*
X217733808Y-228363854D03*
D11*
G36*
X217015458Y-230056182D02*
G01*
X216041480Y-227645504D01*
X218452158Y-226671526D01*
X219426136Y-229082204D01*
X217015458Y-230056182D01*
X217015458Y-230056182D01*
G37*
D10*
X266887249Y-261730264D03*
D11*
G36*
X266334672Y-263032054D02*
G01*
X265585459Y-261177687D01*
X267439826Y-260428474D01*
X268189039Y-262282841D01*
X266334672Y-263032054D01*
X266334672Y-263032054D01*
G37*
D12*
X280929853Y-257512706D03*
D11*
G36*
X280215952Y-259149309D02*
G01*
X279279435Y-256831350D01*
X281643754Y-255876103D01*
X282580271Y-258194062D01*
X280215952Y-259149309D01*
X280215952Y-259149309D01*
G37*
D13*
X279109560Y-248002072D03*
D11*
G36*
X278391210Y-249694400D02*
G01*
X277417232Y-247283722D01*
X279827910Y-246309744D01*
X280801888Y-248720422D01*
X278391210Y-249694400D01*
X278391210Y-249694400D01*
G37*
D13*
X267576452Y-250288974D03*
D11*
G36*
X266858102Y-251981302D02*
G01*
X265884124Y-249570624D01*
X268294802Y-248596646D01*
X269268780Y-251007324D01*
X266858102Y-251981302D01*
X266858102Y-251981302D01*
G37*
D10*
X42020604Y-213569533D03*
D11*
G36*
X40718814Y-214122110D02*
G01*
X41468027Y-212267743D01*
X43322394Y-213016956D01*
X42573181Y-214871323D01*
X40718814Y-214122110D01*
X40718814Y-214122110D01*
G37*
D12*
X55051770Y-220290487D03*
D11*
G36*
X53401352Y-220971843D02*
G01*
X54337869Y-218653884D01*
X56702188Y-219609131D01*
X55765671Y-221927090D01*
X53401352Y-220971843D01*
X53401352Y-220971843D01*
G37*
D13*
X60349002Y-212184628D03*
D11*
G36*
X58656674Y-212902978D02*
G01*
X59630652Y-210492300D01*
X62041330Y-211466278D01*
X61067352Y-213876956D01*
X58656674Y-212902978D01*
X58656674Y-212902978D01*
G37*
D13*
X50464163Y-205818117D03*
D11*
G36*
X48771835Y-206536467D02*
G01*
X49745813Y-204125789D01*
X52156491Y-205099767D01*
X51182513Y-207510445D01*
X48771835Y-206536467D01*
X48771835Y-206536467D01*
G37*
D10*
X80999657Y-218532745D03*
D11*
G36*
X79697867Y-219085322D02*
G01*
X80447080Y-217230955D01*
X82301447Y-217980168D01*
X81552234Y-219834535D01*
X79697867Y-219085322D01*
X79697867Y-219085322D01*
G37*
D12*
X94030823Y-225253699D03*
D11*
G36*
X92380405Y-225935055D02*
G01*
X93316922Y-223617096D01*
X95681241Y-224572343D01*
X94744724Y-226890302D01*
X92380405Y-225935055D01*
X92380405Y-225935055D01*
G37*
D13*
X99328055Y-217147840D03*
D11*
G36*
X97635727Y-217866190D02*
G01*
X98609705Y-215455512D01*
X101020383Y-216429490D01*
X100046405Y-218840168D01*
X97635727Y-217866190D01*
X97635727Y-217866190D01*
G37*
D13*
X89443216Y-210781329D03*
D11*
G36*
X87750888Y-211499679D02*
G01*
X88724866Y-209089001D01*
X91135544Y-210062979D01*
X90161566Y-212473657D01*
X87750888Y-211499679D01*
X87750888Y-211499679D01*
G37*
D10*
X243651657Y-254940031D03*
D11*
G36*
X243099080Y-256241821D02*
G01*
X242349867Y-254387454D01*
X244204234Y-253638241D01*
X244953447Y-255492608D01*
X243099080Y-256241821D01*
X243099080Y-256241821D01*
G37*
D12*
X257694261Y-250722473D03*
D11*
G36*
X256980360Y-252359076D02*
G01*
X256043843Y-250041117D01*
X258408162Y-249085870D01*
X259344679Y-251403829D01*
X256980360Y-252359076D01*
X256980360Y-252359076D01*
G37*
D13*
X255873968Y-241211839D03*
D11*
G36*
X255155618Y-242904167D02*
G01*
X254181640Y-240493489D01*
X256592318Y-239519511D01*
X257566296Y-241930189D01*
X255155618Y-242904167D01*
X255155618Y-242904167D01*
G37*
D13*
X244340860Y-243498741D03*
D11*
G36*
X243622510Y-245191069D02*
G01*
X242648532Y-242780391D01*
X245059210Y-241806413D01*
X246033188Y-244217091D01*
X243622510Y-245191069D01*
X243622510Y-245191069D01*
G37*
D10*
X20668028Y-266419013D03*
D11*
G36*
X19366238Y-266971590D02*
G01*
X20115451Y-265117223D01*
X21969818Y-265866436D01*
X21220605Y-267720803D01*
X19366238Y-266971590D01*
X19366238Y-266971590D01*
G37*
D12*
X33699194Y-273139967D03*
D11*
G36*
X32048776Y-273821323D02*
G01*
X32985293Y-271503364D01*
X35349612Y-272458611D01*
X34413095Y-274776570D01*
X32048776Y-273821323D01*
X32048776Y-273821323D01*
G37*
D13*
X38996426Y-265034108D03*
D11*
G36*
X37304098Y-265752458D02*
G01*
X38278076Y-263341780D01*
X40688754Y-264315758D01*
X39714776Y-266726436D01*
X37304098Y-265752458D01*
X37304098Y-265752458D01*
G37*
D13*
X29111587Y-258667597D03*
D11*
G36*
X27419259Y-259385947D02*
G01*
X28393237Y-256975269D01*
X30803915Y-257949247D01*
X29829937Y-260359925D01*
X27419259Y-259385947D01*
X27419259Y-259385947D01*
G37*
D10*
X11667487Y-237976259D03*
D11*
G36*
X10365697Y-238528836D02*
G01*
X11114910Y-236674469D01*
X12969277Y-237423682D01*
X12220064Y-239278049D01*
X10365697Y-238528836D01*
X10365697Y-238528836D01*
G37*
D12*
X24698653Y-244697213D03*
D11*
G36*
X23048235Y-245378569D02*
G01*
X23984752Y-243060610D01*
X26349071Y-244015857D01*
X25412554Y-246333816D01*
X23048235Y-245378569D01*
X23048235Y-245378569D01*
G37*
D13*
X29995885Y-236591354D03*
D11*
G36*
X28303557Y-237309704D02*
G01*
X29277535Y-234899026D01*
X31688213Y-235873004D01*
X30714235Y-238283682D01*
X28303557Y-237309704D01*
X28303557Y-237309704D01*
G37*
D13*
X20111046Y-230224843D03*
D11*
G36*
X18418718Y-230943193D02*
G01*
X19392696Y-228532515D01*
X21803374Y-229506493D01*
X20829396Y-231917171D01*
X18418718Y-230943193D01*
X18418718Y-230943193D01*
G37*
D10*
X4549962Y-255592752D03*
D11*
G36*
X3248172Y-256145329D02*
G01*
X3997385Y-254290962D01*
X5851752Y-255040175D01*
X5102539Y-256894542D01*
X3248172Y-256145329D01*
X3248172Y-256145329D01*
G37*
D12*
X17581128Y-262313706D03*
D11*
G36*
X15930710Y-262995062D02*
G01*
X16867227Y-260677103D01*
X19231546Y-261632350D01*
X18295029Y-263950309D01*
X15930710Y-262995062D01*
X15930710Y-262995062D01*
G37*
D13*
X22878360Y-254207847D03*
D11*
G36*
X21186032Y-254926197D02*
G01*
X22160010Y-252515519D01*
X24570688Y-253489497D01*
X23596710Y-255900175D01*
X21186032Y-254926197D01*
X21186032Y-254926197D01*
G37*
D13*
X12993521Y-247841336D03*
D11*
G36*
X11301193Y-248559686D02*
G01*
X12275171Y-246149008D01*
X14685849Y-247122986D01*
X13711871Y-249533664D01*
X11301193Y-248559686D01*
X11301193Y-248559686D01*
G37*
D10*
X40157555Y-268900619D03*
D11*
G36*
X38855765Y-269453196D02*
G01*
X39604978Y-267598829D01*
X41459345Y-268348042D01*
X40710132Y-270202409D01*
X38855765Y-269453196D01*
X38855765Y-269453196D01*
G37*
D12*
X53188721Y-275621573D03*
D11*
G36*
X51538303Y-276302929D02*
G01*
X52474820Y-273984970D01*
X54839139Y-274940217D01*
X53902622Y-277258176D01*
X51538303Y-276302929D01*
X51538303Y-276302929D01*
G37*
D13*
X58485953Y-267515714D03*
D11*
G36*
X56793625Y-268234064D02*
G01*
X57767603Y-265823386D01*
X60178281Y-266797364D01*
X59204303Y-269208042D01*
X56793625Y-268234064D01*
X56793625Y-268234064D01*
G37*
D13*
X48601114Y-261149203D03*
D11*
G36*
X46908786Y-261867553D02*
G01*
X47882764Y-259456875D01*
X50293442Y-260430853D01*
X49319464Y-262841531D01*
X46908786Y-261867553D01*
X46908786Y-261867553D01*
G37*
D10*
X61510130Y-216051139D03*
D11*
G36*
X60208340Y-216603716D02*
G01*
X60957553Y-214749349D01*
X62811920Y-215498562D01*
X62062707Y-217352929D01*
X60208340Y-216603716D01*
X60208340Y-216603716D01*
G37*
D12*
X74541296Y-222772093D03*
D11*
G36*
X72890878Y-223453449D02*
G01*
X73827395Y-221135490D01*
X76191714Y-222090737D01*
X75255197Y-224408696D01*
X72890878Y-223453449D01*
X72890878Y-223453449D01*
G37*
D13*
X79838528Y-214666234D03*
D11*
G36*
X78146200Y-215384584D02*
G01*
X79120178Y-212973906D01*
X81530856Y-213947884D01*
X80556878Y-216358562D01*
X78146200Y-215384584D01*
X78146200Y-215384584D01*
G37*
D13*
X69953689Y-208299723D03*
D11*
G36*
X68261361Y-209018073D02*
G01*
X69235339Y-206607395D01*
X71646017Y-207581373D01*
X70672039Y-209992051D01*
X68261361Y-209018073D01*
X68261361Y-209018073D01*
G37*
D10*
X18785012Y-220359766D03*
D11*
G36*
X17483222Y-220912343D02*
G01*
X18232435Y-219057976D01*
X20086802Y-219807189D01*
X19337589Y-221661556D01*
X17483222Y-220912343D01*
X17483222Y-220912343D01*
G37*
D12*
X31816178Y-227080720D03*
D11*
G36*
X30165760Y-227762076D02*
G01*
X31102277Y-225444117D01*
X33466596Y-226399364D01*
X32530079Y-228717323D01*
X30165760Y-227762076D01*
X30165760Y-227762076D01*
G37*
D13*
X37113410Y-218974861D03*
D11*
G36*
X35421082Y-219693211D02*
G01*
X36395060Y-217282533D01*
X38805738Y-218256511D01*
X37831760Y-220667189D01*
X35421082Y-219693211D01*
X35421082Y-219693211D01*
G37*
D13*
X27228571Y-212608350D03*
D11*
G36*
X25536243Y-213326700D02*
G01*
X26510221Y-210916022D01*
X28920899Y-211890000D01*
X27946921Y-214300678D01*
X25536243Y-213326700D01*
X25536243Y-213326700D01*
G37*
D10*
X250769182Y-272556525D03*
D11*
G36*
X250216605Y-273858315D02*
G01*
X249467392Y-272003948D01*
X251321759Y-271254735D01*
X252070972Y-273109102D01*
X250216605Y-273858315D01*
X250216605Y-273858315D01*
G37*
D12*
X264811786Y-268338967D03*
D11*
G36*
X264097885Y-269975570D02*
G01*
X263161368Y-267657611D01*
X265525687Y-266702364D01*
X266462204Y-269020323D01*
X264097885Y-269975570D01*
X264097885Y-269975570D01*
G37*
D13*
X262991493Y-258828333D03*
D11*
G36*
X262273143Y-260520661D02*
G01*
X261299165Y-258109983D01*
X263709843Y-257136005D01*
X264683821Y-259546683D01*
X262273143Y-260520661D01*
X262273143Y-260520661D01*
G37*
D13*
X251458385Y-261115235D03*
D11*
G36*
X250740035Y-262807563D02*
G01*
X249766057Y-260396885D01*
X252176735Y-259422907D01*
X253150713Y-261833585D01*
X250740035Y-262807563D01*
X250740035Y-262807563D01*
G37*
M02*
