M48
; DRILL file {KiCad (5.1.4)-1} date 11/5/2023 6:19:30 PM
; FORMAT={-:-/ absolute / metric / decimal}
; #@! TF.CreationDate,2023-11-05T18:19:30-05:00
; #@! TF.GenerationSoftware,Kicad,Pcbnew,(5.1.4)-1
; #@! TF.FileFunction,NonPlated,1,2,NPTH
FMAT,2
METRIC
T1C1.702
T2C2.950
T3C3.000
T4C4.950
%
G90
G05
T1
X15.819Y-234.908
X26.018Y-239.029
X63.799Y-268.314
X73.998Y-272.435
X65.662Y-212.983
X75.861Y-217.104
X253.507Y-221.406
X263.706Y-217.286
X251.624Y-267.465
X261.823Y-263.345
X39.055Y-228.118
X49.254Y-232.239
X31.937Y-245.734
X42.136Y-249.855
X70.916Y-250.698
X81.115Y-254.818
X237.389Y-232.232
X247.588Y-228.112
X260.625Y-239.023
X270.824Y-234.902
X267.742Y-256.639
X277.941Y-252.519
X244.507Y-249.849
X254.706Y-245.728
X210.782Y-217.098
X220.981Y-212.977
X8.702Y-252.525
X18.901Y-256.645
X246.39Y-203.79
X256.589Y-199.669
X22.937Y-217.292
X33.136Y-221.412
X58.544Y-230.599
X68.743Y-234.72
X212.645Y-272.429
X222.844Y-268.308
X232.135Y-269.947
X242.334Y-265.826
X230.272Y-214.616
X240.471Y-210.495
X225.017Y-252.331
X235.216Y-248.21
X46.172Y-210.501
X56.371Y-214.622
X78.034Y-233.081
X88.233Y-237.202
X24.82Y-263.351
X35.019Y-267.472
X30.054Y-199.675
X40.253Y-203.796
X44.309Y-265.832
X54.508Y-269.953
X205.528Y-254.812
X215.727Y-250.692
X198.41Y-237.196
X208.609Y-233.075
X191.293Y-219.579
X201.492Y-215.459
X217.9Y-234.714
X228.099Y-230.593
X51.427Y-248.216
X61.626Y-252.337
X85.151Y-215.465
X95.35Y-219.585
T2
X234.915Y-273.893
X241.799Y-272.244
X233.052Y-218.562
X239.936Y-216.913
X227.798Y-256.276
X234.681Y-254.628
X45.432Y-215.271
X51.528Y-218.867
X77.293Y-237.851
X83.39Y-241.447
X24.079Y-268.121
X30.176Y-271.716
X29.313Y-204.445
X35.41Y-208.041
X43.568Y-270.602
X49.665Y-274.198
X208.308Y-258.758
X215.192Y-257.109
X201.191Y-241.141
X208.074Y-239.493
X194.073Y-223.525
X200.957Y-221.876
X220.68Y-238.66
X227.564Y-237.011
X50.686Y-252.986
X56.783Y-256.582
X84.411Y-220.234
X90.508Y-223.83
X15.078Y-239.678
X21.175Y-243.274
X63.058Y-273.084
X69.155Y-276.68
X64.921Y-217.753
X71.018Y-221.349
X256.288Y-225.352
X263.172Y-223.703
X254.405Y-271.411
X261.288Y-269.762
X38.314Y-232.888
X44.411Y-236.483
X31.196Y-250.504
X37.293Y-254.1
X70.176Y-255.467
X76.272Y-259.063
X240.17Y-236.178
X247.053Y-234.529
X263.405Y-242.968
X270.289Y-241.32
X270.523Y-260.585
X277.407Y-258.936
X247.287Y-253.795
X254.171Y-252.146
X213.563Y-221.043
X220.446Y-219.395
X7.961Y-257.294
X14.058Y-260.89
X249.17Y-207.735
X256.054Y-206.087
X22.196Y-222.061
X28.293Y-225.657
X57.804Y-235.369
X63.9Y-238.965
X215.426Y-276.374
X222.309Y-274.726
T3
X23.148Y-231.452
X26.959Y-235.365
X71.127Y-264.858
X74.939Y-268.77
X72.99Y-209.527
X76.802Y-213.439
X256.378Y-213.829
X261.838Y-213.996
X254.495Y-259.888
X259.955Y-260.055
X46.383Y-224.661
X50.195Y-228.574
X39.266Y-242.278
X43.077Y-246.191
X78.245Y-247.241
X82.056Y-251.154
X240.26Y-224.655
X245.72Y-224.822
X263.495Y-231.446
X268.956Y-231.612
X270.613Y-249.062
X276.073Y-249.229
X247.377Y-242.272
X252.837Y-242.439
X213.653Y-209.521
X219.113Y-209.687
X16.03Y-249.068
X19.842Y-252.981
X249.26Y-196.213
X254.72Y-196.379
X30.265Y-213.835
X34.077Y-217.748
X65.873Y-227.143
X69.684Y-231.056
X215.516Y-264.852
X220.976Y-265.018
X235.005Y-262.37
X240.465Y-262.537
X233.142Y-207.039
X238.602Y-207.206
X227.888Y-244.754
X233.348Y-244.92
X53.501Y-207.045
X57.312Y-210.958
X85.362Y-229.625
X89.174Y-233.537
X32.148Y-259.894
X35.96Y-263.807
X37.383Y-196.219
X41.194Y-200.132
X51.638Y-262.376
X55.449Y-266.289
X208.398Y-247.235
X213.858Y-247.402
X201.281Y-229.619
X206.741Y-229.785
X194.163Y-212.002
X199.623Y-212.169
X220.77Y-227.137
X226.23Y-227.304
X58.755Y-244.76
X62.567Y-248.672
X92.48Y-212.008
X96.292Y-215.921
T4
X20.919Y-236.968
X68.898Y-270.374
X70.761Y-215.043
X258.607Y-219.346
X256.724Y-265.405
X44.154Y-230.178
X37.037Y-247.795
X76.016Y-252.758
X242.489Y-230.172
X265.724Y-236.962
X272.842Y-254.579
X249.606Y-247.789
X215.882Y-215.037
X13.801Y-254.585
X251.489Y-201.729
X28.036Y-219.352
X63.644Y-232.66
X217.745Y-270.368
X237.234Y-267.887
X235.371Y-212.556
X230.117Y-250.27
X51.272Y-212.562
X83.133Y-235.141
X29.919Y-265.411
X35.154Y-201.735
X49.409Y-267.893
X210.627Y-252.752
X203.51Y-235.135
X196.392Y-217.519
X222.999Y-232.654
X56.526Y-250.276
X90.251Y-217.525
T0
M30
