G04 #@! TF.GenerationSoftware,KiCad,Pcbnew,(5.1.4)-1*
G04 #@! TF.CreationDate,2023-11-05T18:19:27-05:00*
G04 #@! TF.ProjectId,ThumbsUp,5468756d-6273-4557-902e-6b696361645f,rev?*
G04 #@! TF.SameCoordinates,Original*
G04 #@! TF.FileFunction,Profile,NP*
%FSLAX46Y46*%
G04 Gerber Fmt 4.6, Leading zero omitted, Abs format (unit mm)*
G04 Created by KiCad (PCBNEW (5.1.4)-1) date 2023-11-05 18:19:27*
%MOMM*%
%LPD*%
G04 APERTURE LIST*
%ADD10C,0.050000*%
G04 APERTURE END LIST*
D10*
X65564161Y-202579413D02*
X64262371Y-203131991D01*
X268374442Y-268894849D02*
X267379803Y-271238072D01*
X31996373Y-190095681D02*
X64262371Y-203131991D01*
X31996373Y-190095681D02*
X29132434Y-191311351D01*
X85053688Y-205061019D02*
X78544735Y-207823906D01*
X2310602Y-257697715D02*
X3526272Y-260561654D01*
X27829948Y-288500360D02*
X28493041Y-290062509D01*
X221089107Y-202579413D02*
X222390897Y-203131991D01*
X284342666Y-257697715D02*
X257520834Y-191311351D01*
X208108533Y-207823906D02*
X221089107Y-202579413D01*
X145036634Y-231904512D02*
X141616634Y-231904512D01*
X17063156Y-266030910D02*
X18278826Y-268894849D01*
X183983087Y-212178545D02*
X181938551Y-216995169D01*
X102670181Y-212178545D02*
X104714717Y-216995169D01*
X19273465Y-271238072D02*
X29194332Y-275246363D01*
X220609281Y-305234076D02*
X176361819Y-338534258D01*
X284342666Y-257697715D02*
X283126996Y-260561654D01*
X78544735Y-207823906D02*
X65564161Y-202579413D01*
X255414400Y-280062987D02*
X258823320Y-288500360D01*
X257458936Y-275246363D02*
X255414400Y-280062987D01*
X131623268Y-227870000D02*
X141616634Y-231904512D01*
X267379803Y-271238072D02*
X257458936Y-275246363D01*
X29194332Y-275246363D02*
X31238868Y-280062987D01*
X269590112Y-266030910D02*
X268374442Y-268894849D01*
X31238868Y-280062987D02*
X27829948Y-288500360D01*
X183983087Y-212178545D02*
X201599580Y-205061019D01*
X254656895Y-190095681D02*
X222390897Y-203131991D01*
X18278826Y-268894849D02*
X19273465Y-271238072D01*
X3526272Y-260561654D02*
X17063156Y-266030910D01*
X66043987Y-305234076D02*
X110291449Y-338534258D01*
X110291449Y-338534258D02*
X176361819Y-338534258D01*
X201599580Y-205061019D02*
X208108533Y-207823906D01*
X155030000Y-227870000D02*
X145036634Y-231904512D01*
X254656895Y-190095681D02*
X257520834Y-191311351D01*
X181938551Y-216995169D02*
X155030000Y-227870000D01*
X104714717Y-216995169D02*
X131623268Y-227870000D01*
X2310602Y-257697715D02*
X29132434Y-191311351D01*
X258823320Y-288500360D02*
X258160227Y-290062509D01*
X258160227Y-290062509D02*
X220609281Y-305234076D01*
X283126996Y-260561654D02*
X269590112Y-266030910D01*
X102670181Y-212178545D02*
X85053688Y-205061019D01*
X28493041Y-290062509D02*
X66043987Y-305234076D01*
M02*
