%FSLAX45Y45*%
G04 Gerber Fmt 4.5, Leading zero omitted, Abs format (unit mm)*
G04 Created by KiCad (PCBNEW (5.1.4)-1) date 2023-10-04 21:41:19*
%MOMM*%
%LPD*%
G04 APERTURE LIST*
%ADD10C,0.050000*%
%ADD11C,0.200000*%
%ADD12C,0.300000*%
G04 APERTURE END LIST*
D10*
X14646000Y-7852000D02*
X15907000Y-7852000D01*
X16127000Y-7632000D02*
X15907000Y-7852000D01*
X14426327Y-7632000D02*
X14646000Y-7852000D01*
X5010515Y-9940312D02*
X4097855Y-10197124D01*
X6252941Y-10442285D02*
X5010515Y-9940312D01*
X8266797Y-10716668D02*
X6903837Y-10165997D01*
X4097855Y-10197124D02*
X4067887Y-10271299D01*
X11415472Y-3964517D02*
X11037952Y-4124764D01*
X11037952Y-4124764D02*
X8400722Y-10652139D01*
X8266797Y-10716668D02*
X8400722Y-10652139D01*
X6903837Y-10165997D02*
X6252941Y-10442285D01*
X16127000Y-5232000D02*
X16447000Y-5052000D01*
X19137855Y-3964517D02*
X16447000Y-5052000D01*
X11415472Y-3964517D02*
X14106327Y-5052000D01*
X14426327Y-5232000D02*
X14106327Y-5052000D01*
X14426327Y-5232000D02*
X14426327Y-7632000D01*
X3793304Y-11271251D02*
X7548399Y-12788408D01*
X4067887Y-10271299D02*
X3726995Y-11115036D01*
X3726995Y-11115036D02*
X3793304Y-11271251D01*
X7548399Y-12788408D02*
X11973145Y-16118426D01*
X26455471Y-10197124D02*
X26485440Y-10271299D01*
X26826332Y-11115036D02*
X26760023Y-11271251D01*
X26760023Y-11271251D02*
X23004928Y-12788408D01*
X24300385Y-10442285D02*
X25542812Y-9940312D01*
X22286530Y-10716668D02*
X22152605Y-10652139D01*
X23004928Y-12788408D02*
X18580182Y-16118426D01*
X22286530Y-10716668D02*
X23649490Y-10165997D01*
X26485440Y-10271299D02*
X26826332Y-11115036D01*
X19515374Y-4124764D02*
X22152605Y-10652139D01*
X19137855Y-3964517D02*
X19515374Y-4124764D01*
X25542812Y-9940312D02*
X26455471Y-10197124D01*
X23649490Y-10165997D02*
X24300385Y-10442285D01*
X11973145Y-16118426D02*
X18580182Y-16118426D01*
X16127000Y-5232000D02*
X16127000Y-7632000D01*
D11*
X18749980Y-11217158D02*
X18920160Y-11387338D01*
X18920160Y-11217158D02*
X18749980Y-11387338D01*
X19769882Y-10805090D02*
X19940062Y-10975270D01*
X19940062Y-10805090D02*
X19769882Y-10975270D01*
X18038227Y-9455508D02*
X18208407Y-9625688D01*
X18208407Y-9455508D02*
X18038227Y-9625688D01*
X19058129Y-9043441D02*
X19228309Y-9213621D01*
X19228309Y-9043441D02*
X19058129Y-9213621D01*
X19837337Y-8836474D02*
X20007517Y-9006654D01*
X20007517Y-8836474D02*
X19837337Y-9006654D01*
X20857239Y-8424407D02*
X21027419Y-8594587D01*
X21027419Y-8424407D02*
X20857239Y-8594587D01*
X16614722Y-5932210D02*
X16784902Y-6102390D01*
X16784902Y-5932210D02*
X16614722Y-6102390D01*
X17634624Y-5520142D02*
X17804804Y-5690322D01*
X17804804Y-5520142D02*
X17634624Y-5690322D01*
X22835188Y-11184428D02*
X23005368Y-11354608D01*
X23005368Y-11184428D02*
X22835188Y-11354608D01*
X23855090Y-10772361D02*
X24025270Y-10942541D01*
X24025270Y-10772361D02*
X23855090Y-10942541D01*
X20549090Y-10598123D02*
X20719270Y-10768303D01*
X20719270Y-10598123D02*
X20549090Y-10768303D01*
X21568992Y-10186056D02*
X21739172Y-10356236D01*
X21739172Y-10186056D02*
X21568992Y-10356236D01*
X10246835Y-6667482D02*
X10417015Y-6837662D01*
X10417015Y-6667482D02*
X10246835Y-6837662D01*
X11266737Y-7079549D02*
X11436917Y-7249729D01*
X11436917Y-7079549D02*
X11266737Y-7249729D01*
X9535082Y-8429131D02*
X9705262Y-8599311D01*
X9705262Y-8429131D02*
X9535082Y-8599311D01*
X10554985Y-8841199D02*
X10725165Y-9011379D01*
X10725165Y-8841199D02*
X10554985Y-9011379D01*
X12035746Y-7282395D02*
X12205926Y-7452575D01*
X12205926Y-7282395D02*
X12035746Y-7452575D01*
X13055648Y-7694463D02*
X13225828Y-7864643D01*
X13225828Y-7694463D02*
X13055648Y-7864643D01*
X12747498Y-5520746D02*
X12917678Y-5690926D01*
X12917678Y-5520746D02*
X12747498Y-5690926D01*
X13767400Y-5932813D02*
X13937580Y-6102993D01*
X13937580Y-5932813D02*
X13767400Y-6102993D01*
X4578080Y-10524804D02*
X4748260Y-10694984D01*
X4748260Y-10524804D02*
X4578080Y-10694984D01*
X5597982Y-10936871D02*
X5768162Y-11107051D01*
X5768162Y-10936871D02*
X5597982Y-11107051D01*
X10612241Y-10805694D02*
X10782421Y-10975874D01*
X10782421Y-10805694D02*
X10612241Y-10975874D01*
X11632143Y-11217761D02*
X11802323Y-11387941D01*
X11802323Y-11217761D02*
X11632143Y-11387941D01*
X10958587Y-4905833D02*
X11128767Y-5076013D01*
X11128767Y-4905833D02*
X10958587Y-5076013D01*
X11978490Y-5317900D02*
X12148670Y-5488080D01*
X12148670Y-5317900D02*
X11978490Y-5488080D01*
X17326475Y-7693859D02*
X17496655Y-7864039D01*
X17496655Y-7693859D02*
X17326475Y-7864039D01*
X18346377Y-7281792D02*
X18516557Y-7451972D01*
X18516557Y-7281792D02*
X18346377Y-7451972D01*
X6527032Y-10772965D02*
X6697212Y-10943145D01*
X6697212Y-10772965D02*
X6527032Y-10943145D01*
X7546934Y-11185032D02*
X7717114Y-11355212D01*
X7717114Y-11185032D02*
X7546934Y-11355212D01*
X11323993Y-9044045D02*
X11494173Y-9214225D01*
X11494173Y-9044045D02*
X11323993Y-9214225D01*
X12343895Y-9456112D02*
X12514075Y-9626292D01*
X12514075Y-9456112D02*
X12343895Y-9626292D01*
X24784141Y-10936268D02*
X24954321Y-11106448D01*
X24954321Y-10936268D02*
X24784141Y-11106448D01*
X25804043Y-10524201D02*
X25974223Y-10694381D01*
X25974223Y-10524201D02*
X25804043Y-10694381D01*
X8813131Y-10186660D02*
X8983311Y-10356840D01*
X8983311Y-10186660D02*
X8813131Y-10356840D01*
X9833033Y-10598727D02*
X10003213Y-10768907D01*
X10003213Y-10598727D02*
X9833033Y-10768907D01*
X18413832Y-5313176D02*
X18584012Y-5483356D01*
X18584012Y-5313176D02*
X18413832Y-5483356D01*
X19433734Y-4901108D02*
X19603914Y-5071288D01*
X19603914Y-4901108D02*
X19433734Y-5071288D01*
X19125585Y-7074825D02*
X19295765Y-7245005D01*
X19295765Y-7074825D02*
X19125585Y-7245005D01*
X20145487Y-6662758D02*
X20315667Y-6832938D01*
X20315667Y-6662758D02*
X20145487Y-6832938D01*
X10388773Y-7190501D02*
G75*
G03X10388773Y-7190501I-147500J0D01*
G01*
X11015045Y-7589134D02*
G75*
G03X11015045Y-7589134I-147500J0D01*
G01*
X9677020Y-8952151D02*
G75*
G03X9677020Y-8952151I-147500J0D01*
G01*
X10303293Y-9350783D02*
G75*
G03X10303293Y-9350783I-147500J0D01*
G01*
X12177683Y-7805415D02*
G75*
G03X12177683Y-7805415I-147500J0D01*
G01*
X12803956Y-8204047D02*
G75*
G03X12803956Y-8204047I-147500J0D01*
G01*
X12889436Y-6043765D02*
G75*
G03X12889436Y-6043765I-147500J0D01*
G01*
X13515708Y-6442398D02*
G75*
G03X13515708Y-6442398I-147500J0D01*
G01*
X4720017Y-11047824D02*
G75*
G03X4720017Y-11047824I-147500J0D01*
G01*
X5346290Y-11446456D02*
G75*
G03X5346290Y-11446456I-147500J0D01*
G01*
X10754179Y-11328713D02*
G75*
G03X10754179Y-11328713I-147500J0D01*
G01*
X11380451Y-11727346D02*
G75*
G03X11380451Y-11727346I-147500J0D01*
G01*
X11100525Y-5428852D02*
G75*
G03X11100525Y-5428852I-147500J0D01*
G01*
X11726797Y-5827485D02*
G75*
G03X11726797Y-5827485I-147500J0D01*
G01*
X17798066Y-8156941D02*
G75*
G03X17798066Y-8156941I-147500J0D01*
G01*
X18525482Y-8008648D02*
G75*
G03X18525482Y-8008648I-147500J0D01*
G01*
X6668970Y-11295984D02*
G75*
G03X6668970Y-11295984I-147500J0D01*
G01*
X7295242Y-11694617D02*
G75*
G03X7295242Y-11694617I-147500J0D01*
G01*
X11465931Y-9567064D02*
G75*
G03X11465931Y-9567064I-147500J0D01*
G01*
X12092203Y-9965697D02*
G75*
G03X12092203Y-9965697I-147500J0D01*
G01*
X25255732Y-11399350D02*
G75*
G03X25255732Y-11399350I-147500J0D01*
G01*
X25983149Y-11251057D02*
G75*
G03X25983149Y-11251057I-147500J0D01*
G01*
X8955069Y-10709679D02*
G75*
G03X8955069Y-10709679I-147500J0D01*
G01*
X9581341Y-11108312D02*
G75*
G03X9581341Y-11108312I-147500J0D01*
G01*
X18885424Y-5776258D02*
G75*
G03X18885424Y-5776258I-147500J0D01*
G01*
X19612840Y-5627965D02*
G75*
G03X19612840Y-5627965I-147500J0D01*
G01*
X19597176Y-7537907D02*
G75*
G03X19597176Y-7537907I-147500J0D01*
G01*
X20324592Y-7389614D02*
G75*
G03X20324592Y-7389614I-147500J0D01*
G01*
X19221571Y-11680240D02*
G75*
G03X19221571Y-11680240I-147500J0D01*
G01*
X19948988Y-11531947D02*
G75*
G03X19948988Y-11531947I-147500J0D01*
G01*
X18509819Y-9918591D02*
G75*
G03X18509819Y-9918591I-147500J0D01*
G01*
X19237235Y-9770298D02*
G75*
G03X19237235Y-9770298I-147500J0D01*
G01*
X20308929Y-9299557D02*
G75*
G03X20308929Y-9299557I-147500J0D01*
G01*
X21036345Y-9151264D02*
G75*
G03X21036345Y-9151264I-147500J0D01*
G01*
X17086314Y-6395292D02*
G75*
G03X17086314Y-6395292I-147500J0D01*
G01*
X17813730Y-6246999D02*
G75*
G03X17813730Y-6246999I-147500J0D01*
G01*
X23306780Y-11647511D02*
G75*
G03X23306780Y-11647511I-147500J0D01*
G01*
X24034196Y-11499218D02*
G75*
G03X24034196Y-11499218I-147500J0D01*
G01*
X21020681Y-11061206D02*
G75*
G03X21020681Y-11061206I-147500J0D01*
G01*
X21748098Y-10912913D02*
G75*
G03X21748098Y-10912913I-147500J0D01*
G01*
X18410377Y-8632890D02*
X18410377Y-8932890D01*
X18260377Y-8782890D02*
X18560377Y-8782890D01*
X18956383Y-8649567D02*
X18956383Y-8949567D01*
X18806383Y-8799567D02*
X19106383Y-8799567D01*
X20209487Y-8013856D02*
X20209487Y-8313856D01*
X20059487Y-8163856D02*
X20359487Y-8163856D01*
X20755493Y-8030533D02*
X20755493Y-8330533D01*
X20605493Y-8180533D02*
X20905493Y-8180533D01*
X16986872Y-5109592D02*
X16986872Y-5409592D01*
X16836872Y-5259592D02*
X17136872Y-5259592D01*
X17532878Y-5126269D02*
X17532878Y-5426269D01*
X17382878Y-5276269D02*
X17682878Y-5276269D01*
X23207338Y-10361810D02*
X23207338Y-10661810D01*
X23057338Y-10511810D02*
X23357338Y-10511810D01*
X23753344Y-10378488D02*
X23753344Y-10678488D01*
X23603344Y-10528488D02*
X23903344Y-10528488D01*
X20921240Y-9775505D02*
X20921240Y-10075505D01*
X20771240Y-9925505D02*
X21071240Y-9925505D01*
X21467245Y-9792183D02*
X21467245Y-10092183D01*
X21317245Y-9942183D02*
X21617245Y-9942183D01*
X11064767Y-6256931D02*
X11064767Y-6556931D01*
X10914767Y-6406931D02*
X11214767Y-6406931D01*
X11445945Y-6648215D02*
X11445945Y-6948215D01*
X11295945Y-6798215D02*
X11595945Y-6798215D01*
X10353014Y-8018580D02*
X10353014Y-8318580D01*
X10203014Y-8168580D02*
X10503014Y-8168580D01*
X10734193Y-8409864D02*
X10734193Y-8709864D01*
X10584193Y-8559864D02*
X10884193Y-8559864D01*
X12853678Y-6871845D02*
X12853678Y-7171845D01*
X12703678Y-7021845D02*
X13003678Y-7021845D01*
X13234856Y-7263128D02*
X13234856Y-7563128D01*
X13084856Y-7413128D02*
X13384856Y-7413128D01*
X13565430Y-5110195D02*
X13565430Y-5410195D01*
X13415430Y-5260195D02*
X13715430Y-5260195D01*
X13946609Y-5501479D02*
X13946609Y-5801479D01*
X13796609Y-5651479D02*
X14096609Y-5651479D01*
X5396012Y-10114253D02*
X5396012Y-10414253D01*
X5246012Y-10264253D02*
X5546012Y-10264253D01*
X5777190Y-10505537D02*
X5777190Y-10805537D01*
X5627190Y-10655537D02*
X5927190Y-10655537D01*
X11430173Y-10395143D02*
X11430173Y-10695143D01*
X11280173Y-10545143D02*
X11580173Y-10545143D01*
X11811351Y-10786427D02*
X11811351Y-11086427D01*
X11661351Y-10936427D02*
X11961351Y-10936427D01*
X11776519Y-4495282D02*
X11776519Y-4795282D01*
X11626519Y-4645282D02*
X11926519Y-4645282D01*
X12157698Y-4886566D02*
X12157698Y-5186566D01*
X12007698Y-5036566D02*
X12307698Y-5036566D01*
X17698625Y-6871241D02*
X17698625Y-7171241D01*
X17548625Y-7021241D02*
X17848625Y-7021241D01*
X18244630Y-6887918D02*
X18244630Y-7187918D01*
X18094630Y-7037918D02*
X18394630Y-7037918D01*
X7344964Y-10362414D02*
X7344964Y-10662414D01*
X7194964Y-10512414D02*
X7494964Y-10512414D01*
X7726143Y-10753698D02*
X7726143Y-11053698D01*
X7576143Y-10903698D02*
X7876143Y-10903698D01*
X12141925Y-8633494D02*
X12141925Y-8933494D01*
X11991925Y-8783494D02*
X12291925Y-8783494D01*
X12523104Y-9024778D02*
X12523104Y-9324778D01*
X12373104Y-9174778D02*
X12673104Y-9174778D01*
X25156291Y-10113650D02*
X25156291Y-10413650D01*
X25006291Y-10263650D02*
X25306291Y-10263650D01*
X25702296Y-10130327D02*
X25702296Y-10430327D01*
X25552296Y-10280327D02*
X25852296Y-10280327D01*
X9631063Y-9776109D02*
X9631063Y-10076109D01*
X9481063Y-9926109D02*
X9781063Y-9926109D01*
X10012241Y-10167393D02*
X10012241Y-10467393D01*
X9862241Y-10317393D02*
X10162241Y-10317393D01*
X18785982Y-4490558D02*
X18785982Y-4790558D01*
X18635982Y-4640558D02*
X18935982Y-4640558D01*
X19331988Y-4507235D02*
X19331988Y-4807235D01*
X19181988Y-4657235D02*
X19481988Y-4657235D01*
X19497735Y-6252207D02*
X19497735Y-6552207D01*
X19347735Y-6402207D02*
X19647735Y-6402207D01*
X20043740Y-6268884D02*
X20043740Y-6568884D01*
X19893740Y-6418884D02*
X20193740Y-6418884D01*
X19122130Y-10394540D02*
X19122130Y-10694540D01*
X18972130Y-10544540D02*
X19272130Y-10544540D01*
X19668135Y-10411217D02*
X19668135Y-10711217D01*
X19518135Y-10561217D02*
X19818135Y-10561217D01*
X20610925Y-8894077D02*
X20610925Y-8536984D01*
X20253832Y-8536984D01*
X20253832Y-8894077D01*
X20610925Y-8894077D01*
X17388310Y-5989812D02*
X17388310Y-5632720D01*
X17031217Y-5632720D01*
X17031217Y-5989812D01*
X17388310Y-5989812D01*
X23608776Y-11242031D02*
X23608776Y-10884939D01*
X23251683Y-10884939D01*
X23251683Y-11242031D01*
X23608776Y-11242031D01*
X21322677Y-10655726D02*
X21322677Y-10298634D01*
X20965585Y-10298634D01*
X20965585Y-10655726D01*
X21322677Y-10655726D01*
X11020422Y-7137152D02*
X11020422Y-6780059D01*
X10663330Y-6780059D01*
X10663330Y-7137152D01*
X11020422Y-7137152D01*
X10308670Y-8898801D02*
X10308670Y-8541709D01*
X9951577Y-8541709D01*
X9951577Y-8898801D01*
X10308670Y-8898801D01*
X12809333Y-7752065D02*
X12809333Y-7394973D01*
X12452241Y-7394973D01*
X12452241Y-7752065D01*
X12809333Y-7752065D01*
X13521086Y-5990416D02*
X13521086Y-5633323D01*
X13163993Y-5633323D01*
X13163993Y-5990416D01*
X13521086Y-5990416D01*
X5351667Y-10994474D02*
X5351667Y-10637382D01*
X4994574Y-10637382D01*
X4994574Y-10994474D01*
X5351667Y-10994474D01*
X11385828Y-11275364D02*
X11385828Y-10918271D01*
X11028736Y-10918271D01*
X11028736Y-11275364D01*
X11385828Y-11275364D01*
X11732175Y-5375502D02*
X11732175Y-5018410D01*
X11375082Y-5018410D01*
X11375082Y-5375502D01*
X11732175Y-5375502D01*
X18100062Y-7751461D02*
X18100062Y-7394369D01*
X17742970Y-7394369D01*
X17742970Y-7751461D01*
X18100062Y-7751461D01*
X7300619Y-11242634D02*
X7300619Y-10885542D01*
X6943527Y-10885542D01*
X6943527Y-11242634D01*
X7300619Y-11242634D01*
X12097580Y-9513715D02*
X12097580Y-9156622D01*
X11740488Y-9156622D01*
X11740488Y-9513715D01*
X12097580Y-9513715D01*
X25557728Y-10993870D02*
X25557728Y-10636778D01*
X25200636Y-10636778D01*
X25200636Y-10993870D01*
X25557728Y-10993870D01*
X9586718Y-10656330D02*
X9586718Y-10299237D01*
X9229626Y-10299237D01*
X9229626Y-10656330D01*
X9586718Y-10656330D01*
X19187420Y-5370778D02*
X19187420Y-5013686D01*
X18830327Y-5013686D01*
X18830327Y-5370778D01*
X19187420Y-5370778D01*
X19899172Y-7132427D02*
X19899172Y-6775335D01*
X19542080Y-6775335D01*
X19542080Y-7132427D01*
X19899172Y-7132427D01*
X19523567Y-11274760D02*
X19523567Y-10917668D01*
X19166475Y-10917668D01*
X19166475Y-11274760D01*
X19523567Y-11274760D01*
X18811815Y-9513111D02*
X18811815Y-9156018D01*
X18454722Y-9156018D01*
X18454722Y-9513111D01*
X18811815Y-9513111D01*
D12*
X4010923Y-16586640D02*
X4010923Y-16286640D01*
X4082352Y-16286640D01*
X4125209Y-16300926D01*
X4153780Y-16329497D01*
X4168066Y-16358069D01*
X4182352Y-16415212D01*
X4182352Y-16458069D01*
X4168066Y-16515212D01*
X4153780Y-16543783D01*
X4125209Y-16572354D01*
X4082352Y-16586640D01*
X4010923Y-16586640D01*
X4310923Y-16586640D02*
X4310923Y-16386640D01*
X4310923Y-16443783D02*
X4325209Y-16415212D01*
X4339495Y-16400926D01*
X4368066Y-16386640D01*
X4396638Y-16386640D01*
X4496638Y-16586640D02*
X4496638Y-16386640D01*
X4496638Y-16286640D02*
X4482352Y-16300926D01*
X4496638Y-16315212D01*
X4510923Y-16300926D01*
X4496638Y-16286640D01*
X4496638Y-16315212D01*
X4682352Y-16586640D02*
X4653780Y-16572354D01*
X4639495Y-16543783D01*
X4639495Y-16286640D01*
X4839495Y-16586640D02*
X4810923Y-16572354D01*
X4796638Y-16543783D01*
X4796638Y-16286640D01*
X5182352Y-16586640D02*
X5182352Y-16286640D01*
X5282352Y-16500926D01*
X5382352Y-16286640D01*
X5382352Y-16586640D01*
X5653780Y-16586640D02*
X5653780Y-16429497D01*
X5639495Y-16400926D01*
X5610923Y-16386640D01*
X5553780Y-16386640D01*
X5525209Y-16400926D01*
X5653780Y-16572354D02*
X5625209Y-16586640D01*
X5553780Y-16586640D01*
X5525209Y-16572354D01*
X5510923Y-16543783D01*
X5510923Y-16515212D01*
X5525209Y-16486640D01*
X5553780Y-16472354D01*
X5625209Y-16472354D01*
X5653780Y-16458069D01*
X5796637Y-16386640D02*
X5796637Y-16686640D01*
X5796637Y-16400926D02*
X5825209Y-16386640D01*
X5882352Y-16386640D01*
X5910923Y-16400926D01*
X5925209Y-16415212D01*
X5939495Y-16443783D01*
X5939495Y-16529497D01*
X5925209Y-16558069D01*
X5910923Y-16572354D01*
X5882352Y-16586640D01*
X5825209Y-16586640D01*
X5796637Y-16572354D01*
X6068066Y-16558069D02*
X6082352Y-16572354D01*
X6068066Y-16586640D01*
X6053780Y-16572354D01*
X6068066Y-16558069D01*
X6068066Y-16586640D01*
X6068066Y-16400926D02*
X6082352Y-16415212D01*
X6068066Y-16429497D01*
X6053780Y-16415212D01*
X6068066Y-16400926D01*
X6068066Y-16429497D01*
X3554315Y-16995836D02*
X3724495Y-17166016D01*
X3724495Y-16995836D02*
X3554315Y-17166016D01*
X4168066Y-17216640D02*
X3996637Y-17216640D01*
X4082352Y-17216640D02*
X4082352Y-16916640D01*
X4053780Y-16959497D01*
X4025209Y-16988069D01*
X3996637Y-17002354D01*
X4296638Y-17188069D02*
X4310923Y-17202354D01*
X4296638Y-17216640D01*
X4282352Y-17202354D01*
X4296638Y-17188069D01*
X4296638Y-17216640D01*
X4410923Y-16916640D02*
X4610923Y-16916640D01*
X4482352Y-17216640D01*
X4782352Y-16916640D02*
X4810923Y-16916640D01*
X4839495Y-16930926D01*
X4853780Y-16945212D01*
X4868066Y-16973783D01*
X4882352Y-17030926D01*
X4882352Y-17102354D01*
X4868066Y-17159497D01*
X4853780Y-17188069D01*
X4839495Y-17202354D01*
X4810923Y-17216640D01*
X4782352Y-17216640D01*
X4753780Y-17202354D01*
X4739495Y-17188069D01*
X4725209Y-17159497D01*
X4710923Y-17102354D01*
X4710923Y-17030926D01*
X4725209Y-16973783D01*
X4739495Y-16945212D01*
X4753780Y-16930926D01*
X4782352Y-16916640D01*
X5010923Y-17216640D02*
X5010923Y-17016640D01*
X5010923Y-17045212D02*
X5025209Y-17030926D01*
X5053780Y-17016640D01*
X5096638Y-17016640D01*
X5125209Y-17030926D01*
X5139495Y-17059497D01*
X5139495Y-17216640D01*
X5139495Y-17059497D02*
X5153780Y-17030926D01*
X5182352Y-17016640D01*
X5225209Y-17016640D01*
X5253780Y-17030926D01*
X5268066Y-17059497D01*
X5268066Y-17216640D01*
X5410923Y-17216640D02*
X5410923Y-17016640D01*
X5410923Y-17045212D02*
X5425209Y-17030926D01*
X5453780Y-17016640D01*
X5496638Y-17016640D01*
X5525209Y-17030926D01*
X5539495Y-17059497D01*
X5539495Y-17216640D01*
X5539495Y-17059497D02*
X5553780Y-17030926D01*
X5582352Y-17016640D01*
X5625209Y-17016640D01*
X5653780Y-17030926D01*
X5668066Y-17059497D01*
X5668066Y-17216640D01*
X6253780Y-16902354D02*
X5996637Y-17288069D01*
X6639495Y-16916640D02*
X6668066Y-16916640D01*
X6696637Y-16930926D01*
X6710923Y-16945212D01*
X6725209Y-16973783D01*
X6739495Y-17030926D01*
X6739495Y-17102354D01*
X6725209Y-17159497D01*
X6710923Y-17188069D01*
X6696637Y-17202354D01*
X6668066Y-17216640D01*
X6639495Y-17216640D01*
X6610923Y-17202354D01*
X6596637Y-17188069D01*
X6582352Y-17159497D01*
X6568066Y-17102354D01*
X6568066Y-17030926D01*
X6582352Y-16973783D01*
X6596637Y-16945212D01*
X6610923Y-16930926D01*
X6639495Y-16916640D01*
X6868066Y-17188069D02*
X6882352Y-17202354D01*
X6868066Y-17216640D01*
X6853780Y-17202354D01*
X6868066Y-17188069D01*
X6868066Y-17216640D01*
X7068066Y-16916640D02*
X7096637Y-16916640D01*
X7125209Y-16930926D01*
X7139495Y-16945212D01*
X7153780Y-16973783D01*
X7168066Y-17030926D01*
X7168066Y-17102354D01*
X7153780Y-17159497D01*
X7139495Y-17188069D01*
X7125209Y-17202354D01*
X7096637Y-17216640D01*
X7068066Y-17216640D01*
X7039495Y-17202354D01*
X7025209Y-17188069D01*
X7010923Y-17159497D01*
X6996637Y-17102354D01*
X6996637Y-17030926D01*
X7010923Y-16973783D01*
X7025209Y-16945212D01*
X7039495Y-16930926D01*
X7068066Y-16916640D01*
X7425209Y-16916640D02*
X7368066Y-16916640D01*
X7339495Y-16930926D01*
X7325209Y-16945212D01*
X7296637Y-16988069D01*
X7282352Y-17045212D01*
X7282352Y-17159497D01*
X7296637Y-17188069D01*
X7310923Y-17202354D01*
X7339495Y-17216640D01*
X7396637Y-17216640D01*
X7425209Y-17202354D01*
X7439495Y-17188069D01*
X7453780Y-17159497D01*
X7453780Y-17088069D01*
X7439495Y-17059497D01*
X7425209Y-17045212D01*
X7396637Y-17030926D01*
X7339495Y-17030926D01*
X7310923Y-17045212D01*
X7296637Y-17059497D01*
X7282352Y-17088069D01*
X7553780Y-16916640D02*
X7753780Y-16916640D01*
X7625209Y-17216640D01*
X7853780Y-16916640D02*
X7853780Y-16973783D01*
X7968066Y-16916640D02*
X7968066Y-16973783D01*
X8410923Y-17330926D02*
X8396638Y-17316640D01*
X8368066Y-17273783D01*
X8353780Y-17245212D01*
X8339495Y-17202354D01*
X8325209Y-17130926D01*
X8325209Y-17073783D01*
X8339495Y-17002354D01*
X8353780Y-16959497D01*
X8368066Y-16930926D01*
X8396638Y-16888069D01*
X8410923Y-16873783D01*
X8653780Y-17016640D02*
X8653780Y-17216640D01*
X8582352Y-16902354D02*
X8510923Y-17116640D01*
X8696638Y-17116640D01*
X8868066Y-16916640D02*
X8896638Y-16916640D01*
X8925209Y-16930926D01*
X8939495Y-16945212D01*
X8953780Y-16973783D01*
X8968066Y-17030926D01*
X8968066Y-17102354D01*
X8953780Y-17159497D01*
X8939495Y-17188069D01*
X8925209Y-17202354D01*
X8896638Y-17216640D01*
X8868066Y-17216640D01*
X8839495Y-17202354D01*
X8825209Y-17188069D01*
X8810923Y-17159497D01*
X8796638Y-17102354D01*
X8796638Y-17030926D01*
X8810923Y-16973783D01*
X8825209Y-16945212D01*
X8839495Y-16930926D01*
X8868066Y-16916640D01*
X9325209Y-17216640D02*
X9325209Y-16916640D01*
X9453780Y-17216640D02*
X9453780Y-17059497D01*
X9439495Y-17030926D01*
X9410923Y-17016640D01*
X9368066Y-17016640D01*
X9339495Y-17030926D01*
X9325209Y-17045212D01*
X9639495Y-17216640D02*
X9610923Y-17202354D01*
X9596638Y-17188069D01*
X9582352Y-17159497D01*
X9582352Y-17073783D01*
X9596638Y-17045212D01*
X9610923Y-17030926D01*
X9639495Y-17016640D01*
X9682352Y-17016640D01*
X9710923Y-17030926D01*
X9725209Y-17045212D01*
X9739495Y-17073783D01*
X9739495Y-17159497D01*
X9725209Y-17188069D01*
X9710923Y-17202354D01*
X9682352Y-17216640D01*
X9639495Y-17216640D01*
X9910923Y-17216640D02*
X9882352Y-17202354D01*
X9868066Y-17173783D01*
X9868066Y-16916640D01*
X10139495Y-17202354D02*
X10110923Y-17216640D01*
X10053780Y-17216640D01*
X10025209Y-17202354D01*
X10010923Y-17173783D01*
X10010923Y-17059497D01*
X10025209Y-17030926D01*
X10053780Y-17016640D01*
X10110923Y-17016640D01*
X10139495Y-17030926D01*
X10153780Y-17059497D01*
X10153780Y-17088069D01*
X10010923Y-17116640D01*
X10268066Y-17202354D02*
X10296638Y-17216640D01*
X10353780Y-17216640D01*
X10382352Y-17202354D01*
X10396638Y-17173783D01*
X10396638Y-17159497D01*
X10382352Y-17130926D01*
X10353780Y-17116640D01*
X10310923Y-17116640D01*
X10282352Y-17102354D01*
X10268066Y-17073783D01*
X10268066Y-17059497D01*
X10282352Y-17030926D01*
X10310923Y-17016640D01*
X10353780Y-17016640D01*
X10382352Y-17030926D01*
X10496638Y-17330926D02*
X10510923Y-17316640D01*
X10539495Y-17273783D01*
X10553780Y-17245212D01*
X10568066Y-17202354D01*
X10582352Y-17130926D01*
X10582352Y-17073783D01*
X10568066Y-17002354D01*
X10553780Y-16959497D01*
X10539495Y-16930926D01*
X10510923Y-16888069D01*
X10496638Y-16873783D01*
X11039495Y-17330926D02*
X11025209Y-17316640D01*
X10996638Y-17273783D01*
X10982352Y-17245212D01*
X10968066Y-17202354D01*
X10953780Y-17130926D01*
X10953780Y-17073783D01*
X10968066Y-17002354D01*
X10982352Y-16959497D01*
X10996638Y-16930926D01*
X11025209Y-16888069D01*
X11039495Y-16873783D01*
X11153780Y-17016640D02*
X11153780Y-17216640D01*
X11153780Y-17045212D02*
X11168066Y-17030926D01*
X11196637Y-17016640D01*
X11239495Y-17016640D01*
X11268066Y-17030926D01*
X11282352Y-17059497D01*
X11282352Y-17216640D01*
X11468066Y-17216640D02*
X11439495Y-17202354D01*
X11425209Y-17188069D01*
X11410923Y-17159497D01*
X11410923Y-17073783D01*
X11425209Y-17045212D01*
X11439495Y-17030926D01*
X11468066Y-17016640D01*
X11510923Y-17016640D01*
X11539495Y-17030926D01*
X11553780Y-17045212D01*
X11568066Y-17073783D01*
X11568066Y-17159497D01*
X11553780Y-17188069D01*
X11539495Y-17202354D01*
X11510923Y-17216640D01*
X11468066Y-17216640D01*
X11653780Y-17016640D02*
X11768066Y-17016640D01*
X11696637Y-16916640D02*
X11696637Y-17173783D01*
X11710923Y-17202354D01*
X11739495Y-17216640D01*
X11768066Y-17216640D01*
X12096637Y-17016640D02*
X12096637Y-17316640D01*
X12096637Y-17030926D02*
X12125209Y-17016640D01*
X12182352Y-17016640D01*
X12210923Y-17030926D01*
X12225209Y-17045212D01*
X12239495Y-17073783D01*
X12239495Y-17159497D01*
X12225209Y-17188069D01*
X12210923Y-17202354D01*
X12182352Y-17216640D01*
X12125209Y-17216640D01*
X12096637Y-17202354D01*
X12410923Y-17216640D02*
X12382352Y-17202354D01*
X12368066Y-17173783D01*
X12368066Y-16916640D01*
X12653780Y-17216640D02*
X12653780Y-17059497D01*
X12639495Y-17030926D01*
X12610923Y-17016640D01*
X12553780Y-17016640D01*
X12525209Y-17030926D01*
X12653780Y-17202354D02*
X12625209Y-17216640D01*
X12553780Y-17216640D01*
X12525209Y-17202354D01*
X12510923Y-17173783D01*
X12510923Y-17145212D01*
X12525209Y-17116640D01*
X12553780Y-17102354D01*
X12625209Y-17102354D01*
X12653780Y-17088069D01*
X12753780Y-17016640D02*
X12868066Y-17016640D01*
X12796637Y-16916640D02*
X12796637Y-17173783D01*
X12810923Y-17202354D01*
X12839495Y-17216640D01*
X12868066Y-17216640D01*
X13082352Y-17202354D02*
X13053780Y-17216640D01*
X12996637Y-17216640D01*
X12968066Y-17202354D01*
X12953780Y-17173783D01*
X12953780Y-17059497D01*
X12968066Y-17030926D01*
X12996637Y-17016640D01*
X13053780Y-17016640D01*
X13082352Y-17030926D01*
X13096637Y-17059497D01*
X13096637Y-17088069D01*
X12953780Y-17116640D01*
X13353780Y-17216640D02*
X13353780Y-16916640D01*
X13353780Y-17202354D02*
X13325209Y-17216640D01*
X13268066Y-17216640D01*
X13239495Y-17202354D01*
X13225209Y-17188069D01*
X13210923Y-17159497D01*
X13210923Y-17073783D01*
X13225209Y-17045212D01*
X13239495Y-17030926D01*
X13268066Y-17016640D01*
X13325209Y-17016640D01*
X13353780Y-17030926D01*
X13468066Y-17330926D02*
X13482352Y-17316640D01*
X13510923Y-17273783D01*
X13525209Y-17245212D01*
X13539495Y-17202354D01*
X13553780Y-17130926D01*
X13553780Y-17073783D01*
X13539495Y-17002354D01*
X13525209Y-16959497D01*
X13510923Y-16930926D01*
X13482352Y-16888069D01*
X13468066Y-16873783D01*
X3724495Y-17476926D02*
G75*
G03X3724495Y-17476926I-147500J0D01*
G01*
X3996637Y-17341212D02*
X4010923Y-17326926D01*
X4039495Y-17312640D01*
X4110923Y-17312640D01*
X4139495Y-17326926D01*
X4153780Y-17341212D01*
X4168066Y-17369783D01*
X4168066Y-17398354D01*
X4153780Y-17441212D01*
X3982352Y-17612640D01*
X4168066Y-17612640D01*
X4296638Y-17584069D02*
X4310923Y-17598354D01*
X4296638Y-17612640D01*
X4282352Y-17598354D01*
X4296638Y-17584069D01*
X4296638Y-17612640D01*
X4453780Y-17612640D02*
X4510923Y-17612640D01*
X4539495Y-17598354D01*
X4553780Y-17584069D01*
X4582352Y-17541212D01*
X4596638Y-17484069D01*
X4596638Y-17369783D01*
X4582352Y-17341212D01*
X4568066Y-17326926D01*
X4539495Y-17312640D01*
X4482352Y-17312640D01*
X4453780Y-17326926D01*
X4439495Y-17341212D01*
X4425209Y-17369783D01*
X4425209Y-17441212D01*
X4439495Y-17469783D01*
X4453780Y-17484069D01*
X4482352Y-17498354D01*
X4539495Y-17498354D01*
X4568066Y-17484069D01*
X4582352Y-17469783D01*
X4596638Y-17441212D01*
X4868066Y-17312640D02*
X4725209Y-17312640D01*
X4710923Y-17455497D01*
X4725209Y-17441212D01*
X4753780Y-17426926D01*
X4825209Y-17426926D01*
X4853780Y-17441212D01*
X4868066Y-17455497D01*
X4882352Y-17484069D01*
X4882352Y-17555497D01*
X4868066Y-17584069D01*
X4853780Y-17598354D01*
X4825209Y-17612640D01*
X4753780Y-17612640D01*
X4725209Y-17598354D01*
X4710923Y-17584069D01*
X5010923Y-17612640D02*
X5010923Y-17412640D01*
X5010923Y-17441212D02*
X5025209Y-17426926D01*
X5053780Y-17412640D01*
X5096638Y-17412640D01*
X5125209Y-17426926D01*
X5139495Y-17455497D01*
X5139495Y-17612640D01*
X5139495Y-17455497D02*
X5153780Y-17426926D01*
X5182352Y-17412640D01*
X5225209Y-17412640D01*
X5253780Y-17426926D01*
X5268066Y-17455497D01*
X5268066Y-17612640D01*
X5410923Y-17612640D02*
X5410923Y-17412640D01*
X5410923Y-17441212D02*
X5425209Y-17426926D01*
X5453780Y-17412640D01*
X5496638Y-17412640D01*
X5525209Y-17426926D01*
X5539495Y-17455497D01*
X5539495Y-17612640D01*
X5539495Y-17455497D02*
X5553780Y-17426926D01*
X5582352Y-17412640D01*
X5625209Y-17412640D01*
X5653780Y-17426926D01*
X5668066Y-17455497D01*
X5668066Y-17612640D01*
X6253780Y-17298354D02*
X5996637Y-17684069D01*
X6639495Y-17312640D02*
X6668066Y-17312640D01*
X6696637Y-17326926D01*
X6710923Y-17341212D01*
X6725209Y-17369783D01*
X6739495Y-17426926D01*
X6739495Y-17498354D01*
X6725209Y-17555497D01*
X6710923Y-17584069D01*
X6696637Y-17598354D01*
X6668066Y-17612640D01*
X6639495Y-17612640D01*
X6610923Y-17598354D01*
X6596637Y-17584069D01*
X6582352Y-17555497D01*
X6568066Y-17498354D01*
X6568066Y-17426926D01*
X6582352Y-17369783D01*
X6596637Y-17341212D01*
X6610923Y-17326926D01*
X6639495Y-17312640D01*
X6868066Y-17584069D02*
X6882352Y-17598354D01*
X6868066Y-17612640D01*
X6853780Y-17598354D01*
X6868066Y-17584069D01*
X6868066Y-17612640D01*
X7168066Y-17612640D02*
X6996637Y-17612640D01*
X7082352Y-17612640D02*
X7082352Y-17312640D01*
X7053780Y-17355497D01*
X7025209Y-17384069D01*
X6996637Y-17398354D01*
X7453780Y-17612640D02*
X7282352Y-17612640D01*
X7368066Y-17612640D02*
X7368066Y-17312640D01*
X7339495Y-17355497D01*
X7310923Y-17384069D01*
X7282352Y-17398354D01*
X7710923Y-17312640D02*
X7653780Y-17312640D01*
X7625209Y-17326926D01*
X7610923Y-17341212D01*
X7582352Y-17384069D01*
X7568066Y-17441212D01*
X7568066Y-17555497D01*
X7582352Y-17584069D01*
X7596637Y-17598354D01*
X7625209Y-17612640D01*
X7682352Y-17612640D01*
X7710923Y-17598354D01*
X7725209Y-17584069D01*
X7739495Y-17555497D01*
X7739495Y-17484069D01*
X7725209Y-17455497D01*
X7710923Y-17441212D01*
X7682352Y-17426926D01*
X7625209Y-17426926D01*
X7596637Y-17441212D01*
X7582352Y-17455497D01*
X7568066Y-17484069D01*
X7853780Y-17312640D02*
X7853780Y-17369783D01*
X7968066Y-17312640D02*
X7968066Y-17369783D01*
X8410923Y-17726926D02*
X8396638Y-17712640D01*
X8368066Y-17669783D01*
X8353780Y-17641212D01*
X8339495Y-17598354D01*
X8325209Y-17526926D01*
X8325209Y-17469783D01*
X8339495Y-17398354D01*
X8353780Y-17355497D01*
X8368066Y-17326926D01*
X8396638Y-17284069D01*
X8410923Y-17269783D01*
X8653780Y-17412640D02*
X8653780Y-17612640D01*
X8582352Y-17298354D02*
X8510923Y-17512640D01*
X8696638Y-17512640D01*
X8868066Y-17312640D02*
X8896638Y-17312640D01*
X8925209Y-17326926D01*
X8939495Y-17341212D01*
X8953780Y-17369783D01*
X8968066Y-17426926D01*
X8968066Y-17498354D01*
X8953780Y-17555497D01*
X8939495Y-17584069D01*
X8925209Y-17598354D01*
X8896638Y-17612640D01*
X8868066Y-17612640D01*
X8839495Y-17598354D01*
X8825209Y-17584069D01*
X8810923Y-17555497D01*
X8796638Y-17498354D01*
X8796638Y-17426926D01*
X8810923Y-17369783D01*
X8825209Y-17341212D01*
X8839495Y-17326926D01*
X8868066Y-17312640D01*
X9325209Y-17612640D02*
X9325209Y-17312640D01*
X9453780Y-17612640D02*
X9453780Y-17455497D01*
X9439495Y-17426926D01*
X9410923Y-17412640D01*
X9368066Y-17412640D01*
X9339495Y-17426926D01*
X9325209Y-17441212D01*
X9639495Y-17612640D02*
X9610923Y-17598354D01*
X9596638Y-17584069D01*
X9582352Y-17555497D01*
X9582352Y-17469783D01*
X9596638Y-17441212D01*
X9610923Y-17426926D01*
X9639495Y-17412640D01*
X9682352Y-17412640D01*
X9710923Y-17426926D01*
X9725209Y-17441212D01*
X9739495Y-17469783D01*
X9739495Y-17555497D01*
X9725209Y-17584069D01*
X9710923Y-17598354D01*
X9682352Y-17612640D01*
X9639495Y-17612640D01*
X9910923Y-17612640D02*
X9882352Y-17598354D01*
X9868066Y-17569783D01*
X9868066Y-17312640D01*
X10139495Y-17598354D02*
X10110923Y-17612640D01*
X10053780Y-17612640D01*
X10025209Y-17598354D01*
X10010923Y-17569783D01*
X10010923Y-17455497D01*
X10025209Y-17426926D01*
X10053780Y-17412640D01*
X10110923Y-17412640D01*
X10139495Y-17426926D01*
X10153780Y-17455497D01*
X10153780Y-17484069D01*
X10010923Y-17512640D01*
X10268066Y-17598354D02*
X10296638Y-17612640D01*
X10353780Y-17612640D01*
X10382352Y-17598354D01*
X10396638Y-17569783D01*
X10396638Y-17555497D01*
X10382352Y-17526926D01*
X10353780Y-17512640D01*
X10310923Y-17512640D01*
X10282352Y-17498354D01*
X10268066Y-17469783D01*
X10268066Y-17455497D01*
X10282352Y-17426926D01*
X10310923Y-17412640D01*
X10353780Y-17412640D01*
X10382352Y-17426926D01*
X10496638Y-17726926D02*
X10510923Y-17712640D01*
X10539495Y-17669783D01*
X10553780Y-17641212D01*
X10568066Y-17598354D01*
X10582352Y-17526926D01*
X10582352Y-17469783D01*
X10568066Y-17398354D01*
X10553780Y-17355497D01*
X10539495Y-17326926D01*
X10510923Y-17284069D01*
X10496638Y-17269783D01*
X11039495Y-17726926D02*
X11025209Y-17712640D01*
X10996638Y-17669783D01*
X10982352Y-17641212D01*
X10968066Y-17598354D01*
X10953780Y-17526926D01*
X10953780Y-17469783D01*
X10968066Y-17398354D01*
X10982352Y-17355497D01*
X10996638Y-17326926D01*
X11025209Y-17284069D01*
X11039495Y-17269783D01*
X11153780Y-17412640D02*
X11153780Y-17612640D01*
X11153780Y-17441212D02*
X11168066Y-17426926D01*
X11196637Y-17412640D01*
X11239495Y-17412640D01*
X11268066Y-17426926D01*
X11282352Y-17455497D01*
X11282352Y-17612640D01*
X11468066Y-17612640D02*
X11439495Y-17598354D01*
X11425209Y-17584069D01*
X11410923Y-17555497D01*
X11410923Y-17469783D01*
X11425209Y-17441212D01*
X11439495Y-17426926D01*
X11468066Y-17412640D01*
X11510923Y-17412640D01*
X11539495Y-17426926D01*
X11553780Y-17441212D01*
X11568066Y-17469783D01*
X11568066Y-17555497D01*
X11553780Y-17584069D01*
X11539495Y-17598354D01*
X11510923Y-17612640D01*
X11468066Y-17612640D01*
X11653780Y-17412640D02*
X11768066Y-17412640D01*
X11696637Y-17312640D02*
X11696637Y-17569783D01*
X11710923Y-17598354D01*
X11739495Y-17612640D01*
X11768066Y-17612640D01*
X12096637Y-17412640D02*
X12096637Y-17712640D01*
X12096637Y-17426926D02*
X12125209Y-17412640D01*
X12182352Y-17412640D01*
X12210923Y-17426926D01*
X12225209Y-17441212D01*
X12239495Y-17469783D01*
X12239495Y-17555497D01*
X12225209Y-17584069D01*
X12210923Y-17598354D01*
X12182352Y-17612640D01*
X12125209Y-17612640D01*
X12096637Y-17598354D01*
X12410923Y-17612640D02*
X12382352Y-17598354D01*
X12368066Y-17569783D01*
X12368066Y-17312640D01*
X12653780Y-17612640D02*
X12653780Y-17455497D01*
X12639495Y-17426926D01*
X12610923Y-17412640D01*
X12553780Y-17412640D01*
X12525209Y-17426926D01*
X12653780Y-17598354D02*
X12625209Y-17612640D01*
X12553780Y-17612640D01*
X12525209Y-17598354D01*
X12510923Y-17569783D01*
X12510923Y-17541212D01*
X12525209Y-17512640D01*
X12553780Y-17498354D01*
X12625209Y-17498354D01*
X12653780Y-17484069D01*
X12753780Y-17412640D02*
X12868066Y-17412640D01*
X12796637Y-17312640D02*
X12796637Y-17569783D01*
X12810923Y-17598354D01*
X12839495Y-17612640D01*
X12868066Y-17612640D01*
X13082352Y-17598354D02*
X13053780Y-17612640D01*
X12996637Y-17612640D01*
X12968066Y-17598354D01*
X12953780Y-17569783D01*
X12953780Y-17455497D01*
X12968066Y-17426926D01*
X12996637Y-17412640D01*
X13053780Y-17412640D01*
X13082352Y-17426926D01*
X13096637Y-17455497D01*
X13096637Y-17484069D01*
X12953780Y-17512640D01*
X13353780Y-17612640D02*
X13353780Y-17312640D01*
X13353780Y-17598354D02*
X13325209Y-17612640D01*
X13268066Y-17612640D01*
X13239495Y-17598354D01*
X13225209Y-17584069D01*
X13210923Y-17555497D01*
X13210923Y-17469783D01*
X13225209Y-17441212D01*
X13239495Y-17426926D01*
X13268066Y-17412640D01*
X13325209Y-17412640D01*
X13353780Y-17426926D01*
X13468066Y-17726926D02*
X13482352Y-17712640D01*
X13510923Y-17669783D01*
X13525209Y-17641212D01*
X13539495Y-17598354D01*
X13553780Y-17526926D01*
X13553780Y-17469783D01*
X13539495Y-17398354D01*
X13525209Y-17355497D01*
X13510923Y-17326926D01*
X13482352Y-17284069D01*
X13468066Y-17269783D01*
X3574495Y-17751926D02*
X3574495Y-18051926D01*
X3424495Y-17901926D02*
X3724495Y-17901926D01*
X3982352Y-17737640D02*
X4168066Y-17737640D01*
X4068066Y-17851926D01*
X4110923Y-17851926D01*
X4139495Y-17866212D01*
X4153780Y-17880497D01*
X4168066Y-17909069D01*
X4168066Y-17980497D01*
X4153780Y-18009069D01*
X4139495Y-18023354D01*
X4110923Y-18037640D01*
X4025209Y-18037640D01*
X3996637Y-18023354D01*
X3982352Y-18009069D01*
X4296638Y-18009069D02*
X4310923Y-18023354D01*
X4296638Y-18037640D01*
X4282352Y-18023354D01*
X4296638Y-18009069D01*
X4296638Y-18037640D01*
X4496638Y-17737640D02*
X4525209Y-17737640D01*
X4553780Y-17751926D01*
X4568066Y-17766212D01*
X4582352Y-17794783D01*
X4596638Y-17851926D01*
X4596638Y-17923354D01*
X4582352Y-17980497D01*
X4568066Y-18009069D01*
X4553780Y-18023354D01*
X4525209Y-18037640D01*
X4496638Y-18037640D01*
X4468066Y-18023354D01*
X4453780Y-18009069D01*
X4439495Y-17980497D01*
X4425209Y-17923354D01*
X4425209Y-17851926D01*
X4439495Y-17794783D01*
X4453780Y-17766212D01*
X4468066Y-17751926D01*
X4496638Y-17737640D01*
X4782352Y-17737640D02*
X4810923Y-17737640D01*
X4839495Y-17751926D01*
X4853780Y-17766212D01*
X4868066Y-17794783D01*
X4882352Y-17851926D01*
X4882352Y-17923354D01*
X4868066Y-17980497D01*
X4853780Y-18009069D01*
X4839495Y-18023354D01*
X4810923Y-18037640D01*
X4782352Y-18037640D01*
X4753780Y-18023354D01*
X4739495Y-18009069D01*
X4725209Y-17980497D01*
X4710923Y-17923354D01*
X4710923Y-17851926D01*
X4725209Y-17794783D01*
X4739495Y-17766212D01*
X4753780Y-17751926D01*
X4782352Y-17737640D01*
X5010923Y-18037640D02*
X5010923Y-17837640D01*
X5010923Y-17866212D02*
X5025209Y-17851926D01*
X5053780Y-17837640D01*
X5096638Y-17837640D01*
X5125209Y-17851926D01*
X5139495Y-17880497D01*
X5139495Y-18037640D01*
X5139495Y-17880497D02*
X5153780Y-17851926D01*
X5182352Y-17837640D01*
X5225209Y-17837640D01*
X5253780Y-17851926D01*
X5268066Y-17880497D01*
X5268066Y-18037640D01*
X5410923Y-18037640D02*
X5410923Y-17837640D01*
X5410923Y-17866212D02*
X5425209Y-17851926D01*
X5453780Y-17837640D01*
X5496638Y-17837640D01*
X5525209Y-17851926D01*
X5539495Y-17880497D01*
X5539495Y-18037640D01*
X5539495Y-17880497D02*
X5553780Y-17851926D01*
X5582352Y-17837640D01*
X5625209Y-17837640D01*
X5653780Y-17851926D01*
X5668066Y-17880497D01*
X5668066Y-18037640D01*
X6253780Y-17723354D02*
X5996637Y-18109069D01*
X6639495Y-17737640D02*
X6668066Y-17737640D01*
X6696637Y-17751926D01*
X6710923Y-17766212D01*
X6725209Y-17794783D01*
X6739495Y-17851926D01*
X6739495Y-17923354D01*
X6725209Y-17980497D01*
X6710923Y-18009069D01*
X6696637Y-18023354D01*
X6668066Y-18037640D01*
X6639495Y-18037640D01*
X6610923Y-18023354D01*
X6596637Y-18009069D01*
X6582352Y-17980497D01*
X6568066Y-17923354D01*
X6568066Y-17851926D01*
X6582352Y-17794783D01*
X6596637Y-17766212D01*
X6610923Y-17751926D01*
X6639495Y-17737640D01*
X6868066Y-18009069D02*
X6882352Y-18023354D01*
X6868066Y-18037640D01*
X6853780Y-18023354D01*
X6868066Y-18009069D01*
X6868066Y-18037640D01*
X7168066Y-18037640D02*
X6996637Y-18037640D01*
X7082352Y-18037640D02*
X7082352Y-17737640D01*
X7053780Y-17780497D01*
X7025209Y-17809069D01*
X6996637Y-17823354D01*
X7453780Y-18037640D02*
X7282352Y-18037640D01*
X7368066Y-18037640D02*
X7368066Y-17737640D01*
X7339495Y-17780497D01*
X7310923Y-17809069D01*
X7282352Y-17823354D01*
X7625209Y-17866212D02*
X7596637Y-17851926D01*
X7582352Y-17837640D01*
X7568066Y-17809069D01*
X7568066Y-17794783D01*
X7582352Y-17766212D01*
X7596637Y-17751926D01*
X7625209Y-17737640D01*
X7682352Y-17737640D01*
X7710923Y-17751926D01*
X7725209Y-17766212D01*
X7739495Y-17794783D01*
X7739495Y-17809069D01*
X7725209Y-17837640D01*
X7710923Y-17851926D01*
X7682352Y-17866212D01*
X7625209Y-17866212D01*
X7596637Y-17880497D01*
X7582352Y-17894783D01*
X7568066Y-17923354D01*
X7568066Y-17980497D01*
X7582352Y-18009069D01*
X7596637Y-18023354D01*
X7625209Y-18037640D01*
X7682352Y-18037640D01*
X7710923Y-18023354D01*
X7725209Y-18009069D01*
X7739495Y-17980497D01*
X7739495Y-17923354D01*
X7725209Y-17894783D01*
X7710923Y-17880497D01*
X7682352Y-17866212D01*
X7853780Y-17737640D02*
X7853780Y-17794783D01*
X7968066Y-17737640D02*
X7968066Y-17794783D01*
X8410923Y-18151926D02*
X8396638Y-18137640D01*
X8368066Y-18094783D01*
X8353780Y-18066212D01*
X8339495Y-18023354D01*
X8325209Y-17951926D01*
X8325209Y-17894783D01*
X8339495Y-17823354D01*
X8353780Y-17780497D01*
X8368066Y-17751926D01*
X8396638Y-17709069D01*
X8410923Y-17694783D01*
X8653780Y-17837640D02*
X8653780Y-18037640D01*
X8582352Y-17723354D02*
X8510923Y-17937640D01*
X8696638Y-17937640D01*
X8868066Y-17737640D02*
X8896638Y-17737640D01*
X8925209Y-17751926D01*
X8939495Y-17766212D01*
X8953780Y-17794783D01*
X8968066Y-17851926D01*
X8968066Y-17923354D01*
X8953780Y-17980497D01*
X8939495Y-18009069D01*
X8925209Y-18023354D01*
X8896638Y-18037640D01*
X8868066Y-18037640D01*
X8839495Y-18023354D01*
X8825209Y-18009069D01*
X8810923Y-17980497D01*
X8796638Y-17923354D01*
X8796638Y-17851926D01*
X8810923Y-17794783D01*
X8825209Y-17766212D01*
X8839495Y-17751926D01*
X8868066Y-17737640D01*
X9325209Y-18037640D02*
X9325209Y-17737640D01*
X9453780Y-18037640D02*
X9453780Y-17880497D01*
X9439495Y-17851926D01*
X9410923Y-17837640D01*
X9368066Y-17837640D01*
X9339495Y-17851926D01*
X9325209Y-17866212D01*
X9639495Y-18037640D02*
X9610923Y-18023354D01*
X9596638Y-18009069D01*
X9582352Y-17980497D01*
X9582352Y-17894783D01*
X9596638Y-17866212D01*
X9610923Y-17851926D01*
X9639495Y-17837640D01*
X9682352Y-17837640D01*
X9710923Y-17851926D01*
X9725209Y-17866212D01*
X9739495Y-17894783D01*
X9739495Y-17980497D01*
X9725209Y-18009069D01*
X9710923Y-18023354D01*
X9682352Y-18037640D01*
X9639495Y-18037640D01*
X9910923Y-18037640D02*
X9882352Y-18023354D01*
X9868066Y-17994783D01*
X9868066Y-17737640D01*
X10139495Y-18023354D02*
X10110923Y-18037640D01*
X10053780Y-18037640D01*
X10025209Y-18023354D01*
X10010923Y-17994783D01*
X10010923Y-17880497D01*
X10025209Y-17851926D01*
X10053780Y-17837640D01*
X10110923Y-17837640D01*
X10139495Y-17851926D01*
X10153780Y-17880497D01*
X10153780Y-17909069D01*
X10010923Y-17937640D01*
X10268066Y-18023354D02*
X10296638Y-18037640D01*
X10353780Y-18037640D01*
X10382352Y-18023354D01*
X10396638Y-17994783D01*
X10396638Y-17980497D01*
X10382352Y-17951926D01*
X10353780Y-17937640D01*
X10310923Y-17937640D01*
X10282352Y-17923354D01*
X10268066Y-17894783D01*
X10268066Y-17880497D01*
X10282352Y-17851926D01*
X10310923Y-17837640D01*
X10353780Y-17837640D01*
X10382352Y-17851926D01*
X10496638Y-18151926D02*
X10510923Y-18137640D01*
X10539495Y-18094783D01*
X10553780Y-18066212D01*
X10568066Y-18023354D01*
X10582352Y-17951926D01*
X10582352Y-17894783D01*
X10568066Y-17823354D01*
X10553780Y-17780497D01*
X10539495Y-17751926D01*
X10510923Y-17709069D01*
X10496638Y-17694783D01*
X11039495Y-18151926D02*
X11025209Y-18137640D01*
X10996638Y-18094783D01*
X10982352Y-18066212D01*
X10968066Y-18023354D01*
X10953780Y-17951926D01*
X10953780Y-17894783D01*
X10968066Y-17823354D01*
X10982352Y-17780497D01*
X10996638Y-17751926D01*
X11025209Y-17709069D01*
X11039495Y-17694783D01*
X11153780Y-17837640D02*
X11153780Y-18037640D01*
X11153780Y-17866212D02*
X11168066Y-17851926D01*
X11196637Y-17837640D01*
X11239495Y-17837640D01*
X11268066Y-17851926D01*
X11282352Y-17880497D01*
X11282352Y-18037640D01*
X11468066Y-18037640D02*
X11439495Y-18023354D01*
X11425209Y-18009069D01*
X11410923Y-17980497D01*
X11410923Y-17894783D01*
X11425209Y-17866212D01*
X11439495Y-17851926D01*
X11468066Y-17837640D01*
X11510923Y-17837640D01*
X11539495Y-17851926D01*
X11553780Y-17866212D01*
X11568066Y-17894783D01*
X11568066Y-17980497D01*
X11553780Y-18009069D01*
X11539495Y-18023354D01*
X11510923Y-18037640D01*
X11468066Y-18037640D01*
X11653780Y-17837640D02*
X11768066Y-17837640D01*
X11696637Y-17737640D02*
X11696637Y-17994783D01*
X11710923Y-18023354D01*
X11739495Y-18037640D01*
X11768066Y-18037640D01*
X12096637Y-17837640D02*
X12096637Y-18137640D01*
X12096637Y-17851926D02*
X12125209Y-17837640D01*
X12182352Y-17837640D01*
X12210923Y-17851926D01*
X12225209Y-17866212D01*
X12239495Y-17894783D01*
X12239495Y-17980497D01*
X12225209Y-18009069D01*
X12210923Y-18023354D01*
X12182352Y-18037640D01*
X12125209Y-18037640D01*
X12096637Y-18023354D01*
X12410923Y-18037640D02*
X12382352Y-18023354D01*
X12368066Y-17994783D01*
X12368066Y-17737640D01*
X12653780Y-18037640D02*
X12653780Y-17880497D01*
X12639495Y-17851926D01*
X12610923Y-17837640D01*
X12553780Y-17837640D01*
X12525209Y-17851926D01*
X12653780Y-18023354D02*
X12625209Y-18037640D01*
X12553780Y-18037640D01*
X12525209Y-18023354D01*
X12510923Y-17994783D01*
X12510923Y-17966212D01*
X12525209Y-17937640D01*
X12553780Y-17923354D01*
X12625209Y-17923354D01*
X12653780Y-17909069D01*
X12753780Y-17837640D02*
X12868066Y-17837640D01*
X12796637Y-17737640D02*
X12796637Y-17994783D01*
X12810923Y-18023354D01*
X12839495Y-18037640D01*
X12868066Y-18037640D01*
X13082352Y-18023354D02*
X13053780Y-18037640D01*
X12996637Y-18037640D01*
X12968066Y-18023354D01*
X12953780Y-17994783D01*
X12953780Y-17880497D01*
X12968066Y-17851926D01*
X12996637Y-17837640D01*
X13053780Y-17837640D01*
X13082352Y-17851926D01*
X13096637Y-17880497D01*
X13096637Y-17909069D01*
X12953780Y-17937640D01*
X13353780Y-18037640D02*
X13353780Y-17737640D01*
X13353780Y-18023354D02*
X13325209Y-18037640D01*
X13268066Y-18037640D01*
X13239495Y-18023354D01*
X13225209Y-18009069D01*
X13210923Y-17980497D01*
X13210923Y-17894783D01*
X13225209Y-17866212D01*
X13239495Y-17851926D01*
X13268066Y-17837640D01*
X13325209Y-17837640D01*
X13353780Y-17851926D01*
X13468066Y-18151926D02*
X13482352Y-18137640D01*
X13510923Y-18094783D01*
X13525209Y-18066212D01*
X13539495Y-18023354D01*
X13553780Y-17951926D01*
X13553780Y-17894783D01*
X13539495Y-17823354D01*
X13525209Y-17780497D01*
X13510923Y-17751926D01*
X13482352Y-17709069D01*
X13468066Y-17694783D01*
X3650541Y-18510472D02*
X3650541Y-18153380D01*
X3293448Y-18153380D01*
X3293448Y-18510472D01*
X3650541Y-18510472D01*
X4153780Y-18167640D02*
X4010923Y-18167640D01*
X3996637Y-18310497D01*
X4010923Y-18296212D01*
X4039495Y-18281926D01*
X4110923Y-18281926D01*
X4139495Y-18296212D01*
X4153780Y-18310497D01*
X4168066Y-18339069D01*
X4168066Y-18410497D01*
X4153780Y-18439069D01*
X4139495Y-18453354D01*
X4110923Y-18467640D01*
X4039495Y-18467640D01*
X4010923Y-18453354D01*
X3996637Y-18439069D01*
X4296638Y-18439069D02*
X4310923Y-18453354D01*
X4296638Y-18467640D01*
X4282352Y-18453354D01*
X4296638Y-18439069D01*
X4296638Y-18467640D01*
X4496638Y-18167640D02*
X4525209Y-18167640D01*
X4553780Y-18181926D01*
X4568066Y-18196212D01*
X4582352Y-18224783D01*
X4596638Y-18281926D01*
X4596638Y-18353354D01*
X4582352Y-18410497D01*
X4568066Y-18439069D01*
X4553780Y-18453354D01*
X4525209Y-18467640D01*
X4496638Y-18467640D01*
X4468066Y-18453354D01*
X4453780Y-18439069D01*
X4439495Y-18410497D01*
X4425209Y-18353354D01*
X4425209Y-18281926D01*
X4439495Y-18224783D01*
X4453780Y-18196212D01*
X4468066Y-18181926D01*
X4496638Y-18167640D01*
X4868066Y-18167640D02*
X4725209Y-18167640D01*
X4710923Y-18310497D01*
X4725209Y-18296212D01*
X4753780Y-18281926D01*
X4825209Y-18281926D01*
X4853780Y-18296212D01*
X4868066Y-18310497D01*
X4882352Y-18339069D01*
X4882352Y-18410497D01*
X4868066Y-18439069D01*
X4853780Y-18453354D01*
X4825209Y-18467640D01*
X4753780Y-18467640D01*
X4725209Y-18453354D01*
X4710923Y-18439069D01*
X5010923Y-18467640D02*
X5010923Y-18267640D01*
X5010923Y-18296212D02*
X5025209Y-18281926D01*
X5053780Y-18267640D01*
X5096638Y-18267640D01*
X5125209Y-18281926D01*
X5139495Y-18310497D01*
X5139495Y-18467640D01*
X5139495Y-18310497D02*
X5153780Y-18281926D01*
X5182352Y-18267640D01*
X5225209Y-18267640D01*
X5253780Y-18281926D01*
X5268066Y-18310497D01*
X5268066Y-18467640D01*
X5410923Y-18467640D02*
X5410923Y-18267640D01*
X5410923Y-18296212D02*
X5425209Y-18281926D01*
X5453780Y-18267640D01*
X5496638Y-18267640D01*
X5525209Y-18281926D01*
X5539495Y-18310497D01*
X5539495Y-18467640D01*
X5539495Y-18310497D02*
X5553780Y-18281926D01*
X5582352Y-18267640D01*
X5625209Y-18267640D01*
X5653780Y-18281926D01*
X5668066Y-18310497D01*
X5668066Y-18467640D01*
X6253780Y-18153354D02*
X5996637Y-18539069D01*
X6639495Y-18167640D02*
X6668066Y-18167640D01*
X6696637Y-18181926D01*
X6710923Y-18196212D01*
X6725209Y-18224783D01*
X6739495Y-18281926D01*
X6739495Y-18353354D01*
X6725209Y-18410497D01*
X6710923Y-18439069D01*
X6696637Y-18453354D01*
X6668066Y-18467640D01*
X6639495Y-18467640D01*
X6610923Y-18453354D01*
X6596637Y-18439069D01*
X6582352Y-18410497D01*
X6568066Y-18353354D01*
X6568066Y-18281926D01*
X6582352Y-18224783D01*
X6596637Y-18196212D01*
X6610923Y-18181926D01*
X6639495Y-18167640D01*
X6868066Y-18439069D02*
X6882352Y-18453354D01*
X6868066Y-18467640D01*
X6853780Y-18453354D01*
X6868066Y-18439069D01*
X6868066Y-18467640D01*
X7168066Y-18467640D02*
X6996637Y-18467640D01*
X7082352Y-18467640D02*
X7082352Y-18167640D01*
X7053780Y-18210497D01*
X7025209Y-18239069D01*
X6996637Y-18253354D01*
X7310923Y-18467640D02*
X7368066Y-18467640D01*
X7396637Y-18453354D01*
X7410923Y-18439069D01*
X7439495Y-18396212D01*
X7453780Y-18339069D01*
X7453780Y-18224783D01*
X7439495Y-18196212D01*
X7425209Y-18181926D01*
X7396637Y-18167640D01*
X7339495Y-18167640D01*
X7310923Y-18181926D01*
X7296637Y-18196212D01*
X7282352Y-18224783D01*
X7282352Y-18296212D01*
X7296637Y-18324783D01*
X7310923Y-18339069D01*
X7339495Y-18353354D01*
X7396637Y-18353354D01*
X7425209Y-18339069D01*
X7439495Y-18324783D01*
X7453780Y-18296212D01*
X7596637Y-18467640D02*
X7653780Y-18467640D01*
X7682352Y-18453354D01*
X7696637Y-18439069D01*
X7725209Y-18396212D01*
X7739495Y-18339069D01*
X7739495Y-18224783D01*
X7725209Y-18196212D01*
X7710923Y-18181926D01*
X7682352Y-18167640D01*
X7625209Y-18167640D01*
X7596637Y-18181926D01*
X7582352Y-18196212D01*
X7568066Y-18224783D01*
X7568066Y-18296212D01*
X7582352Y-18324783D01*
X7596637Y-18339069D01*
X7625209Y-18353354D01*
X7682352Y-18353354D01*
X7710923Y-18339069D01*
X7725209Y-18324783D01*
X7739495Y-18296212D01*
X7853780Y-18167640D02*
X7853780Y-18224783D01*
X7968066Y-18167640D02*
X7968066Y-18224783D01*
X8410923Y-18581926D02*
X8396638Y-18567640D01*
X8368066Y-18524783D01*
X8353780Y-18496212D01*
X8339495Y-18453354D01*
X8325209Y-18381926D01*
X8325209Y-18324783D01*
X8339495Y-18253354D01*
X8353780Y-18210497D01*
X8368066Y-18181926D01*
X8396638Y-18139069D01*
X8410923Y-18124783D01*
X8510923Y-18196212D02*
X8525209Y-18181926D01*
X8553780Y-18167640D01*
X8625209Y-18167640D01*
X8653780Y-18181926D01*
X8668066Y-18196212D01*
X8682352Y-18224783D01*
X8682352Y-18253354D01*
X8668066Y-18296212D01*
X8496638Y-18467640D01*
X8682352Y-18467640D01*
X8868066Y-18167640D02*
X8896638Y-18167640D01*
X8925209Y-18181926D01*
X8939495Y-18196212D01*
X8953780Y-18224783D01*
X8968066Y-18281926D01*
X8968066Y-18353354D01*
X8953780Y-18410497D01*
X8939495Y-18439069D01*
X8925209Y-18453354D01*
X8896638Y-18467640D01*
X8868066Y-18467640D01*
X8839495Y-18453354D01*
X8825209Y-18439069D01*
X8810923Y-18410497D01*
X8796638Y-18353354D01*
X8796638Y-18281926D01*
X8810923Y-18224783D01*
X8825209Y-18196212D01*
X8839495Y-18181926D01*
X8868066Y-18167640D01*
X9325209Y-18467640D02*
X9325209Y-18167640D01*
X9453780Y-18467640D02*
X9453780Y-18310497D01*
X9439495Y-18281926D01*
X9410923Y-18267640D01*
X9368066Y-18267640D01*
X9339495Y-18281926D01*
X9325209Y-18296212D01*
X9639495Y-18467640D02*
X9610923Y-18453354D01*
X9596638Y-18439069D01*
X9582352Y-18410497D01*
X9582352Y-18324783D01*
X9596638Y-18296212D01*
X9610923Y-18281926D01*
X9639495Y-18267640D01*
X9682352Y-18267640D01*
X9710923Y-18281926D01*
X9725209Y-18296212D01*
X9739495Y-18324783D01*
X9739495Y-18410497D01*
X9725209Y-18439069D01*
X9710923Y-18453354D01*
X9682352Y-18467640D01*
X9639495Y-18467640D01*
X9910923Y-18467640D02*
X9882352Y-18453354D01*
X9868066Y-18424783D01*
X9868066Y-18167640D01*
X10139495Y-18453354D02*
X10110923Y-18467640D01*
X10053780Y-18467640D01*
X10025209Y-18453354D01*
X10010923Y-18424783D01*
X10010923Y-18310497D01*
X10025209Y-18281926D01*
X10053780Y-18267640D01*
X10110923Y-18267640D01*
X10139495Y-18281926D01*
X10153780Y-18310497D01*
X10153780Y-18339069D01*
X10010923Y-18367640D01*
X10268066Y-18453354D02*
X10296638Y-18467640D01*
X10353780Y-18467640D01*
X10382352Y-18453354D01*
X10396638Y-18424783D01*
X10396638Y-18410497D01*
X10382352Y-18381926D01*
X10353780Y-18367640D01*
X10310923Y-18367640D01*
X10282352Y-18353354D01*
X10268066Y-18324783D01*
X10268066Y-18310497D01*
X10282352Y-18281926D01*
X10310923Y-18267640D01*
X10353780Y-18267640D01*
X10382352Y-18281926D01*
X10496638Y-18581926D02*
X10510923Y-18567640D01*
X10539495Y-18524783D01*
X10553780Y-18496212D01*
X10568066Y-18453354D01*
X10582352Y-18381926D01*
X10582352Y-18324783D01*
X10568066Y-18253354D01*
X10553780Y-18210497D01*
X10539495Y-18181926D01*
X10510923Y-18139069D01*
X10496638Y-18124783D01*
X11039495Y-18581926D02*
X11025209Y-18567640D01*
X10996638Y-18524783D01*
X10982352Y-18496212D01*
X10968066Y-18453354D01*
X10953780Y-18381926D01*
X10953780Y-18324783D01*
X10968066Y-18253354D01*
X10982352Y-18210497D01*
X10996638Y-18181926D01*
X11025209Y-18139069D01*
X11039495Y-18124783D01*
X11153780Y-18267640D02*
X11153780Y-18467640D01*
X11153780Y-18296212D02*
X11168066Y-18281926D01*
X11196637Y-18267640D01*
X11239495Y-18267640D01*
X11268066Y-18281926D01*
X11282352Y-18310497D01*
X11282352Y-18467640D01*
X11468066Y-18467640D02*
X11439495Y-18453354D01*
X11425209Y-18439069D01*
X11410923Y-18410497D01*
X11410923Y-18324783D01*
X11425209Y-18296212D01*
X11439495Y-18281926D01*
X11468066Y-18267640D01*
X11510923Y-18267640D01*
X11539495Y-18281926D01*
X11553780Y-18296212D01*
X11568066Y-18324783D01*
X11568066Y-18410497D01*
X11553780Y-18439069D01*
X11539495Y-18453354D01*
X11510923Y-18467640D01*
X11468066Y-18467640D01*
X11653780Y-18267640D02*
X11768066Y-18267640D01*
X11696637Y-18167640D02*
X11696637Y-18424783D01*
X11710923Y-18453354D01*
X11739495Y-18467640D01*
X11768066Y-18467640D01*
X12096637Y-18267640D02*
X12096637Y-18567640D01*
X12096637Y-18281926D02*
X12125209Y-18267640D01*
X12182352Y-18267640D01*
X12210923Y-18281926D01*
X12225209Y-18296212D01*
X12239495Y-18324783D01*
X12239495Y-18410497D01*
X12225209Y-18439069D01*
X12210923Y-18453354D01*
X12182352Y-18467640D01*
X12125209Y-18467640D01*
X12096637Y-18453354D01*
X12410923Y-18467640D02*
X12382352Y-18453354D01*
X12368066Y-18424783D01*
X12368066Y-18167640D01*
X12653780Y-18467640D02*
X12653780Y-18310497D01*
X12639495Y-18281926D01*
X12610923Y-18267640D01*
X12553780Y-18267640D01*
X12525209Y-18281926D01*
X12653780Y-18453354D02*
X12625209Y-18467640D01*
X12553780Y-18467640D01*
X12525209Y-18453354D01*
X12510923Y-18424783D01*
X12510923Y-18396212D01*
X12525209Y-18367640D01*
X12553780Y-18353354D01*
X12625209Y-18353354D01*
X12653780Y-18339069D01*
X12753780Y-18267640D02*
X12868066Y-18267640D01*
X12796637Y-18167640D02*
X12796637Y-18424783D01*
X12810923Y-18453354D01*
X12839495Y-18467640D01*
X12868066Y-18467640D01*
X13082352Y-18453354D02*
X13053780Y-18467640D01*
X12996637Y-18467640D01*
X12968066Y-18453354D01*
X12953780Y-18424783D01*
X12953780Y-18310497D01*
X12968066Y-18281926D01*
X12996637Y-18267640D01*
X13053780Y-18267640D01*
X13082352Y-18281926D01*
X13096637Y-18310497D01*
X13096637Y-18339069D01*
X12953780Y-18367640D01*
X13353780Y-18467640D02*
X13353780Y-18167640D01*
X13353780Y-18453354D02*
X13325209Y-18467640D01*
X13268066Y-18467640D01*
X13239495Y-18453354D01*
X13225209Y-18439069D01*
X13210923Y-18410497D01*
X13210923Y-18324783D01*
X13225209Y-18296212D01*
X13239495Y-18281926D01*
X13268066Y-18267640D01*
X13325209Y-18267640D01*
X13353780Y-18281926D01*
X13468066Y-18581926D02*
X13482352Y-18567640D01*
X13510923Y-18524783D01*
X13525209Y-18496212D01*
X13539495Y-18453354D01*
X13553780Y-18381926D01*
X13553780Y-18324783D01*
X13539495Y-18253354D01*
X13525209Y-18210497D01*
X13510923Y-18181926D01*
X13482352Y-18139069D01*
X13468066Y-18124783D01*
M02*
