G04 #@! TF.GenerationSoftware,KiCad,Pcbnew,(5.1.4)-1*
G04 #@! TF.CreationDate,2023-10-04T21:41:16-04:00*
G04 #@! TF.ProjectId,ThumbsUp,5468756d-6273-4557-902e-6b696361645f,rev?*
G04 #@! TF.SameCoordinates,Original*
G04 #@! TF.FileFunction,Legend,Bot*
G04 #@! TF.FilePolarity,Positive*
%FSLAX46Y46*%
G04 Gerber Fmt 4.6, Leading zero omitted, Abs format (unit mm)*
G04 Created by KiCad (PCBNEW (5.1.4)-1) date 2023-10-04 21:41:16*
%MOMM*%
%LPD*%
G04 APERTURE LIST*
%ADD10C,0.150000*%
%ADD11C,0.300000*%
%ADD12C,0.120000*%
%ADD13C,0.100000*%
%ADD14C,0.254000*%
G04 APERTURE END LIST*
D10*
X124348571Y-144403333D02*
X124348571Y-143641428D01*
X124348571Y-143165238D02*
X124348571Y-142403333D01*
X124634285Y-141927142D02*
X124348571Y-141165238D01*
X124062857Y-141927142D01*
X123634285Y-140450952D02*
X125062857Y-140450952D01*
X124348571Y-139736666D02*
X124348571Y-138974761D01*
X124348571Y-138498571D02*
X124348571Y-137736666D01*
D11*
X158552142Y-126348571D02*
X158480714Y-126134285D01*
X158409285Y-126062857D01*
X158266428Y-125991428D01*
X158052142Y-125991428D01*
X157909285Y-126062857D01*
X157837857Y-126134285D01*
X157766428Y-126277142D01*
X157766428Y-126848571D01*
X159266428Y-126848571D01*
X159266428Y-126348571D01*
X159195000Y-126205714D01*
X159123571Y-126134285D01*
X158980714Y-126062857D01*
X158837857Y-126062857D01*
X158695000Y-126134285D01*
X158623571Y-126205714D01*
X158552142Y-126348571D01*
X158552142Y-126848571D01*
X157766428Y-124705714D02*
X158552142Y-124705714D01*
X158695000Y-124777142D01*
X158766428Y-124920000D01*
X158766428Y-125205714D01*
X158695000Y-125348571D01*
X157837857Y-124705714D02*
X157766428Y-124848571D01*
X157766428Y-125205714D01*
X157837857Y-125348571D01*
X157980714Y-125420000D01*
X158123571Y-125420000D01*
X158266428Y-125348571D01*
X158337857Y-125205714D01*
X158337857Y-124848571D01*
X158409285Y-124705714D01*
X158766428Y-124205714D02*
X158766428Y-123634285D01*
X159266428Y-123991428D02*
X157980714Y-123991428D01*
X157837857Y-123920000D01*
X157766428Y-123777142D01*
X157766428Y-123634285D01*
X158766428Y-123348571D02*
X158766428Y-122777142D01*
X159266428Y-123134285D02*
X157980714Y-123134285D01*
X157837857Y-123062857D01*
X157766428Y-122920000D01*
X157766428Y-122777142D01*
X157837857Y-121705714D02*
X157766428Y-121848571D01*
X157766428Y-122134285D01*
X157837857Y-122277142D01*
X157980714Y-122348571D01*
X158552142Y-122348571D01*
X158695000Y-122277142D01*
X158766428Y-122134285D01*
X158766428Y-121848571D01*
X158695000Y-121705714D01*
X158552142Y-121634285D01*
X158409285Y-121634285D01*
X158266428Y-122348571D01*
X157766428Y-120991428D02*
X158766428Y-120991428D01*
X158480714Y-120991428D02*
X158623571Y-120920000D01*
X158695000Y-120848571D01*
X158766428Y-120705714D01*
X158766428Y-120562857D01*
X158766428Y-120205714D02*
X157766428Y-119848571D01*
X158766428Y-119491428D02*
X157766428Y-119848571D01*
X157409285Y-119991428D01*
X157337857Y-120062857D01*
X157266428Y-120205714D01*
X156716428Y-126884285D02*
X156430714Y-126884285D01*
X156716428Y-126312857D02*
X156430714Y-126312857D01*
X155787857Y-125670000D02*
X155787857Y-124527142D01*
X156716428Y-123884285D02*
X156430714Y-123884285D01*
X156716428Y-123312857D02*
X156430714Y-123312857D01*
X156216428Y-121527142D02*
X155787857Y-120384285D01*
X155359285Y-121527142D01*
X156216428Y-119670000D02*
X155787857Y-118527142D01*
X155359285Y-119670000D01*
X148037857Y-120262857D02*
X148109285Y-120477142D01*
X148180714Y-120548571D01*
X148323571Y-120620000D01*
X148537857Y-120620000D01*
X148680714Y-120548571D01*
X148752142Y-120477142D01*
X148823571Y-120334285D01*
X148823571Y-119762857D01*
X147323571Y-119762857D01*
X147323571Y-120262857D01*
X147395000Y-120405714D01*
X147466428Y-120477142D01*
X147609285Y-120548571D01*
X147752142Y-120548571D01*
X147895000Y-120477142D01*
X147966428Y-120405714D01*
X148037857Y-120262857D01*
X148037857Y-119762857D01*
X148823571Y-121905714D02*
X148037857Y-121905714D01*
X147895000Y-121834285D01*
X147823571Y-121691428D01*
X147823571Y-121405714D01*
X147895000Y-121262857D01*
X148752142Y-121905714D02*
X148823571Y-121762857D01*
X148823571Y-121405714D01*
X148752142Y-121262857D01*
X148609285Y-121191428D01*
X148466428Y-121191428D01*
X148323571Y-121262857D01*
X148252142Y-121405714D01*
X148252142Y-121762857D01*
X148180714Y-121905714D01*
X147823571Y-122405714D02*
X147823571Y-122977142D01*
X147323571Y-122620000D02*
X148609285Y-122620000D01*
X148752142Y-122691428D01*
X148823571Y-122834285D01*
X148823571Y-122977142D01*
X147823571Y-123262857D02*
X147823571Y-123834285D01*
X147323571Y-123477142D02*
X148609285Y-123477142D01*
X148752142Y-123548571D01*
X148823571Y-123691428D01*
X148823571Y-123834285D01*
X148752142Y-124905714D02*
X148823571Y-124762857D01*
X148823571Y-124477142D01*
X148752142Y-124334285D01*
X148609285Y-124262857D01*
X148037857Y-124262857D01*
X147895000Y-124334285D01*
X147823571Y-124477142D01*
X147823571Y-124762857D01*
X147895000Y-124905714D01*
X148037857Y-124977142D01*
X148180714Y-124977142D01*
X148323571Y-124262857D01*
X148823571Y-125620000D02*
X147823571Y-125620000D01*
X148109285Y-125620000D02*
X147966428Y-125691428D01*
X147895000Y-125762857D01*
X147823571Y-125905714D01*
X147823571Y-126048571D01*
X147823571Y-126405714D02*
X148823571Y-126762857D01*
X147823571Y-127120000D02*
X148823571Y-126762857D01*
X149180714Y-126620000D01*
X149252142Y-126548571D01*
X149323571Y-126405714D01*
X150373571Y-119798571D02*
X150802142Y-118655714D01*
X151230714Y-119798571D01*
X150373571Y-121655714D02*
X150802142Y-120512857D01*
X151230714Y-121655714D01*
X149873571Y-123441428D02*
X150159285Y-123441428D01*
X149873571Y-124012857D02*
X150159285Y-124012857D01*
X150802142Y-124655714D02*
X150802142Y-125798571D01*
X151373571Y-125227142D02*
X150230714Y-125227142D01*
X149873571Y-126441428D02*
X150159285Y-126441428D01*
X149873571Y-127012857D02*
X150159285Y-127012857D01*
D10*
X145167738Y-144167619D02*
X145262976Y-144120000D01*
X145358214Y-144024761D01*
X145501071Y-143881904D01*
X145596309Y-143834285D01*
X145691547Y-143834285D01*
X145643928Y-144072380D02*
X145739166Y-144024761D01*
X145834404Y-143929523D01*
X145882023Y-143739047D01*
X145882023Y-143405714D01*
X145834404Y-143215238D01*
X145739166Y-143120000D01*
X145643928Y-143072380D01*
X145453452Y-143072380D01*
X145358214Y-143120000D01*
X145262976Y-143215238D01*
X145215357Y-143405714D01*
X145215357Y-143739047D01*
X145262976Y-143929523D01*
X145358214Y-144024761D01*
X145453452Y-144072380D01*
X145643928Y-144072380D01*
X144786785Y-144072380D02*
X144786785Y-143072380D01*
X144453452Y-143786666D01*
X144120119Y-143072380D01*
X144120119Y-144072380D01*
X143643928Y-144072380D02*
X143643928Y-143072380D01*
X143072500Y-144072380D02*
X143501071Y-143500952D01*
X143072500Y-143072380D02*
X143643928Y-143643809D01*
X142643928Y-143977142D02*
X142596309Y-144024761D01*
X142643928Y-144072380D01*
X142691547Y-144024761D01*
X142643928Y-143977142D01*
X142643928Y-144072380D01*
X142643928Y-143453333D02*
X142596309Y-143500952D01*
X142643928Y-143548571D01*
X142691547Y-143500952D01*
X142643928Y-143453333D01*
X142643928Y-143548571D01*
X145882023Y-144722380D02*
X145882023Y-144912857D01*
X145501071Y-144722380D02*
X145501071Y-144912857D01*
X145072500Y-145722380D02*
X145072500Y-145055714D01*
X145072500Y-145150952D02*
X145024880Y-145103333D01*
X144929642Y-145055714D01*
X144786785Y-145055714D01*
X144691547Y-145103333D01*
X144643928Y-145198571D01*
X144643928Y-145722380D01*
X144643928Y-145198571D02*
X144596309Y-145103333D01*
X144501071Y-145055714D01*
X144358214Y-145055714D01*
X144262976Y-145103333D01*
X144215357Y-145198571D01*
X144215357Y-145722380D01*
X143310595Y-145722380D02*
X143310595Y-145198571D01*
X143358214Y-145103333D01*
X143453452Y-145055714D01*
X143643928Y-145055714D01*
X143739166Y-145103333D01*
X143310595Y-145674761D02*
X143405833Y-145722380D01*
X143643928Y-145722380D01*
X143739166Y-145674761D01*
X143786785Y-145579523D01*
X143786785Y-145484285D01*
X143739166Y-145389047D01*
X143643928Y-145341428D01*
X143405833Y-145341428D01*
X143310595Y-145293809D01*
X142977261Y-145055714D02*
X142596309Y-145055714D01*
X142834404Y-144722380D02*
X142834404Y-145579523D01*
X142786785Y-145674761D01*
X142691547Y-145722380D01*
X142596309Y-145722380D01*
X142262976Y-145722380D02*
X142262976Y-145055714D01*
X142262976Y-145246190D02*
X142215357Y-145150952D01*
X142167738Y-145103333D01*
X142072500Y-145055714D01*
X141977261Y-145055714D01*
X141643928Y-145722380D02*
X141643928Y-145055714D01*
X141643928Y-144722380D02*
X141691547Y-144770000D01*
X141643928Y-144817619D01*
X141596309Y-144770000D01*
X141643928Y-144722380D01*
X141643928Y-144817619D01*
X141262976Y-145722380D02*
X140739166Y-145055714D01*
X141262976Y-145055714D02*
X140739166Y-145722380D01*
X140596309Y-145817619D02*
X139834404Y-145817619D01*
X139596309Y-145055714D02*
X139596309Y-146055714D01*
X139596309Y-145103333D02*
X139501071Y-145055714D01*
X139310595Y-145055714D01*
X139215357Y-145103333D01*
X139167738Y-145150952D01*
X139120119Y-145246190D01*
X139120119Y-145531904D01*
X139167738Y-145627142D01*
X139215357Y-145674761D01*
X139310595Y-145722380D01*
X139501071Y-145722380D01*
X139596309Y-145674761D01*
X138691547Y-145722380D02*
X138691547Y-145055714D01*
X138691547Y-144722380D02*
X138739166Y-144770000D01*
X138691547Y-144817619D01*
X138643928Y-144770000D01*
X138691547Y-144722380D01*
X138691547Y-144817619D01*
X138215357Y-145055714D02*
X138215357Y-145722380D01*
X138215357Y-145150952D02*
X138167738Y-145103333D01*
X138072500Y-145055714D01*
X137929642Y-145055714D01*
X137834404Y-145103333D01*
X137786785Y-145198571D01*
X137786785Y-145722380D01*
X137358214Y-145674761D02*
X137262976Y-145722380D01*
X137072500Y-145722380D01*
X136977261Y-145674761D01*
X136929642Y-145579523D01*
X136929642Y-145531904D01*
X136977261Y-145436666D01*
X137072500Y-145389047D01*
X137215357Y-145389047D01*
X137310595Y-145341428D01*
X137358214Y-145246190D01*
X137358214Y-145198571D01*
X137310595Y-145103333D01*
X137215357Y-145055714D01*
X137072500Y-145055714D01*
X136977261Y-145103333D01*
X136548690Y-144722380D02*
X136548690Y-144912857D01*
X136167738Y-144722380D02*
X136167738Y-144912857D01*
X135739166Y-145627142D02*
X135691547Y-145674761D01*
X135739166Y-145722380D01*
X135786785Y-145674761D01*
X135739166Y-145627142D01*
X135739166Y-145722380D01*
X135739166Y-145103333D02*
X135691547Y-145150952D01*
X135739166Y-145198571D01*
X135786785Y-145150952D01*
X135739166Y-145103333D01*
X135739166Y-145198571D01*
X134215357Y-146103333D02*
X134262976Y-146103333D01*
X134358214Y-146055714D01*
X134405833Y-145960476D01*
X134405833Y-145484285D01*
X134453452Y-145389047D01*
X134548690Y-145341428D01*
X134453452Y-145293809D01*
X134405833Y-145198571D01*
X134405833Y-144722380D01*
X134358214Y-144627142D01*
X134262976Y-144579523D01*
X134215357Y-144579523D01*
X144358214Y-146372380D02*
X144358214Y-146562857D01*
X143977261Y-146372380D02*
X143977261Y-146562857D01*
X143120119Y-147324761D02*
X143215357Y-147372380D01*
X143405833Y-147372380D01*
X143501071Y-147324761D01*
X143548690Y-147277142D01*
X143596309Y-147181904D01*
X143596309Y-146896190D01*
X143548690Y-146800952D01*
X143501071Y-146753333D01*
X143405833Y-146705714D01*
X143215357Y-146705714D01*
X143120119Y-146753333D01*
X142548690Y-147372380D02*
X142643928Y-147324761D01*
X142691547Y-147277142D01*
X142739166Y-147181904D01*
X142739166Y-146896190D01*
X142691547Y-146800952D01*
X142643928Y-146753333D01*
X142548690Y-146705714D01*
X142405833Y-146705714D01*
X142310595Y-146753333D01*
X142262976Y-146800952D01*
X142215357Y-146896190D01*
X142215357Y-147181904D01*
X142262976Y-147277142D01*
X142310595Y-147324761D01*
X142405833Y-147372380D01*
X142548690Y-147372380D01*
X141643928Y-147372380D02*
X141739166Y-147324761D01*
X141786785Y-147229523D01*
X141786785Y-146372380D01*
X141310595Y-147324761D02*
X141215357Y-147372380D01*
X141024880Y-147372380D01*
X140929642Y-147324761D01*
X140882023Y-147229523D01*
X140882023Y-147181904D01*
X140929642Y-147086666D01*
X141024880Y-147039047D01*
X141167738Y-147039047D01*
X141262976Y-146991428D01*
X141310595Y-146896190D01*
X141310595Y-146848571D01*
X141262976Y-146753333D01*
X141167738Y-146705714D01*
X141024880Y-146705714D01*
X140929642Y-146753333D01*
X140501071Y-146372380D02*
X140501071Y-146562857D01*
X140120119Y-146372380D02*
X140120119Y-146562857D01*
X139691547Y-147277142D02*
X139643928Y-147324761D01*
X139691547Y-147372380D01*
X139739166Y-147324761D01*
X139691547Y-147277142D01*
X139691547Y-147372380D01*
X139691547Y-146753333D02*
X139643928Y-146800952D01*
X139691547Y-146848571D01*
X139739166Y-146800952D01*
X139691547Y-146753333D01*
X139691547Y-146848571D01*
X138167738Y-147705714D02*
X138405833Y-147705714D01*
X138405833Y-146277142D01*
X138167738Y-146277142D01*
X137834404Y-146372380D02*
X137834404Y-146562857D01*
X137453452Y-146372380D02*
X137453452Y-146562857D01*
X136453452Y-147277142D02*
X136501071Y-147324761D01*
X136643928Y-147372380D01*
X136739166Y-147372380D01*
X136882023Y-147324761D01*
X136977261Y-147229523D01*
X137024880Y-147134285D01*
X137072500Y-146943809D01*
X137072500Y-146800952D01*
X137024880Y-146610476D01*
X136977261Y-146515238D01*
X136882023Y-146420000D01*
X136739166Y-146372380D01*
X136643928Y-146372380D01*
X136501071Y-146420000D01*
X136453452Y-146467619D01*
X135596309Y-146372380D02*
X135786785Y-146372380D01*
X135882023Y-146420000D01*
X135929642Y-146467619D01*
X136024880Y-146610476D01*
X136072500Y-146800952D01*
X136072500Y-147181904D01*
X136024880Y-147277142D01*
X135977261Y-147324761D01*
X135882023Y-147372380D01*
X135691547Y-147372380D01*
X135596309Y-147324761D01*
X135548690Y-147277142D01*
X135501071Y-147181904D01*
X135501071Y-146943809D01*
X135548690Y-146848571D01*
X135596309Y-146800952D01*
X135691547Y-146753333D01*
X135882023Y-146753333D01*
X135977261Y-146800952D01*
X136024880Y-146848571D01*
X136072500Y-146943809D01*
X135120119Y-146372380D02*
X135120119Y-146562857D01*
X134739166Y-146372380D02*
X134739166Y-146562857D01*
X134262976Y-147324761D02*
X134262976Y-147372380D01*
X134310595Y-147467619D01*
X134358214Y-147515238D01*
X133120119Y-146372380D02*
X133120119Y-146562857D01*
X132739166Y-146372380D02*
X132739166Y-146562857D01*
X132310595Y-147372380D02*
X132310595Y-146372380D01*
X132072500Y-146372380D01*
X131929642Y-146420000D01*
X131834404Y-146515238D01*
X131786785Y-146610476D01*
X131739166Y-146800952D01*
X131739166Y-146943809D01*
X131786785Y-147134285D01*
X131834404Y-147229523D01*
X131929642Y-147324761D01*
X132072500Y-147372380D01*
X132310595Y-147372380D01*
X130882023Y-146705714D02*
X130882023Y-147372380D01*
X131120119Y-146324761D02*
X131358214Y-147039047D01*
X130739166Y-147039047D01*
X130405833Y-146372380D02*
X130405833Y-146562857D01*
X130024880Y-146372380D02*
X130024880Y-146562857D01*
X129548690Y-147324761D02*
X129548690Y-147372380D01*
X129596309Y-147467619D01*
X129643928Y-147515238D01*
X128405833Y-146372380D02*
X128405833Y-146562857D01*
X128024880Y-146372380D02*
X128024880Y-146562857D01*
X127596309Y-147372380D02*
X127596309Y-146372380D01*
X127358214Y-146372380D01*
X127215357Y-146420000D01*
X127120119Y-146515238D01*
X127072500Y-146610476D01*
X127024880Y-146800952D01*
X127024880Y-146943809D01*
X127072500Y-147134285D01*
X127120119Y-147229523D01*
X127215357Y-147324761D01*
X127358214Y-147372380D01*
X127596309Y-147372380D01*
X126643928Y-146467619D02*
X126596309Y-146420000D01*
X126501071Y-146372380D01*
X126262976Y-146372380D01*
X126167738Y-146420000D01*
X126120119Y-146467619D01*
X126072500Y-146562857D01*
X126072500Y-146658095D01*
X126120119Y-146800952D01*
X126691547Y-147372380D01*
X126072500Y-147372380D01*
X125691547Y-146372380D02*
X125691547Y-146562857D01*
X125310595Y-146372380D02*
X125310595Y-146562857D01*
X124834404Y-147324761D02*
X124834404Y-147372380D01*
X124882023Y-147467619D01*
X124929642Y-147515238D01*
X123691547Y-146372380D02*
X123691547Y-146562857D01*
X123310595Y-146372380D02*
X123310595Y-146562857D01*
X122882023Y-147372380D02*
X122882023Y-146372380D01*
X122643928Y-146372380D01*
X122501071Y-146420000D01*
X122405833Y-146515238D01*
X122358214Y-146610476D01*
X122310595Y-146800952D01*
X122310595Y-146943809D01*
X122358214Y-147134285D01*
X122405833Y-147229523D01*
X122501071Y-147324761D01*
X122643928Y-147372380D01*
X122882023Y-147372380D01*
X121977261Y-146372380D02*
X121358214Y-146372380D01*
X121691547Y-146753333D01*
X121548690Y-146753333D01*
X121453452Y-146800952D01*
X121405833Y-146848571D01*
X121358214Y-146943809D01*
X121358214Y-147181904D01*
X121405833Y-147277142D01*
X121453452Y-147324761D01*
X121548690Y-147372380D01*
X121834404Y-147372380D01*
X121929642Y-147324761D01*
X121977261Y-147277142D01*
X120977261Y-146372380D02*
X120977261Y-146562857D01*
X120596309Y-146372380D02*
X120596309Y-146562857D01*
X120120119Y-147324761D02*
X120120119Y-147372380D01*
X120167738Y-147467619D01*
X120215357Y-147515238D01*
X118977261Y-146372380D02*
X118977261Y-146562857D01*
X118596309Y-146372380D02*
X118596309Y-146562857D01*
X117834404Y-146848571D02*
X117691547Y-146896190D01*
X117643928Y-146943809D01*
X117596309Y-147039047D01*
X117596309Y-147181904D01*
X117643928Y-147277142D01*
X117691547Y-147324761D01*
X117786785Y-147372380D01*
X118167738Y-147372380D01*
X118167738Y-146372380D01*
X117834404Y-146372380D01*
X117739166Y-146420000D01*
X117691547Y-146467619D01*
X117643928Y-146562857D01*
X117643928Y-146658095D01*
X117691547Y-146753333D01*
X117739166Y-146800952D01*
X117834404Y-146848571D01*
X118167738Y-146848571D01*
X116739166Y-146372380D02*
X116929642Y-146372380D01*
X117024880Y-146420000D01*
X117072500Y-146467619D01*
X117167738Y-146610476D01*
X117215357Y-146800952D01*
X117215357Y-147181904D01*
X117167738Y-147277142D01*
X117120119Y-147324761D01*
X117024880Y-147372380D01*
X116834404Y-147372380D01*
X116739166Y-147324761D01*
X116691547Y-147277142D01*
X116643928Y-147181904D01*
X116643928Y-146943809D01*
X116691547Y-146848571D01*
X116739166Y-146800952D01*
X116834404Y-146753333D01*
X117024880Y-146753333D01*
X117120119Y-146800952D01*
X117167738Y-146848571D01*
X117215357Y-146943809D01*
X116262976Y-146372380D02*
X116262976Y-146562857D01*
X115882023Y-146372380D02*
X115882023Y-146562857D01*
X115405833Y-147324761D02*
X115405833Y-147372380D01*
X115453452Y-147467619D01*
X115501071Y-147515238D01*
X114262976Y-146372380D02*
X114262976Y-146562857D01*
X113882023Y-146372380D02*
X113882023Y-146562857D01*
X113453452Y-147372380D02*
X113453452Y-146372380D01*
X113215357Y-146372380D01*
X113072500Y-146420000D01*
X112977261Y-146515238D01*
X112929642Y-146610476D01*
X112882023Y-146800952D01*
X112882023Y-146943809D01*
X112929642Y-147134285D01*
X112977261Y-147229523D01*
X113072500Y-147324761D01*
X113215357Y-147372380D01*
X113453452Y-147372380D01*
X112548690Y-146372380D02*
X111882023Y-146372380D01*
X112310595Y-147372380D01*
X111548690Y-146372380D02*
X111548690Y-146562857D01*
X111167738Y-146372380D02*
X111167738Y-146562857D01*
X110834404Y-147705714D02*
X110596309Y-147705714D01*
X110596309Y-146277142D01*
X110834404Y-146277142D01*
X110024880Y-147324761D02*
X110024880Y-147372380D01*
X110072500Y-147467619D01*
X110120119Y-147515238D01*
X144358214Y-148022380D02*
X144358214Y-148212857D01*
X143977261Y-148022380D02*
X143977261Y-148212857D01*
X143548690Y-149022380D02*
X143548690Y-148355714D01*
X143548690Y-148546190D02*
X143501071Y-148450952D01*
X143453452Y-148403333D01*
X143358214Y-148355714D01*
X143262976Y-148355714D01*
X142786785Y-149022380D02*
X142882023Y-148974761D01*
X142929642Y-148927142D01*
X142977261Y-148831904D01*
X142977261Y-148546190D01*
X142929642Y-148450952D01*
X142882023Y-148403333D01*
X142786785Y-148355714D01*
X142643928Y-148355714D01*
X142548690Y-148403333D01*
X142501071Y-148450952D01*
X142453452Y-148546190D01*
X142453452Y-148831904D01*
X142501071Y-148927142D01*
X142548690Y-148974761D01*
X142643928Y-149022380D01*
X142786785Y-149022380D01*
X142120119Y-148355714D02*
X141929642Y-149022380D01*
X141739166Y-148546190D01*
X141548690Y-149022380D01*
X141358214Y-148355714D01*
X141024880Y-148974761D02*
X140929642Y-149022380D01*
X140739166Y-149022380D01*
X140643928Y-148974761D01*
X140596309Y-148879523D01*
X140596309Y-148831904D01*
X140643928Y-148736666D01*
X140739166Y-148689047D01*
X140882023Y-148689047D01*
X140977261Y-148641428D01*
X141024880Y-148546190D01*
X141024880Y-148498571D01*
X140977261Y-148403333D01*
X140882023Y-148355714D01*
X140739166Y-148355714D01*
X140643928Y-148403333D01*
X140215357Y-148022380D02*
X140215357Y-148212857D01*
X139834404Y-148022380D02*
X139834404Y-148212857D01*
X139405833Y-148927142D02*
X139358214Y-148974761D01*
X139405833Y-149022380D01*
X139453452Y-148974761D01*
X139405833Y-148927142D01*
X139405833Y-149022380D01*
X139405833Y-148403333D02*
X139358214Y-148450952D01*
X139405833Y-148498571D01*
X139453452Y-148450952D01*
X139405833Y-148403333D01*
X139405833Y-148498571D01*
X137882023Y-149355714D02*
X138120119Y-149355714D01*
X138120119Y-147927142D01*
X137882023Y-147927142D01*
X137548690Y-148022380D02*
X137548690Y-148212857D01*
X137167738Y-148022380D02*
X137167738Y-148212857D01*
X136405833Y-148498571D02*
X136262976Y-148546190D01*
X136215357Y-148593809D01*
X136167738Y-148689047D01*
X136167738Y-148831904D01*
X136215357Y-148927142D01*
X136262976Y-148974761D01*
X136358214Y-149022380D01*
X136739166Y-149022380D01*
X136739166Y-148022380D01*
X136405833Y-148022380D01*
X136310595Y-148070000D01*
X136262976Y-148117619D01*
X136215357Y-148212857D01*
X136215357Y-148308095D01*
X136262976Y-148403333D01*
X136310595Y-148450952D01*
X136405833Y-148498571D01*
X136739166Y-148498571D01*
X135310595Y-148355714D02*
X135310595Y-149022380D01*
X135548690Y-147974761D02*
X135786785Y-148689047D01*
X135167738Y-148689047D01*
X134834404Y-148022380D02*
X134834404Y-148212857D01*
X134453452Y-148022380D02*
X134453452Y-148212857D01*
X133977261Y-148974761D02*
X133977261Y-149022380D01*
X134024880Y-149117619D01*
X134072500Y-149165238D01*
X132834404Y-148022380D02*
X132834404Y-148212857D01*
X132453452Y-148022380D02*
X132453452Y-148212857D01*
X131691547Y-148498571D02*
X132024880Y-148498571D01*
X132024880Y-149022380D02*
X132024880Y-148022380D01*
X131548690Y-148022380D01*
X130739166Y-148022380D02*
X130929642Y-148022380D01*
X131024880Y-148070000D01*
X131072500Y-148117619D01*
X131167738Y-148260476D01*
X131215357Y-148450952D01*
X131215357Y-148831904D01*
X131167738Y-148927142D01*
X131120119Y-148974761D01*
X131024880Y-149022380D01*
X130834404Y-149022380D01*
X130739166Y-148974761D01*
X130691547Y-148927142D01*
X130643928Y-148831904D01*
X130643928Y-148593809D01*
X130691547Y-148498571D01*
X130739166Y-148450952D01*
X130834404Y-148403333D01*
X131024880Y-148403333D01*
X131120119Y-148450952D01*
X131167738Y-148498571D01*
X131215357Y-148593809D01*
X130262976Y-148022380D02*
X130262976Y-148212857D01*
X129882023Y-148022380D02*
X129882023Y-148212857D01*
X129405833Y-148974761D02*
X129405833Y-149022380D01*
X129453452Y-149117619D01*
X129501071Y-149165238D01*
X128262976Y-148022380D02*
X128262976Y-148212857D01*
X127882023Y-148022380D02*
X127882023Y-148212857D01*
X127453452Y-148498571D02*
X127120119Y-148498571D01*
X126977261Y-149022380D02*
X127453452Y-149022380D01*
X127453452Y-148022380D01*
X126977261Y-148022380D01*
X126120119Y-148022380D02*
X126310595Y-148022380D01*
X126405833Y-148070000D01*
X126453452Y-148117619D01*
X126548690Y-148260476D01*
X126596309Y-148450952D01*
X126596309Y-148831904D01*
X126548690Y-148927142D01*
X126501071Y-148974761D01*
X126405833Y-149022380D01*
X126215357Y-149022380D01*
X126120119Y-148974761D01*
X126072500Y-148927142D01*
X126024880Y-148831904D01*
X126024880Y-148593809D01*
X126072500Y-148498571D01*
X126120119Y-148450952D01*
X126215357Y-148403333D01*
X126405833Y-148403333D01*
X126501071Y-148450952D01*
X126548690Y-148498571D01*
X126596309Y-148593809D01*
X125643928Y-148022380D02*
X125643928Y-148212857D01*
X125262976Y-148022380D02*
X125262976Y-148212857D01*
X124786785Y-148974761D02*
X124786785Y-149022380D01*
X124834404Y-149117619D01*
X124882023Y-149165238D01*
X123643928Y-148022380D02*
X123643928Y-148212857D01*
X123262976Y-148022380D02*
X123262976Y-148212857D01*
X122501071Y-148498571D02*
X122834404Y-148498571D01*
X122834404Y-149022380D02*
X122834404Y-148022380D01*
X122358214Y-148022380D01*
X122072500Y-148022380D02*
X121405833Y-148022380D01*
X121834404Y-149022380D01*
X121072500Y-148022380D02*
X121072500Y-148212857D01*
X120691547Y-148022380D02*
X120691547Y-148212857D01*
X120215357Y-148974761D02*
X120215357Y-149022380D01*
X120262976Y-149117619D01*
X120310595Y-149165238D01*
X119072500Y-148022380D02*
X119072500Y-148212857D01*
X118691547Y-148022380D02*
X118691547Y-148212857D01*
X117929642Y-148498571D02*
X117786785Y-148546190D01*
X117739166Y-148593809D01*
X117691547Y-148689047D01*
X117691547Y-148831904D01*
X117739166Y-148927142D01*
X117786785Y-148974761D01*
X117882023Y-149022380D01*
X118262976Y-149022380D01*
X118262976Y-148022380D01*
X117929642Y-148022380D01*
X117834404Y-148070000D01*
X117786785Y-148117619D01*
X117739166Y-148212857D01*
X117739166Y-148308095D01*
X117786785Y-148403333D01*
X117834404Y-148450952D01*
X117929642Y-148498571D01*
X118262976Y-148498571D01*
X116786785Y-148022380D02*
X117262976Y-148022380D01*
X117310595Y-148498571D01*
X117262976Y-148450952D01*
X117167738Y-148403333D01*
X116929642Y-148403333D01*
X116834404Y-148450952D01*
X116786785Y-148498571D01*
X116739166Y-148593809D01*
X116739166Y-148831904D01*
X116786785Y-148927142D01*
X116834404Y-148974761D01*
X116929642Y-149022380D01*
X117167738Y-149022380D01*
X117262976Y-148974761D01*
X117310595Y-148927142D01*
X116358214Y-148022380D02*
X116358214Y-148212857D01*
X115977261Y-148022380D02*
X115977261Y-148212857D01*
X115501071Y-148974761D02*
X115501071Y-149022380D01*
X115548690Y-149117619D01*
X115596309Y-149165238D01*
X132929642Y-149672380D02*
X132929642Y-149862857D01*
X132548690Y-149672380D02*
X132548690Y-149862857D01*
X131786785Y-150148571D02*
X131643928Y-150196190D01*
X131596309Y-150243809D01*
X131548690Y-150339047D01*
X131548690Y-150481904D01*
X131596309Y-150577142D01*
X131643928Y-150624761D01*
X131739166Y-150672380D01*
X132120119Y-150672380D01*
X132120119Y-149672380D01*
X131786785Y-149672380D01*
X131691547Y-149720000D01*
X131643928Y-149767619D01*
X131596309Y-149862857D01*
X131596309Y-149958095D01*
X131643928Y-150053333D01*
X131691547Y-150100952D01*
X131786785Y-150148571D01*
X132120119Y-150148571D01*
X130596309Y-150672380D02*
X131167738Y-150672380D01*
X130882023Y-150672380D02*
X130882023Y-149672380D01*
X130977261Y-149815238D01*
X131072500Y-149910476D01*
X131167738Y-149958095D01*
X130215357Y-149672380D02*
X130215357Y-149862857D01*
X129834404Y-149672380D02*
X129834404Y-149862857D01*
X129358214Y-150624761D02*
X129358214Y-150672380D01*
X129405833Y-150767619D01*
X129453452Y-150815238D01*
X128215357Y-149672380D02*
X128215357Y-149862857D01*
X127834404Y-149672380D02*
X127834404Y-149862857D01*
X127072500Y-150148571D02*
X127405833Y-150148571D01*
X127405833Y-150672380D02*
X127405833Y-149672380D01*
X126929642Y-149672380D01*
X126120119Y-150005714D02*
X126120119Y-150672380D01*
X126358214Y-149624761D02*
X126596309Y-150339047D01*
X125977261Y-150339047D01*
X125643928Y-149672380D02*
X125643928Y-149862857D01*
X125262976Y-149672380D02*
X125262976Y-149862857D01*
X124786785Y-150624761D02*
X124786785Y-150672380D01*
X124834404Y-150767619D01*
X124882023Y-150815238D01*
X123643928Y-149672380D02*
X123643928Y-149862857D01*
X123262976Y-149672380D02*
X123262976Y-149862857D01*
X122501071Y-150148571D02*
X122358214Y-150196190D01*
X122310595Y-150243809D01*
X122262976Y-150339047D01*
X122262976Y-150481904D01*
X122310595Y-150577142D01*
X122358214Y-150624761D01*
X122453452Y-150672380D01*
X122834404Y-150672380D01*
X122834404Y-149672380D01*
X122501071Y-149672380D01*
X122405833Y-149720000D01*
X122358214Y-149767619D01*
X122310595Y-149862857D01*
X122310595Y-149958095D01*
X122358214Y-150053333D01*
X122405833Y-150100952D01*
X122501071Y-150148571D01*
X122834404Y-150148571D01*
X121929642Y-149672380D02*
X121310595Y-149672380D01*
X121643928Y-150053333D01*
X121501071Y-150053333D01*
X121405833Y-150100952D01*
X121358214Y-150148571D01*
X121310595Y-150243809D01*
X121310595Y-150481904D01*
X121358214Y-150577142D01*
X121405833Y-150624761D01*
X121501071Y-150672380D01*
X121786785Y-150672380D01*
X121882023Y-150624761D01*
X121929642Y-150577142D01*
X120929642Y-149672380D02*
X120929642Y-149862857D01*
X120548690Y-149672380D02*
X120548690Y-149862857D01*
X120072500Y-150624761D02*
X120072500Y-150672380D01*
X120120119Y-150767619D01*
X120167738Y-150815238D01*
X118929642Y-149672380D02*
X118929642Y-149862857D01*
X118548690Y-149672380D02*
X118548690Y-149862857D01*
X117786785Y-150148571D02*
X118120119Y-150148571D01*
X118120119Y-150672380D02*
X118120119Y-149672380D01*
X117643928Y-149672380D01*
X116786785Y-149672380D02*
X117262976Y-149672380D01*
X117310595Y-150148571D01*
X117262976Y-150100952D01*
X117167738Y-150053333D01*
X116929642Y-150053333D01*
X116834404Y-150100952D01*
X116786785Y-150148571D01*
X116739166Y-150243809D01*
X116739166Y-150481904D01*
X116786785Y-150577142D01*
X116834404Y-150624761D01*
X116929642Y-150672380D01*
X117167738Y-150672380D01*
X117262976Y-150624761D01*
X117310595Y-150577142D01*
X116358214Y-149672380D02*
X116358214Y-149862857D01*
X115977261Y-149672380D02*
X115977261Y-149862857D01*
X115501071Y-150624761D02*
X115501071Y-150672380D01*
X115548690Y-150767619D01*
X115596309Y-150815238D01*
X114358214Y-149672380D02*
X114358214Y-149862857D01*
X113977261Y-149672380D02*
X113977261Y-149862857D01*
X113215357Y-150148571D02*
X113072500Y-150196190D01*
X113024880Y-150243809D01*
X112977261Y-150339047D01*
X112977261Y-150481904D01*
X113024880Y-150577142D01*
X113072500Y-150624761D01*
X113167738Y-150672380D01*
X113548690Y-150672380D01*
X113548690Y-149672380D01*
X113215357Y-149672380D01*
X113120119Y-149720000D01*
X113072500Y-149767619D01*
X113024880Y-149862857D01*
X113024880Y-149958095D01*
X113072500Y-150053333D01*
X113120119Y-150100952D01*
X113215357Y-150148571D01*
X113548690Y-150148571D01*
X112596309Y-149767619D02*
X112548690Y-149720000D01*
X112453452Y-149672380D01*
X112215357Y-149672380D01*
X112120119Y-149720000D01*
X112072500Y-149767619D01*
X112024880Y-149862857D01*
X112024880Y-149958095D01*
X112072500Y-150100952D01*
X112643928Y-150672380D01*
X112024880Y-150672380D01*
X111643928Y-149672380D02*
X111643928Y-149862857D01*
X111262976Y-149672380D02*
X111262976Y-149862857D01*
X110929642Y-151005714D02*
X110691547Y-151005714D01*
X110691547Y-149577142D01*
X110929642Y-149577142D01*
X110262976Y-151053333D02*
X110215357Y-151053333D01*
X110120119Y-151005714D01*
X110072500Y-150910476D01*
X110072500Y-150434285D01*
X110024880Y-150339047D01*
X109929642Y-150291428D01*
X110024880Y-150243809D01*
X110072500Y-150148571D01*
X110072500Y-149672380D01*
X110120119Y-149577142D01*
X110215357Y-149529523D01*
X110262976Y-149529523D01*
X109453452Y-150624761D02*
X109453452Y-150672380D01*
X109501071Y-150767619D01*
X109548690Y-150815238D01*
X136336666Y-128348571D02*
X137098571Y-128348571D01*
X137574761Y-128348571D02*
X138336666Y-128348571D01*
X138812857Y-128634285D02*
X139574761Y-128348571D01*
X138812857Y-128062857D01*
X140289047Y-127634285D02*
X140289047Y-129062857D01*
X141003333Y-128348571D02*
X141765238Y-128348571D01*
X142241428Y-128348571D02*
X143003333Y-128348571D01*
X204327261Y-140272380D02*
X203755833Y-140272380D01*
X204041547Y-141272380D02*
X204041547Y-140272380D01*
X203422500Y-141272380D02*
X203422500Y-140272380D01*
X202993928Y-141272380D02*
X202993928Y-140748571D01*
X203041547Y-140653333D01*
X203136785Y-140605714D01*
X203279642Y-140605714D01*
X203374880Y-140653333D01*
X203422500Y-140700952D01*
X202089166Y-140605714D02*
X202089166Y-141272380D01*
X202517738Y-140605714D02*
X202517738Y-141129523D01*
X202470119Y-141224761D01*
X202374880Y-141272380D01*
X202232023Y-141272380D01*
X202136785Y-141224761D01*
X202089166Y-141177142D01*
X201612976Y-141272380D02*
X201612976Y-140605714D01*
X201612976Y-140700952D02*
X201565357Y-140653333D01*
X201470119Y-140605714D01*
X201327261Y-140605714D01*
X201232023Y-140653333D01*
X201184404Y-140748571D01*
X201184404Y-141272380D01*
X201184404Y-140748571D02*
X201136785Y-140653333D01*
X201041547Y-140605714D01*
X200898690Y-140605714D01*
X200803452Y-140653333D01*
X200755833Y-140748571D01*
X200755833Y-141272380D01*
X200279642Y-141272380D02*
X200279642Y-140272380D01*
X200279642Y-140653333D02*
X200184404Y-140605714D01*
X199993928Y-140605714D01*
X199898690Y-140653333D01*
X199851071Y-140700952D01*
X199803452Y-140796190D01*
X199803452Y-141081904D01*
X199851071Y-141177142D01*
X199898690Y-141224761D01*
X199993928Y-141272380D01*
X200184404Y-141272380D01*
X200279642Y-141224761D01*
X199422500Y-141224761D02*
X199327261Y-141272380D01*
X199136785Y-141272380D01*
X199041547Y-141224761D01*
X198993928Y-141129523D01*
X198993928Y-141081904D01*
X199041547Y-140986666D01*
X199136785Y-140939047D01*
X199279642Y-140939047D01*
X199374880Y-140891428D01*
X199422500Y-140796190D01*
X199422500Y-140748571D01*
X199374880Y-140653333D01*
X199279642Y-140605714D01*
X199136785Y-140605714D01*
X199041547Y-140653333D01*
X198565357Y-140272380D02*
X198565357Y-141081904D01*
X198517738Y-141177142D01*
X198470119Y-141224761D01*
X198374880Y-141272380D01*
X198184404Y-141272380D01*
X198089166Y-141224761D01*
X198041547Y-141177142D01*
X197993928Y-141081904D01*
X197993928Y-140272380D01*
X197517738Y-140605714D02*
X197517738Y-141605714D01*
X197517738Y-140653333D02*
X197422500Y-140605714D01*
X197232023Y-140605714D01*
X197136785Y-140653333D01*
X197089166Y-140700952D01*
X197041547Y-140796190D01*
X197041547Y-141081904D01*
X197089166Y-141177142D01*
X197136785Y-141224761D01*
X197232023Y-141272380D01*
X197422500Y-141272380D01*
X197517738Y-141224761D01*
X196612976Y-141177142D02*
X196565357Y-141224761D01*
X196612976Y-141272380D01*
X196660595Y-141224761D01*
X196612976Y-141177142D01*
X196612976Y-141272380D01*
X196612976Y-140891428D02*
X196660595Y-140320000D01*
X196612976Y-140272380D01*
X196565357Y-140320000D01*
X196612976Y-140891428D01*
X196612976Y-140272380D01*
X195470119Y-140605714D02*
X195232023Y-141272380D01*
X194993928Y-140605714D01*
X194470119Y-140700952D02*
X194565357Y-140653333D01*
X194612976Y-140605714D01*
X194660595Y-140510476D01*
X194660595Y-140462857D01*
X194612976Y-140367619D01*
X194565357Y-140320000D01*
X194470119Y-140272380D01*
X194279642Y-140272380D01*
X194184404Y-140320000D01*
X194136785Y-140367619D01*
X194089166Y-140462857D01*
X194089166Y-140510476D01*
X194136785Y-140605714D01*
X194184404Y-140653333D01*
X194279642Y-140700952D01*
X194470119Y-140700952D01*
X194565357Y-140748571D01*
X194612976Y-140796190D01*
X194660595Y-140891428D01*
X194660595Y-141081904D01*
X194612976Y-141177142D01*
X194565357Y-141224761D01*
X194470119Y-141272380D01*
X194279642Y-141272380D01*
X194184404Y-141224761D01*
X194136785Y-141177142D01*
X194089166Y-141081904D01*
X194089166Y-140891428D01*
X194136785Y-140796190D01*
X194184404Y-140748571D01*
X194279642Y-140700952D01*
X192898690Y-141272380D02*
X192898690Y-140272380D01*
X192517738Y-140272380D01*
X192422500Y-140320000D01*
X192374880Y-140367619D01*
X192327261Y-140462857D01*
X192327261Y-140605714D01*
X192374880Y-140700952D01*
X192422500Y-140748571D01*
X192517738Y-140796190D01*
X192898690Y-140796190D01*
X191898690Y-141272380D02*
X191898690Y-140605714D01*
X191898690Y-140796190D02*
X191851071Y-140700952D01*
X191803452Y-140653333D01*
X191708214Y-140605714D01*
X191612976Y-140605714D01*
X191136785Y-141272380D02*
X191232023Y-141224761D01*
X191279642Y-141177142D01*
X191327261Y-141081904D01*
X191327261Y-140796190D01*
X191279642Y-140700952D01*
X191232023Y-140653333D01*
X191136785Y-140605714D01*
X190993928Y-140605714D01*
X190898690Y-140653333D01*
X190851071Y-140700952D01*
X190803452Y-140796190D01*
X190803452Y-141081904D01*
X190851071Y-141177142D01*
X190898690Y-141224761D01*
X190993928Y-141272380D01*
X191136785Y-141272380D01*
X190374880Y-141272380D02*
X190374880Y-140272380D01*
X190041547Y-140986666D01*
X189708214Y-140272380D01*
X189708214Y-141272380D01*
X189232023Y-141272380D02*
X189232023Y-140605714D01*
X189232023Y-140272380D02*
X189279642Y-140320000D01*
X189232023Y-140367619D01*
X189184404Y-140320000D01*
X189232023Y-140272380D01*
X189232023Y-140367619D01*
X188327261Y-141224761D02*
X188422500Y-141272380D01*
X188612976Y-141272380D01*
X188708214Y-141224761D01*
X188755833Y-141177142D01*
X188803452Y-141081904D01*
X188803452Y-140796190D01*
X188755833Y-140700952D01*
X188708214Y-140653333D01*
X188612976Y-140605714D01*
X188422500Y-140605714D01*
X188327261Y-140653333D01*
X187898690Y-141272380D02*
X187898690Y-140605714D01*
X187898690Y-140796190D02*
X187851071Y-140700952D01*
X187803452Y-140653333D01*
X187708214Y-140605714D01*
X187612976Y-140605714D01*
X187136785Y-141272380D02*
X187232023Y-141224761D01*
X187279642Y-141177142D01*
X187327261Y-141081904D01*
X187327261Y-140796190D01*
X187279642Y-140700952D01*
X187232023Y-140653333D01*
X187136785Y-140605714D01*
X186993928Y-140605714D01*
X186898690Y-140653333D01*
X186851071Y-140700952D01*
X186803452Y-140796190D01*
X186803452Y-141081904D01*
X186851071Y-141177142D01*
X186898690Y-141224761D01*
X186993928Y-141272380D01*
X187136785Y-141272380D01*
X204184404Y-142922380D02*
X204184404Y-141922380D01*
X203612976Y-142922380D02*
X204041547Y-142350952D01*
X203612976Y-141922380D02*
X204184404Y-142493809D01*
X202755833Y-142922380D02*
X202755833Y-142398571D01*
X202803452Y-142303333D01*
X202898690Y-142255714D01*
X203089166Y-142255714D01*
X203184404Y-142303333D01*
X202755833Y-142874761D02*
X202851071Y-142922380D01*
X203089166Y-142922380D01*
X203184404Y-142874761D01*
X203232023Y-142779523D01*
X203232023Y-142684285D01*
X203184404Y-142589047D01*
X203089166Y-142541428D01*
X202851071Y-142541428D01*
X202755833Y-142493809D01*
X202279642Y-142922380D02*
X202279642Y-142255714D01*
X202279642Y-141922380D02*
X202327261Y-141970000D01*
X202279642Y-142017619D01*
X202232023Y-141970000D01*
X202279642Y-141922380D01*
X202279642Y-142017619D01*
X201660595Y-142922380D02*
X201755833Y-142874761D01*
X201803452Y-142779523D01*
X201803452Y-141922380D01*
X201279642Y-142922380D02*
X201279642Y-141922380D01*
X200851071Y-142922380D02*
X200851071Y-142398571D01*
X200898690Y-142303333D01*
X200993928Y-142255714D01*
X201136785Y-142255714D01*
X201232023Y-142303333D01*
X201279642Y-142350952D01*
X199041547Y-142827142D02*
X199089166Y-142874761D01*
X199232023Y-142922380D01*
X199327261Y-142922380D01*
X199470119Y-142874761D01*
X199565357Y-142779523D01*
X199612976Y-142684285D01*
X199660595Y-142493809D01*
X199660595Y-142350952D01*
X199612976Y-142160476D01*
X199565357Y-142065238D01*
X199470119Y-141970000D01*
X199327261Y-141922380D01*
X199232023Y-141922380D01*
X199089166Y-141970000D01*
X199041547Y-142017619D01*
X198612976Y-142922380D02*
X198612976Y-141922380D01*
X198184404Y-142922380D02*
X198184404Y-142398571D01*
X198232023Y-142303333D01*
X198327261Y-142255714D01*
X198470119Y-142255714D01*
X198565357Y-142303333D01*
X198612976Y-142350952D01*
X197565357Y-142922380D02*
X197660595Y-142874761D01*
X197708214Y-142827142D01*
X197755833Y-142731904D01*
X197755833Y-142446190D01*
X197708214Y-142350952D01*
X197660595Y-142303333D01*
X197565357Y-142255714D01*
X197422500Y-142255714D01*
X197327261Y-142303333D01*
X197279642Y-142350952D01*
X197232023Y-142446190D01*
X197232023Y-142731904D01*
X197279642Y-142827142D01*
X197327261Y-142874761D01*
X197422500Y-142922380D01*
X197565357Y-142922380D01*
X196374880Y-142874761D02*
X196470119Y-142922380D01*
X196660595Y-142922380D01*
X196755833Y-142874761D01*
X196803452Y-142827142D01*
X196851071Y-142731904D01*
X196851071Y-142446190D01*
X196803452Y-142350952D01*
X196755833Y-142303333D01*
X196660595Y-142255714D01*
X196470119Y-142255714D01*
X196374880Y-142303333D01*
X195232023Y-141874761D02*
X196089166Y-143160476D01*
X194374880Y-141970000D02*
X194470119Y-141922380D01*
X194612976Y-141922380D01*
X194755833Y-141970000D01*
X194851071Y-142065238D01*
X194898690Y-142160476D01*
X194946309Y-142350952D01*
X194946309Y-142493809D01*
X194898690Y-142684285D01*
X194851071Y-142779523D01*
X194755833Y-142874761D01*
X194612976Y-142922380D01*
X194517738Y-142922380D01*
X194374880Y-142874761D01*
X194327261Y-142827142D01*
X194327261Y-142493809D01*
X194517738Y-142493809D01*
X193470119Y-142922380D02*
X193470119Y-142398571D01*
X193517738Y-142303333D01*
X193612976Y-142255714D01*
X193803452Y-142255714D01*
X193898690Y-142303333D01*
X193470119Y-142874761D02*
X193565357Y-142922380D01*
X193803452Y-142922380D01*
X193898690Y-142874761D01*
X193946309Y-142779523D01*
X193946309Y-142684285D01*
X193898690Y-142589047D01*
X193803452Y-142541428D01*
X193565357Y-142541428D01*
X193470119Y-142493809D01*
X193136785Y-142255714D02*
X192755833Y-142255714D01*
X192993928Y-141922380D02*
X192993928Y-142779523D01*
X192946309Y-142874761D01*
X192851071Y-142922380D01*
X192755833Y-142922380D01*
X191184404Y-142922380D02*
X191660595Y-142922380D01*
X191660595Y-141922380D01*
X190708214Y-142922380D02*
X190803452Y-142874761D01*
X190851071Y-142827142D01*
X190898690Y-142731904D01*
X190898690Y-142446190D01*
X190851071Y-142350952D01*
X190803452Y-142303333D01*
X190708214Y-142255714D01*
X190565357Y-142255714D01*
X190470119Y-142303333D01*
X190422500Y-142350952D01*
X190374880Y-142446190D01*
X190374880Y-142731904D01*
X190422500Y-142827142D01*
X190470119Y-142874761D01*
X190565357Y-142922380D01*
X190708214Y-142922380D01*
X190041547Y-142255714D02*
X189851071Y-142922380D01*
X189660595Y-142446190D01*
X189470119Y-142922380D01*
X189279642Y-142255714D01*
X188136785Y-142922380D02*
X188136785Y-141922380D01*
X187755833Y-141922380D01*
X187660595Y-141970000D01*
X187612976Y-142017619D01*
X187565357Y-142112857D01*
X187565357Y-142255714D01*
X187612976Y-142350952D01*
X187660595Y-142398571D01*
X187755833Y-142446190D01*
X188136785Y-142446190D01*
X187136785Y-142922380D02*
X187136785Y-142255714D01*
X187136785Y-142446190D02*
X187089166Y-142350952D01*
X187041547Y-142303333D01*
X186946309Y-142255714D01*
X186851071Y-142255714D01*
X186374880Y-142922380D02*
X186470119Y-142874761D01*
X186517738Y-142827142D01*
X186565357Y-142731904D01*
X186565357Y-142446190D01*
X186517738Y-142350952D01*
X186470119Y-142303333D01*
X186374880Y-142255714D01*
X186232023Y-142255714D01*
X186136785Y-142303333D01*
X186089166Y-142350952D01*
X186041547Y-142446190D01*
X186041547Y-142731904D01*
X186089166Y-142827142D01*
X186136785Y-142874761D01*
X186232023Y-142922380D01*
X186374880Y-142922380D01*
X185755833Y-142255714D02*
X185374880Y-142255714D01*
X185612976Y-142922380D02*
X185612976Y-142065238D01*
X185565357Y-141970000D01*
X185470119Y-141922380D01*
X185374880Y-141922380D01*
X185041547Y-142922380D02*
X185041547Y-142255714D01*
X185041547Y-141922380D02*
X185089166Y-141970000D01*
X185041547Y-142017619D01*
X184993928Y-141970000D01*
X185041547Y-141922380D01*
X185041547Y-142017619D01*
X184422500Y-142922380D02*
X184517738Y-142874761D01*
X184565357Y-142779523D01*
X184565357Y-141922380D01*
X183660595Y-142874761D02*
X183755833Y-142922380D01*
X183946309Y-142922380D01*
X184041547Y-142874761D01*
X184089166Y-142779523D01*
X184089166Y-142398571D01*
X184041547Y-142303333D01*
X183946309Y-142255714D01*
X183755833Y-142255714D01*
X183660595Y-142303333D01*
X183612976Y-142398571D01*
X183612976Y-142493809D01*
X184089166Y-142589047D01*
X182422500Y-142922380D02*
X182422500Y-141922380D01*
X182422500Y-142398571D02*
X181851071Y-142398571D01*
X181851071Y-142922380D02*
X181851071Y-141922380D01*
X181232023Y-142922380D02*
X181327261Y-142874761D01*
X181374880Y-142827142D01*
X181422500Y-142731904D01*
X181422500Y-142446190D01*
X181374880Y-142350952D01*
X181327261Y-142303333D01*
X181232023Y-142255714D01*
X181089166Y-142255714D01*
X180993928Y-142303333D01*
X180946309Y-142350952D01*
X180898690Y-142446190D01*
X180898690Y-142731904D01*
X180946309Y-142827142D01*
X180993928Y-142874761D01*
X181089166Y-142922380D01*
X181232023Y-142922380D01*
X180612976Y-142255714D02*
X180232023Y-142255714D01*
X180470119Y-141922380D02*
X180470119Y-142779523D01*
X180422500Y-142874761D01*
X180327261Y-142922380D01*
X180232023Y-142922380D01*
X179898690Y-142541428D02*
X179136785Y-142541428D01*
X178708214Y-142874761D02*
X178565357Y-142922380D01*
X178327261Y-142922380D01*
X178232023Y-142874761D01*
X178184404Y-142827142D01*
X178136785Y-142731904D01*
X178136785Y-142636666D01*
X178184404Y-142541428D01*
X178232023Y-142493809D01*
X178327261Y-142446190D01*
X178517738Y-142398571D01*
X178612976Y-142350952D01*
X178660595Y-142303333D01*
X178708214Y-142208095D01*
X178708214Y-142112857D01*
X178660595Y-142017619D01*
X178612976Y-141970000D01*
X178517738Y-141922380D01*
X178279642Y-141922380D01*
X178136785Y-141970000D01*
X177803452Y-142255714D02*
X177612976Y-142922380D01*
X177422500Y-142446190D01*
X177232023Y-142922380D01*
X177041547Y-142255714D01*
X176232023Y-142922380D02*
X176232023Y-142398571D01*
X176279642Y-142303333D01*
X176374880Y-142255714D01*
X176565357Y-142255714D01*
X176660595Y-142303333D01*
X176232023Y-142874761D02*
X176327261Y-142922380D01*
X176565357Y-142922380D01*
X176660595Y-142874761D01*
X176708214Y-142779523D01*
X176708214Y-142684285D01*
X176660595Y-142589047D01*
X176565357Y-142541428D01*
X176327261Y-142541428D01*
X176232023Y-142493809D01*
X175755833Y-142255714D02*
X175755833Y-143255714D01*
X175755833Y-142303333D02*
X175660595Y-142255714D01*
X175470119Y-142255714D01*
X175374880Y-142303333D01*
X175327261Y-142350952D01*
X175279642Y-142446190D01*
X175279642Y-142731904D01*
X175327261Y-142827142D01*
X175374880Y-142874761D01*
X175470119Y-142922380D01*
X175660595Y-142922380D01*
X175755833Y-142874761D01*
X174136785Y-142874761D02*
X173993928Y-142922380D01*
X173755833Y-142922380D01*
X173660595Y-142874761D01*
X173612976Y-142827142D01*
X173565357Y-142731904D01*
X173565357Y-142636666D01*
X173612976Y-142541428D01*
X173660595Y-142493809D01*
X173755833Y-142446190D01*
X173946309Y-142398571D01*
X174041547Y-142350952D01*
X174089166Y-142303333D01*
X174136785Y-142208095D01*
X174136785Y-142112857D01*
X174089166Y-142017619D01*
X174041547Y-141970000D01*
X173946309Y-141922380D01*
X173708214Y-141922380D01*
X173565357Y-141970000D01*
X172993928Y-142922380D02*
X173089166Y-142874761D01*
X173136785Y-142827142D01*
X173184404Y-142731904D01*
X173184404Y-142446190D01*
X173136785Y-142350952D01*
X173089166Y-142303333D01*
X172993928Y-142255714D01*
X172851071Y-142255714D01*
X172755833Y-142303333D01*
X172708214Y-142350952D01*
X172660595Y-142446190D01*
X172660595Y-142731904D01*
X172708214Y-142827142D01*
X172755833Y-142874761D01*
X172851071Y-142922380D01*
X172993928Y-142922380D01*
X171803452Y-142874761D02*
X171898690Y-142922380D01*
X172089166Y-142922380D01*
X172184404Y-142874761D01*
X172232023Y-142827142D01*
X172279642Y-142731904D01*
X172279642Y-142446190D01*
X172232023Y-142350952D01*
X172184404Y-142303333D01*
X172089166Y-142255714D01*
X171898690Y-142255714D01*
X171803452Y-142303333D01*
X171374880Y-142922380D02*
X171374880Y-141922380D01*
X171279642Y-142541428D02*
X170993928Y-142922380D01*
X170993928Y-142255714D02*
X171374880Y-142636666D01*
X170184404Y-142874761D02*
X170279642Y-142922380D01*
X170470119Y-142922380D01*
X170565357Y-142874761D01*
X170612976Y-142779523D01*
X170612976Y-142398571D01*
X170565357Y-142303333D01*
X170470119Y-142255714D01*
X170279642Y-142255714D01*
X170184404Y-142303333D01*
X170136785Y-142398571D01*
X170136785Y-142493809D01*
X170612976Y-142589047D01*
X169851071Y-142255714D02*
X169470119Y-142255714D01*
X169708214Y-141922380D02*
X169708214Y-142779523D01*
X169660595Y-142874761D01*
X169565357Y-142922380D01*
X169470119Y-142922380D01*
X169184404Y-142874761D02*
X169089166Y-142922380D01*
X168898690Y-142922380D01*
X168803452Y-142874761D01*
X168755833Y-142779523D01*
X168755833Y-142731904D01*
X168803452Y-142636666D01*
X168898690Y-142589047D01*
X169041547Y-142589047D01*
X169136785Y-142541428D01*
X169184404Y-142446190D01*
X169184404Y-142398571D01*
X169136785Y-142303333D01*
X169041547Y-142255714D01*
X168898690Y-142255714D01*
X168803452Y-142303333D01*
X203755833Y-143905714D02*
X203755833Y-144572380D01*
X204184404Y-143905714D02*
X204184404Y-144429523D01*
X204136785Y-144524761D01*
X204041547Y-144572380D01*
X203898690Y-144572380D01*
X203803452Y-144524761D01*
X203755833Y-144477142D01*
X202565357Y-143524761D02*
X203422500Y-144810476D01*
X201803452Y-144572380D02*
X201803452Y-144048571D01*
X201851071Y-143953333D01*
X201946309Y-143905714D01*
X202136785Y-143905714D01*
X202232023Y-143953333D01*
X201803452Y-144524761D02*
X201898690Y-144572380D01*
X202136785Y-144572380D01*
X202232023Y-144524761D01*
X202279642Y-144429523D01*
X202279642Y-144334285D01*
X202232023Y-144239047D01*
X202136785Y-144191428D01*
X201898690Y-144191428D01*
X201803452Y-144143809D01*
X201327261Y-144572380D02*
X201327261Y-143572380D01*
X201232023Y-144191428D02*
X200946309Y-144572380D01*
X200946309Y-143905714D02*
X201327261Y-144286666D01*
X200089166Y-143572380D02*
X200279642Y-143572380D01*
X200374880Y-143620000D01*
X200422500Y-143667619D01*
X200517738Y-143810476D01*
X200565357Y-144000952D01*
X200565357Y-144381904D01*
X200517738Y-144477142D01*
X200470119Y-144524761D01*
X200374880Y-144572380D01*
X200184404Y-144572380D01*
X200089166Y-144524761D01*
X200041547Y-144477142D01*
X199993928Y-144381904D01*
X199993928Y-144143809D01*
X200041547Y-144048571D01*
X200089166Y-144000952D01*
X200184404Y-143953333D01*
X200374880Y-143953333D01*
X200470119Y-144000952D01*
X200517738Y-144048571D01*
X200565357Y-144143809D01*
X199136785Y-143572380D02*
X199327261Y-143572380D01*
X199422500Y-143620000D01*
X199470119Y-143667619D01*
X199565357Y-143810476D01*
X199612976Y-144000952D01*
X199612976Y-144381904D01*
X199565357Y-144477142D01*
X199517738Y-144524761D01*
X199422500Y-144572380D01*
X199232023Y-144572380D01*
X199136785Y-144524761D01*
X199089166Y-144477142D01*
X199041547Y-144381904D01*
X199041547Y-144143809D01*
X199089166Y-144048571D01*
X199136785Y-144000952D01*
X199232023Y-143953333D01*
X199422500Y-143953333D01*
X199517738Y-144000952D01*
X199565357Y-144048571D01*
X199612976Y-144143809D01*
X198184404Y-143572380D02*
X198374880Y-143572380D01*
X198470119Y-143620000D01*
X198517738Y-143667619D01*
X198612976Y-143810476D01*
X198660595Y-144000952D01*
X198660595Y-144381904D01*
X198612976Y-144477142D01*
X198565357Y-144524761D01*
X198470119Y-144572380D01*
X198279642Y-144572380D01*
X198184404Y-144524761D01*
X198136785Y-144477142D01*
X198089166Y-144381904D01*
X198089166Y-144143809D01*
X198136785Y-144048571D01*
X198184404Y-144000952D01*
X198279642Y-143953333D01*
X198470119Y-143953333D01*
X198565357Y-144000952D01*
X198612976Y-144048571D01*
X198660595Y-144143809D01*
X197232023Y-143572380D02*
X197422500Y-143572380D01*
X197517738Y-143620000D01*
X197565357Y-143667619D01*
X197660595Y-143810476D01*
X197708214Y-144000952D01*
X197708214Y-144381904D01*
X197660595Y-144477142D01*
X197612976Y-144524761D01*
X197517738Y-144572380D01*
X197327261Y-144572380D01*
X197232023Y-144524761D01*
X197184404Y-144477142D01*
X197136785Y-144381904D01*
X197136785Y-144143809D01*
X197184404Y-144048571D01*
X197232023Y-144000952D01*
X197327261Y-143953333D01*
X197517738Y-143953333D01*
X197612976Y-144000952D01*
X197660595Y-144048571D01*
X197708214Y-144143809D01*
X196279642Y-143572380D02*
X196470119Y-143572380D01*
X196565357Y-143620000D01*
X196612976Y-143667619D01*
X196708214Y-143810476D01*
X196755833Y-144000952D01*
X196755833Y-144381904D01*
X196708214Y-144477142D01*
X196660595Y-144524761D01*
X196565357Y-144572380D01*
X196374880Y-144572380D01*
X196279642Y-144524761D01*
X196232023Y-144477142D01*
X196184404Y-144381904D01*
X196184404Y-144143809D01*
X196232023Y-144048571D01*
X196279642Y-144000952D01*
X196374880Y-143953333D01*
X196565357Y-143953333D01*
X196660595Y-144000952D01*
X196708214Y-144048571D01*
X196755833Y-144143809D01*
X195708214Y-144524761D02*
X195708214Y-144572380D01*
X195755833Y-144667619D01*
X195803452Y-144715238D01*
X194327261Y-143572380D02*
X194136785Y-143572380D01*
X194041547Y-143620000D01*
X193946309Y-143715238D01*
X193898690Y-143905714D01*
X193898690Y-144239047D01*
X193946309Y-144429523D01*
X194041547Y-144524761D01*
X194136785Y-144572380D01*
X194327261Y-144572380D01*
X194422500Y-144524761D01*
X194517738Y-144429523D01*
X194565357Y-144239047D01*
X194565357Y-143905714D01*
X194517738Y-143715238D01*
X194422500Y-143620000D01*
X194327261Y-143572380D01*
X193041547Y-144524761D02*
X193136785Y-144572380D01*
X193327261Y-144572380D01*
X193422500Y-144524761D01*
X193470119Y-144477142D01*
X193517738Y-144381904D01*
X193517738Y-144096190D01*
X193470119Y-144000952D01*
X193422500Y-143953333D01*
X193327261Y-143905714D01*
X193136785Y-143905714D01*
X193041547Y-143953333D01*
X192755833Y-143905714D02*
X192374880Y-143905714D01*
X192612976Y-143572380D02*
X192612976Y-144429523D01*
X192565357Y-144524761D01*
X192470119Y-144572380D01*
X192374880Y-144572380D01*
X191089166Y-143572380D02*
X190993928Y-143572380D01*
X190898690Y-143620000D01*
X190851071Y-143667619D01*
X190803452Y-143762857D01*
X190755833Y-143953333D01*
X190755833Y-144191428D01*
X190803452Y-144381904D01*
X190851071Y-144477142D01*
X190898690Y-144524761D01*
X190993928Y-144572380D01*
X191089166Y-144572380D01*
X191184404Y-144524761D01*
X191232023Y-144477142D01*
X191279642Y-144381904D01*
X191327261Y-144191428D01*
X191327261Y-143953333D01*
X191279642Y-143762857D01*
X191232023Y-143667619D01*
X191184404Y-143620000D01*
X191089166Y-143572380D01*
X189803452Y-144572380D02*
X190374880Y-144572380D01*
X190089166Y-144572380D02*
X190089166Y-143572380D01*
X190184404Y-143715238D01*
X190279642Y-143810476D01*
X190374880Y-143858095D01*
X189327261Y-144524761D02*
X189327261Y-144572380D01*
X189374880Y-144667619D01*
X189422500Y-144715238D01*
X188184404Y-143667619D02*
X188136785Y-143620000D01*
X188041547Y-143572380D01*
X187803452Y-143572380D01*
X187708214Y-143620000D01*
X187660595Y-143667619D01*
X187612976Y-143762857D01*
X187612976Y-143858095D01*
X187660595Y-144000952D01*
X188232023Y-144572380D01*
X187612976Y-144572380D01*
X186993928Y-143572380D02*
X186898690Y-143572380D01*
X186803452Y-143620000D01*
X186755833Y-143667619D01*
X186708214Y-143762857D01*
X186660595Y-143953333D01*
X186660595Y-144191428D01*
X186708214Y-144381904D01*
X186755833Y-144477142D01*
X186803452Y-144524761D01*
X186898690Y-144572380D01*
X186993928Y-144572380D01*
X187089166Y-144524761D01*
X187136785Y-144477142D01*
X187184404Y-144381904D01*
X187232023Y-144191428D01*
X187232023Y-143953333D01*
X187184404Y-143762857D01*
X187136785Y-143667619D01*
X187089166Y-143620000D01*
X186993928Y-143572380D01*
X186279642Y-143667619D02*
X186232023Y-143620000D01*
X186136785Y-143572380D01*
X185898690Y-143572380D01*
X185803452Y-143620000D01*
X185755833Y-143667619D01*
X185708214Y-143762857D01*
X185708214Y-143858095D01*
X185755833Y-144000952D01*
X186327261Y-144572380D01*
X185708214Y-144572380D01*
X185374880Y-143572380D02*
X184755833Y-143572380D01*
X185089166Y-143953333D01*
X184946309Y-143953333D01*
X184851071Y-144000952D01*
X184803452Y-144048571D01*
X184755833Y-144143809D01*
X184755833Y-144381904D01*
X184803452Y-144477142D01*
X184851071Y-144524761D01*
X184946309Y-144572380D01*
X185232023Y-144572380D01*
X185327261Y-144524761D01*
X185374880Y-144477142D01*
X170203333Y-139441428D02*
X169441428Y-139441428D01*
X168965238Y-139441428D02*
X168203333Y-139441428D01*
X167727142Y-139155714D02*
X166965238Y-139441428D01*
X167727142Y-139727142D01*
X166250952Y-140155714D02*
X166250952Y-138727142D01*
X165536666Y-139441428D02*
X164774761Y-139441428D01*
X164298571Y-139441428D02*
X163536666Y-139441428D01*
X136191428Y-129086666D02*
X136191428Y-129848571D01*
X136191428Y-130324761D02*
X136191428Y-131086666D01*
X135905714Y-131562857D02*
X136191428Y-132324761D01*
X136477142Y-131562857D01*
X136905714Y-133039047D02*
X135477142Y-133039047D01*
X136191428Y-133753333D02*
X136191428Y-134515238D01*
X136191428Y-134991428D02*
X136191428Y-135753333D01*
X214441428Y-126036666D02*
X214441428Y-126798571D01*
X214441428Y-127274761D02*
X214441428Y-128036666D01*
X214155714Y-128512857D02*
X214441428Y-129274761D01*
X214727142Y-128512857D01*
X215155714Y-129989047D02*
X213727142Y-129989047D01*
X214441428Y-130703333D02*
X214441428Y-131465238D01*
X214441428Y-131941428D02*
X214441428Y-132703333D01*
X157912857Y-99897380D02*
X157912857Y-98897380D01*
X157531904Y-98897380D01*
X157436666Y-98945000D01*
X157389047Y-98992619D01*
X157341428Y-99087857D01*
X157341428Y-99230714D01*
X157389047Y-99325952D01*
X157436666Y-99373571D01*
X157531904Y-99421190D01*
X157912857Y-99421190D01*
X156484285Y-99230714D02*
X156484285Y-99897380D01*
X156912857Y-99230714D02*
X156912857Y-99754523D01*
X156865238Y-99849761D01*
X156770000Y-99897380D01*
X156627142Y-99897380D01*
X156531904Y-99849761D01*
X156484285Y-99802142D01*
X156150952Y-99230714D02*
X155770000Y-99230714D01*
X156008095Y-98897380D02*
X156008095Y-99754523D01*
X155960476Y-99849761D01*
X155865238Y-99897380D01*
X155770000Y-99897380D01*
X154674761Y-99897380D02*
X154674761Y-98897380D01*
X154293809Y-98897380D01*
X154198571Y-98945000D01*
X154150952Y-98992619D01*
X154103333Y-99087857D01*
X154103333Y-99230714D01*
X154150952Y-99325952D01*
X154198571Y-99373571D01*
X154293809Y-99421190D01*
X154674761Y-99421190D01*
X153674761Y-99897380D02*
X153674761Y-99230714D01*
X153674761Y-99421190D02*
X153627142Y-99325952D01*
X153579523Y-99278333D01*
X153484285Y-99230714D01*
X153389047Y-99230714D01*
X152912857Y-99897380D02*
X153008095Y-99849761D01*
X153055714Y-99802142D01*
X153103333Y-99706904D01*
X153103333Y-99421190D01*
X153055714Y-99325952D01*
X153008095Y-99278333D01*
X152912857Y-99230714D01*
X152770000Y-99230714D01*
X152674761Y-99278333D01*
X152627142Y-99325952D01*
X152579523Y-99421190D01*
X152579523Y-99706904D01*
X152627142Y-99802142D01*
X152674761Y-99849761D01*
X152770000Y-99897380D01*
X152912857Y-99897380D01*
X152150952Y-99897380D02*
X152150952Y-98897380D01*
X151817619Y-99611666D01*
X151484285Y-98897380D01*
X151484285Y-99897380D01*
X151008095Y-99897380D02*
X151008095Y-99230714D01*
X151008095Y-98897380D02*
X151055714Y-98945000D01*
X151008095Y-98992619D01*
X150960476Y-98945000D01*
X151008095Y-98897380D01*
X151008095Y-98992619D01*
X150103333Y-99849761D02*
X150198571Y-99897380D01*
X150389047Y-99897380D01*
X150484285Y-99849761D01*
X150531904Y-99802142D01*
X150579523Y-99706904D01*
X150579523Y-99421190D01*
X150531904Y-99325952D01*
X150484285Y-99278333D01*
X150389047Y-99230714D01*
X150198571Y-99230714D01*
X150103333Y-99278333D01*
X149674761Y-99897380D02*
X149674761Y-99230714D01*
X149674761Y-99421190D02*
X149627142Y-99325952D01*
X149579523Y-99278333D01*
X149484285Y-99230714D01*
X149389047Y-99230714D01*
X148912857Y-99897380D02*
X149008095Y-99849761D01*
X149055714Y-99802142D01*
X149103333Y-99706904D01*
X149103333Y-99421190D01*
X149055714Y-99325952D01*
X149008095Y-99278333D01*
X148912857Y-99230714D01*
X148770000Y-99230714D01*
X148674761Y-99278333D01*
X148627142Y-99325952D01*
X148579523Y-99421190D01*
X148579523Y-99706904D01*
X148627142Y-99802142D01*
X148674761Y-99849761D01*
X148770000Y-99897380D01*
X148912857Y-99897380D01*
X157293809Y-101023571D02*
X157627142Y-101023571D01*
X157627142Y-101547380D02*
X157627142Y-100547380D01*
X157150952Y-100547380D01*
X156341428Y-101547380D02*
X156341428Y-101023571D01*
X156389047Y-100928333D01*
X156484285Y-100880714D01*
X156674761Y-100880714D01*
X156770000Y-100928333D01*
X156341428Y-101499761D02*
X156436666Y-101547380D01*
X156674761Y-101547380D01*
X156770000Y-101499761D01*
X156817619Y-101404523D01*
X156817619Y-101309285D01*
X156770000Y-101214047D01*
X156674761Y-101166428D01*
X156436666Y-101166428D01*
X156341428Y-101118809D01*
X155436666Y-101499761D02*
X155531904Y-101547380D01*
X155722380Y-101547380D01*
X155817619Y-101499761D01*
X155865238Y-101452142D01*
X155912857Y-101356904D01*
X155912857Y-101071190D01*
X155865238Y-100975952D01*
X155817619Y-100928333D01*
X155722380Y-100880714D01*
X155531904Y-100880714D01*
X155436666Y-100928333D01*
X154627142Y-101499761D02*
X154722380Y-101547380D01*
X154912857Y-101547380D01*
X155008095Y-101499761D01*
X155055714Y-101404523D01*
X155055714Y-101023571D01*
X155008095Y-100928333D01*
X154912857Y-100880714D01*
X154722380Y-100880714D01*
X154627142Y-100928333D01*
X154579523Y-101023571D01*
X154579523Y-101118809D01*
X155055714Y-101214047D01*
X153531904Y-100880714D02*
X153150952Y-100880714D01*
X153389047Y-100547380D02*
X153389047Y-101404523D01*
X153341428Y-101499761D01*
X153246190Y-101547380D01*
X153150952Y-101547380D01*
X152674761Y-101547380D02*
X152770000Y-101499761D01*
X152817619Y-101452142D01*
X152865238Y-101356904D01*
X152865238Y-101071190D01*
X152817619Y-100975952D01*
X152770000Y-100928333D01*
X152674761Y-100880714D01*
X152531904Y-100880714D01*
X152436666Y-100928333D01*
X152389047Y-100975952D01*
X152341428Y-101071190D01*
X152341428Y-101356904D01*
X152389047Y-101452142D01*
X152436666Y-101499761D01*
X152531904Y-101547380D01*
X152674761Y-101547380D01*
X151150952Y-101547380D02*
X151150952Y-100547380D01*
X150770000Y-100547380D01*
X150674761Y-100595000D01*
X150627142Y-100642619D01*
X150579523Y-100737857D01*
X150579523Y-100880714D01*
X150627142Y-100975952D01*
X150674761Y-101023571D01*
X150770000Y-101071190D01*
X151150952Y-101071190D01*
X149579523Y-101452142D02*
X149627142Y-101499761D01*
X149770000Y-101547380D01*
X149865238Y-101547380D01*
X150008095Y-101499761D01*
X150103333Y-101404523D01*
X150150952Y-101309285D01*
X150198571Y-101118809D01*
X150198571Y-100975952D01*
X150150952Y-100785476D01*
X150103333Y-100690238D01*
X150008095Y-100595000D01*
X149865238Y-100547380D01*
X149770000Y-100547380D01*
X149627142Y-100595000D01*
X149579523Y-100642619D01*
X148817619Y-101023571D02*
X148674761Y-101071190D01*
X148627142Y-101118809D01*
X148579523Y-101214047D01*
X148579523Y-101356904D01*
X148627142Y-101452142D01*
X148674761Y-101499761D01*
X148770000Y-101547380D01*
X149150952Y-101547380D01*
X149150952Y-100547380D01*
X148817619Y-100547380D01*
X148722380Y-100595000D01*
X148674761Y-100642619D01*
X148627142Y-100737857D01*
X148627142Y-100833095D01*
X148674761Y-100928333D01*
X148722380Y-100975952D01*
X148817619Y-101023571D01*
X149150952Y-101023571D01*
X148150952Y-101452142D02*
X148103333Y-101499761D01*
X148150952Y-101547380D01*
X148198571Y-101499761D01*
X148150952Y-101452142D01*
X148150952Y-101547380D01*
D12*
X43451381Y-102935072D02*
X42218227Y-102436845D01*
X42953155Y-104168227D02*
X43451381Y-102935072D01*
X42477404Y-105345750D02*
X40011095Y-104349297D01*
X40011095Y-104349297D02*
X37134116Y-111470069D01*
X42477404Y-105345750D02*
X39600426Y-112466522D01*
X39600426Y-112466522D02*
X37134116Y-111470069D01*
X121118202Y-158694059D02*
X119517374Y-160818430D01*
X114984681Y-154072120D02*
X121118202Y-158694059D01*
X113383853Y-156196490D02*
X119517374Y-160818430D01*
X114984681Y-154072120D02*
X113383853Y-156196490D01*
X113970414Y-153307815D02*
X112908229Y-152507401D01*
X112908229Y-152507401D02*
X112107815Y-153569586D01*
X194032599Y-154631771D02*
X193232185Y-153569586D01*
X192970414Y-155432185D02*
X194032599Y-154631771D01*
X191956147Y-156196490D02*
X190355319Y-154072120D01*
X190355319Y-154072120D02*
X184221798Y-158694059D01*
X191956147Y-156196490D02*
X185822626Y-160818430D01*
X185822626Y-160818430D02*
X184221798Y-158694059D01*
X90380470Y-94454138D02*
X91376923Y-91987828D01*
X97501242Y-97331116D02*
X90380470Y-94454138D01*
X98497695Y-94864807D02*
X91376923Y-91987828D01*
X97501242Y-97331116D02*
X98497695Y-94864807D01*
X98678765Y-97806867D02*
X99911920Y-98305093D01*
X99911920Y-98305093D02*
X100410147Y-97071939D01*
X97497996Y-76837645D02*
X98494449Y-74371335D01*
X104618768Y-79714623D02*
X97497996Y-76837645D01*
X105615221Y-77248314D02*
X98494449Y-74371335D01*
X104618768Y-79714623D02*
X105615221Y-77248314D01*
X105796291Y-80190374D02*
X107029446Y-80688600D01*
X107029446Y-80688600D02*
X107527673Y-79455446D01*
X113587414Y-42353872D02*
X114583867Y-39887562D01*
X120708186Y-45230850D02*
X113587414Y-42353872D01*
X121704639Y-42764541D02*
X114583867Y-39887562D01*
X120708186Y-45230850D02*
X121704639Y-42764541D01*
X121885709Y-45706601D02*
X123118864Y-46204827D01*
X123118864Y-46204827D02*
X123617091Y-44971673D01*
X104615521Y-59221152D02*
X105611974Y-56754842D01*
X111736293Y-62098130D02*
X104615521Y-59221152D01*
X112732746Y-59631821D02*
X105611974Y-56754842D01*
X111736293Y-62098130D02*
X112732746Y-59631821D01*
X112913816Y-62573881D02*
X114146971Y-63072107D01*
X114146971Y-63072107D02*
X114645198Y-61838953D01*
D10*
X104443329Y-86099261D02*
X104181105Y-86748290D01*
X104181105Y-86748290D02*
X108353432Y-88434019D01*
X103614463Y-84146575D02*
G75*
G02X104443329Y-86099261I-561910J-1390776D01*
G01*
X105763785Y-80161551D02*
X106040073Y-80812447D01*
X105665467Y-81739630D02*
X106040073Y-80812447D01*
X110114083Y-84076255D02*
X105941756Y-82390526D01*
X101020215Y-82559164D02*
X101296504Y-83210059D01*
X109889319Y-84632566D02*
X110114083Y-84076255D01*
X101296504Y-83210059D02*
X103614463Y-84146575D01*
X102331338Y-79314020D02*
X102982233Y-79037732D01*
X102982233Y-79037732D02*
X105763785Y-80161551D01*
X105941755Y-82390526D02*
G75*
G02X105665467Y-81739630I187304J463592D01*
G01*
X108353432Y-88434019D02*
X108540735Y-87970427D01*
X111560854Y-68482767D02*
X111298630Y-69131796D01*
X111298630Y-69131796D02*
X115470957Y-70817525D01*
X110731988Y-66530081D02*
G75*
G02X111560854Y-68482767I-561910J-1390776D01*
G01*
X112881310Y-62545057D02*
X113157598Y-63195953D01*
X112782992Y-64123136D02*
X113157598Y-63195953D01*
X117231608Y-66459761D02*
X113059281Y-64774032D01*
X108137740Y-64942670D02*
X108414029Y-65593565D01*
X117006844Y-67016072D02*
X117231608Y-66459761D01*
X108414029Y-65593565D02*
X110731988Y-66530081D01*
X109448863Y-61697526D02*
X110099758Y-61421238D01*
X110099758Y-61421238D02*
X112881310Y-62545057D01*
X113059280Y-64774032D02*
G75*
G02X112782992Y-64123136I187304J463592D01*
G01*
X115470957Y-70817525D02*
X115658260Y-70353933D01*
X191582558Y-48945998D02*
X191844783Y-49595027D01*
X191844783Y-49595027D02*
X196017110Y-47909297D01*
X189629872Y-48117132D02*
G75*
G02X191582558Y-48945998I561910J-1390776D01*
G01*
X188407735Y-43757502D02*
X189058630Y-44033790D01*
X189433237Y-44960974D02*
X189058630Y-44033790D01*
X194256459Y-43551533D02*
X190084132Y-45237263D01*
X186661018Y-48777360D02*
X187311913Y-49053649D01*
X194481223Y-44107843D02*
X194256459Y-43551533D01*
X187311913Y-49053649D02*
X189629872Y-48117132D01*
X185349895Y-45532217D02*
X185626183Y-44881321D01*
X185626183Y-44881321D02*
X188407735Y-43757502D01*
X190084131Y-45237262D02*
G75*
G02X189433237Y-44960974I-187303J463591D01*
G01*
X196017110Y-47909297D02*
X195829807Y-47445705D01*
X118678379Y-50866274D02*
X118416155Y-51515303D01*
X118416155Y-51515303D02*
X122588482Y-53201032D01*
X117849513Y-48913588D02*
G75*
G02X118678379Y-50866274I-561910J-1390776D01*
G01*
X119998835Y-44928564D02*
X120275123Y-45579460D01*
X119900517Y-46506643D02*
X120275123Y-45579460D01*
X124349133Y-48843268D02*
X120176806Y-47157539D01*
X115255265Y-47326177D02*
X115531554Y-47977072D01*
X124124369Y-49399579D02*
X124349133Y-48843268D01*
X115531554Y-47977072D02*
X117849513Y-48913588D01*
X116566388Y-44081033D02*
X117217283Y-43804745D01*
X117217283Y-43804745D02*
X119998835Y-44928564D01*
X120176805Y-47157539D02*
G75*
G02X119900517Y-46506643I187304J463592D01*
G01*
X122588482Y-53201032D02*
X122775785Y-52737440D01*
X136567488Y-57015408D02*
X136305264Y-57664437D01*
X136305264Y-57664437D02*
X140477591Y-59350166D01*
X135738622Y-55062722D02*
G75*
G02X136567488Y-57015408I-561910J-1390776D01*
G01*
X137887944Y-51077698D02*
X138164232Y-51728594D01*
X137789626Y-52655777D02*
X138164232Y-51728594D01*
X142238242Y-54992402D02*
X138065915Y-53306673D01*
X133144374Y-53475311D02*
X133420663Y-54126206D01*
X142013478Y-55548713D02*
X142238242Y-54992402D01*
X133420663Y-54126206D02*
X135738622Y-55062722D01*
X134455497Y-50230167D02*
X135106392Y-49953879D01*
X135106392Y-49953879D02*
X137887944Y-51077698D01*
X138065914Y-53306673D02*
G75*
G02X137789626Y-52655777I187304J463592D01*
G01*
X140477591Y-59350166D02*
X140664894Y-58886574D01*
X173591458Y-55136339D02*
X173853683Y-55785368D01*
X173853683Y-55785368D02*
X178026010Y-54099638D01*
X171638772Y-54307473D02*
G75*
G02X173591458Y-55136339I561910J-1390776D01*
G01*
X170416635Y-49947843D02*
X171067530Y-50224131D01*
X171442137Y-51151315D02*
X171067530Y-50224131D01*
X176265359Y-49741874D02*
X172093032Y-51427604D01*
X168669918Y-54967701D02*
X169320813Y-55243990D01*
X176490123Y-50298184D02*
X176265359Y-49741874D01*
X169320813Y-55243990D02*
X171638772Y-54307473D01*
X167358795Y-51722558D02*
X167635083Y-51071662D01*
X167635083Y-51071662D02*
X170416635Y-49947843D01*
X172093031Y-51427603D02*
G75*
G02X171442137Y-51151315I-187303J463591D01*
G01*
X178026010Y-54099638D02*
X177838707Y-53636046D01*
X54873300Y-107055989D02*
X54611076Y-107705018D01*
X54611076Y-107705018D02*
X58783403Y-109390747D01*
X54044434Y-105103303D02*
G75*
G02X54873300Y-107055989I-561910J-1390776D01*
G01*
X56193756Y-101118279D02*
X56470044Y-101769175D01*
X56095438Y-102696358D02*
X56470044Y-101769175D01*
X60544054Y-105032983D02*
X56371727Y-103347254D01*
X51450186Y-103515892D02*
X51726475Y-104166787D01*
X60319290Y-105589294D02*
X60544054Y-105032983D01*
X51726475Y-104166787D02*
X54044434Y-105103303D01*
X52761309Y-100270748D02*
X53412204Y-99994460D01*
X53412204Y-99994460D02*
X56193756Y-101118279D01*
X56371726Y-103347254D02*
G75*
G02X56095438Y-102696358I187304J463592D01*
G01*
X58783403Y-109390747D02*
X58970706Y-108927155D01*
X235796119Y-107658526D02*
X236058344Y-108307555D01*
X236058344Y-108307555D02*
X240230671Y-106621825D01*
X233843433Y-106829660D02*
G75*
G02X235796119Y-107658526I561910J-1390776D01*
G01*
X232621296Y-102470030D02*
X233272191Y-102746318D01*
X233646798Y-103673502D02*
X233272191Y-102746318D01*
X238470020Y-102264061D02*
X234297693Y-103949791D01*
X230874579Y-107489888D02*
X231525474Y-107766177D01*
X238694784Y-102820371D02*
X238470020Y-102264061D01*
X231525474Y-107766177D02*
X233843433Y-106829660D01*
X229563456Y-104244745D02*
X229839744Y-103593849D01*
X229839744Y-103593849D02*
X232621296Y-102470030D01*
X234297692Y-103949790D02*
G75*
G02X233646798Y-103673502I-187303J463591D01*
G01*
X240230671Y-106621825D02*
X240043368Y-106158233D01*
X198700083Y-66562491D02*
X198962308Y-67211520D01*
X198962308Y-67211520D02*
X203134635Y-65525790D01*
X196747397Y-65733625D02*
G75*
G02X198700083Y-66562491I561910J-1390776D01*
G01*
X195525260Y-61373995D02*
X196176155Y-61650283D01*
X196550762Y-62577467D02*
X196176155Y-61650283D01*
X201373984Y-61168026D02*
X197201657Y-62853756D01*
X193778543Y-66393853D02*
X194429438Y-66670142D01*
X201598748Y-61724336D02*
X201373984Y-61168026D01*
X194429438Y-66670142D02*
X196747397Y-65733625D01*
X192467420Y-63148710D02*
X192743708Y-62497814D01*
X192743708Y-62497814D02*
X195525260Y-61373995D01*
X197201656Y-62853755D02*
G75*
G02X196550762Y-62577467I-187303J463591D01*
G01*
X203134635Y-65525790D02*
X202947332Y-65062198D01*
X194944034Y-107985819D02*
X195206259Y-108634848D01*
X195206259Y-108634848D02*
X199378586Y-106949118D01*
X192991348Y-107156953D02*
G75*
G02X194944034Y-107985819I561910J-1390776D01*
G01*
X191769211Y-102797323D02*
X192420106Y-103073611D01*
X192794713Y-104000795D02*
X192420106Y-103073611D01*
X197617935Y-102591354D02*
X193445608Y-104277084D01*
X190022494Y-107817181D02*
X190673389Y-108093470D01*
X197842699Y-103147664D02*
X197617935Y-102591354D01*
X190673389Y-108093470D02*
X192991348Y-107156953D01*
X188711371Y-104572038D02*
X188987659Y-103921142D01*
X188987659Y-103921142D02*
X191769211Y-102797323D01*
X193445607Y-104277083D02*
G75*
G02X192794713Y-104000795I-187303J463591D01*
G01*
X199378586Y-106949118D02*
X199191283Y-106485526D01*
X187826508Y-90369325D02*
X188088733Y-91018354D01*
X188088733Y-91018354D02*
X192261060Y-89332624D01*
X185873822Y-89540459D02*
G75*
G02X187826508Y-90369325I561910J-1390776D01*
G01*
X184651685Y-85180829D02*
X185302580Y-85457117D01*
X185677187Y-86384301D02*
X185302580Y-85457117D01*
X190500409Y-84974860D02*
X186328082Y-86660590D01*
X182904968Y-90200687D02*
X183555863Y-90476976D01*
X190725173Y-85531170D02*
X190500409Y-84974860D01*
X183555863Y-90476976D02*
X185873822Y-89540459D01*
X181593845Y-86955544D02*
X181870133Y-86304648D01*
X181870133Y-86304648D02*
X184651685Y-85180829D01*
X186328081Y-86660589D02*
G75*
G02X185677187Y-86384301I-187303J463591D01*
G01*
X192261060Y-89332624D02*
X192073757Y-88869032D01*
X97223812Y-103674547D02*
X96961588Y-104323576D01*
X96961588Y-104323576D02*
X101133915Y-106009305D01*
X96394946Y-101721861D02*
G75*
G02X97223812Y-103674547I-561910J-1390776D01*
G01*
X98544268Y-97736837D02*
X98820556Y-98387733D01*
X98445950Y-99314916D02*
X98820556Y-98387733D01*
X102894566Y-101651541D02*
X98722239Y-99965812D01*
X93800698Y-100134450D02*
X94076987Y-100785345D01*
X102669802Y-102207852D02*
X102894566Y-101651541D01*
X94076987Y-100785345D02*
X96394946Y-101721861D01*
X95111821Y-96889306D02*
X95762716Y-96613018D01*
X95762716Y-96613018D02*
X98544268Y-97736837D01*
X98722238Y-99965812D02*
G75*
G02X98445950Y-99314916I187304J463592D01*
G01*
X101133915Y-106009305D02*
X101321218Y-105545713D01*
X74362827Y-109537595D02*
X74100603Y-110186624D01*
X74100603Y-110186624D02*
X78272930Y-111872353D01*
X73533961Y-107584909D02*
G75*
G02X74362827Y-109537595I-561910J-1390776D01*
G01*
X75683283Y-103599885D02*
X75959571Y-104250781D01*
X75584965Y-105177964D02*
X75959571Y-104250781D01*
X80033581Y-107514589D02*
X75861254Y-105828860D01*
X70939713Y-105997498D02*
X71216002Y-106648393D01*
X79808817Y-108070900D02*
X80033581Y-107514589D01*
X71216002Y-106648393D02*
X73533961Y-107584909D01*
X72250836Y-102752354D02*
X72901731Y-102476066D01*
X72901731Y-102476066D02*
X75683283Y-103599885D01*
X75861253Y-105828860D02*
G75*
G02X75584965Y-105177964I187304J463592D01*
G01*
X78272930Y-111872353D02*
X78460233Y-111408761D01*
X122332437Y-92248395D02*
X122070213Y-92897424D01*
X122070213Y-92897424D02*
X126242540Y-94583153D01*
X121503571Y-90295709D02*
G75*
G02X122332437Y-92248395I-561910J-1390776D01*
G01*
X123652893Y-86310685D02*
X123929181Y-86961581D01*
X123554575Y-87888764D02*
X123929181Y-86961581D01*
X128003191Y-90225389D02*
X123830864Y-88539660D01*
X118909323Y-88708298D02*
X119185612Y-89359193D01*
X127778427Y-90781700D02*
X128003191Y-90225389D01*
X119185612Y-89359193D02*
X121503571Y-90295709D01*
X120220446Y-85463154D02*
X120871341Y-85186866D01*
X120871341Y-85186866D02*
X123652893Y-86310685D01*
X123830863Y-88539660D02*
G75*
G02X123554575Y-87888764I187304J463592D01*
G01*
X126242540Y-94583153D02*
X126429843Y-94119561D01*
X129449962Y-74631902D02*
X129187738Y-75280931D01*
X129187738Y-75280931D02*
X133360065Y-76966660D01*
X128621096Y-72679216D02*
G75*
G02X129449962Y-74631902I-561910J-1390776D01*
G01*
X130770418Y-68694192D02*
X131046706Y-69345088D01*
X130672100Y-70272271D02*
X131046706Y-69345088D01*
X135120716Y-72608896D02*
X130948389Y-70923167D01*
X126026848Y-71091805D02*
X126303137Y-71742700D01*
X134895952Y-73165207D02*
X135120716Y-72608896D01*
X126303137Y-71742700D02*
X128621096Y-72679216D01*
X127337971Y-67846661D02*
X127988866Y-67570373D01*
X127988866Y-67570373D02*
X130770418Y-68694192D01*
X130948388Y-70923167D02*
G75*
G02X130672100Y-70272271I187304J463592D01*
G01*
X133360065Y-76966660D02*
X133547368Y-76503068D01*
X212935134Y-101795477D02*
X213197359Y-102444506D01*
X213197359Y-102444506D02*
X217369686Y-100758776D01*
X210982448Y-100966611D02*
G75*
G02X212935134Y-101795477I561910J-1390776D01*
G01*
X209760311Y-96606981D02*
X210411206Y-96883269D01*
X210785813Y-97810453D02*
X210411206Y-96883269D01*
X215609035Y-96401012D02*
X211436708Y-98086742D01*
X208013594Y-101626839D02*
X208664489Y-101903128D01*
X215833799Y-96957322D02*
X215609035Y-96401012D01*
X208664489Y-101903128D02*
X210982448Y-100966611D01*
X206702471Y-98381696D02*
X206978759Y-97730800D01*
X206978759Y-97730800D02*
X209760311Y-96606981D01*
X211436707Y-98086741D02*
G75*
G02X210785813Y-97810453I-187303J463591D01*
G01*
X217369686Y-100758776D02*
X217182383Y-100295184D01*
X205817608Y-84178984D02*
X206079833Y-84828013D01*
X206079833Y-84828013D02*
X210252160Y-83142283D01*
X203864922Y-83350118D02*
G75*
G02X205817608Y-84178984I561910J-1390776D01*
G01*
X202642785Y-78990488D02*
X203293680Y-79266776D01*
X203668287Y-80193960D02*
X203293680Y-79266776D01*
X208491509Y-78784519D02*
X204319182Y-80470249D01*
X200896068Y-84010346D02*
X201546963Y-84286635D01*
X208716273Y-79340829D02*
X208491509Y-78784519D01*
X201546963Y-84286635D02*
X203864922Y-83350118D01*
X199584945Y-80765203D02*
X199861233Y-80114307D01*
X199861233Y-80114307D02*
X202642785Y-78990488D01*
X204319181Y-80470248D02*
G75*
G02X203668287Y-80193960I-187303J463591D01*
G01*
X210252160Y-83142283D02*
X210064857Y-82678691D01*
X115214912Y-109864888D02*
X114952688Y-110513917D01*
X114952688Y-110513917D02*
X119125015Y-112199646D01*
X114386046Y-107912202D02*
G75*
G02X115214912Y-109864888I-561910J-1390776D01*
G01*
X116535368Y-103927178D02*
X116811656Y-104578074D01*
X116437050Y-105505257D02*
X116811656Y-104578074D01*
X120885666Y-107841882D02*
X116713339Y-106156153D01*
X111791798Y-106324791D02*
X112068087Y-106975686D01*
X120660902Y-108398193D02*
X120885666Y-107841882D01*
X112068087Y-106975686D02*
X114386046Y-107912202D01*
X113102921Y-103079647D02*
X113753816Y-102803359D01*
X113753816Y-102803359D02*
X116535368Y-103927178D01*
X116713338Y-106156153D02*
G75*
G02X116437050Y-105505257I187304J463592D01*
G01*
X119125015Y-112199646D02*
X119312318Y-111736054D01*
X180708983Y-72752832D02*
X180971208Y-73401861D01*
X180971208Y-73401861D02*
X185143535Y-71716131D01*
X178756297Y-71923966D02*
G75*
G02X180708983Y-72752832I561910J-1390776D01*
G01*
X177534160Y-67564336D02*
X178185055Y-67840624D01*
X178559662Y-68767808D02*
X178185055Y-67840624D01*
X183382884Y-67358367D02*
X179210557Y-69044097D01*
X175787443Y-72584194D02*
X176438338Y-72860483D01*
X183607648Y-67914677D02*
X183382884Y-67358367D01*
X176438338Y-72860483D02*
X178756297Y-71923966D01*
X174476320Y-69339051D02*
X174752608Y-68688155D01*
X174752608Y-68688155D02*
X177534160Y-67564336D01*
X179210556Y-69044096D02*
G75*
G02X178559662Y-68767808I-187303J463591D01*
G01*
X185143535Y-71716131D02*
X184956232Y-71252539D01*
X255285645Y-105176920D02*
X255547870Y-105825949D01*
X255547870Y-105825949D02*
X259720197Y-104140219D01*
X253332959Y-104348054D02*
G75*
G02X255285645Y-105176920I561910J-1390776D01*
G01*
X252110822Y-99988424D02*
X252761717Y-100264712D01*
X253136324Y-101191896D02*
X252761717Y-100264712D01*
X257959546Y-99782455D02*
X253787219Y-101468185D01*
X250364105Y-105008282D02*
X251015000Y-105284571D01*
X258184310Y-100338765D02*
X257959546Y-99782455D01*
X251015000Y-105284571D02*
X253332959Y-104348054D01*
X249052982Y-101763139D02*
X249329270Y-101112243D01*
X249329270Y-101112243D02*
X252110822Y-99988424D01*
X253787218Y-101468184D02*
G75*
G02X253136324Y-101191896I-187303J463591D01*
G01*
X259720197Y-104140219D02*
X259532894Y-103676627D01*
X162040000Y-109830000D02*
X144260000Y-109830000D01*
X144260000Y-109830000D02*
X144260000Y-79350000D01*
X144260000Y-79350000D02*
X149340000Y-79350000D01*
X149340000Y-79350000D02*
X149340000Y-76810000D01*
X149340000Y-76810000D02*
X156960000Y-76810000D01*
X156960000Y-76810000D02*
X156960000Y-79350000D01*
X156960000Y-79350000D02*
X162040000Y-79350000D01*
X162040000Y-79350000D02*
X162040000Y-109830000D01*
D13*
X161820000Y-154070000D02*
X165820000Y-154070000D01*
X161820000Y-160070000D02*
X165820000Y-160070000D01*
X160820000Y-158070000D02*
X160820000Y-156070000D01*
X166820000Y-158070000D02*
X166820000Y-156070000D01*
D12*
X214175941Y-91986403D02*
X215172394Y-94452713D01*
X207055169Y-94863382D02*
X214175941Y-91986403D01*
X208051622Y-97329691D02*
X215172394Y-94452713D01*
X207055169Y-94863382D02*
X208051622Y-97329691D01*
X205877645Y-95339132D02*
X204644491Y-95837359D01*
X204644491Y-95837359D02*
X205142717Y-97070514D01*
X190968998Y-39886137D02*
X191965451Y-42352447D01*
X183848226Y-42763116D02*
X190968998Y-39886137D01*
X184844679Y-45229425D02*
X191965451Y-42352447D01*
X183848226Y-42763116D02*
X184844679Y-45229425D01*
X182670702Y-43238866D02*
X181437548Y-43737093D01*
X181437548Y-43737093D02*
X181935774Y-44970248D01*
X155640000Y-114290000D02*
X155640000Y-116950000D01*
X153040000Y-114290000D02*
X155640000Y-114290000D01*
X153040000Y-116950000D02*
X155640000Y-116950000D01*
X153040000Y-114290000D02*
X153040000Y-116950000D01*
X151770000Y-114290000D02*
X150440000Y-114290000D01*
X150440000Y-114290000D02*
X150440000Y-115620000D01*
X262022569Y-102724659D02*
X264488879Y-101728206D01*
X264899548Y-109845431D02*
X262022569Y-102724659D01*
X267365857Y-108848978D02*
X264488879Y-101728206D01*
X264899548Y-109845431D02*
X267365857Y-108848978D01*
X265375298Y-111022955D02*
X265873525Y-112256109D01*
X265873525Y-112256109D02*
X267106680Y-111757883D01*
D13*
X142720000Y-156970000D02*
X142720000Y-158120000D01*
X142720000Y-158120000D02*
X151320000Y-158120000D01*
X151320000Y-158120000D02*
X151320000Y-156970000D01*
X142720000Y-154970000D02*
X142720000Y-153820000D01*
X142720000Y-153820000D02*
X151320000Y-153820000D01*
X151320000Y-153820000D02*
X151320000Y-154970000D01*
D12*
X199940891Y-56753417D02*
X200937344Y-59219727D01*
X192820119Y-59630396D02*
X199940891Y-56753417D01*
X193816572Y-62096705D02*
X200937344Y-59219727D01*
X192820119Y-59630396D02*
X193816572Y-62096705D01*
X191642595Y-60106146D02*
X190409441Y-60604373D01*
X190409441Y-60604373D02*
X190907667Y-61837528D01*
X207058416Y-74369910D02*
X208054869Y-76836220D01*
X199937644Y-77246889D02*
X207058416Y-74369910D01*
X200934097Y-79713198D02*
X208054869Y-76836220D01*
X199937644Y-77246889D02*
X200934097Y-79713198D01*
X198760120Y-77722639D02*
X197526966Y-78220866D01*
X197526966Y-78220866D02*
X198025192Y-79454021D01*
X172610000Y-149666078D02*
X172610000Y-149148922D01*
X174030000Y-149666078D02*
X174030000Y-149148922D01*
X172030000Y-149161422D02*
X172030000Y-149678578D01*
X170610000Y-149161422D02*
X170610000Y-149678578D01*
X164870000Y-107120000D02*
X168770000Y-107120000D01*
X164870000Y-105120000D02*
X168770000Y-105120000D01*
X164870000Y-107120000D02*
X164870000Y-105120000D01*
X164870000Y-109520000D02*
X168770000Y-109520000D01*
X164870000Y-107520000D02*
X168770000Y-107520000D01*
X164870000Y-109520000D02*
X164870000Y-107520000D01*
X164870000Y-111920000D02*
X168770000Y-111920000D01*
X164870000Y-109920000D02*
X168770000Y-109920000D01*
X164870000Y-111920000D02*
X164870000Y-109920000D01*
X164870000Y-114320000D02*
X168770000Y-114320000D01*
X164870000Y-112320000D02*
X168770000Y-112320000D01*
X164870000Y-114320000D02*
X164870000Y-112320000D01*
X164870000Y-116770000D02*
X168770000Y-116770000D01*
X164870000Y-114770000D02*
X168770000Y-114770000D01*
X164870000Y-116770000D02*
X164870000Y-114770000D01*
X120920000Y-138670000D02*
X120920000Y-142570000D01*
X122920000Y-138670000D02*
X122920000Y-142570000D01*
X120920000Y-138670000D02*
X122920000Y-138670000D01*
X164870000Y-102220000D02*
X168770000Y-102220000D01*
X164870000Y-100220000D02*
X168770000Y-100220000D01*
X164870000Y-102220000D02*
X164870000Y-100220000D01*
X118420000Y-138670000D02*
X118420000Y-142570000D01*
X120420000Y-138670000D02*
X120420000Y-142570000D01*
X118420000Y-138670000D02*
X120420000Y-138670000D01*
X141546500Y-105027400D02*
X137646500Y-105027400D01*
X141546500Y-107027400D02*
X137646500Y-107027400D01*
X141546500Y-105027400D02*
X141546500Y-107027400D01*
X141546500Y-119977400D02*
X137646500Y-119977400D01*
X141546500Y-121977400D02*
X137646500Y-121977400D01*
X141546500Y-119977400D02*
X141546500Y-121977400D01*
X141546500Y-107476288D02*
X137646500Y-107476288D01*
X141546500Y-109476288D02*
X137646500Y-109476288D01*
X141546500Y-107476288D02*
X141546500Y-109476288D01*
X141546500Y-109975176D02*
X137646500Y-109975176D01*
X141546500Y-111975176D02*
X137646500Y-111975176D01*
X141546500Y-109975176D02*
X141546500Y-111975176D01*
X141546500Y-112474064D02*
X137646500Y-112474064D01*
X141546500Y-114474064D02*
X137646500Y-114474064D01*
X141546500Y-112474064D02*
X141546500Y-114474064D01*
X141546500Y-114972952D02*
X137646500Y-114972952D01*
X141546500Y-116972952D02*
X137646500Y-116972952D01*
X141546500Y-114972952D02*
X141546500Y-116972952D01*
X206431530Y-133070000D02*
X206431530Y-129170000D01*
X204431530Y-133070000D02*
X204431530Y-129170000D01*
X206431530Y-133070000D02*
X204431530Y-133070000D01*
X203612300Y-133070000D02*
X203612300Y-129170000D01*
X201612300Y-133070000D02*
X201612300Y-129170000D01*
X203612300Y-133070000D02*
X201612300Y-133070000D01*
X189596920Y-133070000D02*
X189596920Y-129170000D01*
X187596920Y-133070000D02*
X187596920Y-129170000D01*
X189596920Y-133070000D02*
X187596920Y-133070000D01*
X192416150Y-133070000D02*
X192416150Y-129170000D01*
X190416150Y-133070000D02*
X190416150Y-129170000D01*
X192416150Y-133070000D02*
X190416150Y-133070000D01*
X195235380Y-133070000D02*
X195235380Y-129170000D01*
X193235380Y-133070000D02*
X193235380Y-129170000D01*
X195235380Y-133070000D02*
X193235380Y-133070000D01*
X198054610Y-133070000D02*
X198054610Y-129170000D01*
X196054610Y-133070000D02*
X196054610Y-129170000D01*
X198054610Y-133070000D02*
X196054610Y-133070000D01*
X178320000Y-133070000D02*
X178320000Y-129170000D01*
X176320000Y-133070000D02*
X176320000Y-129170000D01*
X178320000Y-133070000D02*
X176320000Y-133070000D01*
X181139230Y-133070000D02*
X181139230Y-129170000D01*
X179139230Y-133070000D02*
X179139230Y-129170000D01*
X181139230Y-133070000D02*
X179139230Y-133070000D01*
X183958460Y-133070000D02*
X183958460Y-129170000D01*
X181958460Y-133070000D02*
X181958460Y-129170000D01*
X183958460Y-133070000D02*
X181958460Y-133070000D01*
X186777690Y-133070000D02*
X186777690Y-129170000D01*
X184777690Y-133070000D02*
X184777690Y-129170000D01*
X186777690Y-133070000D02*
X184777690Y-133070000D01*
X164870000Y-119220000D02*
X168770000Y-119220000D01*
X164870000Y-117220000D02*
X168770000Y-117220000D01*
X164870000Y-119220000D02*
X164870000Y-117220000D01*
X164870000Y-121770000D02*
X168770000Y-121770000D01*
X164870000Y-119770000D02*
X168770000Y-119770000D01*
X164870000Y-121770000D02*
X164870000Y-119770000D01*
X164870000Y-124270000D02*
X168770000Y-124270000D01*
X164870000Y-122270000D02*
X168770000Y-122270000D01*
X164870000Y-124270000D02*
X164870000Y-122270000D01*
X164870000Y-126770000D02*
X168770000Y-126770000D01*
X164870000Y-124770000D02*
X168770000Y-124770000D01*
X164870000Y-126770000D02*
X164870000Y-124770000D01*
X211770000Y-133070000D02*
X211770000Y-129170000D01*
X209770000Y-133070000D02*
X209770000Y-129170000D01*
X211770000Y-133070000D02*
X209770000Y-133070000D01*
X208950760Y-133070000D02*
X208950760Y-129170000D01*
X206950760Y-133070000D02*
X206950760Y-129170000D01*
X208950760Y-133070000D02*
X206950760Y-133070000D01*
X200793070Y-133070000D02*
X200793070Y-129170000D01*
X198793070Y-133070000D02*
X198793070Y-129170000D01*
X200793070Y-133070000D02*
X198793070Y-133070000D01*
X164870000Y-134232500D02*
X168770000Y-134232500D01*
X164870000Y-132232500D02*
X168770000Y-132232500D01*
X164870000Y-134232500D02*
X164870000Y-132232500D01*
X164870000Y-131770000D02*
X168770000Y-131770000D01*
X164870000Y-129770000D02*
X168770000Y-129770000D01*
X164870000Y-131770000D02*
X164870000Y-129770000D01*
X164870000Y-136720000D02*
X168770000Y-136720000D01*
X164870000Y-134720000D02*
X168770000Y-134720000D01*
X164870000Y-136720000D02*
X164870000Y-134720000D01*
X164870000Y-129270000D02*
X168770000Y-129270000D01*
X164870000Y-127270000D02*
X168770000Y-127270000D01*
X164870000Y-129270000D02*
X164870000Y-127270000D01*
X164870000Y-104670000D02*
X168770000Y-104670000D01*
X164870000Y-102670000D02*
X168770000Y-102670000D01*
X164870000Y-104670000D02*
X164870000Y-102670000D01*
X110074545Y-134220000D02*
X110074545Y-130320000D01*
X108074545Y-134220000D02*
X108074545Y-130320000D01*
X110074545Y-134220000D02*
X108074545Y-134220000D01*
X141546500Y-117477400D02*
X137646500Y-117477400D01*
X141546500Y-119477400D02*
X137646500Y-119477400D01*
X141546500Y-117477400D02*
X141546500Y-119477400D01*
X141546500Y-102527400D02*
X137646500Y-102527400D01*
X141546500Y-104527400D02*
X137646500Y-104527400D01*
X141546500Y-102527400D02*
X141546500Y-104527400D01*
X100292729Y-134220000D02*
X100292729Y-130320000D01*
X98292729Y-134220000D02*
X98292729Y-130320000D01*
X100292729Y-134220000D02*
X98292729Y-134220000D01*
X97847275Y-134220000D02*
X97847275Y-130320000D01*
X95847275Y-134220000D02*
X95847275Y-130320000D01*
X97847275Y-134220000D02*
X95847275Y-134220000D01*
X107629091Y-134220000D02*
X107629091Y-130320000D01*
X105629091Y-134220000D02*
X105629091Y-130320000D01*
X107629091Y-134220000D02*
X105629091Y-134220000D01*
X141546500Y-124967400D02*
X137646500Y-124967400D01*
X141546500Y-126967400D02*
X137646500Y-126967400D01*
X141546500Y-124967400D02*
X141546500Y-126967400D01*
X141546500Y-122477400D02*
X137646500Y-122477400D01*
X141546500Y-124477400D02*
X137646500Y-124477400D01*
X141546500Y-122477400D02*
X141546500Y-124477400D01*
X102738183Y-134220000D02*
X102738183Y-130320000D01*
X100738183Y-134220000D02*
X100738183Y-130320000D01*
X102738183Y-134220000D02*
X100738183Y-134220000D01*
X105183637Y-134220000D02*
X105183637Y-130320000D01*
X103183637Y-134220000D02*
X103183637Y-130320000D01*
X105183637Y-134220000D02*
X103183637Y-134220000D01*
X108547270Y-138670000D02*
X108547270Y-142570000D01*
X110547270Y-138670000D02*
X110547270Y-142570000D01*
X108547270Y-138670000D02*
X110547270Y-138670000D01*
X110992733Y-138670000D02*
X110992733Y-142570000D01*
X112992733Y-138670000D02*
X112992733Y-142570000D01*
X110992733Y-138670000D02*
X112992733Y-138670000D01*
X113438187Y-138670000D02*
X113438187Y-142570000D01*
X115438187Y-138670000D02*
X115438187Y-142570000D01*
X113438187Y-138670000D02*
X115438187Y-138670000D01*
X115883641Y-138670000D02*
X115883641Y-142570000D01*
X117883641Y-138670000D02*
X117883641Y-142570000D01*
X115883641Y-138670000D02*
X117883641Y-138670000D01*
X123220000Y-134220000D02*
X123220000Y-130320000D01*
X121220000Y-134220000D02*
X121220000Y-130320000D01*
X123220000Y-134220000D02*
X121220000Y-134220000D01*
X120620000Y-134220000D02*
X120620000Y-130320000D01*
X118620000Y-134220000D02*
X118620000Y-130320000D01*
X120620000Y-134220000D02*
X118620000Y-134220000D01*
X118020000Y-134220000D02*
X118020000Y-130320000D01*
X116020000Y-134220000D02*
X116020000Y-130320000D01*
X118020000Y-134220000D02*
X116020000Y-134220000D01*
X115420000Y-134220000D02*
X115420000Y-130320000D01*
X113420000Y-134220000D02*
X113420000Y-130320000D01*
X115420000Y-134220000D02*
X113420000Y-134220000D01*
X133570000Y-134220000D02*
X133570000Y-130320000D01*
X131570000Y-134220000D02*
X131570000Y-130320000D01*
X133570000Y-134220000D02*
X131570000Y-134220000D01*
X130970000Y-134220000D02*
X130970000Y-130320000D01*
X128970000Y-134220000D02*
X128970000Y-130320000D01*
X130970000Y-134220000D02*
X128970000Y-134220000D01*
X128370000Y-134220000D02*
X128370000Y-130320000D01*
X126370000Y-134220000D02*
X126370000Y-130320000D01*
X128370000Y-134220000D02*
X126370000Y-134220000D01*
X125770000Y-134220000D02*
X125770000Y-130320000D01*
X123770000Y-134220000D02*
X123770000Y-130320000D01*
X125770000Y-134220000D02*
X123770000Y-134220000D01*
D10*
X44078371Y-101519232D02*
X43810795Y-102181506D01*
X43801431Y-102331799D01*
X43854058Y-102455779D01*
X43968674Y-102553446D01*
X44056977Y-102589123D01*
X43262248Y-102268032D02*
X43636855Y-101340848D01*
X43060217Y-101878253D01*
X43018732Y-101091110D01*
X42644126Y-102018294D01*
X41716942Y-101643687D02*
X42246761Y-101857748D01*
X41981851Y-101750718D02*
X42356458Y-100823534D01*
X42391246Y-100991666D01*
X42443872Y-101115646D01*
X42514337Y-101195474D01*
X40833910Y-101286919D02*
X41363729Y-101500980D01*
X41098819Y-101393950D02*
X41473426Y-100466766D01*
X41508214Y-100634897D01*
X41560840Y-100758877D01*
X41631305Y-100838706D01*
X111702908Y-151535328D02*
X112273362Y-151965195D01*
X112416111Y-152013139D01*
X112549487Y-151994394D01*
X112673491Y-151908961D01*
X112730807Y-151832900D01*
X112214965Y-152517445D02*
X111416330Y-151915630D01*
X111786179Y-152611710D01*
X111015120Y-152448054D01*
X111813755Y-153049869D01*
X110833260Y-152847642D02*
X110766571Y-152857014D01*
X110671225Y-152904417D01*
X110527936Y-153094568D01*
X110508651Y-153199287D01*
X110518023Y-153265975D01*
X110565426Y-153361321D01*
X110641486Y-153418636D01*
X110784235Y-153466580D01*
X111584492Y-153354111D01*
X111211940Y-153848504D01*
X110212700Y-153512901D02*
X109840148Y-154007295D01*
X110344995Y-153970346D01*
X110259021Y-154084436D01*
X110239736Y-154189155D01*
X110249108Y-154255843D01*
X110296511Y-154351189D01*
X110486662Y-154494478D01*
X110591380Y-154513764D01*
X110658069Y-154504391D01*
X110753415Y-154456989D01*
X110925362Y-154228807D01*
X110944647Y-154124089D01*
X110935275Y-154057400D01*
X195299246Y-153741083D02*
X194728792Y-154170951D01*
X194643360Y-154294954D01*
X194624615Y-154428331D01*
X194672558Y-154571079D01*
X194729874Y-154647140D01*
X194214032Y-153962595D02*
X195012668Y-153360780D01*
X194241609Y-153524436D01*
X194611458Y-152828356D01*
X193812822Y-153430171D01*
X194382195Y-152524114D02*
X194009643Y-152029721D01*
X193906006Y-152525196D01*
X193820032Y-152411105D01*
X193724686Y-152363702D01*
X193657998Y-152354330D01*
X193553280Y-152373615D01*
X193363128Y-152516905D01*
X193315726Y-152612251D01*
X193306353Y-152678939D01*
X193325639Y-152783657D01*
X193497586Y-153011839D01*
X193592932Y-153059241D01*
X193659620Y-153068614D01*
X193809038Y-151763509D02*
X193436486Y-151269116D01*
X193332849Y-151764590D01*
X193246875Y-151650500D01*
X193151529Y-151603097D01*
X193084841Y-151593725D01*
X192980122Y-151613010D01*
X192789971Y-151756299D01*
X192742568Y-151851645D01*
X192733196Y-151918333D01*
X192752482Y-152023052D01*
X192924429Y-152251233D01*
X193019775Y-152298636D01*
X193086463Y-152308008D01*
X101346900Y-95961006D02*
X102009174Y-96228582D01*
X102159467Y-96237946D01*
X102283447Y-96185319D01*
X102381114Y-96070703D01*
X102416791Y-95982400D01*
X102095700Y-96777129D02*
X101168516Y-96402522D01*
X101705921Y-96979160D01*
X100918778Y-97020645D01*
X101845962Y-97395251D01*
X100846536Y-97453686D02*
X100784546Y-97479999D01*
X100704717Y-97550464D01*
X100615525Y-97771222D01*
X100624000Y-97877364D01*
X100650313Y-97939354D01*
X100720778Y-98019182D01*
X100809081Y-98054859D01*
X100959374Y-98064223D01*
X101703255Y-97748464D01*
X101471355Y-98322435D01*
X100489767Y-98336718D02*
X100427777Y-98363032D01*
X100347949Y-98433496D01*
X100258757Y-98654254D01*
X100267232Y-98760396D01*
X100293545Y-98822386D01*
X100364010Y-98902214D01*
X100452313Y-98937891D01*
X100602606Y-98947255D01*
X101346486Y-98631496D01*
X101114587Y-99205467D01*
X108464426Y-78344513D02*
X109126700Y-78612089D01*
X109276993Y-78621453D01*
X109400973Y-78568826D01*
X109498640Y-78454210D01*
X109534317Y-78365907D01*
X109213226Y-79160636D02*
X108286042Y-78786029D01*
X108823447Y-79362667D01*
X108036304Y-79404152D01*
X108963488Y-79778758D01*
X107964062Y-79837193D02*
X107902072Y-79863506D01*
X107822243Y-79933971D01*
X107733051Y-80154729D01*
X107741526Y-80260871D01*
X107767839Y-80322861D01*
X107838304Y-80402689D01*
X107926607Y-80438366D01*
X108076900Y-80447730D01*
X108820781Y-80131971D01*
X108588881Y-80705942D01*
X108232113Y-81588974D02*
X108446174Y-81059155D01*
X108339144Y-81324065D02*
X107411960Y-80949458D01*
X107580091Y-80914670D01*
X107704071Y-80862044D01*
X107783900Y-80791579D01*
X124375460Y-44302256D02*
X125037734Y-44569832D01*
X125188027Y-44579196D01*
X125312007Y-44526570D01*
X125409674Y-44411953D01*
X125445351Y-44323650D01*
X125124259Y-45118379D02*
X124197076Y-44743772D01*
X124734481Y-45320410D01*
X123947338Y-45361895D01*
X124874522Y-45736501D01*
X123804631Y-45715108D02*
X123572731Y-46289079D01*
X124050813Y-46122725D01*
X123997298Y-46255180D01*
X124005773Y-46361321D01*
X124032086Y-46423311D01*
X124102551Y-46503140D01*
X124323309Y-46592332D01*
X124429450Y-46583857D01*
X124491440Y-46557544D01*
X124571269Y-46487079D01*
X124678299Y-46222169D01*
X124669824Y-46116028D01*
X124643511Y-46054038D01*
X115581951Y-60728020D02*
X116244225Y-60995596D01*
X116394518Y-61004960D01*
X116518498Y-60952333D01*
X116616165Y-60837717D01*
X116651842Y-60749414D01*
X116330751Y-61544143D02*
X115403567Y-61169536D01*
X115940972Y-61746174D01*
X115153829Y-61787659D01*
X116081013Y-62162265D01*
X115081587Y-62220700D02*
X115019597Y-62247013D01*
X114939768Y-62317478D01*
X114850576Y-62538236D01*
X114859051Y-62644378D01*
X114885364Y-62706368D01*
X114955829Y-62786196D01*
X115044132Y-62821873D01*
X115194425Y-62831237D01*
X115938306Y-62515478D01*
X115706406Y-63089449D01*
X114547323Y-63288814D02*
X114511646Y-63377117D01*
X114520121Y-63483258D01*
X114546434Y-63545248D01*
X114616899Y-63625077D01*
X114775667Y-63740582D01*
X114996425Y-63829774D01*
X115190870Y-63856976D01*
X115297012Y-63848501D01*
X115359002Y-63822188D01*
X115438830Y-63751723D01*
X115474507Y-63663420D01*
X115466032Y-63557279D01*
X115439719Y-63495288D01*
X115369254Y-63415460D01*
X115210486Y-63299955D01*
X114989728Y-63210763D01*
X114795283Y-63183561D01*
X114689142Y-63192036D01*
X114627152Y-63218349D01*
X114547323Y-63288814D01*
D14*
X164787619Y-156459047D02*
X164606190Y-156519523D01*
X164303809Y-156519523D01*
X164182857Y-156459047D01*
X164122380Y-156398571D01*
X164061904Y-156277619D01*
X164061904Y-156156666D01*
X164122380Y-156035714D01*
X164182857Y-155975238D01*
X164303809Y-155914761D01*
X164545714Y-155854285D01*
X164666666Y-155793809D01*
X164727142Y-155733333D01*
X164787619Y-155612380D01*
X164787619Y-155491428D01*
X164727142Y-155370476D01*
X164666666Y-155310000D01*
X164545714Y-155249523D01*
X164243333Y-155249523D01*
X164061904Y-155310000D01*
X162852380Y-156519523D02*
X163578095Y-156519523D01*
X163215238Y-156519523D02*
X163215238Y-155249523D01*
X163336190Y-155430952D01*
X163457142Y-155551904D01*
X163578095Y-155612380D01*
D10*
X205240591Y-98520375D02*
X204578317Y-98787951D01*
X204463700Y-98885618D01*
X204411074Y-99009598D01*
X204420438Y-99159891D01*
X204456114Y-99248194D01*
X204135023Y-98453465D02*
X205062207Y-98078858D01*
X204275064Y-98037373D01*
X204812469Y-97460736D01*
X203885285Y-97835342D01*
X204563620Y-97099048D02*
X204589933Y-97037058D01*
X204598408Y-96930917D01*
X204509216Y-96710158D01*
X204429388Y-96639694D01*
X204367398Y-96613380D01*
X204261256Y-96604906D01*
X204172953Y-96640582D01*
X204058336Y-96738249D01*
X203742578Y-97482130D01*
X203510679Y-96908159D01*
X203826437Y-96164278D02*
X203906266Y-96234743D01*
X203968256Y-96261056D01*
X204074397Y-96269531D01*
X204118549Y-96251693D01*
X204189014Y-96171864D01*
X204215327Y-96109874D01*
X204223802Y-96003733D01*
X204152448Y-95827126D01*
X204072620Y-95756661D01*
X204010629Y-95730348D01*
X203904488Y-95721873D01*
X203860336Y-95739712D01*
X203789871Y-95819540D01*
X203763558Y-95881530D01*
X203755083Y-95987672D01*
X203826437Y-96164278D01*
X203817962Y-96270420D01*
X203791649Y-96332410D01*
X203721184Y-96412238D01*
X203544578Y-96483592D01*
X203438436Y-96475117D01*
X203376446Y-96448804D01*
X203296618Y-96378339D01*
X203225264Y-96201733D01*
X203233739Y-96095591D01*
X203260052Y-96033601D01*
X203330517Y-95953773D01*
X203507123Y-95882419D01*
X203613265Y-95890894D01*
X203675255Y-95917207D01*
X203755083Y-95987672D01*
X182033648Y-46420109D02*
X181371374Y-46687685D01*
X181256757Y-46785352D01*
X181204131Y-46909332D01*
X181213495Y-47059625D01*
X181249171Y-47147928D01*
X180928080Y-46353199D02*
X181855264Y-45978592D01*
X181068121Y-45937107D01*
X181605526Y-45360470D01*
X180678342Y-45735076D01*
X181462819Y-45007257D02*
X181230919Y-44433286D01*
X181002575Y-44885055D01*
X180949060Y-44752600D01*
X180869232Y-44682135D01*
X180807242Y-44655822D01*
X180701100Y-44647347D01*
X180480342Y-44736539D01*
X180409877Y-44816367D01*
X180383564Y-44878357D01*
X180375089Y-44984499D01*
X180482120Y-45249409D01*
X180561948Y-45319874D01*
X180623938Y-45346187D01*
X179946967Y-43924860D02*
X180161028Y-44454680D01*
X180053998Y-44189770D02*
X180981182Y-43815163D01*
X180884404Y-43956982D01*
X180831777Y-44080962D01*
X180823303Y-44187104D01*
X148892380Y-114810476D02*
X149606666Y-114810476D01*
X149749523Y-114762857D01*
X149844761Y-114667619D01*
X149892380Y-114524761D01*
X149892380Y-114429523D01*
X148892380Y-115191428D02*
X148892380Y-115810476D01*
X149273333Y-115477142D01*
X149273333Y-115620000D01*
X149320952Y-115715238D01*
X149368571Y-115762857D01*
X149463809Y-115810476D01*
X149701904Y-115810476D01*
X149797142Y-115762857D01*
X149844761Y-115715238D01*
X149892380Y-115620000D01*
X149892380Y-115334285D01*
X149844761Y-115239047D01*
X149797142Y-115191428D01*
X148987619Y-116191428D02*
X148940000Y-116239047D01*
X148892380Y-116334285D01*
X148892380Y-116572380D01*
X148940000Y-116667619D01*
X148987619Y-116715238D01*
X149082857Y-116762857D01*
X149178095Y-116762857D01*
X149320952Y-116715238D01*
X149892380Y-116143809D01*
X149892380Y-116762857D01*
X268115024Y-111838392D02*
X268382601Y-112500666D01*
X268480267Y-112615283D01*
X268604247Y-112667909D01*
X268754541Y-112658546D01*
X268842844Y-112622869D01*
X268048115Y-112943960D02*
X267673508Y-112016776D01*
X267632023Y-112803919D01*
X267055386Y-112266514D01*
X267429992Y-113193698D01*
X266944325Y-113389920D02*
X266767718Y-113461274D01*
X266661577Y-113452799D01*
X266599586Y-113426486D01*
X266457768Y-113329708D01*
X266342263Y-113170940D01*
X266199556Y-112817727D01*
X266208030Y-112711585D01*
X266234344Y-112649595D01*
X266304808Y-112569767D01*
X266481415Y-112498413D01*
X266587556Y-112506888D01*
X266649546Y-112533201D01*
X266729375Y-112603666D01*
X266818567Y-112824424D01*
X266810092Y-112930566D01*
X266783779Y-112992556D01*
X266713314Y-113072384D01*
X266536708Y-113143738D01*
X266430566Y-113135263D01*
X266368576Y-113108950D01*
X266288748Y-113038485D01*
D14*
X148713333Y-156484047D02*
X148531904Y-156544523D01*
X148229523Y-156544523D01*
X148108571Y-156484047D01*
X148048095Y-156423571D01*
X147987619Y-156302619D01*
X147987619Y-156181666D01*
X148048095Y-156060714D01*
X148108571Y-156000238D01*
X148229523Y-155939761D01*
X148471428Y-155879285D01*
X148592380Y-155818809D01*
X148652857Y-155758333D01*
X148713333Y-155637380D01*
X148713333Y-155516428D01*
X148652857Y-155395476D01*
X148592380Y-155335000D01*
X148471428Y-155274523D01*
X148169047Y-155274523D01*
X147987619Y-155335000D01*
X147564285Y-155274523D02*
X147261904Y-156544523D01*
X147020000Y-155637380D01*
X146778095Y-156544523D01*
X146475714Y-155274523D01*
X146052380Y-155395476D02*
X145991904Y-155335000D01*
X145870952Y-155274523D01*
X145568571Y-155274523D01*
X145447619Y-155335000D01*
X145387142Y-155395476D01*
X145326666Y-155516428D01*
X145326666Y-155637380D01*
X145387142Y-155818809D01*
X146112857Y-156544523D01*
X145326666Y-156544523D01*
D10*
X191005541Y-63287389D02*
X190343267Y-63554965D01*
X190228650Y-63652632D01*
X190176024Y-63776612D01*
X190185388Y-63926905D01*
X190221064Y-64015208D01*
X189899973Y-63220479D02*
X190827157Y-62845872D01*
X190040014Y-62804387D01*
X190577419Y-62227750D01*
X189650235Y-62602356D01*
X190434712Y-61874537D02*
X190202812Y-61300566D01*
X189974468Y-61752335D01*
X189920953Y-61619880D01*
X189841125Y-61549415D01*
X189779135Y-61523102D01*
X189672993Y-61514627D01*
X189452235Y-61603819D01*
X189381770Y-61683647D01*
X189355457Y-61745637D01*
X189346982Y-61851779D01*
X189454013Y-62116689D01*
X189533841Y-62187154D01*
X189595831Y-62213467D01*
X189970913Y-60726595D02*
X189935236Y-60638292D01*
X189855408Y-60567827D01*
X189793418Y-60541514D01*
X189687276Y-60533039D01*
X189492831Y-60560241D01*
X189272073Y-60649433D01*
X189113305Y-60764938D01*
X189042840Y-60844767D01*
X189016527Y-60906757D01*
X189008052Y-61012898D01*
X189043729Y-61101202D01*
X189123558Y-61171666D01*
X189185548Y-61197980D01*
X189291689Y-61206454D01*
X189486134Y-61179252D01*
X189706892Y-61090060D01*
X189865660Y-60974555D01*
X189936125Y-60894727D01*
X189962438Y-60832737D01*
X189970913Y-60726595D01*
X198123066Y-80903882D02*
X197460792Y-81171458D01*
X197346175Y-81269125D01*
X197293549Y-81393105D01*
X197302913Y-81543398D01*
X197338589Y-81631701D01*
X197017498Y-80836972D02*
X197944682Y-80462365D01*
X197157539Y-80420880D01*
X197694944Y-79844243D01*
X196767760Y-80218849D01*
X197446095Y-79482555D02*
X197472408Y-79420565D01*
X197480883Y-79314424D01*
X197391691Y-79093665D01*
X197311863Y-79023201D01*
X197249873Y-78996887D01*
X197143731Y-78988413D01*
X197055428Y-79024089D01*
X196940811Y-79121756D01*
X196625053Y-79865637D01*
X196393154Y-79291666D01*
X196214770Y-78850149D02*
X196143416Y-78673543D01*
X196151891Y-78567401D01*
X196178204Y-78505411D01*
X196274982Y-78363593D01*
X196433750Y-78248088D01*
X196786963Y-78105380D01*
X196893104Y-78113855D01*
X196955095Y-78140168D01*
X197034923Y-78210633D01*
X197106277Y-78387240D01*
X197097802Y-78493381D01*
X197071489Y-78555371D01*
X197001024Y-78635200D01*
X196780266Y-78724392D01*
X196674124Y-78715917D01*
X196612134Y-78689604D01*
X196532306Y-78619139D01*
X196460952Y-78442533D01*
X196469427Y-78336391D01*
X196495740Y-78274401D01*
X196566205Y-78194572D01*
X175422380Y-149240833D02*
X174946190Y-148907500D01*
X175422380Y-148669404D02*
X174422380Y-148669404D01*
X174422380Y-149050357D01*
X174470000Y-149145595D01*
X174517619Y-149193214D01*
X174612857Y-149240833D01*
X174755714Y-149240833D01*
X174850952Y-149193214D01*
X174898571Y-149145595D01*
X174946190Y-149050357D01*
X174946190Y-148669404D01*
X174517619Y-149621785D02*
X174470000Y-149669404D01*
X174422380Y-149764642D01*
X174422380Y-150002738D01*
X174470000Y-150097976D01*
X174517619Y-150145595D01*
X174612857Y-150193214D01*
X174708095Y-150193214D01*
X174850952Y-150145595D01*
X175422380Y-149574166D01*
X175422380Y-150193214D01*
X170122380Y-149253333D02*
X169646190Y-148920000D01*
X170122380Y-148681904D02*
X169122380Y-148681904D01*
X169122380Y-149062857D01*
X169170000Y-149158095D01*
X169217619Y-149205714D01*
X169312857Y-149253333D01*
X169455714Y-149253333D01*
X169550952Y-149205714D01*
X169598571Y-149158095D01*
X169646190Y-149062857D01*
X169646190Y-148681904D01*
X170122380Y-150205714D02*
X170122380Y-149634285D01*
X170122380Y-149920000D02*
X169122380Y-149920000D01*
X169265238Y-149824761D01*
X169360476Y-149729523D01*
X169408095Y-149634285D01*
X168334285Y-108572380D02*
X168334285Y-107572380D01*
X168096190Y-107572380D01*
X167953333Y-107620000D01*
X167858095Y-107715238D01*
X167810476Y-107810476D01*
X167762857Y-108000952D01*
X167762857Y-108143809D01*
X167810476Y-108334285D01*
X167858095Y-108429523D01*
X167953333Y-108524761D01*
X168096190Y-108572380D01*
X168334285Y-108572380D01*
X166858095Y-107572380D02*
X167334285Y-107572380D01*
X167381904Y-108048571D01*
X167334285Y-108000952D01*
X167239047Y-107953333D01*
X167000952Y-107953333D01*
X166905714Y-108000952D01*
X166858095Y-108048571D01*
X166810476Y-108143809D01*
X166810476Y-108381904D01*
X166858095Y-108477142D01*
X166905714Y-108524761D01*
X167000952Y-108572380D01*
X167239047Y-108572380D01*
X167334285Y-108524761D01*
X167381904Y-108477142D01*
X166239047Y-108000952D02*
X166334285Y-107953333D01*
X166381904Y-107905714D01*
X166429523Y-107810476D01*
X166429523Y-107762857D01*
X166381904Y-107667619D01*
X166334285Y-107620000D01*
X166239047Y-107572380D01*
X166048571Y-107572380D01*
X165953333Y-107620000D01*
X165905714Y-107667619D01*
X165858095Y-107762857D01*
X165858095Y-107810476D01*
X165905714Y-107905714D01*
X165953333Y-107953333D01*
X166048571Y-108000952D01*
X166239047Y-108000952D01*
X166334285Y-108048571D01*
X166381904Y-108096190D01*
X166429523Y-108191428D01*
X166429523Y-108381904D01*
X166381904Y-108477142D01*
X166334285Y-108524761D01*
X166239047Y-108572380D01*
X166048571Y-108572380D01*
X165953333Y-108524761D01*
X165905714Y-108477142D01*
X165858095Y-108381904D01*
X165858095Y-108191428D01*
X165905714Y-108096190D01*
X165953333Y-108048571D01*
X166048571Y-108000952D01*
X168334285Y-110972380D02*
X168334285Y-109972380D01*
X168096190Y-109972380D01*
X167953333Y-110020000D01*
X167858095Y-110115238D01*
X167810476Y-110210476D01*
X167762857Y-110400952D01*
X167762857Y-110543809D01*
X167810476Y-110734285D01*
X167858095Y-110829523D01*
X167953333Y-110924761D01*
X168096190Y-110972380D01*
X168334285Y-110972380D01*
X166858095Y-109972380D02*
X167334285Y-109972380D01*
X167381904Y-110448571D01*
X167334285Y-110400952D01*
X167239047Y-110353333D01*
X167000952Y-110353333D01*
X166905714Y-110400952D01*
X166858095Y-110448571D01*
X166810476Y-110543809D01*
X166810476Y-110781904D01*
X166858095Y-110877142D01*
X166905714Y-110924761D01*
X167000952Y-110972380D01*
X167239047Y-110972380D01*
X167334285Y-110924761D01*
X167381904Y-110877142D01*
X166477142Y-109972380D02*
X165810476Y-109972380D01*
X166239047Y-110972380D01*
X168334285Y-113372380D02*
X168334285Y-112372380D01*
X168096190Y-112372380D01*
X167953333Y-112420000D01*
X167858095Y-112515238D01*
X167810476Y-112610476D01*
X167762857Y-112800952D01*
X167762857Y-112943809D01*
X167810476Y-113134285D01*
X167858095Y-113229523D01*
X167953333Y-113324761D01*
X168096190Y-113372380D01*
X168334285Y-113372380D01*
X166858095Y-112372380D02*
X167334285Y-112372380D01*
X167381904Y-112848571D01*
X167334285Y-112800952D01*
X167239047Y-112753333D01*
X167000952Y-112753333D01*
X166905714Y-112800952D01*
X166858095Y-112848571D01*
X166810476Y-112943809D01*
X166810476Y-113181904D01*
X166858095Y-113277142D01*
X166905714Y-113324761D01*
X167000952Y-113372380D01*
X167239047Y-113372380D01*
X167334285Y-113324761D01*
X167381904Y-113277142D01*
X165953333Y-112372380D02*
X166143809Y-112372380D01*
X166239047Y-112420000D01*
X166286666Y-112467619D01*
X166381904Y-112610476D01*
X166429523Y-112800952D01*
X166429523Y-113181904D01*
X166381904Y-113277142D01*
X166334285Y-113324761D01*
X166239047Y-113372380D01*
X166048571Y-113372380D01*
X165953333Y-113324761D01*
X165905714Y-113277142D01*
X165858095Y-113181904D01*
X165858095Y-112943809D01*
X165905714Y-112848571D01*
X165953333Y-112800952D01*
X166048571Y-112753333D01*
X166239047Y-112753333D01*
X166334285Y-112800952D01*
X166381904Y-112848571D01*
X166429523Y-112943809D01*
X168334285Y-115772380D02*
X168334285Y-114772380D01*
X168096190Y-114772380D01*
X167953333Y-114820000D01*
X167858095Y-114915238D01*
X167810476Y-115010476D01*
X167762857Y-115200952D01*
X167762857Y-115343809D01*
X167810476Y-115534285D01*
X167858095Y-115629523D01*
X167953333Y-115724761D01*
X168096190Y-115772380D01*
X168334285Y-115772380D01*
X166858095Y-114772380D02*
X167334285Y-114772380D01*
X167381904Y-115248571D01*
X167334285Y-115200952D01*
X167239047Y-115153333D01*
X167000952Y-115153333D01*
X166905714Y-115200952D01*
X166858095Y-115248571D01*
X166810476Y-115343809D01*
X166810476Y-115581904D01*
X166858095Y-115677142D01*
X166905714Y-115724761D01*
X167000952Y-115772380D01*
X167239047Y-115772380D01*
X167334285Y-115724761D01*
X167381904Y-115677142D01*
X165905714Y-114772380D02*
X166381904Y-114772380D01*
X166429523Y-115248571D01*
X166381904Y-115200952D01*
X166286666Y-115153333D01*
X166048571Y-115153333D01*
X165953333Y-115200952D01*
X165905714Y-115248571D01*
X165858095Y-115343809D01*
X165858095Y-115581904D01*
X165905714Y-115677142D01*
X165953333Y-115724761D01*
X166048571Y-115772380D01*
X166286666Y-115772380D01*
X166381904Y-115724761D01*
X166429523Y-115677142D01*
X168334285Y-118222380D02*
X168334285Y-117222380D01*
X168096190Y-117222380D01*
X167953333Y-117270000D01*
X167858095Y-117365238D01*
X167810476Y-117460476D01*
X167762857Y-117650952D01*
X167762857Y-117793809D01*
X167810476Y-117984285D01*
X167858095Y-118079523D01*
X167953333Y-118174761D01*
X168096190Y-118222380D01*
X168334285Y-118222380D01*
X166858095Y-117222380D02*
X167334285Y-117222380D01*
X167381904Y-117698571D01*
X167334285Y-117650952D01*
X167239047Y-117603333D01*
X167000952Y-117603333D01*
X166905714Y-117650952D01*
X166858095Y-117698571D01*
X166810476Y-117793809D01*
X166810476Y-118031904D01*
X166858095Y-118127142D01*
X166905714Y-118174761D01*
X167000952Y-118222380D01*
X167239047Y-118222380D01*
X167334285Y-118174761D01*
X167381904Y-118127142D01*
X165953333Y-117555714D02*
X165953333Y-118222380D01*
X166191428Y-117174761D02*
X166429523Y-117889047D01*
X165810476Y-117889047D01*
X120372380Y-139705714D02*
X119372380Y-139705714D01*
X119372380Y-139943809D01*
X119420000Y-140086666D01*
X119515238Y-140181904D01*
X119610476Y-140229523D01*
X119800952Y-140277142D01*
X119943809Y-140277142D01*
X120134285Y-140229523D01*
X120229523Y-140181904D01*
X120324761Y-140086666D01*
X120372380Y-139943809D01*
X120372380Y-139705714D01*
X119372380Y-141181904D02*
X119372380Y-140705714D01*
X119848571Y-140658095D01*
X119800952Y-140705714D01*
X119753333Y-140800952D01*
X119753333Y-141039047D01*
X119800952Y-141134285D01*
X119848571Y-141181904D01*
X119943809Y-141229523D01*
X120181904Y-141229523D01*
X120277142Y-141181904D01*
X120324761Y-141134285D01*
X120372380Y-141039047D01*
X120372380Y-140800952D01*
X120324761Y-140705714D01*
X120277142Y-140658095D01*
X119372380Y-141562857D02*
X119372380Y-142181904D01*
X119753333Y-141848571D01*
X119753333Y-141991428D01*
X119800952Y-142086666D01*
X119848571Y-142134285D01*
X119943809Y-142181904D01*
X120181904Y-142181904D01*
X120277142Y-142134285D01*
X120324761Y-142086666D01*
X120372380Y-141991428D01*
X120372380Y-141705714D01*
X120324761Y-141610476D01*
X120277142Y-141562857D01*
X168334285Y-103672380D02*
X168334285Y-102672380D01*
X168096190Y-102672380D01*
X167953333Y-102720000D01*
X167858095Y-102815238D01*
X167810476Y-102910476D01*
X167762857Y-103100952D01*
X167762857Y-103243809D01*
X167810476Y-103434285D01*
X167858095Y-103529523D01*
X167953333Y-103624761D01*
X168096190Y-103672380D01*
X168334285Y-103672380D01*
X166858095Y-102672380D02*
X167334285Y-102672380D01*
X167381904Y-103148571D01*
X167334285Y-103100952D01*
X167239047Y-103053333D01*
X167000952Y-103053333D01*
X166905714Y-103100952D01*
X166858095Y-103148571D01*
X166810476Y-103243809D01*
X166810476Y-103481904D01*
X166858095Y-103577142D01*
X166905714Y-103624761D01*
X167000952Y-103672380D01*
X167239047Y-103672380D01*
X167334285Y-103624761D01*
X167381904Y-103577142D01*
X166429523Y-102767619D02*
X166381904Y-102720000D01*
X166286666Y-102672380D01*
X166048571Y-102672380D01*
X165953333Y-102720000D01*
X165905714Y-102767619D01*
X165858095Y-102862857D01*
X165858095Y-102958095D01*
X165905714Y-103100952D01*
X166477142Y-103672380D01*
X165858095Y-103672380D01*
X117872380Y-139705714D02*
X116872380Y-139705714D01*
X116872380Y-139943809D01*
X116920000Y-140086666D01*
X117015238Y-140181904D01*
X117110476Y-140229523D01*
X117300952Y-140277142D01*
X117443809Y-140277142D01*
X117634285Y-140229523D01*
X117729523Y-140181904D01*
X117824761Y-140086666D01*
X117872380Y-139943809D01*
X117872380Y-139705714D01*
X116872380Y-141181904D02*
X116872380Y-140705714D01*
X117348571Y-140658095D01*
X117300952Y-140705714D01*
X117253333Y-140800952D01*
X117253333Y-141039047D01*
X117300952Y-141134285D01*
X117348571Y-141181904D01*
X117443809Y-141229523D01*
X117681904Y-141229523D01*
X117777142Y-141181904D01*
X117824761Y-141134285D01*
X117872380Y-141039047D01*
X117872380Y-140800952D01*
X117824761Y-140705714D01*
X117777142Y-140658095D01*
X117872380Y-142181904D02*
X117872380Y-141610476D01*
X117872380Y-141896190D02*
X116872380Y-141896190D01*
X117015238Y-141800952D01*
X117110476Y-141705714D01*
X117158095Y-141610476D01*
X140510785Y-104479780D02*
X140510785Y-103479780D01*
X140272690Y-103479780D01*
X140129833Y-103527400D01*
X140034595Y-103622638D01*
X139986976Y-103717876D01*
X139939357Y-103908352D01*
X139939357Y-104051209D01*
X139986976Y-104241685D01*
X140034595Y-104336923D01*
X140129833Y-104432161D01*
X140272690Y-104479780D01*
X140510785Y-104479780D01*
X139034595Y-103479780D02*
X139510785Y-103479780D01*
X139558404Y-103955971D01*
X139510785Y-103908352D01*
X139415547Y-103860733D01*
X139177452Y-103860733D01*
X139082214Y-103908352D01*
X139034595Y-103955971D01*
X138986976Y-104051209D01*
X138986976Y-104289304D01*
X139034595Y-104384542D01*
X139082214Y-104432161D01*
X139177452Y-104479780D01*
X139415547Y-104479780D01*
X139510785Y-104432161D01*
X139558404Y-104384542D01*
X138367928Y-103479780D02*
X138272690Y-103479780D01*
X138177452Y-103527400D01*
X138129833Y-103575019D01*
X138082214Y-103670257D01*
X138034595Y-103860733D01*
X138034595Y-104098828D01*
X138082214Y-104289304D01*
X138129833Y-104384542D01*
X138177452Y-104432161D01*
X138272690Y-104479780D01*
X138367928Y-104479780D01*
X138463166Y-104432161D01*
X138510785Y-104384542D01*
X138558404Y-104289304D01*
X138606023Y-104098828D01*
X138606023Y-103860733D01*
X138558404Y-103670257D01*
X138510785Y-103575019D01*
X138463166Y-103527400D01*
X138367928Y-103479780D01*
X140510785Y-119429780D02*
X140510785Y-118429780D01*
X140272690Y-118429780D01*
X140129833Y-118477400D01*
X140034595Y-118572638D01*
X139986976Y-118667876D01*
X139939357Y-118858352D01*
X139939357Y-119001209D01*
X139986976Y-119191685D01*
X140034595Y-119286923D01*
X140129833Y-119382161D01*
X140272690Y-119429780D01*
X140510785Y-119429780D01*
X139082214Y-118763114D02*
X139082214Y-119429780D01*
X139320309Y-118382161D02*
X139558404Y-119096447D01*
X138939357Y-119096447D01*
X138510785Y-119429780D02*
X138320309Y-119429780D01*
X138225071Y-119382161D01*
X138177452Y-119334542D01*
X138082214Y-119191685D01*
X138034595Y-119001209D01*
X138034595Y-118620257D01*
X138082214Y-118525019D01*
X138129833Y-118477400D01*
X138225071Y-118429780D01*
X138415547Y-118429780D01*
X138510785Y-118477400D01*
X138558404Y-118525019D01*
X138606023Y-118620257D01*
X138606023Y-118858352D01*
X138558404Y-118953590D01*
X138510785Y-119001209D01*
X138415547Y-119048828D01*
X138225071Y-119048828D01*
X138129833Y-119001209D01*
X138082214Y-118953590D01*
X138034595Y-118858352D01*
X140510785Y-106928668D02*
X140510785Y-105928668D01*
X140272690Y-105928668D01*
X140129833Y-105976288D01*
X140034595Y-106071526D01*
X139986976Y-106166764D01*
X139939357Y-106357240D01*
X139939357Y-106500097D01*
X139986976Y-106690573D01*
X140034595Y-106785811D01*
X140129833Y-106881049D01*
X140272690Y-106928668D01*
X140510785Y-106928668D01*
X139082214Y-106262002D02*
X139082214Y-106928668D01*
X139320309Y-105881049D02*
X139558404Y-106595335D01*
X138939357Y-106595335D01*
X138415547Y-106357240D02*
X138510785Y-106309621D01*
X138558404Y-106262002D01*
X138606023Y-106166764D01*
X138606023Y-106119145D01*
X138558404Y-106023907D01*
X138510785Y-105976288D01*
X138415547Y-105928668D01*
X138225071Y-105928668D01*
X138129833Y-105976288D01*
X138082214Y-106023907D01*
X138034595Y-106119145D01*
X138034595Y-106166764D01*
X138082214Y-106262002D01*
X138129833Y-106309621D01*
X138225071Y-106357240D01*
X138415547Y-106357240D01*
X138510785Y-106404859D01*
X138558404Y-106452478D01*
X138606023Y-106547716D01*
X138606023Y-106738192D01*
X138558404Y-106833430D01*
X138510785Y-106881049D01*
X138415547Y-106928668D01*
X138225071Y-106928668D01*
X138129833Y-106881049D01*
X138082214Y-106833430D01*
X138034595Y-106738192D01*
X138034595Y-106547716D01*
X138082214Y-106452478D01*
X138129833Y-106404859D01*
X138225071Y-106357240D01*
X140510785Y-109427556D02*
X140510785Y-108427556D01*
X140272690Y-108427556D01*
X140129833Y-108475176D01*
X140034595Y-108570414D01*
X139986976Y-108665652D01*
X139939357Y-108856128D01*
X139939357Y-108998985D01*
X139986976Y-109189461D01*
X140034595Y-109284699D01*
X140129833Y-109379937D01*
X140272690Y-109427556D01*
X140510785Y-109427556D01*
X139082214Y-108760890D02*
X139082214Y-109427556D01*
X139320309Y-108379937D02*
X139558404Y-109094223D01*
X138939357Y-109094223D01*
X138653642Y-108427556D02*
X137986976Y-108427556D01*
X138415547Y-109427556D01*
X140510785Y-111926444D02*
X140510785Y-110926444D01*
X140272690Y-110926444D01*
X140129833Y-110974064D01*
X140034595Y-111069302D01*
X139986976Y-111164540D01*
X139939357Y-111355016D01*
X139939357Y-111497873D01*
X139986976Y-111688349D01*
X140034595Y-111783587D01*
X140129833Y-111878825D01*
X140272690Y-111926444D01*
X140510785Y-111926444D01*
X139082214Y-111259778D02*
X139082214Y-111926444D01*
X139320309Y-110878825D02*
X139558404Y-111593111D01*
X138939357Y-111593111D01*
X138129833Y-110926444D02*
X138320309Y-110926444D01*
X138415547Y-110974064D01*
X138463166Y-111021683D01*
X138558404Y-111164540D01*
X138606023Y-111355016D01*
X138606023Y-111735968D01*
X138558404Y-111831206D01*
X138510785Y-111878825D01*
X138415547Y-111926444D01*
X138225071Y-111926444D01*
X138129833Y-111878825D01*
X138082214Y-111831206D01*
X138034595Y-111735968D01*
X138034595Y-111497873D01*
X138082214Y-111402635D01*
X138129833Y-111355016D01*
X138225071Y-111307397D01*
X138415547Y-111307397D01*
X138510785Y-111355016D01*
X138558404Y-111402635D01*
X138606023Y-111497873D01*
X140510785Y-114425332D02*
X140510785Y-113425332D01*
X140272690Y-113425332D01*
X140129833Y-113472952D01*
X140034595Y-113568190D01*
X139986976Y-113663428D01*
X139939357Y-113853904D01*
X139939357Y-113996761D01*
X139986976Y-114187237D01*
X140034595Y-114282475D01*
X140129833Y-114377713D01*
X140272690Y-114425332D01*
X140510785Y-114425332D01*
X139082214Y-113758666D02*
X139082214Y-114425332D01*
X139320309Y-113377713D02*
X139558404Y-114091999D01*
X138939357Y-114091999D01*
X138082214Y-113425332D02*
X138558404Y-113425332D01*
X138606023Y-113901523D01*
X138558404Y-113853904D01*
X138463166Y-113806285D01*
X138225071Y-113806285D01*
X138129833Y-113853904D01*
X138082214Y-113901523D01*
X138034595Y-113996761D01*
X138034595Y-114234856D01*
X138082214Y-114330094D01*
X138129833Y-114377713D01*
X138225071Y-114425332D01*
X138463166Y-114425332D01*
X138558404Y-114377713D01*
X138606023Y-114330094D01*
X207883910Y-129605714D02*
X206883910Y-129605714D01*
X206883910Y-129843809D01*
X206931530Y-129986666D01*
X207026768Y-130081904D01*
X207122006Y-130129523D01*
X207312482Y-130177142D01*
X207455339Y-130177142D01*
X207645815Y-130129523D01*
X207741053Y-130081904D01*
X207836291Y-129986666D01*
X207883910Y-129843809D01*
X207883910Y-129605714D01*
X207217244Y-131034285D02*
X207883910Y-131034285D01*
X206836291Y-130796190D02*
X207550577Y-130558095D01*
X207550577Y-131177142D01*
X207217244Y-131986666D02*
X207883910Y-131986666D01*
X206836291Y-131748571D02*
X207550577Y-131510476D01*
X207550577Y-132129523D01*
X205064680Y-129605714D02*
X204064680Y-129605714D01*
X204064680Y-129843809D01*
X204112300Y-129986666D01*
X204207538Y-130081904D01*
X204302776Y-130129523D01*
X204493252Y-130177142D01*
X204636109Y-130177142D01*
X204826585Y-130129523D01*
X204921823Y-130081904D01*
X205017061Y-129986666D01*
X205064680Y-129843809D01*
X205064680Y-129605714D01*
X204398014Y-131034285D02*
X205064680Y-131034285D01*
X204017061Y-130796190D02*
X204731347Y-130558095D01*
X204731347Y-131177142D01*
X204064680Y-131462857D02*
X204064680Y-132081904D01*
X204445633Y-131748571D01*
X204445633Y-131891428D01*
X204493252Y-131986666D01*
X204540871Y-132034285D01*
X204636109Y-132081904D01*
X204874204Y-132081904D01*
X204969442Y-132034285D01*
X205017061Y-131986666D01*
X205064680Y-131891428D01*
X205064680Y-131605714D01*
X205017061Y-131510476D01*
X204969442Y-131462857D01*
X191049300Y-129605714D02*
X190049300Y-129605714D01*
X190049300Y-129843809D01*
X190096920Y-129986666D01*
X190192158Y-130081904D01*
X190287396Y-130129523D01*
X190477872Y-130177142D01*
X190620729Y-130177142D01*
X190811205Y-130129523D01*
X190906443Y-130081904D01*
X191001681Y-129986666D01*
X191049300Y-129843809D01*
X191049300Y-129605714D01*
X190382634Y-131034285D02*
X191049300Y-131034285D01*
X190001681Y-130796190D02*
X190715967Y-130558095D01*
X190715967Y-131177142D01*
X190144539Y-131510476D02*
X190096920Y-131558095D01*
X190049300Y-131653333D01*
X190049300Y-131891428D01*
X190096920Y-131986666D01*
X190144539Y-132034285D01*
X190239777Y-132081904D01*
X190335015Y-132081904D01*
X190477872Y-132034285D01*
X191049300Y-131462857D01*
X191049300Y-132081904D01*
X193868530Y-129605714D02*
X192868530Y-129605714D01*
X192868530Y-129843809D01*
X192916150Y-129986666D01*
X193011388Y-130081904D01*
X193106626Y-130129523D01*
X193297102Y-130177142D01*
X193439959Y-130177142D01*
X193630435Y-130129523D01*
X193725673Y-130081904D01*
X193820911Y-129986666D01*
X193868530Y-129843809D01*
X193868530Y-129605714D01*
X193201864Y-131034285D02*
X193868530Y-131034285D01*
X192820911Y-130796190D02*
X193535197Y-130558095D01*
X193535197Y-131177142D01*
X193868530Y-132081904D02*
X193868530Y-131510476D01*
X193868530Y-131796190D02*
X192868530Y-131796190D01*
X193011388Y-131700952D01*
X193106626Y-131605714D01*
X193154245Y-131510476D01*
X196687760Y-129605714D02*
X195687760Y-129605714D01*
X195687760Y-129843809D01*
X195735380Y-129986666D01*
X195830618Y-130081904D01*
X195925856Y-130129523D01*
X196116332Y-130177142D01*
X196259189Y-130177142D01*
X196449665Y-130129523D01*
X196544903Y-130081904D01*
X196640141Y-129986666D01*
X196687760Y-129843809D01*
X196687760Y-129605714D01*
X196021094Y-131034285D02*
X196687760Y-131034285D01*
X195640141Y-130796190D02*
X196354427Y-130558095D01*
X196354427Y-131177142D01*
X195687760Y-131748571D02*
X195687760Y-131843809D01*
X195735380Y-131939047D01*
X195782999Y-131986666D01*
X195878237Y-132034285D01*
X196068713Y-132081904D01*
X196306808Y-132081904D01*
X196497284Y-132034285D01*
X196592522Y-131986666D01*
X196640141Y-131939047D01*
X196687760Y-131843809D01*
X196687760Y-131748571D01*
X196640141Y-131653333D01*
X196592522Y-131605714D01*
X196497284Y-131558095D01*
X196306808Y-131510476D01*
X196068713Y-131510476D01*
X195878237Y-131558095D01*
X195782999Y-131605714D01*
X195735380Y-131653333D01*
X195687760Y-131748571D01*
X199506990Y-129605714D02*
X198506990Y-129605714D01*
X198506990Y-129843809D01*
X198554610Y-129986666D01*
X198649848Y-130081904D01*
X198745086Y-130129523D01*
X198935562Y-130177142D01*
X199078419Y-130177142D01*
X199268895Y-130129523D01*
X199364133Y-130081904D01*
X199459371Y-129986666D01*
X199506990Y-129843809D01*
X199506990Y-129605714D01*
X198506990Y-130510476D02*
X198506990Y-131129523D01*
X198887943Y-130796190D01*
X198887943Y-130939047D01*
X198935562Y-131034285D01*
X198983181Y-131081904D01*
X199078419Y-131129523D01*
X199316514Y-131129523D01*
X199411752Y-131081904D01*
X199459371Y-131034285D01*
X199506990Y-130939047D01*
X199506990Y-130653333D01*
X199459371Y-130558095D01*
X199411752Y-130510476D01*
X199506990Y-131605714D02*
X199506990Y-131796190D01*
X199459371Y-131891428D01*
X199411752Y-131939047D01*
X199268895Y-132034285D01*
X199078419Y-132081904D01*
X198697467Y-132081904D01*
X198602229Y-132034285D01*
X198554610Y-131986666D01*
X198506990Y-131891428D01*
X198506990Y-131700952D01*
X198554610Y-131605714D01*
X198602229Y-131558095D01*
X198697467Y-131510476D01*
X198935562Y-131510476D01*
X199030800Y-131558095D01*
X199078419Y-131605714D01*
X199126038Y-131700952D01*
X199126038Y-131891428D01*
X199078419Y-131986666D01*
X199030800Y-132034285D01*
X198935562Y-132081904D01*
X179772380Y-129605714D02*
X178772380Y-129605714D01*
X178772380Y-129843809D01*
X178820000Y-129986666D01*
X178915238Y-130081904D01*
X179010476Y-130129523D01*
X179200952Y-130177142D01*
X179343809Y-130177142D01*
X179534285Y-130129523D01*
X179629523Y-130081904D01*
X179724761Y-129986666D01*
X179772380Y-129843809D01*
X179772380Y-129605714D01*
X178772380Y-130510476D02*
X178772380Y-131129523D01*
X179153333Y-130796190D01*
X179153333Y-130939047D01*
X179200952Y-131034285D01*
X179248571Y-131081904D01*
X179343809Y-131129523D01*
X179581904Y-131129523D01*
X179677142Y-131081904D01*
X179724761Y-131034285D01*
X179772380Y-130939047D01*
X179772380Y-130653333D01*
X179724761Y-130558095D01*
X179677142Y-130510476D01*
X179200952Y-131700952D02*
X179153333Y-131605714D01*
X179105714Y-131558095D01*
X179010476Y-131510476D01*
X178962857Y-131510476D01*
X178867619Y-131558095D01*
X178820000Y-131605714D01*
X178772380Y-131700952D01*
X178772380Y-131891428D01*
X178820000Y-131986666D01*
X178867619Y-132034285D01*
X178962857Y-132081904D01*
X179010476Y-132081904D01*
X179105714Y-132034285D01*
X179153333Y-131986666D01*
X179200952Y-131891428D01*
X179200952Y-131700952D01*
X179248571Y-131605714D01*
X179296190Y-131558095D01*
X179391428Y-131510476D01*
X179581904Y-131510476D01*
X179677142Y-131558095D01*
X179724761Y-131605714D01*
X179772380Y-131700952D01*
X179772380Y-131891428D01*
X179724761Y-131986666D01*
X179677142Y-132034285D01*
X179581904Y-132081904D01*
X179391428Y-132081904D01*
X179296190Y-132034285D01*
X179248571Y-131986666D01*
X179200952Y-131891428D01*
X182591610Y-129605714D02*
X181591610Y-129605714D01*
X181591610Y-129843809D01*
X181639230Y-129986666D01*
X181734468Y-130081904D01*
X181829706Y-130129523D01*
X182020182Y-130177142D01*
X182163039Y-130177142D01*
X182353515Y-130129523D01*
X182448753Y-130081904D01*
X182543991Y-129986666D01*
X182591610Y-129843809D01*
X182591610Y-129605714D01*
X181591610Y-130510476D02*
X181591610Y-131129523D01*
X181972563Y-130796190D01*
X181972563Y-130939047D01*
X182020182Y-131034285D01*
X182067801Y-131081904D01*
X182163039Y-131129523D01*
X182401134Y-131129523D01*
X182496372Y-131081904D01*
X182543991Y-131034285D01*
X182591610Y-130939047D01*
X182591610Y-130653333D01*
X182543991Y-130558095D01*
X182496372Y-130510476D01*
X181591610Y-131462857D02*
X181591610Y-132129523D01*
X182591610Y-131700952D01*
X185410840Y-129605714D02*
X184410840Y-129605714D01*
X184410840Y-129843809D01*
X184458460Y-129986666D01*
X184553698Y-130081904D01*
X184648936Y-130129523D01*
X184839412Y-130177142D01*
X184982269Y-130177142D01*
X185172745Y-130129523D01*
X185267983Y-130081904D01*
X185363221Y-129986666D01*
X185410840Y-129843809D01*
X185410840Y-129605714D01*
X184410840Y-130510476D02*
X184410840Y-131129523D01*
X184791793Y-130796190D01*
X184791793Y-130939047D01*
X184839412Y-131034285D01*
X184887031Y-131081904D01*
X184982269Y-131129523D01*
X185220364Y-131129523D01*
X185315602Y-131081904D01*
X185363221Y-131034285D01*
X185410840Y-130939047D01*
X185410840Y-130653333D01*
X185363221Y-130558095D01*
X185315602Y-130510476D01*
X184410840Y-131986666D02*
X184410840Y-131796190D01*
X184458460Y-131700952D01*
X184506079Y-131653333D01*
X184648936Y-131558095D01*
X184839412Y-131510476D01*
X185220364Y-131510476D01*
X185315602Y-131558095D01*
X185363221Y-131605714D01*
X185410840Y-131700952D01*
X185410840Y-131891428D01*
X185363221Y-131986666D01*
X185315602Y-132034285D01*
X185220364Y-132081904D01*
X184982269Y-132081904D01*
X184887031Y-132034285D01*
X184839412Y-131986666D01*
X184791793Y-131891428D01*
X184791793Y-131700952D01*
X184839412Y-131605714D01*
X184887031Y-131558095D01*
X184982269Y-131510476D01*
X188230070Y-129605714D02*
X187230070Y-129605714D01*
X187230070Y-129843809D01*
X187277690Y-129986666D01*
X187372928Y-130081904D01*
X187468166Y-130129523D01*
X187658642Y-130177142D01*
X187801499Y-130177142D01*
X187991975Y-130129523D01*
X188087213Y-130081904D01*
X188182451Y-129986666D01*
X188230070Y-129843809D01*
X188230070Y-129605714D01*
X187230070Y-130510476D02*
X187230070Y-131129523D01*
X187611023Y-130796190D01*
X187611023Y-130939047D01*
X187658642Y-131034285D01*
X187706261Y-131081904D01*
X187801499Y-131129523D01*
X188039594Y-131129523D01*
X188134832Y-131081904D01*
X188182451Y-131034285D01*
X188230070Y-130939047D01*
X188230070Y-130653333D01*
X188182451Y-130558095D01*
X188134832Y-130510476D01*
X187230070Y-132034285D02*
X187230070Y-131558095D01*
X187706261Y-131510476D01*
X187658642Y-131558095D01*
X187611023Y-131653333D01*
X187611023Y-131891428D01*
X187658642Y-131986666D01*
X187706261Y-132034285D01*
X187801499Y-132081904D01*
X188039594Y-132081904D01*
X188134832Y-132034285D01*
X188182451Y-131986666D01*
X188230070Y-131891428D01*
X188230070Y-131653333D01*
X188182451Y-131558095D01*
X188134832Y-131510476D01*
X168334285Y-120672380D02*
X168334285Y-119672380D01*
X168096190Y-119672380D01*
X167953333Y-119720000D01*
X167858095Y-119815238D01*
X167810476Y-119910476D01*
X167762857Y-120100952D01*
X167762857Y-120243809D01*
X167810476Y-120434285D01*
X167858095Y-120529523D01*
X167953333Y-120624761D01*
X168096190Y-120672380D01*
X168334285Y-120672380D01*
X167429523Y-119672380D02*
X166810476Y-119672380D01*
X167143809Y-120053333D01*
X167000952Y-120053333D01*
X166905714Y-120100952D01*
X166858095Y-120148571D01*
X166810476Y-120243809D01*
X166810476Y-120481904D01*
X166858095Y-120577142D01*
X166905714Y-120624761D01*
X167000952Y-120672380D01*
X167286666Y-120672380D01*
X167381904Y-120624761D01*
X167429523Y-120577142D01*
X165953333Y-120005714D02*
X165953333Y-120672380D01*
X166191428Y-119624761D02*
X166429523Y-120339047D01*
X165810476Y-120339047D01*
X168334285Y-123222380D02*
X168334285Y-122222380D01*
X168096190Y-122222380D01*
X167953333Y-122270000D01*
X167858095Y-122365238D01*
X167810476Y-122460476D01*
X167762857Y-122650952D01*
X167762857Y-122793809D01*
X167810476Y-122984285D01*
X167858095Y-123079523D01*
X167953333Y-123174761D01*
X168096190Y-123222380D01*
X168334285Y-123222380D01*
X167429523Y-122222380D02*
X166810476Y-122222380D01*
X167143809Y-122603333D01*
X167000952Y-122603333D01*
X166905714Y-122650952D01*
X166858095Y-122698571D01*
X166810476Y-122793809D01*
X166810476Y-123031904D01*
X166858095Y-123127142D01*
X166905714Y-123174761D01*
X167000952Y-123222380D01*
X167286666Y-123222380D01*
X167381904Y-123174761D01*
X167429523Y-123127142D01*
X166477142Y-122222380D02*
X165858095Y-122222380D01*
X166191428Y-122603333D01*
X166048571Y-122603333D01*
X165953333Y-122650952D01*
X165905714Y-122698571D01*
X165858095Y-122793809D01*
X165858095Y-123031904D01*
X165905714Y-123127142D01*
X165953333Y-123174761D01*
X166048571Y-123222380D01*
X166334285Y-123222380D01*
X166429523Y-123174761D01*
X166477142Y-123127142D01*
X168334285Y-125722380D02*
X168334285Y-124722380D01*
X168096190Y-124722380D01*
X167953333Y-124770000D01*
X167858095Y-124865238D01*
X167810476Y-124960476D01*
X167762857Y-125150952D01*
X167762857Y-125293809D01*
X167810476Y-125484285D01*
X167858095Y-125579523D01*
X167953333Y-125674761D01*
X168096190Y-125722380D01*
X168334285Y-125722380D01*
X167429523Y-124722380D02*
X166810476Y-124722380D01*
X167143809Y-125103333D01*
X167000952Y-125103333D01*
X166905714Y-125150952D01*
X166858095Y-125198571D01*
X166810476Y-125293809D01*
X166810476Y-125531904D01*
X166858095Y-125627142D01*
X166905714Y-125674761D01*
X167000952Y-125722380D01*
X167286666Y-125722380D01*
X167381904Y-125674761D01*
X167429523Y-125627142D01*
X166429523Y-124817619D02*
X166381904Y-124770000D01*
X166286666Y-124722380D01*
X166048571Y-124722380D01*
X165953333Y-124770000D01*
X165905714Y-124817619D01*
X165858095Y-124912857D01*
X165858095Y-125008095D01*
X165905714Y-125150952D01*
X166477142Y-125722380D01*
X165858095Y-125722380D01*
X168334285Y-128222380D02*
X168334285Y-127222380D01*
X168096190Y-127222380D01*
X167953333Y-127270000D01*
X167858095Y-127365238D01*
X167810476Y-127460476D01*
X167762857Y-127650952D01*
X167762857Y-127793809D01*
X167810476Y-127984285D01*
X167858095Y-128079523D01*
X167953333Y-128174761D01*
X168096190Y-128222380D01*
X168334285Y-128222380D01*
X167429523Y-127222380D02*
X166810476Y-127222380D01*
X167143809Y-127603333D01*
X167000952Y-127603333D01*
X166905714Y-127650952D01*
X166858095Y-127698571D01*
X166810476Y-127793809D01*
X166810476Y-128031904D01*
X166858095Y-128127142D01*
X166905714Y-128174761D01*
X167000952Y-128222380D01*
X167286666Y-128222380D01*
X167381904Y-128174761D01*
X167429523Y-128127142D01*
X165858095Y-128222380D02*
X166429523Y-128222380D01*
X166143809Y-128222380D02*
X166143809Y-127222380D01*
X166239047Y-127365238D01*
X166334285Y-127460476D01*
X166429523Y-127508095D01*
X213222380Y-129605714D02*
X212222380Y-129605714D01*
X212222380Y-129843809D01*
X212270000Y-129986666D01*
X212365238Y-130081904D01*
X212460476Y-130129523D01*
X212650952Y-130177142D01*
X212793809Y-130177142D01*
X212984285Y-130129523D01*
X213079523Y-130081904D01*
X213174761Y-129986666D01*
X213222380Y-129843809D01*
X213222380Y-129605714D01*
X212222380Y-130510476D02*
X212222380Y-131129523D01*
X212603333Y-130796190D01*
X212603333Y-130939047D01*
X212650952Y-131034285D01*
X212698571Y-131081904D01*
X212793809Y-131129523D01*
X213031904Y-131129523D01*
X213127142Y-131081904D01*
X213174761Y-131034285D01*
X213222380Y-130939047D01*
X213222380Y-130653333D01*
X213174761Y-130558095D01*
X213127142Y-130510476D01*
X212222380Y-131748571D02*
X212222380Y-131843809D01*
X212270000Y-131939047D01*
X212317619Y-131986666D01*
X212412857Y-132034285D01*
X212603333Y-132081904D01*
X212841428Y-132081904D01*
X213031904Y-132034285D01*
X213127142Y-131986666D01*
X213174761Y-131939047D01*
X213222380Y-131843809D01*
X213222380Y-131748571D01*
X213174761Y-131653333D01*
X213127142Y-131605714D01*
X213031904Y-131558095D01*
X212841428Y-131510476D01*
X212603333Y-131510476D01*
X212412857Y-131558095D01*
X212317619Y-131605714D01*
X212270000Y-131653333D01*
X212222380Y-131748571D01*
X210403140Y-129605714D02*
X209403140Y-129605714D01*
X209403140Y-129843809D01*
X209450760Y-129986666D01*
X209545998Y-130081904D01*
X209641236Y-130129523D01*
X209831712Y-130177142D01*
X209974569Y-130177142D01*
X210165045Y-130129523D01*
X210260283Y-130081904D01*
X210355521Y-129986666D01*
X210403140Y-129843809D01*
X210403140Y-129605714D01*
X209498379Y-130558095D02*
X209450760Y-130605714D01*
X209403140Y-130700952D01*
X209403140Y-130939047D01*
X209450760Y-131034285D01*
X209498379Y-131081904D01*
X209593617Y-131129523D01*
X209688855Y-131129523D01*
X209831712Y-131081904D01*
X210403140Y-130510476D01*
X210403140Y-131129523D01*
X210403140Y-131605714D02*
X210403140Y-131796190D01*
X210355521Y-131891428D01*
X210307902Y-131939047D01*
X210165045Y-132034285D01*
X209974569Y-132081904D01*
X209593617Y-132081904D01*
X209498379Y-132034285D01*
X209450760Y-131986666D01*
X209403140Y-131891428D01*
X209403140Y-131700952D01*
X209450760Y-131605714D01*
X209498379Y-131558095D01*
X209593617Y-131510476D01*
X209831712Y-131510476D01*
X209926950Y-131558095D01*
X209974569Y-131605714D01*
X210022188Y-131700952D01*
X210022188Y-131891428D01*
X209974569Y-131986666D01*
X209926950Y-132034285D01*
X209831712Y-132081904D01*
X202245450Y-129605714D02*
X201245450Y-129605714D01*
X201245450Y-129843809D01*
X201293070Y-129986666D01*
X201388308Y-130081904D01*
X201483546Y-130129523D01*
X201674022Y-130177142D01*
X201816879Y-130177142D01*
X202007355Y-130129523D01*
X202102593Y-130081904D01*
X202197831Y-129986666D01*
X202245450Y-129843809D01*
X202245450Y-129605714D01*
X201340689Y-130558095D02*
X201293070Y-130605714D01*
X201245450Y-130700952D01*
X201245450Y-130939047D01*
X201293070Y-131034285D01*
X201340689Y-131081904D01*
X201435927Y-131129523D01*
X201531165Y-131129523D01*
X201674022Y-131081904D01*
X202245450Y-130510476D01*
X202245450Y-131129523D01*
X201674022Y-131700952D02*
X201626403Y-131605714D01*
X201578784Y-131558095D01*
X201483546Y-131510476D01*
X201435927Y-131510476D01*
X201340689Y-131558095D01*
X201293070Y-131605714D01*
X201245450Y-131700952D01*
X201245450Y-131891428D01*
X201293070Y-131986666D01*
X201340689Y-132034285D01*
X201435927Y-132081904D01*
X201483546Y-132081904D01*
X201578784Y-132034285D01*
X201626403Y-131986666D01*
X201674022Y-131891428D01*
X201674022Y-131700952D01*
X201721641Y-131605714D01*
X201769260Y-131558095D01*
X201864498Y-131510476D01*
X202054974Y-131510476D01*
X202150212Y-131558095D01*
X202197831Y-131605714D01*
X202245450Y-131700952D01*
X202245450Y-131891428D01*
X202197831Y-131986666D01*
X202150212Y-132034285D01*
X202054974Y-132081904D01*
X201864498Y-132081904D01*
X201769260Y-132034285D01*
X201721641Y-131986666D01*
X201674022Y-131891428D01*
X168334285Y-135684880D02*
X168334285Y-134684880D01*
X168096190Y-134684880D01*
X167953333Y-134732500D01*
X167858095Y-134827738D01*
X167810476Y-134922976D01*
X167762857Y-135113452D01*
X167762857Y-135256309D01*
X167810476Y-135446785D01*
X167858095Y-135542023D01*
X167953333Y-135637261D01*
X168096190Y-135684880D01*
X168334285Y-135684880D01*
X167381904Y-134780119D02*
X167334285Y-134732500D01*
X167239047Y-134684880D01*
X167000952Y-134684880D01*
X166905714Y-134732500D01*
X166858095Y-134780119D01*
X166810476Y-134875357D01*
X166810476Y-134970595D01*
X166858095Y-135113452D01*
X167429523Y-135684880D01*
X166810476Y-135684880D01*
X166477142Y-134684880D02*
X165810476Y-134684880D01*
X166239047Y-135684880D01*
X168334285Y-133222380D02*
X168334285Y-132222380D01*
X168096190Y-132222380D01*
X167953333Y-132270000D01*
X167858095Y-132365238D01*
X167810476Y-132460476D01*
X167762857Y-132650952D01*
X167762857Y-132793809D01*
X167810476Y-132984285D01*
X167858095Y-133079523D01*
X167953333Y-133174761D01*
X168096190Y-133222380D01*
X168334285Y-133222380D01*
X167381904Y-132317619D02*
X167334285Y-132270000D01*
X167239047Y-132222380D01*
X167000952Y-132222380D01*
X166905714Y-132270000D01*
X166858095Y-132317619D01*
X166810476Y-132412857D01*
X166810476Y-132508095D01*
X166858095Y-132650952D01*
X167429523Y-133222380D01*
X166810476Y-133222380D01*
X165953333Y-132222380D02*
X166143809Y-132222380D01*
X166239047Y-132270000D01*
X166286666Y-132317619D01*
X166381904Y-132460476D01*
X166429523Y-132650952D01*
X166429523Y-133031904D01*
X166381904Y-133127142D01*
X166334285Y-133174761D01*
X166239047Y-133222380D01*
X166048571Y-133222380D01*
X165953333Y-133174761D01*
X165905714Y-133127142D01*
X165858095Y-133031904D01*
X165858095Y-132793809D01*
X165905714Y-132698571D01*
X165953333Y-132650952D01*
X166048571Y-132603333D01*
X166239047Y-132603333D01*
X166334285Y-132650952D01*
X166381904Y-132698571D01*
X166429523Y-132793809D01*
X168334285Y-138172380D02*
X168334285Y-137172380D01*
X168096190Y-137172380D01*
X167953333Y-137220000D01*
X167858095Y-137315238D01*
X167810476Y-137410476D01*
X167762857Y-137600952D01*
X167762857Y-137743809D01*
X167810476Y-137934285D01*
X167858095Y-138029523D01*
X167953333Y-138124761D01*
X168096190Y-138172380D01*
X168334285Y-138172380D01*
X167381904Y-137267619D02*
X167334285Y-137220000D01*
X167239047Y-137172380D01*
X167000952Y-137172380D01*
X166905714Y-137220000D01*
X166858095Y-137267619D01*
X166810476Y-137362857D01*
X166810476Y-137458095D01*
X166858095Y-137600952D01*
X167429523Y-138172380D01*
X166810476Y-138172380D01*
X165905714Y-137172380D02*
X166381904Y-137172380D01*
X166429523Y-137648571D01*
X166381904Y-137600952D01*
X166286666Y-137553333D01*
X166048571Y-137553333D01*
X165953333Y-137600952D01*
X165905714Y-137648571D01*
X165858095Y-137743809D01*
X165858095Y-137981904D01*
X165905714Y-138077142D01*
X165953333Y-138124761D01*
X166048571Y-138172380D01*
X166286666Y-138172380D01*
X166381904Y-138124761D01*
X166429523Y-138077142D01*
X168334285Y-130722380D02*
X168334285Y-129722380D01*
X168096190Y-129722380D01*
X167953333Y-129770000D01*
X167858095Y-129865238D01*
X167810476Y-129960476D01*
X167762857Y-130150952D01*
X167762857Y-130293809D01*
X167810476Y-130484285D01*
X167858095Y-130579523D01*
X167953333Y-130674761D01*
X168096190Y-130722380D01*
X168334285Y-130722380D01*
X167381904Y-129817619D02*
X167334285Y-129770000D01*
X167239047Y-129722380D01*
X167000952Y-129722380D01*
X166905714Y-129770000D01*
X166858095Y-129817619D01*
X166810476Y-129912857D01*
X166810476Y-130008095D01*
X166858095Y-130150952D01*
X167429523Y-130722380D01*
X166810476Y-130722380D01*
X165953333Y-130055714D02*
X165953333Y-130722380D01*
X166191428Y-129674761D02*
X166429523Y-130389047D01*
X165810476Y-130389047D01*
X168334285Y-106122380D02*
X168334285Y-105122380D01*
X168096190Y-105122380D01*
X167953333Y-105170000D01*
X167858095Y-105265238D01*
X167810476Y-105360476D01*
X167762857Y-105550952D01*
X167762857Y-105693809D01*
X167810476Y-105884285D01*
X167858095Y-105979523D01*
X167953333Y-106074761D01*
X168096190Y-106122380D01*
X168334285Y-106122380D01*
X167381904Y-105217619D02*
X167334285Y-105170000D01*
X167239047Y-105122380D01*
X167000952Y-105122380D01*
X166905714Y-105170000D01*
X166858095Y-105217619D01*
X166810476Y-105312857D01*
X166810476Y-105408095D01*
X166858095Y-105550952D01*
X167429523Y-106122380D01*
X166810476Y-106122380D01*
X166477142Y-105122380D02*
X165858095Y-105122380D01*
X166191428Y-105503333D01*
X166048571Y-105503333D01*
X165953333Y-105550952D01*
X165905714Y-105598571D01*
X165858095Y-105693809D01*
X165858095Y-105931904D01*
X165905714Y-106027142D01*
X165953333Y-106074761D01*
X166048571Y-106122380D01*
X166334285Y-106122380D01*
X166429523Y-106074761D01*
X166477142Y-106027142D01*
X111526925Y-130755714D02*
X110526925Y-130755714D01*
X110526925Y-130993809D01*
X110574545Y-131136666D01*
X110669783Y-131231904D01*
X110765021Y-131279523D01*
X110955497Y-131327142D01*
X111098354Y-131327142D01*
X111288830Y-131279523D01*
X111384068Y-131231904D01*
X111479306Y-131136666D01*
X111526925Y-130993809D01*
X111526925Y-130755714D01*
X110622164Y-131708095D02*
X110574545Y-131755714D01*
X110526925Y-131850952D01*
X110526925Y-132089047D01*
X110574545Y-132184285D01*
X110622164Y-132231904D01*
X110717402Y-132279523D01*
X110812640Y-132279523D01*
X110955497Y-132231904D01*
X111526925Y-131660476D01*
X111526925Y-132279523D01*
X110622164Y-132660476D02*
X110574545Y-132708095D01*
X110526925Y-132803333D01*
X110526925Y-133041428D01*
X110574545Y-133136666D01*
X110622164Y-133184285D01*
X110717402Y-133231904D01*
X110812640Y-133231904D01*
X110955497Y-133184285D01*
X111526925Y-132612857D01*
X111526925Y-133231904D01*
X140510785Y-116929780D02*
X140510785Y-115929780D01*
X140272690Y-115929780D01*
X140129833Y-115977400D01*
X140034595Y-116072638D01*
X139986976Y-116167876D01*
X139939357Y-116358352D01*
X139939357Y-116501209D01*
X139986976Y-116691685D01*
X140034595Y-116786923D01*
X140129833Y-116882161D01*
X140272690Y-116929780D01*
X140510785Y-116929780D01*
X139558404Y-116025019D02*
X139510785Y-115977400D01*
X139415547Y-115929780D01*
X139177452Y-115929780D01*
X139082214Y-115977400D01*
X139034595Y-116025019D01*
X138986976Y-116120257D01*
X138986976Y-116215495D01*
X139034595Y-116358352D01*
X139606023Y-116929780D01*
X138986976Y-116929780D01*
X138034595Y-116929780D02*
X138606023Y-116929780D01*
X138320309Y-116929780D02*
X138320309Y-115929780D01*
X138415547Y-116072638D01*
X138510785Y-116167876D01*
X138606023Y-116215495D01*
X140510785Y-101979780D02*
X140510785Y-100979780D01*
X140272690Y-100979780D01*
X140129833Y-101027400D01*
X140034595Y-101122638D01*
X139986976Y-101217876D01*
X139939357Y-101408352D01*
X139939357Y-101551209D01*
X139986976Y-101741685D01*
X140034595Y-101836923D01*
X140129833Y-101932161D01*
X140272690Y-101979780D01*
X140510785Y-101979780D01*
X139558404Y-101075019D02*
X139510785Y-101027400D01*
X139415547Y-100979780D01*
X139177452Y-100979780D01*
X139082214Y-101027400D01*
X139034595Y-101075019D01*
X138986976Y-101170257D01*
X138986976Y-101265495D01*
X139034595Y-101408352D01*
X139606023Y-101979780D01*
X138986976Y-101979780D01*
X138367928Y-100979780D02*
X138272690Y-100979780D01*
X138177452Y-101027400D01*
X138129833Y-101075019D01*
X138082214Y-101170257D01*
X138034595Y-101360733D01*
X138034595Y-101598828D01*
X138082214Y-101789304D01*
X138129833Y-101884542D01*
X138177452Y-101932161D01*
X138272690Y-101979780D01*
X138367928Y-101979780D01*
X138463166Y-101932161D01*
X138510785Y-101884542D01*
X138558404Y-101789304D01*
X138606023Y-101598828D01*
X138606023Y-101360733D01*
X138558404Y-101170257D01*
X138510785Y-101075019D01*
X138463166Y-101027400D01*
X138367928Y-100979780D01*
X101745109Y-130755714D02*
X100745109Y-130755714D01*
X100745109Y-130993809D01*
X100792729Y-131136666D01*
X100887967Y-131231904D01*
X100983205Y-131279523D01*
X101173681Y-131327142D01*
X101316538Y-131327142D01*
X101507014Y-131279523D01*
X101602252Y-131231904D01*
X101697490Y-131136666D01*
X101745109Y-130993809D01*
X101745109Y-130755714D01*
X101745109Y-132279523D02*
X101745109Y-131708095D01*
X101745109Y-131993809D02*
X100745109Y-131993809D01*
X100887967Y-131898571D01*
X100983205Y-131803333D01*
X101030824Y-131708095D01*
X101745109Y-132755714D02*
X101745109Y-132946190D01*
X101697490Y-133041428D01*
X101649871Y-133089047D01*
X101507014Y-133184285D01*
X101316538Y-133231904D01*
X100935586Y-133231904D01*
X100840348Y-133184285D01*
X100792729Y-133136666D01*
X100745109Y-133041428D01*
X100745109Y-132850952D01*
X100792729Y-132755714D01*
X100840348Y-132708095D01*
X100935586Y-132660476D01*
X101173681Y-132660476D01*
X101268919Y-132708095D01*
X101316538Y-132755714D01*
X101364157Y-132850952D01*
X101364157Y-133041428D01*
X101316538Y-133136666D01*
X101268919Y-133184285D01*
X101173681Y-133231904D01*
X99299655Y-130755714D02*
X98299655Y-130755714D01*
X98299655Y-130993809D01*
X98347275Y-131136666D01*
X98442513Y-131231904D01*
X98537751Y-131279523D01*
X98728227Y-131327142D01*
X98871084Y-131327142D01*
X99061560Y-131279523D01*
X99156798Y-131231904D01*
X99252036Y-131136666D01*
X99299655Y-130993809D01*
X99299655Y-130755714D01*
X99299655Y-132279523D02*
X99299655Y-131708095D01*
X99299655Y-131993809D02*
X98299655Y-131993809D01*
X98442513Y-131898571D01*
X98537751Y-131803333D01*
X98585370Y-131708095D01*
X98728227Y-132850952D02*
X98680608Y-132755714D01*
X98632989Y-132708095D01*
X98537751Y-132660476D01*
X98490132Y-132660476D01*
X98394894Y-132708095D01*
X98347275Y-132755714D01*
X98299655Y-132850952D01*
X98299655Y-133041428D01*
X98347275Y-133136666D01*
X98394894Y-133184285D01*
X98490132Y-133231904D01*
X98537751Y-133231904D01*
X98632989Y-133184285D01*
X98680608Y-133136666D01*
X98728227Y-133041428D01*
X98728227Y-132850952D01*
X98775846Y-132755714D01*
X98823465Y-132708095D01*
X98918703Y-132660476D01*
X99109179Y-132660476D01*
X99204417Y-132708095D01*
X99252036Y-132755714D01*
X99299655Y-132850952D01*
X99299655Y-133041428D01*
X99252036Y-133136666D01*
X99204417Y-133184285D01*
X99109179Y-133231904D01*
X98918703Y-133231904D01*
X98823465Y-133184285D01*
X98775846Y-133136666D01*
X98728227Y-133041428D01*
X109081471Y-130755714D02*
X108081471Y-130755714D01*
X108081471Y-130993809D01*
X108129091Y-131136666D01*
X108224329Y-131231904D01*
X108319567Y-131279523D01*
X108510043Y-131327142D01*
X108652900Y-131327142D01*
X108843376Y-131279523D01*
X108938614Y-131231904D01*
X109033852Y-131136666D01*
X109081471Y-130993809D01*
X109081471Y-130755714D01*
X109081471Y-132279523D02*
X109081471Y-131708095D01*
X109081471Y-131993809D02*
X108081471Y-131993809D01*
X108224329Y-131898571D01*
X108319567Y-131803333D01*
X108367186Y-131708095D01*
X108081471Y-132612857D02*
X108081471Y-133279523D01*
X109081471Y-132850952D01*
X140510785Y-124419780D02*
X140510785Y-123419780D01*
X140272690Y-123419780D01*
X140129833Y-123467400D01*
X140034595Y-123562638D01*
X139986976Y-123657876D01*
X139939357Y-123848352D01*
X139939357Y-123991209D01*
X139986976Y-124181685D01*
X140034595Y-124276923D01*
X140129833Y-124372161D01*
X140272690Y-124419780D01*
X140510785Y-124419780D01*
X138986976Y-124419780D02*
X139558404Y-124419780D01*
X139272690Y-124419780D02*
X139272690Y-123419780D01*
X139367928Y-123562638D01*
X139463166Y-123657876D01*
X139558404Y-123705495D01*
X138129833Y-123419780D02*
X138320309Y-123419780D01*
X138415547Y-123467400D01*
X138463166Y-123515019D01*
X138558404Y-123657876D01*
X138606023Y-123848352D01*
X138606023Y-124229304D01*
X138558404Y-124324542D01*
X138510785Y-124372161D01*
X138415547Y-124419780D01*
X138225071Y-124419780D01*
X138129833Y-124372161D01*
X138082214Y-124324542D01*
X138034595Y-124229304D01*
X138034595Y-123991209D01*
X138082214Y-123895971D01*
X138129833Y-123848352D01*
X138225071Y-123800733D01*
X138415547Y-123800733D01*
X138510785Y-123848352D01*
X138558404Y-123895971D01*
X138606023Y-123991209D01*
X140510785Y-121929780D02*
X140510785Y-120929780D01*
X140272690Y-120929780D01*
X140129833Y-120977400D01*
X140034595Y-121072638D01*
X139986976Y-121167876D01*
X139939357Y-121358352D01*
X139939357Y-121501209D01*
X139986976Y-121691685D01*
X140034595Y-121786923D01*
X140129833Y-121882161D01*
X140272690Y-121929780D01*
X140510785Y-121929780D01*
X138986976Y-121929780D02*
X139558404Y-121929780D01*
X139272690Y-121929780D02*
X139272690Y-120929780D01*
X139367928Y-121072638D01*
X139463166Y-121167876D01*
X139558404Y-121215495D01*
X138082214Y-120929780D02*
X138558404Y-120929780D01*
X138606023Y-121405971D01*
X138558404Y-121358352D01*
X138463166Y-121310733D01*
X138225071Y-121310733D01*
X138129833Y-121358352D01*
X138082214Y-121405971D01*
X138034595Y-121501209D01*
X138034595Y-121739304D01*
X138082214Y-121834542D01*
X138129833Y-121882161D01*
X138225071Y-121929780D01*
X138463166Y-121929780D01*
X138558404Y-121882161D01*
X138606023Y-121834542D01*
X104190563Y-130755714D02*
X103190563Y-130755714D01*
X103190563Y-130993809D01*
X103238183Y-131136666D01*
X103333421Y-131231904D01*
X103428659Y-131279523D01*
X103619135Y-131327142D01*
X103761992Y-131327142D01*
X103952468Y-131279523D01*
X104047706Y-131231904D01*
X104142944Y-131136666D01*
X104190563Y-130993809D01*
X104190563Y-130755714D01*
X104190563Y-132279523D02*
X104190563Y-131708095D01*
X104190563Y-131993809D02*
X103190563Y-131993809D01*
X103333421Y-131898571D01*
X103428659Y-131803333D01*
X103476278Y-131708095D01*
X103523897Y-133136666D02*
X104190563Y-133136666D01*
X103142944Y-132898571D02*
X103857230Y-132660476D01*
X103857230Y-133279523D01*
X106636017Y-130755714D02*
X105636017Y-130755714D01*
X105636017Y-130993809D01*
X105683637Y-131136666D01*
X105778875Y-131231904D01*
X105874113Y-131279523D01*
X106064589Y-131327142D01*
X106207446Y-131327142D01*
X106397922Y-131279523D01*
X106493160Y-131231904D01*
X106588398Y-131136666D01*
X106636017Y-130993809D01*
X106636017Y-130755714D01*
X106636017Y-132279523D02*
X106636017Y-131708095D01*
X106636017Y-131993809D02*
X105636017Y-131993809D01*
X105778875Y-131898571D01*
X105874113Y-131803333D01*
X105921732Y-131708095D01*
X105636017Y-132612857D02*
X105636017Y-133231904D01*
X106016970Y-132898571D01*
X106016970Y-133041428D01*
X106064589Y-133136666D01*
X106112208Y-133184285D01*
X106207446Y-133231904D01*
X106445541Y-133231904D01*
X106540779Y-133184285D01*
X106588398Y-133136666D01*
X106636017Y-133041428D01*
X106636017Y-132755714D01*
X106588398Y-132660476D01*
X106540779Y-132612857D01*
X107999650Y-139705714D02*
X106999650Y-139705714D01*
X106999650Y-139943809D01*
X107047270Y-140086666D01*
X107142508Y-140181904D01*
X107237746Y-140229523D01*
X107428222Y-140277142D01*
X107571079Y-140277142D01*
X107761555Y-140229523D01*
X107856793Y-140181904D01*
X107952031Y-140086666D01*
X107999650Y-139943809D01*
X107999650Y-139705714D01*
X107999650Y-141229523D02*
X107999650Y-140658095D01*
X107999650Y-140943809D02*
X106999650Y-140943809D01*
X107142508Y-140848571D01*
X107237746Y-140753333D01*
X107285365Y-140658095D01*
X107094889Y-141610476D02*
X107047270Y-141658095D01*
X106999650Y-141753333D01*
X106999650Y-141991428D01*
X107047270Y-142086666D01*
X107094889Y-142134285D01*
X107190127Y-142181904D01*
X107285365Y-142181904D01*
X107428222Y-142134285D01*
X107999650Y-141562857D01*
X107999650Y-142181904D01*
X110445113Y-139705714D02*
X109445113Y-139705714D01*
X109445113Y-139943809D01*
X109492733Y-140086666D01*
X109587971Y-140181904D01*
X109683209Y-140229523D01*
X109873685Y-140277142D01*
X110016542Y-140277142D01*
X110207018Y-140229523D01*
X110302256Y-140181904D01*
X110397494Y-140086666D01*
X110445113Y-139943809D01*
X110445113Y-139705714D01*
X110445113Y-141229523D02*
X110445113Y-140658095D01*
X110445113Y-140943809D02*
X109445113Y-140943809D01*
X109587971Y-140848571D01*
X109683209Y-140753333D01*
X109730828Y-140658095D01*
X110445113Y-142181904D02*
X110445113Y-141610476D01*
X110445113Y-141896190D02*
X109445113Y-141896190D01*
X109587971Y-141800952D01*
X109683209Y-141705714D01*
X109730828Y-141610476D01*
X112890567Y-139705714D02*
X111890567Y-139705714D01*
X111890567Y-139943809D01*
X111938187Y-140086666D01*
X112033425Y-140181904D01*
X112128663Y-140229523D01*
X112319139Y-140277142D01*
X112461996Y-140277142D01*
X112652472Y-140229523D01*
X112747710Y-140181904D01*
X112842948Y-140086666D01*
X112890567Y-139943809D01*
X112890567Y-139705714D01*
X112890567Y-141229523D02*
X112890567Y-140658095D01*
X112890567Y-140943809D02*
X111890567Y-140943809D01*
X112033425Y-140848571D01*
X112128663Y-140753333D01*
X112176282Y-140658095D01*
X111890567Y-141848571D02*
X111890567Y-141943809D01*
X111938187Y-142039047D01*
X111985806Y-142086666D01*
X112081044Y-142134285D01*
X112271520Y-142181904D01*
X112509615Y-142181904D01*
X112700091Y-142134285D01*
X112795329Y-142086666D01*
X112842948Y-142039047D01*
X112890567Y-141943809D01*
X112890567Y-141848571D01*
X112842948Y-141753333D01*
X112795329Y-141705714D01*
X112700091Y-141658095D01*
X112509615Y-141610476D01*
X112271520Y-141610476D01*
X112081044Y-141658095D01*
X111985806Y-141705714D01*
X111938187Y-141753333D01*
X111890567Y-141848571D01*
X115336021Y-140181904D02*
X114336021Y-140181904D01*
X114336021Y-140420000D01*
X114383641Y-140562857D01*
X114478879Y-140658095D01*
X114574117Y-140705714D01*
X114764593Y-140753333D01*
X114907450Y-140753333D01*
X115097926Y-140705714D01*
X115193164Y-140658095D01*
X115288402Y-140562857D01*
X115336021Y-140420000D01*
X115336021Y-140181904D01*
X115336021Y-141229523D02*
X115336021Y-141420000D01*
X115288402Y-141515238D01*
X115240783Y-141562857D01*
X115097926Y-141658095D01*
X114907450Y-141705714D01*
X114526498Y-141705714D01*
X114431260Y-141658095D01*
X114383641Y-141610476D01*
X114336021Y-141515238D01*
X114336021Y-141324761D01*
X114383641Y-141229523D01*
X114431260Y-141181904D01*
X114526498Y-141134285D01*
X114764593Y-141134285D01*
X114859831Y-141181904D01*
X114907450Y-141229523D01*
X114955069Y-141324761D01*
X114955069Y-141515238D01*
X114907450Y-141610476D01*
X114859831Y-141658095D01*
X114764593Y-141705714D01*
X124672380Y-131231904D02*
X123672380Y-131231904D01*
X123672380Y-131470000D01*
X123720000Y-131612857D01*
X123815238Y-131708095D01*
X123910476Y-131755714D01*
X124100952Y-131803333D01*
X124243809Y-131803333D01*
X124434285Y-131755714D01*
X124529523Y-131708095D01*
X124624761Y-131612857D01*
X124672380Y-131470000D01*
X124672380Y-131231904D01*
X124100952Y-132374761D02*
X124053333Y-132279523D01*
X124005714Y-132231904D01*
X123910476Y-132184285D01*
X123862857Y-132184285D01*
X123767619Y-132231904D01*
X123720000Y-132279523D01*
X123672380Y-132374761D01*
X123672380Y-132565238D01*
X123720000Y-132660476D01*
X123767619Y-132708095D01*
X123862857Y-132755714D01*
X123910476Y-132755714D01*
X124005714Y-132708095D01*
X124053333Y-132660476D01*
X124100952Y-132565238D01*
X124100952Y-132374761D01*
X124148571Y-132279523D01*
X124196190Y-132231904D01*
X124291428Y-132184285D01*
X124481904Y-132184285D01*
X124577142Y-132231904D01*
X124624761Y-132279523D01*
X124672380Y-132374761D01*
X124672380Y-132565238D01*
X124624761Y-132660476D01*
X124577142Y-132708095D01*
X124481904Y-132755714D01*
X124291428Y-132755714D01*
X124196190Y-132708095D01*
X124148571Y-132660476D01*
X124100952Y-132565238D01*
X122072380Y-131231904D02*
X121072380Y-131231904D01*
X121072380Y-131470000D01*
X121120000Y-131612857D01*
X121215238Y-131708095D01*
X121310476Y-131755714D01*
X121500952Y-131803333D01*
X121643809Y-131803333D01*
X121834285Y-131755714D01*
X121929523Y-131708095D01*
X122024761Y-131612857D01*
X122072380Y-131470000D01*
X122072380Y-131231904D01*
X121072380Y-132136666D02*
X121072380Y-132803333D01*
X122072380Y-132374761D01*
X119472380Y-131231904D02*
X118472380Y-131231904D01*
X118472380Y-131470000D01*
X118520000Y-131612857D01*
X118615238Y-131708095D01*
X118710476Y-131755714D01*
X118900952Y-131803333D01*
X119043809Y-131803333D01*
X119234285Y-131755714D01*
X119329523Y-131708095D01*
X119424761Y-131612857D01*
X119472380Y-131470000D01*
X119472380Y-131231904D01*
X118472380Y-132660476D02*
X118472380Y-132470000D01*
X118520000Y-132374761D01*
X118567619Y-132327142D01*
X118710476Y-132231904D01*
X118900952Y-132184285D01*
X119281904Y-132184285D01*
X119377142Y-132231904D01*
X119424761Y-132279523D01*
X119472380Y-132374761D01*
X119472380Y-132565238D01*
X119424761Y-132660476D01*
X119377142Y-132708095D01*
X119281904Y-132755714D01*
X119043809Y-132755714D01*
X118948571Y-132708095D01*
X118900952Y-132660476D01*
X118853333Y-132565238D01*
X118853333Y-132374761D01*
X118900952Y-132279523D01*
X118948571Y-132231904D01*
X119043809Y-132184285D01*
X116872380Y-131231904D02*
X115872380Y-131231904D01*
X115872380Y-131470000D01*
X115920000Y-131612857D01*
X116015238Y-131708095D01*
X116110476Y-131755714D01*
X116300952Y-131803333D01*
X116443809Y-131803333D01*
X116634285Y-131755714D01*
X116729523Y-131708095D01*
X116824761Y-131612857D01*
X116872380Y-131470000D01*
X116872380Y-131231904D01*
X115872380Y-132708095D02*
X115872380Y-132231904D01*
X116348571Y-132184285D01*
X116300952Y-132231904D01*
X116253333Y-132327142D01*
X116253333Y-132565238D01*
X116300952Y-132660476D01*
X116348571Y-132708095D01*
X116443809Y-132755714D01*
X116681904Y-132755714D01*
X116777142Y-132708095D01*
X116824761Y-132660476D01*
X116872380Y-132565238D01*
X116872380Y-132327142D01*
X116824761Y-132231904D01*
X116777142Y-132184285D01*
X135022380Y-131231904D02*
X134022380Y-131231904D01*
X134022380Y-131470000D01*
X134070000Y-131612857D01*
X134165238Y-131708095D01*
X134260476Y-131755714D01*
X134450952Y-131803333D01*
X134593809Y-131803333D01*
X134784285Y-131755714D01*
X134879523Y-131708095D01*
X134974761Y-131612857D01*
X135022380Y-131470000D01*
X135022380Y-131231904D01*
X134355714Y-132660476D02*
X135022380Y-132660476D01*
X133974761Y-132422380D02*
X134689047Y-132184285D01*
X134689047Y-132803333D01*
X132422380Y-131231904D02*
X131422380Y-131231904D01*
X131422380Y-131470000D01*
X131470000Y-131612857D01*
X131565238Y-131708095D01*
X131660476Y-131755714D01*
X131850952Y-131803333D01*
X131993809Y-131803333D01*
X132184285Y-131755714D01*
X132279523Y-131708095D01*
X132374761Y-131612857D01*
X132422380Y-131470000D01*
X132422380Y-131231904D01*
X131422380Y-132136666D02*
X131422380Y-132755714D01*
X131803333Y-132422380D01*
X131803333Y-132565238D01*
X131850952Y-132660476D01*
X131898571Y-132708095D01*
X131993809Y-132755714D01*
X132231904Y-132755714D01*
X132327142Y-132708095D01*
X132374761Y-132660476D01*
X132422380Y-132565238D01*
X132422380Y-132279523D01*
X132374761Y-132184285D01*
X132327142Y-132136666D01*
X129822380Y-131231904D02*
X128822380Y-131231904D01*
X128822380Y-131470000D01*
X128870000Y-131612857D01*
X128965238Y-131708095D01*
X129060476Y-131755714D01*
X129250952Y-131803333D01*
X129393809Y-131803333D01*
X129584285Y-131755714D01*
X129679523Y-131708095D01*
X129774761Y-131612857D01*
X129822380Y-131470000D01*
X129822380Y-131231904D01*
X128917619Y-132184285D02*
X128870000Y-132231904D01*
X128822380Y-132327142D01*
X128822380Y-132565238D01*
X128870000Y-132660476D01*
X128917619Y-132708095D01*
X129012857Y-132755714D01*
X129108095Y-132755714D01*
X129250952Y-132708095D01*
X129822380Y-132136666D01*
X129822380Y-132755714D01*
X127222380Y-131231904D02*
X126222380Y-131231904D01*
X126222380Y-131470000D01*
X126270000Y-131612857D01*
X126365238Y-131708095D01*
X126460476Y-131755714D01*
X126650952Y-131803333D01*
X126793809Y-131803333D01*
X126984285Y-131755714D01*
X127079523Y-131708095D01*
X127174761Y-131612857D01*
X127222380Y-131470000D01*
X127222380Y-131231904D01*
X127222380Y-132755714D02*
X127222380Y-132184285D01*
X127222380Y-132470000D02*
X126222380Y-132470000D01*
X126365238Y-132374761D01*
X126460476Y-132279523D01*
X126508095Y-132184285D01*
M02*
