M48
; DRILL file {KiCad (5.1.4)-1} date 10/4/2023 9:41:18 PM
; FORMAT={-:-/ absolute / metric / decimal}
; #@! TF.CreationDate,2023-10-04T21:41:18-04:00
; #@! TF.GenerationSoftware,Kicad,Pcbnew,(5.1.4)-1
; #@! TF.FileFunction,Plated,1,2,PTH
FMAT,2
METRIC
T1C0.400
T2C0.750
T3C0.800
T4C1.000
T5C1.050
T6C1.100
%
G90
G05
T1
X62.22Y-114.72
X62.97Y-117.27
X84.97Y-109.92
X92.02Y-120.47
X96.47Y-120.42
X96.82Y-129.37
X98.82Y-135.57
X99.37Y-129.27
X102.12Y-115.32
X108.37Y-97.52
X108.92Y-101.97
X109.547Y-143.274
X111.97Y-143.47
X114.27Y-129.07
X114.42Y-143.57
X115.72Y-80.87
X116.22Y-85.87
X116.47Y-73.27
X116.92Y-143.52
X116.97Y-129.27
X119.42Y-143.57
X119.67Y-129.17
X121.92Y-143.67
X122.17Y-129.17
X123.57Y-68.27
X123.62Y-61.17
X124.443Y-54.507
X124.77Y-129.07
X127.37Y-129.17
X129.87Y-129.27
X132.57Y-129.27
X132.72Y-91.32
X136.14Y-79.236
X136.27Y-67.97
X136.57Y-103.47
X136.57Y-105.97
X136.57Y-108.47
X136.67Y-110.97
X136.67Y-113.47
X136.67Y-115.97
X136.67Y-118.47
X136.67Y-120.97
X136.67Y-123.42
X137.953Y-71.35
X139.12Y-71.27
X139.143Y-72.32
X139.267Y-69.876
X142.27Y-126.57
X142.27Y-135.67
X146.12Y-151.67
X146.373Y-141.947
X146.92Y-145.07
X147.99Y-144.304
X148.791Y-146.418
X148.861Y-147.416
X149.888Y-143.577
X150.488Y-142.777
X154.31Y-138.53
X154.31Y-152.53
X158.728Y-139.57
X158.728Y-142.323
X158.743Y-136.27
X169.714Y-115.723
X169.714Y-118.187
X169.727Y-108.522
X169.752Y-123.267
X169.77Y-133.27
X169.778Y-113.31
X169.79Y-110.91
X169.79Y-120.739
X169.803Y-106.109
X169.803Y-128.245
X169.82Y-135.72
X169.87Y-130.77
X169.956Y-103.671
X170.044Y-125.832
X170.07Y-100.915
X173.27Y-151.67
X177.27Y-128.07
X180.17Y-128.07
X180.186Y-54.858
X182.97Y-128.17
X184.357Y-67.107
X185.37Y-127.67
X188.57Y-127.97
X190.27Y-136.52
X191.37Y-80.37
X191.37Y-127.97
X192.297Y-136.517
X194.17Y-128.07
X194.945Y-53.145
X196.97Y-128.17
X198.92Y-111.82
X199.87Y-128.07
X202.57Y-70.17
X202.57Y-127.77
X205.47Y-127.87
X208.57Y-78.87
X211.67Y-116.37
X215.17Y-127.32
X215.17Y-135.42
X216.87Y-105.17
X217.17Y-126.57
X217.22Y-134.22
X219.12Y-125.17
X242.39Y-107.99
X261.88Y-108.48
T2
X149.02Y-155.97
T3
X145.02Y-155.97
X147.02Y-155.97
T4
X123.184Y-159.208
X124.713Y-157.18
X126.242Y-155.151
X127.77Y-153.122
X38.865Y-110.735
X39.817Y-108.38
X40.768Y-106.025
X41.72Y-103.67
X263.754Y-103.46
X264.705Y-105.815
X265.657Y-108.17
X266.608Y-110.525
X115.319Y-41.619
X117.674Y-42.57
X120.029Y-43.522
X122.384Y-44.473
X192.141Y-61.339
X194.496Y-60.388
X196.851Y-59.436
X199.206Y-58.485
X99.229Y-76.103
X101.584Y-77.054
X103.939Y-78.006
X106.295Y-78.957
X88.184Y-135.534
X90.213Y-137.063
X92.241Y-138.591
X94.27Y-140.12
X177.773Y-153.123
X179.301Y-155.152
X180.83Y-157.18
X182.359Y-159.209
X183.169Y-44.472
X185.524Y-43.521
X187.879Y-42.569
X190.234Y-41.618
X213.139Y-138.86
X215.167Y-137.331
X217.196Y-135.802
X219.224Y-134.274
X186.084Y-158.956
X188.113Y-157.427
X190.141Y-155.899
X192.17Y-154.37
X199.258Y-78.956
X201.613Y-78.004
X203.968Y-77.053
X206.323Y-76.101
X152.77Y-84.62
X152.77Y-87.16
X152.77Y-89.7
X152.77Y-92.24
X151.77Y-115.62
X154.31Y-115.62
X106.347Y-58.486
X108.702Y-59.438
X111.057Y-60.389
X113.412Y-61.341
X92.112Y-93.719
X94.467Y-94.671
X96.822Y-95.622
X99.177Y-96.574
X143.02Y-155.97
X151.02Y-155.97
X206.376Y-96.572
X208.731Y-95.621
X211.086Y-94.669
X213.441Y-93.718
X113.17Y-154.37
X115.199Y-155.899
X117.227Y-157.427
X119.256Y-158.956
T5
X160.57Y-154.82
X160.57Y-159.32
X163.82Y-152.57
X167.07Y-154.82
X167.07Y-159.32
T6
X145.53Y-80.62
X145.53Y-83.16
X145.53Y-85.7
X145.53Y-88.24
X145.53Y-90.78
X145.53Y-93.32
X145.53Y-95.86
X145.53Y-98.4
X145.53Y-100.94
X145.53Y-103.48
X145.53Y-106.02
X145.53Y-108.56
X160.77Y-80.62
X160.77Y-83.16
X160.77Y-85.7
X160.77Y-88.24
X160.77Y-90.78
X160.77Y-93.32
X160.77Y-95.86
X160.77Y-98.4
X160.77Y-100.94
X160.77Y-103.48
X160.77Y-106.02
X160.77Y-108.56
T0
M30
