G04 #@! TF.GenerationSoftware,KiCad,Pcbnew,(5.1.4)-1*
G04 #@! TF.CreationDate,2023-10-04T21:41:16-04:00*
G04 #@! TF.ProjectId,ThumbsUp,5468756d-6273-4557-902e-6b696361645f,rev?*
G04 #@! TF.SameCoordinates,Original*
G04 #@! TF.FileFunction,Copper,L2,Bot*
G04 #@! TF.FilePolarity,Positive*
%FSLAX46Y46*%
G04 Gerber Fmt 4.6, Leading zero omitted, Abs format (unit mm)*
G04 Created by KiCad (PCBNEW (5.1.4)-1) date 2023-10-04 21:41:16*
%MOMM*%
%LPD*%
G04 APERTURE LIST*
%ADD10C,1.700000*%
%ADD11C,1.700000*%
%ADD12C,0.100000*%
%ADD13C,2.600000*%
%ADD14C,3.000000*%
%ADD15C,2.500000*%
%ADD16C,2.000000*%
%ADD17R,1.600000X1.600000*%
%ADD18C,1.600000*%
%ADD19C,1.575000*%
%ADD20R,1.700000X1.700000*%
%ADD21O,1.700000X1.700000*%
%ADD22C,1.300000*%
%ADD23C,1.200000*%
%ADD24C,1.500000*%
%ADD25C,0.975000*%
%ADD26R,0.900000X1.200000*%
%ADD27R,1.200000X0.900000*%
%ADD28C,0.800000*%
%ADD29C,0.508000*%
%ADD30C,0.254000*%
G04 APERTURE END LIST*
D10*
X123184373Y-159208095D03*
D11*
X123184373Y-159208095D02*
X123184373Y-159208095D01*
D10*
X124712983Y-157179560D03*
D11*
X124712983Y-157179560D02*
X124712983Y-157179560D01*
D10*
X126241593Y-155151026D03*
D11*
X126241593Y-155151026D02*
X126241593Y-155151026D01*
D10*
X127770203Y-153122492D03*
D12*
G36*
X126579820Y-153289789D02*
G01*
X127602906Y-151932109D01*
X128960586Y-152955195D01*
X127937500Y-154312875D01*
X126579820Y-153289789D01*
X126579820Y-153289789D01*
G37*
D10*
X38865498Y-110735141D03*
D11*
X38865498Y-110735141D02*
X38865498Y-110735141D01*
D10*
X39816999Y-108380094D03*
D11*
X39816999Y-108380094D02*
X39816999Y-108380094D01*
D10*
X40768499Y-106025047D03*
D11*
X40768499Y-106025047D02*
X40768499Y-106025047D01*
D10*
X41720000Y-103670000D03*
D12*
G36*
X42826522Y-103200309D02*
G01*
X42189691Y-104776522D01*
X40613478Y-104139691D01*
X41250309Y-102563478D01*
X42826522Y-103200309D01*
X42826522Y-103200309D01*
G37*
D10*
X88184397Y-135534170D03*
D11*
X88184397Y-135534170D02*
X88184397Y-135534170D01*
D10*
X90212932Y-137062780D03*
D11*
X90212932Y-137062780D02*
X90212932Y-137062780D01*
D10*
X92241466Y-138591390D03*
D11*
X92241466Y-138591390D02*
X92241466Y-138591390D01*
D10*
X94270000Y-140120000D03*
D12*
G36*
X94102703Y-138929617D02*
G01*
X95460383Y-139952703D01*
X94437297Y-141310383D01*
X93079617Y-140287297D01*
X94102703Y-138929617D01*
X94102703Y-138929617D01*
G37*
D10*
X213138765Y-138859647D03*
D11*
X213138765Y-138859647D02*
X213138765Y-138859647D01*
D10*
X215167300Y-137331037D03*
D11*
X215167300Y-137331037D02*
X215167300Y-137331037D01*
D10*
X217195834Y-135802427D03*
D11*
X217195834Y-135802427D02*
X217195834Y-135802427D01*
D10*
X219224368Y-134273817D03*
D12*
G36*
X218033985Y-134106520D02*
G01*
X219391665Y-133083434D01*
X220414751Y-134441114D01*
X219057071Y-135464200D01*
X218033985Y-134106520D01*
X218033985Y-134106520D01*
G37*
D10*
X113170000Y-154370000D03*
D12*
G36*
X113002703Y-153179617D02*
G01*
X114360383Y-154202703D01*
X113337297Y-155560383D01*
X111979617Y-154537297D01*
X113002703Y-153179617D01*
X113002703Y-153179617D01*
G37*
D10*
X115198534Y-155898610D03*
D11*
X115198534Y-155898610D02*
X115198534Y-155898610D01*
D10*
X117227068Y-157427220D03*
D11*
X117227068Y-157427220D02*
X117227068Y-157427220D01*
D10*
X119255603Y-158955830D03*
D11*
X119255603Y-158955830D02*
X119255603Y-158955830D01*
D10*
X186084397Y-158955830D03*
D11*
X186084397Y-158955830D02*
X186084397Y-158955830D01*
D10*
X188112932Y-157427220D03*
D11*
X188112932Y-157427220D02*
X188112932Y-157427220D01*
D10*
X190141466Y-155898610D03*
D11*
X190141466Y-155898610D02*
X190141466Y-155898610D01*
D10*
X192170000Y-154370000D03*
D12*
G36*
X193360383Y-154537297D02*
G01*
X192002703Y-155560383D01*
X190979617Y-154202703D01*
X192337297Y-153179617D01*
X193360383Y-154537297D01*
X193360383Y-154537297D01*
G37*
D10*
X182358565Y-159208719D03*
D11*
X182358565Y-159208719D02*
X182358565Y-159208719D01*
D10*
X180829955Y-157180184D03*
D11*
X180829955Y-157180184D02*
X180829955Y-157180184D01*
D10*
X179301345Y-155151650D03*
D11*
X179301345Y-155151650D02*
X179301345Y-155151650D01*
D10*
X177772735Y-153123116D03*
D12*
G36*
X177605438Y-154313499D02*
G01*
X176582352Y-152955819D01*
X177940032Y-151932733D01*
X178963118Y-153290413D01*
X177605438Y-154313499D01*
X177605438Y-154313499D01*
G37*
D10*
X99176992Y-96573712D03*
D12*
G36*
X99646683Y-97680234D02*
G01*
X98070470Y-97043403D01*
X98707301Y-95467190D01*
X100283514Y-96104021D01*
X99646683Y-97680234D01*
X99646683Y-97680234D01*
G37*
D10*
X96821945Y-95622211D03*
D11*
X96821945Y-95622211D02*
X96821945Y-95622211D01*
D10*
X94466898Y-94670711D03*
D11*
X94466898Y-94670711D02*
X94466898Y-94670711D01*
D10*
X92111851Y-93719210D03*
D11*
X92111851Y-93719210D02*
X92111851Y-93719210D01*
D10*
X106294518Y-78957219D03*
D12*
G36*
X106764209Y-80063741D02*
G01*
X105187996Y-79426910D01*
X105824827Y-77850697D01*
X107401040Y-78487528D01*
X106764209Y-80063741D01*
X106764209Y-80063741D01*
G37*
D10*
X103939471Y-78005718D03*
D11*
X103939471Y-78005718D02*
X103939471Y-78005718D01*
D10*
X101584424Y-77054218D03*
D11*
X101584424Y-77054218D02*
X101584424Y-77054218D01*
D10*
X99229377Y-76102717D03*
D11*
X99229377Y-76102717D02*
X99229377Y-76102717D01*
D10*
X122383936Y-44473446D03*
D12*
G36*
X122853627Y-45579968D02*
G01*
X121277414Y-44943137D01*
X121914245Y-43366924D01*
X123490458Y-44003755D01*
X122853627Y-45579968D01*
X122853627Y-45579968D01*
G37*
D10*
X120028889Y-43521945D03*
D11*
X120028889Y-43521945D02*
X120028889Y-43521945D01*
D10*
X117673842Y-42570445D03*
D11*
X117673842Y-42570445D02*
X117673842Y-42570445D01*
D10*
X115318795Y-41618944D03*
D11*
X115318795Y-41618944D02*
X115318795Y-41618944D01*
D10*
X113412043Y-61340726D03*
D12*
G36*
X113881734Y-62447248D02*
G01*
X112305521Y-61810417D01*
X112942352Y-60234204D01*
X114518565Y-60871035D01*
X113881734Y-62447248D01*
X113881734Y-62447248D01*
G37*
D10*
X111056996Y-60389225D03*
D11*
X111056996Y-60389225D02*
X111056996Y-60389225D01*
D10*
X108701949Y-59437725D03*
D11*
X108701949Y-59437725D02*
X108701949Y-59437725D01*
D10*
X106346902Y-58486224D03*
D11*
X106346902Y-58486224D02*
X106346902Y-58486224D01*
D13*
X100493617Y-80458968D03*
D12*
G36*
X98801289Y-81177318D02*
G01*
X99775267Y-78766640D01*
X102185945Y-79740618D01*
X101211967Y-82151296D01*
X98801289Y-81177318D01*
X98801289Y-81177318D01*
G37*
D13*
X110378456Y-86825479D03*
D12*
G36*
X108686128Y-87543829D02*
G01*
X109660106Y-85133151D01*
X112070784Y-86107129D01*
X111096806Y-88517807D01*
X108686128Y-87543829D01*
X108686128Y-87543829D01*
G37*
D14*
X101557925Y-93507833D03*
D15*
X105081224Y-94931338D03*
D12*
G36*
X103430806Y-95612694D02*
G01*
X104367323Y-93294735D01*
X106731642Y-94249982D01*
X105795125Y-96567941D01*
X103430806Y-95612694D01*
X103430806Y-95612694D01*
G37*
D16*
X92050058Y-88210384D03*
D12*
G36*
X90748268Y-88762961D02*
G01*
X91497481Y-86908594D01*
X93351848Y-87657807D01*
X92602635Y-89512174D01*
X90748268Y-88762961D01*
X90748268Y-88762961D01*
G37*
D14*
X95295202Y-89521507D03*
D13*
X107611142Y-62842474D03*
D12*
G36*
X105918814Y-63560824D02*
G01*
X106892792Y-61150146D01*
X109303470Y-62124124D01*
X108329492Y-64534802D01*
X105918814Y-63560824D01*
X105918814Y-63560824D01*
G37*
D13*
X117495981Y-69208985D03*
D12*
G36*
X115803653Y-69927335D02*
G01*
X116777631Y-67516657D01*
X119188309Y-68490635D01*
X118214331Y-70901313D01*
X115803653Y-69927335D01*
X115803653Y-69927335D01*
G37*
D14*
X108675450Y-75891339D03*
D15*
X112198749Y-77314844D03*
D12*
G36*
X110548331Y-77996200D02*
G01*
X111484848Y-75678241D01*
X113849167Y-76633488D01*
X112912650Y-78951447D01*
X110548331Y-77996200D01*
X110548331Y-77996200D01*
G37*
D16*
X99167583Y-70593890D03*
D12*
G36*
X97865793Y-71146467D02*
G01*
X98615006Y-69292100D01*
X100469373Y-70041313D01*
X99720160Y-71895680D01*
X97865793Y-71146467D01*
X97865793Y-71146467D01*
G37*
D14*
X102412727Y-71905013D03*
D13*
X184823297Y-47632412D03*
D12*
G36*
X184104947Y-49324740D02*
G01*
X183130969Y-46914062D01*
X185541647Y-45940084D01*
X186515625Y-48350762D01*
X184104947Y-49324740D01*
X184104947Y-49324740D01*
G37*
D13*
X196356405Y-45345510D03*
D12*
G36*
X195638055Y-47037838D02*
G01*
X194664077Y-44627160D01*
X197074755Y-43653182D01*
X198048733Y-46063860D01*
X195638055Y-47037838D01*
X195638055Y-47037838D01*
G37*
D14*
X194653399Y-56279649D03*
D15*
X198176698Y-54856144D03*
D12*
G36*
X197462797Y-56492747D02*
G01*
X196526280Y-54174788D01*
X198890599Y-53219541D01*
X199827116Y-55537500D01*
X197462797Y-56492747D01*
X197462797Y-56492747D01*
G37*
D16*
X184134094Y-59073702D03*
D12*
G36*
X183581517Y-60375492D02*
G01*
X182832304Y-58521125D01*
X184686671Y-57771912D01*
X185435884Y-59626279D01*
X183581517Y-60375492D01*
X183581517Y-60375492D01*
G37*
D14*
X187379238Y-57762579D03*
D13*
X114728667Y-45225981D03*
D12*
G36*
X113036339Y-45944331D02*
G01*
X114010317Y-43533653D01*
X116420995Y-44507631D01*
X115447017Y-46918309D01*
X113036339Y-45944331D01*
X113036339Y-45944331D01*
G37*
D13*
X124613506Y-51592492D03*
D12*
G36*
X122921178Y-52310842D02*
G01*
X123895156Y-49900164D01*
X126305834Y-50874142D01*
X125331856Y-53284820D01*
X122921178Y-52310842D01*
X122921178Y-52310842D01*
G37*
D14*
X115792975Y-58274846D03*
D15*
X119316274Y-59698351D03*
D12*
G36*
X117665856Y-60379707D02*
G01*
X118602373Y-58061748D01*
X120966692Y-59016995D01*
X120030175Y-61334954D01*
X117665856Y-60379707D01*
X117665856Y-60379707D01*
G37*
D16*
X106285108Y-52977397D03*
D12*
G36*
X104983318Y-53529974D02*
G01*
X105732531Y-51675607D01*
X107586898Y-52424820D01*
X106837685Y-54279187D01*
X104983318Y-53529974D01*
X104983318Y-53529974D01*
G37*
D14*
X109530252Y-54288520D03*
D13*
X132617776Y-51375115D03*
D12*
G36*
X130925448Y-52093465D02*
G01*
X131899426Y-49682787D01*
X134310104Y-50656765D01*
X133336126Y-53067443D01*
X130925448Y-52093465D01*
X130925448Y-52093465D01*
G37*
D13*
X142502615Y-57741626D03*
D12*
G36*
X140810287Y-58459976D02*
G01*
X141784265Y-56049298D01*
X144194943Y-57023276D01*
X143220965Y-59433954D01*
X140810287Y-58459976D01*
X140810287Y-58459976D01*
G37*
D14*
X133682084Y-64423980D03*
D15*
X137205383Y-65847485D03*
D12*
G36*
X135554965Y-66528841D02*
G01*
X136491482Y-64210882D01*
X138855801Y-65166129D01*
X137919284Y-67484088D01*
X135554965Y-66528841D01*
X135554965Y-66528841D01*
G37*
D16*
X124174217Y-59126531D03*
D12*
G36*
X122872427Y-59679108D02*
G01*
X123621640Y-57824741D01*
X125476007Y-58573954D01*
X124726794Y-60428321D01*
X122872427Y-59679108D01*
X122872427Y-59679108D01*
G37*
D14*
X127419361Y-60437654D03*
D13*
X166832197Y-53822753D03*
D12*
G36*
X166113847Y-55515081D02*
G01*
X165139869Y-53104403D01*
X167550547Y-52130425D01*
X168524525Y-54541103D01*
X166113847Y-55515081D01*
X166113847Y-55515081D01*
G37*
D13*
X178365305Y-51535851D03*
D12*
G36*
X177646955Y-53228179D02*
G01*
X176672977Y-50817501D01*
X179083655Y-49843523D01*
X180057633Y-52254201D01*
X177646955Y-53228179D01*
X177646955Y-53228179D01*
G37*
D14*
X176662299Y-62469990D03*
D15*
X180185598Y-61046485D03*
D12*
G36*
X179471697Y-62683088D02*
G01*
X178535180Y-60365129D01*
X180899499Y-59409882D01*
X181836016Y-61727841D01*
X179471697Y-62683088D01*
X179471697Y-62683088D01*
G37*
D16*
X166142994Y-65264043D03*
D12*
G36*
X165590417Y-66565833D02*
G01*
X164841204Y-64711466D01*
X166695571Y-63962253D01*
X167444784Y-65816620D01*
X165590417Y-66565833D01*
X165590417Y-66565833D01*
G37*
D14*
X169388138Y-63952920D03*
D13*
X50923588Y-101415696D03*
D12*
G36*
X49231260Y-102134046D02*
G01*
X50205238Y-99723368D01*
X52615916Y-100697346D01*
X51641938Y-103108024D01*
X49231260Y-102134046D01*
X49231260Y-102134046D01*
G37*
D13*
X60808427Y-107782207D03*
D12*
G36*
X59116099Y-108500557D02*
G01*
X60090077Y-106089879D01*
X62500755Y-107063857D01*
X61526777Y-109474535D01*
X59116099Y-108500557D01*
X59116099Y-108500557D01*
G37*
D14*
X51987896Y-114464561D03*
D15*
X55511195Y-115888066D03*
D12*
G36*
X53860777Y-116569422D02*
G01*
X54797294Y-114251463D01*
X57161613Y-115206710D01*
X56225096Y-117524669D01*
X53860777Y-116569422D01*
X53860777Y-116569422D01*
G37*
D16*
X42480029Y-109167112D03*
D12*
G36*
X41178239Y-109719689D02*
G01*
X41927452Y-107865322D01*
X43781819Y-108614535D01*
X43032606Y-110468902D01*
X41178239Y-109719689D01*
X41178239Y-109719689D01*
G37*
D14*
X45725173Y-110478235D03*
D13*
X229036858Y-106344940D03*
D12*
G36*
X228318508Y-108037268D02*
G01*
X227344530Y-105626590D01*
X229755208Y-104652612D01*
X230729186Y-107063290D01*
X228318508Y-108037268D01*
X228318508Y-108037268D01*
G37*
D13*
X240569966Y-104058038D03*
D12*
G36*
X239851616Y-105750366D02*
G01*
X238877638Y-103339688D01*
X241288316Y-102365710D01*
X242262294Y-104776388D01*
X239851616Y-105750366D01*
X239851616Y-105750366D01*
G37*
D14*
X238866960Y-114992177D03*
D15*
X242390259Y-113568672D03*
D12*
G36*
X241676358Y-115205275D02*
G01*
X240739841Y-112887316D01*
X243104160Y-111932069D01*
X244040677Y-114250028D01*
X241676358Y-115205275D01*
X241676358Y-115205275D01*
G37*
D16*
X228347655Y-117786230D03*
D12*
G36*
X227795078Y-119088020D02*
G01*
X227045865Y-117233653D01*
X228900232Y-116484440D01*
X229649445Y-118338807D01*
X227795078Y-119088020D01*
X227795078Y-119088020D01*
G37*
D14*
X231592799Y-116475107D03*
D13*
X191940822Y-65248905D03*
D12*
G36*
X191222472Y-66941233D02*
G01*
X190248494Y-64530555D01*
X192659172Y-63556577D01*
X193633150Y-65967255D01*
X191222472Y-66941233D01*
X191222472Y-66941233D01*
G37*
D13*
X203473930Y-62962003D03*
D12*
G36*
X202755580Y-64654331D02*
G01*
X201781602Y-62243653D01*
X204192280Y-61269675D01*
X205166258Y-63680353D01*
X202755580Y-64654331D01*
X202755580Y-64654331D01*
G37*
D14*
X201770924Y-73896142D03*
D15*
X205294223Y-72472637D03*
D12*
G36*
X204580322Y-74109240D02*
G01*
X203643805Y-71791281D01*
X206008124Y-70836034D01*
X206944641Y-73153993D01*
X204580322Y-74109240D01*
X204580322Y-74109240D01*
G37*
D16*
X191251619Y-76690195D03*
D12*
G36*
X190699042Y-77991985D02*
G01*
X189949829Y-76137618D01*
X191804196Y-75388405D01*
X192553409Y-77242772D01*
X190699042Y-77991985D01*
X190699042Y-77991985D01*
G37*
D14*
X194496763Y-75379072D03*
D13*
X188184773Y-106672233D03*
D12*
G36*
X187466423Y-108364561D02*
G01*
X186492445Y-105953883D01*
X188903123Y-104979905D01*
X189877101Y-107390583D01*
X187466423Y-108364561D01*
X187466423Y-108364561D01*
G37*
D13*
X199717881Y-104385331D03*
D12*
G36*
X198999531Y-106077659D02*
G01*
X198025553Y-103666981D01*
X200436231Y-102693003D01*
X201410209Y-105103681D01*
X198999531Y-106077659D01*
X198999531Y-106077659D01*
G37*
D14*
X198014875Y-115319470D03*
D15*
X201538174Y-113895965D03*
D12*
G36*
X200824273Y-115532568D02*
G01*
X199887756Y-113214609D01*
X202252075Y-112259362D01*
X203188592Y-114577321D01*
X200824273Y-115532568D01*
X200824273Y-115532568D01*
G37*
D16*
X187495570Y-118113523D03*
D12*
G36*
X186942993Y-119415313D02*
G01*
X186193780Y-117560946D01*
X188048147Y-116811733D01*
X188797360Y-118666100D01*
X186942993Y-119415313D01*
X186942993Y-119415313D01*
G37*
D14*
X190740714Y-116802400D03*
D13*
X181067247Y-89055739D03*
D12*
G36*
X180348897Y-90748067D02*
G01*
X179374919Y-88337389D01*
X181785597Y-87363411D01*
X182759575Y-89774089D01*
X180348897Y-90748067D01*
X180348897Y-90748067D01*
G37*
D13*
X192600355Y-86768837D03*
D12*
G36*
X191882005Y-88461165D02*
G01*
X190908027Y-86050487D01*
X193318705Y-85076509D01*
X194292683Y-87487187D01*
X191882005Y-88461165D01*
X191882005Y-88461165D01*
G37*
D14*
X190897349Y-97702976D03*
D15*
X194420648Y-96279471D03*
D12*
G36*
X193706747Y-97916074D02*
G01*
X192770230Y-95598115D01*
X195134549Y-94642868D01*
X196071066Y-96960827D01*
X193706747Y-97916074D01*
X193706747Y-97916074D01*
G37*
D16*
X180378044Y-100497029D03*
D12*
G36*
X179825467Y-101798819D02*
G01*
X179076254Y-99944452D01*
X180930621Y-99195239D01*
X181679834Y-101049606D01*
X179825467Y-101798819D01*
X179825467Y-101798819D01*
G37*
D14*
X183623188Y-99185906D03*
D13*
X93274100Y-98034254D03*
D12*
G36*
X91581772Y-98752604D02*
G01*
X92555750Y-96341926D01*
X94966428Y-97315904D01*
X93992450Y-99726582D01*
X91581772Y-98752604D01*
X91581772Y-98752604D01*
G37*
D13*
X103158939Y-104400765D03*
D12*
G36*
X101466611Y-105119115D02*
G01*
X102440589Y-102708437D01*
X104851267Y-103682415D01*
X103877289Y-106093093D01*
X101466611Y-105119115D01*
X101466611Y-105119115D01*
G37*
D14*
X94338408Y-111083119D03*
D15*
X97861707Y-112506624D03*
D12*
G36*
X96211289Y-113187980D02*
G01*
X97147806Y-110870021D01*
X99512125Y-111825268D01*
X98575608Y-114143227D01*
X96211289Y-113187980D01*
X96211289Y-113187980D01*
G37*
D16*
X84830541Y-105785670D03*
D12*
G36*
X83528751Y-106338247D02*
G01*
X84277964Y-104483880D01*
X86132331Y-105233093D01*
X85383118Y-107087460D01*
X83528751Y-106338247D01*
X83528751Y-106338247D01*
G37*
D14*
X88075685Y-107096793D03*
D13*
X70413115Y-103897302D03*
D12*
G36*
X68720787Y-104615652D02*
G01*
X69694765Y-102204974D01*
X72105443Y-103178952D01*
X71131465Y-105589630D01*
X68720787Y-104615652D01*
X68720787Y-104615652D01*
G37*
D13*
X80297954Y-110263813D03*
D12*
G36*
X78605626Y-110982163D02*
G01*
X79579604Y-108571485D01*
X81990282Y-109545463D01*
X81016304Y-111956141D01*
X78605626Y-110982163D01*
X78605626Y-110982163D01*
G37*
D14*
X71477423Y-116946167D03*
D15*
X75000722Y-118369672D03*
D12*
G36*
X73350304Y-119051028D02*
G01*
X74286821Y-116733069D01*
X76651140Y-117688316D01*
X75714623Y-120006275D01*
X73350304Y-119051028D01*
X73350304Y-119051028D01*
G37*
D16*
X61969556Y-111648718D03*
D12*
G36*
X60667766Y-112201295D02*
G01*
X61416979Y-110346928D01*
X63271346Y-111096141D01*
X62522133Y-112950508D01*
X60667766Y-112201295D01*
X60667766Y-112201295D01*
G37*
D14*
X65214700Y-112959841D03*
D13*
X118382725Y-86608102D03*
D12*
G36*
X116690397Y-87326452D02*
G01*
X117664375Y-84915774D01*
X120075053Y-85889752D01*
X119101075Y-88300430D01*
X116690397Y-87326452D01*
X116690397Y-87326452D01*
G37*
D13*
X128267564Y-92974613D03*
D12*
G36*
X126575236Y-93692963D02*
G01*
X127549214Y-91282285D01*
X129959892Y-92256263D01*
X128985914Y-94666941D01*
X126575236Y-93692963D01*
X126575236Y-93692963D01*
G37*
D14*
X119447033Y-99656967D03*
D15*
X122970332Y-101080472D03*
D12*
G36*
X121319914Y-101761828D02*
G01*
X122256431Y-99443869D01*
X124620750Y-100399116D01*
X123684233Y-102717075D01*
X121319914Y-101761828D01*
X121319914Y-101761828D01*
G37*
D16*
X109939166Y-94359518D03*
D12*
G36*
X108637376Y-94912095D02*
G01*
X109386589Y-93057728D01*
X111240956Y-93806941D01*
X110491743Y-95661308D01*
X108637376Y-94912095D01*
X108637376Y-94912095D01*
G37*
D14*
X113184310Y-95670641D03*
D13*
X125500250Y-68991609D03*
D12*
G36*
X123807922Y-69709959D02*
G01*
X124781900Y-67299281D01*
X127192578Y-68273259D01*
X126218600Y-70683937D01*
X123807922Y-69709959D01*
X123807922Y-69709959D01*
G37*
D13*
X135385089Y-75358120D03*
D12*
G36*
X133692761Y-76076470D02*
G01*
X134666739Y-73665792D01*
X137077417Y-74639770D01*
X136103439Y-77050448D01*
X133692761Y-76076470D01*
X133692761Y-76076470D01*
G37*
D14*
X126564558Y-82040474D03*
D15*
X130087857Y-83463979D03*
D12*
G36*
X128437439Y-84145335D02*
G01*
X129373956Y-81827376D01*
X131738275Y-82782623D01*
X130801758Y-85100582D01*
X128437439Y-84145335D01*
X128437439Y-84145335D01*
G37*
D16*
X117056691Y-76743025D03*
D12*
G36*
X115754901Y-77295602D02*
G01*
X116504114Y-75441235D01*
X118358481Y-76190448D01*
X117609268Y-78044815D01*
X115754901Y-77295602D01*
X115754901Y-77295602D01*
G37*
D14*
X120301835Y-78054148D03*
D13*
X206175873Y-100481891D03*
D12*
G36*
X205457523Y-102174219D02*
G01*
X204483545Y-99763541D01*
X206894223Y-98789563D01*
X207868201Y-101200241D01*
X205457523Y-102174219D01*
X205457523Y-102174219D01*
G37*
D13*
X217708981Y-98194989D03*
D12*
G36*
X216990631Y-99887317D02*
G01*
X216016653Y-97476639D01*
X218427331Y-96502661D01*
X219401309Y-98913339D01*
X216990631Y-99887317D01*
X216990631Y-99887317D01*
G37*
D14*
X216005975Y-109129128D03*
D15*
X219529274Y-107705623D03*
D12*
G36*
X218815373Y-109342226D02*
G01*
X217878856Y-107024267D01*
X220243175Y-106069020D01*
X221179692Y-108386979D01*
X218815373Y-109342226D01*
X218815373Y-109342226D01*
G37*
D16*
X205486670Y-111923181D03*
D12*
G36*
X204934093Y-113224971D02*
G01*
X204184880Y-111370604D01*
X206039247Y-110621391D01*
X206788460Y-112475758D01*
X204934093Y-113224971D01*
X204934093Y-113224971D01*
G37*
D14*
X208731814Y-110612058D03*
D13*
X199058347Y-82865398D03*
D12*
G36*
X198339997Y-84557726D02*
G01*
X197366019Y-82147048D01*
X199776697Y-81173070D01*
X200750675Y-83583748D01*
X198339997Y-84557726D01*
X198339997Y-84557726D01*
G37*
D13*
X210591455Y-80578496D03*
D12*
G36*
X209873105Y-82270824D02*
G01*
X208899127Y-79860146D01*
X211309805Y-78886168D01*
X212283783Y-81296846D01*
X209873105Y-82270824D01*
X209873105Y-82270824D01*
G37*
D14*
X208888449Y-91512635D03*
D15*
X212411748Y-90089130D03*
D12*
G36*
X211697847Y-91725733D02*
G01*
X210761330Y-89407774D01*
X213125649Y-88452527D01*
X214062166Y-90770486D01*
X211697847Y-91725733D01*
X211697847Y-91725733D01*
G37*
D16*
X198369144Y-94306688D03*
D12*
G36*
X197816567Y-95608478D02*
G01*
X197067354Y-93754111D01*
X198921721Y-93004898D01*
X199670934Y-94859265D01*
X197816567Y-95608478D01*
X197816567Y-95608478D01*
G37*
D14*
X201614288Y-92995565D03*
D13*
X111265200Y-104224595D03*
D12*
G36*
X109572872Y-104942945D02*
G01*
X110546850Y-102532267D01*
X112957528Y-103506245D01*
X111983550Y-105916923D01*
X109572872Y-104942945D01*
X109572872Y-104942945D01*
G37*
D13*
X121150039Y-110591106D03*
D12*
G36*
X119457711Y-111309456D02*
G01*
X120431689Y-108898778D01*
X122842367Y-109872756D01*
X121868389Y-112283434D01*
X119457711Y-111309456D01*
X119457711Y-111309456D01*
G37*
D14*
X112329508Y-117273460D03*
D15*
X115852807Y-118696965D03*
D12*
G36*
X114202389Y-119378321D02*
G01*
X115138906Y-117060362D01*
X117503225Y-118015609D01*
X116566708Y-120333568D01*
X114202389Y-119378321D01*
X114202389Y-119378321D01*
G37*
D16*
X102821641Y-111976011D03*
D12*
G36*
X101519851Y-112528588D02*
G01*
X102269064Y-110674221D01*
X104123431Y-111423434D01*
X103374218Y-113277801D01*
X101519851Y-112528588D01*
X101519851Y-112528588D01*
G37*
D14*
X106066785Y-113287134D03*
D13*
X173949722Y-71439246D03*
D12*
G36*
X173231372Y-73131574D02*
G01*
X172257394Y-70720896D01*
X174668072Y-69746918D01*
X175642050Y-72157596D01*
X173231372Y-73131574D01*
X173231372Y-73131574D01*
G37*
D13*
X185482830Y-69152344D03*
D12*
G36*
X184764480Y-70844672D02*
G01*
X183790502Y-68433994D01*
X186201180Y-67460016D01*
X187175158Y-69870694D01*
X184764480Y-70844672D01*
X184764480Y-70844672D01*
G37*
D14*
X183779824Y-80086483D03*
D15*
X187303123Y-78662978D03*
D12*
G36*
X186589222Y-80299581D02*
G01*
X185652705Y-77981622D01*
X188017024Y-77026375D01*
X188953541Y-79344334D01*
X186589222Y-80299581D01*
X186589222Y-80299581D01*
G37*
D16*
X173260519Y-82880536D03*
D12*
G36*
X172707942Y-84182326D02*
G01*
X171958729Y-82327959D01*
X173813096Y-81578746D01*
X174562309Y-83433113D01*
X172707942Y-84182326D01*
X172707942Y-84182326D01*
G37*
D14*
X176505663Y-81569413D03*
D13*
X248526384Y-103863334D03*
D12*
G36*
X247808034Y-105555662D02*
G01*
X246834056Y-103144984D01*
X249244734Y-102171006D01*
X250218712Y-104581684D01*
X247808034Y-105555662D01*
X247808034Y-105555662D01*
G37*
D13*
X260059492Y-101576432D03*
D12*
G36*
X259341142Y-103268760D02*
G01*
X258367164Y-100858082D01*
X260777842Y-99884104D01*
X261751820Y-102294782D01*
X259341142Y-103268760D01*
X259341142Y-103268760D01*
G37*
D14*
X258356486Y-112510571D03*
D15*
X261879785Y-111087066D03*
D12*
G36*
X261165884Y-112723669D02*
G01*
X260229367Y-110405710D01*
X262593686Y-109450463D01*
X263530203Y-111768422D01*
X261165884Y-112723669D01*
X261165884Y-112723669D01*
G37*
D16*
X247837181Y-115304624D03*
D12*
G36*
X247284604Y-116606414D02*
G01*
X246535391Y-114752047D01*
X248389758Y-114002834D01*
X249138971Y-115857201D01*
X247284604Y-116606414D01*
X247284604Y-116606414D01*
G37*
D14*
X251082325Y-113993501D03*
D17*
X145530000Y-80620000D03*
D18*
X145530000Y-83160000D03*
X145530000Y-85700000D03*
X145530000Y-88240000D03*
X145530000Y-90780000D03*
X145530000Y-93320000D03*
X145530000Y-95860000D03*
X145530000Y-98400000D03*
X145530000Y-100940000D03*
X145530000Y-103480000D03*
X145530000Y-106020000D03*
X145530000Y-108560000D03*
X160770000Y-108560000D03*
X160770000Y-106020000D03*
X160770000Y-103480000D03*
X160770000Y-100940000D03*
X160770000Y-98400000D03*
X160770000Y-95860000D03*
X160770000Y-93320000D03*
X160770000Y-90780000D03*
X160770000Y-88240000D03*
X160770000Y-85700000D03*
X160770000Y-83160000D03*
X160770000Y-80620000D03*
D19*
X160570000Y-159320000D03*
X160570000Y-154820000D03*
X167070000Y-159320000D03*
X167070000Y-154820000D03*
X163820000Y-152570000D03*
D10*
X206375872Y-96572287D03*
D12*
G36*
X205269350Y-96102596D02*
G01*
X206845563Y-95465765D01*
X207482394Y-97041978D01*
X205906181Y-97678809D01*
X205269350Y-96102596D01*
X205269350Y-96102596D01*
G37*
D10*
X208730919Y-95620786D03*
D11*
X208730919Y-95620786D02*
X208730919Y-95620786D01*
D10*
X211085966Y-94669286D03*
D11*
X211085966Y-94669286D02*
X211085966Y-94669286D01*
D10*
X213441013Y-93717785D03*
D11*
X213441013Y-93717785D02*
X213441013Y-93717785D01*
D10*
X183168929Y-44472021D03*
D12*
G36*
X182062407Y-44002330D02*
G01*
X183638620Y-43365499D01*
X184275451Y-44941712D01*
X182699238Y-45578543D01*
X182062407Y-44002330D01*
X182062407Y-44002330D01*
G37*
D10*
X185523976Y-43520520D03*
D11*
X185523976Y-43520520D02*
X185523976Y-43520520D01*
D10*
X187879023Y-42569020D03*
D11*
X187879023Y-42569020D02*
X187879023Y-42569020D01*
D10*
X190234070Y-41617519D03*
D11*
X190234070Y-41617519D02*
X190234070Y-41617519D01*
D20*
X152770000Y-84620000D03*
D21*
X152770000Y-87160000D03*
X152770000Y-89700000D03*
X152770000Y-92240000D03*
D20*
X151770000Y-115620000D03*
D21*
X154310000Y-115620000D03*
D10*
X266608453Y-110524728D03*
D12*
G36*
X266138762Y-111631250D02*
G01*
X265501931Y-110055037D01*
X267078144Y-109418206D01*
X267714975Y-110994419D01*
X266138762Y-111631250D01*
X266138762Y-111631250D01*
G37*
D10*
X265656952Y-108169681D03*
D11*
X265656952Y-108169681D02*
X265656952Y-108169681D01*
D10*
X264705452Y-105814634D03*
D11*
X264705452Y-105814634D02*
X264705452Y-105814634D01*
D10*
X263753951Y-103459587D03*
D11*
X263753951Y-103459587D02*
X263753951Y-103459587D01*
D22*
X145020000Y-155970000D03*
X147020000Y-155970000D03*
D23*
X149020000Y-155970000D03*
D24*
X143020000Y-155970000D03*
X151020000Y-155970000D03*
D10*
X192140822Y-61339301D03*
D12*
G36*
X191034300Y-60869610D02*
G01*
X192610513Y-60232779D01*
X193247344Y-61808992D01*
X191671131Y-62445823D01*
X191034300Y-60869610D01*
X191034300Y-60869610D01*
G37*
D10*
X194495869Y-60387800D03*
D11*
X194495869Y-60387800D02*
X194495869Y-60387800D01*
D10*
X196850916Y-59436300D03*
D11*
X196850916Y-59436300D02*
X196850916Y-59436300D01*
D10*
X199205963Y-58484799D03*
D11*
X199205963Y-58484799D02*
X199205963Y-58484799D01*
D10*
X199258347Y-78955794D03*
D12*
G36*
X198151825Y-78486103D02*
G01*
X199728038Y-77849272D01*
X200364869Y-79425485D01*
X198788656Y-80062316D01*
X198151825Y-78486103D01*
X198151825Y-78486103D01*
G37*
D10*
X201613394Y-78004293D03*
D11*
X201613394Y-78004293D02*
X201613394Y-78004293D01*
D10*
X203968441Y-77052793D03*
D11*
X203968441Y-77052793D02*
X203968441Y-77052793D01*
D10*
X206323488Y-76101292D03*
D11*
X206323488Y-76101292D02*
X206323488Y-76101292D01*
D12*
G36*
X173800142Y-147983674D02*
G01*
X173823803Y-147987184D01*
X173847007Y-147992996D01*
X173869529Y-148001054D01*
X173891153Y-148011282D01*
X173911670Y-148023579D01*
X173930883Y-148037829D01*
X173948607Y-148053893D01*
X173964671Y-148071617D01*
X173978921Y-148090830D01*
X173991218Y-148111347D01*
X174001446Y-148132971D01*
X174009504Y-148155493D01*
X174015316Y-148178697D01*
X174018826Y-148202358D01*
X174020000Y-148226250D01*
X174020000Y-148713750D01*
X174018826Y-148737642D01*
X174015316Y-148761303D01*
X174009504Y-148784507D01*
X174001446Y-148807029D01*
X173991218Y-148828653D01*
X173978921Y-148849170D01*
X173964671Y-148868383D01*
X173948607Y-148886107D01*
X173930883Y-148902171D01*
X173911670Y-148916421D01*
X173891153Y-148928718D01*
X173869529Y-148938946D01*
X173847007Y-148947004D01*
X173823803Y-148952816D01*
X173800142Y-148956326D01*
X173776250Y-148957500D01*
X172863750Y-148957500D01*
X172839858Y-148956326D01*
X172816197Y-148952816D01*
X172792993Y-148947004D01*
X172770471Y-148938946D01*
X172748847Y-148928718D01*
X172728330Y-148916421D01*
X172709117Y-148902171D01*
X172691393Y-148886107D01*
X172675329Y-148868383D01*
X172661079Y-148849170D01*
X172648782Y-148828653D01*
X172638554Y-148807029D01*
X172630496Y-148784507D01*
X172624684Y-148761303D01*
X172621174Y-148737642D01*
X172620000Y-148713750D01*
X172620000Y-148226250D01*
X172621174Y-148202358D01*
X172624684Y-148178697D01*
X172630496Y-148155493D01*
X172638554Y-148132971D01*
X172648782Y-148111347D01*
X172661079Y-148090830D01*
X172675329Y-148071617D01*
X172691393Y-148053893D01*
X172709117Y-148037829D01*
X172728330Y-148023579D01*
X172748847Y-148011282D01*
X172770471Y-148001054D01*
X172792993Y-147992996D01*
X172816197Y-147987184D01*
X172839858Y-147983674D01*
X172863750Y-147982500D01*
X173776250Y-147982500D01*
X173800142Y-147983674D01*
X173800142Y-147983674D01*
G37*
D25*
X173320000Y-148470000D03*
D12*
G36*
X173800142Y-149858674D02*
G01*
X173823803Y-149862184D01*
X173847007Y-149867996D01*
X173869529Y-149876054D01*
X173891153Y-149886282D01*
X173911670Y-149898579D01*
X173930883Y-149912829D01*
X173948607Y-149928893D01*
X173964671Y-149946617D01*
X173978921Y-149965830D01*
X173991218Y-149986347D01*
X174001446Y-150007971D01*
X174009504Y-150030493D01*
X174015316Y-150053697D01*
X174018826Y-150077358D01*
X174020000Y-150101250D01*
X174020000Y-150588750D01*
X174018826Y-150612642D01*
X174015316Y-150636303D01*
X174009504Y-150659507D01*
X174001446Y-150682029D01*
X173991218Y-150703653D01*
X173978921Y-150724170D01*
X173964671Y-150743383D01*
X173948607Y-150761107D01*
X173930883Y-150777171D01*
X173911670Y-150791421D01*
X173891153Y-150803718D01*
X173869529Y-150813946D01*
X173847007Y-150822004D01*
X173823803Y-150827816D01*
X173800142Y-150831326D01*
X173776250Y-150832500D01*
X172863750Y-150832500D01*
X172839858Y-150831326D01*
X172816197Y-150827816D01*
X172792993Y-150822004D01*
X172770471Y-150813946D01*
X172748847Y-150803718D01*
X172728330Y-150791421D01*
X172709117Y-150777171D01*
X172691393Y-150761107D01*
X172675329Y-150743383D01*
X172661079Y-150724170D01*
X172648782Y-150703653D01*
X172638554Y-150682029D01*
X172630496Y-150659507D01*
X172624684Y-150636303D01*
X172621174Y-150612642D01*
X172620000Y-150588750D01*
X172620000Y-150101250D01*
X172621174Y-150077358D01*
X172624684Y-150053697D01*
X172630496Y-150030493D01*
X172638554Y-150007971D01*
X172648782Y-149986347D01*
X172661079Y-149965830D01*
X172675329Y-149946617D01*
X172691393Y-149928893D01*
X172709117Y-149912829D01*
X172728330Y-149898579D01*
X172748847Y-149886282D01*
X172770471Y-149876054D01*
X172792993Y-149867996D01*
X172816197Y-149862184D01*
X172839858Y-149858674D01*
X172863750Y-149857500D01*
X173776250Y-149857500D01*
X173800142Y-149858674D01*
X173800142Y-149858674D01*
G37*
D25*
X173320000Y-150345000D03*
D12*
G36*
X171800142Y-149871174D02*
G01*
X171823803Y-149874684D01*
X171847007Y-149880496D01*
X171869529Y-149888554D01*
X171891153Y-149898782D01*
X171911670Y-149911079D01*
X171930883Y-149925329D01*
X171948607Y-149941393D01*
X171964671Y-149959117D01*
X171978921Y-149978330D01*
X171991218Y-149998847D01*
X172001446Y-150020471D01*
X172009504Y-150042993D01*
X172015316Y-150066197D01*
X172018826Y-150089858D01*
X172020000Y-150113750D01*
X172020000Y-150601250D01*
X172018826Y-150625142D01*
X172015316Y-150648803D01*
X172009504Y-150672007D01*
X172001446Y-150694529D01*
X171991218Y-150716153D01*
X171978921Y-150736670D01*
X171964671Y-150755883D01*
X171948607Y-150773607D01*
X171930883Y-150789671D01*
X171911670Y-150803921D01*
X171891153Y-150816218D01*
X171869529Y-150826446D01*
X171847007Y-150834504D01*
X171823803Y-150840316D01*
X171800142Y-150843826D01*
X171776250Y-150845000D01*
X170863750Y-150845000D01*
X170839858Y-150843826D01*
X170816197Y-150840316D01*
X170792993Y-150834504D01*
X170770471Y-150826446D01*
X170748847Y-150816218D01*
X170728330Y-150803921D01*
X170709117Y-150789671D01*
X170691393Y-150773607D01*
X170675329Y-150755883D01*
X170661079Y-150736670D01*
X170648782Y-150716153D01*
X170638554Y-150694529D01*
X170630496Y-150672007D01*
X170624684Y-150648803D01*
X170621174Y-150625142D01*
X170620000Y-150601250D01*
X170620000Y-150113750D01*
X170621174Y-150089858D01*
X170624684Y-150066197D01*
X170630496Y-150042993D01*
X170638554Y-150020471D01*
X170648782Y-149998847D01*
X170661079Y-149978330D01*
X170675329Y-149959117D01*
X170691393Y-149941393D01*
X170709117Y-149925329D01*
X170728330Y-149911079D01*
X170748847Y-149898782D01*
X170770471Y-149888554D01*
X170792993Y-149880496D01*
X170816197Y-149874684D01*
X170839858Y-149871174D01*
X170863750Y-149870000D01*
X171776250Y-149870000D01*
X171800142Y-149871174D01*
X171800142Y-149871174D01*
G37*
D25*
X171320000Y-150357500D03*
D12*
G36*
X171800142Y-147996174D02*
G01*
X171823803Y-147999684D01*
X171847007Y-148005496D01*
X171869529Y-148013554D01*
X171891153Y-148023782D01*
X171911670Y-148036079D01*
X171930883Y-148050329D01*
X171948607Y-148066393D01*
X171964671Y-148084117D01*
X171978921Y-148103330D01*
X171991218Y-148123847D01*
X172001446Y-148145471D01*
X172009504Y-148167993D01*
X172015316Y-148191197D01*
X172018826Y-148214858D01*
X172020000Y-148238750D01*
X172020000Y-148726250D01*
X172018826Y-148750142D01*
X172015316Y-148773803D01*
X172009504Y-148797007D01*
X172001446Y-148819529D01*
X171991218Y-148841153D01*
X171978921Y-148861670D01*
X171964671Y-148880883D01*
X171948607Y-148898607D01*
X171930883Y-148914671D01*
X171911670Y-148928921D01*
X171891153Y-148941218D01*
X171869529Y-148951446D01*
X171847007Y-148959504D01*
X171823803Y-148965316D01*
X171800142Y-148968826D01*
X171776250Y-148970000D01*
X170863750Y-148970000D01*
X170839858Y-148968826D01*
X170816197Y-148965316D01*
X170792993Y-148959504D01*
X170770471Y-148951446D01*
X170748847Y-148941218D01*
X170728330Y-148928921D01*
X170709117Y-148914671D01*
X170691393Y-148898607D01*
X170675329Y-148880883D01*
X170661079Y-148861670D01*
X170648782Y-148841153D01*
X170638554Y-148819529D01*
X170630496Y-148797007D01*
X170624684Y-148773803D01*
X170621174Y-148750142D01*
X170620000Y-148726250D01*
X170620000Y-148238750D01*
X170621174Y-148214858D01*
X170624684Y-148191197D01*
X170630496Y-148167993D01*
X170638554Y-148145471D01*
X170648782Y-148123847D01*
X170661079Y-148103330D01*
X170675329Y-148084117D01*
X170691393Y-148066393D01*
X170709117Y-148050329D01*
X170728330Y-148036079D01*
X170748847Y-148023782D01*
X170770471Y-148013554D01*
X170792993Y-148005496D01*
X170816197Y-147999684D01*
X170839858Y-147996174D01*
X170863750Y-147995000D01*
X171776250Y-147995000D01*
X171800142Y-147996174D01*
X171800142Y-147996174D01*
G37*
D25*
X171320000Y-148482500D03*
D26*
X168770000Y-106120000D03*
X165470000Y-106120000D03*
X168770000Y-108520000D03*
X165470000Y-108520000D03*
X168770000Y-110920000D03*
X165470000Y-110920000D03*
X168770000Y-113320000D03*
X165470000Y-113320000D03*
X168770000Y-115770000D03*
X165470000Y-115770000D03*
D27*
X121920000Y-142570000D03*
X121920000Y-139270000D03*
D26*
X168770000Y-101220000D03*
X165470000Y-101220000D03*
D27*
X119420000Y-142570000D03*
X119420000Y-139270000D03*
D26*
X137646500Y-106027400D03*
X140946500Y-106027400D03*
X137646500Y-120977400D03*
X140946500Y-120977400D03*
X137646500Y-108476288D03*
X140946500Y-108476288D03*
X137646500Y-110975176D03*
X140946500Y-110975176D03*
X137646500Y-113474064D03*
X140946500Y-113474064D03*
X137646500Y-115972952D03*
X140946500Y-115972952D03*
D27*
X205431530Y-129170000D03*
X205431530Y-132470000D03*
X202612300Y-129170000D03*
X202612300Y-132470000D03*
X188596920Y-129170000D03*
X188596920Y-132470000D03*
X191416150Y-129170000D03*
X191416150Y-132470000D03*
X194235380Y-129170000D03*
X194235380Y-132470000D03*
X197054610Y-129170000D03*
X197054610Y-132470000D03*
X177320000Y-129170000D03*
X177320000Y-132470000D03*
X180139230Y-129170000D03*
X180139230Y-132470000D03*
X182958460Y-129170000D03*
X182958460Y-132470000D03*
X185777690Y-129170000D03*
X185777690Y-132470000D03*
D26*
X168770000Y-118220000D03*
X165470000Y-118220000D03*
X168770000Y-120770000D03*
X165470000Y-120770000D03*
X168770000Y-123270000D03*
X165470000Y-123270000D03*
X168770000Y-125770000D03*
X165470000Y-125770000D03*
D27*
X210770000Y-129170000D03*
X210770000Y-132470000D03*
X207950760Y-129170000D03*
X207950760Y-132470000D03*
X199793070Y-129170000D03*
X199793070Y-132470000D03*
D26*
X168770000Y-133232500D03*
X165470000Y-133232500D03*
X168770000Y-130770000D03*
X165470000Y-130770000D03*
X168770000Y-135720000D03*
X165470000Y-135720000D03*
X168770000Y-128270000D03*
X165470000Y-128270000D03*
X168770000Y-103670000D03*
X165470000Y-103670000D03*
D27*
X109074545Y-130320000D03*
X109074545Y-133620000D03*
D26*
X137646500Y-118477400D03*
X140946500Y-118477400D03*
X137646500Y-103527400D03*
X140946500Y-103527400D03*
D27*
X99292729Y-130320000D03*
X99292729Y-133620000D03*
X96847275Y-130320000D03*
X96847275Y-133620000D03*
X106629091Y-130320000D03*
X106629091Y-133620000D03*
D26*
X137646500Y-125967400D03*
X140946500Y-125967400D03*
X137646500Y-123477400D03*
X140946500Y-123477400D03*
D27*
X101738183Y-130320000D03*
X101738183Y-133620000D03*
X104183637Y-130320000D03*
X104183637Y-133620000D03*
X109547270Y-142570000D03*
X109547270Y-139270000D03*
X111992733Y-142570000D03*
X111992733Y-139270000D03*
X114438187Y-142570000D03*
X114438187Y-139270000D03*
X116883641Y-142570000D03*
X116883641Y-139270000D03*
X122220000Y-130320000D03*
X122220000Y-133620000D03*
X119620000Y-130320000D03*
X119620000Y-133620000D03*
X117020000Y-130320000D03*
X117020000Y-133620000D03*
X114420000Y-130320000D03*
X114420000Y-133620000D03*
X132570000Y-130320000D03*
X132570000Y-133620000D03*
X129970000Y-130320000D03*
X129970000Y-133620000D03*
X127370000Y-130320000D03*
X127370000Y-133620000D03*
X124770000Y-130320000D03*
X124770000Y-133620000D03*
D28*
X154310000Y-152530002D03*
X154310000Y-138530002D03*
X124770000Y-129070000D03*
X127370000Y-129170000D03*
X129870000Y-129270000D03*
X132570000Y-129270000D03*
X114270000Y-129070000D03*
X116970000Y-129270000D03*
X119670000Y-129170000D03*
X122170000Y-129170000D03*
X116920000Y-143520000D03*
X114420000Y-143570000D03*
X111970000Y-143470000D03*
X109547270Y-143274000D03*
X136670000Y-123420000D03*
X116470000Y-73269996D03*
X96820000Y-129370000D03*
X99370000Y-129270000D03*
X136570000Y-103470000D03*
X136140056Y-79236081D03*
X136670000Y-118470000D03*
X132720000Y-91320002D03*
X169955600Y-103670700D03*
X184357400Y-67107400D03*
X169803200Y-128245200D03*
X191370000Y-80370000D03*
X169820000Y-135720000D03*
X198920000Y-111820000D03*
X169870000Y-130770000D03*
X202570000Y-70170000D03*
X169770000Y-133270000D03*
X208570000Y-78870000D03*
X199870000Y-128070000D03*
X216870000Y-105170000D03*
X217220000Y-134220000D03*
X217170000Y-126570000D03*
X215170000Y-135420000D03*
X215170000Y-127320000D03*
X170044500Y-125832200D03*
X169752400Y-123266800D03*
X169790500Y-120739500D03*
X169714300Y-118186800D03*
X185370000Y-127670000D03*
X182970000Y-128170000D03*
X180170000Y-128070000D03*
X177270000Y-128070000D03*
X202570000Y-127770000D03*
X242390259Y-107990259D03*
X205470000Y-127870000D03*
X261879785Y-108479785D03*
X139267226Y-69875546D03*
X62970000Y-117270000D03*
X62220000Y-114720000D03*
X150487863Y-142776956D03*
X192296920Y-136516607D03*
X139142998Y-72319647D03*
X190270000Y-136520000D03*
X149888361Y-143577345D03*
X139120000Y-71270000D03*
X146120000Y-151670000D03*
X147989524Y-144304355D03*
X137952931Y-71350187D03*
X146920000Y-145070000D03*
X123570000Y-68270000D03*
X115720000Y-80870000D03*
X116220000Y-85870000D03*
X108370000Y-97520000D03*
X108919999Y-101970000D03*
X102120000Y-115320000D03*
X219120000Y-125170000D03*
X146372876Y-141947010D03*
X123620000Y-61170000D03*
X92020000Y-120470000D03*
X96470000Y-120420000D03*
X84970000Y-109920000D03*
X211670000Y-116370000D03*
X98820000Y-135570000D03*
X158728021Y-142322945D03*
X148791222Y-146418430D03*
X148861200Y-147415990D03*
X173270000Y-151670000D03*
X142270000Y-126570000D03*
X142270000Y-135670000D03*
X158728021Y-139570000D03*
X158742990Y-136270000D03*
X136670000Y-115970000D03*
X136670000Y-113470000D03*
X136670000Y-110970000D03*
X136570000Y-108470000D03*
X136670000Y-120970000D03*
X124443000Y-54507313D03*
X136570000Y-105970000D03*
X136270000Y-67970000D03*
X119420000Y-143570000D03*
X170069900Y-100914800D03*
X180185598Y-54858239D03*
X121920000Y-143670000D03*
X169714300Y-115723000D03*
X194945000Y-53145000D03*
X169777800Y-113310000D03*
X169790500Y-110909700D03*
X169727000Y-108522100D03*
X169803200Y-106109100D03*
X196970000Y-128170000D03*
X194170000Y-128070000D03*
X191370000Y-127970000D03*
X188570000Y-127970000D03*
D29*
X263753951Y-104863133D02*
X264705452Y-105814634D01*
X263753951Y-103459587D02*
X263753951Y-104863133D01*
X264670000Y-105850086D02*
X264705452Y-105814634D01*
X264670000Y-107370000D02*
X264670000Y-105850086D01*
X265656952Y-108169681D02*
X265469681Y-108169681D01*
X265469681Y-108169681D02*
X264670000Y-107370000D01*
X265570000Y-108256633D02*
X265656952Y-108169681D01*
X265570000Y-109670000D02*
X265570000Y-108256633D01*
X266608453Y-110524728D02*
X266424728Y-110524728D01*
X266424728Y-110524728D02*
X265570000Y-109670000D01*
X41281167Y-107411521D02*
X40329667Y-108363021D01*
X41281167Y-106007974D02*
X41281167Y-107411521D01*
X40329667Y-109766567D02*
X39378166Y-110718068D01*
X40329667Y-108363021D02*
X40329667Y-109766567D01*
X152770000Y-84620000D02*
X152770000Y-87160000D01*
X152770000Y-87160000D02*
X152770000Y-89700000D01*
X152770000Y-89700000D02*
X152770000Y-92240000D01*
X41720000Y-105070000D02*
X41720000Y-103670000D01*
X40768499Y-106025047D02*
X40768499Y-106021501D01*
X40768499Y-106021501D02*
X41720000Y-105070000D01*
X160570000Y-154820000D02*
X158280002Y-152530002D01*
X158280002Y-152530002D02*
X154875685Y-152530002D01*
X154875685Y-152530002D02*
X154310000Y-152530002D01*
X145530000Y-85700000D02*
X145530000Y-88240000D01*
X151690000Y-85700000D02*
X152770000Y-84620000D01*
X145530000Y-85700000D02*
X151690000Y-85700000D01*
X152770000Y-83262000D02*
X152770000Y-84620000D01*
X152872000Y-83160000D02*
X152770000Y-83262000D01*
X160770000Y-83160000D02*
X152872000Y-83160000D01*
X263730748Y-113759252D02*
X230414225Y-127220000D01*
X266608453Y-110524728D02*
X265884796Y-111248385D01*
X219898328Y-127220000D02*
X214629339Y-132488989D01*
X168304649Y-141014924D02*
X165819728Y-138530002D01*
X214579338Y-132488989D02*
X209243700Y-137824627D01*
X154875685Y-138530002D02*
X154310000Y-138530002D01*
X182219737Y-141014924D02*
X168304649Y-141014924D01*
X185410034Y-137824628D02*
X182219737Y-141014924D01*
X209243700Y-137824627D02*
X185410034Y-137824628D01*
X214629339Y-132488989D02*
X214579338Y-132488989D01*
X230414225Y-127220000D02*
X219898328Y-127220000D01*
X265884796Y-111605204D02*
X263730748Y-113759252D01*
X265884796Y-111248385D02*
X265884796Y-111605204D01*
X165819728Y-138530002D02*
X154875685Y-138530002D01*
X39715497Y-111585140D02*
X38865498Y-110735141D01*
X41948648Y-113818291D02*
X39715497Y-111585140D01*
X150730002Y-152530002D02*
X145470000Y-147270000D01*
X154310000Y-152530002D02*
X150730002Y-152530002D01*
X145470000Y-147270000D02*
X106270000Y-147270000D01*
X106270000Y-147270000D02*
X82420000Y-123420000D01*
X82420000Y-123420000D02*
X65713711Y-123420000D01*
X65713711Y-123420000D02*
X41948648Y-113818291D01*
D30*
X124770000Y-130320000D02*
X124770000Y-129070000D01*
X127370000Y-130320000D02*
X127370000Y-129170000D01*
X129970000Y-130320000D02*
X129970000Y-129370000D01*
X129970000Y-129370000D02*
X129870000Y-129270000D01*
X132570000Y-130320000D02*
X132570000Y-129270000D01*
X114420000Y-130320000D02*
X114420000Y-129220000D01*
X114420000Y-129220000D02*
X114270000Y-129070000D01*
X117020000Y-130320000D02*
X117020000Y-129320000D01*
X117020000Y-129320000D02*
X116970000Y-129270000D01*
X119620000Y-130320000D02*
X119620000Y-129220000D01*
X119620000Y-129220000D02*
X119670000Y-129170000D01*
X122220000Y-130320000D02*
X122220000Y-129220000D01*
X122220000Y-129220000D02*
X122170000Y-129170000D01*
X116883641Y-142570000D02*
X116883641Y-143483641D01*
X116883641Y-143483641D02*
X116920000Y-143520000D01*
X114438187Y-143274000D02*
X114438187Y-142570000D01*
X114438187Y-143274000D02*
X114438187Y-143551813D01*
X114438187Y-143551813D02*
X114420000Y-143570000D01*
X111992733Y-143274000D02*
X111992733Y-142570000D01*
X111992733Y-143274000D02*
X111992733Y-143447267D01*
X111992733Y-143447267D02*
X111970000Y-143470000D01*
X109547270Y-143274000D02*
X109547270Y-142570000D01*
X76031647Y-117338747D02*
X75000722Y-118369672D01*
X79228620Y-114141774D02*
X76031647Y-117338747D01*
X79228620Y-111333147D02*
X79228620Y-114141774D01*
X80297954Y-110263813D02*
X79228620Y-111333147D01*
X81800049Y-110263813D02*
X80297954Y-110263813D01*
X84806236Y-113270000D02*
X81800049Y-110263813D01*
X92070000Y-113270000D02*
X84806236Y-113270000D01*
X104183637Y-130320000D02*
X104183637Y-125383637D01*
X104183637Y-125383637D02*
X92070000Y-113270000D01*
X61396220Y-108370000D02*
X60808427Y-107782207D01*
X55511195Y-114578805D02*
X55511195Y-115888066D01*
X60808427Y-107782207D02*
X60808427Y-109281573D01*
X60808427Y-109281573D02*
X55511195Y-114578805D01*
X56986327Y-115888066D02*
X55511195Y-115888066D01*
X64538066Y-115888066D02*
X56986327Y-115888066D01*
X70570000Y-121920000D02*
X64538066Y-115888066D01*
X97920000Y-121920000D02*
X70570000Y-121920000D01*
X101738183Y-130320000D02*
X101738183Y-125738183D01*
X101738183Y-125738183D02*
X97920000Y-121920000D01*
X117495981Y-69208985D02*
X116470000Y-70234966D01*
X116470000Y-70234966D02*
X116470000Y-73270000D01*
X113229674Y-76283919D02*
X112198749Y-77314844D01*
X116470000Y-73270000D02*
X113456081Y-76283919D01*
X113456081Y-76283919D02*
X113229674Y-76283919D01*
X137646500Y-123477400D02*
X137646500Y-123327400D01*
X112170000Y-77343593D02*
X112198749Y-77314844D01*
X137646500Y-123477400D02*
X136727400Y-123477400D01*
X136727400Y-123477400D02*
X136670000Y-123420000D01*
X106112149Y-93900413D02*
X105081224Y-94931338D01*
X109309122Y-90703440D02*
X106112149Y-93900413D01*
X109309122Y-87894813D02*
X109309122Y-90703440D01*
X110378456Y-86825479D02*
X109309122Y-87894813D01*
X105470000Y-95320114D02*
X105081224Y-94931338D01*
X105470000Y-96120000D02*
X105470000Y-95320114D01*
X136767400Y-125967400D02*
X124947760Y-114147760D01*
X124947760Y-114147760D02*
X124947760Y-111515685D01*
X137646500Y-125967400D02*
X136767400Y-125967400D01*
X124947760Y-111515685D02*
X112552075Y-99120000D01*
X112552075Y-99120000D02*
X108470000Y-99120000D01*
X108470000Y-99120000D02*
X105470000Y-96120000D01*
X98892632Y-111475699D02*
X97861707Y-112506624D01*
X102089605Y-108278726D02*
X98892632Y-111475699D01*
X102089605Y-105470099D02*
X102089605Y-108278726D01*
X103158939Y-104400765D02*
X102089605Y-105470099D01*
X106629091Y-121274008D02*
X97861707Y-112506624D01*
X106629091Y-130320000D02*
X106629091Y-121274008D01*
X96847275Y-130320000D02*
X96847275Y-129397275D01*
X96847275Y-129397275D02*
X96820000Y-129370000D01*
X99292729Y-130320000D02*
X99292729Y-129347271D01*
X99292729Y-129347271D02*
X99370000Y-129270000D01*
X137646500Y-103527400D02*
X136627400Y-103527400D01*
X136627400Y-103527400D02*
X136570000Y-103470000D01*
X135740057Y-78836082D02*
X136140056Y-79236081D01*
X134315755Y-79236081D02*
X135574371Y-79236081D01*
X135574371Y-79236081D02*
X136140056Y-79236081D01*
X130087857Y-83463979D02*
X134315755Y-79236081D01*
X135385089Y-78481114D02*
X135740057Y-78836082D01*
X135385089Y-75358120D02*
X135385089Y-78481114D01*
X128267564Y-95783240D02*
X122970332Y-101080472D01*
X128267564Y-92974613D02*
X128267564Y-95783240D01*
X137646500Y-118477400D02*
X136677400Y-118477400D01*
X136677400Y-118477400D02*
X136670000Y-118470000D01*
X128267564Y-92974613D02*
X129922175Y-91320002D01*
X132154315Y-91320002D02*
X132720000Y-91320002D01*
X129922175Y-91320002D02*
X132154315Y-91320002D01*
X116883732Y-117666040D02*
X115852807Y-118696965D01*
X120080705Y-114469067D02*
X116883732Y-117666040D01*
X120080705Y-111660440D02*
X120080705Y-114469067D01*
X121150039Y-110591106D02*
X120080705Y-111660440D01*
X109074545Y-125475227D02*
X115852807Y-118696965D01*
X109074545Y-130320000D02*
X109074545Y-125475227D01*
X187303123Y-77214810D02*
X187303123Y-78662978D01*
X187303123Y-72474732D02*
X187303123Y-77214810D01*
X185482830Y-70654439D02*
X187303123Y-72474732D01*
X185482830Y-69152344D02*
X185482830Y-70654439D01*
X168770000Y-103670000D02*
X169954900Y-103670000D01*
X169954900Y-103670000D02*
X169955600Y-103670700D01*
X184357400Y-68026914D02*
X185482830Y-69152344D01*
X184357400Y-67107400D02*
X184357400Y-68026914D01*
X192600355Y-88270932D02*
X192600355Y-86768837D01*
X193389723Y-89060300D02*
X192600355Y-88270932D01*
X193389723Y-95248546D02*
X193389723Y-89060300D01*
X194420648Y-96279471D02*
X193389723Y-95248546D01*
X168770000Y-128270000D02*
X169778400Y-128270000D01*
X169778400Y-128270000D02*
X169803200Y-128245200D01*
X191769999Y-80769999D02*
X191370000Y-80370000D01*
X192600355Y-86768837D02*
X192600355Y-81600355D01*
X192600355Y-81600355D02*
X191769999Y-80769999D01*
X201538174Y-106205624D02*
X199717881Y-104385331D01*
X201538174Y-113895965D02*
X201538174Y-106205624D01*
X168770000Y-135720000D02*
X169820000Y-135720000D01*
X200995965Y-113895965D02*
X201538174Y-113895965D01*
X198920000Y-111820000D02*
X200995965Y-113895965D01*
X203473930Y-65758170D02*
X203394700Y-65837400D01*
X203473930Y-62962003D02*
X203473930Y-65758170D01*
X203394700Y-65837400D02*
X204474200Y-66916900D01*
X204474200Y-66916900D02*
X204474200Y-71230810D01*
X204474200Y-71230810D02*
X204263298Y-71441712D01*
X204263298Y-71441712D02*
X205294223Y-72472637D01*
X168770000Y-130770000D02*
X169870000Y-130770000D01*
X204872637Y-72472637D02*
X205294223Y-72472637D01*
X202570000Y-70170000D02*
X204872637Y-72472637D01*
X210591455Y-83473555D02*
X210591455Y-80578496D01*
X211002000Y-83884100D02*
X210591455Y-83473555D01*
X211002000Y-86424100D02*
X211002000Y-83884100D01*
X210824200Y-86601900D02*
X211002000Y-86424100D01*
X212411748Y-90089130D02*
X210824200Y-88501582D01*
X210824200Y-88501582D02*
X210824200Y-86601900D01*
X168770000Y-133232500D02*
X169732500Y-133232500D01*
X169732500Y-133232500D02*
X169770000Y-133270000D01*
X210278496Y-80578496D02*
X210591455Y-80578496D01*
X208570000Y-78870000D02*
X210278496Y-80578496D01*
X199793070Y-129170000D02*
X199793070Y-128146930D01*
X199793070Y-128146930D02*
X199870000Y-128070000D01*
X219405623Y-107705623D02*
X219529274Y-107705623D01*
X216870000Y-105170000D02*
X219405623Y-107705623D01*
X217708981Y-99697084D02*
X217708981Y-98194989D01*
X218498349Y-100486452D02*
X217708981Y-99697084D01*
X218498349Y-106674698D02*
X218498349Y-100486452D01*
X219529274Y-107705623D02*
X218498349Y-106674698D01*
X217195834Y-134600346D02*
X217195834Y-135802427D01*
X217195834Y-134600346D02*
X217195834Y-134244166D01*
X217195834Y-134244166D02*
X217220000Y-134220000D01*
X211404760Y-126570000D02*
X216604315Y-126570000D01*
X216604315Y-126570000D02*
X217170000Y-126570000D01*
X208804760Y-129170000D02*
X211404760Y-126570000D01*
X207950760Y-129170000D02*
X208804760Y-129170000D01*
X215167300Y-136128956D02*
X215167300Y-137331037D01*
X215167300Y-136128956D02*
X215167300Y-135422700D01*
X215167300Y-135422700D02*
X215170000Y-135420000D01*
X212620000Y-127320000D02*
X215170000Y-127320000D01*
X210770000Y-129170000D02*
X212620000Y-127320000D01*
X168770000Y-125770000D02*
X169982300Y-125770000D01*
X169982300Y-125770000D02*
X170044500Y-125832200D01*
X168770000Y-123270000D02*
X169749200Y-123270000D01*
X169749200Y-123270000D02*
X169752400Y-123266800D01*
X168770000Y-120770000D02*
X169760000Y-120770000D01*
X169760000Y-120770000D02*
X169790500Y-120739500D01*
X168770000Y-118220000D02*
X169681100Y-118220000D01*
X169681100Y-118220000D02*
X169714300Y-118186800D01*
X185777690Y-129170000D02*
X185777690Y-128077690D01*
X185777690Y-128077690D02*
X185370000Y-127670000D01*
X182958460Y-129170000D02*
X182958460Y-128181540D01*
X182958460Y-128181540D02*
X182970000Y-128170000D01*
X180139230Y-129170000D02*
X180139230Y-128100770D01*
X180139230Y-128100770D02*
X180170000Y-128070000D01*
X177320000Y-129170000D02*
X177320000Y-128120000D01*
X177320000Y-128120000D02*
X177270000Y-128070000D01*
X242390259Y-112120504D02*
X242390259Y-113568672D01*
X240569966Y-105560133D02*
X242390259Y-107380426D01*
X240569966Y-104058038D02*
X240569966Y-105560133D01*
X202612300Y-129170000D02*
X202612300Y-127812300D01*
X202612300Y-127812300D02*
X202570000Y-127770000D01*
X242390259Y-107990259D02*
X242390259Y-112120504D01*
X242390259Y-107380426D02*
X242390259Y-107990259D01*
X261879785Y-109638898D02*
X261879785Y-111087066D01*
X260059492Y-103078527D02*
X261879785Y-104898820D01*
X260059492Y-101576432D02*
X260059492Y-103078527D01*
X205431530Y-129170000D02*
X205431530Y-127908470D01*
X205431530Y-127908470D02*
X205470000Y-127870000D01*
X261879785Y-104898820D02*
X261879785Y-108479785D01*
X261879785Y-108479785D02*
X261879785Y-109638898D01*
X227508773Y-116947348D02*
X228347655Y-117786230D01*
X226661100Y-116099675D02*
X227508773Y-116947348D01*
X226661100Y-108720698D02*
X226661100Y-116099675D01*
X229036858Y-106344940D02*
X226661100Y-108720698D01*
X112388284Y-57636225D02*
X119714037Y-64961978D01*
X138701541Y-69875546D02*
X139267226Y-69875546D01*
X119714037Y-64961978D02*
X129338181Y-64961978D01*
X106346902Y-58486224D02*
X107196901Y-57636225D01*
X129338181Y-64961978D02*
X134251749Y-69875546D01*
X107196901Y-57636225D02*
X112388284Y-57636225D01*
X134251749Y-69875546D02*
X138701541Y-69875546D01*
X62220000Y-111899162D02*
X61969556Y-111648718D01*
X62220000Y-114720000D02*
X62220000Y-111899162D01*
X151053548Y-142776956D02*
X150487863Y-142776956D01*
X151326539Y-143049947D02*
X151053548Y-142776956D01*
X180849947Y-143049947D02*
X151326539Y-143049947D01*
X192170000Y-154370000D02*
X180849947Y-143049947D01*
X209087979Y-136516607D02*
X192862605Y-136516607D01*
X227508773Y-118625112D02*
X227022820Y-118625112D01*
X228347655Y-117786230D02*
X227508773Y-118625112D01*
X227022820Y-118625112D02*
X214193965Y-131453967D01*
X214193965Y-131453967D02*
X214150618Y-131453968D01*
X214150618Y-131453968D02*
X209087979Y-136516607D01*
X192862605Y-136516607D02*
X192296920Y-136516607D01*
X65277932Y-117270000D02*
X70381943Y-122374011D01*
X149922178Y-142776956D02*
X150487863Y-142776956D01*
X70381943Y-122374011D02*
X83024011Y-122374011D01*
X106884976Y-146234976D02*
X143802942Y-146234976D01*
X147260962Y-142776956D02*
X149922178Y-142776956D01*
X143802942Y-146234976D02*
X147260962Y-142776956D01*
X83024011Y-122374011D02*
X106884976Y-146234976D01*
X62970000Y-117270000D02*
X65277932Y-117270000D01*
X62591282Y-111648718D02*
X61969556Y-111648718D01*
X64120000Y-110120000D02*
X62591282Y-111648718D01*
X64120000Y-107270000D02*
X64120000Y-110120000D01*
X70413115Y-103897302D02*
X67492698Y-103897302D01*
X67492698Y-103897302D02*
X64120000Y-107270000D01*
X138577313Y-72319647D02*
X139142998Y-72319647D01*
X115924010Y-66324010D02*
X128774010Y-66324010D01*
X111620000Y-62020000D02*
X115924010Y-66324010D01*
X108701949Y-59437725D02*
X108701949Y-60639806D01*
X134769647Y-72319647D02*
X138577313Y-72319647D01*
X108701949Y-60639806D02*
X110082143Y-62020000D01*
X128774010Y-66324010D02*
X134769647Y-72319647D01*
X110082143Y-62020000D02*
X111620000Y-62020000D01*
X43318911Y-108328230D02*
X42480029Y-109167112D01*
X43318911Y-106771089D02*
X43318911Y-108328230D01*
X50923588Y-101415696D02*
X48674304Y-101415696D01*
X48674304Y-101415696D02*
X47870000Y-102220000D01*
X47870000Y-102220000D02*
X43318911Y-106771089D01*
X247837181Y-114126090D02*
X247837181Y-115304624D01*
X246770000Y-113058909D02*
X247837181Y-114126090D01*
X248526384Y-103863334D02*
X246770000Y-105619718D01*
X246770000Y-105619718D02*
X246770000Y-113058909D01*
X150454046Y-143577345D02*
X149888361Y-143577345D01*
X177820201Y-143577345D02*
X150454046Y-143577345D01*
X190141466Y-155898610D02*
X177820201Y-143577345D01*
X190993617Y-137243617D02*
X190669999Y-136919999D01*
X242021805Y-121120000D02*
X225170000Y-121120000D01*
X214338676Y-131907978D02*
X209003037Y-137243617D01*
X190669999Y-136919999D02*
X190270000Y-136520000D01*
X214382022Y-131907978D02*
X214338676Y-131907978D01*
X209003037Y-137243617D02*
X190993617Y-137243617D01*
X225170000Y-121120000D02*
X214382022Y-131907978D01*
X247837181Y-115304624D02*
X242021805Y-121120000D01*
X106696919Y-146688987D02*
X143991000Y-146688986D01*
X56020000Y-118420000D02*
X65785864Y-118420000D01*
X48220000Y-102570000D02*
X48220000Y-114070000D01*
X149322676Y-143577345D02*
X149888361Y-143577345D01*
X48220000Y-114070000D02*
X52220000Y-117220000D01*
X65785864Y-118420000D02*
X70193886Y-122828022D01*
X82835954Y-122828022D02*
X106696919Y-146688987D01*
X143991000Y-146688986D02*
X147102641Y-143577345D01*
X47870000Y-102220000D02*
X48220000Y-102570000D01*
X70193886Y-122828022D02*
X82835954Y-122828022D01*
X52220000Y-117220000D02*
X56020000Y-118420000D01*
X147102641Y-143577345D02*
X149322676Y-143577345D01*
X113649219Y-59539226D02*
X119525983Y-65415990D01*
X138215989Y-70365989D02*
X138720001Y-70870001D01*
X111056996Y-60389225D02*
X111906995Y-59539226D01*
X129150124Y-65415990D02*
X134100125Y-70365989D01*
X134100125Y-70365989D02*
X138215989Y-70365989D01*
X111906995Y-59539226D02*
X113649219Y-59539226D01*
X119525983Y-65415990D02*
X129150124Y-65415990D01*
X138720001Y-70870001D02*
X139120000Y-71270000D01*
X125281905Y-159208095D02*
X123184373Y-159208095D01*
X128447860Y-156042140D02*
X125281905Y-159208095D01*
X127770203Y-153122492D02*
X128447860Y-153800149D01*
X128447860Y-153800149D02*
X128447860Y-156042140D01*
X129222695Y-151670000D02*
X145554315Y-151670000D01*
X145554315Y-151670000D02*
X146120000Y-151670000D01*
X127770203Y-153122492D02*
X129222695Y-151670000D01*
X176192148Y-144304355D02*
X148555209Y-144304355D01*
X148555209Y-144304355D02*
X147989524Y-144304355D01*
X188112932Y-157427220D02*
X188112932Y-156225139D01*
X188112932Y-156225139D02*
X176192148Y-144304355D01*
X137387246Y-71350187D02*
X137952931Y-71350187D01*
X128962068Y-65870000D02*
X134442255Y-71350187D01*
X113412043Y-61340726D02*
X117941316Y-65869999D01*
X134442255Y-71350187D02*
X137387246Y-71350187D01*
X117941316Y-65869999D02*
X128962068Y-65870000D01*
X186084397Y-155500264D02*
X186084397Y-157753749D01*
X146920000Y-145070000D02*
X175654133Y-145070000D01*
X186084397Y-157753749D02*
X186084397Y-158955830D01*
X175654133Y-145070000D02*
X186084397Y-155500264D01*
X109939166Y-93180984D02*
X109939166Y-94359518D01*
X115442714Y-87677436D02*
X109939166Y-93180984D01*
X117313391Y-87677436D02*
X115442714Y-87677436D01*
X118382725Y-86608102D02*
X117313391Y-87677436D01*
X172318197Y-71439246D02*
X173949722Y-71439246D01*
X166142994Y-65264043D02*
X172318197Y-71439246D01*
X186553248Y-106672233D02*
X188184773Y-106672233D01*
X180378044Y-100497029D02*
X186553248Y-106672233D01*
X123998155Y-68991609D02*
X125500250Y-68991609D01*
X123725924Y-68991609D02*
X123998155Y-68991609D01*
X123570000Y-68835685D02*
X123725924Y-68991609D01*
X123570000Y-68270000D02*
X123570000Y-68835685D01*
X117644623Y-85870000D02*
X118382725Y-86608102D01*
X116220000Y-85870000D02*
X117644623Y-85870000D01*
X116556691Y-80033309D02*
X115720000Y-80870000D01*
X116556691Y-77183309D02*
X116556691Y-80033309D01*
X117056691Y-76743025D02*
X116996975Y-76743025D01*
X116996975Y-76743025D02*
X116556691Y-77183309D01*
X109100284Y-95198400D02*
X109100284Y-96789716D01*
X109939166Y-94359518D02*
X109100284Y-95198400D01*
X109100284Y-96789716D02*
X108370000Y-97520000D01*
X111265200Y-104224595D02*
X109010605Y-101970000D01*
X109010605Y-101970000D02*
X108919999Y-101970000D01*
X102821641Y-111976011D02*
X102821641Y-114618359D01*
X102821641Y-114618359D02*
X102120000Y-115320000D01*
X219224368Y-134273817D02*
X219224368Y-133624368D01*
X119452059Y-85538768D02*
X118382725Y-86608102D01*
X123288768Y-85538768D02*
X119452059Y-85538768D01*
X127170000Y-89420000D02*
X123288768Y-85538768D01*
X145530000Y-100940000D02*
X134010000Y-89420000D01*
X134010000Y-89420000D02*
X127170000Y-89420000D01*
X193802047Y-124420000D02*
X187495570Y-118113523D01*
X219120000Y-125170000D02*
X218370000Y-124420000D01*
X218370000Y-124420000D02*
X193802047Y-124420000D01*
X124174217Y-60615783D02*
X124019999Y-60770001D01*
X124019999Y-60770001D02*
X123620000Y-61170000D01*
X124174217Y-59126531D02*
X124174217Y-60615783D01*
X182460399Y-141595935D02*
X146821799Y-141595935D01*
X214820000Y-133070000D02*
X209484364Y-138405636D01*
X218020551Y-133070000D02*
X214820000Y-133070000D01*
X219224368Y-134273817D02*
X218020551Y-133070000D01*
X185650697Y-138405637D02*
X182460399Y-141595935D01*
X146772875Y-141547011D02*
X146372876Y-141947010D01*
X209484364Y-138405636D02*
X185650697Y-138405637D01*
X146821799Y-141595935D02*
X146772875Y-141547011D01*
X187495570Y-116934989D02*
X187495570Y-118113523D01*
X185970000Y-115409419D02*
X187495570Y-116934989D01*
X188184773Y-106672233D02*
X185970000Y-108887006D01*
X185970000Y-108887006D02*
X185970000Y-115409419D01*
X180378044Y-99318495D02*
X180378044Y-100497029D01*
X178770000Y-97710451D02*
X180378044Y-99318495D01*
X181067247Y-89055739D02*
X178770000Y-91352986D01*
X178770000Y-91352986D02*
X178770000Y-97710451D01*
X178755739Y-89055739D02*
X181067247Y-89055739D01*
X173260519Y-82880536D02*
X173260519Y-83560519D01*
X173260519Y-83560519D02*
X178755739Y-89055739D01*
X173260519Y-81702002D02*
X173260519Y-82880536D01*
X171870000Y-80311483D02*
X173260519Y-81702002D01*
X173949722Y-71439246D02*
X171870000Y-73518968D01*
X171870000Y-73518968D02*
X171870000Y-80311483D01*
X166142994Y-64085509D02*
X166142994Y-65264043D01*
X164670000Y-62612515D02*
X166142994Y-64085509D01*
X166832197Y-53822753D02*
X164670000Y-55984950D01*
X164670000Y-55984950D02*
X164670000Y-62612515D01*
X125013099Y-58287649D02*
X124174217Y-59126531D01*
X125013099Y-56026901D02*
X125013099Y-58287649D01*
X132617776Y-51375115D02*
X129664885Y-51375115D01*
X129664885Y-51375115D02*
X125013099Y-56026901D01*
X117895573Y-75904143D02*
X117056691Y-76743025D01*
X117895573Y-73594427D02*
X117895573Y-75904143D01*
X123998155Y-68991609D02*
X122498391Y-68991609D01*
X122498391Y-68991609D02*
X117895573Y-73594427D01*
X103660523Y-111137129D02*
X102821641Y-111976011D01*
X103660523Y-109279477D02*
X103660523Y-111137129D01*
X111265200Y-104224595D02*
X108715405Y-104224595D01*
X108715405Y-104224595D02*
X103660523Y-109279477D01*
X96420000Y-120470000D02*
X96470000Y-120420000D01*
X92020000Y-120470000D02*
X96420000Y-120470000D01*
X200000670Y-94306688D02*
X206175873Y-100481891D01*
X198369144Y-94306688D02*
X200000670Y-94306688D01*
X204647788Y-111084299D02*
X205486670Y-111923181D01*
X204232900Y-110669411D02*
X204647788Y-111084299D01*
X204232900Y-102424864D02*
X204232900Y-110669411D01*
X206175873Y-100481891D02*
X204232900Y-102424864D01*
X185765619Y-59073702D02*
X191940822Y-65248905D01*
X184134094Y-59073702D02*
X185765619Y-59073702D01*
X84830541Y-109780541D02*
X84970000Y-109920000D01*
X84830541Y-105785670D02*
X84830541Y-109780541D01*
X209933489Y-116370000D02*
X205486670Y-111923181D01*
X211670000Y-116370000D02*
X209933489Y-116370000D01*
X92204766Y-99103588D02*
X89736412Y-99103588D01*
X93274100Y-98034254D02*
X92204766Y-99103588D01*
X89736412Y-99103588D02*
X87270000Y-101570000D01*
X85014871Y-105970000D02*
X84830541Y-105785670D01*
X87270000Y-101570000D02*
X87270000Y-104170000D01*
X87270000Y-104170000D02*
X85470000Y-105970000D01*
X85470000Y-105970000D02*
X85014871Y-105970000D01*
X92050058Y-89388918D02*
X92050058Y-88210384D01*
X91920000Y-89518976D02*
X92050058Y-89388918D01*
X91920000Y-92070000D02*
X91920000Y-89518976D01*
X90720000Y-93270000D02*
X91920000Y-92070000D01*
X93274100Y-98034254D02*
X90720000Y-95480154D01*
X90720000Y-95480154D02*
X90720000Y-93270000D01*
X159293706Y-142322945D02*
X158728021Y-142322945D01*
X182375457Y-142322945D02*
X159293706Y-142322945D01*
X185838755Y-138859647D02*
X182375457Y-142322945D01*
X213138765Y-138859647D02*
X185838755Y-138859647D01*
X158162336Y-142322945D02*
X158728021Y-142322945D01*
X151622945Y-142322945D02*
X158162336Y-142322945D01*
X98820000Y-137520000D02*
X107080965Y-145780965D01*
X107080965Y-145780965D02*
X143614885Y-145780965D01*
X98820000Y-135570000D02*
X98820000Y-137520000D01*
X143614885Y-145780965D02*
X147345904Y-142049946D01*
X147345904Y-142049946D02*
X151349946Y-142049946D01*
X151349946Y-142049946D02*
X151622945Y-142322945D01*
X191251619Y-75511661D02*
X191251619Y-76690195D01*
X190370000Y-74630042D02*
X191251619Y-75511661D01*
X191940822Y-65248905D02*
X190370000Y-66819727D01*
X190370000Y-66819727D02*
X190370000Y-74630042D01*
X184134094Y-57895168D02*
X184134094Y-59073702D01*
X183070000Y-56831074D02*
X184134094Y-57895168D01*
X184823297Y-47632412D02*
X183070000Y-49385709D01*
X183070000Y-49385709D02*
X183070000Y-56831074D01*
X196965398Y-82865398D02*
X199058347Y-82865398D01*
X191251619Y-76690195D02*
X191251619Y-77151619D01*
X191251619Y-77151619D02*
X196965398Y-82865398D01*
X198369144Y-93128154D02*
X198369144Y-94306688D01*
X197120000Y-91879010D02*
X198369144Y-93128154D01*
X199058347Y-82865398D02*
X197120000Y-84803745D01*
X197120000Y-84803745D02*
X197120000Y-91879010D01*
X106692505Y-52570000D02*
X106285108Y-52977397D01*
X107520000Y-52570000D02*
X106692505Y-52570000D01*
X109020000Y-51070000D02*
X107520000Y-52570000D01*
X109020000Y-48820000D02*
X109020000Y-51070000D01*
X114728667Y-45225981D02*
X112614019Y-45225981D01*
X112614019Y-45225981D02*
X109020000Y-48820000D01*
X99396110Y-70593890D02*
X99167583Y-70593890D01*
X101520000Y-68470000D02*
X99396110Y-70593890D01*
X101520000Y-66870000D02*
X101520000Y-68470000D01*
X107611142Y-62842474D02*
X105547526Y-62842474D01*
X105547526Y-62842474D02*
X101520000Y-66870000D01*
X106541808Y-61773140D02*
X107611142Y-62842474D01*
X105020000Y-60251332D02*
X106541808Y-61773140D01*
X105020000Y-58020000D02*
X105020000Y-60251332D01*
X106420000Y-56620000D02*
X105020000Y-58020000D01*
X106285108Y-52977397D02*
X106420000Y-53112289D01*
X106420000Y-53112289D02*
X106420000Y-56620000D01*
X99424283Y-79389634D02*
X100493617Y-80458968D01*
X97720000Y-77685351D02*
X99424283Y-79389634D01*
X97720000Y-75570000D02*
X97720000Y-77685351D01*
X99320000Y-73970000D02*
X97720000Y-75570000D01*
X99167583Y-70593890D02*
X99320000Y-70746307D01*
X99320000Y-70746307D02*
X99320000Y-73970000D01*
X92140442Y-88120000D02*
X92050058Y-88210384D01*
X92970000Y-88120000D02*
X92140442Y-88120000D01*
X94470000Y-86620000D02*
X92970000Y-88120000D01*
X94470000Y-84370000D02*
X94470000Y-86620000D01*
X100493617Y-80458968D02*
X98381032Y-80458968D01*
X98381032Y-80458968D02*
X94470000Y-84370000D01*
X180829955Y-150887887D02*
X180829955Y-155978103D01*
X180829955Y-155978103D02*
X180829955Y-157180184D01*
X172836510Y-146965990D02*
X176908058Y-146965990D01*
X171320000Y-148482500D02*
X172836510Y-146965990D01*
X176908058Y-146965990D02*
X180829955Y-150887887D01*
X171320000Y-148482500D02*
X169255930Y-146418430D01*
X149356907Y-146418430D02*
X148791222Y-146418430D01*
X169255930Y-146418430D02*
X149356907Y-146418430D01*
X179301345Y-150001345D02*
X179301345Y-153949569D01*
X174370000Y-147420000D02*
X176720000Y-147420000D01*
X179301345Y-153949569D02*
X179301345Y-155151650D01*
X176720000Y-147420000D02*
X179301345Y-150001345D01*
X173320000Y-148470000D02*
X174370000Y-147420000D01*
X150017661Y-147415990D02*
X149426885Y-147415990D01*
X152139670Y-149537999D02*
X150017661Y-147415990D01*
X149426885Y-147415990D02*
X148861200Y-147415990D01*
X172252001Y-149537999D02*
X152139670Y-149537999D01*
X173320000Y-148470000D02*
X172252001Y-149537999D01*
D29*
X173320000Y-150345000D02*
X173320000Y-151620000D01*
X173320000Y-151620000D02*
X173270000Y-151670000D01*
X173307500Y-150357500D02*
X173320000Y-150345000D01*
X171320000Y-150357500D02*
X173307500Y-150357500D01*
D30*
X140562500Y-123477400D02*
X140946500Y-123477400D01*
X139120000Y-122034900D02*
X140562500Y-123477400D01*
X139120000Y-106207900D02*
X139120000Y-122034900D01*
X140946500Y-103527400D02*
X140946500Y-104381400D01*
X140946500Y-104381400D02*
X139120000Y-106207900D01*
X140993900Y-103480000D02*
X140946500Y-103527400D01*
X145530000Y-103480000D02*
X140993900Y-103480000D01*
X131716000Y-133620000D02*
X124770000Y-133620000D01*
X132570000Y-133620000D02*
X131716000Y-133620000D01*
X135670000Y-133620000D02*
X132570000Y-133620000D01*
X139820000Y-129470000D02*
X135670000Y-133620000D01*
X139820000Y-124520000D02*
X139820000Y-129470000D01*
X140946500Y-123477400D02*
X140862600Y-123477400D01*
X140862600Y-123477400D02*
X139820000Y-124520000D01*
X142396600Y-117731300D02*
X141650500Y-118477400D01*
X142396600Y-109093600D02*
X142396600Y-117731300D01*
X145530000Y-108560000D02*
X142930200Y-108560000D01*
X142930200Y-108560000D02*
X142396600Y-109093600D01*
X140946500Y-118477400D02*
X141650500Y-118477400D01*
X141372600Y-125967400D02*
X140946500Y-125967400D01*
X142370000Y-124970000D02*
X141372600Y-125967400D01*
X141650500Y-118477400D02*
X142370000Y-119196900D01*
X142370000Y-119196900D02*
X142370000Y-124970000D01*
X122220000Y-133620000D02*
X114420000Y-133620000D01*
X140946500Y-125967400D02*
X141667400Y-125967400D01*
X141667400Y-125967400D02*
X142270000Y-126570000D01*
X122220000Y-134324000D02*
X122220000Y-133620000D01*
X123566000Y-135670000D02*
X122220000Y-134324000D01*
X142270000Y-135670000D02*
X123566000Y-135670000D01*
X116883641Y-139270000D02*
X109547270Y-139270000D01*
X109074545Y-133620000D02*
X106629091Y-133620000D01*
X109074545Y-138797275D02*
X109547270Y-139270000D01*
X109074545Y-133620000D02*
X109074545Y-138797275D01*
X119203685Y-140736044D02*
X157561977Y-140736044D01*
X116883641Y-139270000D02*
X117737641Y-139270000D01*
X158328022Y-139969999D02*
X158728021Y-139570000D01*
X157561977Y-140736044D02*
X158328022Y-139969999D01*
X117737641Y-139270000D02*
X119203685Y-140736044D01*
X104183637Y-133620000D02*
X96847275Y-133620000D01*
X104183637Y-133456363D02*
X104183637Y-133620000D01*
X119420000Y-138570000D02*
X118420000Y-137570000D01*
X119420000Y-139270000D02*
X119420000Y-138570000D01*
X118420000Y-137570000D02*
X115020000Y-137570000D01*
X115020000Y-137570000D02*
X109970000Y-132520000D01*
X109970000Y-132520000D02*
X105120000Y-132520000D01*
X105120000Y-132520000D02*
X104183637Y-133456363D01*
X119420000Y-139270000D02*
X120274000Y-139270000D01*
X158027306Y-136419999D02*
X158177305Y-136270000D01*
X158177305Y-136270000D02*
X158742990Y-136270000D01*
X123124001Y-136419999D02*
X158027306Y-136419999D01*
X120274000Y-139270000D02*
X123124001Y-136419999D01*
X165470000Y-119074000D02*
X165470000Y-125770000D01*
X165470000Y-118220000D02*
X165470000Y-119074000D01*
X165213600Y-118220000D02*
X165470000Y-118220000D01*
X164316800Y-117323200D02*
X165213600Y-118220000D01*
X164316800Y-104973200D02*
X164316800Y-117323200D01*
X165470000Y-103670000D02*
X165470000Y-103820000D01*
X165470000Y-103820000D02*
X164316800Y-104973200D01*
X165792500Y-130770000D02*
X165470000Y-130770000D01*
X166780600Y-129781900D02*
X165792500Y-130770000D01*
X166780600Y-126860900D02*
X166780600Y-129781900D01*
X165470000Y-125770000D02*
X165689700Y-125770000D01*
X165689700Y-125770000D02*
X166780600Y-126860900D01*
X162300000Y-98400000D02*
X160770000Y-98400000D01*
X163935800Y-100035800D02*
X162300000Y-98400000D01*
X163935800Y-102335800D02*
X163935800Y-100035800D01*
X165470000Y-103670000D02*
X165270000Y-103670000D01*
X165270000Y-103670000D02*
X163935800Y-102335800D01*
X165163900Y-133232500D02*
X165470000Y-133232500D01*
X164431100Y-132499700D02*
X165163900Y-133232500D01*
X164431100Y-129083400D02*
X164431100Y-132499700D01*
X165470000Y-128270000D02*
X165244500Y-128270000D01*
X165244500Y-128270000D02*
X164431100Y-129083400D01*
X165205200Y-128270000D02*
X165470000Y-128270000D01*
X163859600Y-126924400D02*
X165205200Y-128270000D01*
X160770000Y-100940000D02*
X163859600Y-104029600D01*
X163859600Y-104029600D02*
X163859600Y-126924400D01*
X184923690Y-132470000D02*
X177320000Y-132470000D01*
X185777690Y-132470000D02*
X184923690Y-132470000D01*
X165470000Y-133570000D02*
X165470000Y-133232500D01*
X166270000Y-134370000D02*
X165470000Y-133570000D01*
X176124000Y-134370000D02*
X166270000Y-134370000D01*
X177320000Y-132470000D02*
X177320000Y-133174000D01*
X177320000Y-133174000D02*
X176124000Y-134370000D01*
X140946500Y-106027400D02*
X140946500Y-115972952D01*
X140640600Y-120977400D02*
X140946500Y-120977400D01*
X139856600Y-120193400D02*
X140640600Y-120977400D01*
X139856600Y-116713600D02*
X139856600Y-120193400D01*
X140946500Y-115972952D02*
X140597248Y-115972952D01*
X140597248Y-115972952D02*
X139856600Y-116713600D01*
X140953900Y-106020000D02*
X140946500Y-106027400D01*
X145530000Y-106020000D02*
X140953900Y-106020000D01*
X137646500Y-115972952D02*
X136672952Y-115972952D01*
X136672952Y-115972952D02*
X136670000Y-115970000D01*
X137646500Y-113474064D02*
X136674064Y-113474064D01*
X136674064Y-113474064D02*
X136670000Y-113470000D01*
X137646500Y-110975176D02*
X136675176Y-110975176D01*
X136675176Y-110975176D02*
X136670000Y-110970000D01*
X137646500Y-108476288D02*
X136576288Y-108476288D01*
X136576288Y-108476288D02*
X136570000Y-108470000D01*
X124613506Y-54401119D02*
X119316274Y-59698351D01*
X124613506Y-51592492D02*
X124613506Y-54401119D01*
X137646500Y-120977400D02*
X136677400Y-120977400D01*
X136677400Y-120977400D02*
X136670000Y-120970000D01*
X138236308Y-64816560D02*
X137205383Y-65847485D01*
X141433281Y-61619587D02*
X138236308Y-64816560D01*
X141433281Y-58810960D02*
X141433281Y-61619587D01*
X142502615Y-57741626D02*
X141433281Y-58810960D01*
X137646500Y-106027400D02*
X136627400Y-106027400D01*
X136627400Y-106027400D02*
X136570000Y-105970000D01*
X136270000Y-66782868D02*
X137205383Y-65847485D01*
X136270000Y-67970000D02*
X136270000Y-66782868D01*
X119420000Y-142570000D02*
X119420000Y-143570000D01*
X180185598Y-59598317D02*
X180185598Y-61046485D01*
X180185598Y-54858239D02*
X180185598Y-59598317D01*
X178365305Y-53037946D02*
X180185598Y-54858239D01*
X178365305Y-51535851D02*
X178365305Y-53037946D01*
X168770000Y-101220000D02*
X169764700Y-101220000D01*
X169764700Y-101220000D02*
X170069900Y-100914800D01*
X161569999Y-96659999D02*
X160770000Y-95860000D01*
X165470000Y-100560000D02*
X161569999Y-96659999D01*
X165470000Y-101220000D02*
X165470000Y-100560000D01*
X165893400Y-106120000D02*
X165470000Y-106120000D01*
X166552000Y-105461400D02*
X165893400Y-106120000D01*
X166552000Y-101598000D02*
X166552000Y-105461400D01*
X165470000Y-101220000D02*
X166174000Y-101220000D01*
X166174000Y-101220000D02*
X166552000Y-101598000D01*
X165470000Y-106120000D02*
X165470000Y-115770000D01*
X126241593Y-155151026D02*
X126241593Y-155141593D01*
X121920000Y-142570000D02*
X121920000Y-143670000D01*
X168770000Y-115770000D02*
X169667300Y-115770000D01*
X169667300Y-115770000D02*
X169714300Y-115723000D01*
X198176698Y-53407976D02*
X198176698Y-54856144D01*
X196570000Y-51801278D02*
X198176698Y-53407976D01*
X196570000Y-47061200D02*
X196570000Y-51801278D01*
X196356405Y-45345510D02*
X196356405Y-46847605D01*
X196356405Y-46847605D02*
X196570000Y-47061200D01*
X195344999Y-53544999D02*
X194945000Y-53145000D01*
X198176698Y-54856144D02*
X196656144Y-54856144D01*
X196656144Y-54856144D02*
X195344999Y-53544999D01*
X168770000Y-113320000D02*
X169767800Y-113320000D01*
X169767800Y-113320000D02*
X169777800Y-113310000D01*
X168770000Y-110920000D02*
X169780200Y-110920000D01*
X169780200Y-110920000D02*
X169790500Y-110909700D01*
X168770000Y-108520000D02*
X169724900Y-108520000D01*
X169724900Y-108520000D02*
X169727000Y-108522100D01*
X168770000Y-106120000D02*
X169792300Y-106120000D01*
X169792300Y-106120000D02*
X169803200Y-106109100D01*
X197054610Y-129170000D02*
X197054610Y-128254610D01*
X197054610Y-128254610D02*
X196970000Y-128170000D01*
X194235380Y-129170000D02*
X194235380Y-128135380D01*
X194235380Y-128135380D02*
X194170000Y-128070000D01*
X191416150Y-129170000D02*
X191416150Y-128016150D01*
X191416150Y-128016150D02*
X191370000Y-127970000D01*
X188596920Y-129170000D02*
X188596920Y-127996920D01*
X188596920Y-127996920D02*
X188570000Y-127970000D01*
X205431530Y-132470000D02*
X202612300Y-132470000D01*
X210770000Y-132470000D02*
X205431530Y-132470000D01*
X160770000Y-106020000D02*
X162951580Y-108201580D01*
X162951580Y-108201580D02*
X162951580Y-134840182D01*
X121920000Y-138720000D02*
X121920000Y-139270000D01*
X123370000Y-137270000D02*
X121920000Y-138720000D01*
X162951580Y-134840182D02*
X160521762Y-137270000D01*
X160521762Y-137270000D02*
X123370000Y-137270000D01*
X201758300Y-132470000D02*
X202612300Y-132470000D01*
X198438695Y-135789605D02*
X201758300Y-132470000D01*
X186623383Y-135789605D02*
X198438695Y-135789605D01*
X181979075Y-140433913D02*
X186623383Y-135789605D01*
X168545311Y-140433913D02*
X181979075Y-140433913D01*
X162951580Y-134840182D02*
X168545311Y-140433913D01*
X199793070Y-132470000D02*
X188596920Y-132470000D01*
X164997000Y-135720000D02*
X165470000Y-135720000D01*
X163405590Y-134128590D02*
X164997000Y-135720000D01*
X160770000Y-103480000D02*
X163405590Y-106115590D01*
X163405590Y-106115590D02*
X163405590Y-134128590D01*
X166174000Y-135720000D02*
X165470000Y-135720000D01*
X187742920Y-132470000D02*
X180233018Y-139979902D01*
X170433902Y-139979902D02*
X166174000Y-135720000D01*
X188596920Y-132470000D02*
X187742920Y-132470000D01*
X180233018Y-139979902D02*
X170433902Y-139979902D01*
M02*
