G04 #@! TF.GenerationSoftware,KiCad,Pcbnew,(5.1.4)-1*
G04 #@! TF.CreationDate,2023-11-05T18:19:58-05:00*
G04 #@! TF.ProjectId,ThumbsUp,5468756d-6273-4557-902e-6b696361645f,rev?*
G04 #@! TF.SameCoordinates,Original*
G04 #@! TF.FileFunction,Profile,NP*
%FSLAX46Y46*%
G04 Gerber Fmt 4.6, Leading zero omitted, Abs format (unit mm)*
G04 Created by KiCad (PCBNEW (5.1.4)-1) date 2023-11-05 18:19:58*
%MOMM*%
%LPD*%
G04 APERTURE LIST*
%ADD10C,0.050000*%
G04 APERTURE END LIST*
D10*
X52989414Y-93022852D02*
X40565151Y-88003123D01*
X100839524Y-29847643D02*
X74467220Y-95121387D01*
X59498366Y-90259965D02*
X52989414Y-93022852D01*
X136920000Y-67120000D02*
X149530000Y-67120000D01*
X73127969Y-95766682D02*
X59498366Y-90259965D01*
X151730000Y-64920000D02*
X149530000Y-67120000D01*
X134723268Y-64920000D02*
X136920000Y-67120000D01*
X151730000Y-40920000D02*
X154930000Y-39120000D01*
X181838551Y-28245169D02*
X154930000Y-39120000D01*
X31438553Y-90571240D02*
X31138868Y-91312987D01*
X104614717Y-28245169D02*
X131523268Y-39120000D01*
X40565151Y-88003123D02*
X31438553Y-90571240D01*
X73127969Y-95766682D02*
X74467220Y-95121387D01*
X104614717Y-28245169D02*
X100839524Y-29847643D01*
X255014715Y-90571240D02*
X255314400Y-91312987D01*
X258723320Y-99750360D02*
X258060227Y-101312509D01*
X255314400Y-91312987D02*
X258723320Y-99750360D01*
X28393041Y-101312509D02*
X65943987Y-116484076D01*
X185613744Y-29847643D02*
X211986048Y-95121387D01*
X151730000Y-40920000D02*
X151730000Y-64920000D01*
X226954902Y-90259965D02*
X233463854Y-93022852D01*
X27729948Y-99750360D02*
X28393041Y-101312509D01*
X65943987Y-116484076D02*
X110191449Y-149784258D01*
X213325299Y-95766682D02*
X226954902Y-90259965D01*
X134723268Y-40920000D02*
X134723268Y-64920000D01*
X233463854Y-93022852D02*
X245888117Y-88003123D01*
X245888117Y-88003123D02*
X255014715Y-90571240D01*
X134723268Y-40920000D02*
X131523268Y-39120000D01*
X110191449Y-149784258D02*
X176261819Y-149784258D01*
X31138868Y-91312987D02*
X27729948Y-99750360D01*
X181838551Y-28245169D02*
X185613744Y-29847643D01*
X258060227Y-101312509D02*
X220509281Y-116484076D01*
X220509281Y-116484076D02*
X176261819Y-149784258D01*
X213325299Y-95766682D02*
X211986048Y-95121387D01*
M02*
