G04 #@! TF.GenerationSoftware,KiCad,Pcbnew,(5.1.4)-1*
G04 #@! TF.CreationDate,2023-10-04T21:41:16-04:00*
G04 #@! TF.ProjectId,ThumbsUp,5468756d-6273-4557-902e-6b696361645f,rev?*
G04 #@! TF.SameCoordinates,Original*
G04 #@! TF.FileFunction,Copper,L1,Top*
G04 #@! TF.FilePolarity,Positive*
%FSLAX46Y46*%
G04 Gerber Fmt 4.6, Leading zero omitted, Abs format (unit mm)*
G04 Created by KiCad (PCBNEW (5.1.4)-1) date 2023-10-04 21:41:16*
%MOMM*%
%LPD*%
G04 APERTURE LIST*
%ADD10C,1.700000*%
%ADD11C,1.700000*%
%ADD12C,0.100000*%
%ADD13C,3.000000*%
%ADD14R,1.600000X1.600000*%
%ADD15C,1.600000*%
%ADD16C,1.575000*%
%ADD17R,1.700000X1.700000*%
%ADD18O,1.700000X1.700000*%
%ADD19C,1.300000*%
%ADD20C,1.200000*%
%ADD21C,1.500000*%
%ADD22C,0.800000*%
%ADD23C,0.508000*%
%ADD24C,0.254000*%
G04 APERTURE END LIST*
D10*
X123184373Y-159208095D03*
D11*
X123184373Y-159208095D02*
X123184373Y-159208095D01*
D10*
X124712983Y-157179560D03*
D11*
X124712983Y-157179560D02*
X124712983Y-157179560D01*
D10*
X126241593Y-155151026D03*
D11*
X126241593Y-155151026D02*
X126241593Y-155151026D01*
D10*
X127770203Y-153122492D03*
D12*
G36*
X126579820Y-153289789D02*
G01*
X127602906Y-151932109D01*
X128960586Y-152955195D01*
X127937500Y-154312875D01*
X126579820Y-153289789D01*
X126579820Y-153289789D01*
G37*
D10*
X38865498Y-110735141D03*
D11*
X38865498Y-110735141D02*
X38865498Y-110735141D01*
D10*
X39816999Y-108380094D03*
D11*
X39816999Y-108380094D02*
X39816999Y-108380094D01*
D10*
X40768499Y-106025047D03*
D11*
X40768499Y-106025047D02*
X40768499Y-106025047D01*
D10*
X41720000Y-103670000D03*
D12*
G36*
X42826522Y-103200309D02*
G01*
X42189691Y-104776522D01*
X40613478Y-104139691D01*
X41250309Y-102563478D01*
X42826522Y-103200309D01*
X42826522Y-103200309D01*
G37*
D10*
X88184397Y-135534170D03*
D11*
X88184397Y-135534170D02*
X88184397Y-135534170D01*
D10*
X90212932Y-137062780D03*
D11*
X90212932Y-137062780D02*
X90212932Y-137062780D01*
D10*
X92241466Y-138591390D03*
D11*
X92241466Y-138591390D02*
X92241466Y-138591390D01*
D10*
X94270000Y-140120000D03*
D12*
G36*
X94102703Y-138929617D02*
G01*
X95460383Y-139952703D01*
X94437297Y-141310383D01*
X93079617Y-140287297D01*
X94102703Y-138929617D01*
X94102703Y-138929617D01*
G37*
D10*
X213138765Y-138859647D03*
D11*
X213138765Y-138859647D02*
X213138765Y-138859647D01*
D10*
X215167300Y-137331037D03*
D11*
X215167300Y-137331037D02*
X215167300Y-137331037D01*
D10*
X217195834Y-135802427D03*
D11*
X217195834Y-135802427D02*
X217195834Y-135802427D01*
D10*
X219224368Y-134273817D03*
D12*
G36*
X218033985Y-134106520D02*
G01*
X219391665Y-133083434D01*
X220414751Y-134441114D01*
X219057071Y-135464200D01*
X218033985Y-134106520D01*
X218033985Y-134106520D01*
G37*
D10*
X113170000Y-154370000D03*
D12*
G36*
X113002703Y-153179617D02*
G01*
X114360383Y-154202703D01*
X113337297Y-155560383D01*
X111979617Y-154537297D01*
X113002703Y-153179617D01*
X113002703Y-153179617D01*
G37*
D10*
X115198534Y-155898610D03*
D11*
X115198534Y-155898610D02*
X115198534Y-155898610D01*
D10*
X117227068Y-157427220D03*
D11*
X117227068Y-157427220D02*
X117227068Y-157427220D01*
D10*
X119255603Y-158955830D03*
D11*
X119255603Y-158955830D02*
X119255603Y-158955830D01*
D10*
X186084397Y-158955830D03*
D11*
X186084397Y-158955830D02*
X186084397Y-158955830D01*
D10*
X188112932Y-157427220D03*
D11*
X188112932Y-157427220D02*
X188112932Y-157427220D01*
D10*
X190141466Y-155898610D03*
D11*
X190141466Y-155898610D02*
X190141466Y-155898610D01*
D10*
X192170000Y-154370000D03*
D12*
G36*
X193360383Y-154537297D02*
G01*
X192002703Y-155560383D01*
X190979617Y-154202703D01*
X192337297Y-153179617D01*
X193360383Y-154537297D01*
X193360383Y-154537297D01*
G37*
D10*
X182358565Y-159208719D03*
D11*
X182358565Y-159208719D02*
X182358565Y-159208719D01*
D10*
X180829955Y-157180184D03*
D11*
X180829955Y-157180184D02*
X180829955Y-157180184D01*
D10*
X179301345Y-155151650D03*
D11*
X179301345Y-155151650D02*
X179301345Y-155151650D01*
D10*
X177772735Y-153123116D03*
D12*
G36*
X177605438Y-154313499D02*
G01*
X176582352Y-152955819D01*
X177940032Y-151932733D01*
X178963118Y-153290413D01*
X177605438Y-154313499D01*
X177605438Y-154313499D01*
G37*
D10*
X99176992Y-96573712D03*
D12*
G36*
X99646683Y-97680234D02*
G01*
X98070470Y-97043403D01*
X98707301Y-95467190D01*
X100283514Y-96104021D01*
X99646683Y-97680234D01*
X99646683Y-97680234D01*
G37*
D10*
X96821945Y-95622211D03*
D11*
X96821945Y-95622211D02*
X96821945Y-95622211D01*
D10*
X94466898Y-94670711D03*
D11*
X94466898Y-94670711D02*
X94466898Y-94670711D01*
D10*
X92111851Y-93719210D03*
D11*
X92111851Y-93719210D02*
X92111851Y-93719210D01*
D10*
X106294518Y-78957219D03*
D12*
G36*
X106764209Y-80063741D02*
G01*
X105187996Y-79426910D01*
X105824827Y-77850697D01*
X107401040Y-78487528D01*
X106764209Y-80063741D01*
X106764209Y-80063741D01*
G37*
D10*
X103939471Y-78005718D03*
D11*
X103939471Y-78005718D02*
X103939471Y-78005718D01*
D10*
X101584424Y-77054218D03*
D11*
X101584424Y-77054218D02*
X101584424Y-77054218D01*
D10*
X99229377Y-76102717D03*
D11*
X99229377Y-76102717D02*
X99229377Y-76102717D01*
D10*
X122383936Y-44473446D03*
D12*
G36*
X122853627Y-45579968D02*
G01*
X121277414Y-44943137D01*
X121914245Y-43366924D01*
X123490458Y-44003755D01*
X122853627Y-45579968D01*
X122853627Y-45579968D01*
G37*
D10*
X120028889Y-43521945D03*
D11*
X120028889Y-43521945D02*
X120028889Y-43521945D01*
D10*
X117673842Y-42570445D03*
D11*
X117673842Y-42570445D02*
X117673842Y-42570445D01*
D10*
X115318795Y-41618944D03*
D11*
X115318795Y-41618944D02*
X115318795Y-41618944D01*
D10*
X113412043Y-61340726D03*
D12*
G36*
X113881734Y-62447248D02*
G01*
X112305521Y-61810417D01*
X112942352Y-60234204D01*
X114518565Y-60871035D01*
X113881734Y-62447248D01*
X113881734Y-62447248D01*
G37*
D10*
X111056996Y-60389225D03*
D11*
X111056996Y-60389225D02*
X111056996Y-60389225D01*
D10*
X108701949Y-59437725D03*
D11*
X108701949Y-59437725D02*
X108701949Y-59437725D01*
D10*
X106346902Y-58486224D03*
D11*
X106346902Y-58486224D02*
X106346902Y-58486224D01*
D13*
X101557925Y-93507833D03*
X95295202Y-89521507D03*
X108675450Y-75891339D03*
X102412727Y-71905013D03*
X194653399Y-56279649D03*
X187379238Y-57762579D03*
X115792975Y-58274846D03*
X109530252Y-54288520D03*
X133682084Y-64423980D03*
X127419361Y-60437654D03*
X176662299Y-62469990D03*
X169388138Y-63952920D03*
X51987896Y-114464561D03*
X45725173Y-110478235D03*
X238866960Y-114992177D03*
X231592799Y-116475107D03*
X201770924Y-73896142D03*
X194496763Y-75379072D03*
X198014875Y-115319470D03*
X190740714Y-116802400D03*
X190897349Y-97702976D03*
X183623188Y-99185906D03*
X94338408Y-111083119D03*
X88075685Y-107096793D03*
X71477423Y-116946167D03*
X65214700Y-112959841D03*
X119447033Y-99656967D03*
X113184310Y-95670641D03*
X126564558Y-82040474D03*
X120301835Y-78054148D03*
X216005975Y-109129128D03*
X208731814Y-110612058D03*
X208888449Y-91512635D03*
X201614288Y-92995565D03*
X112329508Y-117273460D03*
X106066785Y-113287134D03*
X183779824Y-80086483D03*
X176505663Y-81569413D03*
X258356486Y-112510571D03*
X251082325Y-113993501D03*
D14*
X145530000Y-80620000D03*
D15*
X145530000Y-83160000D03*
X145530000Y-85700000D03*
X145530000Y-88240000D03*
X145530000Y-90780000D03*
X145530000Y-93320000D03*
X145530000Y-95860000D03*
X145530000Y-98400000D03*
X145530000Y-100940000D03*
X145530000Y-103480000D03*
X145530000Y-106020000D03*
X145530000Y-108560000D03*
X160770000Y-108560000D03*
X160770000Y-106020000D03*
X160770000Y-103480000D03*
X160770000Y-100940000D03*
X160770000Y-98400000D03*
X160770000Y-95860000D03*
X160770000Y-93320000D03*
X160770000Y-90780000D03*
X160770000Y-88240000D03*
X160770000Y-85700000D03*
X160770000Y-83160000D03*
X160770000Y-80620000D03*
D16*
X160570000Y-159320000D03*
X160570000Y-154820000D03*
X167070000Y-159320000D03*
X167070000Y-154820000D03*
X163820000Y-152570000D03*
D10*
X206375872Y-96572287D03*
D12*
G36*
X205269350Y-96102596D02*
G01*
X206845563Y-95465765D01*
X207482394Y-97041978D01*
X205906181Y-97678809D01*
X205269350Y-96102596D01*
X205269350Y-96102596D01*
G37*
D10*
X208730919Y-95620786D03*
D11*
X208730919Y-95620786D02*
X208730919Y-95620786D01*
D10*
X211085966Y-94669286D03*
D11*
X211085966Y-94669286D02*
X211085966Y-94669286D01*
D10*
X213441013Y-93717785D03*
D11*
X213441013Y-93717785D02*
X213441013Y-93717785D01*
D10*
X183168929Y-44472021D03*
D12*
G36*
X182062407Y-44002330D02*
G01*
X183638620Y-43365499D01*
X184275451Y-44941712D01*
X182699238Y-45578543D01*
X182062407Y-44002330D01*
X182062407Y-44002330D01*
G37*
D10*
X185523976Y-43520520D03*
D11*
X185523976Y-43520520D02*
X185523976Y-43520520D01*
D10*
X187879023Y-42569020D03*
D11*
X187879023Y-42569020D02*
X187879023Y-42569020D01*
D10*
X190234070Y-41617519D03*
D11*
X190234070Y-41617519D02*
X190234070Y-41617519D01*
D17*
X152770000Y-84620000D03*
D18*
X152770000Y-87160000D03*
X152770000Y-89700000D03*
X152770000Y-92240000D03*
D17*
X151770000Y-115620000D03*
D18*
X154310000Y-115620000D03*
D10*
X266608453Y-110524728D03*
D12*
G36*
X266138762Y-111631250D02*
G01*
X265501931Y-110055037D01*
X267078144Y-109418206D01*
X267714975Y-110994419D01*
X266138762Y-111631250D01*
X266138762Y-111631250D01*
G37*
D10*
X265656952Y-108169681D03*
D11*
X265656952Y-108169681D02*
X265656952Y-108169681D01*
D10*
X264705452Y-105814634D03*
D11*
X264705452Y-105814634D02*
X264705452Y-105814634D01*
D10*
X263753951Y-103459587D03*
D11*
X263753951Y-103459587D02*
X263753951Y-103459587D01*
D19*
X145020000Y-155970000D03*
X147020000Y-155970000D03*
D20*
X149020000Y-155970000D03*
D21*
X143020000Y-155970000D03*
X151020000Y-155970000D03*
D10*
X192140822Y-61339301D03*
D12*
G36*
X191034300Y-60869610D02*
G01*
X192610513Y-60232779D01*
X193247344Y-61808992D01*
X191671131Y-62445823D01*
X191034300Y-60869610D01*
X191034300Y-60869610D01*
G37*
D10*
X194495869Y-60387800D03*
D11*
X194495869Y-60387800D02*
X194495869Y-60387800D01*
D10*
X196850916Y-59436300D03*
D11*
X196850916Y-59436300D02*
X196850916Y-59436300D01*
D10*
X199205963Y-58484799D03*
D11*
X199205963Y-58484799D02*
X199205963Y-58484799D01*
D10*
X199258347Y-78955794D03*
D12*
G36*
X198151825Y-78486103D02*
G01*
X199728038Y-77849272D01*
X200364869Y-79425485D01*
X198788656Y-80062316D01*
X198151825Y-78486103D01*
X198151825Y-78486103D01*
G37*
D10*
X201613394Y-78004293D03*
D11*
X201613394Y-78004293D02*
X201613394Y-78004293D01*
D10*
X203968441Y-77052793D03*
D11*
X203968441Y-77052793D02*
X203968441Y-77052793D01*
D10*
X206323488Y-76101292D03*
D11*
X206323488Y-76101292D02*
X206323488Y-76101292D01*
D22*
X154310000Y-152530002D03*
X154310000Y-138530002D03*
X124770000Y-129070000D03*
X127370000Y-129170000D03*
X129870000Y-129270000D03*
X132570000Y-129270000D03*
X114270000Y-129070000D03*
X116970000Y-129270000D03*
X119670000Y-129170000D03*
X122170000Y-129170000D03*
X116920000Y-143520000D03*
X114420000Y-143570000D03*
X111970000Y-143470000D03*
X109547270Y-143274000D03*
X136670000Y-123420000D03*
X116470000Y-73269996D03*
X96820000Y-129370000D03*
X99370000Y-129270000D03*
X136570000Y-103470000D03*
X136140056Y-79236081D03*
X136670000Y-118470000D03*
X132720000Y-91320002D03*
X169955600Y-103670700D03*
X184357400Y-67107400D03*
X169803200Y-128245200D03*
X191370000Y-80370000D03*
X169820000Y-135720000D03*
X198920000Y-111820000D03*
X169870000Y-130770000D03*
X202570000Y-70170000D03*
X169770000Y-133270000D03*
X208570000Y-78870000D03*
X199870000Y-128070000D03*
X216870000Y-105170000D03*
X217220000Y-134220000D03*
X217170000Y-126570000D03*
X215170000Y-135420000D03*
X215170000Y-127320000D03*
X170044500Y-125832200D03*
X169752400Y-123266800D03*
X169790500Y-120739500D03*
X169714300Y-118186800D03*
X185370000Y-127670000D03*
X182970000Y-128170000D03*
X180170000Y-128070000D03*
X177270000Y-128070000D03*
X202570000Y-127770000D03*
X242390259Y-107990259D03*
X205470000Y-127870000D03*
X261879785Y-108479785D03*
X139267226Y-69875546D03*
X62970000Y-117270000D03*
X62220000Y-114720000D03*
X150487863Y-142776956D03*
X192296920Y-136516607D03*
X139142998Y-72319647D03*
X190270000Y-136520000D03*
X149888361Y-143577345D03*
X139120000Y-71270000D03*
X146120000Y-151670000D03*
X147989524Y-144304355D03*
X137952931Y-71350187D03*
X146920000Y-145070000D03*
X123570000Y-68270000D03*
X115720000Y-80870000D03*
X116220000Y-85870000D03*
X108370000Y-97520000D03*
X108919999Y-101970000D03*
X102120000Y-115320000D03*
X219120000Y-125170000D03*
X146372876Y-141947010D03*
X123620000Y-61170000D03*
X92020000Y-120470000D03*
X96470000Y-120420000D03*
X84970000Y-109920000D03*
X211670000Y-116370000D03*
X98820000Y-135570000D03*
X158728021Y-142322945D03*
X148791222Y-146418430D03*
X148861200Y-147415990D03*
X173270000Y-151670000D03*
X142270000Y-126570000D03*
X142270000Y-135670000D03*
X158728021Y-139570000D03*
X158742990Y-136270000D03*
X136670000Y-115970000D03*
X136670000Y-113470000D03*
X136670000Y-110970000D03*
X136570000Y-108470000D03*
X136670000Y-120970000D03*
X124443000Y-54507313D03*
X136570000Y-105970000D03*
X136270000Y-67970000D03*
X119420000Y-143570000D03*
X170069900Y-100914800D03*
X180185598Y-54858239D03*
X121920000Y-143670000D03*
X169714300Y-115723000D03*
X194945000Y-53145000D03*
X169777800Y-113310000D03*
X169790500Y-110909700D03*
X169727000Y-108522100D03*
X169803200Y-106109100D03*
X196970000Y-128170000D03*
X194170000Y-128070000D03*
X191370000Y-127970000D03*
X188570000Y-127970000D03*
D23*
X166070000Y-154820000D02*
X163820000Y-152570000D01*
X167070000Y-154820000D02*
X166070000Y-154820000D01*
X161570000Y-154820000D02*
X163820000Y-152570000D01*
X160570000Y-154820000D02*
X161570000Y-154820000D01*
X181156484Y-159208719D02*
X182358565Y-159208719D01*
X172572412Y-159208719D02*
X181156484Y-159208719D01*
X168183693Y-154820000D02*
X172572412Y-159208719D01*
X167070000Y-154820000D02*
X168183693Y-154820000D01*
X154310000Y-93780000D02*
X152770000Y-92240000D01*
X154310000Y-115620000D02*
X154310000Y-93780000D01*
X154310000Y-115620000D02*
X154310000Y-116822081D01*
X154310000Y-116822081D02*
X154310000Y-152530002D01*
D24*
X130320000Y-112942023D02*
X130320000Y-93620006D01*
X124770000Y-129070000D02*
X130336041Y-123503959D01*
X130336041Y-123503959D02*
X130336040Y-112958063D01*
X107311272Y-78957219D02*
X106294518Y-78957219D01*
X115657213Y-78957219D02*
X107311272Y-78957219D01*
X130320000Y-93620006D02*
X115657213Y-78957219D01*
X130336040Y-112958063D02*
X130320000Y-112942023D01*
X104170000Y-77775189D02*
X103939471Y-78005718D01*
X104170000Y-77120000D02*
X104170000Y-77775189D01*
X111112066Y-73770001D02*
X107519999Y-73770001D01*
X130790051Y-125749949D02*
X130790050Y-112770005D01*
X127370000Y-129170000D02*
X130790051Y-125749949D01*
X107519999Y-73770001D02*
X104170000Y-77120000D01*
X130790050Y-112770005D02*
X130774011Y-112753966D01*
X130774011Y-112753966D02*
X130774010Y-93431948D01*
X130774010Y-93431948D02*
X129776954Y-92434892D01*
X129776954Y-92434892D02*
X111112066Y-73770001D01*
X131228020Y-93243890D02*
X130378020Y-92393890D01*
X105381942Y-73315990D02*
X102493713Y-76204219D01*
X102493713Y-76204219D02*
X102434423Y-76204219D01*
X102434423Y-76204219D02*
X101584424Y-77054218D01*
X111300123Y-73315990D02*
X105381942Y-73315990D01*
X131228020Y-112565907D02*
X131228020Y-93243890D01*
X131244060Y-112581947D02*
X131228020Y-112565907D01*
X130378020Y-92393890D02*
X111300123Y-73315990D01*
X131244061Y-127895939D02*
X131244060Y-112581947D01*
X129870000Y-129270000D02*
X131244061Y-127895939D01*
X130832030Y-92205832D02*
X111488180Y-72861979D01*
X132570000Y-129270000D02*
X131698071Y-128398071D01*
X111488180Y-72861979D02*
X105193884Y-72861980D01*
X131682030Y-93055832D02*
X130832030Y-92205832D01*
X105193884Y-72861980D02*
X103991526Y-74064338D01*
X131698071Y-128398071D02*
X131698070Y-112393889D01*
X103991526Y-74064338D02*
X101267756Y-74064338D01*
X101267756Y-74064338D02*
X100079376Y-75252718D01*
X100079376Y-75252718D02*
X99229377Y-76102717D01*
X131698070Y-112393889D02*
X131682031Y-112377850D01*
X131682031Y-112377850D02*
X131682030Y-93055832D01*
X99900649Y-97297369D02*
X99176992Y-96573712D01*
X105673280Y-103070000D02*
X99900649Y-97297369D01*
X117879705Y-103070000D02*
X105673280Y-103070000D01*
X128520000Y-113710295D02*
X117879705Y-103070000D01*
X128520000Y-114820000D02*
X128520000Y-113710295D01*
X114270000Y-129070000D02*
X128520000Y-114820000D01*
X96821945Y-94420130D02*
X96821945Y-95622211D01*
X98520000Y-91420000D02*
X96821945Y-93118055D01*
X114815989Y-102615989D02*
X103620000Y-91420000D01*
X118067762Y-102615989D02*
X114815989Y-102615989D01*
X96821945Y-93118055D02*
X96821945Y-94420130D01*
X128974010Y-113522237D02*
X118067762Y-102615989D01*
X103620000Y-91420000D02*
X98520000Y-91420000D01*
X116970000Y-129270000D02*
X128974010Y-117265990D01*
X128974010Y-117265990D02*
X128974010Y-113522237D01*
X98171620Y-90965989D02*
X95316897Y-93820712D01*
X115004045Y-102161977D02*
X103808057Y-90965989D01*
X103808057Y-90965989D02*
X98171620Y-90965989D01*
X129428020Y-119411980D02*
X129428020Y-113334179D01*
X95316897Y-93820712D02*
X94466898Y-94670711D01*
X118255819Y-102161978D02*
X115004045Y-102161977D01*
X129428020Y-113334179D02*
X118255819Y-102161978D01*
X119670000Y-129170000D02*
X129428020Y-119411980D01*
X129882030Y-121457970D02*
X129882030Y-113146121D01*
X95570789Y-92869211D02*
X92961850Y-92869211D01*
X129882030Y-113146121D02*
X118443876Y-101707967D01*
X118443876Y-101707967D02*
X115192103Y-101707967D01*
X115192103Y-101707967D02*
X103996113Y-90511979D01*
X97928021Y-90511979D02*
X95570789Y-92869211D01*
X103996113Y-90511979D02*
X97928021Y-90511979D01*
X92961850Y-92869211D02*
X92111851Y-93719210D01*
X122170000Y-129170000D02*
X129882030Y-121457970D01*
X119255603Y-157753749D02*
X119255603Y-158955830D01*
X119255603Y-152364246D02*
X119255603Y-157753749D01*
X116920000Y-150028643D02*
X119255603Y-152364246D01*
X116920000Y-143520000D02*
X116920000Y-150028643D01*
X117227068Y-156225139D02*
X117227068Y-157427220D01*
X117227068Y-150977777D02*
X117227068Y-156225139D01*
X114420000Y-148170709D02*
X117227068Y-150977777D01*
X114420000Y-143570000D02*
X114420000Y-148170709D01*
X115198534Y-154696529D02*
X115198534Y-155898610D01*
X115198534Y-149591309D02*
X115198534Y-154696529D01*
X111970000Y-146362775D02*
X115198534Y-149591309D01*
X111970000Y-143470000D02*
X111970000Y-146362775D01*
X113170000Y-148420000D02*
X113170000Y-154370000D01*
X109547270Y-143274000D02*
X109547270Y-144797270D01*
X109547270Y-144797270D02*
X113170000Y-148420000D01*
X132152080Y-112205831D02*
X132136040Y-112189791D01*
X116470000Y-77201731D02*
X116470000Y-73835681D01*
X132136040Y-92867774D02*
X131138987Y-91870719D01*
X131138987Y-91870719D02*
X116470000Y-77201731D01*
X116470000Y-73835681D02*
X116470000Y-73269996D01*
X132136040Y-112189791D02*
X132136040Y-92867774D01*
X136670000Y-123420000D02*
X132152080Y-118902080D01*
X132152080Y-118902080D02*
X132152080Y-112205831D01*
X92241466Y-132248534D02*
X92241466Y-138591390D01*
X96820000Y-129370000D02*
X95120000Y-129370000D01*
X95120000Y-129370000D02*
X92241466Y-132248534D01*
X90212932Y-133577068D02*
X90212932Y-137062780D01*
X95420000Y-128370000D02*
X90212932Y-133577068D01*
X99370000Y-129270000D02*
X98470000Y-128370000D01*
X98470000Y-128370000D02*
X95420000Y-128370000D01*
X136570000Y-79666025D02*
X136540055Y-79636080D01*
X136540055Y-79636080D02*
X136140056Y-79236081D01*
X136570000Y-103470000D02*
X136570000Y-79666025D01*
X133060100Y-114860100D02*
X133060100Y-111829715D01*
X133060100Y-111829715D02*
X133044062Y-111813677D01*
X136670000Y-118470000D02*
X133060100Y-114860100D01*
X132720000Y-91885687D02*
X132720000Y-91320002D01*
X133044062Y-111813677D02*
X133044062Y-92209749D01*
X133044062Y-92209749D02*
X132720000Y-91885687D01*
X169955600Y-103670700D02*
X171174010Y-102452290D01*
X171174010Y-68708058D02*
X172774668Y-67107400D01*
X171174010Y-102452290D02*
X171174010Y-68708058D01*
X172774668Y-67107400D02*
X183791715Y-67107400D01*
X183791715Y-67107400D02*
X184357400Y-67107400D01*
X190970001Y-80880339D02*
X190970001Y-80769999D01*
X175907969Y-122140431D02*
X175907975Y-112739665D01*
X175907975Y-112739665D02*
X175907976Y-91210636D01*
X175907976Y-91210636D02*
X182678561Y-84440051D01*
X190970001Y-80769999D02*
X191370000Y-80370000D01*
X182678561Y-84440051D02*
X187410290Y-84440050D01*
X187410290Y-84440050D02*
X190970001Y-80880339D01*
X169803200Y-128245200D02*
X175907969Y-122140431D01*
X198620000Y-111820000D02*
X198920000Y-111820000D01*
X186870000Y-123570000D02*
X198620000Y-111820000D01*
X186870000Y-129070000D02*
X186870000Y-123570000D01*
X169820000Y-135720000D02*
X180220000Y-135720000D01*
X180220000Y-135720000D02*
X186870000Y-129070000D01*
X199270000Y-73070000D02*
X202170000Y-70170000D01*
X202170000Y-70170000D02*
X202570000Y-70170000D01*
X199270000Y-74370000D02*
X199270000Y-73070000D01*
X190430430Y-82061978D02*
X191578022Y-82061978D01*
X176361979Y-124278021D02*
X176361986Y-112927722D01*
X176361986Y-112927722D02*
X176361986Y-91398694D01*
X169870000Y-130770000D02*
X176361979Y-124278021D01*
X176361986Y-91398694D02*
X182866622Y-84894058D01*
X191578022Y-82061978D02*
X199270000Y-74370000D01*
X182866622Y-84894058D02*
X187598350Y-84894058D01*
X187598350Y-84894058D02*
X190430430Y-82061978D01*
X207570000Y-77870000D02*
X208570000Y-78870000D01*
X207570000Y-75520000D02*
X207570000Y-77870000D01*
X202570000Y-76170000D02*
X204170000Y-74570000D01*
X199270000Y-76170000D02*
X202570000Y-76170000D01*
X204170000Y-74570000D02*
X206620000Y-74570000D01*
X190618487Y-82515989D02*
X192924011Y-82515989D01*
X176815989Y-126224011D02*
X176815997Y-113115779D01*
X192924011Y-82515989D02*
X199270000Y-76170000D01*
X169770000Y-133270000D02*
X176815989Y-126224011D01*
X176815997Y-113115779D02*
X176815998Y-91586750D01*
X176815998Y-91586750D02*
X183054679Y-85348069D01*
X183054679Y-85348069D02*
X187786407Y-85348069D01*
X206620000Y-74570000D02*
X207570000Y-75520000D01*
X187786407Y-85348069D02*
X190618487Y-82515989D01*
X216470001Y-105569999D02*
X216870000Y-105170000D01*
X216470001Y-105885863D02*
X216470001Y-105569999D01*
X199870000Y-128070000D02*
X199870000Y-122485864D01*
X199870000Y-122485864D02*
X216470001Y-105885863D01*
X217220000Y-134220000D02*
X217220000Y-126620000D01*
X217220000Y-126620000D02*
X217170000Y-126570000D01*
X215170000Y-135420000D02*
X215170000Y-127320000D01*
X199170000Y-58520762D02*
X199205963Y-58484799D01*
X199170000Y-61170000D02*
X199170000Y-58520762D01*
X198124011Y-64708057D02*
X198124011Y-62215989D01*
X196308058Y-66524010D02*
X198124011Y-64708057D01*
X193367955Y-66524011D02*
X196308058Y-66524010D01*
X189367522Y-70524444D02*
X193367955Y-66524011D01*
X198124011Y-62215989D02*
X199170000Y-61170000D01*
X175453959Y-120422741D02*
X175453964Y-112551608D01*
X170044500Y-125832200D02*
X175453959Y-120422741D01*
X175453964Y-112551608D02*
X175453966Y-91022578D01*
X175453966Y-91022578D02*
X182490504Y-83986040D01*
X189367522Y-81840750D02*
X189367522Y-70524444D01*
X182490504Y-83986040D02*
X187222232Y-83986040D01*
X187222232Y-83986040D02*
X189367522Y-81840750D01*
X196850916Y-61800916D02*
X196850916Y-59436300D01*
X197670000Y-62620000D02*
X196850916Y-61800916D01*
X197670000Y-64520000D02*
X197670000Y-62620000D01*
X196120000Y-66070000D02*
X197670000Y-64520000D01*
X193179898Y-66070000D02*
X196120000Y-66070000D01*
X188913511Y-81652693D02*
X188913511Y-70336387D01*
X187034174Y-83532030D02*
X188913511Y-81652693D01*
X182302445Y-83532031D02*
X187034174Y-83532030D01*
X188913511Y-70336387D02*
X193179898Y-66070000D01*
X174999953Y-90834523D02*
X182302445Y-83532031D01*
X169752400Y-123266800D02*
X174999949Y-118019251D01*
X174999949Y-118019251D02*
X174999953Y-112363551D01*
X174999953Y-112363551D02*
X174999953Y-90834523D01*
X188459499Y-67626251D02*
X194495869Y-61589881D01*
X174545942Y-112175494D02*
X174545943Y-90646465D01*
X194495869Y-61589881D02*
X194495869Y-60387800D01*
X188459499Y-81464637D02*
X188459499Y-67626251D01*
X186846116Y-83078020D02*
X188459499Y-81464637D01*
X182114388Y-83078020D02*
X186846116Y-83078020D01*
X174545943Y-90646465D02*
X182114388Y-83078020D01*
X174545939Y-115984061D02*
X174545942Y-112175494D01*
X169790500Y-120739500D02*
X174545939Y-115984061D01*
X174091931Y-111987437D02*
X174091931Y-90458409D01*
X191417165Y-62062958D02*
X192140822Y-61339301D01*
X186658058Y-82624010D02*
X187938800Y-81343268D01*
X181926329Y-82624011D02*
X186658058Y-82624010D01*
X174091931Y-90458409D02*
X181926329Y-82624011D01*
X174091929Y-113809171D02*
X174091931Y-111987437D01*
X169714300Y-118186800D02*
X174091929Y-113809171D01*
X187938800Y-65541323D02*
X191417165Y-62062958D01*
X187938800Y-81343268D02*
X187938800Y-65541323D01*
X206323488Y-77303373D02*
X206323488Y-76101292D01*
X205070000Y-79270000D02*
X206323488Y-78016512D01*
X205070000Y-82412068D02*
X205070000Y-79270000D01*
X201458057Y-84224011D02*
X203258058Y-84224010D01*
X206323488Y-78016512D02*
X206323488Y-77303373D01*
X188378021Y-97304047D02*
X201458057Y-84224011D01*
X178670000Y-120970000D02*
X178670000Y-108754135D01*
X185370000Y-127670000D02*
X178670000Y-120970000D01*
X178670000Y-108754135D02*
X188378021Y-99046114D01*
X203258058Y-84224010D02*
X205070000Y-82412068D01*
X188378021Y-99046114D02*
X188378021Y-97304047D01*
X203968441Y-78668441D02*
X203968441Y-78254874D01*
X201270000Y-83770000D02*
X203070000Y-83770000D01*
X187924011Y-97115989D02*
X201270000Y-83770000D01*
X187924010Y-98858057D02*
X187924011Y-97115989D01*
X204570000Y-82270000D02*
X204570000Y-79270000D01*
X182970000Y-128070000D02*
X178178028Y-123278028D01*
X203070000Y-83770000D02*
X204570000Y-82270000D01*
X182970000Y-128170000D02*
X182970000Y-128070000D01*
X204570000Y-79270000D02*
X203968441Y-78668441D01*
X178178028Y-123278028D02*
X178178028Y-106504038D01*
X178178028Y-106504038D02*
X182858056Y-101824010D01*
X182858056Y-101824010D02*
X184958057Y-101824010D01*
X203968441Y-78254874D02*
X203968441Y-77052793D01*
X184958057Y-101824010D02*
X187924010Y-98858057D01*
X199570000Y-81120000D02*
X201613394Y-79076606D01*
X199570000Y-84827932D02*
X199570000Y-81120000D01*
X187470000Y-96927932D02*
X199570000Y-84827932D01*
X177724018Y-125624018D02*
X177724018Y-106315980D01*
X180170000Y-128070000D02*
X177724018Y-125624018D01*
X177724018Y-106315980D02*
X182669999Y-101369999D01*
X182669999Y-101369999D02*
X184770000Y-101369999D01*
X201613394Y-79076606D02*
X201613394Y-78004293D01*
X184770000Y-101369999D02*
X187469999Y-98670000D01*
X187469999Y-98670000D02*
X187470000Y-96927932D01*
X195244141Y-82970000D02*
X198534690Y-79679451D01*
X187974464Y-85802080D02*
X190806544Y-82970000D01*
X183242736Y-85802080D02*
X187974464Y-85802080D01*
X177270008Y-91774808D02*
X183242736Y-85802080D01*
X177270008Y-113303836D02*
X177270008Y-91774808D01*
X177270000Y-124726524D02*
X177270008Y-113303836D01*
X198534690Y-79679451D02*
X199258347Y-78955794D01*
X177270000Y-128070000D02*
X177270000Y-124726524D01*
X190806544Y-82970000D02*
X195244141Y-82970000D01*
X202570000Y-120427932D02*
X208882717Y-114115215D01*
X202570000Y-127770000D02*
X202570000Y-120427932D01*
X238631943Y-111365989D02*
X240574011Y-111365989D01*
X242390259Y-108555944D02*
X242390259Y-107990259D01*
X208882717Y-114115215D02*
X235882717Y-114115215D01*
X240574011Y-111365989D02*
X242390259Y-109549741D01*
X235882717Y-114115215D02*
X238631943Y-111365989D01*
X242390259Y-109549741D02*
X242390259Y-108555944D01*
X258670000Y-108470000D02*
X261870000Y-108470000D01*
X205470000Y-118170000D02*
X209070774Y-114569226D01*
X261870000Y-108470000D02*
X261879785Y-108479785D01*
X255320000Y-111820000D02*
X258670000Y-108470000D01*
X236070774Y-114569226D02*
X238820000Y-111820000D01*
X238820000Y-111820000D02*
X255320000Y-111820000D01*
X209070774Y-114569226D02*
X236070774Y-114569226D01*
X205470000Y-127870000D02*
X205470000Y-118170000D01*
X139667225Y-70275545D02*
X139267226Y-69875546D01*
X139947002Y-70555322D02*
X139667225Y-70275545D01*
X139947002Y-76897002D02*
X139947002Y-70555322D01*
X145530000Y-80620000D02*
X143670000Y-80620000D01*
X143670000Y-80620000D02*
X139947002Y-76897002D01*
X62570001Y-116870001D02*
X62570001Y-114970001D01*
X62970000Y-117270000D02*
X62570001Y-116870001D01*
X62570001Y-114970001D02*
X62470001Y-114970001D01*
X62470001Y-114970001D02*
X62220000Y-114720000D01*
X150487863Y-142211271D02*
X150487863Y-142776956D01*
X150487863Y-84523863D02*
X150487863Y-142211271D01*
X146584000Y-80620000D02*
X150487863Y-84523863D01*
X145530000Y-80620000D02*
X146584000Y-80620000D01*
X192170000Y-154370000D02*
X192170000Y-136643527D01*
X192170000Y-136643527D02*
X192296920Y-136516607D01*
X145530000Y-83160000D02*
X139142998Y-76772998D01*
X139142998Y-72885332D02*
X139142998Y-72319647D01*
X139142998Y-76772998D02*
X139142998Y-72885332D01*
X190141466Y-136648534D02*
X190270000Y-136520000D01*
X190141466Y-155898610D02*
X190141466Y-136648534D01*
X145530000Y-83160000D02*
X149665989Y-87295989D01*
X149665989Y-87295989D02*
X149665989Y-143354973D01*
X149665989Y-143354973D02*
X149888361Y-143577345D01*
X138415989Y-71974011D02*
X138720001Y-71669999D01*
X138720001Y-71669999D02*
X139120000Y-71270000D01*
X138415989Y-88745989D02*
X138415989Y-71974011D01*
X145530000Y-95860000D02*
X138415989Y-88745989D01*
X147989524Y-143738670D02*
X147989524Y-144304355D01*
X148003960Y-143724234D02*
X147989524Y-143738670D01*
X147989524Y-149800476D02*
X147989524Y-144870040D01*
X148003960Y-98333960D02*
X148003960Y-143724234D01*
X146120000Y-151670000D02*
X147989524Y-149800476D01*
X145530000Y-95860000D02*
X148003960Y-98333960D01*
X147989524Y-144870040D02*
X147989524Y-144304355D01*
X137952931Y-90822931D02*
X137952931Y-71915872D01*
X137952931Y-71915872D02*
X137952931Y-71350187D01*
X145530000Y-98400000D02*
X137952931Y-90822931D01*
X145530000Y-98400000D02*
X147549949Y-100419949D01*
X146920000Y-142425850D02*
X146920000Y-144504315D01*
X146920000Y-144504315D02*
X146920000Y-145070000D01*
X147549949Y-100419949D02*
X147549949Y-141795901D01*
X147549949Y-141795901D02*
X146920000Y-142425850D01*
X115720000Y-80870000D02*
X115720000Y-85370000D01*
X115720000Y-85370000D02*
X116220000Y-85870000D01*
X108370000Y-97520000D02*
X108370000Y-101420001D01*
X108370000Y-101420001D02*
X108520000Y-101570001D01*
X108520000Y-101570001D02*
X108919999Y-101970000D01*
X218060053Y-134273817D02*
X219224368Y-134273817D01*
X219224368Y-134273817D02*
X219224368Y-125274368D01*
X219224368Y-125274368D02*
X219120000Y-125170000D01*
X147070000Y-141249886D02*
X146372876Y-141947010D01*
X145530000Y-100940000D02*
X147070000Y-102480000D01*
X147070000Y-102480000D02*
X147070000Y-141249886D01*
X123570000Y-61220000D02*
X123620000Y-61170000D01*
X123570000Y-68270000D02*
X123570000Y-61220000D01*
X88184397Y-135534170D02*
X88184397Y-124305603D01*
X88184397Y-124305603D02*
X91620001Y-120869999D01*
X91620001Y-120869999D02*
X92020000Y-120470000D01*
X97020000Y-120420000D02*
X96470000Y-120420000D01*
X102120000Y-115320000D02*
X97020000Y-120420000D01*
X211670000Y-116420000D02*
X211670000Y-116370000D01*
X213120000Y-117870000D02*
X211670000Y-116420000D01*
X213138765Y-138859647D02*
X213120000Y-138840882D01*
X213120000Y-138840882D02*
X213120000Y-117870000D01*
X94270000Y-140120000D02*
X98820000Y-135570000D01*
X159128020Y-141922946D02*
X158728021Y-142322945D01*
X162320000Y-110110000D02*
X162320000Y-138730966D01*
X160770000Y-108560000D02*
X162320000Y-110110000D01*
X162320000Y-138730966D02*
X159128020Y-141922946D01*
X84970000Y-110795964D02*
X84970000Y-110485685D01*
X100270000Y-126095964D02*
X84970000Y-110795964D01*
X100270000Y-134120000D02*
X100270000Y-126095964D01*
X98820000Y-135570000D02*
X100270000Y-134120000D01*
X84970000Y-110485685D02*
X84970000Y-109920000D01*
X148791222Y-145852745D02*
X148791222Y-146418430D01*
X148791222Y-144198238D02*
X148791222Y-145852745D01*
X148707348Y-96497348D02*
X148707349Y-144114365D01*
X145530000Y-93320000D02*
X148707348Y-96497348D01*
X148707349Y-144114365D02*
X148791222Y-144198238D01*
X145530000Y-90780000D02*
X149161359Y-94411359D01*
X149161359Y-143931326D02*
X149614229Y-144384196D01*
X149614229Y-144384196D02*
X149614229Y-146662961D01*
X149614229Y-146662961D02*
X149261199Y-147015991D01*
X149261199Y-147015991D02*
X148861200Y-147415990D01*
X149161359Y-94411359D02*
X149161359Y-143931326D01*
D23*
X173395459Y-152361144D02*
X173395459Y-152445459D01*
X173270000Y-152235685D02*
X173395459Y-152361144D01*
X173270000Y-151670000D02*
X173270000Y-152235685D01*
X177275851Y-153620000D02*
X177772735Y-153123116D01*
X173395459Y-152445459D02*
X174570000Y-153620000D01*
X174570000Y-153620000D02*
X177275851Y-153620000D01*
X167995459Y-152445459D02*
X173395459Y-152445459D01*
X162901011Y-147351011D02*
X167995459Y-152445459D01*
X160770000Y-88240000D02*
X162901011Y-90371011D01*
X162901011Y-90371011D02*
X162901011Y-147351011D01*
D24*
X160570000Y-159320000D02*
X167070000Y-159320000D01*
X157561978Y-156311978D02*
X159782501Y-158532501D01*
X157561978Y-88908022D02*
X157561978Y-156311978D01*
X160770000Y-85700000D02*
X157561978Y-88908022D01*
X159782501Y-158532501D02*
X160570000Y-159320000D01*
D23*
X154820000Y-153620000D02*
X149370000Y-153620000D01*
X147669999Y-155320001D02*
X147020000Y-155970000D01*
X156980967Y-151459033D02*
X154820000Y-153620000D01*
X156980967Y-84409033D02*
X156980967Y-151459033D01*
X149370000Y-153620000D02*
X147669999Y-155320001D01*
X160770000Y-80620000D02*
X156980967Y-84409033D01*
D24*
X142270000Y-126570000D02*
X142270000Y-127135685D01*
X142270000Y-127135685D02*
X142270000Y-135670000D01*
X158720000Y-139570000D02*
X158728021Y-139570000D01*
X158015988Y-138865988D02*
X158720000Y-139570000D01*
X160770000Y-90780000D02*
X158015988Y-93534012D01*
X158015988Y-93534012D02*
X158015988Y-138865988D01*
X160770000Y-93320000D02*
X158742990Y-95347010D01*
X158742990Y-135704315D02*
X158742990Y-136270000D01*
X158742990Y-95347010D02*
X158742990Y-135704315D01*
X114415989Y-42521750D02*
X114468796Y-42468943D01*
X114415989Y-47265989D02*
X114415989Y-42521750D01*
X119115990Y-48974010D02*
X116124010Y-48974010D01*
X120270000Y-47820000D02*
X119115990Y-48974010D01*
X123293796Y-47820000D02*
X120270000Y-47820000D01*
X125170000Y-49696204D02*
X123293796Y-47820000D01*
X135409886Y-71436085D02*
X125170000Y-61196199D01*
X133597003Y-77600929D02*
X135409886Y-75788046D01*
X133597002Y-112897002D02*
X133597003Y-77600929D01*
X136670000Y-115970000D02*
X133597002Y-112897002D01*
X116124010Y-48974010D02*
X114415989Y-47265989D01*
X135409886Y-75788046D02*
X135409886Y-71436085D01*
X114468796Y-42468943D02*
X115318795Y-41618944D01*
X125170000Y-61196199D02*
X125170000Y-49696204D01*
X135863897Y-75976103D02*
X135863896Y-71248027D01*
X135863896Y-71248027D02*
X129311978Y-64696109D01*
X129311978Y-64696109D02*
X129311980Y-56943884D01*
X136670000Y-113470000D02*
X134051013Y-110851013D01*
X129719999Y-53604135D02*
X123481854Y-47365990D01*
X129311980Y-56943884D02*
X129719999Y-56535865D01*
X129719999Y-56535865D02*
X129719999Y-53604135D01*
X116823843Y-43420444D02*
X117673842Y-42570445D01*
X134051013Y-110851013D02*
X134051013Y-77788987D01*
X114870000Y-47077932D02*
X114870000Y-45374287D01*
X114870000Y-45374287D02*
X116823843Y-43420444D01*
X118927933Y-48519999D02*
X116312067Y-48519999D01*
X120081942Y-47365990D02*
X118927933Y-48519999D01*
X123481854Y-47365990D02*
X120081942Y-47365990D01*
X134051013Y-77788987D02*
X135863897Y-75976103D01*
X116312067Y-48519999D02*
X114870000Y-47077932D01*
X122216842Y-46911979D02*
X120028889Y-44724026D01*
X120028889Y-44724026D02*
X120028889Y-43521945D01*
X129765990Y-57131942D02*
X130174010Y-56723922D01*
X123669911Y-46911979D02*
X122216842Y-46911979D01*
X130174010Y-53416078D02*
X123669911Y-46911979D01*
X130174010Y-56723922D02*
X130174010Y-53416078D01*
X136317908Y-71059971D02*
X129765989Y-64508052D01*
X134505025Y-77977043D02*
X136317908Y-76164160D01*
X136317908Y-76164160D02*
X136317908Y-71059971D01*
X136670000Y-110970000D02*
X134505024Y-108805024D01*
X129765989Y-64508052D02*
X129765990Y-57131942D01*
X134505024Y-108805024D02*
X134505025Y-77977043D01*
X136570000Y-108470000D02*
X134959035Y-106859035D01*
X123107593Y-45197103D02*
X122383936Y-44473446D01*
X123107593Y-45707593D02*
X123107593Y-45197103D01*
X130220000Y-64319995D02*
X130220000Y-57320000D01*
X134959035Y-78165101D02*
X136771919Y-76352217D01*
X130628021Y-53228021D02*
X123107593Y-45707593D01*
X130628021Y-56911979D02*
X130628021Y-53228021D01*
X136771918Y-70871913D02*
X130220000Y-64319995D01*
X134959035Y-106859035D02*
X134959035Y-78165101D01*
X136771919Y-76352217D02*
X136771918Y-70871913D01*
X130220000Y-57320000D02*
X130628021Y-56911979D01*
X124443000Y-68906989D02*
X124443000Y-55072998D01*
X133045939Y-77509928D02*
X124443000Y-68906989D01*
X124443000Y-55072998D02*
X124443000Y-54507313D01*
X133045939Y-88518097D02*
X133045939Y-77509928D01*
X131940052Y-89623984D02*
X133045939Y-88518097D01*
X132606090Y-116906090D02*
X132606090Y-112017773D01*
X136670000Y-120970000D02*
X132606090Y-116906090D01*
X132606090Y-112017773D02*
X132590051Y-112001734D01*
X132590051Y-112001734D02*
X132590051Y-92679717D01*
X132590051Y-92679717D02*
X131940052Y-92029717D01*
X131940052Y-92029717D02*
X131940052Y-89623984D01*
X136570000Y-105970000D02*
X135413046Y-104813046D01*
X135413046Y-104813046D02*
X135413046Y-78353158D01*
X135413046Y-78353158D02*
X137225930Y-76540274D01*
X137225930Y-76540274D02*
X137225930Y-68925930D01*
X137225930Y-68925930D02*
X136669999Y-68369999D01*
X136669999Y-68369999D02*
X136270000Y-67970000D01*
X119420000Y-151886577D02*
X124712983Y-157179560D01*
X119420000Y-143570000D02*
X119420000Y-151886577D01*
X180185598Y-55454402D02*
X180185598Y-54858239D01*
X170075200Y-100914800D02*
X170720000Y-100270000D01*
X170720000Y-100270000D02*
X170720000Y-68520000D01*
X170069900Y-100914800D02*
X170075200Y-100914800D01*
X170720000Y-68520000D02*
X172670000Y-66570000D01*
X172670000Y-66570000D02*
X172670000Y-62970000D01*
X172670000Y-62970000D02*
X180185598Y-55454402D01*
X121920000Y-150829433D02*
X126241593Y-155151026D01*
X121920000Y-143670000D02*
X121920000Y-150829433D01*
X169714300Y-115723000D02*
X173637920Y-111799380D01*
X173637920Y-111799380D02*
X173637921Y-90270351D01*
X187484789Y-81155211D02*
X187484789Y-60605211D01*
X187484789Y-60605211D02*
X194545001Y-53544999D01*
X186470000Y-82170000D02*
X187484789Y-81155211D01*
X194545001Y-53544999D02*
X194945000Y-53145000D01*
X181738272Y-82170000D02*
X186470000Y-82170000D01*
X173637921Y-90270351D02*
X181738272Y-82170000D01*
X190234070Y-47355930D02*
X190234070Y-42819600D01*
X181532033Y-79541035D02*
X183341037Y-77732031D01*
X181532033Y-81734171D02*
X181532033Y-79541035D01*
X186870000Y-48920000D02*
X188670000Y-48920000D01*
X173088059Y-90178145D02*
X181532033Y-81734171D01*
X190234070Y-42819600D02*
X190234070Y-41617519D01*
X173088055Y-109999745D02*
X173088059Y-104750445D01*
X173088059Y-104750445D02*
X173088059Y-90178145D01*
X169777800Y-113310000D02*
X173088055Y-109999745D01*
X183341037Y-77732031D02*
X186232919Y-77732031D01*
X187030779Y-74716822D02*
X187030779Y-66571875D01*
X186232919Y-77732031D02*
X187030777Y-76934173D01*
X187030777Y-76934173D02*
X187030778Y-76623756D01*
X187030778Y-76623756D02*
X187030779Y-74716822D01*
X182468231Y-53321769D02*
X186870000Y-48920000D01*
X188670000Y-48920000D02*
X190234070Y-47355930D01*
X187030779Y-66571875D02*
X182468231Y-62009327D01*
X182468231Y-62009327D02*
X182468231Y-53321769D01*
X187879023Y-43310977D02*
X187879023Y-42569020D01*
X182014220Y-49175780D02*
X187879023Y-43310977D01*
X186532615Y-66715785D02*
X182014220Y-62197384D01*
X186576767Y-76746115D02*
X186576768Y-66759939D01*
X186044861Y-77278021D02*
X186576767Y-76746115D01*
X183152978Y-77278022D02*
X186044861Y-77278021D01*
X182014220Y-62197384D02*
X182014220Y-49175780D01*
X181078022Y-79352978D02*
X183152978Y-77278022D01*
X181078022Y-81546114D02*
X181078022Y-79352978D01*
X172634048Y-89990088D02*
X181078022Y-81546114D01*
X172634048Y-104562388D02*
X172634048Y-89990088D01*
X172634046Y-108066154D02*
X172634048Y-104562388D01*
X169790500Y-110909700D02*
X172634046Y-108066154D01*
X186576768Y-66759939D02*
X186532615Y-66715785D01*
X180624011Y-81358057D02*
X180624012Y-79164920D01*
X186122757Y-76558057D02*
X186122756Y-66947995D01*
X172180038Y-89802030D02*
X180624011Y-81358057D01*
X186122756Y-66947995D02*
X181560209Y-62385441D01*
X181560210Y-48987722D02*
X185523976Y-45023956D01*
X185523976Y-44722601D02*
X185523976Y-43520520D01*
X185523976Y-45023956D02*
X185523976Y-44722601D01*
X172180037Y-104374331D02*
X172180038Y-89802030D01*
X169727000Y-108522100D02*
X172180036Y-106069064D01*
X172180036Y-106069064D02*
X172180037Y-104374331D01*
X185856803Y-76824011D02*
X186122757Y-76558057D01*
X182964921Y-76824011D02*
X185856803Y-76824011D01*
X181560209Y-62385441D02*
X181560210Y-48987722D01*
X180624012Y-79164920D02*
X182964921Y-76824011D01*
X182445272Y-45195678D02*
X183168929Y-44472021D01*
X181106199Y-46534751D02*
X182445272Y-45195678D01*
X181106198Y-62573500D02*
X181106199Y-46534751D01*
X185668746Y-67136053D02*
X181106198Y-62573500D01*
X185668746Y-76370000D02*
X185668746Y-67136053D01*
X182776864Y-76370000D02*
X185668746Y-76370000D01*
X180170000Y-78976864D02*
X182776864Y-76370000D01*
X171726026Y-104186274D02*
X171726026Y-89613974D01*
X180170000Y-81170000D02*
X180170000Y-78976864D01*
X171726026Y-89613974D02*
X180170000Y-81170000D01*
X169803200Y-106109100D02*
X171726026Y-104186274D01*
X213470000Y-93746772D02*
X213441013Y-93717785D01*
X213470000Y-95370000D02*
X213470000Y-93746772D01*
X212591014Y-96248986D02*
X213470000Y-95370000D01*
X212591014Y-99291053D02*
X212591014Y-96248986D01*
X196970000Y-123654133D02*
X201632030Y-118992104D01*
X196970000Y-128170000D02*
X196970000Y-123654133D01*
X201632030Y-118992104D02*
X201632030Y-104607970D01*
X201632030Y-104607970D02*
X203970000Y-102270000D01*
X203970000Y-102270000D02*
X209612067Y-102270000D01*
X209612067Y-102270000D02*
X212591014Y-99291053D01*
X211085966Y-95085966D02*
X211085966Y-94669286D01*
X212070000Y-99169999D02*
X212070000Y-96070000D01*
X194170000Y-125812067D02*
X201178019Y-118804047D01*
X201178019Y-118804047D02*
X201178020Y-104419912D01*
X194170000Y-128070000D02*
X194170000Y-125812067D01*
X201178020Y-104419912D02*
X203781943Y-101815989D01*
X203781943Y-101815989D02*
X209424010Y-101815989D01*
X212070000Y-96070000D02*
X211085966Y-95085966D01*
X209424010Y-101815989D02*
X212070000Y-99169999D01*
X208419214Y-95620786D02*
X208730919Y-95620786D01*
X208730919Y-95932491D02*
X208419214Y-95620786D01*
X200724010Y-118615990D02*
X200724010Y-103315990D01*
X191370000Y-127970000D02*
X200724010Y-118615990D01*
X200724010Y-103315990D02*
X205170000Y-98870000D01*
X205170000Y-98870000D02*
X206116835Y-98870000D01*
X206116835Y-98870000D02*
X208730919Y-96255916D01*
X208730919Y-96255916D02*
X208730919Y-95932491D01*
X205652215Y-97295944D02*
X206375872Y-96572287D01*
X200270000Y-102678159D02*
X205652215Y-97295944D01*
X188570000Y-127970000D02*
X200270000Y-116270000D01*
X200270000Y-116270000D02*
X200270000Y-102678159D01*
D23*
X151770000Y-149220000D02*
X145020000Y-155970000D01*
X151770000Y-115620000D02*
X151770000Y-149220000D01*
M02*
