M48
; DRILL file {KiCad (5.1.4)-1} date 10/4/2023 9:41:18 PM
; FORMAT={-:-/ absolute / metric / decimal}
; #@! TF.CreationDate,2023-10-04T21:41:18-04:00
; #@! TF.GenerationSoftware,Kicad,Pcbnew,(5.1.4)-1
; #@! TF.FileFunction,NonPlated,1,2,NPTH
FMAT,2
METRIC
T1C1.702
T2C2.950
T3C3.000
T4C5.050
%
G90
G05
T1
X188.351Y-113.022
X198.55Y-108.902
X181.233Y-95.406
X191.432Y-91.285
X199.224Y-89.216
X209.423Y-85.095
X166.998Y-60.173
X177.197Y-56.052
X229.203Y-112.695
X239.402Y-108.575
X206.342Y-106.832
X216.541Y-102.711
X103.319Y-67.526
X113.518Y-71.646
X96.202Y-85.142
X106.401Y-89.263
X121.208Y-73.675
X131.407Y-77.796
X128.326Y-56.058
X138.525Y-60.179
X46.632Y-106.099
X56.831Y-110.22
X106.973Y-108.908
X117.172Y-113.029
X110.437Y-49.909
X120.636Y-54.03
X174.116Y-77.789
X184.315Y-73.669
X66.121Y-108.581
X76.32Y-112.701
X114.091Y-91.291
X124.29Y-95.412
X248.692Y-110.214
X258.891Y-106.093
X88.982Y-102.717
X99.181Y-106.838
X184.989Y-53.983
X195.188Y-49.862
X192.107Y-71.599
X202.306Y-67.478
T2
X102.413Y-71.905
X108.675Y-75.891
X95.295Y-89.522
X101.558Y-93.508
X120.302Y-78.054
X126.565Y-82.04
X127.419Y-60.438
X133.682Y-64.424
X45.725Y-110.478
X51.988Y-114.465
X106.067Y-113.287
X112.33Y-117.273
X109.53Y-54.289
X115.793Y-58.275
X176.506Y-81.569
X183.78Y-80.086
X65.215Y-112.96
X71.477Y-116.946
X113.184Y-95.671
X119.447Y-99.657
X251.082Y-113.994
X258.356Y-112.511
X88.076Y-107.097
X94.338Y-111.083
X187.379Y-57.763
X194.653Y-56.28
X194.497Y-75.379
X201.771Y-73.896
X190.741Y-116.802
X198.015Y-115.319
X183.623Y-99.186
X190.897Y-97.703
X201.614Y-92.996
X208.888Y-91.513
X169.388Y-63.953
X176.662Y-62.47
X231.593Y-116.475
X238.867Y-114.992
X208.732Y-110.612
X216.006Y-109.129
T3
X184.104Y-87.829
X189.564Y-87.996
X202.095Y-81.639
X207.555Y-81.805
X169.869Y-52.596
X175.329Y-52.763
X232.073Y-105.118
X237.533Y-105.285
X209.212Y-99.255
X214.672Y-99.422
X110.648Y-64.069
X114.459Y-67.982
X103.53Y-81.686
X107.342Y-85.599
X128.537Y-70.218
X132.349Y-74.131
X135.654Y-52.602
X139.466Y-56.515
X53.96Y-102.643
X57.772Y-106.555
X114.302Y-105.451
X118.114Y-109.364
X117.765Y-46.453
X121.577Y-50.366
X176.986Y-70.212
X182.446Y-70.379
X73.45Y-105.124
X77.261Y-109.037
X121.419Y-87.835
X125.231Y-91.748
X251.563Y-102.636
X257.023Y-102.803
X96.311Y-99.261
X100.122Y-103.174
X187.86Y-46.406
X193.32Y-46.572
X194.977Y-64.022
X200.437Y-64.189
X191.221Y-105.445
X196.681Y-105.612
T4
X204.324Y-87.155
X172.098Y-58.113
X234.302Y-110.635
X211.441Y-104.772
X108.419Y-69.586
X101.301Y-87.203
X126.308Y-75.735
X133.425Y-58.119
X51.731Y-108.159
X112.073Y-110.968
X115.536Y-51.97
X179.215Y-75.729
X71.221Y-110.641
X119.19Y-93.352
X253.792Y-108.153
X94.082Y-104.778
X190.089Y-51.922
X197.206Y-69.539
X193.45Y-110.962
X186.333Y-93.346
T0
M30
