G04 #@! TF.GenerationSoftware,KiCad,Pcbnew,(5.1.4)-1*
G04 #@! TF.CreationDate,2023-10-04T20:41:25-04:00*
G04 #@! TF.ProjectId,ThumbsUp,5468756d-6273-4557-902e-6b696361645f,rev?*
G04 #@! TF.SameCoordinates,Original*
G04 #@! TF.FileFunction,Legend,Bot*
G04 #@! TF.FilePolarity,Positive*
%FSLAX46Y46*%
G04 Gerber Fmt 4.6, Leading zero omitted, Abs format (unit mm)*
G04 Created by KiCad (PCBNEW (5.1.4)-1) date 2023-10-04 20:41:25*
%MOMM*%
%LPD*%
G04 APERTURE LIST*
%ADD10C,0.300000*%
%ADD11C,0.150000*%
%ADD12C,0.120000*%
%ADD13C,0.100000*%
%ADD14C,0.254000*%
G04 APERTURE END LIST*
D10*
X-317117857Y-294978571D02*
X-317189285Y-294764285D01*
X-317260714Y-294692857D01*
X-317403571Y-294621428D01*
X-317617857Y-294621428D01*
X-317760714Y-294692857D01*
X-317832142Y-294764285D01*
X-317903571Y-294907142D01*
X-317903571Y-295478571D01*
X-316403571Y-295478571D01*
X-316403571Y-294978571D01*
X-316475000Y-294835714D01*
X-316546428Y-294764285D01*
X-316689285Y-294692857D01*
X-316832142Y-294692857D01*
X-316975000Y-294764285D01*
X-317046428Y-294835714D01*
X-317117857Y-294978571D01*
X-317117857Y-295478571D01*
X-317903571Y-293335714D02*
X-317117857Y-293335714D01*
X-316975000Y-293407142D01*
X-316903571Y-293550000D01*
X-316903571Y-293835714D01*
X-316975000Y-293978571D01*
X-317832142Y-293335714D02*
X-317903571Y-293478571D01*
X-317903571Y-293835714D01*
X-317832142Y-293978571D01*
X-317689285Y-294050000D01*
X-317546428Y-294050000D01*
X-317403571Y-293978571D01*
X-317332142Y-293835714D01*
X-317332142Y-293478571D01*
X-317260714Y-293335714D01*
X-316903571Y-292835714D02*
X-316903571Y-292264285D01*
X-316403571Y-292621428D02*
X-317689285Y-292621428D01*
X-317832142Y-292550000D01*
X-317903571Y-292407142D01*
X-317903571Y-292264285D01*
X-316903571Y-291978571D02*
X-316903571Y-291407142D01*
X-316403571Y-291764285D02*
X-317689285Y-291764285D01*
X-317832142Y-291692857D01*
X-317903571Y-291550000D01*
X-317903571Y-291407142D01*
X-317832142Y-290335714D02*
X-317903571Y-290478571D01*
X-317903571Y-290764285D01*
X-317832142Y-290907142D01*
X-317689285Y-290978571D01*
X-317117857Y-290978571D01*
X-316975000Y-290907142D01*
X-316903571Y-290764285D01*
X-316903571Y-290478571D01*
X-316975000Y-290335714D01*
X-317117857Y-290264285D01*
X-317260714Y-290264285D01*
X-317403571Y-290978571D01*
X-317903571Y-289621428D02*
X-316903571Y-289621428D01*
X-317189285Y-289621428D02*
X-317046428Y-289550000D01*
X-316975000Y-289478571D01*
X-316903571Y-289335714D01*
X-316903571Y-289192857D01*
X-316903571Y-288835714D02*
X-317903571Y-288478571D01*
X-316903571Y-288121428D02*
X-317903571Y-288478571D01*
X-318260714Y-288621428D01*
X-318332142Y-288692857D01*
X-318403571Y-288835714D01*
X-318953571Y-295514285D02*
X-319239285Y-295514285D01*
X-318953571Y-294942857D02*
X-319239285Y-294942857D01*
X-319882142Y-294300000D02*
X-319882142Y-293157142D01*
X-318953571Y-292514285D02*
X-319239285Y-292514285D01*
X-318953571Y-291942857D02*
X-319239285Y-291942857D01*
X-319453571Y-290157142D02*
X-319882142Y-289014285D01*
X-320310714Y-290157142D01*
X-319453571Y-288300000D02*
X-319882142Y-287157142D01*
X-320310714Y-288300000D01*
D11*
X-330502261Y-312797619D02*
X-330407023Y-312750000D01*
X-330311785Y-312654761D01*
X-330168928Y-312511904D01*
X-330073690Y-312464285D01*
X-329978452Y-312464285D01*
X-330026071Y-312702380D02*
X-329930833Y-312654761D01*
X-329835595Y-312559523D01*
X-329787976Y-312369047D01*
X-329787976Y-312035714D01*
X-329835595Y-311845238D01*
X-329930833Y-311750000D01*
X-330026071Y-311702380D01*
X-330216547Y-311702380D01*
X-330311785Y-311750000D01*
X-330407023Y-311845238D01*
X-330454642Y-312035714D01*
X-330454642Y-312369047D01*
X-330407023Y-312559523D01*
X-330311785Y-312654761D01*
X-330216547Y-312702380D01*
X-330026071Y-312702380D01*
X-330883214Y-312702380D02*
X-330883214Y-311702380D01*
X-331216547Y-312416666D01*
X-331549880Y-311702380D01*
X-331549880Y-312702380D01*
X-332026071Y-312702380D02*
X-332026071Y-311702380D01*
X-332597500Y-312702380D02*
X-332168928Y-312130952D01*
X-332597500Y-311702380D02*
X-332026071Y-312273809D01*
X-333026071Y-312607142D02*
X-333073690Y-312654761D01*
X-333026071Y-312702380D01*
X-332978452Y-312654761D01*
X-333026071Y-312607142D01*
X-333026071Y-312702380D01*
X-333026071Y-312083333D02*
X-333073690Y-312130952D01*
X-333026071Y-312178571D01*
X-332978452Y-312130952D01*
X-333026071Y-312083333D01*
X-333026071Y-312178571D01*
X-329787976Y-313352380D02*
X-329787976Y-313542857D01*
X-330168928Y-313352380D02*
X-330168928Y-313542857D01*
X-330597500Y-314352380D02*
X-330597500Y-313685714D01*
X-330597500Y-313780952D02*
X-330645119Y-313733333D01*
X-330740357Y-313685714D01*
X-330883214Y-313685714D01*
X-330978452Y-313733333D01*
X-331026071Y-313828571D01*
X-331026071Y-314352380D01*
X-331026071Y-313828571D02*
X-331073690Y-313733333D01*
X-331168928Y-313685714D01*
X-331311785Y-313685714D01*
X-331407023Y-313733333D01*
X-331454642Y-313828571D01*
X-331454642Y-314352380D01*
X-332359404Y-314352380D02*
X-332359404Y-313828571D01*
X-332311785Y-313733333D01*
X-332216547Y-313685714D01*
X-332026071Y-313685714D01*
X-331930833Y-313733333D01*
X-332359404Y-314304761D02*
X-332264166Y-314352380D01*
X-332026071Y-314352380D01*
X-331930833Y-314304761D01*
X-331883214Y-314209523D01*
X-331883214Y-314114285D01*
X-331930833Y-314019047D01*
X-332026071Y-313971428D01*
X-332264166Y-313971428D01*
X-332359404Y-313923809D01*
X-332692738Y-313685714D02*
X-333073690Y-313685714D01*
X-332835595Y-313352380D02*
X-332835595Y-314209523D01*
X-332883214Y-314304761D01*
X-332978452Y-314352380D01*
X-333073690Y-314352380D01*
X-333407023Y-314352380D02*
X-333407023Y-313685714D01*
X-333407023Y-313876190D02*
X-333454642Y-313780952D01*
X-333502261Y-313733333D01*
X-333597500Y-313685714D01*
X-333692738Y-313685714D01*
X-334026071Y-314352380D02*
X-334026071Y-313685714D01*
X-334026071Y-313352380D02*
X-333978452Y-313400000D01*
X-334026071Y-313447619D01*
X-334073690Y-313400000D01*
X-334026071Y-313352380D01*
X-334026071Y-313447619D01*
X-334407023Y-314352380D02*
X-334930833Y-313685714D01*
X-334407023Y-313685714D02*
X-334930833Y-314352380D01*
X-335073690Y-314447619D02*
X-335835595Y-314447619D01*
X-336073690Y-313685714D02*
X-336073690Y-314685714D01*
X-336073690Y-313733333D02*
X-336168928Y-313685714D01*
X-336359404Y-313685714D01*
X-336454642Y-313733333D01*
X-336502261Y-313780952D01*
X-336549880Y-313876190D01*
X-336549880Y-314161904D01*
X-336502261Y-314257142D01*
X-336454642Y-314304761D01*
X-336359404Y-314352380D01*
X-336168928Y-314352380D01*
X-336073690Y-314304761D01*
X-336978452Y-314352380D02*
X-336978452Y-313685714D01*
X-336978452Y-313352380D02*
X-336930833Y-313400000D01*
X-336978452Y-313447619D01*
X-337026071Y-313400000D01*
X-336978452Y-313352380D01*
X-336978452Y-313447619D01*
X-337454642Y-313685714D02*
X-337454642Y-314352380D01*
X-337454642Y-313780952D02*
X-337502261Y-313733333D01*
X-337597500Y-313685714D01*
X-337740357Y-313685714D01*
X-337835595Y-313733333D01*
X-337883214Y-313828571D01*
X-337883214Y-314352380D01*
X-338311785Y-314304761D02*
X-338407023Y-314352380D01*
X-338597500Y-314352380D01*
X-338692738Y-314304761D01*
X-338740357Y-314209523D01*
X-338740357Y-314161904D01*
X-338692738Y-314066666D01*
X-338597500Y-314019047D01*
X-338454642Y-314019047D01*
X-338359404Y-313971428D01*
X-338311785Y-313876190D01*
X-338311785Y-313828571D01*
X-338359404Y-313733333D01*
X-338454642Y-313685714D01*
X-338597500Y-313685714D01*
X-338692738Y-313733333D01*
X-339121309Y-313352380D02*
X-339121309Y-313542857D01*
X-339502261Y-313352380D02*
X-339502261Y-313542857D01*
X-339930833Y-314257142D02*
X-339978452Y-314304761D01*
X-339930833Y-314352380D01*
X-339883214Y-314304761D01*
X-339930833Y-314257142D01*
X-339930833Y-314352380D01*
X-339930833Y-313733333D02*
X-339978452Y-313780952D01*
X-339930833Y-313828571D01*
X-339883214Y-313780952D01*
X-339930833Y-313733333D01*
X-339930833Y-313828571D01*
X-341454642Y-314733333D02*
X-341407023Y-314733333D01*
X-341311785Y-314685714D01*
X-341264166Y-314590476D01*
X-341264166Y-314114285D01*
X-341216547Y-314019047D01*
X-341121309Y-313971428D01*
X-341216547Y-313923809D01*
X-341264166Y-313828571D01*
X-341264166Y-313352380D01*
X-341311785Y-313257142D01*
X-341407023Y-313209523D01*
X-341454642Y-313209523D01*
X-331311785Y-315002380D02*
X-331311785Y-315192857D01*
X-331692738Y-315002380D02*
X-331692738Y-315192857D01*
X-332549880Y-315954761D02*
X-332454642Y-316002380D01*
X-332264166Y-316002380D01*
X-332168928Y-315954761D01*
X-332121309Y-315907142D01*
X-332073690Y-315811904D01*
X-332073690Y-315526190D01*
X-332121309Y-315430952D01*
X-332168928Y-315383333D01*
X-332264166Y-315335714D01*
X-332454642Y-315335714D01*
X-332549880Y-315383333D01*
X-333121309Y-316002380D02*
X-333026071Y-315954761D01*
X-332978452Y-315907142D01*
X-332930833Y-315811904D01*
X-332930833Y-315526190D01*
X-332978452Y-315430952D01*
X-333026071Y-315383333D01*
X-333121309Y-315335714D01*
X-333264166Y-315335714D01*
X-333359404Y-315383333D01*
X-333407023Y-315430952D01*
X-333454642Y-315526190D01*
X-333454642Y-315811904D01*
X-333407023Y-315907142D01*
X-333359404Y-315954761D01*
X-333264166Y-316002380D01*
X-333121309Y-316002380D01*
X-334026071Y-316002380D02*
X-333930833Y-315954761D01*
X-333883214Y-315859523D01*
X-333883214Y-315002380D01*
X-334359404Y-315954761D02*
X-334454642Y-316002380D01*
X-334645119Y-316002380D01*
X-334740357Y-315954761D01*
X-334787976Y-315859523D01*
X-334787976Y-315811904D01*
X-334740357Y-315716666D01*
X-334645119Y-315669047D01*
X-334502261Y-315669047D01*
X-334407023Y-315621428D01*
X-334359404Y-315526190D01*
X-334359404Y-315478571D01*
X-334407023Y-315383333D01*
X-334502261Y-315335714D01*
X-334645119Y-315335714D01*
X-334740357Y-315383333D01*
X-335168928Y-315002380D02*
X-335168928Y-315192857D01*
X-335549880Y-315002380D02*
X-335549880Y-315192857D01*
X-335978452Y-315907142D02*
X-336026071Y-315954761D01*
X-335978452Y-316002380D01*
X-335930833Y-315954761D01*
X-335978452Y-315907142D01*
X-335978452Y-316002380D01*
X-335978452Y-315383333D02*
X-336026071Y-315430952D01*
X-335978452Y-315478571D01*
X-335930833Y-315430952D01*
X-335978452Y-315383333D01*
X-335978452Y-315478571D01*
X-337502261Y-316335714D02*
X-337264166Y-316335714D01*
X-337264166Y-314907142D01*
X-337502261Y-314907142D01*
X-337835595Y-315002380D02*
X-337835595Y-315192857D01*
X-338216547Y-315002380D02*
X-338216547Y-315192857D01*
X-339216547Y-315907142D02*
X-339168928Y-315954761D01*
X-339026071Y-316002380D01*
X-338930833Y-316002380D01*
X-338787976Y-315954761D01*
X-338692738Y-315859523D01*
X-338645119Y-315764285D01*
X-338597500Y-315573809D01*
X-338597500Y-315430952D01*
X-338645119Y-315240476D01*
X-338692738Y-315145238D01*
X-338787976Y-315050000D01*
X-338930833Y-315002380D01*
X-339026071Y-315002380D01*
X-339168928Y-315050000D01*
X-339216547Y-315097619D01*
X-340073690Y-315002380D02*
X-339883214Y-315002380D01*
X-339787976Y-315050000D01*
X-339740357Y-315097619D01*
X-339645119Y-315240476D01*
X-339597500Y-315430952D01*
X-339597500Y-315811904D01*
X-339645119Y-315907142D01*
X-339692738Y-315954761D01*
X-339787976Y-316002380D01*
X-339978452Y-316002380D01*
X-340073690Y-315954761D01*
X-340121309Y-315907142D01*
X-340168928Y-315811904D01*
X-340168928Y-315573809D01*
X-340121309Y-315478571D01*
X-340073690Y-315430952D01*
X-339978452Y-315383333D01*
X-339787976Y-315383333D01*
X-339692738Y-315430952D01*
X-339645119Y-315478571D01*
X-339597500Y-315573809D01*
X-340549880Y-315002380D02*
X-340549880Y-315192857D01*
X-340930833Y-315002380D02*
X-340930833Y-315192857D01*
X-341407023Y-315954761D02*
X-341407023Y-316002380D01*
X-341359404Y-316097619D01*
X-341311785Y-316145238D01*
X-342549880Y-315002380D02*
X-342549880Y-315192857D01*
X-342930833Y-315002380D02*
X-342930833Y-315192857D01*
X-343359404Y-316002380D02*
X-343359404Y-315002380D01*
X-343597500Y-315002380D01*
X-343740357Y-315050000D01*
X-343835595Y-315145238D01*
X-343883214Y-315240476D01*
X-343930833Y-315430952D01*
X-343930833Y-315573809D01*
X-343883214Y-315764285D01*
X-343835595Y-315859523D01*
X-343740357Y-315954761D01*
X-343597500Y-316002380D01*
X-343359404Y-316002380D01*
X-344787976Y-315335714D02*
X-344787976Y-316002380D01*
X-344549880Y-314954761D02*
X-344311785Y-315669047D01*
X-344930833Y-315669047D01*
X-345264166Y-315002380D02*
X-345264166Y-315192857D01*
X-345645119Y-315002380D02*
X-345645119Y-315192857D01*
X-346121309Y-315954761D02*
X-346121309Y-316002380D01*
X-346073690Y-316097619D01*
X-346026071Y-316145238D01*
X-347264166Y-315002380D02*
X-347264166Y-315192857D01*
X-347645119Y-315002380D02*
X-347645119Y-315192857D01*
X-348073690Y-316002380D02*
X-348073690Y-315002380D01*
X-348311785Y-315002380D01*
X-348454642Y-315050000D01*
X-348549880Y-315145238D01*
X-348597500Y-315240476D01*
X-348645119Y-315430952D01*
X-348645119Y-315573809D01*
X-348597500Y-315764285D01*
X-348549880Y-315859523D01*
X-348454642Y-315954761D01*
X-348311785Y-316002380D01*
X-348073690Y-316002380D01*
X-349026071Y-315097619D02*
X-349073690Y-315050000D01*
X-349168928Y-315002380D01*
X-349407023Y-315002380D01*
X-349502261Y-315050000D01*
X-349549880Y-315097619D01*
X-349597500Y-315192857D01*
X-349597500Y-315288095D01*
X-349549880Y-315430952D01*
X-348978452Y-316002380D01*
X-349597500Y-316002380D01*
X-349978452Y-315002380D02*
X-349978452Y-315192857D01*
X-350359404Y-315002380D02*
X-350359404Y-315192857D01*
X-350835595Y-315954761D02*
X-350835595Y-316002380D01*
X-350787976Y-316097619D01*
X-350740357Y-316145238D01*
X-351978452Y-315002380D02*
X-351978452Y-315192857D01*
X-352359404Y-315002380D02*
X-352359404Y-315192857D01*
X-352787976Y-316002380D02*
X-352787976Y-315002380D01*
X-353026071Y-315002380D01*
X-353168928Y-315050000D01*
X-353264166Y-315145238D01*
X-353311785Y-315240476D01*
X-353359404Y-315430952D01*
X-353359404Y-315573809D01*
X-353311785Y-315764285D01*
X-353264166Y-315859523D01*
X-353168928Y-315954761D01*
X-353026071Y-316002380D01*
X-352787976Y-316002380D01*
X-353692738Y-315002380D02*
X-354311785Y-315002380D01*
X-353978452Y-315383333D01*
X-354121309Y-315383333D01*
X-354216547Y-315430952D01*
X-354264166Y-315478571D01*
X-354311785Y-315573809D01*
X-354311785Y-315811904D01*
X-354264166Y-315907142D01*
X-354216547Y-315954761D01*
X-354121309Y-316002380D01*
X-353835595Y-316002380D01*
X-353740357Y-315954761D01*
X-353692738Y-315907142D01*
X-354692738Y-315002380D02*
X-354692738Y-315192857D01*
X-355073690Y-315002380D02*
X-355073690Y-315192857D01*
X-355549880Y-315954761D02*
X-355549880Y-316002380D01*
X-355502261Y-316097619D01*
X-355454642Y-316145238D01*
X-356692738Y-315002380D02*
X-356692738Y-315192857D01*
X-357073690Y-315002380D02*
X-357073690Y-315192857D01*
X-357835595Y-315478571D02*
X-357978452Y-315526190D01*
X-358026071Y-315573809D01*
X-358073690Y-315669047D01*
X-358073690Y-315811904D01*
X-358026071Y-315907142D01*
X-357978452Y-315954761D01*
X-357883214Y-316002380D01*
X-357502261Y-316002380D01*
X-357502261Y-315002380D01*
X-357835595Y-315002380D01*
X-357930833Y-315050000D01*
X-357978452Y-315097619D01*
X-358026071Y-315192857D01*
X-358026071Y-315288095D01*
X-357978452Y-315383333D01*
X-357930833Y-315430952D01*
X-357835595Y-315478571D01*
X-357502261Y-315478571D01*
X-358930833Y-315002380D02*
X-358740357Y-315002380D01*
X-358645119Y-315050000D01*
X-358597500Y-315097619D01*
X-358502261Y-315240476D01*
X-358454642Y-315430952D01*
X-358454642Y-315811904D01*
X-358502261Y-315907142D01*
X-358549880Y-315954761D01*
X-358645119Y-316002380D01*
X-358835595Y-316002380D01*
X-358930833Y-315954761D01*
X-358978452Y-315907142D01*
X-359026071Y-315811904D01*
X-359026071Y-315573809D01*
X-358978452Y-315478571D01*
X-358930833Y-315430952D01*
X-358835595Y-315383333D01*
X-358645119Y-315383333D01*
X-358549880Y-315430952D01*
X-358502261Y-315478571D01*
X-358454642Y-315573809D01*
X-359407023Y-315002380D02*
X-359407023Y-315192857D01*
X-359787976Y-315002380D02*
X-359787976Y-315192857D01*
X-360264166Y-315954761D02*
X-360264166Y-316002380D01*
X-360216547Y-316097619D01*
X-360168928Y-316145238D01*
X-361407023Y-315002380D02*
X-361407023Y-315192857D01*
X-361787976Y-315002380D02*
X-361787976Y-315192857D01*
X-362216547Y-316002380D02*
X-362216547Y-315002380D01*
X-362454642Y-315002380D01*
X-362597500Y-315050000D01*
X-362692738Y-315145238D01*
X-362740357Y-315240476D01*
X-362787976Y-315430952D01*
X-362787976Y-315573809D01*
X-362740357Y-315764285D01*
X-362692738Y-315859523D01*
X-362597500Y-315954761D01*
X-362454642Y-316002380D01*
X-362216547Y-316002380D01*
X-363121309Y-315002380D02*
X-363787976Y-315002380D01*
X-363359404Y-316002380D01*
X-364121309Y-315002380D02*
X-364121309Y-315192857D01*
X-364502261Y-315002380D02*
X-364502261Y-315192857D01*
X-364835595Y-316335714D02*
X-365073690Y-316335714D01*
X-365073690Y-314907142D01*
X-364835595Y-314907142D01*
X-365645119Y-315954761D02*
X-365645119Y-316002380D01*
X-365597500Y-316097619D01*
X-365549880Y-316145238D01*
X-331311785Y-316652380D02*
X-331311785Y-316842857D01*
X-331692738Y-316652380D02*
X-331692738Y-316842857D01*
X-332121309Y-317652380D02*
X-332121309Y-316985714D01*
X-332121309Y-317176190D02*
X-332168928Y-317080952D01*
X-332216547Y-317033333D01*
X-332311785Y-316985714D01*
X-332407023Y-316985714D01*
X-332883214Y-317652380D02*
X-332787976Y-317604761D01*
X-332740357Y-317557142D01*
X-332692738Y-317461904D01*
X-332692738Y-317176190D01*
X-332740357Y-317080952D01*
X-332787976Y-317033333D01*
X-332883214Y-316985714D01*
X-333026071Y-316985714D01*
X-333121309Y-317033333D01*
X-333168928Y-317080952D01*
X-333216547Y-317176190D01*
X-333216547Y-317461904D01*
X-333168928Y-317557142D01*
X-333121309Y-317604761D01*
X-333026071Y-317652380D01*
X-332883214Y-317652380D01*
X-333549880Y-316985714D02*
X-333740357Y-317652380D01*
X-333930833Y-317176190D01*
X-334121309Y-317652380D01*
X-334311785Y-316985714D01*
X-334645119Y-317604761D02*
X-334740357Y-317652380D01*
X-334930833Y-317652380D01*
X-335026071Y-317604761D01*
X-335073690Y-317509523D01*
X-335073690Y-317461904D01*
X-335026071Y-317366666D01*
X-334930833Y-317319047D01*
X-334787976Y-317319047D01*
X-334692738Y-317271428D01*
X-334645119Y-317176190D01*
X-334645119Y-317128571D01*
X-334692738Y-317033333D01*
X-334787976Y-316985714D01*
X-334930833Y-316985714D01*
X-335026071Y-317033333D01*
X-335454642Y-316652380D02*
X-335454642Y-316842857D01*
X-335835595Y-316652380D02*
X-335835595Y-316842857D01*
X-336264166Y-317557142D02*
X-336311785Y-317604761D01*
X-336264166Y-317652380D01*
X-336216547Y-317604761D01*
X-336264166Y-317557142D01*
X-336264166Y-317652380D01*
X-336264166Y-317033333D02*
X-336311785Y-317080952D01*
X-336264166Y-317128571D01*
X-336216547Y-317080952D01*
X-336264166Y-317033333D01*
X-336264166Y-317128571D01*
X-337787976Y-317985714D02*
X-337549880Y-317985714D01*
X-337549880Y-316557142D01*
X-337787976Y-316557142D01*
X-338121309Y-316652380D02*
X-338121309Y-316842857D01*
X-338502261Y-316652380D02*
X-338502261Y-316842857D01*
X-339264166Y-317128571D02*
X-339407023Y-317176190D01*
X-339454642Y-317223809D01*
X-339502261Y-317319047D01*
X-339502261Y-317461904D01*
X-339454642Y-317557142D01*
X-339407023Y-317604761D01*
X-339311785Y-317652380D01*
X-338930833Y-317652380D01*
X-338930833Y-316652380D01*
X-339264166Y-316652380D01*
X-339359404Y-316700000D01*
X-339407023Y-316747619D01*
X-339454642Y-316842857D01*
X-339454642Y-316938095D01*
X-339407023Y-317033333D01*
X-339359404Y-317080952D01*
X-339264166Y-317128571D01*
X-338930833Y-317128571D01*
X-340359404Y-316985714D02*
X-340359404Y-317652380D01*
X-340121309Y-316604761D02*
X-339883214Y-317319047D01*
X-340502261Y-317319047D01*
X-340835595Y-316652380D02*
X-340835595Y-316842857D01*
X-341216547Y-316652380D02*
X-341216547Y-316842857D01*
X-341692738Y-317604761D02*
X-341692738Y-317652380D01*
X-341645119Y-317747619D01*
X-341597500Y-317795238D01*
X-342835595Y-316652380D02*
X-342835595Y-316842857D01*
X-343216547Y-316652380D02*
X-343216547Y-316842857D01*
X-343978452Y-317128571D02*
X-343645119Y-317128571D01*
X-343645119Y-317652380D02*
X-343645119Y-316652380D01*
X-344121309Y-316652380D01*
X-344930833Y-316652380D02*
X-344740357Y-316652380D01*
X-344645119Y-316700000D01*
X-344597500Y-316747619D01*
X-344502261Y-316890476D01*
X-344454642Y-317080952D01*
X-344454642Y-317461904D01*
X-344502261Y-317557142D01*
X-344549880Y-317604761D01*
X-344645119Y-317652380D01*
X-344835595Y-317652380D01*
X-344930833Y-317604761D01*
X-344978452Y-317557142D01*
X-345026071Y-317461904D01*
X-345026071Y-317223809D01*
X-344978452Y-317128571D01*
X-344930833Y-317080952D01*
X-344835595Y-317033333D01*
X-344645119Y-317033333D01*
X-344549880Y-317080952D01*
X-344502261Y-317128571D01*
X-344454642Y-317223809D01*
X-345407023Y-316652380D02*
X-345407023Y-316842857D01*
X-345787976Y-316652380D02*
X-345787976Y-316842857D01*
X-346264166Y-317604761D02*
X-346264166Y-317652380D01*
X-346216547Y-317747619D01*
X-346168928Y-317795238D01*
X-347407023Y-316652380D02*
X-347407023Y-316842857D01*
X-347787976Y-316652380D02*
X-347787976Y-316842857D01*
X-348216547Y-317128571D02*
X-348549880Y-317128571D01*
X-348692738Y-317652380D02*
X-348216547Y-317652380D01*
X-348216547Y-316652380D01*
X-348692738Y-316652380D01*
X-349549880Y-316652380D02*
X-349359404Y-316652380D01*
X-349264166Y-316700000D01*
X-349216547Y-316747619D01*
X-349121309Y-316890476D01*
X-349073690Y-317080952D01*
X-349073690Y-317461904D01*
X-349121309Y-317557142D01*
X-349168928Y-317604761D01*
X-349264166Y-317652380D01*
X-349454642Y-317652380D01*
X-349549880Y-317604761D01*
X-349597500Y-317557142D01*
X-349645119Y-317461904D01*
X-349645119Y-317223809D01*
X-349597500Y-317128571D01*
X-349549880Y-317080952D01*
X-349454642Y-317033333D01*
X-349264166Y-317033333D01*
X-349168928Y-317080952D01*
X-349121309Y-317128571D01*
X-349073690Y-317223809D01*
X-350026071Y-316652380D02*
X-350026071Y-316842857D01*
X-350407023Y-316652380D02*
X-350407023Y-316842857D01*
X-350883214Y-317604761D02*
X-350883214Y-317652380D01*
X-350835595Y-317747619D01*
X-350787976Y-317795238D01*
X-352026071Y-316652380D02*
X-352026071Y-316842857D01*
X-352407023Y-316652380D02*
X-352407023Y-316842857D01*
X-353168928Y-317128571D02*
X-352835595Y-317128571D01*
X-352835595Y-317652380D02*
X-352835595Y-316652380D01*
X-353311785Y-316652380D01*
X-353597500Y-316652380D02*
X-354264166Y-316652380D01*
X-353835595Y-317652380D01*
X-354597500Y-316652380D02*
X-354597500Y-316842857D01*
X-354978452Y-316652380D02*
X-354978452Y-316842857D01*
X-355454642Y-317604761D02*
X-355454642Y-317652380D01*
X-355407023Y-317747619D01*
X-355359404Y-317795238D01*
X-356597500Y-316652380D02*
X-356597500Y-316842857D01*
X-356978452Y-316652380D02*
X-356978452Y-316842857D01*
X-357740357Y-317128571D02*
X-357883214Y-317176190D01*
X-357930833Y-317223809D01*
X-357978452Y-317319047D01*
X-357978452Y-317461904D01*
X-357930833Y-317557142D01*
X-357883214Y-317604761D01*
X-357787976Y-317652380D01*
X-357407023Y-317652380D01*
X-357407023Y-316652380D01*
X-357740357Y-316652380D01*
X-357835595Y-316700000D01*
X-357883214Y-316747619D01*
X-357930833Y-316842857D01*
X-357930833Y-316938095D01*
X-357883214Y-317033333D01*
X-357835595Y-317080952D01*
X-357740357Y-317128571D01*
X-357407023Y-317128571D01*
X-358883214Y-316652380D02*
X-358407023Y-316652380D01*
X-358359404Y-317128571D01*
X-358407023Y-317080952D01*
X-358502261Y-317033333D01*
X-358740357Y-317033333D01*
X-358835595Y-317080952D01*
X-358883214Y-317128571D01*
X-358930833Y-317223809D01*
X-358930833Y-317461904D01*
X-358883214Y-317557142D01*
X-358835595Y-317604761D01*
X-358740357Y-317652380D01*
X-358502261Y-317652380D01*
X-358407023Y-317604761D01*
X-358359404Y-317557142D01*
X-359311785Y-316652380D02*
X-359311785Y-316842857D01*
X-359692738Y-316652380D02*
X-359692738Y-316842857D01*
X-360168928Y-317604761D02*
X-360168928Y-317652380D01*
X-360121309Y-317747619D01*
X-360073690Y-317795238D01*
X-342740357Y-318302380D02*
X-342740357Y-318492857D01*
X-343121309Y-318302380D02*
X-343121309Y-318492857D01*
X-343883214Y-318778571D02*
X-344026071Y-318826190D01*
X-344073690Y-318873809D01*
X-344121309Y-318969047D01*
X-344121309Y-319111904D01*
X-344073690Y-319207142D01*
X-344026071Y-319254761D01*
X-343930833Y-319302380D01*
X-343549880Y-319302380D01*
X-343549880Y-318302380D01*
X-343883214Y-318302380D01*
X-343978452Y-318350000D01*
X-344026071Y-318397619D01*
X-344073690Y-318492857D01*
X-344073690Y-318588095D01*
X-344026071Y-318683333D01*
X-343978452Y-318730952D01*
X-343883214Y-318778571D01*
X-343549880Y-318778571D01*
X-345073690Y-319302380D02*
X-344502261Y-319302380D01*
X-344787976Y-319302380D02*
X-344787976Y-318302380D01*
X-344692738Y-318445238D01*
X-344597500Y-318540476D01*
X-344502261Y-318588095D01*
X-345454642Y-318302380D02*
X-345454642Y-318492857D01*
X-345835595Y-318302380D02*
X-345835595Y-318492857D01*
X-346311785Y-319254761D02*
X-346311785Y-319302380D01*
X-346264166Y-319397619D01*
X-346216547Y-319445238D01*
X-347454642Y-318302380D02*
X-347454642Y-318492857D01*
X-347835595Y-318302380D02*
X-347835595Y-318492857D01*
X-348597500Y-318778571D02*
X-348264166Y-318778571D01*
X-348264166Y-319302380D02*
X-348264166Y-318302380D01*
X-348740357Y-318302380D01*
X-349549880Y-318635714D02*
X-349549880Y-319302380D01*
X-349311785Y-318254761D02*
X-349073690Y-318969047D01*
X-349692738Y-318969047D01*
X-350026071Y-318302380D02*
X-350026071Y-318492857D01*
X-350407023Y-318302380D02*
X-350407023Y-318492857D01*
X-350883214Y-319254761D02*
X-350883214Y-319302380D01*
X-350835595Y-319397619D01*
X-350787976Y-319445238D01*
X-352026071Y-318302380D02*
X-352026071Y-318492857D01*
X-352407023Y-318302380D02*
X-352407023Y-318492857D01*
X-353168928Y-318778571D02*
X-353311785Y-318826190D01*
X-353359404Y-318873809D01*
X-353407023Y-318969047D01*
X-353407023Y-319111904D01*
X-353359404Y-319207142D01*
X-353311785Y-319254761D01*
X-353216547Y-319302380D01*
X-352835595Y-319302380D01*
X-352835595Y-318302380D01*
X-353168928Y-318302380D01*
X-353264166Y-318350000D01*
X-353311785Y-318397619D01*
X-353359404Y-318492857D01*
X-353359404Y-318588095D01*
X-353311785Y-318683333D01*
X-353264166Y-318730952D01*
X-353168928Y-318778571D01*
X-352835595Y-318778571D01*
X-353740357Y-318302380D02*
X-354359404Y-318302380D01*
X-354026071Y-318683333D01*
X-354168928Y-318683333D01*
X-354264166Y-318730952D01*
X-354311785Y-318778571D01*
X-354359404Y-318873809D01*
X-354359404Y-319111904D01*
X-354311785Y-319207142D01*
X-354264166Y-319254761D01*
X-354168928Y-319302380D01*
X-353883214Y-319302380D01*
X-353787976Y-319254761D01*
X-353740357Y-319207142D01*
X-354740357Y-318302380D02*
X-354740357Y-318492857D01*
X-355121309Y-318302380D02*
X-355121309Y-318492857D01*
X-355597500Y-319254761D02*
X-355597500Y-319302380D01*
X-355549880Y-319397619D01*
X-355502261Y-319445238D01*
X-356740357Y-318302380D02*
X-356740357Y-318492857D01*
X-357121309Y-318302380D02*
X-357121309Y-318492857D01*
X-357883214Y-318778571D02*
X-357549880Y-318778571D01*
X-357549880Y-319302380D02*
X-357549880Y-318302380D01*
X-358026071Y-318302380D01*
X-358883214Y-318302380D02*
X-358407023Y-318302380D01*
X-358359404Y-318778571D01*
X-358407023Y-318730952D01*
X-358502261Y-318683333D01*
X-358740357Y-318683333D01*
X-358835595Y-318730952D01*
X-358883214Y-318778571D01*
X-358930833Y-318873809D01*
X-358930833Y-319111904D01*
X-358883214Y-319207142D01*
X-358835595Y-319254761D01*
X-358740357Y-319302380D01*
X-358502261Y-319302380D01*
X-358407023Y-319254761D01*
X-358359404Y-319207142D01*
X-359311785Y-318302380D02*
X-359311785Y-318492857D01*
X-359692738Y-318302380D02*
X-359692738Y-318492857D01*
X-360168928Y-319254761D02*
X-360168928Y-319302380D01*
X-360121309Y-319397619D01*
X-360073690Y-319445238D01*
X-361311785Y-318302380D02*
X-361311785Y-318492857D01*
X-361692738Y-318302380D02*
X-361692738Y-318492857D01*
X-362454642Y-318778571D02*
X-362597500Y-318826190D01*
X-362645119Y-318873809D01*
X-362692738Y-318969047D01*
X-362692738Y-319111904D01*
X-362645119Y-319207142D01*
X-362597500Y-319254761D01*
X-362502261Y-319302380D01*
X-362121309Y-319302380D01*
X-362121309Y-318302380D01*
X-362454642Y-318302380D01*
X-362549880Y-318350000D01*
X-362597500Y-318397619D01*
X-362645119Y-318492857D01*
X-362645119Y-318588095D01*
X-362597500Y-318683333D01*
X-362549880Y-318730952D01*
X-362454642Y-318778571D01*
X-362121309Y-318778571D01*
X-363073690Y-318397619D02*
X-363121309Y-318350000D01*
X-363216547Y-318302380D01*
X-363454642Y-318302380D01*
X-363549880Y-318350000D01*
X-363597500Y-318397619D01*
X-363645119Y-318492857D01*
X-363645119Y-318588095D01*
X-363597500Y-318730952D01*
X-363026071Y-319302380D01*
X-363645119Y-319302380D01*
X-364026071Y-318302380D02*
X-364026071Y-318492857D01*
X-364407023Y-318302380D02*
X-364407023Y-318492857D01*
X-364740357Y-319635714D02*
X-364978452Y-319635714D01*
X-364978452Y-318207142D01*
X-364740357Y-318207142D01*
X-365407023Y-319683333D02*
X-365454642Y-319683333D01*
X-365549880Y-319635714D01*
X-365597500Y-319540476D01*
X-365597500Y-319064285D01*
X-365645119Y-318969047D01*
X-365740357Y-318921428D01*
X-365645119Y-318873809D01*
X-365597500Y-318778571D01*
X-365597500Y-318302380D01*
X-365549880Y-318207142D01*
X-365454642Y-318159523D01*
X-365407023Y-318159523D01*
X-366216547Y-319254761D02*
X-366216547Y-319302380D01*
X-366168928Y-319397619D01*
X-366121309Y-319445238D01*
X-339333333Y-296978571D02*
X-338571428Y-296978571D01*
X-338095238Y-296978571D02*
X-337333333Y-296978571D01*
X-336857142Y-297264285D02*
X-336095238Y-296978571D01*
X-336857142Y-296692857D01*
X-335380952Y-296264285D02*
X-335380952Y-297692857D01*
X-334666666Y-296978571D02*
X-333904761Y-296978571D01*
X-333428571Y-296978571D02*
X-332666666Y-296978571D01*
D10*
X-327632142Y-288892857D02*
X-327560714Y-289107142D01*
X-327489285Y-289178571D01*
X-327346428Y-289250000D01*
X-327132142Y-289250000D01*
X-326989285Y-289178571D01*
X-326917857Y-289107142D01*
X-326846428Y-288964285D01*
X-326846428Y-288392857D01*
X-328346428Y-288392857D01*
X-328346428Y-288892857D01*
X-328275000Y-289035714D01*
X-328203571Y-289107142D01*
X-328060714Y-289178571D01*
X-327917857Y-289178571D01*
X-327775000Y-289107142D01*
X-327703571Y-289035714D01*
X-327632142Y-288892857D01*
X-327632142Y-288392857D01*
X-326846428Y-290535714D02*
X-327632142Y-290535714D01*
X-327775000Y-290464285D01*
X-327846428Y-290321428D01*
X-327846428Y-290035714D01*
X-327775000Y-289892857D01*
X-326917857Y-290535714D02*
X-326846428Y-290392857D01*
X-326846428Y-290035714D01*
X-326917857Y-289892857D01*
X-327060714Y-289821428D01*
X-327203571Y-289821428D01*
X-327346428Y-289892857D01*
X-327417857Y-290035714D01*
X-327417857Y-290392857D01*
X-327489285Y-290535714D01*
X-327846428Y-291035714D02*
X-327846428Y-291607142D01*
X-328346428Y-291250000D02*
X-327060714Y-291250000D01*
X-326917857Y-291321428D01*
X-326846428Y-291464285D01*
X-326846428Y-291607142D01*
X-327846428Y-291892857D02*
X-327846428Y-292464285D01*
X-328346428Y-292107142D02*
X-327060714Y-292107142D01*
X-326917857Y-292178571D01*
X-326846428Y-292321428D01*
X-326846428Y-292464285D01*
X-326917857Y-293535714D02*
X-326846428Y-293392857D01*
X-326846428Y-293107142D01*
X-326917857Y-292964285D01*
X-327060714Y-292892857D01*
X-327632142Y-292892857D01*
X-327775000Y-292964285D01*
X-327846428Y-293107142D01*
X-327846428Y-293392857D01*
X-327775000Y-293535714D01*
X-327632142Y-293607142D01*
X-327489285Y-293607142D01*
X-327346428Y-292892857D01*
X-326846428Y-294250000D02*
X-327846428Y-294250000D01*
X-327560714Y-294250000D02*
X-327703571Y-294321428D01*
X-327775000Y-294392857D01*
X-327846428Y-294535714D01*
X-327846428Y-294678571D01*
X-327846428Y-295035714D02*
X-326846428Y-295392857D01*
X-327846428Y-295750000D02*
X-326846428Y-295392857D01*
X-326489285Y-295250000D01*
X-326417857Y-295178571D01*
X-326346428Y-295035714D01*
X-325296428Y-288428571D02*
X-324867857Y-287285714D01*
X-324439285Y-288428571D01*
X-325296428Y-290285714D02*
X-324867857Y-289142857D01*
X-324439285Y-290285714D01*
X-325796428Y-292071428D02*
X-325510714Y-292071428D01*
X-325796428Y-292642857D02*
X-325510714Y-292642857D01*
X-324867857Y-293285714D02*
X-324867857Y-294428571D01*
X-324296428Y-293857142D02*
X-325439285Y-293857142D01*
X-325796428Y-295071428D02*
X-325510714Y-295071428D01*
X-325796428Y-295642857D02*
X-325510714Y-295642857D01*
D11*
X-271342738Y-308902380D02*
X-271914166Y-308902380D01*
X-271628452Y-309902380D02*
X-271628452Y-308902380D01*
X-272247500Y-309902380D02*
X-272247500Y-308902380D01*
X-272676071Y-309902380D02*
X-272676071Y-309378571D01*
X-272628452Y-309283333D01*
X-272533214Y-309235714D01*
X-272390357Y-309235714D01*
X-272295119Y-309283333D01*
X-272247500Y-309330952D01*
X-273580833Y-309235714D02*
X-273580833Y-309902380D01*
X-273152261Y-309235714D02*
X-273152261Y-309759523D01*
X-273199880Y-309854761D01*
X-273295119Y-309902380D01*
X-273437976Y-309902380D01*
X-273533214Y-309854761D01*
X-273580833Y-309807142D01*
X-274057023Y-309902380D02*
X-274057023Y-309235714D01*
X-274057023Y-309330952D02*
X-274104642Y-309283333D01*
X-274199880Y-309235714D01*
X-274342738Y-309235714D01*
X-274437976Y-309283333D01*
X-274485595Y-309378571D01*
X-274485595Y-309902380D01*
X-274485595Y-309378571D02*
X-274533214Y-309283333D01*
X-274628452Y-309235714D01*
X-274771309Y-309235714D01*
X-274866547Y-309283333D01*
X-274914166Y-309378571D01*
X-274914166Y-309902380D01*
X-275390357Y-309902380D02*
X-275390357Y-308902380D01*
X-275390357Y-309283333D02*
X-275485595Y-309235714D01*
X-275676071Y-309235714D01*
X-275771309Y-309283333D01*
X-275818928Y-309330952D01*
X-275866547Y-309426190D01*
X-275866547Y-309711904D01*
X-275818928Y-309807142D01*
X-275771309Y-309854761D01*
X-275676071Y-309902380D01*
X-275485595Y-309902380D01*
X-275390357Y-309854761D01*
X-276247500Y-309854761D02*
X-276342738Y-309902380D01*
X-276533214Y-309902380D01*
X-276628452Y-309854761D01*
X-276676071Y-309759523D01*
X-276676071Y-309711904D01*
X-276628452Y-309616666D01*
X-276533214Y-309569047D01*
X-276390357Y-309569047D01*
X-276295119Y-309521428D01*
X-276247500Y-309426190D01*
X-276247500Y-309378571D01*
X-276295119Y-309283333D01*
X-276390357Y-309235714D01*
X-276533214Y-309235714D01*
X-276628452Y-309283333D01*
X-277104642Y-308902380D02*
X-277104642Y-309711904D01*
X-277152261Y-309807142D01*
X-277199880Y-309854761D01*
X-277295119Y-309902380D01*
X-277485595Y-309902380D01*
X-277580833Y-309854761D01*
X-277628452Y-309807142D01*
X-277676071Y-309711904D01*
X-277676071Y-308902380D01*
X-278152261Y-309235714D02*
X-278152261Y-310235714D01*
X-278152261Y-309283333D02*
X-278247500Y-309235714D01*
X-278437976Y-309235714D01*
X-278533214Y-309283333D01*
X-278580833Y-309330952D01*
X-278628452Y-309426190D01*
X-278628452Y-309711904D01*
X-278580833Y-309807142D01*
X-278533214Y-309854761D01*
X-278437976Y-309902380D01*
X-278247500Y-309902380D01*
X-278152261Y-309854761D01*
X-279057023Y-309807142D02*
X-279104642Y-309854761D01*
X-279057023Y-309902380D01*
X-279009404Y-309854761D01*
X-279057023Y-309807142D01*
X-279057023Y-309902380D01*
X-279057023Y-309521428D02*
X-279009404Y-308950000D01*
X-279057023Y-308902380D01*
X-279104642Y-308950000D01*
X-279057023Y-309521428D01*
X-279057023Y-308902380D01*
X-280199880Y-309235714D02*
X-280437976Y-309902380D01*
X-280676071Y-309235714D01*
X-281199880Y-309330952D02*
X-281104642Y-309283333D01*
X-281057023Y-309235714D01*
X-281009404Y-309140476D01*
X-281009404Y-309092857D01*
X-281057023Y-308997619D01*
X-281104642Y-308950000D01*
X-281199880Y-308902380D01*
X-281390357Y-308902380D01*
X-281485595Y-308950000D01*
X-281533214Y-308997619D01*
X-281580833Y-309092857D01*
X-281580833Y-309140476D01*
X-281533214Y-309235714D01*
X-281485595Y-309283333D01*
X-281390357Y-309330952D01*
X-281199880Y-309330952D01*
X-281104642Y-309378571D01*
X-281057023Y-309426190D01*
X-281009404Y-309521428D01*
X-281009404Y-309711904D01*
X-281057023Y-309807142D01*
X-281104642Y-309854761D01*
X-281199880Y-309902380D01*
X-281390357Y-309902380D01*
X-281485595Y-309854761D01*
X-281533214Y-309807142D01*
X-281580833Y-309711904D01*
X-281580833Y-309521428D01*
X-281533214Y-309426190D01*
X-281485595Y-309378571D01*
X-281390357Y-309330952D01*
X-282771309Y-309902380D02*
X-282771309Y-308902380D01*
X-283152261Y-308902380D01*
X-283247500Y-308950000D01*
X-283295119Y-308997619D01*
X-283342738Y-309092857D01*
X-283342738Y-309235714D01*
X-283295119Y-309330952D01*
X-283247500Y-309378571D01*
X-283152261Y-309426190D01*
X-282771309Y-309426190D01*
X-283771309Y-309902380D02*
X-283771309Y-309235714D01*
X-283771309Y-309426190D02*
X-283818928Y-309330952D01*
X-283866547Y-309283333D01*
X-283961785Y-309235714D01*
X-284057023Y-309235714D01*
X-284533214Y-309902380D02*
X-284437976Y-309854761D01*
X-284390357Y-309807142D01*
X-284342738Y-309711904D01*
X-284342738Y-309426190D01*
X-284390357Y-309330952D01*
X-284437976Y-309283333D01*
X-284533214Y-309235714D01*
X-284676071Y-309235714D01*
X-284771309Y-309283333D01*
X-284818928Y-309330952D01*
X-284866547Y-309426190D01*
X-284866547Y-309711904D01*
X-284818928Y-309807142D01*
X-284771309Y-309854761D01*
X-284676071Y-309902380D01*
X-284533214Y-309902380D01*
X-285295119Y-309902380D02*
X-285295119Y-308902380D01*
X-285628452Y-309616666D01*
X-285961785Y-308902380D01*
X-285961785Y-309902380D01*
X-286437976Y-309902380D02*
X-286437976Y-309235714D01*
X-286437976Y-308902380D02*
X-286390357Y-308950000D01*
X-286437976Y-308997619D01*
X-286485595Y-308950000D01*
X-286437976Y-308902380D01*
X-286437976Y-308997619D01*
X-287342738Y-309854761D02*
X-287247500Y-309902380D01*
X-287057023Y-309902380D01*
X-286961785Y-309854761D01*
X-286914166Y-309807142D01*
X-286866547Y-309711904D01*
X-286866547Y-309426190D01*
X-286914166Y-309330952D01*
X-286961785Y-309283333D01*
X-287057023Y-309235714D01*
X-287247500Y-309235714D01*
X-287342738Y-309283333D01*
X-287771309Y-309902380D02*
X-287771309Y-309235714D01*
X-287771309Y-309426190D02*
X-287818928Y-309330952D01*
X-287866547Y-309283333D01*
X-287961785Y-309235714D01*
X-288057023Y-309235714D01*
X-288533214Y-309902380D02*
X-288437976Y-309854761D01*
X-288390357Y-309807142D01*
X-288342738Y-309711904D01*
X-288342738Y-309426190D01*
X-288390357Y-309330952D01*
X-288437976Y-309283333D01*
X-288533214Y-309235714D01*
X-288676071Y-309235714D01*
X-288771309Y-309283333D01*
X-288818928Y-309330952D01*
X-288866547Y-309426190D01*
X-288866547Y-309711904D01*
X-288818928Y-309807142D01*
X-288771309Y-309854761D01*
X-288676071Y-309902380D01*
X-288533214Y-309902380D01*
X-271485595Y-311552380D02*
X-271485595Y-310552380D01*
X-272057023Y-311552380D02*
X-271628452Y-310980952D01*
X-272057023Y-310552380D02*
X-271485595Y-311123809D01*
X-272914166Y-311552380D02*
X-272914166Y-311028571D01*
X-272866547Y-310933333D01*
X-272771309Y-310885714D01*
X-272580833Y-310885714D01*
X-272485595Y-310933333D01*
X-272914166Y-311504761D02*
X-272818928Y-311552380D01*
X-272580833Y-311552380D01*
X-272485595Y-311504761D01*
X-272437976Y-311409523D01*
X-272437976Y-311314285D01*
X-272485595Y-311219047D01*
X-272580833Y-311171428D01*
X-272818928Y-311171428D01*
X-272914166Y-311123809D01*
X-273390357Y-311552380D02*
X-273390357Y-310885714D01*
X-273390357Y-310552380D02*
X-273342738Y-310600000D01*
X-273390357Y-310647619D01*
X-273437976Y-310600000D01*
X-273390357Y-310552380D01*
X-273390357Y-310647619D01*
X-274009404Y-311552380D02*
X-273914166Y-311504761D01*
X-273866547Y-311409523D01*
X-273866547Y-310552380D01*
X-274390357Y-311552380D02*
X-274390357Y-310552380D01*
X-274818928Y-311552380D02*
X-274818928Y-311028571D01*
X-274771309Y-310933333D01*
X-274676071Y-310885714D01*
X-274533214Y-310885714D01*
X-274437976Y-310933333D01*
X-274390357Y-310980952D01*
X-276628452Y-311457142D02*
X-276580833Y-311504761D01*
X-276437976Y-311552380D01*
X-276342738Y-311552380D01*
X-276199880Y-311504761D01*
X-276104642Y-311409523D01*
X-276057023Y-311314285D01*
X-276009404Y-311123809D01*
X-276009404Y-310980952D01*
X-276057023Y-310790476D01*
X-276104642Y-310695238D01*
X-276199880Y-310600000D01*
X-276342738Y-310552380D01*
X-276437976Y-310552380D01*
X-276580833Y-310600000D01*
X-276628452Y-310647619D01*
X-277057023Y-311552380D02*
X-277057023Y-310552380D01*
X-277485595Y-311552380D02*
X-277485595Y-311028571D01*
X-277437976Y-310933333D01*
X-277342738Y-310885714D01*
X-277199880Y-310885714D01*
X-277104642Y-310933333D01*
X-277057023Y-310980952D01*
X-278104642Y-311552380D02*
X-278009404Y-311504761D01*
X-277961785Y-311457142D01*
X-277914166Y-311361904D01*
X-277914166Y-311076190D01*
X-277961785Y-310980952D01*
X-278009404Y-310933333D01*
X-278104642Y-310885714D01*
X-278247500Y-310885714D01*
X-278342738Y-310933333D01*
X-278390357Y-310980952D01*
X-278437976Y-311076190D01*
X-278437976Y-311361904D01*
X-278390357Y-311457142D01*
X-278342738Y-311504761D01*
X-278247500Y-311552380D01*
X-278104642Y-311552380D01*
X-279295119Y-311504761D02*
X-279199880Y-311552380D01*
X-279009404Y-311552380D01*
X-278914166Y-311504761D01*
X-278866547Y-311457142D01*
X-278818928Y-311361904D01*
X-278818928Y-311076190D01*
X-278866547Y-310980952D01*
X-278914166Y-310933333D01*
X-279009404Y-310885714D01*
X-279199880Y-310885714D01*
X-279295119Y-310933333D01*
X-280437976Y-310504761D02*
X-279580833Y-311790476D01*
X-281295119Y-310600000D02*
X-281199880Y-310552380D01*
X-281057023Y-310552380D01*
X-280914166Y-310600000D01*
X-280818928Y-310695238D01*
X-280771309Y-310790476D01*
X-280723690Y-310980952D01*
X-280723690Y-311123809D01*
X-280771309Y-311314285D01*
X-280818928Y-311409523D01*
X-280914166Y-311504761D01*
X-281057023Y-311552380D01*
X-281152261Y-311552380D01*
X-281295119Y-311504761D01*
X-281342738Y-311457142D01*
X-281342738Y-311123809D01*
X-281152261Y-311123809D01*
X-282199880Y-311552380D02*
X-282199880Y-311028571D01*
X-282152261Y-310933333D01*
X-282057023Y-310885714D01*
X-281866547Y-310885714D01*
X-281771309Y-310933333D01*
X-282199880Y-311504761D02*
X-282104642Y-311552380D01*
X-281866547Y-311552380D01*
X-281771309Y-311504761D01*
X-281723690Y-311409523D01*
X-281723690Y-311314285D01*
X-281771309Y-311219047D01*
X-281866547Y-311171428D01*
X-282104642Y-311171428D01*
X-282199880Y-311123809D01*
X-282533214Y-310885714D02*
X-282914166Y-310885714D01*
X-282676071Y-310552380D02*
X-282676071Y-311409523D01*
X-282723690Y-311504761D01*
X-282818928Y-311552380D01*
X-282914166Y-311552380D01*
X-284485595Y-311552380D02*
X-284009404Y-311552380D01*
X-284009404Y-310552380D01*
X-284961785Y-311552380D02*
X-284866547Y-311504761D01*
X-284818928Y-311457142D01*
X-284771309Y-311361904D01*
X-284771309Y-311076190D01*
X-284818928Y-310980952D01*
X-284866547Y-310933333D01*
X-284961785Y-310885714D01*
X-285104642Y-310885714D01*
X-285199880Y-310933333D01*
X-285247500Y-310980952D01*
X-285295119Y-311076190D01*
X-285295119Y-311361904D01*
X-285247500Y-311457142D01*
X-285199880Y-311504761D01*
X-285104642Y-311552380D01*
X-284961785Y-311552380D01*
X-285628452Y-310885714D02*
X-285818928Y-311552380D01*
X-286009404Y-311076190D01*
X-286199880Y-311552380D01*
X-286390357Y-310885714D01*
X-287533214Y-311552380D02*
X-287533214Y-310552380D01*
X-287914166Y-310552380D01*
X-288009404Y-310600000D01*
X-288057023Y-310647619D01*
X-288104642Y-310742857D01*
X-288104642Y-310885714D01*
X-288057023Y-310980952D01*
X-288009404Y-311028571D01*
X-287914166Y-311076190D01*
X-287533214Y-311076190D01*
X-288533214Y-311552380D02*
X-288533214Y-310885714D01*
X-288533214Y-311076190D02*
X-288580833Y-310980952D01*
X-288628452Y-310933333D01*
X-288723690Y-310885714D01*
X-288818928Y-310885714D01*
X-289295119Y-311552380D02*
X-289199880Y-311504761D01*
X-289152261Y-311457142D01*
X-289104642Y-311361904D01*
X-289104642Y-311076190D01*
X-289152261Y-310980952D01*
X-289199880Y-310933333D01*
X-289295119Y-310885714D01*
X-289437976Y-310885714D01*
X-289533214Y-310933333D01*
X-289580833Y-310980952D01*
X-289628452Y-311076190D01*
X-289628452Y-311361904D01*
X-289580833Y-311457142D01*
X-289533214Y-311504761D01*
X-289437976Y-311552380D01*
X-289295119Y-311552380D01*
X-289914166Y-310885714D02*
X-290295119Y-310885714D01*
X-290057023Y-311552380D02*
X-290057023Y-310695238D01*
X-290104642Y-310600000D01*
X-290199880Y-310552380D01*
X-290295119Y-310552380D01*
X-290628452Y-311552380D02*
X-290628452Y-310885714D01*
X-290628452Y-310552380D02*
X-290580833Y-310600000D01*
X-290628452Y-310647619D01*
X-290676071Y-310600000D01*
X-290628452Y-310552380D01*
X-290628452Y-310647619D01*
X-291247500Y-311552380D02*
X-291152261Y-311504761D01*
X-291104642Y-311409523D01*
X-291104642Y-310552380D01*
X-292009404Y-311504761D02*
X-291914166Y-311552380D01*
X-291723690Y-311552380D01*
X-291628452Y-311504761D01*
X-291580833Y-311409523D01*
X-291580833Y-311028571D01*
X-291628452Y-310933333D01*
X-291723690Y-310885714D01*
X-291914166Y-310885714D01*
X-292009404Y-310933333D01*
X-292057023Y-311028571D01*
X-292057023Y-311123809D01*
X-291580833Y-311219047D01*
X-293247500Y-311552380D02*
X-293247500Y-310552380D01*
X-293247500Y-311028571D02*
X-293818928Y-311028571D01*
X-293818928Y-311552380D02*
X-293818928Y-310552380D01*
X-294437976Y-311552380D02*
X-294342738Y-311504761D01*
X-294295119Y-311457142D01*
X-294247500Y-311361904D01*
X-294247500Y-311076190D01*
X-294295119Y-310980952D01*
X-294342738Y-310933333D01*
X-294437976Y-310885714D01*
X-294580833Y-310885714D01*
X-294676071Y-310933333D01*
X-294723690Y-310980952D01*
X-294771309Y-311076190D01*
X-294771309Y-311361904D01*
X-294723690Y-311457142D01*
X-294676071Y-311504761D01*
X-294580833Y-311552380D01*
X-294437976Y-311552380D01*
X-295057023Y-310885714D02*
X-295437976Y-310885714D01*
X-295199880Y-310552380D02*
X-295199880Y-311409523D01*
X-295247500Y-311504761D01*
X-295342738Y-311552380D01*
X-295437976Y-311552380D01*
X-295771309Y-311171428D02*
X-296533214Y-311171428D01*
X-296961785Y-311504761D02*
X-297104642Y-311552380D01*
X-297342738Y-311552380D01*
X-297437976Y-311504761D01*
X-297485595Y-311457142D01*
X-297533214Y-311361904D01*
X-297533214Y-311266666D01*
X-297485595Y-311171428D01*
X-297437976Y-311123809D01*
X-297342738Y-311076190D01*
X-297152261Y-311028571D01*
X-297057023Y-310980952D01*
X-297009404Y-310933333D01*
X-296961785Y-310838095D01*
X-296961785Y-310742857D01*
X-297009404Y-310647619D01*
X-297057023Y-310600000D01*
X-297152261Y-310552380D01*
X-297390357Y-310552380D01*
X-297533214Y-310600000D01*
X-297866547Y-310885714D02*
X-298057023Y-311552380D01*
X-298247500Y-311076190D01*
X-298437976Y-311552380D01*
X-298628452Y-310885714D01*
X-299437976Y-311552380D02*
X-299437976Y-311028571D01*
X-299390357Y-310933333D01*
X-299295119Y-310885714D01*
X-299104642Y-310885714D01*
X-299009404Y-310933333D01*
X-299437976Y-311504761D02*
X-299342738Y-311552380D01*
X-299104642Y-311552380D01*
X-299009404Y-311504761D01*
X-298961785Y-311409523D01*
X-298961785Y-311314285D01*
X-299009404Y-311219047D01*
X-299104642Y-311171428D01*
X-299342738Y-311171428D01*
X-299437976Y-311123809D01*
X-299914166Y-310885714D02*
X-299914166Y-311885714D01*
X-299914166Y-310933333D02*
X-300009404Y-310885714D01*
X-300199880Y-310885714D01*
X-300295119Y-310933333D01*
X-300342738Y-310980952D01*
X-300390357Y-311076190D01*
X-300390357Y-311361904D01*
X-300342738Y-311457142D01*
X-300295119Y-311504761D01*
X-300199880Y-311552380D01*
X-300009404Y-311552380D01*
X-299914166Y-311504761D01*
X-301533214Y-311504761D02*
X-301676071Y-311552380D01*
X-301914166Y-311552380D01*
X-302009404Y-311504761D01*
X-302057023Y-311457142D01*
X-302104642Y-311361904D01*
X-302104642Y-311266666D01*
X-302057023Y-311171428D01*
X-302009404Y-311123809D01*
X-301914166Y-311076190D01*
X-301723690Y-311028571D01*
X-301628452Y-310980952D01*
X-301580833Y-310933333D01*
X-301533214Y-310838095D01*
X-301533214Y-310742857D01*
X-301580833Y-310647619D01*
X-301628452Y-310600000D01*
X-301723690Y-310552380D01*
X-301961785Y-310552380D01*
X-302104642Y-310600000D01*
X-302676071Y-311552380D02*
X-302580833Y-311504761D01*
X-302533214Y-311457142D01*
X-302485595Y-311361904D01*
X-302485595Y-311076190D01*
X-302533214Y-310980952D01*
X-302580833Y-310933333D01*
X-302676071Y-310885714D01*
X-302818928Y-310885714D01*
X-302914166Y-310933333D01*
X-302961785Y-310980952D01*
X-303009404Y-311076190D01*
X-303009404Y-311361904D01*
X-302961785Y-311457142D01*
X-302914166Y-311504761D01*
X-302818928Y-311552380D01*
X-302676071Y-311552380D01*
X-303866547Y-311504761D02*
X-303771309Y-311552380D01*
X-303580833Y-311552380D01*
X-303485595Y-311504761D01*
X-303437976Y-311457142D01*
X-303390357Y-311361904D01*
X-303390357Y-311076190D01*
X-303437976Y-310980952D01*
X-303485595Y-310933333D01*
X-303580833Y-310885714D01*
X-303771309Y-310885714D01*
X-303866547Y-310933333D01*
X-304295119Y-311552380D02*
X-304295119Y-310552380D01*
X-304390357Y-311171428D02*
X-304676071Y-311552380D01*
X-304676071Y-310885714D02*
X-304295119Y-311266666D01*
X-305485595Y-311504761D02*
X-305390357Y-311552380D01*
X-305199880Y-311552380D01*
X-305104642Y-311504761D01*
X-305057023Y-311409523D01*
X-305057023Y-311028571D01*
X-305104642Y-310933333D01*
X-305199880Y-310885714D01*
X-305390357Y-310885714D01*
X-305485595Y-310933333D01*
X-305533214Y-311028571D01*
X-305533214Y-311123809D01*
X-305057023Y-311219047D01*
X-305818928Y-310885714D02*
X-306199880Y-310885714D01*
X-305961785Y-310552380D02*
X-305961785Y-311409523D01*
X-306009404Y-311504761D01*
X-306104642Y-311552380D01*
X-306199880Y-311552380D01*
X-306485595Y-311504761D02*
X-306580833Y-311552380D01*
X-306771309Y-311552380D01*
X-306866547Y-311504761D01*
X-306914166Y-311409523D01*
X-306914166Y-311361904D01*
X-306866547Y-311266666D01*
X-306771309Y-311219047D01*
X-306628452Y-311219047D01*
X-306533214Y-311171428D01*
X-306485595Y-311076190D01*
X-306485595Y-311028571D01*
X-306533214Y-310933333D01*
X-306628452Y-310885714D01*
X-306771309Y-310885714D01*
X-306866547Y-310933333D01*
X-271914166Y-312535714D02*
X-271914166Y-313202380D01*
X-271485595Y-312535714D02*
X-271485595Y-313059523D01*
X-271533214Y-313154761D01*
X-271628452Y-313202380D01*
X-271771309Y-313202380D01*
X-271866547Y-313154761D01*
X-271914166Y-313107142D01*
X-273104642Y-312154761D02*
X-272247500Y-313440476D01*
X-273866547Y-313202380D02*
X-273866547Y-312678571D01*
X-273818928Y-312583333D01*
X-273723690Y-312535714D01*
X-273533214Y-312535714D01*
X-273437976Y-312583333D01*
X-273866547Y-313154761D02*
X-273771309Y-313202380D01*
X-273533214Y-313202380D01*
X-273437976Y-313154761D01*
X-273390357Y-313059523D01*
X-273390357Y-312964285D01*
X-273437976Y-312869047D01*
X-273533214Y-312821428D01*
X-273771309Y-312821428D01*
X-273866547Y-312773809D01*
X-274342738Y-313202380D02*
X-274342738Y-312202380D01*
X-274437976Y-312821428D02*
X-274723690Y-313202380D01*
X-274723690Y-312535714D02*
X-274342738Y-312916666D01*
X-275580833Y-312202380D02*
X-275390357Y-312202380D01*
X-275295119Y-312250000D01*
X-275247500Y-312297619D01*
X-275152261Y-312440476D01*
X-275104642Y-312630952D01*
X-275104642Y-313011904D01*
X-275152261Y-313107142D01*
X-275199880Y-313154761D01*
X-275295119Y-313202380D01*
X-275485595Y-313202380D01*
X-275580833Y-313154761D01*
X-275628452Y-313107142D01*
X-275676071Y-313011904D01*
X-275676071Y-312773809D01*
X-275628452Y-312678571D01*
X-275580833Y-312630952D01*
X-275485595Y-312583333D01*
X-275295119Y-312583333D01*
X-275199880Y-312630952D01*
X-275152261Y-312678571D01*
X-275104642Y-312773809D01*
X-276533214Y-312202380D02*
X-276342738Y-312202380D01*
X-276247500Y-312250000D01*
X-276199880Y-312297619D01*
X-276104642Y-312440476D01*
X-276057023Y-312630952D01*
X-276057023Y-313011904D01*
X-276104642Y-313107142D01*
X-276152261Y-313154761D01*
X-276247500Y-313202380D01*
X-276437976Y-313202380D01*
X-276533214Y-313154761D01*
X-276580833Y-313107142D01*
X-276628452Y-313011904D01*
X-276628452Y-312773809D01*
X-276580833Y-312678571D01*
X-276533214Y-312630952D01*
X-276437976Y-312583333D01*
X-276247500Y-312583333D01*
X-276152261Y-312630952D01*
X-276104642Y-312678571D01*
X-276057023Y-312773809D01*
X-277485595Y-312202380D02*
X-277295119Y-312202380D01*
X-277199880Y-312250000D01*
X-277152261Y-312297619D01*
X-277057023Y-312440476D01*
X-277009404Y-312630952D01*
X-277009404Y-313011904D01*
X-277057023Y-313107142D01*
X-277104642Y-313154761D01*
X-277199880Y-313202380D01*
X-277390357Y-313202380D01*
X-277485595Y-313154761D01*
X-277533214Y-313107142D01*
X-277580833Y-313011904D01*
X-277580833Y-312773809D01*
X-277533214Y-312678571D01*
X-277485595Y-312630952D01*
X-277390357Y-312583333D01*
X-277199880Y-312583333D01*
X-277104642Y-312630952D01*
X-277057023Y-312678571D01*
X-277009404Y-312773809D01*
X-278437976Y-312202380D02*
X-278247500Y-312202380D01*
X-278152261Y-312250000D01*
X-278104642Y-312297619D01*
X-278009404Y-312440476D01*
X-277961785Y-312630952D01*
X-277961785Y-313011904D01*
X-278009404Y-313107142D01*
X-278057023Y-313154761D01*
X-278152261Y-313202380D01*
X-278342738Y-313202380D01*
X-278437976Y-313154761D01*
X-278485595Y-313107142D01*
X-278533214Y-313011904D01*
X-278533214Y-312773809D01*
X-278485595Y-312678571D01*
X-278437976Y-312630952D01*
X-278342738Y-312583333D01*
X-278152261Y-312583333D01*
X-278057023Y-312630952D01*
X-278009404Y-312678571D01*
X-277961785Y-312773809D01*
X-279390357Y-312202380D02*
X-279199880Y-312202380D01*
X-279104642Y-312250000D01*
X-279057023Y-312297619D01*
X-278961785Y-312440476D01*
X-278914166Y-312630952D01*
X-278914166Y-313011904D01*
X-278961785Y-313107142D01*
X-279009404Y-313154761D01*
X-279104642Y-313202380D01*
X-279295119Y-313202380D01*
X-279390357Y-313154761D01*
X-279437976Y-313107142D01*
X-279485595Y-313011904D01*
X-279485595Y-312773809D01*
X-279437976Y-312678571D01*
X-279390357Y-312630952D01*
X-279295119Y-312583333D01*
X-279104642Y-312583333D01*
X-279009404Y-312630952D01*
X-278961785Y-312678571D01*
X-278914166Y-312773809D01*
X-279961785Y-313154761D02*
X-279961785Y-313202380D01*
X-279914166Y-313297619D01*
X-279866547Y-313345238D01*
X-281342738Y-312202380D02*
X-281533214Y-312202380D01*
X-281628452Y-312250000D01*
X-281723690Y-312345238D01*
X-281771309Y-312535714D01*
X-281771309Y-312869047D01*
X-281723690Y-313059523D01*
X-281628452Y-313154761D01*
X-281533214Y-313202380D01*
X-281342738Y-313202380D01*
X-281247500Y-313154761D01*
X-281152261Y-313059523D01*
X-281104642Y-312869047D01*
X-281104642Y-312535714D01*
X-281152261Y-312345238D01*
X-281247500Y-312250000D01*
X-281342738Y-312202380D01*
X-282628452Y-313154761D02*
X-282533214Y-313202380D01*
X-282342738Y-313202380D01*
X-282247500Y-313154761D01*
X-282199880Y-313107142D01*
X-282152261Y-313011904D01*
X-282152261Y-312726190D01*
X-282199880Y-312630952D01*
X-282247500Y-312583333D01*
X-282342738Y-312535714D01*
X-282533214Y-312535714D01*
X-282628452Y-312583333D01*
X-282914166Y-312535714D02*
X-283295119Y-312535714D01*
X-283057023Y-312202380D02*
X-283057023Y-313059523D01*
X-283104642Y-313154761D01*
X-283199880Y-313202380D01*
X-283295119Y-313202380D01*
X-284580833Y-312202380D02*
X-284676071Y-312202380D01*
X-284771309Y-312250000D01*
X-284818928Y-312297619D01*
X-284866547Y-312392857D01*
X-284914166Y-312583333D01*
X-284914166Y-312821428D01*
X-284866547Y-313011904D01*
X-284818928Y-313107142D01*
X-284771309Y-313154761D01*
X-284676071Y-313202380D01*
X-284580833Y-313202380D01*
X-284485595Y-313154761D01*
X-284437976Y-313107142D01*
X-284390357Y-313011904D01*
X-284342738Y-312821428D01*
X-284342738Y-312583333D01*
X-284390357Y-312392857D01*
X-284437976Y-312297619D01*
X-284485595Y-312250000D01*
X-284580833Y-312202380D01*
X-285866547Y-313202380D02*
X-285295119Y-313202380D01*
X-285580833Y-313202380D02*
X-285580833Y-312202380D01*
X-285485595Y-312345238D01*
X-285390357Y-312440476D01*
X-285295119Y-312488095D01*
X-286342738Y-313154761D02*
X-286342738Y-313202380D01*
X-286295119Y-313297619D01*
X-286247500Y-313345238D01*
X-287485595Y-312297619D02*
X-287533214Y-312250000D01*
X-287628452Y-312202380D01*
X-287866547Y-312202380D01*
X-287961785Y-312250000D01*
X-288009404Y-312297619D01*
X-288057023Y-312392857D01*
X-288057023Y-312488095D01*
X-288009404Y-312630952D01*
X-287437976Y-313202380D01*
X-288057023Y-313202380D01*
X-288676071Y-312202380D02*
X-288771309Y-312202380D01*
X-288866547Y-312250000D01*
X-288914166Y-312297619D01*
X-288961785Y-312392857D01*
X-289009404Y-312583333D01*
X-289009404Y-312821428D01*
X-288961785Y-313011904D01*
X-288914166Y-313107142D01*
X-288866547Y-313154761D01*
X-288771309Y-313202380D01*
X-288676071Y-313202380D01*
X-288580833Y-313154761D01*
X-288533214Y-313107142D01*
X-288485595Y-313011904D01*
X-288437976Y-312821428D01*
X-288437976Y-312583333D01*
X-288485595Y-312392857D01*
X-288533214Y-312297619D01*
X-288580833Y-312250000D01*
X-288676071Y-312202380D01*
X-289390357Y-312297619D02*
X-289437976Y-312250000D01*
X-289533214Y-312202380D01*
X-289771309Y-312202380D01*
X-289866547Y-312250000D01*
X-289914166Y-312297619D01*
X-289961785Y-312392857D01*
X-289961785Y-312488095D01*
X-289914166Y-312630952D01*
X-289342738Y-313202380D01*
X-289961785Y-313202380D01*
X-290295119Y-312202380D02*
X-290914166Y-312202380D01*
X-290580833Y-312583333D01*
X-290723690Y-312583333D01*
X-290818928Y-312630952D01*
X-290866547Y-312678571D01*
X-290914166Y-312773809D01*
X-290914166Y-313011904D01*
X-290866547Y-313107142D01*
X-290818928Y-313154761D01*
X-290723690Y-313202380D01*
X-290437976Y-313202380D01*
X-290342738Y-313154761D01*
X-290295119Y-313107142D01*
X-339478571Y-297716666D02*
X-339478571Y-298478571D01*
X-339478571Y-298954761D02*
X-339478571Y-299716666D01*
X-339764285Y-300192857D02*
X-339478571Y-300954761D01*
X-339192857Y-300192857D01*
X-338764285Y-301669047D02*
X-340192857Y-301669047D01*
X-339478571Y-302383333D02*
X-339478571Y-303145238D01*
X-339478571Y-303621428D02*
X-339478571Y-304383333D01*
X-305466666Y-308071428D02*
X-306228571Y-308071428D01*
X-306704761Y-308071428D02*
X-307466666Y-308071428D01*
X-307942857Y-307785714D02*
X-308704761Y-308071428D01*
X-307942857Y-308357142D01*
X-309419047Y-308785714D02*
X-309419047Y-307357142D01*
X-310133333Y-308071428D02*
X-310895238Y-308071428D01*
X-311371428Y-308071428D02*
X-312133333Y-308071428D01*
X-261228571Y-294666666D02*
X-261228571Y-295428571D01*
X-261228571Y-295904761D02*
X-261228571Y-296666666D01*
X-261514285Y-297142857D02*
X-261228571Y-297904761D01*
X-260942857Y-297142857D01*
X-260514285Y-298619047D02*
X-261942857Y-298619047D01*
X-261228571Y-299333333D02*
X-261228571Y-300095238D01*
X-261228571Y-300571428D02*
X-261228571Y-301333333D01*
X-317757142Y-268527380D02*
X-317757142Y-267527380D01*
X-318138095Y-267527380D01*
X-318233333Y-267575000D01*
X-318280952Y-267622619D01*
X-318328571Y-267717857D01*
X-318328571Y-267860714D01*
X-318280952Y-267955952D01*
X-318233333Y-268003571D01*
X-318138095Y-268051190D01*
X-317757142Y-268051190D01*
X-319185714Y-267860714D02*
X-319185714Y-268527380D01*
X-318757142Y-267860714D02*
X-318757142Y-268384523D01*
X-318804761Y-268479761D01*
X-318900000Y-268527380D01*
X-319042857Y-268527380D01*
X-319138095Y-268479761D01*
X-319185714Y-268432142D01*
X-319519047Y-267860714D02*
X-319900000Y-267860714D01*
X-319661904Y-267527380D02*
X-319661904Y-268384523D01*
X-319709523Y-268479761D01*
X-319804761Y-268527380D01*
X-319900000Y-268527380D01*
X-320995238Y-268527380D02*
X-320995238Y-267527380D01*
X-321376190Y-267527380D01*
X-321471428Y-267575000D01*
X-321519047Y-267622619D01*
X-321566666Y-267717857D01*
X-321566666Y-267860714D01*
X-321519047Y-267955952D01*
X-321471428Y-268003571D01*
X-321376190Y-268051190D01*
X-320995238Y-268051190D01*
X-321995238Y-268527380D02*
X-321995238Y-267860714D01*
X-321995238Y-268051190D02*
X-322042857Y-267955952D01*
X-322090476Y-267908333D01*
X-322185714Y-267860714D01*
X-322280952Y-267860714D01*
X-322757142Y-268527380D02*
X-322661904Y-268479761D01*
X-322614285Y-268432142D01*
X-322566666Y-268336904D01*
X-322566666Y-268051190D01*
X-322614285Y-267955952D01*
X-322661904Y-267908333D01*
X-322757142Y-267860714D01*
X-322900000Y-267860714D01*
X-322995238Y-267908333D01*
X-323042857Y-267955952D01*
X-323090476Y-268051190D01*
X-323090476Y-268336904D01*
X-323042857Y-268432142D01*
X-322995238Y-268479761D01*
X-322900000Y-268527380D01*
X-322757142Y-268527380D01*
X-323519047Y-268527380D02*
X-323519047Y-267527380D01*
X-323852380Y-268241666D01*
X-324185714Y-267527380D01*
X-324185714Y-268527380D01*
X-324661904Y-268527380D02*
X-324661904Y-267860714D01*
X-324661904Y-267527380D02*
X-324614285Y-267575000D01*
X-324661904Y-267622619D01*
X-324709523Y-267575000D01*
X-324661904Y-267527380D01*
X-324661904Y-267622619D01*
X-325566666Y-268479761D02*
X-325471428Y-268527380D01*
X-325280952Y-268527380D01*
X-325185714Y-268479761D01*
X-325138095Y-268432142D01*
X-325090476Y-268336904D01*
X-325090476Y-268051190D01*
X-325138095Y-267955952D01*
X-325185714Y-267908333D01*
X-325280952Y-267860714D01*
X-325471428Y-267860714D01*
X-325566666Y-267908333D01*
X-325995238Y-268527380D02*
X-325995238Y-267860714D01*
X-325995238Y-268051190D02*
X-326042857Y-267955952D01*
X-326090476Y-267908333D01*
X-326185714Y-267860714D01*
X-326280952Y-267860714D01*
X-326757142Y-268527380D02*
X-326661904Y-268479761D01*
X-326614285Y-268432142D01*
X-326566666Y-268336904D01*
X-326566666Y-268051190D01*
X-326614285Y-267955952D01*
X-326661904Y-267908333D01*
X-326757142Y-267860714D01*
X-326900000Y-267860714D01*
X-326995238Y-267908333D01*
X-327042857Y-267955952D01*
X-327090476Y-268051190D01*
X-327090476Y-268336904D01*
X-327042857Y-268432142D01*
X-326995238Y-268479761D01*
X-326900000Y-268527380D01*
X-326757142Y-268527380D01*
X-318376190Y-269653571D02*
X-318042857Y-269653571D01*
X-318042857Y-270177380D02*
X-318042857Y-269177380D01*
X-318519047Y-269177380D01*
X-319328571Y-270177380D02*
X-319328571Y-269653571D01*
X-319280952Y-269558333D01*
X-319185714Y-269510714D01*
X-318995238Y-269510714D01*
X-318900000Y-269558333D01*
X-319328571Y-270129761D02*
X-319233333Y-270177380D01*
X-318995238Y-270177380D01*
X-318900000Y-270129761D01*
X-318852380Y-270034523D01*
X-318852380Y-269939285D01*
X-318900000Y-269844047D01*
X-318995238Y-269796428D01*
X-319233333Y-269796428D01*
X-319328571Y-269748809D01*
X-320233333Y-270129761D02*
X-320138095Y-270177380D01*
X-319947619Y-270177380D01*
X-319852380Y-270129761D01*
X-319804761Y-270082142D01*
X-319757142Y-269986904D01*
X-319757142Y-269701190D01*
X-319804761Y-269605952D01*
X-319852380Y-269558333D01*
X-319947619Y-269510714D01*
X-320138095Y-269510714D01*
X-320233333Y-269558333D01*
X-321042857Y-270129761D02*
X-320947619Y-270177380D01*
X-320757142Y-270177380D01*
X-320661904Y-270129761D01*
X-320614285Y-270034523D01*
X-320614285Y-269653571D01*
X-320661904Y-269558333D01*
X-320757142Y-269510714D01*
X-320947619Y-269510714D01*
X-321042857Y-269558333D01*
X-321090476Y-269653571D01*
X-321090476Y-269748809D01*
X-320614285Y-269844047D01*
X-322138095Y-269510714D02*
X-322519047Y-269510714D01*
X-322280952Y-269177380D02*
X-322280952Y-270034523D01*
X-322328571Y-270129761D01*
X-322423809Y-270177380D01*
X-322519047Y-270177380D01*
X-322995238Y-270177380D02*
X-322900000Y-270129761D01*
X-322852380Y-270082142D01*
X-322804761Y-269986904D01*
X-322804761Y-269701190D01*
X-322852380Y-269605952D01*
X-322900000Y-269558333D01*
X-322995238Y-269510714D01*
X-323138095Y-269510714D01*
X-323233333Y-269558333D01*
X-323280952Y-269605952D01*
X-323328571Y-269701190D01*
X-323328571Y-269986904D01*
X-323280952Y-270082142D01*
X-323233333Y-270129761D01*
X-323138095Y-270177380D01*
X-322995238Y-270177380D01*
X-324519047Y-270177380D02*
X-324519047Y-269177380D01*
X-324900000Y-269177380D01*
X-324995238Y-269225000D01*
X-325042857Y-269272619D01*
X-325090476Y-269367857D01*
X-325090476Y-269510714D01*
X-325042857Y-269605952D01*
X-324995238Y-269653571D01*
X-324900000Y-269701190D01*
X-324519047Y-269701190D01*
X-326090476Y-270082142D02*
X-326042857Y-270129761D01*
X-325900000Y-270177380D01*
X-325804761Y-270177380D01*
X-325661904Y-270129761D01*
X-325566666Y-270034523D01*
X-325519047Y-269939285D01*
X-325471428Y-269748809D01*
X-325471428Y-269605952D01*
X-325519047Y-269415476D01*
X-325566666Y-269320238D01*
X-325661904Y-269225000D01*
X-325804761Y-269177380D01*
X-325900000Y-269177380D01*
X-326042857Y-269225000D01*
X-326090476Y-269272619D01*
X-326852380Y-269653571D02*
X-326995238Y-269701190D01*
X-327042857Y-269748809D01*
X-327090476Y-269844047D01*
X-327090476Y-269986904D01*
X-327042857Y-270082142D01*
X-326995238Y-270129761D01*
X-326900000Y-270177380D01*
X-326519047Y-270177380D01*
X-326519047Y-269177380D01*
X-326852380Y-269177380D01*
X-326947619Y-269225000D01*
X-326995238Y-269272619D01*
X-327042857Y-269367857D01*
X-327042857Y-269463095D01*
X-326995238Y-269558333D01*
X-326947619Y-269605952D01*
X-326852380Y-269653571D01*
X-326519047Y-269653571D01*
X-327519047Y-270082142D02*
X-327566666Y-270129761D01*
X-327519047Y-270177380D01*
X-327471428Y-270129761D01*
X-327519047Y-270082142D01*
X-327519047Y-270177380D01*
X-351321428Y-313033333D02*
X-351321428Y-312271428D01*
X-351321428Y-311795238D02*
X-351321428Y-311033333D01*
X-351035714Y-310557142D02*
X-351321428Y-309795238D01*
X-351607142Y-310557142D01*
X-352035714Y-309080952D02*
X-350607142Y-309080952D01*
X-351321428Y-308366666D02*
X-351321428Y-307604761D01*
X-351321428Y-307128571D02*
X-351321428Y-306366666D01*
D12*
X-310800000Y-275750000D02*
X-306900000Y-275750000D01*
X-310800000Y-273750000D02*
X-306900000Y-273750000D01*
X-310800000Y-275750000D02*
X-310800000Y-273750000D01*
X-355050000Y-302850000D02*
X-355050000Y-298950000D01*
X-357050000Y-302850000D02*
X-357050000Y-298950000D01*
X-355050000Y-302850000D02*
X-357050000Y-302850000D01*
X-357650000Y-302850000D02*
X-357650000Y-298950000D01*
X-359650000Y-302850000D02*
X-359650000Y-298950000D01*
X-357650000Y-302850000D02*
X-359650000Y-302850000D01*
X-334123500Y-271157400D02*
X-338023500Y-271157400D01*
X-334123500Y-273157400D02*
X-338023500Y-273157400D01*
X-334123500Y-271157400D02*
X-334123500Y-273157400D01*
X-274876930Y-301700000D02*
X-274876930Y-297800000D01*
X-276876930Y-301700000D02*
X-276876930Y-297800000D01*
X-274876930Y-301700000D02*
X-276876930Y-301700000D01*
X-365595455Y-302850000D02*
X-365595455Y-298950000D01*
X-367595455Y-302850000D02*
X-367595455Y-298950000D01*
X-365595455Y-302850000D02*
X-367595455Y-302850000D01*
X-310800000Y-292900000D02*
X-306900000Y-292900000D01*
X-310800000Y-290900000D02*
X-306900000Y-290900000D01*
X-310800000Y-292900000D02*
X-310800000Y-290900000D01*
X-364677267Y-307300000D02*
X-364677267Y-311200000D01*
X-362677267Y-307300000D02*
X-362677267Y-311200000D01*
X-364677267Y-307300000D02*
X-362677267Y-307300000D01*
X-310800000Y-305350000D02*
X-306900000Y-305350000D01*
X-310800000Y-303350000D02*
X-306900000Y-303350000D01*
X-310800000Y-305350000D02*
X-310800000Y-303350000D01*
X-297350000Y-301700000D02*
X-297350000Y-297800000D01*
X-299350000Y-301700000D02*
X-299350000Y-297800000D01*
X-297350000Y-301700000D02*
X-299350000Y-301700000D01*
X-280434620Y-301700000D02*
X-280434620Y-297800000D01*
X-282434620Y-301700000D02*
X-282434620Y-297800000D01*
X-280434620Y-301700000D02*
X-282434620Y-301700000D01*
X-370486363Y-302850000D02*
X-370486363Y-298950000D01*
X-372486363Y-302850000D02*
X-372486363Y-298950000D01*
X-370486363Y-302850000D02*
X-372486363Y-302850000D01*
X-334123500Y-293597400D02*
X-338023500Y-293597400D01*
X-334123500Y-295597400D02*
X-338023500Y-295597400D01*
X-334123500Y-293597400D02*
X-334123500Y-295597400D01*
X-269238470Y-301700000D02*
X-269238470Y-297800000D01*
X-271238470Y-301700000D02*
X-271238470Y-297800000D01*
X-269238470Y-301700000D02*
X-271238470Y-301700000D01*
X-334123500Y-281104064D02*
X-338023500Y-281104064D01*
X-334123500Y-283104064D02*
X-338023500Y-283104064D01*
X-334123500Y-281104064D02*
X-334123500Y-283104064D01*
X-310800000Y-300400000D02*
X-306900000Y-300400000D01*
X-310800000Y-298400000D02*
X-306900000Y-298400000D01*
X-310800000Y-300400000D02*
X-310800000Y-298400000D01*
X-288892310Y-301700000D02*
X-288892310Y-297800000D01*
X-290892310Y-301700000D02*
X-290892310Y-297800000D01*
X-288892310Y-301700000D02*
X-290892310Y-301700000D01*
X-310800000Y-302862500D02*
X-306900000Y-302862500D01*
X-310800000Y-300862500D02*
X-306900000Y-300862500D01*
X-310800000Y-302862500D02*
X-310800000Y-300862500D01*
X-359786359Y-307300000D02*
X-359786359Y-311200000D01*
X-357786359Y-307300000D02*
X-357786359Y-311200000D01*
X-359786359Y-307300000D02*
X-357786359Y-307300000D01*
X-367122730Y-307300000D02*
X-367122730Y-311200000D01*
X-365122730Y-307300000D02*
X-365122730Y-311200000D01*
X-367122730Y-307300000D02*
X-365122730Y-307300000D01*
X-372931817Y-302850000D02*
X-372931817Y-298950000D01*
X-374931817Y-302850000D02*
X-374931817Y-298950000D01*
X-372931817Y-302850000D02*
X-374931817Y-302850000D01*
X-334123500Y-291107400D02*
X-338023500Y-291107400D01*
X-334123500Y-293107400D02*
X-338023500Y-293107400D01*
X-334123500Y-291107400D02*
X-334123500Y-293107400D01*
X-375377271Y-302850000D02*
X-375377271Y-298950000D01*
X-377377271Y-302850000D02*
X-377377271Y-298950000D01*
X-375377271Y-302850000D02*
X-377377271Y-302850000D01*
X-349900000Y-302850000D02*
X-349900000Y-298950000D01*
X-351900000Y-302850000D02*
X-351900000Y-298950000D01*
X-349900000Y-302850000D02*
X-351900000Y-302850000D01*
X-344700000Y-302850000D02*
X-344700000Y-298950000D01*
X-346700000Y-302850000D02*
X-346700000Y-298950000D01*
X-344700000Y-302850000D02*
X-346700000Y-302850000D01*
X-347300000Y-302850000D02*
X-347300000Y-298950000D01*
X-349300000Y-302850000D02*
X-349300000Y-298950000D01*
X-347300000Y-302850000D02*
X-349300000Y-302850000D01*
X-342100000Y-302850000D02*
X-342100000Y-298950000D01*
X-344100000Y-302850000D02*
X-344100000Y-298950000D01*
X-342100000Y-302850000D02*
X-344100000Y-302850000D01*
X-360250000Y-302850000D02*
X-360250000Y-298950000D01*
X-362250000Y-302850000D02*
X-362250000Y-298950000D01*
X-360250000Y-302850000D02*
X-362250000Y-302850000D01*
X-352450000Y-302850000D02*
X-352450000Y-298950000D01*
X-354450000Y-302850000D02*
X-354450000Y-298950000D01*
X-352450000Y-302850000D02*
X-354450000Y-302850000D01*
X-368040909Y-302850000D02*
X-368040909Y-298950000D01*
X-370040909Y-302850000D02*
X-370040909Y-298950000D01*
X-368040909Y-302850000D02*
X-370040909Y-302850000D01*
X-362231813Y-307300000D02*
X-362231813Y-311200000D01*
X-360231813Y-307300000D02*
X-360231813Y-311200000D01*
X-362231813Y-307300000D02*
X-360231813Y-307300000D01*
X-377822725Y-302850000D02*
X-377822725Y-298950000D01*
X-379822725Y-302850000D02*
X-379822725Y-298950000D01*
X-377822725Y-302850000D02*
X-379822725Y-302850000D01*
X-334123500Y-286107400D02*
X-338023500Y-286107400D01*
X-334123500Y-288107400D02*
X-338023500Y-288107400D01*
X-334123500Y-286107400D02*
X-334123500Y-288107400D01*
X-310800000Y-273300000D02*
X-306900000Y-273300000D01*
X-310800000Y-271300000D02*
X-306900000Y-271300000D01*
X-310800000Y-273300000D02*
X-310800000Y-271300000D01*
X-310800000Y-297900000D02*
X-306900000Y-297900000D01*
X-310800000Y-295900000D02*
X-306900000Y-295900000D01*
X-310800000Y-297900000D02*
X-310800000Y-295900000D01*
X-266719240Y-301700000D02*
X-266719240Y-297800000D01*
X-268719240Y-301700000D02*
X-268719240Y-297800000D01*
X-266719240Y-301700000D02*
X-268719240Y-301700000D01*
X-263900000Y-301700000D02*
X-263900000Y-297800000D01*
X-265900000Y-301700000D02*
X-265900000Y-297800000D01*
X-263900000Y-301700000D02*
X-265900000Y-301700000D01*
X-310800000Y-295400000D02*
X-306900000Y-295400000D01*
X-310800000Y-293400000D02*
X-306900000Y-293400000D01*
X-310800000Y-295400000D02*
X-310800000Y-293400000D01*
X-310800000Y-290400000D02*
X-306900000Y-290400000D01*
X-310800000Y-288400000D02*
X-306900000Y-288400000D01*
X-310800000Y-290400000D02*
X-310800000Y-288400000D01*
X-310800000Y-287850000D02*
X-306900000Y-287850000D01*
X-310800000Y-285850000D02*
X-306900000Y-285850000D01*
X-310800000Y-287850000D02*
X-310800000Y-285850000D01*
X-291711540Y-301700000D02*
X-291711540Y-297800000D01*
X-293711540Y-301700000D02*
X-293711540Y-297800000D01*
X-291711540Y-301700000D02*
X-293711540Y-301700000D01*
X-294530770Y-301700000D02*
X-294530770Y-297800000D01*
X-296530770Y-301700000D02*
X-296530770Y-297800000D01*
X-294530770Y-301700000D02*
X-296530770Y-301700000D01*
X-277615390Y-301700000D02*
X-277615390Y-297800000D01*
X-279615390Y-301700000D02*
X-279615390Y-297800000D01*
X-277615390Y-301700000D02*
X-279615390Y-301700000D01*
X-283253850Y-301700000D02*
X-283253850Y-297800000D01*
X-285253850Y-301700000D02*
X-285253850Y-297800000D01*
X-283253850Y-301700000D02*
X-285253850Y-301700000D01*
X-286073080Y-301700000D02*
X-286073080Y-297800000D01*
X-288073080Y-301700000D02*
X-288073080Y-297800000D01*
X-286073080Y-301700000D02*
X-288073080Y-301700000D01*
X-272057700Y-301700000D02*
X-272057700Y-297800000D01*
X-274057700Y-301700000D02*
X-274057700Y-297800000D01*
X-272057700Y-301700000D02*
X-274057700Y-301700000D01*
X-334123500Y-283602952D02*
X-338023500Y-283602952D01*
X-334123500Y-285602952D02*
X-338023500Y-285602952D01*
X-334123500Y-283602952D02*
X-334123500Y-285602952D01*
X-334123500Y-278605176D02*
X-338023500Y-278605176D01*
X-334123500Y-280605176D02*
X-338023500Y-280605176D01*
X-334123500Y-278605176D02*
X-334123500Y-280605176D01*
X-334123500Y-273657400D02*
X-338023500Y-273657400D01*
X-334123500Y-275657400D02*
X-338023500Y-275657400D01*
X-334123500Y-273657400D02*
X-334123500Y-275657400D01*
X-310800000Y-270850000D02*
X-306900000Y-270850000D01*
X-310800000Y-268850000D02*
X-306900000Y-268850000D01*
X-310800000Y-270850000D02*
X-310800000Y-268850000D01*
X-354750000Y-307300000D02*
X-354750000Y-311200000D01*
X-352750000Y-307300000D02*
X-352750000Y-311200000D01*
X-354750000Y-307300000D02*
X-352750000Y-307300000D01*
X-310800000Y-285400000D02*
X-306900000Y-285400000D01*
X-310800000Y-283400000D02*
X-306900000Y-283400000D01*
X-310800000Y-285400000D02*
X-310800000Y-283400000D01*
X-357250000Y-307300000D02*
X-357250000Y-311200000D01*
X-355250000Y-307300000D02*
X-355250000Y-311200000D01*
X-357250000Y-307300000D02*
X-355250000Y-307300000D01*
X-310800000Y-282950000D02*
X-306900000Y-282950000D01*
X-310800000Y-280950000D02*
X-306900000Y-280950000D01*
X-310800000Y-282950000D02*
X-310800000Y-280950000D01*
X-310800000Y-280550000D02*
X-306900000Y-280550000D01*
X-310800000Y-278550000D02*
X-306900000Y-278550000D01*
X-310800000Y-280550000D02*
X-310800000Y-278550000D01*
X-334123500Y-288607400D02*
X-338023500Y-288607400D01*
X-334123500Y-290607400D02*
X-338023500Y-290607400D01*
X-334123500Y-288607400D02*
X-334123500Y-290607400D01*
X-310800000Y-278150000D02*
X-306900000Y-278150000D01*
X-310800000Y-276150000D02*
X-306900000Y-276150000D01*
X-310800000Y-278150000D02*
X-310800000Y-276150000D01*
X-334123500Y-276106288D02*
X-338023500Y-276106288D01*
X-334123500Y-278106288D02*
X-338023500Y-278106288D01*
X-334123500Y-276106288D02*
X-334123500Y-278106288D01*
X-303640000Y-317791422D02*
X-303640000Y-318308578D01*
X-305060000Y-317791422D02*
X-305060000Y-318308578D01*
X-303060000Y-318296078D02*
X-303060000Y-317778922D01*
X-301640000Y-318296078D02*
X-301640000Y-317778922D01*
X-275729109Y-225383417D02*
X-274732656Y-227849727D01*
X-282849881Y-228260396D02*
X-275729109Y-225383417D01*
X-281853428Y-230726705D02*
X-274732656Y-227849727D01*
X-282849881Y-228260396D02*
X-281853428Y-230726705D01*
X-284027405Y-228736146D02*
X-285260559Y-229234373D01*
X-285260559Y-229234373D02*
X-284762333Y-230467528D01*
D13*
X-332950000Y-325600000D02*
X-332950000Y-326750000D01*
X-332950000Y-326750000D02*
X-324350000Y-326750000D01*
X-324350000Y-326750000D02*
X-324350000Y-325600000D01*
X-332950000Y-323600000D02*
X-332950000Y-322450000D01*
X-332950000Y-322450000D02*
X-324350000Y-322450000D01*
X-324350000Y-322450000D02*
X-324350000Y-323600000D01*
D12*
X-268611584Y-242999910D02*
X-267615131Y-245466220D01*
X-275732356Y-245876889D02*
X-268611584Y-242999910D01*
X-274735903Y-248343198D02*
X-267615131Y-245466220D01*
X-275732356Y-245876889D02*
X-274735903Y-248343198D01*
X-276909880Y-246352639D02*
X-278143034Y-246850866D01*
X-278143034Y-246850866D02*
X-277644808Y-248084021D01*
X-213647431Y-271354659D02*
X-211181121Y-270358206D01*
X-210770452Y-278475431D02*
X-213647431Y-271354659D01*
X-208304143Y-277478978D02*
X-211181121Y-270358206D01*
X-210770452Y-278475431D02*
X-208304143Y-277478978D01*
X-210294702Y-279652955D02*
X-209796475Y-280886109D01*
X-209796475Y-280886109D02*
X-208563320Y-280387883D01*
X-385289530Y-263084138D02*
X-384293077Y-260617828D01*
X-378168758Y-265961116D02*
X-385289530Y-263084138D01*
X-377172305Y-263494807D02*
X-384293077Y-260617828D01*
X-378168758Y-265961116D02*
X-377172305Y-263494807D01*
X-376991235Y-266436867D02*
X-375758080Y-266935093D01*
X-375758080Y-266935093D02*
X-375259853Y-265701939D01*
X-320030000Y-282920000D02*
X-320030000Y-285580000D01*
X-322630000Y-282920000D02*
X-320030000Y-282920000D01*
X-322630000Y-285580000D02*
X-320030000Y-285580000D01*
X-322630000Y-282920000D02*
X-322630000Y-285580000D01*
X-323900000Y-282920000D02*
X-325230000Y-282920000D01*
X-325230000Y-282920000D02*
X-325230000Y-284250000D01*
X-378172004Y-245467645D02*
X-377175551Y-243001335D01*
X-371051232Y-248344623D02*
X-378172004Y-245467645D01*
X-370054779Y-245878314D02*
X-377175551Y-243001335D01*
X-371051232Y-248344623D02*
X-370054779Y-245878314D01*
X-369873709Y-248820374D02*
X-368640554Y-249318600D01*
X-368640554Y-249318600D02*
X-368142327Y-248085446D01*
X-362082586Y-210983872D02*
X-361086133Y-208517562D01*
X-354961814Y-213860850D02*
X-362082586Y-210983872D01*
X-353965361Y-211394541D02*
X-361086133Y-208517562D01*
X-354961814Y-213860850D02*
X-353965361Y-211394541D01*
X-353784291Y-214336601D02*
X-352551136Y-214834827D01*
X-352551136Y-214834827D02*
X-352052909Y-213601673D01*
D13*
X-313850000Y-322700000D02*
X-309850000Y-322700000D01*
X-313850000Y-328700000D02*
X-309850000Y-328700000D01*
X-314850000Y-326700000D02*
X-314850000Y-324700000D01*
X-308850000Y-326700000D02*
X-308850000Y-324700000D01*
D12*
X-371054479Y-227851152D02*
X-370058026Y-225384842D01*
X-363933707Y-230728130D02*
X-371054479Y-227851152D01*
X-362937254Y-228261821D02*
X-370058026Y-225384842D01*
X-363933707Y-230728130D02*
X-362937254Y-228261821D01*
X-362756184Y-231203881D02*
X-361523029Y-231702107D01*
X-361523029Y-231702107D02*
X-361024802Y-230468953D01*
D11*
X-371226671Y-254729261D02*
X-371488895Y-255378290D01*
X-371488895Y-255378290D02*
X-367316568Y-257064019D01*
X-372055537Y-252776575D02*
G75*
G02X-371226671Y-254729261I-561910J-1390776D01*
G01*
X-369906215Y-248791551D02*
X-369629927Y-249442447D01*
X-370004533Y-250369630D02*
X-369629927Y-249442447D01*
X-365555917Y-252706255D02*
X-369728244Y-251020526D01*
X-374649785Y-251189164D02*
X-374373496Y-251840059D01*
X-365780681Y-253262566D02*
X-365555917Y-252706255D01*
X-374373496Y-251840059D02*
X-372055537Y-252776575D01*
X-373338662Y-247944020D02*
X-372687767Y-247667732D01*
X-372687767Y-247667732D02*
X-369906215Y-248791551D01*
X-369728245Y-251020526D02*
G75*
G02X-370004533Y-250369630I187304J463592D01*
G01*
X-367316568Y-257064019D02*
X-367129265Y-256600427D01*
X-294961017Y-241382832D02*
X-294698792Y-242031861D01*
X-294698792Y-242031861D02*
X-290526465Y-240346131D01*
X-296913703Y-240553966D02*
G75*
G02X-294961017Y-241382832I561910J-1390776D01*
G01*
X-298135840Y-236194336D02*
X-297484945Y-236470624D01*
X-297110338Y-237397808D02*
X-297484945Y-236470624D01*
X-292287116Y-235988367D02*
X-296459443Y-237674097D01*
X-299882557Y-241214194D02*
X-299231662Y-241490483D01*
X-292062352Y-236544677D02*
X-292287116Y-235988367D01*
X-299231662Y-241490483D02*
X-296913703Y-240553966D01*
X-301193680Y-237969051D02*
X-300917392Y-237318155D01*
X-300917392Y-237318155D02*
X-298135840Y-236194336D01*
X-296459444Y-237674096D02*
G75*
G02X-297110338Y-237397808I-187303J463591D01*
G01*
X-290526465Y-240346131D02*
X-290713768Y-239882539D01*
X-360455088Y-278494888D02*
X-360717312Y-279143917D01*
X-360717312Y-279143917D02*
X-356544985Y-280829646D01*
X-361283954Y-276542202D02*
G75*
G02X-360455088Y-278494888I-561910J-1390776D01*
G01*
X-359134632Y-272557178D02*
X-358858344Y-273208074D01*
X-359232950Y-274135257D02*
X-358858344Y-273208074D01*
X-354784334Y-276471882D02*
X-358956661Y-274786153D01*
X-363878202Y-274954791D02*
X-363601913Y-275605686D01*
X-355009098Y-277028193D02*
X-354784334Y-276471882D01*
X-363601913Y-275605686D02*
X-361283954Y-276542202D01*
X-362567079Y-271709647D02*
X-361916184Y-271433359D01*
X-361916184Y-271433359D02*
X-359134632Y-272557178D01*
X-358956662Y-274786153D02*
G75*
G02X-359232950Y-274135257I187304J463592D01*
G01*
X-356544985Y-280829646D02*
X-356357682Y-280366054D01*
X-239873881Y-276288526D02*
X-239611656Y-276937555D01*
X-239611656Y-276937555D02*
X-235439329Y-275251825D01*
X-241826567Y-275459660D02*
G75*
G02X-239873881Y-276288526I561910J-1390776D01*
G01*
X-243048704Y-271100030D02*
X-242397809Y-271376318D01*
X-242023202Y-272303502D02*
X-242397809Y-271376318D01*
X-237199980Y-270894061D02*
X-241372307Y-272579791D01*
X-244795421Y-276119888D02*
X-244144526Y-276396177D01*
X-236975216Y-271450371D02*
X-237199980Y-270894061D01*
X-244144526Y-276396177D02*
X-241826567Y-275459660D01*
X-246106544Y-272874745D02*
X-245830256Y-272223849D01*
X-245830256Y-272223849D02*
X-243048704Y-271100030D01*
X-241372308Y-272579790D02*
G75*
G02X-242023202Y-272303502I-187303J463591D01*
G01*
X-235439329Y-275251825D02*
X-235626632Y-274788233D01*
X-269852392Y-252808984D02*
X-269590167Y-253458013D01*
X-269590167Y-253458013D02*
X-265417840Y-251772283D01*
X-271805078Y-251980118D02*
G75*
G02X-269852392Y-252808984I561910J-1390776D01*
G01*
X-273027215Y-247620488D02*
X-272376320Y-247896776D01*
X-272001713Y-248823960D02*
X-272376320Y-247896776D01*
X-267178491Y-247414519D02*
X-271350818Y-249100249D01*
X-274773932Y-252640346D02*
X-274123037Y-252916635D01*
X-266953727Y-247970829D02*
X-267178491Y-247414519D01*
X-274123037Y-252916635D02*
X-271805078Y-251980118D01*
X-276085055Y-249395203D02*
X-275808767Y-248744307D01*
X-275808767Y-248744307D02*
X-273027215Y-247620488D01*
X-271350819Y-249100248D02*
G75*
G02X-272001713Y-248823960I-187303J463591D01*
G01*
X-265417840Y-251772283D02*
X-265605143Y-251308691D01*
D12*
X-284701002Y-208516137D02*
X-283704549Y-210982447D01*
X-291821774Y-211393116D02*
X-284701002Y-208516137D01*
X-290825321Y-213859425D02*
X-283704549Y-210982447D01*
X-291821774Y-211393116D02*
X-290825321Y-213859425D01*
X-292999298Y-211868866D02*
X-294232452Y-212367093D01*
X-294232452Y-212367093D02*
X-293734226Y-213600248D01*
X-261494059Y-260616403D02*
X-260497606Y-263082713D01*
X-268614831Y-263493382D02*
X-261494059Y-260616403D01*
X-267618378Y-265959691D02*
X-260497606Y-263082713D01*
X-268614831Y-263493382D02*
X-267618378Y-265959691D01*
X-269792355Y-263969132D02*
X-271025509Y-264467359D01*
X-271025509Y-264467359D02*
X-270527283Y-265700514D01*
D11*
X-313630000Y-278460000D02*
X-331410000Y-278460000D01*
X-331410000Y-278460000D02*
X-331410000Y-247980000D01*
X-331410000Y-247980000D02*
X-326330000Y-247980000D01*
X-326330000Y-247980000D02*
X-326330000Y-245440000D01*
X-326330000Y-245440000D02*
X-318710000Y-245440000D01*
X-318710000Y-245440000D02*
X-318710000Y-247980000D01*
X-318710000Y-247980000D02*
X-313630000Y-247980000D01*
X-313630000Y-247980000D02*
X-313630000Y-278460000D01*
X-220384355Y-273806920D02*
X-220122130Y-274455949D01*
X-220122130Y-274455949D02*
X-215949803Y-272770219D01*
X-222337041Y-272978054D02*
G75*
G02X-220384355Y-273806920I561910J-1390776D01*
G01*
X-223559178Y-268618424D02*
X-222908283Y-268894712D01*
X-222533676Y-269821896D02*
X-222908283Y-268894712D01*
X-217710454Y-268412455D02*
X-221882781Y-270098185D01*
X-225305895Y-273638282D02*
X-224655000Y-273914571D01*
X-217485690Y-268968765D02*
X-217710454Y-268412455D01*
X-224655000Y-273914571D02*
X-222337041Y-272978054D01*
X-226617018Y-270393139D02*
X-226340730Y-269742243D01*
X-226340730Y-269742243D02*
X-223559178Y-268618424D01*
X-221882782Y-270098184D02*
G75*
G02X-222533676Y-269821896I-187303J463591D01*
G01*
X-215949803Y-272770219D02*
X-216137106Y-272306627D01*
X-262734866Y-270425477D02*
X-262472641Y-271074506D01*
X-262472641Y-271074506D02*
X-258300314Y-269388776D01*
X-264687552Y-269596611D02*
G75*
G02X-262734866Y-270425477I561910J-1390776D01*
G01*
X-265909689Y-265236981D02*
X-265258794Y-265513269D01*
X-264884187Y-266440453D02*
X-265258794Y-265513269D01*
X-260060965Y-265031012D02*
X-264233292Y-266716742D01*
X-267656406Y-270256839D02*
X-267005511Y-270533128D01*
X-259836201Y-265587322D02*
X-260060965Y-265031012D01*
X-267005511Y-270533128D02*
X-264687552Y-269596611D01*
X-268967529Y-267011696D02*
X-268691241Y-266360800D01*
X-268691241Y-266360800D02*
X-265909689Y-265236981D01*
X-264233293Y-266716741D02*
G75*
G02X-264884187Y-266440453I-187303J463591D01*
G01*
X-258300314Y-269388776D02*
X-258487617Y-268925184D01*
X-346220038Y-243261902D02*
X-346482262Y-243910931D01*
X-346482262Y-243910931D02*
X-342309935Y-245596660D01*
X-347048904Y-241309216D02*
G75*
G02X-346220038Y-243261902I-561910J-1390776D01*
G01*
X-344899582Y-237324192D02*
X-344623294Y-237975088D01*
X-344997900Y-238902271D02*
X-344623294Y-237975088D01*
X-340549284Y-241238896D02*
X-344721611Y-239553167D01*
X-349643152Y-239721805D02*
X-349366863Y-240372700D01*
X-340774048Y-241795207D02*
X-340549284Y-241238896D01*
X-349366863Y-240372700D02*
X-347048904Y-241309216D01*
X-348332029Y-236476661D02*
X-347681134Y-236200373D01*
X-347681134Y-236200373D02*
X-344899582Y-237324192D01*
X-344721612Y-239553167D02*
G75*
G02X-344997900Y-238902271I187304J463592D01*
G01*
X-342309935Y-245596660D02*
X-342122632Y-245133068D01*
X-401307173Y-278167595D02*
X-401569397Y-278816624D01*
X-401569397Y-278816624D02*
X-397397070Y-280502353D01*
X-402136039Y-276214909D02*
G75*
G02X-401307173Y-278167595I-561910J-1390776D01*
G01*
X-399986717Y-272229885D02*
X-399710429Y-272880781D01*
X-400085035Y-273807964D02*
X-399710429Y-272880781D01*
X-395636419Y-276144589D02*
X-399808746Y-274458860D01*
X-404730287Y-274627498D02*
X-404453998Y-275278393D01*
X-395861183Y-276700900D02*
X-395636419Y-276144589D01*
X-404453998Y-275278393D02*
X-402136039Y-276214909D01*
X-403419164Y-271382354D02*
X-402768269Y-271106066D01*
X-402768269Y-271106066D02*
X-399986717Y-272229885D01*
X-399808747Y-274458860D02*
G75*
G02X-400085035Y-273807964I187304J463592D01*
G01*
X-397397070Y-280502353D02*
X-397209767Y-280038761D01*
X-364109146Y-237112767D02*
X-364371370Y-237761796D01*
X-364371370Y-237761796D02*
X-360199043Y-239447525D01*
X-364938012Y-235160081D02*
G75*
G02X-364109146Y-237112767I-561910J-1390776D01*
G01*
X-362788690Y-231175057D02*
X-362512402Y-231825953D01*
X-362887008Y-232753136D02*
X-362512402Y-231825953D01*
X-358438392Y-235089761D02*
X-362610719Y-233404032D01*
X-367532260Y-233572670D02*
X-367255971Y-234223565D01*
X-358663156Y-235646072D02*
X-358438392Y-235089761D01*
X-367255971Y-234223565D02*
X-364938012Y-235160081D01*
X-366221137Y-230327526D02*
X-365570242Y-230051238D01*
X-365570242Y-230051238D02*
X-362788690Y-231175057D01*
X-362610720Y-233404032D02*
G75*
G02X-362887008Y-232753136I187304J463592D01*
G01*
X-360199043Y-239447525D02*
X-360011740Y-238983933D01*
X-287843492Y-258999325D02*
X-287581267Y-259648354D01*
X-287581267Y-259648354D02*
X-283408940Y-257962624D01*
X-289796178Y-258170459D02*
G75*
G02X-287843492Y-258999325I561910J-1390776D01*
G01*
X-291018315Y-253810829D02*
X-290367420Y-254087117D01*
X-289992813Y-255014301D02*
X-290367420Y-254087117D01*
X-285169591Y-253604860D02*
X-289341918Y-255290590D01*
X-292765032Y-258830687D02*
X-292114137Y-259106976D01*
X-284944827Y-254161170D02*
X-285169591Y-253604860D01*
X-292114137Y-259106976D02*
X-289796178Y-258170459D01*
X-294076155Y-255585544D02*
X-293799867Y-254934648D01*
X-293799867Y-254934648D02*
X-291018315Y-253810829D01*
X-289341919Y-255290589D02*
G75*
G02X-289992813Y-255014301I-187303J463591D01*
G01*
X-283408940Y-257962624D02*
X-283596243Y-257499032D01*
X-353337563Y-260878395D02*
X-353599787Y-261527424D01*
X-353599787Y-261527424D02*
X-349427460Y-263213153D01*
X-354166429Y-258925709D02*
G75*
G02X-353337563Y-260878395I-561910J-1390776D01*
G01*
X-352017107Y-254940685D02*
X-351740819Y-255591581D01*
X-352115425Y-256518764D02*
X-351740819Y-255591581D01*
X-347666809Y-258855389D02*
X-351839136Y-257169660D01*
X-356760677Y-257338298D02*
X-356484388Y-257989193D01*
X-347891573Y-259411700D02*
X-347666809Y-258855389D01*
X-356484388Y-257989193D02*
X-354166429Y-258925709D01*
X-355449554Y-254093154D02*
X-354798659Y-253816866D01*
X-354798659Y-253816866D02*
X-352017107Y-254940685D01*
X-351839137Y-257169660D02*
G75*
G02X-352115425Y-256518764I187304J463592D01*
G01*
X-349427460Y-263213153D02*
X-349240157Y-262749561D01*
X-280725966Y-276615819D02*
X-280463741Y-277264848D01*
X-280463741Y-277264848D02*
X-276291414Y-275579118D01*
X-282678652Y-275786953D02*
G75*
G02X-280725966Y-276615819I561910J-1390776D01*
G01*
X-283900789Y-271427323D02*
X-283249894Y-271703611D01*
X-282875287Y-272630795D02*
X-283249894Y-271703611D01*
X-278052065Y-271221354D02*
X-282224392Y-272907084D01*
X-285647506Y-276447181D02*
X-284996611Y-276723470D01*
X-277827301Y-271777664D02*
X-278052065Y-271221354D01*
X-284996611Y-276723470D02*
X-282678652Y-275786953D01*
X-286958629Y-273202038D02*
X-286682341Y-272551142D01*
X-286682341Y-272551142D02*
X-283900789Y-271427323D01*
X-282224393Y-272907083D02*
G75*
G02X-282875287Y-272630795I-187303J463591D01*
G01*
X-276291414Y-275579118D02*
X-276478717Y-275115526D01*
X-378446188Y-272304547D02*
X-378708412Y-272953576D01*
X-378708412Y-272953576D02*
X-374536085Y-274639305D01*
X-379275054Y-270351861D02*
G75*
G02X-378446188Y-272304547I-561910J-1390776D01*
G01*
X-377125732Y-266366837D02*
X-376849444Y-267017733D01*
X-377224050Y-267944916D02*
X-376849444Y-267017733D01*
X-372775434Y-270281541D02*
X-376947761Y-268595812D01*
X-381869302Y-268764450D02*
X-381593013Y-269415345D01*
X-373000198Y-270837852D02*
X-372775434Y-270281541D01*
X-381593013Y-269415345D02*
X-379275054Y-270351861D01*
X-380558179Y-265519306D02*
X-379907284Y-265243018D01*
X-379907284Y-265243018D02*
X-377125732Y-266366837D01*
X-376947762Y-268595812D02*
G75*
G02X-377224050Y-267944916I187304J463592D01*
G01*
X-374536085Y-274639305D02*
X-374348782Y-274175713D01*
X-276969917Y-235192491D02*
X-276707692Y-235841520D01*
X-276707692Y-235841520D02*
X-272535365Y-234155790D01*
X-278922603Y-234363625D02*
G75*
G02X-276969917Y-235192491I561910J-1390776D01*
G01*
X-280144740Y-230003995D02*
X-279493845Y-230280283D01*
X-279119238Y-231207467D02*
X-279493845Y-230280283D01*
X-274296016Y-229798026D02*
X-278468343Y-231483756D01*
X-281891457Y-235023853D02*
X-281240562Y-235300142D01*
X-274071252Y-230354336D02*
X-274296016Y-229798026D01*
X-281240562Y-235300142D02*
X-278922603Y-234363625D01*
X-283202580Y-231778710D02*
X-282926292Y-231127814D01*
X-282926292Y-231127814D02*
X-280144740Y-230003995D01*
X-278468344Y-231483755D02*
G75*
G02X-279119238Y-231207467I-187303J463591D01*
G01*
X-272535365Y-234155790D02*
X-272722668Y-233692198D01*
X-420796700Y-275685989D02*
X-421058924Y-276335018D01*
X-421058924Y-276335018D02*
X-416886597Y-278020747D01*
X-421625566Y-273733303D02*
G75*
G02X-420796700Y-275685989I-561910J-1390776D01*
G01*
X-419476244Y-269748279D02*
X-419199956Y-270399175D01*
X-419574562Y-271326358D02*
X-419199956Y-270399175D01*
X-415125946Y-273662983D02*
X-419298273Y-271977254D01*
X-424219814Y-272145892D02*
X-423943525Y-272796787D01*
X-415350710Y-274219294D02*
X-415125946Y-273662983D01*
X-423943525Y-272796787D02*
X-421625566Y-273733303D01*
X-422908691Y-268900748D02*
X-422257796Y-268624460D01*
X-422257796Y-268624460D02*
X-419476244Y-269748279D01*
X-419298274Y-271977254D02*
G75*
G02X-419574562Y-271326358I187304J463592D01*
G01*
X-416886597Y-278020747D02*
X-416699294Y-277557155D01*
X-356991621Y-219496274D02*
X-357253845Y-220145303D01*
X-357253845Y-220145303D02*
X-353081518Y-221831032D01*
X-357820487Y-217543588D02*
G75*
G02X-356991621Y-219496274I-561910J-1390776D01*
G01*
X-355671165Y-213558564D02*
X-355394877Y-214209460D01*
X-355769483Y-215136643D02*
X-355394877Y-214209460D01*
X-351320867Y-217473268D02*
X-355493194Y-215787539D01*
X-360414735Y-215956177D02*
X-360138446Y-216607072D01*
X-351545631Y-218029579D02*
X-351320867Y-217473268D01*
X-360138446Y-216607072D02*
X-357820487Y-217543588D01*
X-359103612Y-212711033D02*
X-358452717Y-212434745D01*
X-358452717Y-212434745D02*
X-355671165Y-213558564D01*
X-355493195Y-215787539D02*
G75*
G02X-355769483Y-215136643I187304J463592D01*
G01*
X-353081518Y-221831032D02*
X-352894215Y-221367440D01*
X-339102512Y-225645408D02*
X-339364736Y-226294437D01*
X-339364736Y-226294437D02*
X-335192409Y-227980166D01*
X-339931378Y-223692722D02*
G75*
G02X-339102512Y-225645408I-561910J-1390776D01*
G01*
X-337782056Y-219707698D02*
X-337505768Y-220358594D01*
X-337880374Y-221285777D02*
X-337505768Y-220358594D01*
X-333431758Y-223622402D02*
X-337604085Y-221936673D01*
X-342525626Y-222105311D02*
X-342249337Y-222756206D01*
X-333656522Y-224178713D02*
X-333431758Y-223622402D01*
X-342249337Y-222756206D02*
X-339931378Y-223692722D01*
X-341214503Y-218860167D02*
X-340563608Y-218583879D01*
X-340563608Y-218583879D02*
X-337782056Y-219707698D01*
X-337604086Y-221936673D02*
G75*
G02X-337880374Y-221285777I187304J463592D01*
G01*
X-335192409Y-227980166D02*
X-335005106Y-227516574D01*
X-302078542Y-223766339D02*
X-301816317Y-224415368D01*
X-301816317Y-224415368D02*
X-297643990Y-222729638D01*
X-304031228Y-222937473D02*
G75*
G02X-302078542Y-223766339I561910J-1390776D01*
G01*
X-305253365Y-218577843D02*
X-304602470Y-218854131D01*
X-304227863Y-219781315D02*
X-304602470Y-218854131D01*
X-299404641Y-218371874D02*
X-303576968Y-220057604D01*
X-307000082Y-223597701D02*
X-306349187Y-223873990D01*
X-299179877Y-218928184D02*
X-299404641Y-218371874D01*
X-306349187Y-223873990D02*
X-304031228Y-222937473D01*
X-308311205Y-220352558D02*
X-308034917Y-219701662D01*
X-308034917Y-219701662D02*
X-305253365Y-218577843D01*
X-303576969Y-220057603D02*
G75*
G02X-304227863Y-219781315I-187303J463591D01*
G01*
X-297643990Y-222729638D02*
X-297831293Y-222266046D01*
X-284087442Y-217575998D02*
X-283825217Y-218225027D01*
X-283825217Y-218225027D02*
X-279652890Y-216539297D01*
X-286040128Y-216747132D02*
G75*
G02X-284087442Y-217575998I561910J-1390776D01*
G01*
X-287262265Y-212387502D02*
X-286611370Y-212663790D01*
X-286236763Y-213590974D02*
X-286611370Y-212663790D01*
X-281413541Y-212181533D02*
X-285585868Y-213867263D01*
X-289008982Y-217407360D02*
X-288358087Y-217683649D01*
X-281188777Y-212737843D02*
X-281413541Y-212181533D01*
X-288358087Y-217683649D02*
X-286040128Y-216747132D01*
X-290320105Y-214162217D02*
X-290043817Y-213511321D01*
X-290043817Y-213511321D02*
X-287262265Y-212387502D01*
X-285585869Y-213867262D02*
G75*
G02X-286236763Y-213590974I-187303J463591D01*
G01*
X-279652890Y-216539297D02*
X-279840193Y-216075705D01*
D12*
X-281637401Y-323261771D02*
X-282437815Y-322199586D01*
X-282699586Y-324062185D02*
X-281637401Y-323261771D01*
X-283713853Y-324826490D02*
X-285314681Y-322702120D01*
X-285314681Y-322702120D02*
X-291448202Y-327324059D01*
X-283713853Y-324826490D02*
X-289847374Y-329448430D01*
X-289847374Y-329448430D02*
X-291448202Y-327324059D01*
X-354551798Y-327324059D02*
X-356152626Y-329448430D01*
X-360685319Y-322702120D02*
X-354551798Y-327324059D01*
X-362286147Y-324826490D02*
X-356152626Y-329448430D01*
X-360685319Y-322702120D02*
X-362286147Y-324826490D01*
X-361699586Y-321937815D02*
X-362761771Y-321137401D01*
X-362761771Y-321137401D02*
X-363562185Y-322199586D01*
X-432218619Y-271565072D02*
X-433451773Y-271066845D01*
X-432716845Y-272798227D02*
X-432218619Y-271565072D01*
X-433192596Y-273975750D02*
X-435658905Y-272979297D01*
X-435658905Y-272979297D02*
X-438535884Y-280100069D01*
X-433192596Y-273975750D02*
X-436069574Y-281096522D01*
X-436069574Y-281096522D02*
X-438535884Y-280100069D01*
D11*
X-307335714Y-277202380D02*
X-307335714Y-276202380D01*
X-307573809Y-276202380D01*
X-307716666Y-276250000D01*
X-307811904Y-276345238D01*
X-307859523Y-276440476D01*
X-307907142Y-276630952D01*
X-307907142Y-276773809D01*
X-307859523Y-276964285D01*
X-307811904Y-277059523D01*
X-307716666Y-277154761D01*
X-307573809Y-277202380D01*
X-307335714Y-277202380D01*
X-308811904Y-276202380D02*
X-308335714Y-276202380D01*
X-308288095Y-276678571D01*
X-308335714Y-276630952D01*
X-308430952Y-276583333D01*
X-308669047Y-276583333D01*
X-308764285Y-276630952D01*
X-308811904Y-276678571D01*
X-308859523Y-276773809D01*
X-308859523Y-277011904D01*
X-308811904Y-277107142D01*
X-308764285Y-277154761D01*
X-308669047Y-277202380D01*
X-308430952Y-277202380D01*
X-308335714Y-277154761D01*
X-308288095Y-277107142D01*
X-309430952Y-276630952D02*
X-309335714Y-276583333D01*
X-309288095Y-276535714D01*
X-309240476Y-276440476D01*
X-309240476Y-276392857D01*
X-309288095Y-276297619D01*
X-309335714Y-276250000D01*
X-309430952Y-276202380D01*
X-309621428Y-276202380D01*
X-309716666Y-276250000D01*
X-309764285Y-276297619D01*
X-309811904Y-276392857D01*
X-309811904Y-276440476D01*
X-309764285Y-276535714D01*
X-309716666Y-276583333D01*
X-309621428Y-276630952D01*
X-309430952Y-276630952D01*
X-309335714Y-276678571D01*
X-309288095Y-276726190D01*
X-309240476Y-276821428D01*
X-309240476Y-277011904D01*
X-309288095Y-277107142D01*
X-309335714Y-277154761D01*
X-309430952Y-277202380D01*
X-309621428Y-277202380D01*
X-309716666Y-277154761D01*
X-309764285Y-277107142D01*
X-309811904Y-277011904D01*
X-309811904Y-276821428D01*
X-309764285Y-276726190D01*
X-309716666Y-276678571D01*
X-309621428Y-276630952D01*
X-353597619Y-299861904D02*
X-354597619Y-299861904D01*
X-354597619Y-300100000D01*
X-354550000Y-300242857D01*
X-354454761Y-300338095D01*
X-354359523Y-300385714D01*
X-354169047Y-300433333D01*
X-354026190Y-300433333D01*
X-353835714Y-300385714D01*
X-353740476Y-300338095D01*
X-353645238Y-300242857D01*
X-353597619Y-300100000D01*
X-353597619Y-299861904D01*
X-354597619Y-300766666D02*
X-354597619Y-301433333D01*
X-353597619Y-301004761D01*
X-356197619Y-299861904D02*
X-357197619Y-299861904D01*
X-357197619Y-300100000D01*
X-357150000Y-300242857D01*
X-357054761Y-300338095D01*
X-356959523Y-300385714D01*
X-356769047Y-300433333D01*
X-356626190Y-300433333D01*
X-356435714Y-300385714D01*
X-356340476Y-300338095D01*
X-356245238Y-300242857D01*
X-356197619Y-300100000D01*
X-356197619Y-299861904D01*
X-357197619Y-301290476D02*
X-357197619Y-301100000D01*
X-357150000Y-301004761D01*
X-357102380Y-300957142D01*
X-356959523Y-300861904D01*
X-356769047Y-300814285D01*
X-356388095Y-300814285D01*
X-356292857Y-300861904D01*
X-356245238Y-300909523D01*
X-356197619Y-301004761D01*
X-356197619Y-301195238D01*
X-356245238Y-301290476D01*
X-356292857Y-301338095D01*
X-356388095Y-301385714D01*
X-356626190Y-301385714D01*
X-356721428Y-301338095D01*
X-356769047Y-301290476D01*
X-356816666Y-301195238D01*
X-356816666Y-301004761D01*
X-356769047Y-300909523D01*
X-356721428Y-300861904D01*
X-356626190Y-300814285D01*
X-335159214Y-270609780D02*
X-335159214Y-269609780D01*
X-335397309Y-269609780D01*
X-335540166Y-269657400D01*
X-335635404Y-269752638D01*
X-335683023Y-269847876D01*
X-335730642Y-270038352D01*
X-335730642Y-270181209D01*
X-335683023Y-270371685D01*
X-335635404Y-270466923D01*
X-335540166Y-270562161D01*
X-335397309Y-270609780D01*
X-335159214Y-270609780D01*
X-336111595Y-269705019D02*
X-336159214Y-269657400D01*
X-336254452Y-269609780D01*
X-336492547Y-269609780D01*
X-336587785Y-269657400D01*
X-336635404Y-269705019D01*
X-336683023Y-269800257D01*
X-336683023Y-269895495D01*
X-336635404Y-270038352D01*
X-336063976Y-270609780D01*
X-336683023Y-270609780D01*
X-337302071Y-269609780D02*
X-337397309Y-269609780D01*
X-337492547Y-269657400D01*
X-337540166Y-269705019D01*
X-337587785Y-269800257D01*
X-337635404Y-269990733D01*
X-337635404Y-270228828D01*
X-337587785Y-270419304D01*
X-337540166Y-270514542D01*
X-337492547Y-270562161D01*
X-337397309Y-270609780D01*
X-337302071Y-270609780D01*
X-337206833Y-270562161D01*
X-337159214Y-270514542D01*
X-337111595Y-270419304D01*
X-337063976Y-270228828D01*
X-337063976Y-269990733D01*
X-337111595Y-269800257D01*
X-337159214Y-269705019D01*
X-337206833Y-269657400D01*
X-337302071Y-269609780D01*
X-273424549Y-298235714D02*
X-274424549Y-298235714D01*
X-274424549Y-298473809D01*
X-274376930Y-298616666D01*
X-274281691Y-298711904D01*
X-274186453Y-298759523D01*
X-273995977Y-298807142D01*
X-273853120Y-298807142D01*
X-273662644Y-298759523D01*
X-273567406Y-298711904D01*
X-273472168Y-298616666D01*
X-273424549Y-298473809D01*
X-273424549Y-298235714D01*
X-274329310Y-299188095D02*
X-274376930Y-299235714D01*
X-274424549Y-299330952D01*
X-274424549Y-299569047D01*
X-274376930Y-299664285D01*
X-274329310Y-299711904D01*
X-274234072Y-299759523D01*
X-274138834Y-299759523D01*
X-273995977Y-299711904D01*
X-273424549Y-299140476D01*
X-273424549Y-299759523D01*
X-273995977Y-300330952D02*
X-274043596Y-300235714D01*
X-274091215Y-300188095D01*
X-274186453Y-300140476D01*
X-274234072Y-300140476D01*
X-274329310Y-300188095D01*
X-274376930Y-300235714D01*
X-274424549Y-300330952D01*
X-274424549Y-300521428D01*
X-274376930Y-300616666D01*
X-274329310Y-300664285D01*
X-274234072Y-300711904D01*
X-274186453Y-300711904D01*
X-274091215Y-300664285D01*
X-274043596Y-300616666D01*
X-273995977Y-300521428D01*
X-273995977Y-300330952D01*
X-273948358Y-300235714D01*
X-273900739Y-300188095D01*
X-273805501Y-300140476D01*
X-273615025Y-300140476D01*
X-273519787Y-300188095D01*
X-273472168Y-300235714D01*
X-273424549Y-300330952D01*
X-273424549Y-300521428D01*
X-273472168Y-300616666D01*
X-273519787Y-300664285D01*
X-273615025Y-300711904D01*
X-273805501Y-300711904D01*
X-273900739Y-300664285D01*
X-273948358Y-300616666D01*
X-273995977Y-300521428D01*
X-364143074Y-299385714D02*
X-365143074Y-299385714D01*
X-365143074Y-299623809D01*
X-365095455Y-299766666D01*
X-365000216Y-299861904D01*
X-364904978Y-299909523D01*
X-364714502Y-299957142D01*
X-364571645Y-299957142D01*
X-364381169Y-299909523D01*
X-364285931Y-299861904D01*
X-364190693Y-299766666D01*
X-364143074Y-299623809D01*
X-364143074Y-299385714D01*
X-365047835Y-300338095D02*
X-365095455Y-300385714D01*
X-365143074Y-300480952D01*
X-365143074Y-300719047D01*
X-365095455Y-300814285D01*
X-365047835Y-300861904D01*
X-364952597Y-300909523D01*
X-364857359Y-300909523D01*
X-364714502Y-300861904D01*
X-364143074Y-300290476D01*
X-364143074Y-300909523D01*
X-365047835Y-301290476D02*
X-365095455Y-301338095D01*
X-365143074Y-301433333D01*
X-365143074Y-301671428D01*
X-365095455Y-301766666D01*
X-365047835Y-301814285D01*
X-364952597Y-301861904D01*
X-364857359Y-301861904D01*
X-364714502Y-301814285D01*
X-364143074Y-301242857D01*
X-364143074Y-301861904D01*
X-307335714Y-294352380D02*
X-307335714Y-293352380D01*
X-307573809Y-293352380D01*
X-307716666Y-293400000D01*
X-307811904Y-293495238D01*
X-307859523Y-293590476D01*
X-307907142Y-293780952D01*
X-307907142Y-293923809D01*
X-307859523Y-294114285D01*
X-307811904Y-294209523D01*
X-307716666Y-294304761D01*
X-307573809Y-294352380D01*
X-307335714Y-294352380D01*
X-308240476Y-293352380D02*
X-308859523Y-293352380D01*
X-308526190Y-293733333D01*
X-308669047Y-293733333D01*
X-308764285Y-293780952D01*
X-308811904Y-293828571D01*
X-308859523Y-293923809D01*
X-308859523Y-294161904D01*
X-308811904Y-294257142D01*
X-308764285Y-294304761D01*
X-308669047Y-294352380D01*
X-308383333Y-294352380D01*
X-308288095Y-294304761D01*
X-308240476Y-294257142D01*
X-309240476Y-293447619D02*
X-309288095Y-293400000D01*
X-309383333Y-293352380D01*
X-309621428Y-293352380D01*
X-309716666Y-293400000D01*
X-309764285Y-293447619D01*
X-309811904Y-293542857D01*
X-309811904Y-293638095D01*
X-309764285Y-293780952D01*
X-309192857Y-294352380D01*
X-309811904Y-294352380D01*
X-365224886Y-308335714D02*
X-366224886Y-308335714D01*
X-366224886Y-308573809D01*
X-366177267Y-308716666D01*
X-366082028Y-308811904D01*
X-365986790Y-308859523D01*
X-365796314Y-308907142D01*
X-365653457Y-308907142D01*
X-365462981Y-308859523D01*
X-365367743Y-308811904D01*
X-365272505Y-308716666D01*
X-365224886Y-308573809D01*
X-365224886Y-308335714D01*
X-365224886Y-309859523D02*
X-365224886Y-309288095D01*
X-365224886Y-309573809D02*
X-366224886Y-309573809D01*
X-366082028Y-309478571D01*
X-365986790Y-309383333D01*
X-365939171Y-309288095D01*
X-365224886Y-310811904D02*
X-365224886Y-310240476D01*
X-365224886Y-310526190D02*
X-366224886Y-310526190D01*
X-366082028Y-310430952D01*
X-365986790Y-310335714D01*
X-365939171Y-310240476D01*
X-307335714Y-306802380D02*
X-307335714Y-305802380D01*
X-307573809Y-305802380D01*
X-307716666Y-305850000D01*
X-307811904Y-305945238D01*
X-307859523Y-306040476D01*
X-307907142Y-306230952D01*
X-307907142Y-306373809D01*
X-307859523Y-306564285D01*
X-307811904Y-306659523D01*
X-307716666Y-306754761D01*
X-307573809Y-306802380D01*
X-307335714Y-306802380D01*
X-308288095Y-305897619D02*
X-308335714Y-305850000D01*
X-308430952Y-305802380D01*
X-308669047Y-305802380D01*
X-308764285Y-305850000D01*
X-308811904Y-305897619D01*
X-308859523Y-305992857D01*
X-308859523Y-306088095D01*
X-308811904Y-306230952D01*
X-308240476Y-306802380D01*
X-308859523Y-306802380D01*
X-309764285Y-305802380D02*
X-309288095Y-305802380D01*
X-309240476Y-306278571D01*
X-309288095Y-306230952D01*
X-309383333Y-306183333D01*
X-309621428Y-306183333D01*
X-309716666Y-306230952D01*
X-309764285Y-306278571D01*
X-309811904Y-306373809D01*
X-309811904Y-306611904D01*
X-309764285Y-306707142D01*
X-309716666Y-306754761D01*
X-309621428Y-306802380D01*
X-309383333Y-306802380D01*
X-309288095Y-306754761D01*
X-309240476Y-306707142D01*
X-295897619Y-298235714D02*
X-296897619Y-298235714D01*
X-296897619Y-298473809D01*
X-296850000Y-298616666D01*
X-296754761Y-298711904D01*
X-296659523Y-298759523D01*
X-296469047Y-298807142D01*
X-296326190Y-298807142D01*
X-296135714Y-298759523D01*
X-296040476Y-298711904D01*
X-295945238Y-298616666D01*
X-295897619Y-298473809D01*
X-295897619Y-298235714D01*
X-296897619Y-299140476D02*
X-296897619Y-299759523D01*
X-296516666Y-299426190D01*
X-296516666Y-299569047D01*
X-296469047Y-299664285D01*
X-296421428Y-299711904D01*
X-296326190Y-299759523D01*
X-296088095Y-299759523D01*
X-295992857Y-299711904D01*
X-295945238Y-299664285D01*
X-295897619Y-299569047D01*
X-295897619Y-299283333D01*
X-295945238Y-299188095D01*
X-295992857Y-299140476D01*
X-296469047Y-300330952D02*
X-296516666Y-300235714D01*
X-296564285Y-300188095D01*
X-296659523Y-300140476D01*
X-296707142Y-300140476D01*
X-296802380Y-300188095D01*
X-296850000Y-300235714D01*
X-296897619Y-300330952D01*
X-296897619Y-300521428D01*
X-296850000Y-300616666D01*
X-296802380Y-300664285D01*
X-296707142Y-300711904D01*
X-296659523Y-300711904D01*
X-296564285Y-300664285D01*
X-296516666Y-300616666D01*
X-296469047Y-300521428D01*
X-296469047Y-300330952D01*
X-296421428Y-300235714D01*
X-296373809Y-300188095D01*
X-296278571Y-300140476D01*
X-296088095Y-300140476D01*
X-295992857Y-300188095D01*
X-295945238Y-300235714D01*
X-295897619Y-300330952D01*
X-295897619Y-300521428D01*
X-295945238Y-300616666D01*
X-295992857Y-300664285D01*
X-296088095Y-300711904D01*
X-296278571Y-300711904D01*
X-296373809Y-300664285D01*
X-296421428Y-300616666D01*
X-296469047Y-300521428D01*
X-278982239Y-298235714D02*
X-279982239Y-298235714D01*
X-279982239Y-298473809D01*
X-279934620Y-298616666D01*
X-279839381Y-298711904D01*
X-279744143Y-298759523D01*
X-279553667Y-298807142D01*
X-279410810Y-298807142D01*
X-279220334Y-298759523D01*
X-279125096Y-298711904D01*
X-279029858Y-298616666D01*
X-278982239Y-298473809D01*
X-278982239Y-298235714D01*
X-279648905Y-299664285D02*
X-278982239Y-299664285D01*
X-280029858Y-299426190D02*
X-279315572Y-299188095D01*
X-279315572Y-299807142D01*
X-279982239Y-300378571D02*
X-279982239Y-300473809D01*
X-279934620Y-300569047D01*
X-279887000Y-300616666D01*
X-279791762Y-300664285D01*
X-279601286Y-300711904D01*
X-279363191Y-300711904D01*
X-279172715Y-300664285D01*
X-279077477Y-300616666D01*
X-279029858Y-300569047D01*
X-278982239Y-300473809D01*
X-278982239Y-300378571D01*
X-279029858Y-300283333D01*
X-279077477Y-300235714D01*
X-279172715Y-300188095D01*
X-279363191Y-300140476D01*
X-279601286Y-300140476D01*
X-279791762Y-300188095D01*
X-279887000Y-300235714D01*
X-279934620Y-300283333D01*
X-279982239Y-300378571D01*
X-369033982Y-299385714D02*
X-370033982Y-299385714D01*
X-370033982Y-299623809D01*
X-369986363Y-299766666D01*
X-369891124Y-299861904D01*
X-369795886Y-299909523D01*
X-369605410Y-299957142D01*
X-369462553Y-299957142D01*
X-369272077Y-299909523D01*
X-369176839Y-299861904D01*
X-369081601Y-299766666D01*
X-369033982Y-299623809D01*
X-369033982Y-299385714D01*
X-369033982Y-300909523D02*
X-369033982Y-300338095D01*
X-369033982Y-300623809D02*
X-370033982Y-300623809D01*
X-369891124Y-300528571D01*
X-369795886Y-300433333D01*
X-369748267Y-300338095D01*
X-370033982Y-301242857D02*
X-370033982Y-301861904D01*
X-369653029Y-301528571D01*
X-369653029Y-301671428D01*
X-369605410Y-301766666D01*
X-369557791Y-301814285D01*
X-369462553Y-301861904D01*
X-369224458Y-301861904D01*
X-369129220Y-301814285D01*
X-369081601Y-301766666D01*
X-369033982Y-301671428D01*
X-369033982Y-301385714D01*
X-369081601Y-301290476D01*
X-369129220Y-301242857D01*
X-335159214Y-293049780D02*
X-335159214Y-292049780D01*
X-335397309Y-292049780D01*
X-335540166Y-292097400D01*
X-335635404Y-292192638D01*
X-335683023Y-292287876D01*
X-335730642Y-292478352D01*
X-335730642Y-292621209D01*
X-335683023Y-292811685D01*
X-335635404Y-292906923D01*
X-335540166Y-293002161D01*
X-335397309Y-293049780D01*
X-335159214Y-293049780D01*
X-336683023Y-293049780D02*
X-336111595Y-293049780D01*
X-336397309Y-293049780D02*
X-336397309Y-292049780D01*
X-336302071Y-292192638D01*
X-336206833Y-292287876D01*
X-336111595Y-292335495D01*
X-337540166Y-292049780D02*
X-337349690Y-292049780D01*
X-337254452Y-292097400D01*
X-337206833Y-292145019D01*
X-337111595Y-292287876D01*
X-337063976Y-292478352D01*
X-337063976Y-292859304D01*
X-337111595Y-292954542D01*
X-337159214Y-293002161D01*
X-337254452Y-293049780D01*
X-337444928Y-293049780D01*
X-337540166Y-293002161D01*
X-337587785Y-292954542D01*
X-337635404Y-292859304D01*
X-337635404Y-292621209D01*
X-337587785Y-292525971D01*
X-337540166Y-292478352D01*
X-337444928Y-292430733D01*
X-337254452Y-292430733D01*
X-337159214Y-292478352D01*
X-337111595Y-292525971D01*
X-337063976Y-292621209D01*
X-267786089Y-298235714D02*
X-268786089Y-298235714D01*
X-268786089Y-298473809D01*
X-268738470Y-298616666D01*
X-268643231Y-298711904D01*
X-268547993Y-298759523D01*
X-268357517Y-298807142D01*
X-268214660Y-298807142D01*
X-268024184Y-298759523D01*
X-267928946Y-298711904D01*
X-267833708Y-298616666D01*
X-267786089Y-298473809D01*
X-267786089Y-298235714D01*
X-268452755Y-299664285D02*
X-267786089Y-299664285D01*
X-268833708Y-299426190D02*
X-268119422Y-299188095D01*
X-268119422Y-299807142D01*
X-268452755Y-300616666D02*
X-267786089Y-300616666D01*
X-268833708Y-300378571D02*
X-268119422Y-300140476D01*
X-268119422Y-300759523D01*
X-335159214Y-280556444D02*
X-335159214Y-279556444D01*
X-335397309Y-279556444D01*
X-335540166Y-279604064D01*
X-335635404Y-279699302D01*
X-335683023Y-279794540D01*
X-335730642Y-279985016D01*
X-335730642Y-280127873D01*
X-335683023Y-280318349D01*
X-335635404Y-280413587D01*
X-335540166Y-280508825D01*
X-335397309Y-280556444D01*
X-335159214Y-280556444D01*
X-336587785Y-279889778D02*
X-336587785Y-280556444D01*
X-336349690Y-279508825D02*
X-336111595Y-280223111D01*
X-336730642Y-280223111D01*
X-337540166Y-279556444D02*
X-337349690Y-279556444D01*
X-337254452Y-279604064D01*
X-337206833Y-279651683D01*
X-337111595Y-279794540D01*
X-337063976Y-279985016D01*
X-337063976Y-280365968D01*
X-337111595Y-280461206D01*
X-337159214Y-280508825D01*
X-337254452Y-280556444D01*
X-337444928Y-280556444D01*
X-337540166Y-280508825D01*
X-337587785Y-280461206D01*
X-337635404Y-280365968D01*
X-337635404Y-280127873D01*
X-337587785Y-280032635D01*
X-337540166Y-279985016D01*
X-337444928Y-279937397D01*
X-337254452Y-279937397D01*
X-337159214Y-279985016D01*
X-337111595Y-280032635D01*
X-337063976Y-280127873D01*
X-307335714Y-301852380D02*
X-307335714Y-300852380D01*
X-307573809Y-300852380D01*
X-307716666Y-300900000D01*
X-307811904Y-300995238D01*
X-307859523Y-301090476D01*
X-307907142Y-301280952D01*
X-307907142Y-301423809D01*
X-307859523Y-301614285D01*
X-307811904Y-301709523D01*
X-307716666Y-301804761D01*
X-307573809Y-301852380D01*
X-307335714Y-301852380D01*
X-308288095Y-300947619D02*
X-308335714Y-300900000D01*
X-308430952Y-300852380D01*
X-308669047Y-300852380D01*
X-308764285Y-300900000D01*
X-308811904Y-300947619D01*
X-308859523Y-301042857D01*
X-308859523Y-301138095D01*
X-308811904Y-301280952D01*
X-308240476Y-301852380D01*
X-308859523Y-301852380D01*
X-309716666Y-300852380D02*
X-309526190Y-300852380D01*
X-309430952Y-300900000D01*
X-309383333Y-300947619D01*
X-309288095Y-301090476D01*
X-309240476Y-301280952D01*
X-309240476Y-301661904D01*
X-309288095Y-301757142D01*
X-309335714Y-301804761D01*
X-309430952Y-301852380D01*
X-309621428Y-301852380D01*
X-309716666Y-301804761D01*
X-309764285Y-301757142D01*
X-309811904Y-301661904D01*
X-309811904Y-301423809D01*
X-309764285Y-301328571D01*
X-309716666Y-301280952D01*
X-309621428Y-301233333D01*
X-309430952Y-301233333D01*
X-309335714Y-301280952D01*
X-309288095Y-301328571D01*
X-309240476Y-301423809D01*
X-287439929Y-298235714D02*
X-288439929Y-298235714D01*
X-288439929Y-298473809D01*
X-288392310Y-298616666D01*
X-288297071Y-298711904D01*
X-288201833Y-298759523D01*
X-288011357Y-298807142D01*
X-287868500Y-298807142D01*
X-287678024Y-298759523D01*
X-287582786Y-298711904D01*
X-287487548Y-298616666D01*
X-287439929Y-298473809D01*
X-287439929Y-298235714D01*
X-288439929Y-299140476D02*
X-288439929Y-299759523D01*
X-288058976Y-299426190D01*
X-288058976Y-299569047D01*
X-288011357Y-299664285D01*
X-287963738Y-299711904D01*
X-287868500Y-299759523D01*
X-287630405Y-299759523D01*
X-287535167Y-299711904D01*
X-287487548Y-299664285D01*
X-287439929Y-299569047D01*
X-287439929Y-299283333D01*
X-287487548Y-299188095D01*
X-287535167Y-299140476D01*
X-288439929Y-300664285D02*
X-288439929Y-300188095D01*
X-287963738Y-300140476D01*
X-288011357Y-300188095D01*
X-288058976Y-300283333D01*
X-288058976Y-300521428D01*
X-288011357Y-300616666D01*
X-287963738Y-300664285D01*
X-287868500Y-300711904D01*
X-287630405Y-300711904D01*
X-287535167Y-300664285D01*
X-287487548Y-300616666D01*
X-287439929Y-300521428D01*
X-287439929Y-300283333D01*
X-287487548Y-300188095D01*
X-287535167Y-300140476D01*
X-307335714Y-304314880D02*
X-307335714Y-303314880D01*
X-307573809Y-303314880D01*
X-307716666Y-303362500D01*
X-307811904Y-303457738D01*
X-307859523Y-303552976D01*
X-307907142Y-303743452D01*
X-307907142Y-303886309D01*
X-307859523Y-304076785D01*
X-307811904Y-304172023D01*
X-307716666Y-304267261D01*
X-307573809Y-304314880D01*
X-307335714Y-304314880D01*
X-308288095Y-303410119D02*
X-308335714Y-303362500D01*
X-308430952Y-303314880D01*
X-308669047Y-303314880D01*
X-308764285Y-303362500D01*
X-308811904Y-303410119D01*
X-308859523Y-303505357D01*
X-308859523Y-303600595D01*
X-308811904Y-303743452D01*
X-308240476Y-304314880D01*
X-308859523Y-304314880D01*
X-309192857Y-303314880D02*
X-309859523Y-303314880D01*
X-309430952Y-304314880D01*
X-360333978Y-308811904D02*
X-361333978Y-308811904D01*
X-361333978Y-309050000D01*
X-361286359Y-309192857D01*
X-361191120Y-309288095D01*
X-361095882Y-309335714D01*
X-360905406Y-309383333D01*
X-360762549Y-309383333D01*
X-360572073Y-309335714D01*
X-360476835Y-309288095D01*
X-360381597Y-309192857D01*
X-360333978Y-309050000D01*
X-360333978Y-308811904D01*
X-360333978Y-309859523D02*
X-360333978Y-310050000D01*
X-360381597Y-310145238D01*
X-360429216Y-310192857D01*
X-360572073Y-310288095D01*
X-360762549Y-310335714D01*
X-361143501Y-310335714D01*
X-361238739Y-310288095D01*
X-361286359Y-310240476D01*
X-361333978Y-310145238D01*
X-361333978Y-309954761D01*
X-361286359Y-309859523D01*
X-361238739Y-309811904D01*
X-361143501Y-309764285D01*
X-360905406Y-309764285D01*
X-360810168Y-309811904D01*
X-360762549Y-309859523D01*
X-360714930Y-309954761D01*
X-360714930Y-310145238D01*
X-360762549Y-310240476D01*
X-360810168Y-310288095D01*
X-360905406Y-310335714D01*
X-367670349Y-308335714D02*
X-368670349Y-308335714D01*
X-368670349Y-308573809D01*
X-368622730Y-308716666D01*
X-368527491Y-308811904D01*
X-368432253Y-308859523D01*
X-368241777Y-308907142D01*
X-368098920Y-308907142D01*
X-367908444Y-308859523D01*
X-367813206Y-308811904D01*
X-367717968Y-308716666D01*
X-367670349Y-308573809D01*
X-367670349Y-308335714D01*
X-367670349Y-309859523D02*
X-367670349Y-309288095D01*
X-367670349Y-309573809D02*
X-368670349Y-309573809D01*
X-368527491Y-309478571D01*
X-368432253Y-309383333D01*
X-368384634Y-309288095D01*
X-368575110Y-310240476D02*
X-368622730Y-310288095D01*
X-368670349Y-310383333D01*
X-368670349Y-310621428D01*
X-368622730Y-310716666D01*
X-368575110Y-310764285D01*
X-368479872Y-310811904D01*
X-368384634Y-310811904D01*
X-368241777Y-310764285D01*
X-367670349Y-310192857D01*
X-367670349Y-310811904D01*
X-371479436Y-299385714D02*
X-372479436Y-299385714D01*
X-372479436Y-299623809D01*
X-372431817Y-299766666D01*
X-372336578Y-299861904D01*
X-372241340Y-299909523D01*
X-372050864Y-299957142D01*
X-371908007Y-299957142D01*
X-371717531Y-299909523D01*
X-371622293Y-299861904D01*
X-371527055Y-299766666D01*
X-371479436Y-299623809D01*
X-371479436Y-299385714D01*
X-371479436Y-300909523D02*
X-371479436Y-300338095D01*
X-371479436Y-300623809D02*
X-372479436Y-300623809D01*
X-372336578Y-300528571D01*
X-372241340Y-300433333D01*
X-372193721Y-300338095D01*
X-372146102Y-301766666D02*
X-371479436Y-301766666D01*
X-372527055Y-301528571D02*
X-371812769Y-301290476D01*
X-371812769Y-301909523D01*
X-335159214Y-290559780D02*
X-335159214Y-289559780D01*
X-335397309Y-289559780D01*
X-335540166Y-289607400D01*
X-335635404Y-289702638D01*
X-335683023Y-289797876D01*
X-335730642Y-289988352D01*
X-335730642Y-290131209D01*
X-335683023Y-290321685D01*
X-335635404Y-290416923D01*
X-335540166Y-290512161D01*
X-335397309Y-290559780D01*
X-335159214Y-290559780D01*
X-336683023Y-290559780D02*
X-336111595Y-290559780D01*
X-336397309Y-290559780D02*
X-336397309Y-289559780D01*
X-336302071Y-289702638D01*
X-336206833Y-289797876D01*
X-336111595Y-289845495D01*
X-337587785Y-289559780D02*
X-337111595Y-289559780D01*
X-337063976Y-290035971D01*
X-337111595Y-289988352D01*
X-337206833Y-289940733D01*
X-337444928Y-289940733D01*
X-337540166Y-289988352D01*
X-337587785Y-290035971D01*
X-337635404Y-290131209D01*
X-337635404Y-290369304D01*
X-337587785Y-290464542D01*
X-337540166Y-290512161D01*
X-337444928Y-290559780D01*
X-337206833Y-290559780D01*
X-337111595Y-290512161D01*
X-337063976Y-290464542D01*
X-373924890Y-299385714D02*
X-374924890Y-299385714D01*
X-374924890Y-299623809D01*
X-374877271Y-299766666D01*
X-374782032Y-299861904D01*
X-374686794Y-299909523D01*
X-374496318Y-299957142D01*
X-374353461Y-299957142D01*
X-374162985Y-299909523D01*
X-374067747Y-299861904D01*
X-373972509Y-299766666D01*
X-373924890Y-299623809D01*
X-373924890Y-299385714D01*
X-373924890Y-300909523D02*
X-373924890Y-300338095D01*
X-373924890Y-300623809D02*
X-374924890Y-300623809D01*
X-374782032Y-300528571D01*
X-374686794Y-300433333D01*
X-374639175Y-300338095D01*
X-373924890Y-301385714D02*
X-373924890Y-301576190D01*
X-373972509Y-301671428D01*
X-374020128Y-301719047D01*
X-374162985Y-301814285D01*
X-374353461Y-301861904D01*
X-374734413Y-301861904D01*
X-374829651Y-301814285D01*
X-374877271Y-301766666D01*
X-374924890Y-301671428D01*
X-374924890Y-301480952D01*
X-374877271Y-301385714D01*
X-374829651Y-301338095D01*
X-374734413Y-301290476D01*
X-374496318Y-301290476D01*
X-374401080Y-301338095D01*
X-374353461Y-301385714D01*
X-374305842Y-301480952D01*
X-374305842Y-301671428D01*
X-374353461Y-301766666D01*
X-374401080Y-301814285D01*
X-374496318Y-301861904D01*
X-348447619Y-299861904D02*
X-349447619Y-299861904D01*
X-349447619Y-300100000D01*
X-349400000Y-300242857D01*
X-349304761Y-300338095D01*
X-349209523Y-300385714D01*
X-349019047Y-300433333D01*
X-348876190Y-300433333D01*
X-348685714Y-300385714D01*
X-348590476Y-300338095D01*
X-348495238Y-300242857D01*
X-348447619Y-300100000D01*
X-348447619Y-299861904D01*
X-348447619Y-301385714D02*
X-348447619Y-300814285D01*
X-348447619Y-301100000D02*
X-349447619Y-301100000D01*
X-349304761Y-301004761D01*
X-349209523Y-300909523D01*
X-349161904Y-300814285D01*
X-343247619Y-299861904D02*
X-344247619Y-299861904D01*
X-344247619Y-300100000D01*
X-344200000Y-300242857D01*
X-344104761Y-300338095D01*
X-344009523Y-300385714D01*
X-343819047Y-300433333D01*
X-343676190Y-300433333D01*
X-343485714Y-300385714D01*
X-343390476Y-300338095D01*
X-343295238Y-300242857D01*
X-343247619Y-300100000D01*
X-343247619Y-299861904D01*
X-344247619Y-300766666D02*
X-344247619Y-301385714D01*
X-343866666Y-301052380D01*
X-343866666Y-301195238D01*
X-343819047Y-301290476D01*
X-343771428Y-301338095D01*
X-343676190Y-301385714D01*
X-343438095Y-301385714D01*
X-343342857Y-301338095D01*
X-343295238Y-301290476D01*
X-343247619Y-301195238D01*
X-343247619Y-300909523D01*
X-343295238Y-300814285D01*
X-343342857Y-300766666D01*
X-345847619Y-299861904D02*
X-346847619Y-299861904D01*
X-346847619Y-300100000D01*
X-346800000Y-300242857D01*
X-346704761Y-300338095D01*
X-346609523Y-300385714D01*
X-346419047Y-300433333D01*
X-346276190Y-300433333D01*
X-346085714Y-300385714D01*
X-345990476Y-300338095D01*
X-345895238Y-300242857D01*
X-345847619Y-300100000D01*
X-345847619Y-299861904D01*
X-346752380Y-300814285D02*
X-346800000Y-300861904D01*
X-346847619Y-300957142D01*
X-346847619Y-301195238D01*
X-346800000Y-301290476D01*
X-346752380Y-301338095D01*
X-346657142Y-301385714D01*
X-346561904Y-301385714D01*
X-346419047Y-301338095D01*
X-345847619Y-300766666D01*
X-345847619Y-301385714D01*
X-340647619Y-299861904D02*
X-341647619Y-299861904D01*
X-341647619Y-300100000D01*
X-341600000Y-300242857D01*
X-341504761Y-300338095D01*
X-341409523Y-300385714D01*
X-341219047Y-300433333D01*
X-341076190Y-300433333D01*
X-340885714Y-300385714D01*
X-340790476Y-300338095D01*
X-340695238Y-300242857D01*
X-340647619Y-300100000D01*
X-340647619Y-299861904D01*
X-341314285Y-301290476D02*
X-340647619Y-301290476D01*
X-341695238Y-301052380D02*
X-340980952Y-300814285D01*
X-340980952Y-301433333D01*
X-358797619Y-299861904D02*
X-359797619Y-299861904D01*
X-359797619Y-300100000D01*
X-359750000Y-300242857D01*
X-359654761Y-300338095D01*
X-359559523Y-300385714D01*
X-359369047Y-300433333D01*
X-359226190Y-300433333D01*
X-359035714Y-300385714D01*
X-358940476Y-300338095D01*
X-358845238Y-300242857D01*
X-358797619Y-300100000D01*
X-358797619Y-299861904D01*
X-359797619Y-301338095D02*
X-359797619Y-300861904D01*
X-359321428Y-300814285D01*
X-359369047Y-300861904D01*
X-359416666Y-300957142D01*
X-359416666Y-301195238D01*
X-359369047Y-301290476D01*
X-359321428Y-301338095D01*
X-359226190Y-301385714D01*
X-358988095Y-301385714D01*
X-358892857Y-301338095D01*
X-358845238Y-301290476D01*
X-358797619Y-301195238D01*
X-358797619Y-300957142D01*
X-358845238Y-300861904D01*
X-358892857Y-300814285D01*
X-350997619Y-299861904D02*
X-351997619Y-299861904D01*
X-351997619Y-300100000D01*
X-351950000Y-300242857D01*
X-351854761Y-300338095D01*
X-351759523Y-300385714D01*
X-351569047Y-300433333D01*
X-351426190Y-300433333D01*
X-351235714Y-300385714D01*
X-351140476Y-300338095D01*
X-351045238Y-300242857D01*
X-350997619Y-300100000D01*
X-350997619Y-299861904D01*
X-351569047Y-301004761D02*
X-351616666Y-300909523D01*
X-351664285Y-300861904D01*
X-351759523Y-300814285D01*
X-351807142Y-300814285D01*
X-351902380Y-300861904D01*
X-351950000Y-300909523D01*
X-351997619Y-301004761D01*
X-351997619Y-301195238D01*
X-351950000Y-301290476D01*
X-351902380Y-301338095D01*
X-351807142Y-301385714D01*
X-351759523Y-301385714D01*
X-351664285Y-301338095D01*
X-351616666Y-301290476D01*
X-351569047Y-301195238D01*
X-351569047Y-301004761D01*
X-351521428Y-300909523D01*
X-351473809Y-300861904D01*
X-351378571Y-300814285D01*
X-351188095Y-300814285D01*
X-351092857Y-300861904D01*
X-351045238Y-300909523D01*
X-350997619Y-301004761D01*
X-350997619Y-301195238D01*
X-351045238Y-301290476D01*
X-351092857Y-301338095D01*
X-351188095Y-301385714D01*
X-351378571Y-301385714D01*
X-351473809Y-301338095D01*
X-351521428Y-301290476D01*
X-351569047Y-301195238D01*
X-366588528Y-299385714D02*
X-367588528Y-299385714D01*
X-367588528Y-299623809D01*
X-367540909Y-299766666D01*
X-367445670Y-299861904D01*
X-367350432Y-299909523D01*
X-367159956Y-299957142D01*
X-367017099Y-299957142D01*
X-366826623Y-299909523D01*
X-366731385Y-299861904D01*
X-366636147Y-299766666D01*
X-366588528Y-299623809D01*
X-366588528Y-299385714D01*
X-366588528Y-300909523D02*
X-366588528Y-300338095D01*
X-366588528Y-300623809D02*
X-367588528Y-300623809D01*
X-367445670Y-300528571D01*
X-367350432Y-300433333D01*
X-367302813Y-300338095D01*
X-367588528Y-301242857D02*
X-367588528Y-301909523D01*
X-366588528Y-301480952D01*
X-362779432Y-308335714D02*
X-363779432Y-308335714D01*
X-363779432Y-308573809D01*
X-363731813Y-308716666D01*
X-363636574Y-308811904D01*
X-363541336Y-308859523D01*
X-363350860Y-308907142D01*
X-363208003Y-308907142D01*
X-363017527Y-308859523D01*
X-362922289Y-308811904D01*
X-362827051Y-308716666D01*
X-362779432Y-308573809D01*
X-362779432Y-308335714D01*
X-362779432Y-309859523D02*
X-362779432Y-309288095D01*
X-362779432Y-309573809D02*
X-363779432Y-309573809D01*
X-363636574Y-309478571D01*
X-363541336Y-309383333D01*
X-363493717Y-309288095D01*
X-363779432Y-310478571D02*
X-363779432Y-310573809D01*
X-363731813Y-310669047D01*
X-363684193Y-310716666D01*
X-363588955Y-310764285D01*
X-363398479Y-310811904D01*
X-363160384Y-310811904D01*
X-362969908Y-310764285D01*
X-362874670Y-310716666D01*
X-362827051Y-310669047D01*
X-362779432Y-310573809D01*
X-362779432Y-310478571D01*
X-362827051Y-310383333D01*
X-362874670Y-310335714D01*
X-362969908Y-310288095D01*
X-363160384Y-310240476D01*
X-363398479Y-310240476D01*
X-363588955Y-310288095D01*
X-363684193Y-310335714D01*
X-363731813Y-310383333D01*
X-363779432Y-310478571D01*
X-376370344Y-299385714D02*
X-377370344Y-299385714D01*
X-377370344Y-299623809D01*
X-377322725Y-299766666D01*
X-377227486Y-299861904D01*
X-377132248Y-299909523D01*
X-376941772Y-299957142D01*
X-376798915Y-299957142D01*
X-376608439Y-299909523D01*
X-376513201Y-299861904D01*
X-376417963Y-299766666D01*
X-376370344Y-299623809D01*
X-376370344Y-299385714D01*
X-376370344Y-300909523D02*
X-376370344Y-300338095D01*
X-376370344Y-300623809D02*
X-377370344Y-300623809D01*
X-377227486Y-300528571D01*
X-377132248Y-300433333D01*
X-377084629Y-300338095D01*
X-376941772Y-301480952D02*
X-376989391Y-301385714D01*
X-377037010Y-301338095D01*
X-377132248Y-301290476D01*
X-377179867Y-301290476D01*
X-377275105Y-301338095D01*
X-377322725Y-301385714D01*
X-377370344Y-301480952D01*
X-377370344Y-301671428D01*
X-377322725Y-301766666D01*
X-377275105Y-301814285D01*
X-377179867Y-301861904D01*
X-377132248Y-301861904D01*
X-377037010Y-301814285D01*
X-376989391Y-301766666D01*
X-376941772Y-301671428D01*
X-376941772Y-301480952D01*
X-376894153Y-301385714D01*
X-376846534Y-301338095D01*
X-376751296Y-301290476D01*
X-376560820Y-301290476D01*
X-376465582Y-301338095D01*
X-376417963Y-301385714D01*
X-376370344Y-301480952D01*
X-376370344Y-301671428D01*
X-376417963Y-301766666D01*
X-376465582Y-301814285D01*
X-376560820Y-301861904D01*
X-376751296Y-301861904D01*
X-376846534Y-301814285D01*
X-376894153Y-301766666D01*
X-376941772Y-301671428D01*
X-335159214Y-285559780D02*
X-335159214Y-284559780D01*
X-335397309Y-284559780D01*
X-335540166Y-284607400D01*
X-335635404Y-284702638D01*
X-335683023Y-284797876D01*
X-335730642Y-284988352D01*
X-335730642Y-285131209D01*
X-335683023Y-285321685D01*
X-335635404Y-285416923D01*
X-335540166Y-285512161D01*
X-335397309Y-285559780D01*
X-335159214Y-285559780D01*
X-336111595Y-284655019D02*
X-336159214Y-284607400D01*
X-336254452Y-284559780D01*
X-336492547Y-284559780D01*
X-336587785Y-284607400D01*
X-336635404Y-284655019D01*
X-336683023Y-284750257D01*
X-336683023Y-284845495D01*
X-336635404Y-284988352D01*
X-336063976Y-285559780D01*
X-336683023Y-285559780D01*
X-337635404Y-285559780D02*
X-337063976Y-285559780D01*
X-337349690Y-285559780D02*
X-337349690Y-284559780D01*
X-337254452Y-284702638D01*
X-337159214Y-284797876D01*
X-337063976Y-284845495D01*
X-307335714Y-274752380D02*
X-307335714Y-273752380D01*
X-307573809Y-273752380D01*
X-307716666Y-273800000D01*
X-307811904Y-273895238D01*
X-307859523Y-273990476D01*
X-307907142Y-274180952D01*
X-307907142Y-274323809D01*
X-307859523Y-274514285D01*
X-307811904Y-274609523D01*
X-307716666Y-274704761D01*
X-307573809Y-274752380D01*
X-307335714Y-274752380D01*
X-308288095Y-273847619D02*
X-308335714Y-273800000D01*
X-308430952Y-273752380D01*
X-308669047Y-273752380D01*
X-308764285Y-273800000D01*
X-308811904Y-273847619D01*
X-308859523Y-273942857D01*
X-308859523Y-274038095D01*
X-308811904Y-274180952D01*
X-308240476Y-274752380D01*
X-308859523Y-274752380D01*
X-309192857Y-273752380D02*
X-309811904Y-273752380D01*
X-309478571Y-274133333D01*
X-309621428Y-274133333D01*
X-309716666Y-274180952D01*
X-309764285Y-274228571D01*
X-309811904Y-274323809D01*
X-309811904Y-274561904D01*
X-309764285Y-274657142D01*
X-309716666Y-274704761D01*
X-309621428Y-274752380D01*
X-309335714Y-274752380D01*
X-309240476Y-274704761D01*
X-309192857Y-274657142D01*
X-307335714Y-299352380D02*
X-307335714Y-298352380D01*
X-307573809Y-298352380D01*
X-307716666Y-298400000D01*
X-307811904Y-298495238D01*
X-307859523Y-298590476D01*
X-307907142Y-298780952D01*
X-307907142Y-298923809D01*
X-307859523Y-299114285D01*
X-307811904Y-299209523D01*
X-307716666Y-299304761D01*
X-307573809Y-299352380D01*
X-307335714Y-299352380D01*
X-308288095Y-298447619D02*
X-308335714Y-298400000D01*
X-308430952Y-298352380D01*
X-308669047Y-298352380D01*
X-308764285Y-298400000D01*
X-308811904Y-298447619D01*
X-308859523Y-298542857D01*
X-308859523Y-298638095D01*
X-308811904Y-298780952D01*
X-308240476Y-299352380D01*
X-308859523Y-299352380D01*
X-309716666Y-298685714D02*
X-309716666Y-299352380D01*
X-309478571Y-298304761D02*
X-309240476Y-299019047D01*
X-309859523Y-299019047D01*
X-265266859Y-298235714D02*
X-266266859Y-298235714D01*
X-266266859Y-298473809D01*
X-266219240Y-298616666D01*
X-266124001Y-298711904D01*
X-266028763Y-298759523D01*
X-265838287Y-298807142D01*
X-265695430Y-298807142D01*
X-265504954Y-298759523D01*
X-265409716Y-298711904D01*
X-265314478Y-298616666D01*
X-265266859Y-298473809D01*
X-265266859Y-298235714D01*
X-266171620Y-299188095D02*
X-266219240Y-299235714D01*
X-266266859Y-299330952D01*
X-266266859Y-299569047D01*
X-266219240Y-299664285D01*
X-266171620Y-299711904D01*
X-266076382Y-299759523D01*
X-265981144Y-299759523D01*
X-265838287Y-299711904D01*
X-265266859Y-299140476D01*
X-265266859Y-299759523D01*
X-265266859Y-300235714D02*
X-265266859Y-300426190D01*
X-265314478Y-300521428D01*
X-265362097Y-300569047D01*
X-265504954Y-300664285D01*
X-265695430Y-300711904D01*
X-266076382Y-300711904D01*
X-266171620Y-300664285D01*
X-266219240Y-300616666D01*
X-266266859Y-300521428D01*
X-266266859Y-300330952D01*
X-266219240Y-300235714D01*
X-266171620Y-300188095D01*
X-266076382Y-300140476D01*
X-265838287Y-300140476D01*
X-265743049Y-300188095D01*
X-265695430Y-300235714D01*
X-265647811Y-300330952D01*
X-265647811Y-300521428D01*
X-265695430Y-300616666D01*
X-265743049Y-300664285D01*
X-265838287Y-300711904D01*
X-262447619Y-298235714D02*
X-263447619Y-298235714D01*
X-263447619Y-298473809D01*
X-263400000Y-298616666D01*
X-263304761Y-298711904D01*
X-263209523Y-298759523D01*
X-263019047Y-298807142D01*
X-262876190Y-298807142D01*
X-262685714Y-298759523D01*
X-262590476Y-298711904D01*
X-262495238Y-298616666D01*
X-262447619Y-298473809D01*
X-262447619Y-298235714D01*
X-263447619Y-299140476D02*
X-263447619Y-299759523D01*
X-263066666Y-299426190D01*
X-263066666Y-299569047D01*
X-263019047Y-299664285D01*
X-262971428Y-299711904D01*
X-262876190Y-299759523D01*
X-262638095Y-299759523D01*
X-262542857Y-299711904D01*
X-262495238Y-299664285D01*
X-262447619Y-299569047D01*
X-262447619Y-299283333D01*
X-262495238Y-299188095D01*
X-262542857Y-299140476D01*
X-263447619Y-300378571D02*
X-263447619Y-300473809D01*
X-263400000Y-300569047D01*
X-263352380Y-300616666D01*
X-263257142Y-300664285D01*
X-263066666Y-300711904D01*
X-262828571Y-300711904D01*
X-262638095Y-300664285D01*
X-262542857Y-300616666D01*
X-262495238Y-300569047D01*
X-262447619Y-300473809D01*
X-262447619Y-300378571D01*
X-262495238Y-300283333D01*
X-262542857Y-300235714D01*
X-262638095Y-300188095D01*
X-262828571Y-300140476D01*
X-263066666Y-300140476D01*
X-263257142Y-300188095D01*
X-263352380Y-300235714D01*
X-263400000Y-300283333D01*
X-263447619Y-300378571D01*
X-307335714Y-296852380D02*
X-307335714Y-295852380D01*
X-307573809Y-295852380D01*
X-307716666Y-295900000D01*
X-307811904Y-295995238D01*
X-307859523Y-296090476D01*
X-307907142Y-296280952D01*
X-307907142Y-296423809D01*
X-307859523Y-296614285D01*
X-307811904Y-296709523D01*
X-307716666Y-296804761D01*
X-307573809Y-296852380D01*
X-307335714Y-296852380D01*
X-308240476Y-295852380D02*
X-308859523Y-295852380D01*
X-308526190Y-296233333D01*
X-308669047Y-296233333D01*
X-308764285Y-296280952D01*
X-308811904Y-296328571D01*
X-308859523Y-296423809D01*
X-308859523Y-296661904D01*
X-308811904Y-296757142D01*
X-308764285Y-296804761D01*
X-308669047Y-296852380D01*
X-308383333Y-296852380D01*
X-308288095Y-296804761D01*
X-308240476Y-296757142D01*
X-309811904Y-296852380D02*
X-309240476Y-296852380D01*
X-309526190Y-296852380D02*
X-309526190Y-295852380D01*
X-309430952Y-295995238D01*
X-309335714Y-296090476D01*
X-309240476Y-296138095D01*
X-307335714Y-291852380D02*
X-307335714Y-290852380D01*
X-307573809Y-290852380D01*
X-307716666Y-290900000D01*
X-307811904Y-290995238D01*
X-307859523Y-291090476D01*
X-307907142Y-291280952D01*
X-307907142Y-291423809D01*
X-307859523Y-291614285D01*
X-307811904Y-291709523D01*
X-307716666Y-291804761D01*
X-307573809Y-291852380D01*
X-307335714Y-291852380D01*
X-308240476Y-290852380D02*
X-308859523Y-290852380D01*
X-308526190Y-291233333D01*
X-308669047Y-291233333D01*
X-308764285Y-291280952D01*
X-308811904Y-291328571D01*
X-308859523Y-291423809D01*
X-308859523Y-291661904D01*
X-308811904Y-291757142D01*
X-308764285Y-291804761D01*
X-308669047Y-291852380D01*
X-308383333Y-291852380D01*
X-308288095Y-291804761D01*
X-308240476Y-291757142D01*
X-309192857Y-290852380D02*
X-309811904Y-290852380D01*
X-309478571Y-291233333D01*
X-309621428Y-291233333D01*
X-309716666Y-291280952D01*
X-309764285Y-291328571D01*
X-309811904Y-291423809D01*
X-309811904Y-291661904D01*
X-309764285Y-291757142D01*
X-309716666Y-291804761D01*
X-309621428Y-291852380D01*
X-309335714Y-291852380D01*
X-309240476Y-291804761D01*
X-309192857Y-291757142D01*
X-307335714Y-289302380D02*
X-307335714Y-288302380D01*
X-307573809Y-288302380D01*
X-307716666Y-288350000D01*
X-307811904Y-288445238D01*
X-307859523Y-288540476D01*
X-307907142Y-288730952D01*
X-307907142Y-288873809D01*
X-307859523Y-289064285D01*
X-307811904Y-289159523D01*
X-307716666Y-289254761D01*
X-307573809Y-289302380D01*
X-307335714Y-289302380D01*
X-308240476Y-288302380D02*
X-308859523Y-288302380D01*
X-308526190Y-288683333D01*
X-308669047Y-288683333D01*
X-308764285Y-288730952D01*
X-308811904Y-288778571D01*
X-308859523Y-288873809D01*
X-308859523Y-289111904D01*
X-308811904Y-289207142D01*
X-308764285Y-289254761D01*
X-308669047Y-289302380D01*
X-308383333Y-289302380D01*
X-308288095Y-289254761D01*
X-308240476Y-289207142D01*
X-309716666Y-288635714D02*
X-309716666Y-289302380D01*
X-309478571Y-288254761D02*
X-309240476Y-288969047D01*
X-309859523Y-288969047D01*
X-290259159Y-298235714D02*
X-291259159Y-298235714D01*
X-291259159Y-298473809D01*
X-291211540Y-298616666D01*
X-291116301Y-298711904D01*
X-291021063Y-298759523D01*
X-290830587Y-298807142D01*
X-290687730Y-298807142D01*
X-290497254Y-298759523D01*
X-290402016Y-298711904D01*
X-290306778Y-298616666D01*
X-290259159Y-298473809D01*
X-290259159Y-298235714D01*
X-291259159Y-299140476D02*
X-291259159Y-299759523D01*
X-290878206Y-299426190D01*
X-290878206Y-299569047D01*
X-290830587Y-299664285D01*
X-290782968Y-299711904D01*
X-290687730Y-299759523D01*
X-290449635Y-299759523D01*
X-290354397Y-299711904D01*
X-290306778Y-299664285D01*
X-290259159Y-299569047D01*
X-290259159Y-299283333D01*
X-290306778Y-299188095D01*
X-290354397Y-299140476D01*
X-291259159Y-300616666D02*
X-291259159Y-300426190D01*
X-291211540Y-300330952D01*
X-291163920Y-300283333D01*
X-291021063Y-300188095D01*
X-290830587Y-300140476D01*
X-290449635Y-300140476D01*
X-290354397Y-300188095D01*
X-290306778Y-300235714D01*
X-290259159Y-300330952D01*
X-290259159Y-300521428D01*
X-290306778Y-300616666D01*
X-290354397Y-300664285D01*
X-290449635Y-300711904D01*
X-290687730Y-300711904D01*
X-290782968Y-300664285D01*
X-290830587Y-300616666D01*
X-290878206Y-300521428D01*
X-290878206Y-300330952D01*
X-290830587Y-300235714D01*
X-290782968Y-300188095D01*
X-290687730Y-300140476D01*
X-293078389Y-298235714D02*
X-294078389Y-298235714D01*
X-294078389Y-298473809D01*
X-294030770Y-298616666D01*
X-293935531Y-298711904D01*
X-293840293Y-298759523D01*
X-293649817Y-298807142D01*
X-293506960Y-298807142D01*
X-293316484Y-298759523D01*
X-293221246Y-298711904D01*
X-293126008Y-298616666D01*
X-293078389Y-298473809D01*
X-293078389Y-298235714D01*
X-294078389Y-299140476D02*
X-294078389Y-299759523D01*
X-293697436Y-299426190D01*
X-293697436Y-299569047D01*
X-293649817Y-299664285D01*
X-293602198Y-299711904D01*
X-293506960Y-299759523D01*
X-293268865Y-299759523D01*
X-293173627Y-299711904D01*
X-293126008Y-299664285D01*
X-293078389Y-299569047D01*
X-293078389Y-299283333D01*
X-293126008Y-299188095D01*
X-293173627Y-299140476D01*
X-294078389Y-300092857D02*
X-294078389Y-300759523D01*
X-293078389Y-300330952D01*
X-276163009Y-298235714D02*
X-277163009Y-298235714D01*
X-277163009Y-298473809D01*
X-277115390Y-298616666D01*
X-277020151Y-298711904D01*
X-276924913Y-298759523D01*
X-276734437Y-298807142D01*
X-276591580Y-298807142D01*
X-276401104Y-298759523D01*
X-276305866Y-298711904D01*
X-276210628Y-298616666D01*
X-276163009Y-298473809D01*
X-276163009Y-298235714D01*
X-277163009Y-299140476D02*
X-277163009Y-299759523D01*
X-276782056Y-299426190D01*
X-276782056Y-299569047D01*
X-276734437Y-299664285D01*
X-276686818Y-299711904D01*
X-276591580Y-299759523D01*
X-276353485Y-299759523D01*
X-276258247Y-299711904D01*
X-276210628Y-299664285D01*
X-276163009Y-299569047D01*
X-276163009Y-299283333D01*
X-276210628Y-299188095D01*
X-276258247Y-299140476D01*
X-276163009Y-300235714D02*
X-276163009Y-300426190D01*
X-276210628Y-300521428D01*
X-276258247Y-300569047D01*
X-276401104Y-300664285D01*
X-276591580Y-300711904D01*
X-276972532Y-300711904D01*
X-277067770Y-300664285D01*
X-277115390Y-300616666D01*
X-277163009Y-300521428D01*
X-277163009Y-300330952D01*
X-277115390Y-300235714D01*
X-277067770Y-300188095D01*
X-276972532Y-300140476D01*
X-276734437Y-300140476D01*
X-276639199Y-300188095D01*
X-276591580Y-300235714D01*
X-276543961Y-300330952D01*
X-276543961Y-300521428D01*
X-276591580Y-300616666D01*
X-276639199Y-300664285D01*
X-276734437Y-300711904D01*
X-281801469Y-298235714D02*
X-282801469Y-298235714D01*
X-282801469Y-298473809D01*
X-282753850Y-298616666D01*
X-282658611Y-298711904D01*
X-282563373Y-298759523D01*
X-282372897Y-298807142D01*
X-282230040Y-298807142D01*
X-282039564Y-298759523D01*
X-281944326Y-298711904D01*
X-281849088Y-298616666D01*
X-281801469Y-298473809D01*
X-281801469Y-298235714D01*
X-282468135Y-299664285D02*
X-281801469Y-299664285D01*
X-282849088Y-299426190D02*
X-282134802Y-299188095D01*
X-282134802Y-299807142D01*
X-281801469Y-300711904D02*
X-281801469Y-300140476D01*
X-281801469Y-300426190D02*
X-282801469Y-300426190D01*
X-282658611Y-300330952D01*
X-282563373Y-300235714D01*
X-282515754Y-300140476D01*
X-284620699Y-298235714D02*
X-285620699Y-298235714D01*
X-285620699Y-298473809D01*
X-285573080Y-298616666D01*
X-285477841Y-298711904D01*
X-285382603Y-298759523D01*
X-285192127Y-298807142D01*
X-285049270Y-298807142D01*
X-284858794Y-298759523D01*
X-284763556Y-298711904D01*
X-284668318Y-298616666D01*
X-284620699Y-298473809D01*
X-284620699Y-298235714D01*
X-285287365Y-299664285D02*
X-284620699Y-299664285D01*
X-285668318Y-299426190D02*
X-284954032Y-299188095D01*
X-284954032Y-299807142D01*
X-285525460Y-300140476D02*
X-285573080Y-300188095D01*
X-285620699Y-300283333D01*
X-285620699Y-300521428D01*
X-285573080Y-300616666D01*
X-285525460Y-300664285D01*
X-285430222Y-300711904D01*
X-285334984Y-300711904D01*
X-285192127Y-300664285D01*
X-284620699Y-300092857D01*
X-284620699Y-300711904D01*
X-270605319Y-298235714D02*
X-271605319Y-298235714D01*
X-271605319Y-298473809D01*
X-271557700Y-298616666D01*
X-271462461Y-298711904D01*
X-271367223Y-298759523D01*
X-271176747Y-298807142D01*
X-271033890Y-298807142D01*
X-270843414Y-298759523D01*
X-270748176Y-298711904D01*
X-270652938Y-298616666D01*
X-270605319Y-298473809D01*
X-270605319Y-298235714D01*
X-271271985Y-299664285D02*
X-270605319Y-299664285D01*
X-271652938Y-299426190D02*
X-270938652Y-299188095D01*
X-270938652Y-299807142D01*
X-271605319Y-300092857D02*
X-271605319Y-300711904D01*
X-271224366Y-300378571D01*
X-271224366Y-300521428D01*
X-271176747Y-300616666D01*
X-271129128Y-300664285D01*
X-271033890Y-300711904D01*
X-270795795Y-300711904D01*
X-270700557Y-300664285D01*
X-270652938Y-300616666D01*
X-270605319Y-300521428D01*
X-270605319Y-300235714D01*
X-270652938Y-300140476D01*
X-270700557Y-300092857D01*
X-335159214Y-283055332D02*
X-335159214Y-282055332D01*
X-335397309Y-282055332D01*
X-335540166Y-282102952D01*
X-335635404Y-282198190D01*
X-335683023Y-282293428D01*
X-335730642Y-282483904D01*
X-335730642Y-282626761D01*
X-335683023Y-282817237D01*
X-335635404Y-282912475D01*
X-335540166Y-283007713D01*
X-335397309Y-283055332D01*
X-335159214Y-283055332D01*
X-336587785Y-282388666D02*
X-336587785Y-283055332D01*
X-336349690Y-282007713D02*
X-336111595Y-282721999D01*
X-336730642Y-282721999D01*
X-337587785Y-282055332D02*
X-337111595Y-282055332D01*
X-337063976Y-282531523D01*
X-337111595Y-282483904D01*
X-337206833Y-282436285D01*
X-337444928Y-282436285D01*
X-337540166Y-282483904D01*
X-337587785Y-282531523D01*
X-337635404Y-282626761D01*
X-337635404Y-282864856D01*
X-337587785Y-282960094D01*
X-337540166Y-283007713D01*
X-337444928Y-283055332D01*
X-337206833Y-283055332D01*
X-337111595Y-283007713D01*
X-337063976Y-282960094D01*
X-335159214Y-278057556D02*
X-335159214Y-277057556D01*
X-335397309Y-277057556D01*
X-335540166Y-277105176D01*
X-335635404Y-277200414D01*
X-335683023Y-277295652D01*
X-335730642Y-277486128D01*
X-335730642Y-277628985D01*
X-335683023Y-277819461D01*
X-335635404Y-277914699D01*
X-335540166Y-278009937D01*
X-335397309Y-278057556D01*
X-335159214Y-278057556D01*
X-336587785Y-277390890D02*
X-336587785Y-278057556D01*
X-336349690Y-277009937D02*
X-336111595Y-277724223D01*
X-336730642Y-277724223D01*
X-337016357Y-277057556D02*
X-337683023Y-277057556D01*
X-337254452Y-278057556D01*
X-335159214Y-273109780D02*
X-335159214Y-272109780D01*
X-335397309Y-272109780D01*
X-335540166Y-272157400D01*
X-335635404Y-272252638D01*
X-335683023Y-272347876D01*
X-335730642Y-272538352D01*
X-335730642Y-272681209D01*
X-335683023Y-272871685D01*
X-335635404Y-272966923D01*
X-335540166Y-273062161D01*
X-335397309Y-273109780D01*
X-335159214Y-273109780D01*
X-336635404Y-272109780D02*
X-336159214Y-272109780D01*
X-336111595Y-272585971D01*
X-336159214Y-272538352D01*
X-336254452Y-272490733D01*
X-336492547Y-272490733D01*
X-336587785Y-272538352D01*
X-336635404Y-272585971D01*
X-336683023Y-272681209D01*
X-336683023Y-272919304D01*
X-336635404Y-273014542D01*
X-336587785Y-273062161D01*
X-336492547Y-273109780D01*
X-336254452Y-273109780D01*
X-336159214Y-273062161D01*
X-336111595Y-273014542D01*
X-337302071Y-272109780D02*
X-337397309Y-272109780D01*
X-337492547Y-272157400D01*
X-337540166Y-272205019D01*
X-337587785Y-272300257D01*
X-337635404Y-272490733D01*
X-337635404Y-272728828D01*
X-337587785Y-272919304D01*
X-337540166Y-273014542D01*
X-337492547Y-273062161D01*
X-337397309Y-273109780D01*
X-337302071Y-273109780D01*
X-337206833Y-273062161D01*
X-337159214Y-273014542D01*
X-337111595Y-272919304D01*
X-337063976Y-272728828D01*
X-337063976Y-272490733D01*
X-337111595Y-272300257D01*
X-337159214Y-272205019D01*
X-337206833Y-272157400D01*
X-337302071Y-272109780D01*
X-307335714Y-272302380D02*
X-307335714Y-271302380D01*
X-307573809Y-271302380D01*
X-307716666Y-271350000D01*
X-307811904Y-271445238D01*
X-307859523Y-271540476D01*
X-307907142Y-271730952D01*
X-307907142Y-271873809D01*
X-307859523Y-272064285D01*
X-307811904Y-272159523D01*
X-307716666Y-272254761D01*
X-307573809Y-272302380D01*
X-307335714Y-272302380D01*
X-308811904Y-271302380D02*
X-308335714Y-271302380D01*
X-308288095Y-271778571D01*
X-308335714Y-271730952D01*
X-308430952Y-271683333D01*
X-308669047Y-271683333D01*
X-308764285Y-271730952D01*
X-308811904Y-271778571D01*
X-308859523Y-271873809D01*
X-308859523Y-272111904D01*
X-308811904Y-272207142D01*
X-308764285Y-272254761D01*
X-308669047Y-272302380D01*
X-308430952Y-272302380D01*
X-308335714Y-272254761D01*
X-308288095Y-272207142D01*
X-309240476Y-271397619D02*
X-309288095Y-271350000D01*
X-309383333Y-271302380D01*
X-309621428Y-271302380D01*
X-309716666Y-271350000D01*
X-309764285Y-271397619D01*
X-309811904Y-271492857D01*
X-309811904Y-271588095D01*
X-309764285Y-271730952D01*
X-309192857Y-272302380D01*
X-309811904Y-272302380D01*
X-355297619Y-308335714D02*
X-356297619Y-308335714D01*
X-356297619Y-308573809D01*
X-356250000Y-308716666D01*
X-356154761Y-308811904D01*
X-356059523Y-308859523D01*
X-355869047Y-308907142D01*
X-355726190Y-308907142D01*
X-355535714Y-308859523D01*
X-355440476Y-308811904D01*
X-355345238Y-308716666D01*
X-355297619Y-308573809D01*
X-355297619Y-308335714D01*
X-356297619Y-309811904D02*
X-356297619Y-309335714D01*
X-355821428Y-309288095D01*
X-355869047Y-309335714D01*
X-355916666Y-309430952D01*
X-355916666Y-309669047D01*
X-355869047Y-309764285D01*
X-355821428Y-309811904D01*
X-355726190Y-309859523D01*
X-355488095Y-309859523D01*
X-355392857Y-309811904D01*
X-355345238Y-309764285D01*
X-355297619Y-309669047D01*
X-355297619Y-309430952D01*
X-355345238Y-309335714D01*
X-355392857Y-309288095D01*
X-356297619Y-310192857D02*
X-356297619Y-310811904D01*
X-355916666Y-310478571D01*
X-355916666Y-310621428D01*
X-355869047Y-310716666D01*
X-355821428Y-310764285D01*
X-355726190Y-310811904D01*
X-355488095Y-310811904D01*
X-355392857Y-310764285D01*
X-355345238Y-310716666D01*
X-355297619Y-310621428D01*
X-355297619Y-310335714D01*
X-355345238Y-310240476D01*
X-355392857Y-310192857D01*
X-307335714Y-286852380D02*
X-307335714Y-285852380D01*
X-307573809Y-285852380D01*
X-307716666Y-285900000D01*
X-307811904Y-285995238D01*
X-307859523Y-286090476D01*
X-307907142Y-286280952D01*
X-307907142Y-286423809D01*
X-307859523Y-286614285D01*
X-307811904Y-286709523D01*
X-307716666Y-286804761D01*
X-307573809Y-286852380D01*
X-307335714Y-286852380D01*
X-308811904Y-285852380D02*
X-308335714Y-285852380D01*
X-308288095Y-286328571D01*
X-308335714Y-286280952D01*
X-308430952Y-286233333D01*
X-308669047Y-286233333D01*
X-308764285Y-286280952D01*
X-308811904Y-286328571D01*
X-308859523Y-286423809D01*
X-308859523Y-286661904D01*
X-308811904Y-286757142D01*
X-308764285Y-286804761D01*
X-308669047Y-286852380D01*
X-308430952Y-286852380D01*
X-308335714Y-286804761D01*
X-308288095Y-286757142D01*
X-309716666Y-286185714D02*
X-309716666Y-286852380D01*
X-309478571Y-285804761D02*
X-309240476Y-286519047D01*
X-309859523Y-286519047D01*
X-357797619Y-308335714D02*
X-358797619Y-308335714D01*
X-358797619Y-308573809D01*
X-358750000Y-308716666D01*
X-358654761Y-308811904D01*
X-358559523Y-308859523D01*
X-358369047Y-308907142D01*
X-358226190Y-308907142D01*
X-358035714Y-308859523D01*
X-357940476Y-308811904D01*
X-357845238Y-308716666D01*
X-357797619Y-308573809D01*
X-357797619Y-308335714D01*
X-358797619Y-309811904D02*
X-358797619Y-309335714D01*
X-358321428Y-309288095D01*
X-358369047Y-309335714D01*
X-358416666Y-309430952D01*
X-358416666Y-309669047D01*
X-358369047Y-309764285D01*
X-358321428Y-309811904D01*
X-358226190Y-309859523D01*
X-357988095Y-309859523D01*
X-357892857Y-309811904D01*
X-357845238Y-309764285D01*
X-357797619Y-309669047D01*
X-357797619Y-309430952D01*
X-357845238Y-309335714D01*
X-357892857Y-309288095D01*
X-357797619Y-310811904D02*
X-357797619Y-310240476D01*
X-357797619Y-310526190D02*
X-358797619Y-310526190D01*
X-358654761Y-310430952D01*
X-358559523Y-310335714D01*
X-358511904Y-310240476D01*
X-307335714Y-284402380D02*
X-307335714Y-283402380D01*
X-307573809Y-283402380D01*
X-307716666Y-283450000D01*
X-307811904Y-283545238D01*
X-307859523Y-283640476D01*
X-307907142Y-283830952D01*
X-307907142Y-283973809D01*
X-307859523Y-284164285D01*
X-307811904Y-284259523D01*
X-307716666Y-284354761D01*
X-307573809Y-284402380D01*
X-307335714Y-284402380D01*
X-308811904Y-283402380D02*
X-308335714Y-283402380D01*
X-308288095Y-283878571D01*
X-308335714Y-283830952D01*
X-308430952Y-283783333D01*
X-308669047Y-283783333D01*
X-308764285Y-283830952D01*
X-308811904Y-283878571D01*
X-308859523Y-283973809D01*
X-308859523Y-284211904D01*
X-308811904Y-284307142D01*
X-308764285Y-284354761D01*
X-308669047Y-284402380D01*
X-308430952Y-284402380D01*
X-308335714Y-284354761D01*
X-308288095Y-284307142D01*
X-309764285Y-283402380D02*
X-309288095Y-283402380D01*
X-309240476Y-283878571D01*
X-309288095Y-283830952D01*
X-309383333Y-283783333D01*
X-309621428Y-283783333D01*
X-309716666Y-283830952D01*
X-309764285Y-283878571D01*
X-309811904Y-283973809D01*
X-309811904Y-284211904D01*
X-309764285Y-284307142D01*
X-309716666Y-284354761D01*
X-309621428Y-284402380D01*
X-309383333Y-284402380D01*
X-309288095Y-284354761D01*
X-309240476Y-284307142D01*
X-307335714Y-282002380D02*
X-307335714Y-281002380D01*
X-307573809Y-281002380D01*
X-307716666Y-281050000D01*
X-307811904Y-281145238D01*
X-307859523Y-281240476D01*
X-307907142Y-281430952D01*
X-307907142Y-281573809D01*
X-307859523Y-281764285D01*
X-307811904Y-281859523D01*
X-307716666Y-281954761D01*
X-307573809Y-282002380D01*
X-307335714Y-282002380D01*
X-308811904Y-281002380D02*
X-308335714Y-281002380D01*
X-308288095Y-281478571D01*
X-308335714Y-281430952D01*
X-308430952Y-281383333D01*
X-308669047Y-281383333D01*
X-308764285Y-281430952D01*
X-308811904Y-281478571D01*
X-308859523Y-281573809D01*
X-308859523Y-281811904D01*
X-308811904Y-281907142D01*
X-308764285Y-281954761D01*
X-308669047Y-282002380D01*
X-308430952Y-282002380D01*
X-308335714Y-281954761D01*
X-308288095Y-281907142D01*
X-309716666Y-281002380D02*
X-309526190Y-281002380D01*
X-309430952Y-281050000D01*
X-309383333Y-281097619D01*
X-309288095Y-281240476D01*
X-309240476Y-281430952D01*
X-309240476Y-281811904D01*
X-309288095Y-281907142D01*
X-309335714Y-281954761D01*
X-309430952Y-282002380D01*
X-309621428Y-282002380D01*
X-309716666Y-281954761D01*
X-309764285Y-281907142D01*
X-309811904Y-281811904D01*
X-309811904Y-281573809D01*
X-309764285Y-281478571D01*
X-309716666Y-281430952D01*
X-309621428Y-281383333D01*
X-309430952Y-281383333D01*
X-309335714Y-281430952D01*
X-309288095Y-281478571D01*
X-309240476Y-281573809D01*
X-335159214Y-288059780D02*
X-335159214Y-287059780D01*
X-335397309Y-287059780D01*
X-335540166Y-287107400D01*
X-335635404Y-287202638D01*
X-335683023Y-287297876D01*
X-335730642Y-287488352D01*
X-335730642Y-287631209D01*
X-335683023Y-287821685D01*
X-335635404Y-287916923D01*
X-335540166Y-288012161D01*
X-335397309Y-288059780D01*
X-335159214Y-288059780D01*
X-336587785Y-287393114D02*
X-336587785Y-288059780D01*
X-336349690Y-287012161D02*
X-336111595Y-287726447D01*
X-336730642Y-287726447D01*
X-337159214Y-288059780D02*
X-337349690Y-288059780D01*
X-337444928Y-288012161D01*
X-337492547Y-287964542D01*
X-337587785Y-287821685D01*
X-337635404Y-287631209D01*
X-337635404Y-287250257D01*
X-337587785Y-287155019D01*
X-337540166Y-287107400D01*
X-337444928Y-287059780D01*
X-337254452Y-287059780D01*
X-337159214Y-287107400D01*
X-337111595Y-287155019D01*
X-337063976Y-287250257D01*
X-337063976Y-287488352D01*
X-337111595Y-287583590D01*
X-337159214Y-287631209D01*
X-337254452Y-287678828D01*
X-337444928Y-287678828D01*
X-337540166Y-287631209D01*
X-337587785Y-287583590D01*
X-337635404Y-287488352D01*
X-307335714Y-279602380D02*
X-307335714Y-278602380D01*
X-307573809Y-278602380D01*
X-307716666Y-278650000D01*
X-307811904Y-278745238D01*
X-307859523Y-278840476D01*
X-307907142Y-279030952D01*
X-307907142Y-279173809D01*
X-307859523Y-279364285D01*
X-307811904Y-279459523D01*
X-307716666Y-279554761D01*
X-307573809Y-279602380D01*
X-307335714Y-279602380D01*
X-308811904Y-278602380D02*
X-308335714Y-278602380D01*
X-308288095Y-279078571D01*
X-308335714Y-279030952D01*
X-308430952Y-278983333D01*
X-308669047Y-278983333D01*
X-308764285Y-279030952D01*
X-308811904Y-279078571D01*
X-308859523Y-279173809D01*
X-308859523Y-279411904D01*
X-308811904Y-279507142D01*
X-308764285Y-279554761D01*
X-308669047Y-279602380D01*
X-308430952Y-279602380D01*
X-308335714Y-279554761D01*
X-308288095Y-279507142D01*
X-309192857Y-278602380D02*
X-309859523Y-278602380D01*
X-309430952Y-279602380D01*
X-335159214Y-275558668D02*
X-335159214Y-274558668D01*
X-335397309Y-274558668D01*
X-335540166Y-274606288D01*
X-335635404Y-274701526D01*
X-335683023Y-274796764D01*
X-335730642Y-274987240D01*
X-335730642Y-275130097D01*
X-335683023Y-275320573D01*
X-335635404Y-275415811D01*
X-335540166Y-275511049D01*
X-335397309Y-275558668D01*
X-335159214Y-275558668D01*
X-336587785Y-274892002D02*
X-336587785Y-275558668D01*
X-336349690Y-274511049D02*
X-336111595Y-275225335D01*
X-336730642Y-275225335D01*
X-337254452Y-274987240D02*
X-337159214Y-274939621D01*
X-337111595Y-274892002D01*
X-337063976Y-274796764D01*
X-337063976Y-274749145D01*
X-337111595Y-274653907D01*
X-337159214Y-274606288D01*
X-337254452Y-274558668D01*
X-337444928Y-274558668D01*
X-337540166Y-274606288D01*
X-337587785Y-274653907D01*
X-337635404Y-274749145D01*
X-337635404Y-274796764D01*
X-337587785Y-274892002D01*
X-337540166Y-274939621D01*
X-337444928Y-274987240D01*
X-337254452Y-274987240D01*
X-337159214Y-275034859D01*
X-337111595Y-275082478D01*
X-337063976Y-275177716D01*
X-337063976Y-275368192D01*
X-337111595Y-275463430D01*
X-337159214Y-275511049D01*
X-337254452Y-275558668D01*
X-337444928Y-275558668D01*
X-337540166Y-275511049D01*
X-337587785Y-275463430D01*
X-337635404Y-275368192D01*
X-337635404Y-275177716D01*
X-337587785Y-275082478D01*
X-337540166Y-275034859D01*
X-337444928Y-274987240D01*
X-305547619Y-317883333D02*
X-306023809Y-317550000D01*
X-305547619Y-317311904D02*
X-306547619Y-317311904D01*
X-306547619Y-317692857D01*
X-306500000Y-317788095D01*
X-306452380Y-317835714D01*
X-306357142Y-317883333D01*
X-306214285Y-317883333D01*
X-306119047Y-317835714D01*
X-306071428Y-317788095D01*
X-306023809Y-317692857D01*
X-306023809Y-317311904D01*
X-305547619Y-318835714D02*
X-305547619Y-318264285D01*
X-305547619Y-318550000D02*
X-306547619Y-318550000D01*
X-306404761Y-318454761D01*
X-306309523Y-318359523D01*
X-306261904Y-318264285D01*
X-300247619Y-317870833D02*
X-300723809Y-317537500D01*
X-300247619Y-317299404D02*
X-301247619Y-317299404D01*
X-301247619Y-317680357D01*
X-301200000Y-317775595D01*
X-301152380Y-317823214D01*
X-301057142Y-317870833D01*
X-300914285Y-317870833D01*
X-300819047Y-317823214D01*
X-300771428Y-317775595D01*
X-300723809Y-317680357D01*
X-300723809Y-317299404D01*
X-301152380Y-318251785D02*
X-301200000Y-318299404D01*
X-301247619Y-318394642D01*
X-301247619Y-318632738D01*
X-301200000Y-318727976D01*
X-301152380Y-318775595D01*
X-301057142Y-318823214D01*
X-300961904Y-318823214D01*
X-300819047Y-318775595D01*
X-300247619Y-318204166D01*
X-300247619Y-318823214D01*
X-284664458Y-231917389D02*
X-285326732Y-232184965D01*
X-285441349Y-232282632D01*
X-285493975Y-232406612D01*
X-285484611Y-232556905D01*
X-285448935Y-232645208D01*
X-285770026Y-231850479D02*
X-284842842Y-231475872D01*
X-285629985Y-231434387D01*
X-285092580Y-230857750D01*
X-286019764Y-231232356D01*
X-285235287Y-230504537D02*
X-285467187Y-229930566D01*
X-285695531Y-230382335D01*
X-285749046Y-230249880D01*
X-285828874Y-230179415D01*
X-285890864Y-230153102D01*
X-285997006Y-230144627D01*
X-286217764Y-230233819D01*
X-286288229Y-230313647D01*
X-286314542Y-230375637D01*
X-286323017Y-230481779D01*
X-286215986Y-230746689D01*
X-286136158Y-230817154D01*
X-286074168Y-230843467D01*
X-285699086Y-229356595D02*
X-285734763Y-229268292D01*
X-285814591Y-229197827D01*
X-285876581Y-229171514D01*
X-285982723Y-229163039D01*
X-286177168Y-229190241D01*
X-286397926Y-229279433D01*
X-286556694Y-229394938D01*
X-286627159Y-229474767D01*
X-286653472Y-229536757D01*
X-286661947Y-229642898D01*
X-286626270Y-229731202D01*
X-286546441Y-229801666D01*
X-286484451Y-229827980D01*
X-286378310Y-229836454D01*
X-286183865Y-229809252D01*
X-285963107Y-229720060D01*
X-285804339Y-229604555D01*
X-285733874Y-229524727D01*
X-285707561Y-229462737D01*
X-285699086Y-229356595D01*
D14*
X-326956666Y-325114047D02*
X-327138095Y-325174523D01*
X-327440476Y-325174523D01*
X-327561428Y-325114047D01*
X-327621904Y-325053571D01*
X-327682380Y-324932619D01*
X-327682380Y-324811666D01*
X-327621904Y-324690714D01*
X-327561428Y-324630238D01*
X-327440476Y-324569761D01*
X-327198571Y-324509285D01*
X-327077619Y-324448809D01*
X-327017142Y-324388333D01*
X-326956666Y-324267380D01*
X-326956666Y-324146428D01*
X-327017142Y-324025476D01*
X-327077619Y-323965000D01*
X-327198571Y-323904523D01*
X-327500952Y-323904523D01*
X-327682380Y-323965000D01*
X-328105714Y-323904523D02*
X-328408095Y-325174523D01*
X-328650000Y-324267380D01*
X-328891904Y-325174523D01*
X-329194285Y-323904523D01*
X-329617619Y-324025476D02*
X-329678095Y-323965000D01*
X-329799047Y-323904523D01*
X-330101428Y-323904523D01*
X-330222380Y-323965000D01*
X-330282857Y-324025476D01*
X-330343333Y-324146428D01*
X-330343333Y-324267380D01*
X-330282857Y-324448809D01*
X-329557142Y-325174523D01*
X-330343333Y-325174523D01*
D11*
X-277546933Y-249533882D02*
X-278209207Y-249801458D01*
X-278323824Y-249899125D01*
X-278376450Y-250023105D01*
X-278367086Y-250173398D01*
X-278331410Y-250261701D01*
X-278652501Y-249466972D02*
X-277725317Y-249092365D01*
X-278512460Y-249050880D01*
X-277975055Y-248474243D01*
X-278902239Y-248848849D01*
X-278223904Y-248112555D02*
X-278197591Y-248050565D01*
X-278189116Y-247944424D01*
X-278278308Y-247723665D01*
X-278358136Y-247653201D01*
X-278420126Y-247626887D01*
X-278526268Y-247618413D01*
X-278614571Y-247654089D01*
X-278729188Y-247751756D01*
X-279044946Y-248495637D01*
X-279276845Y-247921666D01*
X-279455229Y-247480149D02*
X-279526583Y-247303543D01*
X-279518108Y-247197401D01*
X-279491795Y-247135411D01*
X-279395017Y-246993593D01*
X-279236249Y-246878088D01*
X-278883036Y-246735380D01*
X-278776895Y-246743855D01*
X-278714904Y-246770168D01*
X-278635076Y-246840633D01*
X-278563722Y-247017240D01*
X-278572197Y-247123381D01*
X-278598510Y-247185371D01*
X-278668975Y-247265200D01*
X-278889733Y-247354392D01*
X-278995875Y-247345917D01*
X-279057865Y-247319604D01*
X-279137693Y-247249139D01*
X-279209047Y-247072533D01*
X-279200572Y-246966391D01*
X-279174259Y-246904401D01*
X-279103794Y-246824572D01*
X-207554975Y-280468392D02*
X-207287398Y-281130666D01*
X-207189732Y-281245283D01*
X-207065752Y-281297909D01*
X-206915458Y-281288546D01*
X-206827155Y-281252869D01*
X-207621884Y-281573960D02*
X-207996491Y-280646776D01*
X-208037976Y-281433919D01*
X-208614613Y-280896514D01*
X-208240007Y-281823698D01*
X-208725674Y-282019920D02*
X-208902281Y-282091274D01*
X-209008422Y-282082799D01*
X-209070413Y-282056486D01*
X-209212231Y-281959708D01*
X-209327736Y-281800940D01*
X-209470443Y-281447727D01*
X-209461969Y-281341585D01*
X-209435655Y-281279595D01*
X-209365191Y-281199767D01*
X-209188584Y-281128413D01*
X-209082443Y-281136888D01*
X-209020453Y-281163201D01*
X-208940624Y-281233666D01*
X-208851432Y-281454424D01*
X-208859907Y-281560566D01*
X-208886220Y-281622556D01*
X-208956685Y-281702384D01*
X-209133291Y-281773738D01*
X-209239433Y-281765263D01*
X-209301423Y-281738950D01*
X-209381251Y-281668485D01*
X-374323099Y-264591006D02*
X-373660825Y-264858582D01*
X-373510532Y-264867946D01*
X-373386552Y-264815319D01*
X-373288885Y-264700703D01*
X-373253208Y-264612400D01*
X-373574299Y-265407129D02*
X-374501483Y-265032522D01*
X-373964078Y-265609160D01*
X-374751221Y-265650645D01*
X-373824037Y-266025251D01*
X-374823463Y-266083686D02*
X-374885453Y-266109999D01*
X-374965282Y-266180464D01*
X-375054474Y-266401222D01*
X-375045999Y-266507364D01*
X-375019686Y-266569354D01*
X-374949221Y-266649182D01*
X-374860918Y-266684859D01*
X-374710625Y-266694223D01*
X-373966744Y-266378464D01*
X-374198644Y-266952435D01*
X-375180232Y-266966718D02*
X-375242222Y-266993032D01*
X-375322050Y-267063496D01*
X-375411242Y-267284254D01*
X-375402767Y-267390396D01*
X-375376454Y-267452386D01*
X-375305989Y-267532214D01*
X-375217686Y-267567891D01*
X-375067393Y-267577255D01*
X-374323513Y-267261496D01*
X-374555412Y-267835467D01*
X-326777619Y-283440476D02*
X-326063333Y-283440476D01*
X-325920476Y-283392857D01*
X-325825238Y-283297619D01*
X-325777619Y-283154761D01*
X-325777619Y-283059523D01*
X-326777619Y-283821428D02*
X-326777619Y-284440476D01*
X-326396666Y-284107142D01*
X-326396666Y-284250000D01*
X-326349047Y-284345238D01*
X-326301428Y-284392857D01*
X-326206190Y-284440476D01*
X-325968095Y-284440476D01*
X-325872857Y-284392857D01*
X-325825238Y-284345238D01*
X-325777619Y-284250000D01*
X-325777619Y-283964285D01*
X-325825238Y-283869047D01*
X-325872857Y-283821428D01*
X-326682380Y-284821428D02*
X-326730000Y-284869047D01*
X-326777619Y-284964285D01*
X-326777619Y-285202380D01*
X-326730000Y-285297619D01*
X-326682380Y-285345238D01*
X-326587142Y-285392857D01*
X-326491904Y-285392857D01*
X-326349047Y-285345238D01*
X-325777619Y-284773809D01*
X-325777619Y-285392857D01*
X-367205573Y-246974513D02*
X-366543299Y-247242089D01*
X-366393006Y-247251453D01*
X-366269026Y-247198826D01*
X-366171359Y-247084210D01*
X-366135682Y-246995907D01*
X-366456773Y-247790636D02*
X-367383957Y-247416029D01*
X-366846552Y-247992667D01*
X-367633695Y-248034152D01*
X-366706511Y-248408758D01*
X-367705937Y-248467193D02*
X-367767927Y-248493506D01*
X-367847756Y-248563971D01*
X-367936948Y-248784729D01*
X-367928473Y-248890871D01*
X-367902160Y-248952861D01*
X-367831695Y-249032689D01*
X-367743392Y-249068366D01*
X-367593099Y-249077730D01*
X-366849218Y-248761971D01*
X-367081118Y-249335942D01*
X-367437886Y-250218974D02*
X-367223825Y-249689155D01*
X-367330855Y-249954065D02*
X-368258039Y-249579458D01*
X-368089908Y-249544670D01*
X-367965928Y-249492044D01*
X-367886099Y-249421579D01*
X-351294539Y-212932256D02*
X-350632265Y-213199832D01*
X-350481972Y-213209196D01*
X-350357992Y-213156570D01*
X-350260325Y-213041953D01*
X-350224648Y-212953650D01*
X-350545740Y-213748379D02*
X-351472923Y-213373772D01*
X-350935518Y-213950410D01*
X-351722661Y-213991895D01*
X-350795477Y-214366501D01*
X-351865368Y-214345108D02*
X-352097268Y-214919079D01*
X-351619186Y-214752725D01*
X-351672701Y-214885180D01*
X-351664226Y-214991321D01*
X-351637913Y-215053311D01*
X-351567448Y-215133140D01*
X-351346690Y-215222332D01*
X-351240549Y-215213857D01*
X-351178559Y-215187544D01*
X-351098730Y-215117079D01*
X-350991700Y-214852169D01*
X-351000175Y-214746028D01*
X-351026488Y-214684038D01*
D14*
X-310882380Y-325089047D02*
X-311063809Y-325149523D01*
X-311366190Y-325149523D01*
X-311487142Y-325089047D01*
X-311547619Y-325028571D01*
X-311608095Y-324907619D01*
X-311608095Y-324786666D01*
X-311547619Y-324665714D01*
X-311487142Y-324605238D01*
X-311366190Y-324544761D01*
X-311124285Y-324484285D01*
X-311003333Y-324423809D01*
X-310942857Y-324363333D01*
X-310882380Y-324242380D01*
X-310882380Y-324121428D01*
X-310942857Y-324000476D01*
X-311003333Y-323940000D01*
X-311124285Y-323879523D01*
X-311426666Y-323879523D01*
X-311608095Y-323940000D01*
X-312817619Y-325149523D02*
X-312091904Y-325149523D01*
X-312454761Y-325149523D02*
X-312454761Y-323879523D01*
X-312333809Y-324060952D01*
X-312212857Y-324181904D01*
X-312091904Y-324242380D01*
D11*
X-360088048Y-229358020D02*
X-359425774Y-229625596D01*
X-359275481Y-229634960D01*
X-359151501Y-229582333D01*
X-359053834Y-229467717D01*
X-359018157Y-229379414D01*
X-359339248Y-230174143D02*
X-360266432Y-229799536D01*
X-359729027Y-230376174D01*
X-360516170Y-230417659D01*
X-359588986Y-230792265D01*
X-360588412Y-230850700D02*
X-360650402Y-230877013D01*
X-360730231Y-230947478D01*
X-360819423Y-231168236D01*
X-360810948Y-231274378D01*
X-360784635Y-231336368D01*
X-360714170Y-231416196D01*
X-360625867Y-231451873D01*
X-360475574Y-231461237D01*
X-359731693Y-231145478D01*
X-359963593Y-231719449D01*
X-361122676Y-231918814D02*
X-361158353Y-232007117D01*
X-361149878Y-232113258D01*
X-361123565Y-232175248D01*
X-361053100Y-232255077D01*
X-360894332Y-232370582D01*
X-360673574Y-232459774D01*
X-360479129Y-232486976D01*
X-360372987Y-232478501D01*
X-360310997Y-232452188D01*
X-360231169Y-232381723D01*
X-360195492Y-232293420D01*
X-360203967Y-232187279D01*
X-360230280Y-232125288D01*
X-360300745Y-232045460D01*
X-360459513Y-231929955D01*
X-360680271Y-231840763D01*
X-360874716Y-231813561D01*
X-360980857Y-231822036D01*
X-361042847Y-231848349D01*
X-361122676Y-231918814D01*
X-293636351Y-215050109D02*
X-294298625Y-215317685D01*
X-294413242Y-215415352D01*
X-294465868Y-215539332D01*
X-294456504Y-215689625D01*
X-294420828Y-215777928D01*
X-294741919Y-214983199D02*
X-293814735Y-214608592D01*
X-294601878Y-214567107D01*
X-294064473Y-213990470D01*
X-294991657Y-214365076D01*
X-294207180Y-213637257D02*
X-294439080Y-213063286D01*
X-294667424Y-213515055D01*
X-294720939Y-213382600D01*
X-294800767Y-213312135D01*
X-294862757Y-213285822D01*
X-294968899Y-213277347D01*
X-295189657Y-213366539D01*
X-295260122Y-213446367D01*
X-295286435Y-213508357D01*
X-295294910Y-213614499D01*
X-295187879Y-213879409D01*
X-295108051Y-213949874D01*
X-295046061Y-213976187D01*
X-295723032Y-212554860D02*
X-295508971Y-213084680D01*
X-295616001Y-212819770D02*
X-294688817Y-212445163D01*
X-294785595Y-212586982D01*
X-294838222Y-212710962D01*
X-294846696Y-212817104D01*
X-270429408Y-267150375D02*
X-271091682Y-267417951D01*
X-271206299Y-267515618D01*
X-271258925Y-267639598D01*
X-271249561Y-267789891D01*
X-271213885Y-267878194D01*
X-271534976Y-267083465D02*
X-270607792Y-266708858D01*
X-271394935Y-266667373D01*
X-270857530Y-266090736D01*
X-271784714Y-266465342D01*
X-271106379Y-265729048D02*
X-271080066Y-265667058D01*
X-271071591Y-265560917D01*
X-271160783Y-265340158D01*
X-271240611Y-265269694D01*
X-271302601Y-265243380D01*
X-271408743Y-265234906D01*
X-271497046Y-265270582D01*
X-271611663Y-265368249D01*
X-271927421Y-266112130D01*
X-272159320Y-265538159D01*
X-271843562Y-264794278D02*
X-271763733Y-264864743D01*
X-271701743Y-264891056D01*
X-271595602Y-264899531D01*
X-271551450Y-264881693D01*
X-271480985Y-264801864D01*
X-271454672Y-264739874D01*
X-271446197Y-264633733D01*
X-271517551Y-264457126D01*
X-271597379Y-264386661D01*
X-271659370Y-264360348D01*
X-271765511Y-264351873D01*
X-271809663Y-264369712D01*
X-271880128Y-264449540D01*
X-271906441Y-264511530D01*
X-271914916Y-264617672D01*
X-271843562Y-264794278D01*
X-271852037Y-264900420D01*
X-271878350Y-264962410D01*
X-271948815Y-265042238D01*
X-272125421Y-265113592D01*
X-272231563Y-265105117D01*
X-272293553Y-265078804D01*
X-272373381Y-265008339D01*
X-272444735Y-264831733D01*
X-272436260Y-264725591D01*
X-272409947Y-264663601D01*
X-272339482Y-264583773D01*
X-272162876Y-264512419D01*
X-272056734Y-264520894D01*
X-271994744Y-264547207D01*
X-271914916Y-264617672D01*
X-280370753Y-322371083D02*
X-280941207Y-322800951D01*
X-281026639Y-322924954D01*
X-281045384Y-323058331D01*
X-280997441Y-323201079D01*
X-280940125Y-323277140D01*
X-281455967Y-322592595D02*
X-280657331Y-321990780D01*
X-281428390Y-322154436D01*
X-281058541Y-321458356D01*
X-281857177Y-322060171D01*
X-281287804Y-321154114D02*
X-281660356Y-320659721D01*
X-281763993Y-321155196D01*
X-281849967Y-321041105D01*
X-281945313Y-320993702D01*
X-282012001Y-320984330D01*
X-282116719Y-321003615D01*
X-282306871Y-321146905D01*
X-282354273Y-321242251D01*
X-282363646Y-321308939D01*
X-282344360Y-321413657D01*
X-282172413Y-321641839D01*
X-282077067Y-321689241D01*
X-282010379Y-321698614D01*
X-281860961Y-320393509D02*
X-282233513Y-319899116D01*
X-282337150Y-320394590D01*
X-282423124Y-320280500D01*
X-282518470Y-320233097D01*
X-282585158Y-320223725D01*
X-282689877Y-320243010D01*
X-282880028Y-320386299D01*
X-282927431Y-320481645D01*
X-282936803Y-320548333D01*
X-282917517Y-320653052D01*
X-282745570Y-320881233D01*
X-282650224Y-320928636D01*
X-282583536Y-320938008D01*
X-363967091Y-320165328D02*
X-363396637Y-320595195D01*
X-363253888Y-320643139D01*
X-363120512Y-320624394D01*
X-362996508Y-320538961D01*
X-362939192Y-320462900D01*
X-363455034Y-321147445D02*
X-364253669Y-320545630D01*
X-363883820Y-321241710D01*
X-364654879Y-321078054D01*
X-363856244Y-321679869D01*
X-364836739Y-321477642D02*
X-364903428Y-321487014D01*
X-364998774Y-321534417D01*
X-365142063Y-321724568D01*
X-365161348Y-321829287D01*
X-365151976Y-321895975D01*
X-365104573Y-321991321D01*
X-365028513Y-322048636D01*
X-364885764Y-322096580D01*
X-364085507Y-321984111D01*
X-364458059Y-322478504D01*
X-365457299Y-322142901D02*
X-365829851Y-322637295D01*
X-365325004Y-322600346D01*
X-365410978Y-322714436D01*
X-365430263Y-322819155D01*
X-365420891Y-322885843D01*
X-365373488Y-322981189D01*
X-365183337Y-323124478D01*
X-365078619Y-323143764D01*
X-365011930Y-323134391D01*
X-364916584Y-323086989D01*
X-364744637Y-322858807D01*
X-364725352Y-322754089D01*
X-364734724Y-322687400D01*
X-431591628Y-270149232D02*
X-431859204Y-270811506D01*
X-431868568Y-270961799D01*
X-431815941Y-271085779D01*
X-431701325Y-271183446D01*
X-431613022Y-271219123D01*
X-432407751Y-270898032D02*
X-432033144Y-269970848D01*
X-432609782Y-270508253D01*
X-432651267Y-269721110D01*
X-433025873Y-270648294D01*
X-433953057Y-270273687D02*
X-433423238Y-270487748D01*
X-433688148Y-270380718D02*
X-433313541Y-269453534D01*
X-433278753Y-269621666D01*
X-433226127Y-269745646D01*
X-433155662Y-269825474D01*
X-434836089Y-269916919D02*
X-434306270Y-270130980D01*
X-434571180Y-270023950D02*
X-434196573Y-269096766D01*
X-434161785Y-269264897D01*
X-434109159Y-269388877D01*
X-434038694Y-269468706D01*
M02*
