%FSLAX45Y45*%
G04 Gerber Fmt 4.5, Leading zero omitted, Abs format (unit mm)*
G04 Created by KiCad (PCBNEW (5.1.4)-1) date 2023-10-04 21:41:19*
%MOMM*%
%LPD*%
G04 APERTURE LIST*
%ADD10C,0.050000*%
%ADD11C,0.200000*%
%ADD12C,0.300000*%
G04 APERTURE END LIST*
D10*
X14646000Y-7852000D02*
X15907000Y-7852000D01*
X16127000Y-7632000D02*
X15907000Y-7852000D01*
X14426327Y-7632000D02*
X14646000Y-7852000D01*
X5010515Y-9940312D02*
X4097855Y-10197124D01*
X6252941Y-10442285D02*
X5010515Y-9940312D01*
X8266797Y-10716668D02*
X6903837Y-10165997D01*
X4097855Y-10197124D02*
X4067887Y-10271299D01*
X11415472Y-3964517D02*
X11037952Y-4124764D01*
X11037952Y-4124764D02*
X8400722Y-10652139D01*
X8266797Y-10716668D02*
X8400722Y-10652139D01*
X6903837Y-10165997D02*
X6252941Y-10442285D01*
X16127000Y-5232000D02*
X16447000Y-5052000D01*
X19137855Y-3964517D02*
X16447000Y-5052000D01*
X11415472Y-3964517D02*
X14106327Y-5052000D01*
X14426327Y-5232000D02*
X14106327Y-5052000D01*
X14426327Y-5232000D02*
X14426327Y-7632000D01*
X3793304Y-11271251D02*
X7548399Y-12788408D01*
X4067887Y-10271299D02*
X3726995Y-11115036D01*
X3726995Y-11115036D02*
X3793304Y-11271251D01*
X7548399Y-12788408D02*
X11973145Y-16118426D01*
X26455471Y-10197124D02*
X26485440Y-10271299D01*
X26826332Y-11115036D02*
X26760023Y-11271251D01*
X26760023Y-11271251D02*
X23004928Y-12788408D01*
X24300385Y-10442285D02*
X25542812Y-9940312D01*
X22286530Y-10716668D02*
X22152605Y-10652139D01*
X23004928Y-12788408D02*
X18580182Y-16118426D01*
X22286530Y-10716668D02*
X23649490Y-10165997D01*
X26485440Y-10271299D02*
X26826332Y-11115036D01*
X19515374Y-4124764D02*
X22152605Y-10652139D01*
X19137855Y-3964517D02*
X19515374Y-4124764D01*
X25542812Y-9940312D02*
X26455471Y-10197124D01*
X23649490Y-10165997D02*
X24300385Y-10442285D01*
X11973145Y-16118426D02*
X18580182Y-16118426D01*
X16127000Y-5232000D02*
X16127000Y-7632000D01*
D11*
X6202000Y-11452000D02*
X6242000Y-11492000D01*
X6242000Y-11452000D02*
X6202000Y-11492000D01*
X6277000Y-11707000D02*
X6317000Y-11747000D01*
X6317000Y-11707000D02*
X6277000Y-11747000D01*
X8477000Y-10972000D02*
X8517000Y-11012000D01*
X8517000Y-10972000D02*
X8477000Y-11012000D01*
X9182000Y-12027000D02*
X9222000Y-12067000D01*
X9222000Y-12027000D02*
X9182000Y-12067000D01*
X9627000Y-12022000D02*
X9667000Y-12062000D01*
X9667000Y-12022000D02*
X9627000Y-12062000D01*
X9662000Y-12917000D02*
X9702000Y-12957000D01*
X9702000Y-12917000D02*
X9662000Y-12957000D01*
X9862000Y-13537000D02*
X9902000Y-13577000D01*
X9902000Y-13537000D02*
X9862000Y-13577000D01*
X9917000Y-12907000D02*
X9957000Y-12947000D01*
X9957000Y-12907000D02*
X9917000Y-12947000D01*
X10192000Y-11512000D02*
X10232000Y-11552000D01*
X10232000Y-11512000D02*
X10192000Y-11552000D01*
X10817000Y-9732000D02*
X10857000Y-9772000D01*
X10857000Y-9732000D02*
X10817000Y-9772000D01*
X10872000Y-10177000D02*
X10912000Y-10217000D01*
X10912000Y-10177000D02*
X10872000Y-10217000D01*
X10934727Y-14307400D02*
X10974727Y-14347400D01*
X10974727Y-14307400D02*
X10934727Y-14347400D01*
X11177000Y-14327000D02*
X11217000Y-14367000D01*
X11217000Y-14327000D02*
X11177000Y-14367000D01*
X11407000Y-12887000D02*
X11447000Y-12927000D01*
X11447000Y-12887000D02*
X11407000Y-12927000D01*
X11422000Y-14337000D02*
X11462000Y-14377000D01*
X11462000Y-14337000D02*
X11422000Y-14377000D01*
X11552000Y-8067000D02*
X11592000Y-8107000D01*
X11592000Y-8067000D02*
X11552000Y-8107000D01*
X11602000Y-8567000D02*
X11642000Y-8607000D01*
X11642000Y-8567000D02*
X11602000Y-8607000D01*
X11627000Y-7307000D02*
X11667000Y-7347000D01*
X11667000Y-7307000D02*
X11627000Y-7347000D01*
X11672000Y-14332000D02*
X11712000Y-14372000D01*
X11712000Y-14332000D02*
X11672000Y-14372000D01*
X11677000Y-12907000D02*
X11717000Y-12947000D01*
X11717000Y-12907000D02*
X11677000Y-12947000D01*
X11922000Y-14337000D02*
X11962000Y-14377000D01*
X11962000Y-14337000D02*
X11922000Y-14377000D01*
X11947000Y-12897000D02*
X11987000Y-12937000D01*
X11987000Y-12897000D02*
X11947000Y-12937000D01*
X12172000Y-14347000D02*
X12212000Y-14387000D01*
X12212000Y-14347000D02*
X12172000Y-14387000D01*
X12197000Y-12897000D02*
X12237000Y-12937000D01*
X12237000Y-12897000D02*
X12197000Y-12937000D01*
X12337000Y-6807000D02*
X12377000Y-6847000D01*
X12377000Y-6807000D02*
X12337000Y-6847000D01*
X12342000Y-6097000D02*
X12382000Y-6137000D01*
X12382000Y-6097000D02*
X12342000Y-6137000D01*
X12424300Y-5430731D02*
X12464300Y-5470731D01*
X12464300Y-5430731D02*
X12424300Y-5470731D01*
X12457000Y-12887000D02*
X12497000Y-12927000D01*
X12497000Y-12887000D02*
X12457000Y-12927000D01*
X12717000Y-12897000D02*
X12757000Y-12937000D01*
X12757000Y-12897000D02*
X12717000Y-12937000D01*
X12967000Y-12907000D02*
X13007000Y-12947000D01*
X13007000Y-12907000D02*
X12967000Y-12947000D01*
X13237000Y-12907000D02*
X13277000Y-12947000D01*
X13277000Y-12907000D02*
X13237000Y-12947000D01*
X13252000Y-9112000D02*
X13292000Y-9152000D01*
X13292000Y-9112000D02*
X13252000Y-9152000D01*
X13594006Y-7903608D02*
X13634006Y-7943608D01*
X13634006Y-7903608D02*
X13594006Y-7943608D01*
X13607000Y-6777000D02*
X13647000Y-6817000D01*
X13647000Y-6777000D02*
X13607000Y-6817000D01*
X13637000Y-10327000D02*
X13677000Y-10367000D01*
X13677000Y-10327000D02*
X13637000Y-10367000D01*
X13637000Y-10577000D02*
X13677000Y-10617000D01*
X13677000Y-10577000D02*
X13637000Y-10617000D01*
X13637000Y-10827000D02*
X13677000Y-10867000D01*
X13677000Y-10827000D02*
X13637000Y-10867000D01*
X13647000Y-11077000D02*
X13687000Y-11117000D01*
X13687000Y-11077000D02*
X13647000Y-11117000D01*
X13647000Y-11327000D02*
X13687000Y-11367000D01*
X13687000Y-11327000D02*
X13647000Y-11367000D01*
X13647000Y-11577000D02*
X13687000Y-11617000D01*
X13687000Y-11577000D02*
X13647000Y-11617000D01*
X13647000Y-11827000D02*
X13687000Y-11867000D01*
X13687000Y-11827000D02*
X13647000Y-11867000D01*
X13647000Y-12077000D02*
X13687000Y-12117000D01*
X13687000Y-12077000D02*
X13647000Y-12117000D01*
X13647000Y-12322000D02*
X13687000Y-12362000D01*
X13687000Y-12322000D02*
X13647000Y-12362000D01*
X13775293Y-7115019D02*
X13815293Y-7155019D01*
X13815293Y-7115019D02*
X13775293Y-7155019D01*
X13892000Y-7107000D02*
X13932000Y-7147000D01*
X13932000Y-7107000D02*
X13892000Y-7147000D01*
X13894300Y-7211965D02*
X13934300Y-7251965D01*
X13934300Y-7211965D02*
X13894300Y-7251965D01*
X13906723Y-6967555D02*
X13946723Y-7007555D01*
X13946723Y-6967555D02*
X13906723Y-7007555D01*
X14207000Y-12637000D02*
X14247000Y-12677000D01*
X14247000Y-12637000D02*
X14207000Y-12677000D01*
X14207000Y-13547000D02*
X14247000Y-13587000D01*
X14247000Y-13547000D02*
X14207000Y-13587000D01*
X14592000Y-15147000D02*
X14632000Y-15187000D01*
X14632000Y-15147000D02*
X14592000Y-15187000D01*
X14617288Y-14174701D02*
X14657288Y-14214701D01*
X14657288Y-14174701D02*
X14617288Y-14214701D01*
X14672000Y-14487000D02*
X14712000Y-14527000D01*
X14712000Y-14487000D02*
X14672000Y-14527000D01*
X14778952Y-14410435D02*
X14818952Y-14450435D01*
X14818952Y-14410435D02*
X14778952Y-14450435D01*
X14859122Y-14621843D02*
X14899122Y-14661843D01*
X14899122Y-14621843D02*
X14859122Y-14661843D01*
X14866120Y-14721599D02*
X14906120Y-14761599D01*
X14906120Y-14721599D02*
X14866120Y-14761599D01*
X14968836Y-14337734D02*
X15008836Y-14377734D01*
X15008836Y-14337734D02*
X14968836Y-14377734D01*
X15028786Y-14257696D02*
X15068786Y-14297696D01*
X15068786Y-14257696D02*
X15028786Y-14297696D01*
X15411000Y-13833000D02*
X15451000Y-13873000D01*
X15451000Y-13833000D02*
X15411000Y-13873000D01*
X15411000Y-15233000D02*
X15451000Y-15273000D01*
X15451000Y-15233000D02*
X15411000Y-15273000D01*
X15852802Y-13937000D02*
X15892802Y-13977000D01*
X15892802Y-13937000D02*
X15852802Y-13977000D01*
X15852802Y-14212294D02*
X15892802Y-14252294D01*
X15892802Y-14212294D02*
X15852802Y-14252294D01*
X15854299Y-13607000D02*
X15894299Y-13647000D01*
X15894299Y-13607000D02*
X15854299Y-13647000D01*
X16951430Y-11552300D02*
X16991430Y-11592300D01*
X16991430Y-11552300D02*
X16951430Y-11592300D01*
X16951430Y-11798680D02*
X16991430Y-11838680D01*
X16991430Y-11798680D02*
X16951430Y-11838680D01*
X16952700Y-10832210D02*
X16992700Y-10872210D01*
X16992700Y-10832210D02*
X16952700Y-10872210D01*
X16955240Y-12306680D02*
X16995240Y-12346680D01*
X16995240Y-12306680D02*
X16955240Y-12346680D01*
X16957000Y-13307000D02*
X16997000Y-13347000D01*
X16997000Y-13307000D02*
X16957000Y-13347000D01*
X16957780Y-11311000D02*
X16997780Y-11351000D01*
X16997780Y-11311000D02*
X16957780Y-11351000D01*
X16959050Y-11070970D02*
X16999050Y-11110970D01*
X16999050Y-11070970D02*
X16959050Y-11110970D01*
X16959050Y-12053950D02*
X16999050Y-12093950D01*
X16999050Y-12053950D02*
X16959050Y-12093950D01*
X16960320Y-10590910D02*
X17000320Y-10630910D01*
X17000320Y-10590910D02*
X16960320Y-10630910D01*
X16960320Y-12804520D02*
X17000320Y-12844520D01*
X17000320Y-12804520D02*
X16960320Y-12844520D01*
X16962000Y-13552000D02*
X17002000Y-13592000D01*
X17002000Y-13552000D02*
X16962000Y-13592000D01*
X16967000Y-13057000D02*
X17007000Y-13097000D01*
X17007000Y-13057000D02*
X16967000Y-13097000D01*
X16975560Y-10347070D02*
X17015560Y-10387070D01*
X17015560Y-10347070D02*
X16975560Y-10387070D01*
X16984450Y-12563220D02*
X17024450Y-12603220D01*
X17024450Y-12563220D02*
X16984450Y-12603220D01*
X16986990Y-10071480D02*
X17026990Y-10111480D01*
X17026990Y-10071480D02*
X16986990Y-10111480D01*
X17307000Y-15147000D02*
X17347000Y-15187000D01*
X17347000Y-15147000D02*
X17307000Y-15187000D01*
X17707000Y-12787000D02*
X17747000Y-12827000D01*
X17747000Y-12787000D02*
X17707000Y-12827000D01*
X17997000Y-12787000D02*
X18037000Y-12827000D01*
X18037000Y-12787000D02*
X17997000Y-12827000D01*
X17998560Y-5465824D02*
X18038560Y-5505824D01*
X18038560Y-5465824D02*
X17998560Y-5505824D01*
X18277000Y-12797000D02*
X18317000Y-12837000D01*
X18317000Y-12797000D02*
X18277000Y-12837000D01*
X18415740Y-6690740D02*
X18455740Y-6730740D01*
X18455740Y-6690740D02*
X18415740Y-6730740D01*
X18517000Y-12747000D02*
X18557000Y-12787000D01*
X18557000Y-12747000D02*
X18517000Y-12787000D01*
X18837000Y-12777000D02*
X18877000Y-12817000D01*
X18877000Y-12777000D02*
X18837000Y-12817000D01*
X19007000Y-13632000D02*
X19047000Y-13672000D01*
X19047000Y-13632000D02*
X19007000Y-13672000D01*
X19117000Y-8017000D02*
X19157000Y-8057000D01*
X19157000Y-8017000D02*
X19117000Y-8057000D01*
X19117000Y-12777000D02*
X19157000Y-12817000D01*
X19157000Y-12777000D02*
X19117000Y-12817000D01*
X19209692Y-13631661D02*
X19249692Y-13671661D01*
X19249692Y-13631661D02*
X19209692Y-13671661D01*
X19397000Y-12787000D02*
X19437000Y-12827000D01*
X19437000Y-12787000D02*
X19397000Y-12827000D01*
X19474500Y-5294500D02*
X19514500Y-5334500D01*
X19514500Y-5294500D02*
X19474500Y-5334500D01*
X19677000Y-12797000D02*
X19717000Y-12837000D01*
X19717000Y-12797000D02*
X19677000Y-12837000D01*
X19872000Y-11162000D02*
X19912000Y-11202000D01*
X19912000Y-11162000D02*
X19872000Y-11202000D01*
X19967000Y-12787000D02*
X20007000Y-12827000D01*
X20007000Y-12787000D02*
X19967000Y-12827000D01*
X20237000Y-6997000D02*
X20277000Y-7037000D01*
X20277000Y-6997000D02*
X20237000Y-7037000D01*
X20237000Y-12757000D02*
X20277000Y-12797000D01*
X20277000Y-12757000D02*
X20237000Y-12797000D01*
X20527000Y-12767000D02*
X20567000Y-12807000D01*
X20567000Y-12767000D02*
X20527000Y-12807000D01*
X20837000Y-7867000D02*
X20877000Y-7907000D01*
X20877000Y-7867000D02*
X20837000Y-7907000D01*
X21147000Y-11617000D02*
X21187000Y-11657000D01*
X21187000Y-11617000D02*
X21147000Y-11657000D01*
X21497000Y-12712000D02*
X21537000Y-12752000D01*
X21537000Y-12712000D02*
X21497000Y-12752000D01*
X21497000Y-13522000D02*
X21537000Y-13562000D01*
X21537000Y-13522000D02*
X21497000Y-13562000D01*
X21667000Y-10497000D02*
X21707000Y-10537000D01*
X21707000Y-10497000D02*
X21667000Y-10537000D01*
X21697000Y-12637000D02*
X21737000Y-12677000D01*
X21737000Y-12637000D02*
X21697000Y-12677000D01*
X21702000Y-13402000D02*
X21742000Y-13442000D01*
X21742000Y-13402000D02*
X21702000Y-13442000D01*
X21892000Y-12497000D02*
X21932000Y-12537000D01*
X21932000Y-12497000D02*
X21892000Y-12537000D01*
X24219026Y-10779026D02*
X24259026Y-10819026D01*
X24259026Y-10779026D02*
X24219026Y-10819026D01*
X26167978Y-10827979D02*
X26207978Y-10867979D01*
X26207978Y-10827979D02*
X26167978Y-10867979D01*
X14939500Y-15597000D02*
G75*
G03X14939500Y-15597000I-37500J0D01*
G01*
X14502000Y-15557000D02*
X14502000Y-15637000D01*
X14462000Y-15597000D02*
X14542000Y-15597000D01*
X14702000Y-15557000D02*
X14702000Y-15637000D01*
X14662000Y-15597000D02*
X14742000Y-15597000D01*
X12353793Y-15956165D02*
X12353793Y-15885454D01*
X12283082Y-15885454D01*
X12283082Y-15956165D01*
X12353793Y-15956165D01*
X12506654Y-15753312D02*
X12506654Y-15682600D01*
X12435943Y-15682600D01*
X12435943Y-15753312D01*
X12506654Y-15753312D01*
X12659515Y-15550458D02*
X12659515Y-15479747D01*
X12588804Y-15479747D01*
X12588804Y-15550458D01*
X12659515Y-15550458D01*
X12812376Y-15347605D02*
X12812376Y-15276893D01*
X12741665Y-15276893D01*
X12741665Y-15347605D01*
X12812376Y-15347605D01*
X3921905Y-11108870D02*
X3921905Y-11038158D01*
X3851194Y-11038158D01*
X3851194Y-11108870D01*
X3921905Y-11108870D01*
X4017056Y-10873365D02*
X4017056Y-10802654D01*
X3946344Y-10802654D01*
X3946344Y-10873365D01*
X4017056Y-10873365D01*
X4112206Y-10637860D02*
X4112206Y-10567149D01*
X4041494Y-10567149D01*
X4041494Y-10637860D01*
X4112206Y-10637860D01*
X4207356Y-10402356D02*
X4207356Y-10331644D01*
X4136644Y-10331644D01*
X4136644Y-10402356D01*
X4207356Y-10402356D01*
X26410751Y-10381314D02*
X26410751Y-10310603D01*
X26340039Y-10310603D01*
X26340039Y-10381314D01*
X26410751Y-10381314D01*
X26505901Y-10616819D02*
X26505901Y-10546108D01*
X26435189Y-10546108D01*
X26435189Y-10616819D01*
X26505901Y-10616819D01*
X26601051Y-10852324D02*
X26601051Y-10781612D01*
X26530339Y-10781612D01*
X26530339Y-10852324D01*
X26601051Y-10852324D01*
X26696201Y-11087829D02*
X26696201Y-11017117D01*
X26625490Y-11017117D01*
X26625490Y-11087829D01*
X26696201Y-11087829D01*
X11567235Y-4197250D02*
X11567235Y-4126539D01*
X11496524Y-4126539D01*
X11496524Y-4197250D01*
X11567235Y-4197250D01*
X11802740Y-4292400D02*
X11802740Y-4221689D01*
X11732028Y-4221689D01*
X11732028Y-4292400D01*
X11802740Y-4292400D01*
X12038245Y-4387550D02*
X12038245Y-4316839D01*
X11967533Y-4316839D01*
X11967533Y-4387550D01*
X12038245Y-4387550D01*
X12273749Y-4482700D02*
X12273749Y-4411989D01*
X12203038Y-4411989D01*
X12203038Y-4482700D01*
X12273749Y-4482700D01*
X19249438Y-6169286D02*
X19249438Y-6098574D01*
X19178727Y-6098574D01*
X19178727Y-6169286D01*
X19249438Y-6169286D01*
X19484943Y-6074136D02*
X19484943Y-6003424D01*
X19414231Y-6003424D01*
X19414231Y-6074136D01*
X19484943Y-6074136D01*
X19720447Y-5978986D02*
X19720447Y-5908274D01*
X19649736Y-5908274D01*
X19649736Y-5978986D01*
X19720447Y-5978986D01*
X19955952Y-5883836D02*
X19955952Y-5813124D01*
X19885241Y-5813124D01*
X19885241Y-5883836D01*
X19955952Y-5883836D01*
X9958293Y-7645627D02*
X9958293Y-7574916D01*
X9887582Y-7574916D01*
X9887582Y-7645627D01*
X9958293Y-7645627D01*
X10193798Y-7740777D02*
X10193798Y-7670066D01*
X10123087Y-7670066D01*
X10123087Y-7740777D01*
X10193798Y-7740777D01*
X10429303Y-7835927D02*
X10429303Y-7765216D01*
X10358591Y-7765216D01*
X10358591Y-7835927D01*
X10429303Y-7835927D01*
X10664808Y-7931078D02*
X10664808Y-7860366D01*
X10594096Y-7860366D01*
X10594096Y-7931078D01*
X10664808Y-7931078D01*
X8853795Y-13588773D02*
X8853795Y-13518061D01*
X8783084Y-13518061D01*
X8783084Y-13588773D01*
X8853795Y-13588773D01*
X9056649Y-13741634D02*
X9056649Y-13670922D01*
X8985938Y-13670922D01*
X8985938Y-13741634D01*
X9056649Y-13741634D01*
X9259502Y-13894495D02*
X9259502Y-13823783D01*
X9188791Y-13823783D01*
X9188791Y-13894495D01*
X9259502Y-13894495D01*
X9462356Y-14047356D02*
X9462356Y-13976644D01*
X9391644Y-13976644D01*
X9391644Y-14047356D01*
X9462356Y-14047356D01*
X17812629Y-15347667D02*
X17812629Y-15276956D01*
X17741918Y-15276956D01*
X17741918Y-15347667D01*
X17812629Y-15347667D01*
X17965490Y-15550521D02*
X17965490Y-15479809D01*
X17894779Y-15479809D01*
X17894779Y-15550521D01*
X17965490Y-15550521D01*
X18118351Y-15753374D02*
X18118351Y-15682663D01*
X18047640Y-15682663D01*
X18047640Y-15753374D01*
X18118351Y-15753374D01*
X18271212Y-15956228D02*
X18271212Y-15885516D01*
X18200501Y-15885516D01*
X18200501Y-15956228D01*
X18271212Y-15956228D01*
X18352249Y-4482558D02*
X18352249Y-4411846D01*
X18281537Y-4411846D01*
X18281537Y-4482558D01*
X18352249Y-4482558D01*
X18587753Y-4387408D02*
X18587753Y-4316696D01*
X18517042Y-4316696D01*
X18517042Y-4387408D01*
X18587753Y-4387408D01*
X18823258Y-4292258D02*
X18823258Y-4221546D01*
X18752547Y-4221546D01*
X18752547Y-4292258D01*
X18823258Y-4292258D01*
X19058763Y-4197108D02*
X19058763Y-4126396D01*
X18988051Y-4126396D01*
X18988051Y-4197108D01*
X19058763Y-4197108D01*
X21349232Y-13921320D02*
X21349232Y-13850609D01*
X21278521Y-13850609D01*
X21278521Y-13921320D01*
X21349232Y-13921320D01*
X21552086Y-13768459D02*
X21552086Y-13697748D01*
X21481374Y-13697748D01*
X21481374Y-13768459D01*
X21552086Y-13768459D01*
X21754939Y-13615598D02*
X21754939Y-13544887D01*
X21684228Y-13544887D01*
X21684228Y-13615598D01*
X21754939Y-13615598D01*
X21957793Y-13462737D02*
X21957793Y-13392026D01*
X21887081Y-13392026D01*
X21887081Y-13462737D01*
X21957793Y-13462737D01*
X18643795Y-15930939D02*
X18643795Y-15860227D01*
X18573084Y-15860227D01*
X18573084Y-15930939D01*
X18643795Y-15930939D01*
X18846649Y-15778078D02*
X18846649Y-15707366D01*
X18775938Y-15707366D01*
X18775938Y-15778078D01*
X18846649Y-15778078D01*
X19049502Y-15625217D02*
X19049502Y-15554505D01*
X18978791Y-15554505D01*
X18978791Y-15625217D01*
X19049502Y-15625217D01*
X19252356Y-15472356D02*
X19252356Y-15401644D01*
X19181644Y-15401644D01*
X19181644Y-15472356D01*
X19252356Y-15472356D01*
X19961190Y-7930935D02*
X19961190Y-7860224D01*
X19890479Y-7860224D01*
X19890479Y-7930935D01*
X19961190Y-7930935D01*
X20196695Y-7835785D02*
X20196695Y-7765074D01*
X20125984Y-7765074D01*
X20125984Y-7835785D01*
X20196695Y-7835785D01*
X20432200Y-7740635D02*
X20432200Y-7669924D01*
X20361488Y-7669924D01*
X20361488Y-7740635D01*
X20432200Y-7740635D01*
X20667705Y-7645485D02*
X20667705Y-7574773D01*
X20596993Y-7574773D01*
X20596993Y-7645485D01*
X20667705Y-7645485D01*
X15312356Y-8497356D02*
X15312356Y-8426644D01*
X15241644Y-8426644D01*
X15241644Y-8497356D01*
X15312356Y-8497356D01*
X15312356Y-8751356D02*
X15312356Y-8680644D01*
X15241644Y-8680644D01*
X15241644Y-8751356D01*
X15312356Y-8751356D01*
X15312356Y-9005356D02*
X15312356Y-8934644D01*
X15241644Y-8934644D01*
X15241644Y-9005356D01*
X15312356Y-9005356D01*
X15312356Y-9259356D02*
X15312356Y-9188644D01*
X15241644Y-9188644D01*
X15241644Y-9259356D01*
X15312356Y-9259356D01*
X15212356Y-11597356D02*
X15212356Y-11526644D01*
X15141644Y-11526644D01*
X15141644Y-11597356D01*
X15212356Y-11597356D01*
X15466356Y-11597356D02*
X15466356Y-11526644D01*
X15395644Y-11526644D01*
X15395644Y-11597356D01*
X15466356Y-11597356D01*
X10670046Y-5883978D02*
X10670046Y-5813267D01*
X10599335Y-5813267D01*
X10599335Y-5883978D01*
X10670046Y-5883978D01*
X10905551Y-5979128D02*
X10905551Y-5908417D01*
X10834839Y-5908417D01*
X10834839Y-5979128D01*
X10905551Y-5979128D01*
X11141055Y-6074278D02*
X11141055Y-6003567D01*
X11070344Y-6003567D01*
X11070344Y-6074278D01*
X11141055Y-6074278D01*
X11376560Y-6169428D02*
X11376560Y-6098717D01*
X11305849Y-6098717D01*
X11305849Y-6169428D01*
X11376560Y-6169428D01*
X9246541Y-9407277D02*
X9246541Y-9336565D01*
X9175829Y-9336565D01*
X9175829Y-9407277D01*
X9246541Y-9407277D01*
X9482046Y-9502427D02*
X9482046Y-9431715D01*
X9411334Y-9431715D01*
X9411334Y-9502427D01*
X9482046Y-9502427D01*
X9717550Y-9597577D02*
X9717550Y-9526865D01*
X9646839Y-9526865D01*
X9646839Y-9597577D01*
X9717550Y-9597577D01*
X9953055Y-9692727D02*
X9953055Y-9622016D01*
X9882344Y-9622016D01*
X9882344Y-9692727D01*
X9953055Y-9692727D01*
X14337356Y-15632356D02*
X14337356Y-15561644D01*
X14266644Y-15561644D01*
X14266644Y-15632356D01*
X14337356Y-15632356D01*
X15137356Y-15632356D02*
X15137356Y-15561644D01*
X15066644Y-15561644D01*
X15066644Y-15632356D01*
X15137356Y-15632356D01*
X20672943Y-9692584D02*
X20672943Y-9621873D01*
X20602232Y-9621873D01*
X20602232Y-9692584D01*
X20672943Y-9692584D01*
X20908448Y-9597434D02*
X20908448Y-9526723D01*
X20837736Y-9526723D01*
X20837736Y-9597434D01*
X20908448Y-9597434D01*
X21143952Y-9502284D02*
X21143952Y-9431573D01*
X21073241Y-9431573D01*
X21073241Y-9502284D01*
X21143952Y-9502284D01*
X21379457Y-9407134D02*
X21379457Y-9336423D01*
X21308746Y-9336423D01*
X21308746Y-9407134D01*
X21379457Y-9407134D01*
X11352356Y-15472356D02*
X11352356Y-15401644D01*
X11281644Y-15401644D01*
X11281644Y-15472356D01*
X11352356Y-15472356D01*
X11555209Y-15625217D02*
X11555209Y-15554505D01*
X11484498Y-15554505D01*
X11484498Y-15625217D01*
X11555209Y-15625217D01*
X11758062Y-15778078D02*
X11758062Y-15707366D01*
X11687351Y-15707366D01*
X11687351Y-15778078D01*
X11758062Y-15778078D01*
X11960916Y-15930939D02*
X11960916Y-15860227D01*
X11890205Y-15860227D01*
X11890205Y-15930939D01*
X11960916Y-15930939D01*
X16057000Y-15534500D02*
X16109500Y-15482000D01*
X16057000Y-15429500D01*
X16004500Y-15482000D01*
X16057000Y-15534500D01*
X16057000Y-15984500D02*
X16109500Y-15932000D01*
X16057000Y-15879500D01*
X16004500Y-15932000D01*
X16057000Y-15984500D01*
X16382000Y-15309500D02*
X16434500Y-15257000D01*
X16382000Y-15204500D01*
X16329500Y-15257000D01*
X16382000Y-15309500D01*
X16707000Y-15534500D02*
X16759500Y-15482000D01*
X16707000Y-15429500D01*
X16654500Y-15482000D01*
X16707000Y-15534500D01*
X16707000Y-15984500D02*
X16759500Y-15932000D01*
X16707000Y-15879500D01*
X16654500Y-15932000D01*
X16707000Y-15984500D01*
X14498000Y-8007000D02*
X14608000Y-8117000D01*
X14608000Y-8007000D02*
X14498000Y-8117000D01*
X14608000Y-8062000D02*
G75*
G03X14608000Y-8062000I-55000J0D01*
G01*
X14498000Y-8261000D02*
X14608000Y-8371000D01*
X14608000Y-8261000D02*
X14498000Y-8371000D01*
X14608000Y-8316000D02*
G75*
G03X14608000Y-8316000I-55000J0D01*
G01*
X14498000Y-8515000D02*
X14608000Y-8625000D01*
X14608000Y-8515000D02*
X14498000Y-8625000D01*
X14608000Y-8570000D02*
G75*
G03X14608000Y-8570000I-55000J0D01*
G01*
X14498000Y-8769000D02*
X14608000Y-8879000D01*
X14608000Y-8769000D02*
X14498000Y-8879000D01*
X14608000Y-8824000D02*
G75*
G03X14608000Y-8824000I-55000J0D01*
G01*
X14498000Y-9023000D02*
X14608000Y-9133000D01*
X14608000Y-9023000D02*
X14498000Y-9133000D01*
X14608000Y-9078000D02*
G75*
G03X14608000Y-9078000I-55000J0D01*
G01*
X14498000Y-9277000D02*
X14608000Y-9387000D01*
X14608000Y-9277000D02*
X14498000Y-9387000D01*
X14608000Y-9332000D02*
G75*
G03X14608000Y-9332000I-55000J0D01*
G01*
X14498000Y-9531000D02*
X14608000Y-9641000D01*
X14608000Y-9531000D02*
X14498000Y-9641000D01*
X14608000Y-9586000D02*
G75*
G03X14608000Y-9586000I-55000J0D01*
G01*
X14498000Y-9785000D02*
X14608000Y-9895000D01*
X14608000Y-9785000D02*
X14498000Y-9895000D01*
X14608000Y-9840000D02*
G75*
G03X14608000Y-9840000I-55000J0D01*
G01*
X14498000Y-10039000D02*
X14608000Y-10149000D01*
X14608000Y-10039000D02*
X14498000Y-10149000D01*
X14608000Y-10094000D02*
G75*
G03X14608000Y-10094000I-55000J0D01*
G01*
X14498000Y-10293000D02*
X14608000Y-10403000D01*
X14608000Y-10293000D02*
X14498000Y-10403000D01*
X14608000Y-10348000D02*
G75*
G03X14608000Y-10348000I-55000J0D01*
G01*
X14498000Y-10547000D02*
X14608000Y-10657000D01*
X14608000Y-10547000D02*
X14498000Y-10657000D01*
X14608000Y-10602000D02*
G75*
G03X14608000Y-10602000I-55000J0D01*
G01*
X14498000Y-10801000D02*
X14608000Y-10911000D01*
X14608000Y-10801000D02*
X14498000Y-10911000D01*
X14608000Y-10856000D02*
G75*
G03X14608000Y-10856000I-55000J0D01*
G01*
X16022000Y-8007000D02*
X16132000Y-8117000D01*
X16132000Y-8007000D02*
X16022000Y-8117000D01*
X16132000Y-8062000D02*
G75*
G03X16132000Y-8062000I-55000J0D01*
G01*
X16022000Y-8261000D02*
X16132000Y-8371000D01*
X16132000Y-8261000D02*
X16022000Y-8371000D01*
X16132000Y-8316000D02*
G75*
G03X16132000Y-8316000I-55000J0D01*
G01*
X16022000Y-8515000D02*
X16132000Y-8625000D01*
X16132000Y-8515000D02*
X16022000Y-8625000D01*
X16132000Y-8570000D02*
G75*
G03X16132000Y-8570000I-55000J0D01*
G01*
X16022000Y-8769000D02*
X16132000Y-8879000D01*
X16132000Y-8769000D02*
X16022000Y-8879000D01*
X16132000Y-8824000D02*
G75*
G03X16132000Y-8824000I-55000J0D01*
G01*
X16022000Y-9023000D02*
X16132000Y-9133000D01*
X16132000Y-9023000D02*
X16022000Y-9133000D01*
X16132000Y-9078000D02*
G75*
G03X16132000Y-9078000I-55000J0D01*
G01*
X16022000Y-9277000D02*
X16132000Y-9387000D01*
X16132000Y-9277000D02*
X16022000Y-9387000D01*
X16132000Y-9332000D02*
G75*
G03X16132000Y-9332000I-55000J0D01*
G01*
X16022000Y-9531000D02*
X16132000Y-9641000D01*
X16132000Y-9531000D02*
X16022000Y-9641000D01*
X16132000Y-9586000D02*
G75*
G03X16132000Y-9586000I-55000J0D01*
G01*
X16022000Y-9785000D02*
X16132000Y-9895000D01*
X16132000Y-9785000D02*
X16022000Y-9895000D01*
X16132000Y-9840000D02*
G75*
G03X16132000Y-9840000I-55000J0D01*
G01*
X16022000Y-10039000D02*
X16132000Y-10149000D01*
X16132000Y-10039000D02*
X16022000Y-10149000D01*
X16132000Y-10094000D02*
G75*
G03X16132000Y-10094000I-55000J0D01*
G01*
X16022000Y-10293000D02*
X16132000Y-10403000D01*
X16132000Y-10293000D02*
X16022000Y-10403000D01*
X16132000Y-10348000D02*
G75*
G03X16132000Y-10348000I-55000J0D01*
G01*
X16022000Y-10547000D02*
X16132000Y-10657000D01*
X16132000Y-10547000D02*
X16022000Y-10657000D01*
X16132000Y-10602000D02*
G75*
G03X16132000Y-10602000I-55000J0D01*
G01*
X16022000Y-10801000D02*
X16132000Y-10911000D01*
X16132000Y-10801000D02*
X16022000Y-10911000D01*
X16132000Y-10856000D02*
G75*
G03X16132000Y-10856000I-55000J0D01*
G01*
D12*
X4010923Y-16586640D02*
X4010923Y-16286640D01*
X4082352Y-16286640D01*
X4125209Y-16300926D01*
X4153780Y-16329497D01*
X4168066Y-16358069D01*
X4182352Y-16415212D01*
X4182352Y-16458069D01*
X4168066Y-16515212D01*
X4153780Y-16543783D01*
X4125209Y-16572354D01*
X4082352Y-16586640D01*
X4010923Y-16586640D01*
X4310923Y-16586640D02*
X4310923Y-16386640D01*
X4310923Y-16443783D02*
X4325209Y-16415212D01*
X4339495Y-16400926D01*
X4368066Y-16386640D01*
X4396638Y-16386640D01*
X4496638Y-16586640D02*
X4496638Y-16386640D01*
X4496638Y-16286640D02*
X4482352Y-16300926D01*
X4496638Y-16315212D01*
X4510923Y-16300926D01*
X4496638Y-16286640D01*
X4496638Y-16315212D01*
X4682352Y-16586640D02*
X4653780Y-16572354D01*
X4639495Y-16543783D01*
X4639495Y-16286640D01*
X4839495Y-16586640D02*
X4810923Y-16572354D01*
X4796638Y-16543783D01*
X4796638Y-16286640D01*
X5182352Y-16586640D02*
X5182352Y-16286640D01*
X5282352Y-16500926D01*
X5382352Y-16286640D01*
X5382352Y-16586640D01*
X5653780Y-16586640D02*
X5653780Y-16429497D01*
X5639495Y-16400926D01*
X5610923Y-16386640D01*
X5553780Y-16386640D01*
X5525209Y-16400926D01*
X5653780Y-16572354D02*
X5625209Y-16586640D01*
X5553780Y-16586640D01*
X5525209Y-16572354D01*
X5510923Y-16543783D01*
X5510923Y-16515212D01*
X5525209Y-16486640D01*
X5553780Y-16472354D01*
X5625209Y-16472354D01*
X5653780Y-16458069D01*
X5796637Y-16386640D02*
X5796637Y-16686640D01*
X5796637Y-16400926D02*
X5825209Y-16386640D01*
X5882352Y-16386640D01*
X5910923Y-16400926D01*
X5925209Y-16415212D01*
X5939495Y-16443783D01*
X5939495Y-16529497D01*
X5925209Y-16558069D01*
X5910923Y-16572354D01*
X5882352Y-16586640D01*
X5825209Y-16586640D01*
X5796637Y-16572354D01*
X6068066Y-16558069D02*
X6082352Y-16572354D01*
X6068066Y-16586640D01*
X6053780Y-16572354D01*
X6068066Y-16558069D01*
X6068066Y-16586640D01*
X6068066Y-16400926D02*
X6082352Y-16415212D01*
X6068066Y-16429497D01*
X6053780Y-16415212D01*
X6068066Y-16400926D01*
X6068066Y-16429497D01*
X3684495Y-17060926D02*
X3724495Y-17100926D01*
X3724495Y-17060926D02*
X3684495Y-17100926D01*
X4068066Y-16916640D02*
X4096637Y-16916640D01*
X4125209Y-16930926D01*
X4139495Y-16945212D01*
X4153780Y-16973783D01*
X4168066Y-17030926D01*
X4168066Y-17102354D01*
X4153780Y-17159497D01*
X4139495Y-17188069D01*
X4125209Y-17202354D01*
X4096637Y-17216640D01*
X4068066Y-17216640D01*
X4039495Y-17202354D01*
X4025209Y-17188069D01*
X4010923Y-17159497D01*
X3996637Y-17102354D01*
X3996637Y-17030926D01*
X4010923Y-16973783D01*
X4025209Y-16945212D01*
X4039495Y-16930926D01*
X4068066Y-16916640D01*
X4296638Y-17188069D02*
X4310923Y-17202354D01*
X4296638Y-17216640D01*
X4282352Y-17202354D01*
X4296638Y-17188069D01*
X4296638Y-17216640D01*
X4568066Y-17016640D02*
X4568066Y-17216640D01*
X4496638Y-16902354D02*
X4425209Y-17116640D01*
X4610923Y-17116640D01*
X4782352Y-16916640D02*
X4810923Y-16916640D01*
X4839495Y-16930926D01*
X4853780Y-16945212D01*
X4868066Y-16973783D01*
X4882352Y-17030926D01*
X4882352Y-17102354D01*
X4868066Y-17159497D01*
X4853780Y-17188069D01*
X4839495Y-17202354D01*
X4810923Y-17216640D01*
X4782352Y-17216640D01*
X4753780Y-17202354D01*
X4739495Y-17188069D01*
X4725209Y-17159497D01*
X4710923Y-17102354D01*
X4710923Y-17030926D01*
X4725209Y-16973783D01*
X4739495Y-16945212D01*
X4753780Y-16930926D01*
X4782352Y-16916640D01*
X5010923Y-17216640D02*
X5010923Y-17016640D01*
X5010923Y-17045212D02*
X5025209Y-17030926D01*
X5053780Y-17016640D01*
X5096638Y-17016640D01*
X5125209Y-17030926D01*
X5139495Y-17059497D01*
X5139495Y-17216640D01*
X5139495Y-17059497D02*
X5153780Y-17030926D01*
X5182352Y-17016640D01*
X5225209Y-17016640D01*
X5253780Y-17030926D01*
X5268066Y-17059497D01*
X5268066Y-17216640D01*
X5410923Y-17216640D02*
X5410923Y-17016640D01*
X5410923Y-17045212D02*
X5425209Y-17030926D01*
X5453780Y-17016640D01*
X5496638Y-17016640D01*
X5525209Y-17030926D01*
X5539495Y-17059497D01*
X5539495Y-17216640D01*
X5539495Y-17059497D02*
X5553780Y-17030926D01*
X5582352Y-17016640D01*
X5625209Y-17016640D01*
X5653780Y-17030926D01*
X5668066Y-17059497D01*
X5668066Y-17216640D01*
X6253780Y-16902354D02*
X5996637Y-17288069D01*
X6639495Y-16916640D02*
X6668066Y-16916640D01*
X6696637Y-16930926D01*
X6710923Y-16945212D01*
X6725209Y-16973783D01*
X6739495Y-17030926D01*
X6739495Y-17102354D01*
X6725209Y-17159497D01*
X6710923Y-17188069D01*
X6696637Y-17202354D01*
X6668066Y-17216640D01*
X6639495Y-17216640D01*
X6610923Y-17202354D01*
X6596637Y-17188069D01*
X6582352Y-17159497D01*
X6568066Y-17102354D01*
X6568066Y-17030926D01*
X6582352Y-16973783D01*
X6596637Y-16945212D01*
X6610923Y-16930926D01*
X6639495Y-16916640D01*
X6868066Y-17188069D02*
X6882352Y-17202354D01*
X6868066Y-17216640D01*
X6853780Y-17202354D01*
X6868066Y-17188069D01*
X6868066Y-17216640D01*
X7068066Y-16916640D02*
X7096637Y-16916640D01*
X7125209Y-16930926D01*
X7139495Y-16945212D01*
X7153780Y-16973783D01*
X7168066Y-17030926D01*
X7168066Y-17102354D01*
X7153780Y-17159497D01*
X7139495Y-17188069D01*
X7125209Y-17202354D01*
X7096637Y-17216640D01*
X7068066Y-17216640D01*
X7039495Y-17202354D01*
X7025209Y-17188069D01*
X7010923Y-17159497D01*
X6996637Y-17102354D01*
X6996637Y-17030926D01*
X7010923Y-16973783D01*
X7025209Y-16945212D01*
X7039495Y-16930926D01*
X7068066Y-16916640D01*
X7453780Y-17216640D02*
X7282352Y-17216640D01*
X7368066Y-17216640D02*
X7368066Y-16916640D01*
X7339495Y-16959497D01*
X7310923Y-16988069D01*
X7282352Y-17002354D01*
X7710923Y-16916640D02*
X7653780Y-16916640D01*
X7625209Y-16930926D01*
X7610923Y-16945212D01*
X7582352Y-16988069D01*
X7568066Y-17045212D01*
X7568066Y-17159497D01*
X7582352Y-17188069D01*
X7596637Y-17202354D01*
X7625209Y-17216640D01*
X7682352Y-17216640D01*
X7710923Y-17202354D01*
X7725209Y-17188069D01*
X7739495Y-17159497D01*
X7739495Y-17088069D01*
X7725209Y-17059497D01*
X7710923Y-17045212D01*
X7682352Y-17030926D01*
X7625209Y-17030926D01*
X7596637Y-17045212D01*
X7582352Y-17059497D01*
X7568066Y-17088069D01*
X7853780Y-16916640D02*
X7853780Y-16973783D01*
X7968066Y-16916640D02*
X7968066Y-16973783D01*
X8410923Y-17330926D02*
X8396638Y-17316640D01*
X8368066Y-17273783D01*
X8353780Y-17245212D01*
X8339495Y-17202354D01*
X8325209Y-17130926D01*
X8325209Y-17073783D01*
X8339495Y-17002354D01*
X8353780Y-16959497D01*
X8368066Y-16930926D01*
X8396638Y-16888069D01*
X8410923Y-16873783D01*
X8682352Y-17216640D02*
X8510923Y-17216640D01*
X8596638Y-17216640D02*
X8596638Y-16916640D01*
X8568066Y-16959497D01*
X8539495Y-16988069D01*
X8510923Y-17002354D01*
X8868066Y-16916640D02*
X8896638Y-16916640D01*
X8925209Y-16930926D01*
X8939495Y-16945212D01*
X8953780Y-16973783D01*
X8968066Y-17030926D01*
X8968066Y-17102354D01*
X8953780Y-17159497D01*
X8939495Y-17188069D01*
X8925209Y-17202354D01*
X8896638Y-17216640D01*
X8868066Y-17216640D01*
X8839495Y-17202354D01*
X8825209Y-17188069D01*
X8810923Y-17159497D01*
X8796638Y-17102354D01*
X8796638Y-17030926D01*
X8810923Y-16973783D01*
X8825209Y-16945212D01*
X8839495Y-16930926D01*
X8868066Y-16916640D01*
X9068066Y-16916640D02*
X9268066Y-16916640D01*
X9139495Y-17216640D01*
X9610923Y-17216640D02*
X9610923Y-16916640D01*
X9739495Y-17216640D02*
X9739495Y-17059497D01*
X9725209Y-17030926D01*
X9696638Y-17016640D01*
X9653780Y-17016640D01*
X9625209Y-17030926D01*
X9610923Y-17045212D01*
X9925209Y-17216640D02*
X9896638Y-17202354D01*
X9882352Y-17188069D01*
X9868066Y-17159497D01*
X9868066Y-17073783D01*
X9882352Y-17045212D01*
X9896638Y-17030926D01*
X9925209Y-17016640D01*
X9968066Y-17016640D01*
X9996638Y-17030926D01*
X10010923Y-17045212D01*
X10025209Y-17073783D01*
X10025209Y-17159497D01*
X10010923Y-17188069D01*
X9996638Y-17202354D01*
X9968066Y-17216640D01*
X9925209Y-17216640D01*
X10196638Y-17216640D02*
X10168066Y-17202354D01*
X10153780Y-17173783D01*
X10153780Y-16916640D01*
X10425209Y-17202354D02*
X10396638Y-17216640D01*
X10339495Y-17216640D01*
X10310923Y-17202354D01*
X10296638Y-17173783D01*
X10296638Y-17059497D01*
X10310923Y-17030926D01*
X10339495Y-17016640D01*
X10396638Y-17016640D01*
X10425209Y-17030926D01*
X10439495Y-17059497D01*
X10439495Y-17088069D01*
X10296638Y-17116640D01*
X10553780Y-17202354D02*
X10582352Y-17216640D01*
X10639495Y-17216640D01*
X10668066Y-17202354D01*
X10682352Y-17173783D01*
X10682352Y-17159497D01*
X10668066Y-17130926D01*
X10639495Y-17116640D01*
X10596638Y-17116640D01*
X10568066Y-17102354D01*
X10553780Y-17073783D01*
X10553780Y-17059497D01*
X10568066Y-17030926D01*
X10596638Y-17016640D01*
X10639495Y-17016640D01*
X10668066Y-17030926D01*
X10782352Y-17330926D02*
X10796638Y-17316640D01*
X10825209Y-17273783D01*
X10839495Y-17245212D01*
X10853780Y-17202354D01*
X10868066Y-17130926D01*
X10868066Y-17073783D01*
X10853780Y-17002354D01*
X10839495Y-16959497D01*
X10825209Y-16930926D01*
X10796638Y-16888069D01*
X10782352Y-16873783D01*
X3724495Y-17476926D02*
G75*
G03X3724495Y-17476926I-37500J0D01*
G01*
X4068066Y-17312640D02*
X4096637Y-17312640D01*
X4125209Y-17326926D01*
X4139495Y-17341212D01*
X4153780Y-17369783D01*
X4168066Y-17426926D01*
X4168066Y-17498354D01*
X4153780Y-17555497D01*
X4139495Y-17584069D01*
X4125209Y-17598354D01*
X4096637Y-17612640D01*
X4068066Y-17612640D01*
X4039495Y-17598354D01*
X4025209Y-17584069D01*
X4010923Y-17555497D01*
X3996637Y-17498354D01*
X3996637Y-17426926D01*
X4010923Y-17369783D01*
X4025209Y-17341212D01*
X4039495Y-17326926D01*
X4068066Y-17312640D01*
X4296638Y-17584069D02*
X4310923Y-17598354D01*
X4296638Y-17612640D01*
X4282352Y-17598354D01*
X4296638Y-17584069D01*
X4296638Y-17612640D01*
X4410923Y-17312640D02*
X4610923Y-17312640D01*
X4482352Y-17612640D01*
X4868066Y-17312640D02*
X4725209Y-17312640D01*
X4710923Y-17455497D01*
X4725209Y-17441212D01*
X4753780Y-17426926D01*
X4825209Y-17426926D01*
X4853780Y-17441212D01*
X4868066Y-17455497D01*
X4882352Y-17484069D01*
X4882352Y-17555497D01*
X4868066Y-17584069D01*
X4853780Y-17598354D01*
X4825209Y-17612640D01*
X4753780Y-17612640D01*
X4725209Y-17598354D01*
X4710923Y-17584069D01*
X5010923Y-17612640D02*
X5010923Y-17412640D01*
X5010923Y-17441212D02*
X5025209Y-17426926D01*
X5053780Y-17412640D01*
X5096638Y-17412640D01*
X5125209Y-17426926D01*
X5139495Y-17455497D01*
X5139495Y-17612640D01*
X5139495Y-17455497D02*
X5153780Y-17426926D01*
X5182352Y-17412640D01*
X5225209Y-17412640D01*
X5253780Y-17426926D01*
X5268066Y-17455497D01*
X5268066Y-17612640D01*
X5410923Y-17612640D02*
X5410923Y-17412640D01*
X5410923Y-17441212D02*
X5425209Y-17426926D01*
X5453780Y-17412640D01*
X5496638Y-17412640D01*
X5525209Y-17426926D01*
X5539495Y-17455497D01*
X5539495Y-17612640D01*
X5539495Y-17455497D02*
X5553780Y-17426926D01*
X5582352Y-17412640D01*
X5625209Y-17412640D01*
X5653780Y-17426926D01*
X5668066Y-17455497D01*
X5668066Y-17612640D01*
X6253780Y-17298354D02*
X5996637Y-17684069D01*
X6639495Y-17312640D02*
X6668066Y-17312640D01*
X6696637Y-17326926D01*
X6710923Y-17341212D01*
X6725209Y-17369783D01*
X6739495Y-17426926D01*
X6739495Y-17498354D01*
X6725209Y-17555497D01*
X6710923Y-17584069D01*
X6696637Y-17598354D01*
X6668066Y-17612640D01*
X6639495Y-17612640D01*
X6610923Y-17598354D01*
X6596637Y-17584069D01*
X6582352Y-17555497D01*
X6568066Y-17498354D01*
X6568066Y-17426926D01*
X6582352Y-17369783D01*
X6596637Y-17341212D01*
X6610923Y-17326926D01*
X6639495Y-17312640D01*
X6868066Y-17584069D02*
X6882352Y-17598354D01*
X6868066Y-17612640D01*
X6853780Y-17598354D01*
X6868066Y-17584069D01*
X6868066Y-17612640D01*
X7068066Y-17312640D02*
X7096637Y-17312640D01*
X7125209Y-17326926D01*
X7139495Y-17341212D01*
X7153780Y-17369783D01*
X7168066Y-17426926D01*
X7168066Y-17498354D01*
X7153780Y-17555497D01*
X7139495Y-17584069D01*
X7125209Y-17598354D01*
X7096637Y-17612640D01*
X7068066Y-17612640D01*
X7039495Y-17598354D01*
X7025209Y-17584069D01*
X7010923Y-17555497D01*
X6996637Y-17498354D01*
X6996637Y-17426926D01*
X7010923Y-17369783D01*
X7025209Y-17341212D01*
X7039495Y-17326926D01*
X7068066Y-17312640D01*
X7268066Y-17312640D02*
X7453780Y-17312640D01*
X7353780Y-17426926D01*
X7396637Y-17426926D01*
X7425209Y-17441212D01*
X7439495Y-17455497D01*
X7453780Y-17484069D01*
X7453780Y-17555497D01*
X7439495Y-17584069D01*
X7425209Y-17598354D01*
X7396637Y-17612640D01*
X7310923Y-17612640D01*
X7282352Y-17598354D01*
X7268066Y-17584069D01*
X7639495Y-17312640D02*
X7668066Y-17312640D01*
X7696637Y-17326926D01*
X7710923Y-17341212D01*
X7725209Y-17369783D01*
X7739495Y-17426926D01*
X7739495Y-17498354D01*
X7725209Y-17555497D01*
X7710923Y-17584069D01*
X7696637Y-17598354D01*
X7668066Y-17612640D01*
X7639495Y-17612640D01*
X7610923Y-17598354D01*
X7596637Y-17584069D01*
X7582352Y-17555497D01*
X7568066Y-17498354D01*
X7568066Y-17426926D01*
X7582352Y-17369783D01*
X7596637Y-17341212D01*
X7610923Y-17326926D01*
X7639495Y-17312640D01*
X7853780Y-17312640D02*
X7853780Y-17369783D01*
X7968066Y-17312640D02*
X7968066Y-17369783D01*
X8410923Y-17726926D02*
X8396638Y-17712640D01*
X8368066Y-17669783D01*
X8353780Y-17641212D01*
X8339495Y-17598354D01*
X8325209Y-17526926D01*
X8325209Y-17469783D01*
X8339495Y-17398354D01*
X8353780Y-17355497D01*
X8368066Y-17326926D01*
X8396638Y-17284069D01*
X8410923Y-17269783D01*
X8682352Y-17612640D02*
X8510923Y-17612640D01*
X8596638Y-17612640D02*
X8596638Y-17312640D01*
X8568066Y-17355497D01*
X8539495Y-17384069D01*
X8510923Y-17398354D01*
X9039495Y-17612640D02*
X9039495Y-17312640D01*
X9168066Y-17612640D02*
X9168066Y-17455497D01*
X9153780Y-17426926D01*
X9125209Y-17412640D01*
X9082352Y-17412640D01*
X9053780Y-17426926D01*
X9039495Y-17441212D01*
X9353780Y-17612640D02*
X9325209Y-17598354D01*
X9310923Y-17584069D01*
X9296638Y-17555497D01*
X9296638Y-17469783D01*
X9310923Y-17441212D01*
X9325209Y-17426926D01*
X9353780Y-17412640D01*
X9396638Y-17412640D01*
X9425209Y-17426926D01*
X9439495Y-17441212D01*
X9453780Y-17469783D01*
X9453780Y-17555497D01*
X9439495Y-17584069D01*
X9425209Y-17598354D01*
X9396638Y-17612640D01*
X9353780Y-17612640D01*
X9625209Y-17612640D02*
X9596638Y-17598354D01*
X9582352Y-17569783D01*
X9582352Y-17312640D01*
X9853780Y-17598354D02*
X9825209Y-17612640D01*
X9768066Y-17612640D01*
X9739495Y-17598354D01*
X9725209Y-17569783D01*
X9725209Y-17455497D01*
X9739495Y-17426926D01*
X9768066Y-17412640D01*
X9825209Y-17412640D01*
X9853780Y-17426926D01*
X9868066Y-17455497D01*
X9868066Y-17484069D01*
X9725209Y-17512640D01*
X9968066Y-17726926D02*
X9982352Y-17712640D01*
X10010923Y-17669783D01*
X10025209Y-17641212D01*
X10039495Y-17598354D01*
X10053780Y-17526926D01*
X10053780Y-17469783D01*
X10039495Y-17398354D01*
X10025209Y-17355497D01*
X10010923Y-17326926D01*
X9982352Y-17284069D01*
X9968066Y-17269783D01*
X3684495Y-17832926D02*
X3684495Y-17912926D01*
X3644495Y-17872926D02*
X3724495Y-17872926D01*
X4068066Y-17708640D02*
X4096637Y-17708640D01*
X4125209Y-17722926D01*
X4139495Y-17737212D01*
X4153780Y-17765783D01*
X4168066Y-17822926D01*
X4168066Y-17894354D01*
X4153780Y-17951497D01*
X4139495Y-17980069D01*
X4125209Y-17994354D01*
X4096637Y-18008640D01*
X4068066Y-18008640D01*
X4039495Y-17994354D01*
X4025209Y-17980069D01*
X4010923Y-17951497D01*
X3996637Y-17894354D01*
X3996637Y-17822926D01*
X4010923Y-17765783D01*
X4025209Y-17737212D01*
X4039495Y-17722926D01*
X4068066Y-17708640D01*
X4296638Y-17980069D02*
X4310923Y-17994354D01*
X4296638Y-18008640D01*
X4282352Y-17994354D01*
X4296638Y-17980069D01*
X4296638Y-18008640D01*
X4482352Y-17837212D02*
X4453780Y-17822926D01*
X4439495Y-17808640D01*
X4425209Y-17780069D01*
X4425209Y-17765783D01*
X4439495Y-17737212D01*
X4453780Y-17722926D01*
X4482352Y-17708640D01*
X4539495Y-17708640D01*
X4568066Y-17722926D01*
X4582352Y-17737212D01*
X4596638Y-17765783D01*
X4596638Y-17780069D01*
X4582352Y-17808640D01*
X4568066Y-17822926D01*
X4539495Y-17837212D01*
X4482352Y-17837212D01*
X4453780Y-17851497D01*
X4439495Y-17865783D01*
X4425209Y-17894354D01*
X4425209Y-17951497D01*
X4439495Y-17980069D01*
X4453780Y-17994354D01*
X4482352Y-18008640D01*
X4539495Y-18008640D01*
X4568066Y-17994354D01*
X4582352Y-17980069D01*
X4596638Y-17951497D01*
X4596638Y-17894354D01*
X4582352Y-17865783D01*
X4568066Y-17851497D01*
X4539495Y-17837212D01*
X4782352Y-17708640D02*
X4810923Y-17708640D01*
X4839495Y-17722926D01*
X4853780Y-17737212D01*
X4868066Y-17765783D01*
X4882352Y-17822926D01*
X4882352Y-17894354D01*
X4868066Y-17951497D01*
X4853780Y-17980069D01*
X4839495Y-17994354D01*
X4810923Y-18008640D01*
X4782352Y-18008640D01*
X4753780Y-17994354D01*
X4739495Y-17980069D01*
X4725209Y-17951497D01*
X4710923Y-17894354D01*
X4710923Y-17822926D01*
X4725209Y-17765783D01*
X4739495Y-17737212D01*
X4753780Y-17722926D01*
X4782352Y-17708640D01*
X5010923Y-18008640D02*
X5010923Y-17808640D01*
X5010923Y-17837212D02*
X5025209Y-17822926D01*
X5053780Y-17808640D01*
X5096638Y-17808640D01*
X5125209Y-17822926D01*
X5139495Y-17851497D01*
X5139495Y-18008640D01*
X5139495Y-17851497D02*
X5153780Y-17822926D01*
X5182352Y-17808640D01*
X5225209Y-17808640D01*
X5253780Y-17822926D01*
X5268066Y-17851497D01*
X5268066Y-18008640D01*
X5410923Y-18008640D02*
X5410923Y-17808640D01*
X5410923Y-17837212D02*
X5425209Y-17822926D01*
X5453780Y-17808640D01*
X5496638Y-17808640D01*
X5525209Y-17822926D01*
X5539495Y-17851497D01*
X5539495Y-18008640D01*
X5539495Y-17851497D02*
X5553780Y-17822926D01*
X5582352Y-17808640D01*
X5625209Y-17808640D01*
X5653780Y-17822926D01*
X5668066Y-17851497D01*
X5668066Y-18008640D01*
X6253780Y-17694354D02*
X5996637Y-18080069D01*
X6639495Y-17708640D02*
X6668066Y-17708640D01*
X6696637Y-17722926D01*
X6710923Y-17737212D01*
X6725209Y-17765783D01*
X6739495Y-17822926D01*
X6739495Y-17894354D01*
X6725209Y-17951497D01*
X6710923Y-17980069D01*
X6696637Y-17994354D01*
X6668066Y-18008640D01*
X6639495Y-18008640D01*
X6610923Y-17994354D01*
X6596637Y-17980069D01*
X6582352Y-17951497D01*
X6568066Y-17894354D01*
X6568066Y-17822926D01*
X6582352Y-17765783D01*
X6596637Y-17737212D01*
X6610923Y-17722926D01*
X6639495Y-17708640D01*
X6868066Y-17980069D02*
X6882352Y-17994354D01*
X6868066Y-18008640D01*
X6853780Y-17994354D01*
X6868066Y-17980069D01*
X6868066Y-18008640D01*
X7068066Y-17708640D02*
X7096637Y-17708640D01*
X7125209Y-17722926D01*
X7139495Y-17737212D01*
X7153780Y-17765783D01*
X7168066Y-17822926D01*
X7168066Y-17894354D01*
X7153780Y-17951497D01*
X7139495Y-17980069D01*
X7125209Y-17994354D01*
X7096637Y-18008640D01*
X7068066Y-18008640D01*
X7039495Y-17994354D01*
X7025209Y-17980069D01*
X7010923Y-17951497D01*
X6996637Y-17894354D01*
X6996637Y-17822926D01*
X7010923Y-17765783D01*
X7025209Y-17737212D01*
X7039495Y-17722926D01*
X7068066Y-17708640D01*
X7268066Y-17708640D02*
X7453780Y-17708640D01*
X7353780Y-17822926D01*
X7396637Y-17822926D01*
X7425209Y-17837212D01*
X7439495Y-17851497D01*
X7453780Y-17880069D01*
X7453780Y-17951497D01*
X7439495Y-17980069D01*
X7425209Y-17994354D01*
X7396637Y-18008640D01*
X7310923Y-18008640D01*
X7282352Y-17994354D01*
X7268066Y-17980069D01*
X7739495Y-18008640D02*
X7568066Y-18008640D01*
X7653780Y-18008640D02*
X7653780Y-17708640D01*
X7625209Y-17751497D01*
X7596637Y-17780069D01*
X7568066Y-17794354D01*
X7853780Y-17708640D02*
X7853780Y-17765783D01*
X7968066Y-17708640D02*
X7968066Y-17765783D01*
X8410923Y-18122926D02*
X8396638Y-18108640D01*
X8368066Y-18065783D01*
X8353780Y-18037212D01*
X8339495Y-17994354D01*
X8325209Y-17922926D01*
X8325209Y-17865783D01*
X8339495Y-17794354D01*
X8353780Y-17751497D01*
X8368066Y-17722926D01*
X8396638Y-17680069D01*
X8410923Y-17665783D01*
X8510923Y-17737212D02*
X8525209Y-17722926D01*
X8553780Y-17708640D01*
X8625209Y-17708640D01*
X8653780Y-17722926D01*
X8668066Y-17737212D01*
X8682352Y-17765783D01*
X8682352Y-17794354D01*
X8668066Y-17837212D01*
X8496638Y-18008640D01*
X8682352Y-18008640D01*
X9039495Y-18008640D02*
X9039495Y-17708640D01*
X9168066Y-18008640D02*
X9168066Y-17851497D01*
X9153780Y-17822926D01*
X9125209Y-17808640D01*
X9082352Y-17808640D01*
X9053780Y-17822926D01*
X9039495Y-17837212D01*
X9353780Y-18008640D02*
X9325209Y-17994354D01*
X9310923Y-17980069D01*
X9296638Y-17951497D01*
X9296638Y-17865783D01*
X9310923Y-17837212D01*
X9325209Y-17822926D01*
X9353780Y-17808640D01*
X9396638Y-17808640D01*
X9425209Y-17822926D01*
X9439495Y-17837212D01*
X9453780Y-17865783D01*
X9453780Y-17951497D01*
X9439495Y-17980069D01*
X9425209Y-17994354D01*
X9396638Y-18008640D01*
X9353780Y-18008640D01*
X9625209Y-18008640D02*
X9596638Y-17994354D01*
X9582352Y-17965783D01*
X9582352Y-17708640D01*
X9853780Y-17994354D02*
X9825209Y-18008640D01*
X9768066Y-18008640D01*
X9739495Y-17994354D01*
X9725209Y-17965783D01*
X9725209Y-17851497D01*
X9739495Y-17822926D01*
X9768066Y-17808640D01*
X9825209Y-17808640D01*
X9853780Y-17822926D01*
X9868066Y-17851497D01*
X9868066Y-17880069D01*
X9725209Y-17908640D01*
X9982352Y-17994354D02*
X10010923Y-18008640D01*
X10068066Y-18008640D01*
X10096638Y-17994354D01*
X10110923Y-17965783D01*
X10110923Y-17951497D01*
X10096638Y-17922926D01*
X10068066Y-17908640D01*
X10025209Y-17908640D01*
X9996638Y-17894354D01*
X9982352Y-17865783D01*
X9982352Y-17851497D01*
X9996638Y-17822926D01*
X10025209Y-17808640D01*
X10068066Y-17808640D01*
X10096638Y-17822926D01*
X10210923Y-18122926D02*
X10225209Y-18108640D01*
X10253780Y-18065783D01*
X10268066Y-18037212D01*
X10282352Y-17994354D01*
X10296638Y-17922926D01*
X10296638Y-17865783D01*
X10282352Y-17794354D01*
X10268066Y-17751497D01*
X10253780Y-17722926D01*
X10225209Y-17680069D01*
X10210923Y-17665783D01*
X3709850Y-18304282D02*
X3709850Y-18233570D01*
X3639139Y-18233570D01*
X3639139Y-18304282D01*
X3709850Y-18304282D01*
X4168066Y-18404640D02*
X3996637Y-18404640D01*
X4082352Y-18404640D02*
X4082352Y-18104640D01*
X4053780Y-18147497D01*
X4025209Y-18176069D01*
X3996637Y-18190354D01*
X4296638Y-18376069D02*
X4310923Y-18390354D01*
X4296638Y-18404640D01*
X4282352Y-18390354D01*
X4296638Y-18376069D01*
X4296638Y-18404640D01*
X4496638Y-18104640D02*
X4525209Y-18104640D01*
X4553780Y-18118926D01*
X4568066Y-18133212D01*
X4582352Y-18161783D01*
X4596638Y-18218926D01*
X4596638Y-18290354D01*
X4582352Y-18347497D01*
X4568066Y-18376069D01*
X4553780Y-18390354D01*
X4525209Y-18404640D01*
X4496638Y-18404640D01*
X4468066Y-18390354D01*
X4453780Y-18376069D01*
X4439495Y-18347497D01*
X4425209Y-18290354D01*
X4425209Y-18218926D01*
X4439495Y-18161783D01*
X4453780Y-18133212D01*
X4468066Y-18118926D01*
X4496638Y-18104640D01*
X4782352Y-18104640D02*
X4810923Y-18104640D01*
X4839495Y-18118926D01*
X4853780Y-18133212D01*
X4868066Y-18161783D01*
X4882352Y-18218926D01*
X4882352Y-18290354D01*
X4868066Y-18347497D01*
X4853780Y-18376069D01*
X4839495Y-18390354D01*
X4810923Y-18404640D01*
X4782352Y-18404640D01*
X4753780Y-18390354D01*
X4739495Y-18376069D01*
X4725209Y-18347497D01*
X4710923Y-18290354D01*
X4710923Y-18218926D01*
X4725209Y-18161783D01*
X4739495Y-18133212D01*
X4753780Y-18118926D01*
X4782352Y-18104640D01*
X5010923Y-18404640D02*
X5010923Y-18204640D01*
X5010923Y-18233212D02*
X5025209Y-18218926D01*
X5053780Y-18204640D01*
X5096638Y-18204640D01*
X5125209Y-18218926D01*
X5139495Y-18247497D01*
X5139495Y-18404640D01*
X5139495Y-18247497D02*
X5153780Y-18218926D01*
X5182352Y-18204640D01*
X5225209Y-18204640D01*
X5253780Y-18218926D01*
X5268066Y-18247497D01*
X5268066Y-18404640D01*
X5410923Y-18404640D02*
X5410923Y-18204640D01*
X5410923Y-18233212D02*
X5425209Y-18218926D01*
X5453780Y-18204640D01*
X5496638Y-18204640D01*
X5525209Y-18218926D01*
X5539495Y-18247497D01*
X5539495Y-18404640D01*
X5539495Y-18247497D02*
X5553780Y-18218926D01*
X5582352Y-18204640D01*
X5625209Y-18204640D01*
X5653780Y-18218926D01*
X5668066Y-18247497D01*
X5668066Y-18404640D01*
X6253780Y-18090354D02*
X5996637Y-18476069D01*
X6639495Y-18104640D02*
X6668066Y-18104640D01*
X6696637Y-18118926D01*
X6710923Y-18133212D01*
X6725209Y-18161783D01*
X6739495Y-18218926D01*
X6739495Y-18290354D01*
X6725209Y-18347497D01*
X6710923Y-18376069D01*
X6696637Y-18390354D01*
X6668066Y-18404640D01*
X6639495Y-18404640D01*
X6610923Y-18390354D01*
X6596637Y-18376069D01*
X6582352Y-18347497D01*
X6568066Y-18290354D01*
X6568066Y-18218926D01*
X6582352Y-18161783D01*
X6596637Y-18133212D01*
X6610923Y-18118926D01*
X6639495Y-18104640D01*
X6868066Y-18376069D02*
X6882352Y-18390354D01*
X6868066Y-18404640D01*
X6853780Y-18390354D01*
X6868066Y-18376069D01*
X6868066Y-18404640D01*
X7068066Y-18104640D02*
X7096637Y-18104640D01*
X7125209Y-18118926D01*
X7139495Y-18133212D01*
X7153780Y-18161783D01*
X7168066Y-18218926D01*
X7168066Y-18290354D01*
X7153780Y-18347497D01*
X7139495Y-18376069D01*
X7125209Y-18390354D01*
X7096637Y-18404640D01*
X7068066Y-18404640D01*
X7039495Y-18390354D01*
X7025209Y-18376069D01*
X7010923Y-18347497D01*
X6996637Y-18290354D01*
X6996637Y-18218926D01*
X7010923Y-18161783D01*
X7025209Y-18133212D01*
X7039495Y-18118926D01*
X7068066Y-18104640D01*
X7268066Y-18104640D02*
X7453780Y-18104640D01*
X7353780Y-18218926D01*
X7396637Y-18218926D01*
X7425209Y-18233212D01*
X7439495Y-18247497D01*
X7453780Y-18276069D01*
X7453780Y-18347497D01*
X7439495Y-18376069D01*
X7425209Y-18390354D01*
X7396637Y-18404640D01*
X7310923Y-18404640D01*
X7282352Y-18390354D01*
X7268066Y-18376069D01*
X7596637Y-18404640D02*
X7653780Y-18404640D01*
X7682352Y-18390354D01*
X7696637Y-18376069D01*
X7725209Y-18333212D01*
X7739495Y-18276069D01*
X7739495Y-18161783D01*
X7725209Y-18133212D01*
X7710923Y-18118926D01*
X7682352Y-18104640D01*
X7625209Y-18104640D01*
X7596637Y-18118926D01*
X7582352Y-18133212D01*
X7568066Y-18161783D01*
X7568066Y-18233212D01*
X7582352Y-18261783D01*
X7596637Y-18276069D01*
X7625209Y-18290354D01*
X7682352Y-18290354D01*
X7710923Y-18276069D01*
X7725209Y-18261783D01*
X7739495Y-18233212D01*
X7853780Y-18104640D02*
X7853780Y-18161783D01*
X7968066Y-18104640D02*
X7968066Y-18161783D01*
X8410923Y-18518926D02*
X8396638Y-18504640D01*
X8368066Y-18461783D01*
X8353780Y-18433212D01*
X8339495Y-18390354D01*
X8325209Y-18318926D01*
X8325209Y-18261783D01*
X8339495Y-18190354D01*
X8353780Y-18147497D01*
X8368066Y-18118926D01*
X8396638Y-18076069D01*
X8410923Y-18061783D01*
X8496638Y-18104640D02*
X8696638Y-18104640D01*
X8568066Y-18404640D01*
X8796638Y-18133212D02*
X8810923Y-18118926D01*
X8839495Y-18104640D01*
X8910923Y-18104640D01*
X8939495Y-18118926D01*
X8953780Y-18133212D01*
X8968066Y-18161783D01*
X8968066Y-18190354D01*
X8953780Y-18233212D01*
X8782352Y-18404640D01*
X8968066Y-18404640D01*
X9325209Y-18404640D02*
X9325209Y-18104640D01*
X9453780Y-18404640D02*
X9453780Y-18247497D01*
X9439495Y-18218926D01*
X9410923Y-18204640D01*
X9368066Y-18204640D01*
X9339495Y-18218926D01*
X9325209Y-18233212D01*
X9639495Y-18404640D02*
X9610923Y-18390354D01*
X9596638Y-18376069D01*
X9582352Y-18347497D01*
X9582352Y-18261783D01*
X9596638Y-18233212D01*
X9610923Y-18218926D01*
X9639495Y-18204640D01*
X9682352Y-18204640D01*
X9710923Y-18218926D01*
X9725209Y-18233212D01*
X9739495Y-18261783D01*
X9739495Y-18347497D01*
X9725209Y-18376069D01*
X9710923Y-18390354D01*
X9682352Y-18404640D01*
X9639495Y-18404640D01*
X9910923Y-18404640D02*
X9882352Y-18390354D01*
X9868066Y-18361783D01*
X9868066Y-18104640D01*
X10139495Y-18390354D02*
X10110923Y-18404640D01*
X10053780Y-18404640D01*
X10025209Y-18390354D01*
X10010923Y-18361783D01*
X10010923Y-18247497D01*
X10025209Y-18218926D01*
X10053780Y-18204640D01*
X10110923Y-18204640D01*
X10139495Y-18218926D01*
X10153780Y-18247497D01*
X10153780Y-18276069D01*
X10010923Y-18304640D01*
X10268066Y-18390354D02*
X10296638Y-18404640D01*
X10353780Y-18404640D01*
X10382352Y-18390354D01*
X10396638Y-18361783D01*
X10396638Y-18347497D01*
X10382352Y-18318926D01*
X10353780Y-18304640D01*
X10310923Y-18304640D01*
X10282352Y-18290354D01*
X10268066Y-18261783D01*
X10268066Y-18247497D01*
X10282352Y-18218926D01*
X10310923Y-18204640D01*
X10353780Y-18204640D01*
X10382352Y-18218926D01*
X10496638Y-18518926D02*
X10510923Y-18504640D01*
X10539495Y-18461783D01*
X10553780Y-18433212D01*
X10568066Y-18390354D01*
X10582352Y-18318926D01*
X10582352Y-18261783D01*
X10568066Y-18190354D01*
X10553780Y-18147497D01*
X10539495Y-18118926D01*
X10510923Y-18076069D01*
X10496638Y-18061783D01*
X3671995Y-18717426D02*
X3724495Y-18664926D01*
X3671995Y-18612426D01*
X3619495Y-18664926D01*
X3671995Y-18717426D01*
X4168066Y-18800640D02*
X3996637Y-18800640D01*
X4082352Y-18800640D02*
X4082352Y-18500640D01*
X4053780Y-18543497D01*
X4025209Y-18572069D01*
X3996637Y-18586354D01*
X4296638Y-18772069D02*
X4310923Y-18786354D01*
X4296638Y-18800640D01*
X4282352Y-18786354D01*
X4296638Y-18772069D01*
X4296638Y-18800640D01*
X4496638Y-18500640D02*
X4525209Y-18500640D01*
X4553780Y-18514926D01*
X4568066Y-18529212D01*
X4582352Y-18557783D01*
X4596638Y-18614926D01*
X4596638Y-18686354D01*
X4582352Y-18743497D01*
X4568066Y-18772069D01*
X4553780Y-18786354D01*
X4525209Y-18800640D01*
X4496638Y-18800640D01*
X4468066Y-18786354D01*
X4453780Y-18772069D01*
X4439495Y-18743497D01*
X4425209Y-18686354D01*
X4425209Y-18614926D01*
X4439495Y-18557783D01*
X4453780Y-18529212D01*
X4468066Y-18514926D01*
X4496638Y-18500640D01*
X4868066Y-18500640D02*
X4725209Y-18500640D01*
X4710923Y-18643497D01*
X4725209Y-18629212D01*
X4753780Y-18614926D01*
X4825209Y-18614926D01*
X4853780Y-18629212D01*
X4868066Y-18643497D01*
X4882352Y-18672069D01*
X4882352Y-18743497D01*
X4868066Y-18772069D01*
X4853780Y-18786354D01*
X4825209Y-18800640D01*
X4753780Y-18800640D01*
X4725209Y-18786354D01*
X4710923Y-18772069D01*
X5010923Y-18800640D02*
X5010923Y-18600640D01*
X5010923Y-18629212D02*
X5025209Y-18614926D01*
X5053780Y-18600640D01*
X5096638Y-18600640D01*
X5125209Y-18614926D01*
X5139495Y-18643497D01*
X5139495Y-18800640D01*
X5139495Y-18643497D02*
X5153780Y-18614926D01*
X5182352Y-18600640D01*
X5225209Y-18600640D01*
X5253780Y-18614926D01*
X5268066Y-18643497D01*
X5268066Y-18800640D01*
X5410923Y-18800640D02*
X5410923Y-18600640D01*
X5410923Y-18629212D02*
X5425209Y-18614926D01*
X5453780Y-18600640D01*
X5496638Y-18600640D01*
X5525209Y-18614926D01*
X5539495Y-18643497D01*
X5539495Y-18800640D01*
X5539495Y-18643497D02*
X5553780Y-18614926D01*
X5582352Y-18600640D01*
X5625209Y-18600640D01*
X5653780Y-18614926D01*
X5668066Y-18643497D01*
X5668066Y-18800640D01*
X6253780Y-18486354D02*
X5996637Y-18872069D01*
X6639495Y-18500640D02*
X6668066Y-18500640D01*
X6696637Y-18514926D01*
X6710923Y-18529212D01*
X6725209Y-18557783D01*
X6739495Y-18614926D01*
X6739495Y-18686354D01*
X6725209Y-18743497D01*
X6710923Y-18772069D01*
X6696637Y-18786354D01*
X6668066Y-18800640D01*
X6639495Y-18800640D01*
X6610923Y-18786354D01*
X6596637Y-18772069D01*
X6582352Y-18743497D01*
X6568066Y-18686354D01*
X6568066Y-18614926D01*
X6582352Y-18557783D01*
X6596637Y-18529212D01*
X6610923Y-18514926D01*
X6639495Y-18500640D01*
X6868066Y-18772069D02*
X6882352Y-18786354D01*
X6868066Y-18800640D01*
X6853780Y-18786354D01*
X6868066Y-18772069D01*
X6868066Y-18800640D01*
X7068066Y-18500640D02*
X7096637Y-18500640D01*
X7125209Y-18514926D01*
X7139495Y-18529212D01*
X7153780Y-18557783D01*
X7168066Y-18614926D01*
X7168066Y-18686354D01*
X7153780Y-18743497D01*
X7139495Y-18772069D01*
X7125209Y-18786354D01*
X7096637Y-18800640D01*
X7068066Y-18800640D01*
X7039495Y-18786354D01*
X7025209Y-18772069D01*
X7010923Y-18743497D01*
X6996637Y-18686354D01*
X6996637Y-18614926D01*
X7010923Y-18557783D01*
X7025209Y-18529212D01*
X7039495Y-18514926D01*
X7068066Y-18500640D01*
X7425209Y-18600640D02*
X7425209Y-18800640D01*
X7353780Y-18486354D02*
X7282352Y-18700640D01*
X7468066Y-18700640D01*
X7739495Y-18800640D02*
X7568066Y-18800640D01*
X7653780Y-18800640D02*
X7653780Y-18500640D01*
X7625209Y-18543497D01*
X7596637Y-18572069D01*
X7568066Y-18586354D01*
X7853780Y-18500640D02*
X7853780Y-18557783D01*
X7968066Y-18500640D02*
X7968066Y-18557783D01*
X8410923Y-18914926D02*
X8396638Y-18900640D01*
X8368066Y-18857783D01*
X8353780Y-18829212D01*
X8339495Y-18786354D01*
X8325209Y-18714926D01*
X8325209Y-18657783D01*
X8339495Y-18586354D01*
X8353780Y-18543497D01*
X8368066Y-18514926D01*
X8396638Y-18472069D01*
X8410923Y-18457783D01*
X8668066Y-18500640D02*
X8525209Y-18500640D01*
X8510923Y-18643497D01*
X8525209Y-18629212D01*
X8553780Y-18614926D01*
X8625209Y-18614926D01*
X8653780Y-18629212D01*
X8668066Y-18643497D01*
X8682352Y-18672069D01*
X8682352Y-18743497D01*
X8668066Y-18772069D01*
X8653780Y-18786354D01*
X8625209Y-18800640D01*
X8553780Y-18800640D01*
X8525209Y-18786354D01*
X8510923Y-18772069D01*
X9039495Y-18800640D02*
X9039495Y-18500640D01*
X9168066Y-18800640D02*
X9168066Y-18643497D01*
X9153780Y-18614926D01*
X9125209Y-18600640D01*
X9082352Y-18600640D01*
X9053780Y-18614926D01*
X9039495Y-18629212D01*
X9353780Y-18800640D02*
X9325209Y-18786354D01*
X9310923Y-18772069D01*
X9296638Y-18743497D01*
X9296638Y-18657783D01*
X9310923Y-18629212D01*
X9325209Y-18614926D01*
X9353780Y-18600640D01*
X9396638Y-18600640D01*
X9425209Y-18614926D01*
X9439495Y-18629212D01*
X9453780Y-18657783D01*
X9453780Y-18743497D01*
X9439495Y-18772069D01*
X9425209Y-18786354D01*
X9396638Y-18800640D01*
X9353780Y-18800640D01*
X9625209Y-18800640D02*
X9596638Y-18786354D01*
X9582352Y-18757783D01*
X9582352Y-18500640D01*
X9853780Y-18786354D02*
X9825209Y-18800640D01*
X9768066Y-18800640D01*
X9739495Y-18786354D01*
X9725209Y-18757783D01*
X9725209Y-18643497D01*
X9739495Y-18614926D01*
X9768066Y-18600640D01*
X9825209Y-18600640D01*
X9853780Y-18614926D01*
X9868066Y-18643497D01*
X9868066Y-18672069D01*
X9725209Y-18700640D01*
X9982352Y-18786354D02*
X10010923Y-18800640D01*
X10068066Y-18800640D01*
X10096638Y-18786354D01*
X10110923Y-18757783D01*
X10110923Y-18743497D01*
X10096638Y-18714926D01*
X10068066Y-18700640D01*
X10025209Y-18700640D01*
X9996638Y-18686354D01*
X9982352Y-18657783D01*
X9982352Y-18643497D01*
X9996638Y-18614926D01*
X10025209Y-18600640D01*
X10068066Y-18600640D01*
X10096638Y-18614926D01*
X10210923Y-18914926D02*
X10225209Y-18900640D01*
X10253780Y-18857783D01*
X10268066Y-18829212D01*
X10282352Y-18786354D01*
X10296638Y-18714926D01*
X10296638Y-18657783D01*
X10282352Y-18586354D01*
X10268066Y-18543497D01*
X10253780Y-18514926D01*
X10225209Y-18472069D01*
X10210923Y-18457783D01*
X3614495Y-19005926D02*
X3724495Y-19115926D01*
X3724495Y-19005926D02*
X3614495Y-19115926D01*
X3724495Y-19060926D02*
G75*
G03X3724495Y-19060926I-55000J0D01*
G01*
X4168066Y-19196640D02*
X3996637Y-19196640D01*
X4082352Y-19196640D02*
X4082352Y-18896640D01*
X4053780Y-18939497D01*
X4025209Y-18968069D01*
X3996637Y-18982354D01*
X4296638Y-19168069D02*
X4310923Y-19182354D01*
X4296638Y-19196640D01*
X4282352Y-19182354D01*
X4296638Y-19168069D01*
X4296638Y-19196640D01*
X4596638Y-19196640D02*
X4425209Y-19196640D01*
X4510923Y-19196640D02*
X4510923Y-18896640D01*
X4482352Y-18939497D01*
X4453780Y-18968069D01*
X4425209Y-18982354D01*
X4782352Y-18896640D02*
X4810923Y-18896640D01*
X4839495Y-18910926D01*
X4853780Y-18925212D01*
X4868066Y-18953783D01*
X4882352Y-19010926D01*
X4882352Y-19082354D01*
X4868066Y-19139497D01*
X4853780Y-19168069D01*
X4839495Y-19182354D01*
X4810923Y-19196640D01*
X4782352Y-19196640D01*
X4753780Y-19182354D01*
X4739495Y-19168069D01*
X4725209Y-19139497D01*
X4710923Y-19082354D01*
X4710923Y-19010926D01*
X4725209Y-18953783D01*
X4739495Y-18925212D01*
X4753780Y-18910926D01*
X4782352Y-18896640D01*
X5010923Y-19196640D02*
X5010923Y-18996640D01*
X5010923Y-19025212D02*
X5025209Y-19010926D01*
X5053780Y-18996640D01*
X5096638Y-18996640D01*
X5125209Y-19010926D01*
X5139495Y-19039497D01*
X5139495Y-19196640D01*
X5139495Y-19039497D02*
X5153780Y-19010926D01*
X5182352Y-18996640D01*
X5225209Y-18996640D01*
X5253780Y-19010926D01*
X5268066Y-19039497D01*
X5268066Y-19196640D01*
X5410923Y-19196640D02*
X5410923Y-18996640D01*
X5410923Y-19025212D02*
X5425209Y-19010926D01*
X5453780Y-18996640D01*
X5496638Y-18996640D01*
X5525209Y-19010926D01*
X5539495Y-19039497D01*
X5539495Y-19196640D01*
X5539495Y-19039497D02*
X5553780Y-19010926D01*
X5582352Y-18996640D01*
X5625209Y-18996640D01*
X5653780Y-19010926D01*
X5668066Y-19039497D01*
X5668066Y-19196640D01*
X6253780Y-18882354D02*
X5996637Y-19268069D01*
X6639495Y-18896640D02*
X6668066Y-18896640D01*
X6696637Y-18910926D01*
X6710923Y-18925212D01*
X6725209Y-18953783D01*
X6739495Y-19010926D01*
X6739495Y-19082354D01*
X6725209Y-19139497D01*
X6710923Y-19168069D01*
X6696637Y-19182354D01*
X6668066Y-19196640D01*
X6639495Y-19196640D01*
X6610923Y-19182354D01*
X6596637Y-19168069D01*
X6582352Y-19139497D01*
X6568066Y-19082354D01*
X6568066Y-19010926D01*
X6582352Y-18953783D01*
X6596637Y-18925212D01*
X6610923Y-18910926D01*
X6639495Y-18896640D01*
X6868066Y-19168069D02*
X6882352Y-19182354D01*
X6868066Y-19196640D01*
X6853780Y-19182354D01*
X6868066Y-19168069D01*
X6868066Y-19196640D01*
X7068066Y-18896640D02*
X7096637Y-18896640D01*
X7125209Y-18910926D01*
X7139495Y-18925212D01*
X7153780Y-18953783D01*
X7168066Y-19010926D01*
X7168066Y-19082354D01*
X7153780Y-19139497D01*
X7139495Y-19168069D01*
X7125209Y-19182354D01*
X7096637Y-19196640D01*
X7068066Y-19196640D01*
X7039495Y-19182354D01*
X7025209Y-19168069D01*
X7010923Y-19139497D01*
X6996637Y-19082354D01*
X6996637Y-19010926D01*
X7010923Y-18953783D01*
X7025209Y-18925212D01*
X7039495Y-18910926D01*
X7068066Y-18896640D01*
X7425209Y-18996640D02*
X7425209Y-19196640D01*
X7353780Y-18882354D02*
X7282352Y-19096640D01*
X7468066Y-19096640D01*
X7553780Y-18896640D02*
X7739495Y-18896640D01*
X7639495Y-19010926D01*
X7682352Y-19010926D01*
X7710923Y-19025212D01*
X7725209Y-19039497D01*
X7739495Y-19068069D01*
X7739495Y-19139497D01*
X7725209Y-19168069D01*
X7710923Y-19182354D01*
X7682352Y-19196640D01*
X7596637Y-19196640D01*
X7568066Y-19182354D01*
X7553780Y-19168069D01*
X7853780Y-18896640D02*
X7853780Y-18953783D01*
X7968066Y-18896640D02*
X7968066Y-18953783D01*
X8410923Y-19310926D02*
X8396638Y-19296640D01*
X8368066Y-19253783D01*
X8353780Y-19225212D01*
X8339495Y-19182354D01*
X8325209Y-19110926D01*
X8325209Y-19053783D01*
X8339495Y-18982354D01*
X8353780Y-18939497D01*
X8368066Y-18910926D01*
X8396638Y-18868069D01*
X8410923Y-18853783D01*
X8510923Y-18925212D02*
X8525209Y-18910926D01*
X8553780Y-18896640D01*
X8625209Y-18896640D01*
X8653780Y-18910926D01*
X8668066Y-18925212D01*
X8682352Y-18953783D01*
X8682352Y-18982354D01*
X8668066Y-19025212D01*
X8496638Y-19196640D01*
X8682352Y-19196640D01*
X8939495Y-18996640D02*
X8939495Y-19196640D01*
X8868066Y-18882354D02*
X8796638Y-19096640D01*
X8982352Y-19096640D01*
X9325209Y-19196640D02*
X9325209Y-18896640D01*
X9453780Y-19196640D02*
X9453780Y-19039497D01*
X9439495Y-19010926D01*
X9410923Y-18996640D01*
X9368066Y-18996640D01*
X9339495Y-19010926D01*
X9325209Y-19025212D01*
X9639495Y-19196640D02*
X9610923Y-19182354D01*
X9596638Y-19168069D01*
X9582352Y-19139497D01*
X9582352Y-19053783D01*
X9596638Y-19025212D01*
X9610923Y-19010926D01*
X9639495Y-18996640D01*
X9682352Y-18996640D01*
X9710923Y-19010926D01*
X9725209Y-19025212D01*
X9739495Y-19053783D01*
X9739495Y-19139497D01*
X9725209Y-19168069D01*
X9710923Y-19182354D01*
X9682352Y-19196640D01*
X9639495Y-19196640D01*
X9910923Y-19196640D02*
X9882352Y-19182354D01*
X9868066Y-19153783D01*
X9868066Y-18896640D01*
X10139495Y-19182354D02*
X10110923Y-19196640D01*
X10053780Y-19196640D01*
X10025209Y-19182354D01*
X10010923Y-19153783D01*
X10010923Y-19039497D01*
X10025209Y-19010926D01*
X10053780Y-18996640D01*
X10110923Y-18996640D01*
X10139495Y-19010926D01*
X10153780Y-19039497D01*
X10153780Y-19068069D01*
X10010923Y-19096640D01*
X10268066Y-19182354D02*
X10296638Y-19196640D01*
X10353780Y-19196640D01*
X10382352Y-19182354D01*
X10396638Y-19153783D01*
X10396638Y-19139497D01*
X10382352Y-19110926D01*
X10353780Y-19096640D01*
X10310923Y-19096640D01*
X10282352Y-19082354D01*
X10268066Y-19053783D01*
X10268066Y-19039497D01*
X10282352Y-19010926D01*
X10310923Y-18996640D01*
X10353780Y-18996640D01*
X10382352Y-19010926D01*
X10496638Y-19310926D02*
X10510923Y-19296640D01*
X10539495Y-19253783D01*
X10553780Y-19225212D01*
X10568066Y-19182354D01*
X10582352Y-19110926D01*
X10582352Y-19053783D01*
X10568066Y-18982354D01*
X10553780Y-18939497D01*
X10539495Y-18910926D01*
X10510923Y-18868069D01*
X10496638Y-18853783D01*
M02*
