M48
; DRILL file {KiCad (5.1.4)-1} date 10/4/2023 8:41:28 PM
; FORMAT={-:-/ absolute / metric / decimal}
; #@! TF.CreationDate,2023-10-04T20:41:28-04:00
; #@! TF.GenerationSoftware,Kicad,Pcbnew,(5.1.4)-1
; #@! TF.FileFunction,Plated,1,2,PTH
FMAT,2
METRIC
T1C0.400
T2C0.750
T3C0.800
T4C1.000
T5C1.050
T6C1.100
%
G90
G05
T1
X-413.45Y-283.35
X-412.7Y-285.9
X-390.7Y-278.55
X-383.65Y-289.1
X-379.2Y-289.05
X-378.85Y-298.0
X-376.85Y-304.2
X-376.3Y-297.9
X-373.55Y-283.95
X-367.3Y-266.15
X-366.75Y-270.6
X-366.123Y-311.904
X-363.7Y-312.1
X-361.4Y-297.7
X-361.25Y-312.2
X-359.95Y-249.5
X-359.45Y-254.5
X-359.2Y-241.9
X-358.75Y-312.15
X-358.7Y-297.9
X-356.25Y-312.2
X-356.0Y-297.8
X-353.75Y-312.3
X-353.5Y-297.8
X-352.1Y-236.9
X-352.05Y-229.8
X-351.227Y-223.137
X-350.9Y-297.7
X-348.3Y-297.8
X-345.8Y-297.9
X-343.1Y-297.9
X-342.95Y-259.95
X-339.53Y-247.866
X-339.4Y-236.6
X-339.1Y-272.1
X-339.1Y-274.6
X-339.1Y-277.1
X-339.0Y-279.6
X-339.0Y-282.1
X-339.0Y-284.6
X-339.0Y-287.1
X-339.0Y-289.6
X-339.0Y-292.05
X-337.717Y-239.98
X-336.55Y-239.9
X-336.527Y-240.95
X-336.403Y-238.506
X-333.4Y-295.2
X-333.4Y-304.3
X-329.55Y-320.3
X-329.297Y-310.577
X-328.75Y-313.7
X-327.68Y-312.934
X-326.879Y-315.048
X-326.809Y-316.046
X-325.782Y-312.207
X-325.182Y-311.407
X-321.36Y-307.16
X-321.36Y-321.16
X-316.942Y-308.2
X-316.942Y-310.953
X-316.927Y-304.9
X-305.956Y-284.353
X-305.956Y-286.817
X-305.943Y-277.152
X-305.918Y-291.897
X-305.9Y-301.9
X-305.892Y-281.94
X-305.88Y-279.54
X-305.88Y-289.369
X-305.867Y-274.739
X-305.867Y-296.875
X-305.85Y-304.35
X-305.8Y-299.4
X-305.714Y-272.301
X-305.625Y-294.462
X-305.6Y-269.545
X-302.4Y-320.3
X-298.4Y-296.7
X-295.5Y-296.7
X-295.484Y-223.488
X-292.7Y-296.8
X-291.313Y-235.737
X-290.3Y-296.3
X-287.1Y-296.6
X-285.4Y-305.15
X-284.3Y-249.0
X-284.3Y-296.6
X-283.373Y-305.147
X-281.5Y-296.7
X-280.725Y-221.775
X-278.7Y-296.8
X-276.75Y-280.45
X-275.8Y-296.7
X-273.1Y-238.8
X-273.1Y-296.4
X-270.2Y-296.5
X-267.1Y-247.5
X-264.0Y-285.0
X-260.5Y-295.95
X-260.5Y-304.05
X-258.8Y-273.8
X-258.5Y-295.2
X-258.45Y-302.85
X-256.55Y-293.8
X-233.28Y-276.62
X-213.79Y-277.11
T2
X-326.65Y-324.6
T3
X-330.65Y-324.6
X-328.65Y-324.6
T4
X-360.351Y-210.249
X-357.996Y-211.2
X-355.641Y-212.152
X-353.286Y-213.103
X-332.65Y-324.6
X-324.65Y-324.6
X-211.916Y-272.09
X-210.965Y-274.445
X-210.013Y-276.8
X-209.062Y-279.155
X-262.531Y-307.49
X-260.503Y-305.961
X-258.474Y-304.432
X-256.446Y-302.904
X-383.558Y-262.349
X-381.203Y-263.301
X-378.848Y-264.252
X-376.493Y-265.204
X-323.9Y-284.25
X-321.36Y-284.25
X-292.501Y-213.102
X-290.146Y-212.151
X-287.791Y-211.199
X-285.436Y-210.248
X-387.486Y-304.164
X-385.457Y-305.693
X-383.429Y-307.221
X-381.4Y-308.75
X-289.586Y-327.586
X-287.557Y-326.057
X-285.529Y-324.529
X-283.5Y-323.0
X-352.486Y-327.838
X-350.957Y-325.81
X-349.428Y-323.781
X-347.9Y-321.752
X-362.5Y-323.0
X-360.471Y-324.529
X-358.443Y-326.057
X-356.414Y-327.586
X-297.897Y-321.753
X-296.369Y-323.782
X-294.84Y-325.81
X-293.311Y-327.839
X-436.805Y-279.365
X-435.853Y-277.01
X-434.902Y-274.655
X-433.95Y-272.3
X-269.294Y-265.202
X-266.939Y-264.251
X-264.584Y-263.299
X-262.229Y-262.348
X-283.529Y-229.969
X-281.174Y-229.018
X-278.819Y-228.066
X-276.464Y-227.115
X-369.323Y-227.116
X-366.968Y-228.068
X-364.613Y-229.019
X-362.258Y-229.971
X-276.412Y-247.586
X-274.057Y-246.634
X-271.702Y-245.683
X-269.347Y-244.731
X-376.441Y-244.733
X-374.086Y-245.684
X-371.731Y-246.636
X-369.375Y-247.587
X-322.9Y-253.25
X-322.9Y-255.79
X-322.9Y-258.33
X-322.9Y-260.87
T5
X-315.1Y-323.45
X-315.1Y-327.95
X-311.85Y-321.2
X-308.6Y-323.45
X-308.6Y-327.95
T6
X-330.14Y-249.25
X-330.14Y-251.79
X-330.14Y-254.33
X-330.14Y-256.87
X-330.14Y-259.41
X-330.14Y-261.95
X-330.14Y-264.49
X-330.14Y-267.03
X-330.14Y-269.57
X-330.14Y-272.11
X-330.14Y-274.65
X-330.14Y-277.19
X-314.9Y-249.25
X-314.9Y-251.79
X-314.9Y-254.33
X-314.9Y-256.87
X-314.9Y-259.41
X-314.9Y-261.95
X-314.9Y-264.49
X-314.9Y-267.03
X-314.9Y-269.57
X-314.9Y-272.11
X-314.9Y-274.65
X-314.9Y-277.19
T0
M30
