M48
; DRILL file {KiCad (5.1.4)-1} date 11/5/2023 6:20:01 PM
; FORMAT={-:-/ absolute / metric / decimal}
; #@! TF.CreationDate,2023-11-05T18:20:01-05:00
; #@! TF.GenerationSoftware,Kicad,Pcbnew,(5.1.4)-1
; #@! TF.FileFunction,Plated,1,2,PTH
FMAT,2
METRIC
T1C0.400
T2C0.750
T3C0.800
T4C1.000
T5C1.050
T6C1.100
%
G90
G05
T1
X52.68Y-103.32
X53.43Y-105.87
X75.43Y-98.52
X82.48Y-109.07
X86.93Y-109.02
X87.28Y-117.97
X89.28Y-124.17
X89.83Y-117.87
X92.58Y-103.92
X98.83Y-86.12
X99.38Y-90.57
X100.007Y-131.874
X102.43Y-132.07
X104.73Y-117.67
X104.88Y-132.17
X106.18Y-69.47
X106.68Y-74.47
X106.93Y-61.87
X107.38Y-132.12
X107.43Y-117.87
X109.88Y-132.17
X110.13Y-117.77
X112.38Y-132.27
X112.63Y-117.77
X114.03Y-56.87
X114.08Y-49.77
X114.903Y-43.107
X115.23Y-117.67
X117.83Y-117.77
X120.33Y-117.87
X123.03Y-117.87
X123.18Y-79.92
X126.6Y-67.836
X126.73Y-56.57
X127.03Y-92.07
X127.03Y-94.57
X127.03Y-97.07
X127.13Y-99.57
X127.13Y-102.07
X127.13Y-104.57
X127.13Y-107.07
X127.13Y-109.57
X127.13Y-112.02
X128.413Y-59.95
X129.58Y-59.87
X129.603Y-60.92
X129.727Y-58.476
X132.73Y-115.17
X132.73Y-124.27
X136.58Y-140.27
X136.833Y-130.547
X137.38Y-133.67
X138.45Y-132.904
X139.251Y-135.018
X139.321Y-136.016
X140.348Y-132.177
X140.948Y-131.377
X144.77Y-127.13
X144.77Y-141.13
X149.188Y-128.17
X149.188Y-130.923
X149.203Y-124.87
X160.174Y-104.323
X160.174Y-106.787
X160.187Y-97.122
X160.212Y-111.867
X160.23Y-121.87
X160.238Y-101.91
X160.25Y-99.51
X160.25Y-109.34
X160.263Y-94.709
X160.263Y-116.845
X160.28Y-124.32
X160.33Y-119.37
X160.416Y-92.271
X160.504Y-114.432
X160.53Y-89.515
X163.73Y-140.27
X167.73Y-116.67
X170.63Y-116.67
X170.646Y-43.458
X173.43Y-116.77
X174.817Y-55.707
X175.83Y-116.27
X180.334Y-117.874
X180.73Y-125.12
X181.83Y-68.97
X182.055Y-116.795
X182.757Y-125.117
X184.63Y-116.67
X185.405Y-41.745
X187.43Y-116.77
X189.38Y-100.42
X190.33Y-116.67
X193.03Y-58.77
X193.03Y-116.37
X195.93Y-116.47
X199.03Y-67.47
X202.13Y-104.97
X205.63Y-115.92
X205.63Y-124.02
X207.33Y-93.77
X207.63Y-115.17
X207.68Y-122.82
X209.58Y-113.77
X232.85Y-96.59
X252.34Y-97.08
T2
X139.48Y-144.57
T3
X135.48Y-144.57
X137.48Y-144.57
T4
X133.48Y-144.57
X141.48Y-144.57
X168.233Y-141.723
X169.761Y-143.752
X171.29Y-145.78
X172.819Y-147.809
X189.718Y-67.556
X192.073Y-66.604
X194.428Y-65.653
X196.783Y-64.701
X89.689Y-64.703
X92.044Y-65.654
X94.399Y-66.606
X96.755Y-67.557
X78.644Y-124.134
X80.673Y-125.663
X82.701Y-127.191
X84.73Y-128.72
X142.23Y-104.22
X144.77Y-104.22
X196.836Y-85.172
X199.191Y-84.221
X201.546Y-83.269
X203.901Y-82.318
X182.601Y-49.939
X184.956Y-48.988
X187.311Y-48.036
X189.666Y-47.085
X113.644Y-147.808
X115.173Y-145.78
X116.702Y-143.751
X118.23Y-141.722
X105.779Y-30.219
X108.134Y-31.17
X110.489Y-32.122
X112.844Y-33.073
X173.629Y-33.072
X175.984Y-32.121
X178.339Y-31.169
X180.694Y-30.218
X29.325Y-99.335
X30.277Y-96.98
X31.228Y-94.625
X32.18Y-92.27
X103.63Y-142.97
X105.659Y-144.499
X107.687Y-146.027
X109.716Y-147.556
X143.23Y-73.22
X143.23Y-75.76
X143.23Y-78.3
X143.23Y-80.84
X176.544Y-147.556
X178.573Y-146.027
X180.601Y-144.499
X182.63Y-142.97
X82.572Y-82.319
X84.927Y-83.271
X87.282Y-84.222
X89.637Y-85.174
X96.807Y-47.086
X99.162Y-48.038
X101.517Y-48.989
X103.872Y-49.941
X254.214Y-92.06
X255.165Y-94.415
X256.117Y-96.77
X257.068Y-99.125
X203.599Y-127.46
X205.627Y-125.931
X207.656Y-124.402
X209.684Y-122.874
T5
X151.03Y-143.42
X151.03Y-147.92
X154.28Y-141.17
X157.53Y-143.42
X157.53Y-147.92
T6
X135.99Y-69.22
X135.99Y-71.76
X135.99Y-74.3
X135.99Y-76.84
X135.99Y-79.38
X135.99Y-81.92
X135.99Y-84.46
X135.99Y-87.0
X135.99Y-89.54
X135.99Y-92.08
X135.99Y-94.62
X135.99Y-97.16
X151.23Y-69.22
X151.23Y-71.76
X151.23Y-74.3
X151.23Y-76.84
X151.23Y-79.38
X151.23Y-81.92
X151.23Y-84.46
X151.23Y-87.0
X151.23Y-89.54
X151.23Y-92.08
X151.23Y-94.62
X151.23Y-97.16
T0
M30
