M48
; DRILL file {KiCad (5.1.4)-1} date 11/5/2023 6:20:01 PM
; FORMAT={-:-/ absolute / metric / decimal}
; #@! TF.CreationDate,2023-11-05T18:20:01-05:00
; #@! TF.GenerationSoftware,Kicad,Pcbnew,(5.1.4)-1
; #@! TF.FileFunction,NonPlated,1,2,NPTH
FMAT,2
METRIC
T1C1.702
T2C2.950
T3C3.000
T4C4.950
%
G90
G05
T1
X86.662Y-73.742
X96.861Y-77.863
X239.152Y-98.814
X249.351Y-94.693
X219.663Y-101.295
X229.862Y-97.175
X182.567Y-60.199
X192.766Y-56.078
X164.576Y-66.389
X174.775Y-62.269
X37.092Y-94.699
X47.291Y-98.82
X104.551Y-79.891
X114.75Y-84.012
X196.802Y-95.432
X207.001Y-91.311
X79.442Y-91.317
X89.641Y-95.438
X175.449Y-42.583
X185.648Y-38.462
X178.811Y-101.622
X189.01Y-97.502
X118.786Y-44.658
X128.985Y-48.779
X171.693Y-84.006
X181.892Y-79.885
X93.779Y-56.126
X103.978Y-60.246
X111.668Y-62.275
X121.867Y-66.396
X100.897Y-38.509
X111.096Y-42.63
X189.684Y-77.816
X199.883Y-73.695
X157.458Y-48.773
X167.657Y-44.652
X56.581Y-97.181
X66.78Y-101.301
X97.433Y-97.508
X107.632Y-101.629
T2
X174.474Y-87.952
X181.357Y-86.303
X93.038Y-60.896
X99.135Y-64.491
X110.928Y-67.045
X117.025Y-70.64
X100.156Y-43.279
X106.253Y-46.875
X192.465Y-81.761
X199.348Y-80.113
X160.239Y-52.719
X167.122Y-51.07
X55.84Y-101.95
X61.937Y-105.546
X96.693Y-102.278
X102.79Y-105.873
X85.921Y-78.512
X92.018Y-82.108
X241.933Y-102.759
X248.816Y-101.111
X222.443Y-105.241
X229.327Y-103.592
X185.347Y-64.145
X192.231Y-62.496
X167.356Y-70.335
X174.24Y-68.686
X36.351Y-99.469
X42.448Y-103.065
X103.81Y-84.661
X109.907Y-88.257
X199.582Y-99.378
X206.466Y-97.729
X78.701Y-96.087
X84.798Y-99.683
X178.23Y-46.528
X185.113Y-44.88
X181.591Y-105.568
X188.475Y-103.919
X118.045Y-49.428
X124.142Y-53.024
T3
X174.564Y-76.429
X180.024Y-76.596
X101.108Y-52.669
X104.919Y-56.582
X118.997Y-58.818
X122.809Y-62.731
X108.225Y-35.053
X112.037Y-38.966
X192.555Y-70.239
X198.015Y-70.405
X160.329Y-41.196
X165.789Y-41.363
X63.91Y-93.724
X67.721Y-97.637
X104.762Y-94.051
X108.574Y-97.964
X93.99Y-70.286
X97.802Y-74.199
X242.023Y-91.236
X247.483Y-91.403
X222.533Y-93.718
X227.993Y-93.885
X185.437Y-52.622
X190.897Y-52.789
X167.446Y-58.812
X172.906Y-58.979
X44.42Y-91.243
X48.232Y-95.155
X111.879Y-76.435
X115.691Y-80.348
X199.672Y-87.855
X205.132Y-88.022
X86.771Y-87.861
X90.582Y-91.774
X178.32Y-35.006
X183.78Y-35.172
X181.681Y-94.045
X187.141Y-94.212
X126.114Y-41.202
X129.926Y-45.115
T4
X244.252Y-96.753
X224.762Y-99.235
X187.666Y-58.139
X169.675Y-64.329
X42.191Y-96.759
X109.65Y-81.952
X201.901Y-93.372
X84.542Y-93.378
X180.549Y-40.522
X183.91Y-99.562
X123.885Y-46.719
X176.793Y-81.946
X98.879Y-58.186
X116.768Y-64.335
X105.996Y-40.57
X194.784Y-75.755
X162.558Y-46.713
X61.681Y-99.241
X102.533Y-99.568
X91.761Y-75.803
T0
M30
