M48
; DRILL file {KiCad (5.1.4)-1} date 10/4/2023 8:41:28 PM
; FORMAT={-:-/ absolute / metric / decimal}
; #@! TF.CreationDate,2023-10-04T20:41:28-04:00
; #@! TF.GenerationSoftware,Kicad,Pcbnew,(5.1.4)-1
; #@! TF.FileFunction,NonPlated,1,2,NPTH
FMAT,2
METRIC
T1C1.702
T2C2.950
T3C3.000
T4C5.050
%
G90
G05
T1
X-429.038Y-274.729
X-418.839Y-278.85
X-269.328Y-275.462
X-259.129Y-271.341
X-354.462Y-242.305
X-344.263Y-246.426
X-365.233Y-218.539
X-355.034Y-222.66
X-372.351Y-236.156
X-362.152Y-240.276
X-294.437Y-264.036
X-284.238Y-259.915
X-386.688Y-271.347
X-376.489Y-275.468
X-379.468Y-253.772
X-369.269Y-257.893
X-290.681Y-222.613
X-280.482Y-218.492
X-301.554Y-246.419
X-291.355Y-242.299
X-246.467Y-281.325
X-236.268Y-277.205
X-361.579Y-259.921
X-351.38Y-264.042
X-283.563Y-240.229
X-273.364Y-236.108
X-308.672Y-228.803
X-298.473Y-224.682
X-226.978Y-278.844
X-216.779Y-274.723
X-368.697Y-277.538
X-358.498Y-281.659
X-409.549Y-277.211
X-399.35Y-281.331
X-276.446Y-257.846
X-266.247Y-253.725
X-287.319Y-281.652
X-277.12Y-277.532
X-347.344Y-224.688
X-337.145Y-228.809
T2
X-266.938Y-279.242
X-259.664Y-277.759
X-355.368Y-246.684
X-349.105Y-250.67
X-366.14Y-222.919
X-359.877Y-226.905
X-373.257Y-240.535
X-366.995Y-244.521
X-292.047Y-267.816
X-284.773Y-266.333
X-387.594Y-275.727
X-381.332Y-279.713
X-380.375Y-258.152
X-374.112Y-262.138
X-288.291Y-226.393
X-281.017Y-224.91
X-299.164Y-250.199
X-291.89Y-248.716
X-244.077Y-285.105
X-236.803Y-283.622
X-362.486Y-264.301
X-356.223Y-268.287
X-281.173Y-244.009
X-273.899Y-242.526
X-306.282Y-232.583
X-299.008Y-231.1
X-224.588Y-282.624
X-217.314Y-281.141
X-369.603Y-281.917
X-363.34Y-285.903
X-410.455Y-281.59
X-404.193Y-285.576
X-274.056Y-261.626
X-266.782Y-260.143
X-284.929Y-285.432
X-277.655Y-283.949
X-348.251Y-229.068
X-341.988Y-233.054
X-429.945Y-279.108
X-423.682Y-283.095
T3
X-372.14Y-250.316
X-368.328Y-254.229
X-287.81Y-215.036
X-282.35Y-215.202
X-298.684Y-238.842
X-293.224Y-239.009
X-243.597Y-273.748
X-238.137Y-273.915
X-354.251Y-256.465
X-350.439Y-260.378
X-280.693Y-232.652
X-275.233Y-232.819
X-305.801Y-221.226
X-300.341Y-221.393
X-224.107Y-271.266
X-218.647Y-271.433
X-361.368Y-274.081
X-357.556Y-277.994
X-402.22Y-273.754
X-398.409Y-277.667
X-273.575Y-250.269
X-268.115Y-250.435
X-284.449Y-274.075
X-278.989Y-274.242
X-340.016Y-221.232
X-336.204Y-225.145
X-421.71Y-271.273
X-417.898Y-275.185
X-266.458Y-267.885
X-260.998Y-268.052
X-347.133Y-238.848
X-343.321Y-242.761
X-357.905Y-215.083
X-354.093Y-218.996
X-365.022Y-232.699
X-361.211Y-236.612
X-291.566Y-256.459
X-286.106Y-256.626
X-379.359Y-267.891
X-375.548Y-271.804
T4
X-303.572Y-226.743
X-221.878Y-276.783
X-363.597Y-279.598
X-404.449Y-279.271
X-271.346Y-255.785
X-282.22Y-279.592
X-342.245Y-226.749
X-423.939Y-276.789
X-264.229Y-273.402
X-349.362Y-244.365
X-360.134Y-220.6
X-367.251Y-238.216
X-289.337Y-261.976
X-381.588Y-273.408
X-374.369Y-255.833
X-285.581Y-220.552
X-296.455Y-244.359
X-241.368Y-279.265
X-356.48Y-261.982
X-278.464Y-238.169
T0
M30
