G04 #@! TF.GenerationSoftware,KiCad,Pcbnew,(5.1.4)-1*
G04 #@! TF.CreationDate,2023-10-04T20:41:25-04:00*
G04 #@! TF.ProjectId,ThumbsUp,5468756d-6273-4557-902e-6b696361645f,rev?*
G04 #@! TF.SameCoordinates,Original*
G04 #@! TF.FileFunction,Copper,L2,Bot*
G04 #@! TF.FilePolarity,Positive*
%FSLAX46Y46*%
G04 Gerber Fmt 4.6, Leading zero omitted, Abs format (unit mm)*
G04 Created by KiCad (PCBNEW (5.1.4)-1) date 2023-10-04 20:41:25*
%MOMM*%
%LPD*%
G04 APERTURE LIST*
%ADD10R,0.900000X1.200000*%
%ADD11R,1.200000X0.900000*%
%ADD12C,0.100000*%
%ADD13C,0.975000*%
%ADD14C,1.700000*%
%ADD15C,1.700000*%
%ADD16C,1.300000*%
%ADD17C,1.200000*%
%ADD18C,1.500000*%
%ADD19R,1.700000X1.700000*%
%ADD20O,1.700000X1.700000*%
%ADD21C,1.575000*%
%ADD22C,2.600000*%
%ADD23C,3.000000*%
%ADD24C,2.500000*%
%ADD25C,2.000000*%
%ADD26R,1.600000X1.600000*%
%ADD27C,1.600000*%
%ADD28C,0.800000*%
%ADD29C,0.508000*%
%ADD30C,0.254000*%
G04 APERTURE END LIST*
D10*
X-306900000Y-274750000D03*
X-310200000Y-274750000D03*
D11*
X-356050000Y-298950000D03*
X-356050000Y-302250000D03*
X-358650000Y-298950000D03*
X-358650000Y-302250000D03*
D10*
X-338023500Y-272157400D03*
X-334723500Y-272157400D03*
D11*
X-275876930Y-297800000D03*
X-275876930Y-301100000D03*
X-366595455Y-298950000D03*
X-366595455Y-302250000D03*
D10*
X-306900000Y-291900000D03*
X-310200000Y-291900000D03*
D11*
X-363677267Y-311200000D03*
X-363677267Y-307900000D03*
D10*
X-306900000Y-304350000D03*
X-310200000Y-304350000D03*
D11*
X-298350000Y-297800000D03*
X-298350000Y-301100000D03*
X-281434620Y-297800000D03*
X-281434620Y-301100000D03*
X-371486363Y-298950000D03*
X-371486363Y-302250000D03*
D10*
X-338023500Y-294597400D03*
X-334723500Y-294597400D03*
D11*
X-270238470Y-297800000D03*
X-270238470Y-301100000D03*
D10*
X-338023500Y-282104064D03*
X-334723500Y-282104064D03*
X-306900000Y-299400000D03*
X-310200000Y-299400000D03*
D11*
X-289892310Y-297800000D03*
X-289892310Y-301100000D03*
D10*
X-306900000Y-301862500D03*
X-310200000Y-301862500D03*
D11*
X-358786359Y-311200000D03*
X-358786359Y-307900000D03*
X-366122730Y-311200000D03*
X-366122730Y-307900000D03*
X-373931817Y-298950000D03*
X-373931817Y-302250000D03*
D10*
X-338023500Y-292107400D03*
X-334723500Y-292107400D03*
D11*
X-376377271Y-298950000D03*
X-376377271Y-302250000D03*
X-350900000Y-298950000D03*
X-350900000Y-302250000D03*
X-345700000Y-298950000D03*
X-345700000Y-302250000D03*
X-348300000Y-298950000D03*
X-348300000Y-302250000D03*
X-343100000Y-298950000D03*
X-343100000Y-302250000D03*
X-361250000Y-298950000D03*
X-361250000Y-302250000D03*
X-353450000Y-298950000D03*
X-353450000Y-302250000D03*
X-369040909Y-298950000D03*
X-369040909Y-302250000D03*
X-361231813Y-311200000D03*
X-361231813Y-307900000D03*
X-378822725Y-298950000D03*
X-378822725Y-302250000D03*
D10*
X-338023500Y-287107400D03*
X-334723500Y-287107400D03*
X-306900000Y-272300000D03*
X-310200000Y-272300000D03*
X-306900000Y-296900000D03*
X-310200000Y-296900000D03*
D11*
X-267719240Y-297800000D03*
X-267719240Y-301100000D03*
X-264900000Y-297800000D03*
X-264900000Y-301100000D03*
D10*
X-306900000Y-294400000D03*
X-310200000Y-294400000D03*
X-306900000Y-289400000D03*
X-310200000Y-289400000D03*
X-306900000Y-286850000D03*
X-310200000Y-286850000D03*
D11*
X-292711540Y-297800000D03*
X-292711540Y-301100000D03*
X-295530770Y-297800000D03*
X-295530770Y-301100000D03*
X-278615390Y-297800000D03*
X-278615390Y-301100000D03*
X-284253850Y-297800000D03*
X-284253850Y-301100000D03*
X-287073080Y-297800000D03*
X-287073080Y-301100000D03*
X-273057700Y-297800000D03*
X-273057700Y-301100000D03*
D10*
X-338023500Y-284602952D03*
X-334723500Y-284602952D03*
X-338023500Y-279605176D03*
X-334723500Y-279605176D03*
X-338023500Y-274657400D03*
X-334723500Y-274657400D03*
X-306900000Y-269850000D03*
X-310200000Y-269850000D03*
D11*
X-353750000Y-311200000D03*
X-353750000Y-307900000D03*
D10*
X-306900000Y-284400000D03*
X-310200000Y-284400000D03*
D11*
X-356250000Y-311200000D03*
X-356250000Y-307900000D03*
D10*
X-306900000Y-281950000D03*
X-310200000Y-281950000D03*
X-306900000Y-279550000D03*
X-310200000Y-279550000D03*
X-338023500Y-289607400D03*
X-334723500Y-289607400D03*
X-306900000Y-277150000D03*
X-310200000Y-277150000D03*
X-338023500Y-277106288D03*
X-334723500Y-277106288D03*
D12*
G36*
X-303869858Y-318501174D02*
G01*
X-303846197Y-318504684D01*
X-303822993Y-318510496D01*
X-303800471Y-318518554D01*
X-303778847Y-318528782D01*
X-303758330Y-318541079D01*
X-303739117Y-318555329D01*
X-303721393Y-318571393D01*
X-303705329Y-318589117D01*
X-303691079Y-318608330D01*
X-303678782Y-318628847D01*
X-303668554Y-318650471D01*
X-303660496Y-318672993D01*
X-303654684Y-318696197D01*
X-303651174Y-318719858D01*
X-303650000Y-318743750D01*
X-303650000Y-319231250D01*
X-303651174Y-319255142D01*
X-303654684Y-319278803D01*
X-303660496Y-319302007D01*
X-303668554Y-319324529D01*
X-303678782Y-319346153D01*
X-303691079Y-319366670D01*
X-303705329Y-319385883D01*
X-303721393Y-319403607D01*
X-303739117Y-319419671D01*
X-303758330Y-319433921D01*
X-303778847Y-319446218D01*
X-303800471Y-319456446D01*
X-303822993Y-319464504D01*
X-303846197Y-319470316D01*
X-303869858Y-319473826D01*
X-303893750Y-319475000D01*
X-304806250Y-319475000D01*
X-304830142Y-319473826D01*
X-304853803Y-319470316D01*
X-304877007Y-319464504D01*
X-304899529Y-319456446D01*
X-304921153Y-319446218D01*
X-304941670Y-319433921D01*
X-304960883Y-319419671D01*
X-304978607Y-319403607D01*
X-304994671Y-319385883D01*
X-305008921Y-319366670D01*
X-305021218Y-319346153D01*
X-305031446Y-319324529D01*
X-305039504Y-319302007D01*
X-305045316Y-319278803D01*
X-305048826Y-319255142D01*
X-305050000Y-319231250D01*
X-305050000Y-318743750D01*
X-305048826Y-318719858D01*
X-305045316Y-318696197D01*
X-305039504Y-318672993D01*
X-305031446Y-318650471D01*
X-305021218Y-318628847D01*
X-305008921Y-318608330D01*
X-304994671Y-318589117D01*
X-304978607Y-318571393D01*
X-304960883Y-318555329D01*
X-304941670Y-318541079D01*
X-304921153Y-318528782D01*
X-304899529Y-318518554D01*
X-304877007Y-318510496D01*
X-304853803Y-318504684D01*
X-304830142Y-318501174D01*
X-304806250Y-318500000D01*
X-303893750Y-318500000D01*
X-303869858Y-318501174D01*
X-303869858Y-318501174D01*
G37*
D13*
X-304350000Y-318987500D03*
D12*
G36*
X-303869858Y-316626174D02*
G01*
X-303846197Y-316629684D01*
X-303822993Y-316635496D01*
X-303800471Y-316643554D01*
X-303778847Y-316653782D01*
X-303758330Y-316666079D01*
X-303739117Y-316680329D01*
X-303721393Y-316696393D01*
X-303705329Y-316714117D01*
X-303691079Y-316733330D01*
X-303678782Y-316753847D01*
X-303668554Y-316775471D01*
X-303660496Y-316797993D01*
X-303654684Y-316821197D01*
X-303651174Y-316844858D01*
X-303650000Y-316868750D01*
X-303650000Y-317356250D01*
X-303651174Y-317380142D01*
X-303654684Y-317403803D01*
X-303660496Y-317427007D01*
X-303668554Y-317449529D01*
X-303678782Y-317471153D01*
X-303691079Y-317491670D01*
X-303705329Y-317510883D01*
X-303721393Y-317528607D01*
X-303739117Y-317544671D01*
X-303758330Y-317558921D01*
X-303778847Y-317571218D01*
X-303800471Y-317581446D01*
X-303822993Y-317589504D01*
X-303846197Y-317595316D01*
X-303869858Y-317598826D01*
X-303893750Y-317600000D01*
X-304806250Y-317600000D01*
X-304830142Y-317598826D01*
X-304853803Y-317595316D01*
X-304877007Y-317589504D01*
X-304899529Y-317581446D01*
X-304921153Y-317571218D01*
X-304941670Y-317558921D01*
X-304960883Y-317544671D01*
X-304978607Y-317528607D01*
X-304994671Y-317510883D01*
X-305008921Y-317491670D01*
X-305021218Y-317471153D01*
X-305031446Y-317449529D01*
X-305039504Y-317427007D01*
X-305045316Y-317403803D01*
X-305048826Y-317380142D01*
X-305050000Y-317356250D01*
X-305050000Y-316868750D01*
X-305048826Y-316844858D01*
X-305045316Y-316821197D01*
X-305039504Y-316797993D01*
X-305031446Y-316775471D01*
X-305021218Y-316753847D01*
X-305008921Y-316733330D01*
X-304994671Y-316714117D01*
X-304978607Y-316696393D01*
X-304960883Y-316680329D01*
X-304941670Y-316666079D01*
X-304921153Y-316653782D01*
X-304899529Y-316643554D01*
X-304877007Y-316635496D01*
X-304853803Y-316629684D01*
X-304830142Y-316626174D01*
X-304806250Y-316625000D01*
X-303893750Y-316625000D01*
X-303869858Y-316626174D01*
X-303869858Y-316626174D01*
G37*
D13*
X-304350000Y-317112500D03*
D12*
G36*
X-301869858Y-316613674D02*
G01*
X-301846197Y-316617184D01*
X-301822993Y-316622996D01*
X-301800471Y-316631054D01*
X-301778847Y-316641282D01*
X-301758330Y-316653579D01*
X-301739117Y-316667829D01*
X-301721393Y-316683893D01*
X-301705329Y-316701617D01*
X-301691079Y-316720830D01*
X-301678782Y-316741347D01*
X-301668554Y-316762971D01*
X-301660496Y-316785493D01*
X-301654684Y-316808697D01*
X-301651174Y-316832358D01*
X-301650000Y-316856250D01*
X-301650000Y-317343750D01*
X-301651174Y-317367642D01*
X-301654684Y-317391303D01*
X-301660496Y-317414507D01*
X-301668554Y-317437029D01*
X-301678782Y-317458653D01*
X-301691079Y-317479170D01*
X-301705329Y-317498383D01*
X-301721393Y-317516107D01*
X-301739117Y-317532171D01*
X-301758330Y-317546421D01*
X-301778847Y-317558718D01*
X-301800471Y-317568946D01*
X-301822993Y-317577004D01*
X-301846197Y-317582816D01*
X-301869858Y-317586326D01*
X-301893750Y-317587500D01*
X-302806250Y-317587500D01*
X-302830142Y-317586326D01*
X-302853803Y-317582816D01*
X-302877007Y-317577004D01*
X-302899529Y-317568946D01*
X-302921153Y-317558718D01*
X-302941670Y-317546421D01*
X-302960883Y-317532171D01*
X-302978607Y-317516107D01*
X-302994671Y-317498383D01*
X-303008921Y-317479170D01*
X-303021218Y-317458653D01*
X-303031446Y-317437029D01*
X-303039504Y-317414507D01*
X-303045316Y-317391303D01*
X-303048826Y-317367642D01*
X-303050000Y-317343750D01*
X-303050000Y-316856250D01*
X-303048826Y-316832358D01*
X-303045316Y-316808697D01*
X-303039504Y-316785493D01*
X-303031446Y-316762971D01*
X-303021218Y-316741347D01*
X-303008921Y-316720830D01*
X-302994671Y-316701617D01*
X-302978607Y-316683893D01*
X-302960883Y-316667829D01*
X-302941670Y-316653579D01*
X-302921153Y-316641282D01*
X-302899529Y-316631054D01*
X-302877007Y-316622996D01*
X-302853803Y-316617184D01*
X-302830142Y-316613674D01*
X-302806250Y-316612500D01*
X-301893750Y-316612500D01*
X-301869858Y-316613674D01*
X-301869858Y-316613674D01*
G37*
D13*
X-302350000Y-317100000D03*
D12*
G36*
X-301869858Y-318488674D02*
G01*
X-301846197Y-318492184D01*
X-301822993Y-318497996D01*
X-301800471Y-318506054D01*
X-301778847Y-318516282D01*
X-301758330Y-318528579D01*
X-301739117Y-318542829D01*
X-301721393Y-318558893D01*
X-301705329Y-318576617D01*
X-301691079Y-318595830D01*
X-301678782Y-318616347D01*
X-301668554Y-318637971D01*
X-301660496Y-318660493D01*
X-301654684Y-318683697D01*
X-301651174Y-318707358D01*
X-301650000Y-318731250D01*
X-301650000Y-319218750D01*
X-301651174Y-319242642D01*
X-301654684Y-319266303D01*
X-301660496Y-319289507D01*
X-301668554Y-319312029D01*
X-301678782Y-319333653D01*
X-301691079Y-319354170D01*
X-301705329Y-319373383D01*
X-301721393Y-319391107D01*
X-301739117Y-319407171D01*
X-301758330Y-319421421D01*
X-301778847Y-319433718D01*
X-301800471Y-319443946D01*
X-301822993Y-319452004D01*
X-301846197Y-319457816D01*
X-301869858Y-319461326D01*
X-301893750Y-319462500D01*
X-302806250Y-319462500D01*
X-302830142Y-319461326D01*
X-302853803Y-319457816D01*
X-302877007Y-319452004D01*
X-302899529Y-319443946D01*
X-302921153Y-319433718D01*
X-302941670Y-319421421D01*
X-302960883Y-319407171D01*
X-302978607Y-319391107D01*
X-302994671Y-319373383D01*
X-303008921Y-319354170D01*
X-303021218Y-319333653D01*
X-303031446Y-319312029D01*
X-303039504Y-319289507D01*
X-303045316Y-319266303D01*
X-303048826Y-319242642D01*
X-303050000Y-319218750D01*
X-303050000Y-318731250D01*
X-303048826Y-318707358D01*
X-303045316Y-318683697D01*
X-303039504Y-318660493D01*
X-303031446Y-318637971D01*
X-303021218Y-318616347D01*
X-303008921Y-318595830D01*
X-302994671Y-318576617D01*
X-302978607Y-318558893D01*
X-302960883Y-318542829D01*
X-302941670Y-318528579D01*
X-302921153Y-318516282D01*
X-302899529Y-318506054D01*
X-302877007Y-318497996D01*
X-302853803Y-318492184D01*
X-302830142Y-318488674D01*
X-302806250Y-318487500D01*
X-301893750Y-318487500D01*
X-301869858Y-318488674D01*
X-301869858Y-318488674D01*
G37*
D13*
X-302350000Y-318975000D03*
D14*
X-283529178Y-229969301D03*
D12*
G36*
X-284635700Y-229499610D02*
G01*
X-283059487Y-228862779D01*
X-282422656Y-230438992D01*
X-283998869Y-231075823D01*
X-284635700Y-229499610D01*
X-284635700Y-229499610D01*
G37*
D14*
X-281174131Y-229017800D03*
D15*
X-281174131Y-229017800D02*
X-281174131Y-229017800D01*
D14*
X-278819084Y-228066300D03*
D15*
X-278819084Y-228066300D02*
X-278819084Y-228066300D01*
D14*
X-276464037Y-227114799D03*
D15*
X-276464037Y-227114799D02*
X-276464037Y-227114799D01*
D16*
X-330650000Y-324600000D03*
X-328650000Y-324600000D03*
D17*
X-326650000Y-324600000D03*
D18*
X-332650000Y-324600000D03*
X-324650000Y-324600000D03*
D14*
X-276411653Y-247585794D03*
D12*
G36*
X-277518175Y-247116103D02*
G01*
X-275941962Y-246479272D01*
X-275305131Y-248055485D01*
X-276881344Y-248692316D01*
X-277518175Y-247116103D01*
X-277518175Y-247116103D01*
G37*
D14*
X-274056606Y-246634293D03*
D15*
X-274056606Y-246634293D02*
X-274056606Y-246634293D01*
D14*
X-271701559Y-245682793D03*
D15*
X-271701559Y-245682793D02*
X-271701559Y-245682793D01*
D14*
X-269346512Y-244731292D03*
D15*
X-269346512Y-244731292D02*
X-269346512Y-244731292D01*
D14*
X-209061547Y-279154728D03*
D12*
G36*
X-209531238Y-280261250D02*
G01*
X-210168069Y-278685037D01*
X-208591856Y-278048206D01*
X-207955025Y-279624419D01*
X-209531238Y-280261250D01*
X-209531238Y-280261250D01*
G37*
D14*
X-210013048Y-276799681D03*
D15*
X-210013048Y-276799681D02*
X-210013048Y-276799681D01*
D14*
X-210964548Y-274444634D03*
D15*
X-210964548Y-274444634D02*
X-210964548Y-274444634D01*
D14*
X-211916049Y-272089587D03*
D15*
X-211916049Y-272089587D02*
X-211916049Y-272089587D01*
D14*
X-376493008Y-265203712D03*
D12*
G36*
X-376023317Y-266310234D02*
G01*
X-377599530Y-265673403D01*
X-376962699Y-264097190D01*
X-375386486Y-264734021D01*
X-376023317Y-266310234D01*
X-376023317Y-266310234D01*
G37*
D14*
X-378848055Y-264252211D03*
D15*
X-378848055Y-264252211D02*
X-378848055Y-264252211D01*
D14*
X-381203102Y-263300711D03*
D15*
X-381203102Y-263300711D02*
X-381203102Y-263300711D01*
D14*
X-383558149Y-262349210D03*
D15*
X-383558149Y-262349210D02*
X-383558149Y-262349210D01*
D19*
X-323900000Y-284250000D03*
D20*
X-321360000Y-284250000D03*
D14*
X-369375482Y-247587219D03*
D12*
G36*
X-368905791Y-248693741D02*
G01*
X-370482004Y-248056910D01*
X-369845173Y-246480697D01*
X-368268960Y-247117528D01*
X-368905791Y-248693741D01*
X-368905791Y-248693741D01*
G37*
D14*
X-371730529Y-246635718D03*
D15*
X-371730529Y-246635718D02*
X-371730529Y-246635718D01*
D14*
X-374085576Y-245684218D03*
D15*
X-374085576Y-245684218D02*
X-374085576Y-245684218D01*
D14*
X-376440623Y-244732717D03*
D15*
X-376440623Y-244732717D02*
X-376440623Y-244732717D01*
D19*
X-322900000Y-253250000D03*
D20*
X-322900000Y-255790000D03*
X-322900000Y-258330000D03*
X-322900000Y-260870000D03*
D14*
X-353286064Y-213103446D03*
D12*
G36*
X-352816373Y-214209968D02*
G01*
X-354392586Y-213573137D01*
X-353755755Y-211996924D01*
X-352179542Y-212633755D01*
X-352816373Y-214209968D01*
X-352816373Y-214209968D01*
G37*
D14*
X-355641111Y-212151945D03*
D15*
X-355641111Y-212151945D02*
X-355641111Y-212151945D01*
D14*
X-357996158Y-211200445D03*
D15*
X-357996158Y-211200445D02*
X-357996158Y-211200445D01*
D14*
X-360351205Y-210248944D03*
D15*
X-360351205Y-210248944D02*
X-360351205Y-210248944D01*
D21*
X-315100000Y-327950000D03*
X-315100000Y-323450000D03*
X-308600000Y-327950000D03*
X-308600000Y-323450000D03*
X-311850000Y-321200000D03*
D14*
X-362257957Y-229970726D03*
D12*
G36*
X-361788266Y-231077248D02*
G01*
X-363364479Y-230440417D01*
X-362727648Y-228864204D01*
X-361151435Y-229501035D01*
X-361788266Y-231077248D01*
X-361788266Y-231077248D01*
G37*
D14*
X-364613004Y-229019225D03*
D15*
X-364613004Y-229019225D02*
X-364613004Y-229019225D01*
D14*
X-366968051Y-228067725D03*
D15*
X-366968051Y-228067725D02*
X-366968051Y-228067725D01*
D14*
X-369323098Y-227116224D03*
D15*
X-369323098Y-227116224D02*
X-369323098Y-227116224D01*
D22*
X-375176383Y-249088968D03*
D12*
G36*
X-376868711Y-249807318D02*
G01*
X-375894733Y-247396640D01*
X-373484055Y-248370618D01*
X-374458033Y-250781296D01*
X-376868711Y-249807318D01*
X-376868711Y-249807318D01*
G37*
D22*
X-365291544Y-255455479D03*
D12*
G36*
X-366983872Y-256173829D02*
G01*
X-366009894Y-253763151D01*
X-363599216Y-254737129D01*
X-364573194Y-257147807D01*
X-366983872Y-256173829D01*
X-366983872Y-256173829D01*
G37*
D23*
X-374112075Y-262137833D03*
D24*
X-370588776Y-263561338D03*
D12*
G36*
X-372239194Y-264242694D02*
G01*
X-371302677Y-261924735D01*
X-368938358Y-262879982D01*
X-369874875Y-265197941D01*
X-372239194Y-264242694D01*
X-372239194Y-264242694D01*
G37*
D25*
X-383619942Y-256840384D03*
D12*
G36*
X-384921732Y-257392961D02*
G01*
X-384172519Y-255538594D01*
X-382318152Y-256287807D01*
X-383067365Y-258142174D01*
X-384921732Y-257392961D01*
X-384921732Y-257392961D01*
G37*
D23*
X-380374798Y-258151507D03*
D22*
X-301720278Y-240069246D03*
D12*
G36*
X-302438628Y-241761574D02*
G01*
X-303412606Y-239350896D01*
X-301001928Y-238376918D01*
X-300027950Y-240787596D01*
X-302438628Y-241761574D01*
X-302438628Y-241761574D01*
G37*
D22*
X-290187170Y-237782344D03*
D12*
G36*
X-290905520Y-239474672D02*
G01*
X-291879498Y-237063994D01*
X-289468820Y-236090016D01*
X-288494842Y-238500694D01*
X-290905520Y-239474672D01*
X-290905520Y-239474672D01*
G37*
D23*
X-291890176Y-248716483D03*
D24*
X-288366877Y-247292978D03*
D12*
G36*
X-289080778Y-248929581D02*
G01*
X-290017295Y-246611622D01*
X-287652976Y-245656375D01*
X-286716459Y-247974334D01*
X-289080778Y-248929581D01*
X-289080778Y-248929581D01*
G37*
D25*
X-302409481Y-251510536D03*
D12*
G36*
X-302962058Y-252812326D02*
G01*
X-303711271Y-250957959D01*
X-301856904Y-250208746D01*
X-301107691Y-252063113D01*
X-302962058Y-252812326D01*
X-302962058Y-252812326D01*
G37*
D23*
X-299164337Y-250199413D03*
D22*
X-364404800Y-272854595D03*
D12*
G36*
X-366097128Y-273572945D02*
G01*
X-365123150Y-271162267D01*
X-362712472Y-272136245D01*
X-363686450Y-274546923D01*
X-366097128Y-273572945D01*
X-366097128Y-273572945D01*
G37*
D22*
X-354519961Y-279221106D03*
D12*
G36*
X-356212289Y-279939456D02*
G01*
X-355238311Y-277528778D01*
X-352827633Y-278502756D01*
X-353801611Y-280913434D01*
X-356212289Y-279939456D01*
X-356212289Y-279939456D01*
G37*
D23*
X-363340492Y-285903460D03*
D24*
X-359817193Y-287326965D03*
D12*
G36*
X-361467611Y-288008321D02*
G01*
X-360531094Y-285690362D01*
X-358166775Y-286645609D01*
X-359103292Y-288963568D01*
X-361467611Y-288008321D01*
X-361467611Y-288008321D01*
G37*
D25*
X-372848359Y-280606011D03*
D12*
G36*
X-374150149Y-281158588D02*
G01*
X-373400936Y-279304221D01*
X-371546569Y-280053434D01*
X-372295782Y-281907801D01*
X-374150149Y-281158588D01*
X-374150149Y-281158588D01*
G37*
D23*
X-369603215Y-281917134D03*
D22*
X-246633142Y-274974940D03*
D12*
G36*
X-247351492Y-276667268D02*
G01*
X-248325470Y-274256590D01*
X-245914792Y-273282612D01*
X-244940814Y-275693290D01*
X-247351492Y-276667268D01*
X-247351492Y-276667268D01*
G37*
D22*
X-235100034Y-272688038D03*
D12*
G36*
X-235818384Y-274380366D02*
G01*
X-236792362Y-271969688D01*
X-234381684Y-270995710D01*
X-233407706Y-273406388D01*
X-235818384Y-274380366D01*
X-235818384Y-274380366D01*
G37*
D23*
X-236803040Y-283622177D03*
D24*
X-233279741Y-282198672D03*
D12*
G36*
X-233993642Y-283835275D02*
G01*
X-234930159Y-281517316D01*
X-232565840Y-280562069D01*
X-231629323Y-282880028D01*
X-233993642Y-283835275D01*
X-233993642Y-283835275D01*
G37*
D25*
X-247322345Y-286416230D03*
D12*
G36*
X-247874922Y-287718020D02*
G01*
X-248624135Y-285863653D01*
X-246769768Y-285114440D01*
X-246020555Y-286968807D01*
X-247874922Y-287718020D01*
X-247874922Y-287718020D01*
G37*
D23*
X-244077201Y-285105107D03*
D22*
X-276611653Y-251495398D03*
D12*
G36*
X-277330003Y-253187726D02*
G01*
X-278303981Y-250777048D01*
X-275893303Y-249803070D01*
X-274919325Y-252213748D01*
X-277330003Y-253187726D01*
X-277330003Y-253187726D01*
G37*
D22*
X-265078545Y-249208496D03*
D12*
G36*
X-265796895Y-250900824D02*
G01*
X-266770873Y-248490146D01*
X-264360195Y-247516168D01*
X-263386217Y-249926846D01*
X-265796895Y-250900824D01*
X-265796895Y-250900824D01*
G37*
D23*
X-266781551Y-260142635D03*
D24*
X-263258252Y-258719130D03*
D12*
G36*
X-263972153Y-260355733D02*
G01*
X-264908670Y-258037774D01*
X-262544351Y-257082527D01*
X-261607834Y-259400486D01*
X-263972153Y-260355733D01*
X-263972153Y-260355733D01*
G37*
D25*
X-277300856Y-262936688D03*
D12*
G36*
X-277853433Y-264238478D02*
G01*
X-278602646Y-262384111D01*
X-276748279Y-261634898D01*
X-275999066Y-263489265D01*
X-277853433Y-264238478D01*
X-277853433Y-264238478D01*
G37*
D23*
X-274055712Y-261625565D03*
D14*
X-292501071Y-213102021D03*
D12*
G36*
X-293607593Y-212632330D02*
G01*
X-292031380Y-211995499D01*
X-291394549Y-213571712D01*
X-292970762Y-214208543D01*
X-293607593Y-212632330D01*
X-293607593Y-212632330D01*
G37*
D14*
X-290146024Y-212150520D03*
D15*
X-290146024Y-212150520D02*
X-290146024Y-212150520D01*
D14*
X-287790977Y-211199020D03*
D15*
X-287790977Y-211199020D02*
X-287790977Y-211199020D01*
D14*
X-285435930Y-210247519D03*
D15*
X-285435930Y-210247519D02*
X-285435930Y-210247519D01*
D14*
X-269294128Y-265202287D03*
D12*
G36*
X-270400650Y-264732596D02*
G01*
X-268824437Y-264095765D01*
X-268187606Y-265671978D01*
X-269763819Y-266308809D01*
X-270400650Y-264732596D01*
X-270400650Y-264732596D01*
G37*
D14*
X-266939081Y-264250786D03*
D15*
X-266939081Y-264250786D02*
X-266939081Y-264250786D01*
D14*
X-264584034Y-263299286D03*
D15*
X-264584034Y-263299286D02*
X-264584034Y-263299286D01*
D14*
X-262228987Y-262347785D03*
D15*
X-262228987Y-262347785D02*
X-262228987Y-262347785D01*
D26*
X-330140000Y-249250000D03*
D27*
X-330140000Y-251790000D03*
X-330140000Y-254330000D03*
X-330140000Y-256870000D03*
X-330140000Y-259410000D03*
X-330140000Y-261950000D03*
X-330140000Y-264490000D03*
X-330140000Y-267030000D03*
X-330140000Y-269570000D03*
X-330140000Y-272110000D03*
X-330140000Y-274650000D03*
X-330140000Y-277190000D03*
X-314900000Y-277190000D03*
X-314900000Y-274650000D03*
X-314900000Y-272110000D03*
X-314900000Y-269570000D03*
X-314900000Y-267030000D03*
X-314900000Y-264490000D03*
X-314900000Y-261950000D03*
X-314900000Y-259410000D03*
X-314900000Y-256870000D03*
X-314900000Y-254330000D03*
X-314900000Y-251790000D03*
X-314900000Y-249250000D03*
D22*
X-227143616Y-272493334D03*
D12*
G36*
X-227861966Y-274185662D02*
G01*
X-228835944Y-271774984D01*
X-226425266Y-270801006D01*
X-225451288Y-273211684D01*
X-227861966Y-274185662D01*
X-227861966Y-274185662D01*
G37*
D22*
X-215610508Y-270206432D03*
D12*
G36*
X-216328858Y-271898760D02*
G01*
X-217302836Y-269488082D01*
X-214892158Y-268514104D01*
X-213918180Y-270924782D01*
X-216328858Y-271898760D01*
X-216328858Y-271898760D01*
G37*
D23*
X-217313514Y-281140571D03*
D24*
X-213790215Y-279717066D03*
D12*
G36*
X-214504116Y-281353669D02*
G01*
X-215440633Y-279035710D01*
X-213076314Y-278080463D01*
X-212139797Y-280398422D01*
X-214504116Y-281353669D01*
X-214504116Y-281353669D01*
G37*
D25*
X-227832819Y-283934624D03*
D12*
G36*
X-228385396Y-285236414D02*
G01*
X-229134609Y-283382047D01*
X-227280242Y-282632834D01*
X-226531029Y-284487201D01*
X-228385396Y-285236414D01*
X-228385396Y-285236414D01*
G37*
D23*
X-224587675Y-282623501D03*
D22*
X-269494127Y-269111891D03*
D12*
G36*
X-270212477Y-270804219D02*
G01*
X-271186455Y-268393541D01*
X-268775777Y-267419563D01*
X-267801799Y-269830241D01*
X-270212477Y-270804219D01*
X-270212477Y-270804219D01*
G37*
D22*
X-257961019Y-266824989D03*
D12*
G36*
X-258679369Y-268517317D02*
G01*
X-259653347Y-266106639D01*
X-257242669Y-265132661D01*
X-256268691Y-267543339D01*
X-258679369Y-268517317D01*
X-258679369Y-268517317D01*
G37*
D23*
X-259664025Y-277759128D03*
D24*
X-256140726Y-276335623D03*
D12*
G36*
X-256854627Y-277972226D02*
G01*
X-257791144Y-275654267D01*
X-255426825Y-274699020D01*
X-254490308Y-277016979D01*
X-256854627Y-277972226D01*
X-256854627Y-277972226D01*
G37*
D25*
X-270183330Y-280553181D03*
D12*
G36*
X-270735907Y-281854971D02*
G01*
X-271485120Y-280000604D01*
X-269630753Y-279251391D01*
X-268881540Y-281105758D01*
X-270735907Y-281854971D01*
X-270735907Y-281854971D01*
G37*
D23*
X-266938186Y-279242058D03*
D22*
X-350169750Y-237621609D03*
D12*
G36*
X-351862078Y-238339959D02*
G01*
X-350888100Y-235929281D01*
X-348477422Y-236903259D01*
X-349451400Y-239313937D01*
X-351862078Y-238339959D01*
X-351862078Y-238339959D01*
G37*
D22*
X-340284911Y-243988120D03*
D12*
G36*
X-341977239Y-244706470D02*
G01*
X-341003261Y-242295792D01*
X-338592583Y-243269770D01*
X-339566561Y-245680448D01*
X-341977239Y-244706470D01*
X-341977239Y-244706470D01*
G37*
D23*
X-349105442Y-250670474D03*
D24*
X-345582143Y-252093979D03*
D12*
G36*
X-347232561Y-252775335D02*
G01*
X-346296044Y-250457376D01*
X-343931725Y-251412623D01*
X-344868242Y-253730582D01*
X-347232561Y-252775335D01*
X-347232561Y-252775335D01*
G37*
D25*
X-358613309Y-245373025D03*
D12*
G36*
X-359915099Y-245925602D02*
G01*
X-359165886Y-244071235D01*
X-357311519Y-244820448D01*
X-358060732Y-246674815D01*
X-359915099Y-245925602D01*
X-359915099Y-245925602D01*
G37*
D23*
X-355368165Y-246684148D03*
D22*
X-405256885Y-272527302D03*
D12*
G36*
X-406949213Y-273245652D02*
G01*
X-405975235Y-270834974D01*
X-403564557Y-271808952D01*
X-404538535Y-274219630D01*
X-406949213Y-273245652D01*
X-406949213Y-273245652D01*
G37*
D22*
X-395372046Y-278893813D03*
D12*
G36*
X-397064374Y-279612163D02*
G01*
X-396090396Y-277201485D01*
X-393679718Y-278175463D01*
X-394653696Y-280586141D01*
X-397064374Y-279612163D01*
X-397064374Y-279612163D01*
G37*
D23*
X-404192577Y-285576167D03*
D24*
X-400669278Y-286999672D03*
D12*
G36*
X-402319696Y-287681028D02*
G01*
X-401383179Y-285363069D01*
X-399018860Y-286318316D01*
X-399955377Y-288636275D01*
X-402319696Y-287681028D01*
X-402319696Y-287681028D01*
G37*
D25*
X-413700444Y-280278718D03*
D12*
G36*
X-415002234Y-280831295D02*
G01*
X-414253021Y-278976928D01*
X-412398654Y-279726141D01*
X-413147867Y-281580508D01*
X-415002234Y-280831295D01*
X-415002234Y-280831295D01*
G37*
D23*
X-410455300Y-281589841D03*
D22*
X-368058858Y-231472474D03*
D12*
G36*
X-369751186Y-232190824D02*
G01*
X-368777208Y-229780146D01*
X-366366530Y-230754124D01*
X-367340508Y-233164802D01*
X-369751186Y-232190824D01*
X-369751186Y-232190824D01*
G37*
D22*
X-358174019Y-237838985D03*
D12*
G36*
X-359866347Y-238557335D02*
G01*
X-358892369Y-236146657D01*
X-356481691Y-237120635D01*
X-357455669Y-239531313D01*
X-359866347Y-238557335D01*
X-359866347Y-238557335D01*
G37*
D23*
X-366994550Y-244521339D03*
D24*
X-363471251Y-245944844D03*
D12*
G36*
X-365121669Y-246626200D02*
G01*
X-364185152Y-244308241D01*
X-361820833Y-245263488D01*
X-362757350Y-247581447D01*
X-365121669Y-246626200D01*
X-365121669Y-246626200D01*
G37*
D25*
X-376502417Y-239223890D03*
D12*
G36*
X-377804207Y-239776467D02*
G01*
X-377054994Y-237922100D01*
X-375200627Y-238671313D01*
X-375949840Y-240525680D01*
X-377804207Y-239776467D01*
X-377804207Y-239776467D01*
G37*
D23*
X-373257273Y-240535013D03*
D22*
X-294602753Y-257685739D03*
D12*
G36*
X-295321103Y-259378067D02*
G01*
X-296295081Y-256967389D01*
X-293884403Y-255993411D01*
X-292910425Y-258404089D01*
X-295321103Y-259378067D01*
X-295321103Y-259378067D01*
G37*
D22*
X-283069645Y-255398837D03*
D12*
G36*
X-283787995Y-257091165D02*
G01*
X-284761973Y-254680487D01*
X-282351295Y-253706509D01*
X-281377317Y-256117187D01*
X-283787995Y-257091165D01*
X-283787995Y-257091165D01*
G37*
D23*
X-284772651Y-266332976D03*
D24*
X-281249352Y-264909471D03*
D12*
G36*
X-281963253Y-266546074D02*
G01*
X-282899770Y-264228115D01*
X-280535451Y-263272868D01*
X-279598934Y-265590827D01*
X-281963253Y-266546074D01*
X-281963253Y-266546074D01*
G37*
D25*
X-295291956Y-269127029D03*
D12*
G36*
X-295844533Y-270428819D02*
G01*
X-296593746Y-268574452D01*
X-294739379Y-267825239D01*
X-293990166Y-269679606D01*
X-295844533Y-270428819D01*
X-295844533Y-270428819D01*
G37*
D23*
X-292046812Y-267815906D03*
D22*
X-357287275Y-255238102D03*
D12*
G36*
X-358979603Y-255956452D02*
G01*
X-358005625Y-253545774D01*
X-355594947Y-254519752D01*
X-356568925Y-256930430D01*
X-358979603Y-255956452D01*
X-358979603Y-255956452D01*
G37*
D22*
X-347402436Y-261604613D03*
D12*
G36*
X-349094764Y-262322963D02*
G01*
X-348120786Y-259912285D01*
X-345710108Y-260886263D01*
X-346684086Y-263296941D01*
X-349094764Y-262322963D01*
X-349094764Y-262322963D01*
G37*
D23*
X-356222967Y-268286967D03*
D24*
X-352699668Y-269710472D03*
D12*
G36*
X-354350086Y-270391828D02*
G01*
X-353413569Y-268073869D01*
X-351049250Y-269029116D01*
X-351985767Y-271347075D01*
X-354350086Y-270391828D01*
X-354350086Y-270391828D01*
G37*
D25*
X-365730834Y-262989518D03*
D12*
G36*
X-367032624Y-263542095D02*
G01*
X-366283411Y-261687728D01*
X-364429044Y-262436941D01*
X-365178257Y-264291308D01*
X-367032624Y-263542095D01*
X-367032624Y-263542095D01*
G37*
D23*
X-362485690Y-264300641D03*
D22*
X-287485227Y-275302233D03*
D12*
G36*
X-288203577Y-276994561D02*
G01*
X-289177555Y-274583883D01*
X-286766877Y-273609905D01*
X-285792899Y-276020583D01*
X-288203577Y-276994561D01*
X-288203577Y-276994561D01*
G37*
D22*
X-275952119Y-273015331D03*
D12*
G36*
X-276670469Y-274707659D02*
G01*
X-277644447Y-272296981D01*
X-275233769Y-271323003D01*
X-274259791Y-273733681D01*
X-276670469Y-274707659D01*
X-276670469Y-274707659D01*
G37*
D23*
X-277655125Y-283949470D03*
D24*
X-274131826Y-282525965D03*
D12*
G36*
X-274845727Y-284162568D02*
G01*
X-275782244Y-281844609D01*
X-273417925Y-280889362D01*
X-272481408Y-283207321D01*
X-274845727Y-284162568D01*
X-274845727Y-284162568D01*
G37*
D25*
X-288174430Y-286743523D03*
D12*
G36*
X-288727007Y-288045313D02*
G01*
X-289476220Y-286190946D01*
X-287621853Y-285441733D01*
X-286872640Y-287296100D01*
X-288727007Y-288045313D01*
X-288727007Y-288045313D01*
G37*
D23*
X-284929286Y-285432400D03*
D22*
X-382395900Y-266664254D03*
D12*
G36*
X-384088228Y-267382604D02*
G01*
X-383114250Y-264971926D01*
X-380703572Y-265945904D01*
X-381677550Y-268356582D01*
X-384088228Y-267382604D01*
X-384088228Y-267382604D01*
G37*
D22*
X-372511061Y-273030765D03*
D12*
G36*
X-374203389Y-273749115D02*
G01*
X-373229411Y-271338437D01*
X-370818733Y-272312415D01*
X-371792711Y-274723093D01*
X-374203389Y-273749115D01*
X-374203389Y-273749115D01*
G37*
D23*
X-381331592Y-279713119D03*
D24*
X-377808293Y-281136624D03*
D12*
G36*
X-379458711Y-281817980D02*
G01*
X-378522194Y-279500021D01*
X-376157875Y-280455268D01*
X-377094392Y-282773227D01*
X-379458711Y-281817980D01*
X-379458711Y-281817980D01*
G37*
D25*
X-390839459Y-274415670D03*
D12*
G36*
X-392141249Y-274968247D02*
G01*
X-391392036Y-273113880D01*
X-389537669Y-273863093D01*
X-390286882Y-275717460D01*
X-392141249Y-274968247D01*
X-392141249Y-274968247D01*
G37*
D23*
X-387594315Y-275726793D03*
D22*
X-283729178Y-233878905D03*
D12*
G36*
X-284447528Y-235571233D02*
G01*
X-285421506Y-233160555D01*
X-283010828Y-232186577D01*
X-282036850Y-234597255D01*
X-284447528Y-235571233D01*
X-284447528Y-235571233D01*
G37*
D22*
X-272196070Y-231592003D03*
D12*
G36*
X-272914420Y-233284331D02*
G01*
X-273888398Y-230873653D01*
X-271477720Y-229899675D01*
X-270503742Y-232310353D01*
X-272914420Y-233284331D01*
X-272914420Y-233284331D01*
G37*
D23*
X-273899076Y-242526142D03*
D24*
X-270375777Y-241102637D03*
D12*
G36*
X-271089678Y-242739240D02*
G01*
X-272026195Y-240421281D01*
X-269661876Y-239466034D01*
X-268725359Y-241783993D01*
X-271089678Y-242739240D01*
X-271089678Y-242739240D01*
G37*
D25*
X-284418381Y-245320195D03*
D12*
G36*
X-284970958Y-246621985D02*
G01*
X-285720171Y-244767618D01*
X-283865804Y-244018405D01*
X-283116591Y-245872772D01*
X-284970958Y-246621985D01*
X-284970958Y-246621985D01*
G37*
D23*
X-281173237Y-244009072D03*
D22*
X-424746412Y-270045696D03*
D12*
G36*
X-426438740Y-270764046D02*
G01*
X-425464762Y-268353368D01*
X-423054084Y-269327346D01*
X-424028062Y-271738024D01*
X-426438740Y-270764046D01*
X-426438740Y-270764046D01*
G37*
D22*
X-414861573Y-276412207D03*
D12*
G36*
X-416553901Y-277130557D02*
G01*
X-415579923Y-274719879D01*
X-413169245Y-275693857D01*
X-414143223Y-278104535D01*
X-416553901Y-277130557D01*
X-416553901Y-277130557D01*
G37*
D23*
X-423682104Y-283094561D03*
D24*
X-420158805Y-284518066D03*
D12*
G36*
X-421809223Y-285199422D02*
G01*
X-420872706Y-282881463D01*
X-418508387Y-283836710D01*
X-419444904Y-286154669D01*
X-421809223Y-285199422D01*
X-421809223Y-285199422D01*
G37*
D25*
X-433189971Y-277797112D03*
D12*
G36*
X-434491761Y-278349689D02*
G01*
X-433742548Y-276495322D01*
X-431888181Y-277244535D01*
X-432637394Y-279098902D01*
X-434491761Y-278349689D01*
X-434491761Y-278349689D01*
G37*
D23*
X-429944827Y-279108235D03*
D22*
X-360941333Y-213855981D03*
D12*
G36*
X-362633661Y-214574331D02*
G01*
X-361659683Y-212163653D01*
X-359249005Y-213137631D01*
X-360222983Y-215548309D01*
X-362633661Y-214574331D01*
X-362633661Y-214574331D01*
G37*
D22*
X-351056494Y-220222492D03*
D12*
G36*
X-352748822Y-220940842D02*
G01*
X-351774844Y-218530164D01*
X-349364166Y-219504142D01*
X-350338144Y-221914820D01*
X-352748822Y-220940842D01*
X-352748822Y-220940842D01*
G37*
D23*
X-359877025Y-226904846D03*
D24*
X-356353726Y-228328351D03*
D12*
G36*
X-358004144Y-229009707D02*
G01*
X-357067627Y-226691748D01*
X-354703308Y-227646995D01*
X-355639825Y-229964954D01*
X-358004144Y-229009707D01*
X-358004144Y-229009707D01*
G37*
D25*
X-369384892Y-221607397D03*
D12*
G36*
X-370686682Y-222159974D02*
G01*
X-369937469Y-220305607D01*
X-368083102Y-221054820D01*
X-368832315Y-222909187D01*
X-370686682Y-222159974D01*
X-370686682Y-222159974D01*
G37*
D23*
X-366139748Y-222918520D03*
D22*
X-343052224Y-220005115D03*
D12*
G36*
X-344744552Y-220723465D02*
G01*
X-343770574Y-218312787D01*
X-341359896Y-219286765D01*
X-342333874Y-221697443D01*
X-344744552Y-220723465D01*
X-344744552Y-220723465D01*
G37*
D22*
X-333167385Y-226371626D03*
D12*
G36*
X-334859713Y-227089976D02*
G01*
X-333885735Y-224679298D01*
X-331475057Y-225653276D01*
X-332449035Y-228063954D01*
X-334859713Y-227089976D01*
X-334859713Y-227089976D01*
G37*
D23*
X-341987916Y-233053980D03*
D24*
X-338464617Y-234477485D03*
D12*
G36*
X-340115035Y-235158841D02*
G01*
X-339178518Y-232840882D01*
X-336814199Y-233796129D01*
X-337750716Y-236114088D01*
X-340115035Y-235158841D01*
X-340115035Y-235158841D01*
G37*
D25*
X-351495783Y-227756531D03*
D12*
G36*
X-352797573Y-228309108D02*
G01*
X-352048360Y-226454741D01*
X-350193993Y-227203954D01*
X-350943206Y-229058321D01*
X-352797573Y-228309108D01*
X-352797573Y-228309108D01*
G37*
D23*
X-348250639Y-229067654D03*
D22*
X-308837803Y-222452753D03*
D12*
G36*
X-309556153Y-224145081D02*
G01*
X-310530131Y-221734403D01*
X-308119453Y-220760425D01*
X-307145475Y-223171103D01*
X-309556153Y-224145081D01*
X-309556153Y-224145081D01*
G37*
D22*
X-297304695Y-220165851D03*
D12*
G36*
X-298023045Y-221858179D02*
G01*
X-298997023Y-219447501D01*
X-296586345Y-218473523D01*
X-295612367Y-220884201D01*
X-298023045Y-221858179D01*
X-298023045Y-221858179D01*
G37*
D23*
X-299007701Y-231099990D03*
D24*
X-295484402Y-229676485D03*
D12*
G36*
X-296198303Y-231313088D02*
G01*
X-297134820Y-228995129D01*
X-294770501Y-228039882D01*
X-293833984Y-230357841D01*
X-296198303Y-231313088D01*
X-296198303Y-231313088D01*
G37*
D25*
X-309527006Y-233894043D03*
D12*
G36*
X-310079583Y-235195833D02*
G01*
X-310828796Y-233341466D01*
X-308974429Y-232592253D01*
X-308225216Y-234446620D01*
X-310079583Y-235195833D01*
X-310079583Y-235195833D01*
G37*
D23*
X-306281862Y-232582920D03*
D22*
X-290846703Y-216262412D03*
D12*
G36*
X-291565053Y-217954740D02*
G01*
X-292539031Y-215544062D01*
X-290128353Y-214570084D01*
X-289154375Y-216980762D01*
X-291565053Y-217954740D01*
X-291565053Y-217954740D01*
G37*
D22*
X-279313595Y-213975510D03*
D12*
G36*
X-280031945Y-215667838D02*
G01*
X-281005923Y-213257160D01*
X-278595245Y-212283182D01*
X-277621267Y-214693860D01*
X-280031945Y-215667838D01*
X-280031945Y-215667838D01*
G37*
D23*
X-281016601Y-224909649D03*
D24*
X-277493302Y-223486144D03*
D12*
G36*
X-278207203Y-225122747D02*
G01*
X-279143720Y-222804788D01*
X-276779401Y-221849541D01*
X-275842884Y-224167500D01*
X-278207203Y-225122747D01*
X-278207203Y-225122747D01*
G37*
D25*
X-291535906Y-227703702D03*
D12*
G36*
X-292088483Y-229005492D02*
G01*
X-292837696Y-227151125D01*
X-290983329Y-226401912D01*
X-290234116Y-228256279D01*
X-292088483Y-229005492D01*
X-292088483Y-229005492D01*
G37*
D23*
X-288290762Y-226392579D03*
D14*
X-293311435Y-327838719D03*
D15*
X-293311435Y-327838719D02*
X-293311435Y-327838719D01*
D14*
X-294840045Y-325810184D03*
D15*
X-294840045Y-325810184D02*
X-294840045Y-325810184D01*
D14*
X-296368655Y-323781650D03*
D15*
X-296368655Y-323781650D02*
X-296368655Y-323781650D01*
D14*
X-297897265Y-321753116D03*
D12*
G36*
X-298064562Y-322943499D02*
G01*
X-299087648Y-321585819D01*
X-297729968Y-320562733D01*
X-296706882Y-321920413D01*
X-298064562Y-322943499D01*
X-298064562Y-322943499D01*
G37*
D14*
X-289585603Y-327585830D03*
D15*
X-289585603Y-327585830D02*
X-289585603Y-327585830D01*
D14*
X-287557068Y-326057220D03*
D15*
X-287557068Y-326057220D02*
X-287557068Y-326057220D01*
D14*
X-285528534Y-324528610D03*
D15*
X-285528534Y-324528610D02*
X-285528534Y-324528610D01*
D14*
X-283500000Y-323000000D03*
D12*
G36*
X-282309617Y-323167297D02*
G01*
X-283667297Y-324190383D01*
X-284690383Y-322832703D01*
X-283332703Y-321809617D01*
X-282309617Y-323167297D01*
X-282309617Y-323167297D01*
G37*
D14*
X-352485627Y-327838095D03*
D15*
X-352485627Y-327838095D02*
X-352485627Y-327838095D01*
D14*
X-350957017Y-325809560D03*
D15*
X-350957017Y-325809560D02*
X-350957017Y-325809560D01*
D14*
X-349428407Y-323781026D03*
D15*
X-349428407Y-323781026D02*
X-349428407Y-323781026D01*
D14*
X-347899797Y-321752492D03*
D12*
G36*
X-349090180Y-321919789D02*
G01*
X-348067094Y-320562109D01*
X-346709414Y-321585195D01*
X-347732500Y-322942875D01*
X-349090180Y-321919789D01*
X-349090180Y-321919789D01*
G37*
D14*
X-362500000Y-323000000D03*
D12*
G36*
X-362667297Y-321809617D02*
G01*
X-361309617Y-322832703D01*
X-362332703Y-324190383D01*
X-363690383Y-323167297D01*
X-362667297Y-321809617D01*
X-362667297Y-321809617D01*
G37*
D14*
X-360471466Y-324528610D03*
D15*
X-360471466Y-324528610D02*
X-360471466Y-324528610D01*
D14*
X-358442932Y-326057220D03*
D15*
X-358442932Y-326057220D02*
X-358442932Y-326057220D01*
D14*
X-356414397Y-327585830D03*
D15*
X-356414397Y-327585830D02*
X-356414397Y-327585830D01*
D14*
X-262531235Y-307489647D03*
D15*
X-262531235Y-307489647D02*
X-262531235Y-307489647D01*
D14*
X-260502700Y-305961037D03*
D15*
X-260502700Y-305961037D02*
X-260502700Y-305961037D01*
D14*
X-258474166Y-304432427D03*
D15*
X-258474166Y-304432427D02*
X-258474166Y-304432427D01*
D14*
X-256445632Y-302903817D03*
D12*
G36*
X-257636015Y-302736520D02*
G01*
X-256278335Y-301713434D01*
X-255255249Y-303071114D01*
X-256612929Y-304094200D01*
X-257636015Y-302736520D01*
X-257636015Y-302736520D01*
G37*
D14*
X-387485603Y-304164170D03*
D15*
X-387485603Y-304164170D02*
X-387485603Y-304164170D01*
D14*
X-385457068Y-305692780D03*
D15*
X-385457068Y-305692780D02*
X-385457068Y-305692780D01*
D14*
X-383428534Y-307221390D03*
D15*
X-383428534Y-307221390D02*
X-383428534Y-307221390D01*
D14*
X-381400000Y-308750000D03*
D12*
G36*
X-381567297Y-307559617D02*
G01*
X-380209617Y-308582703D01*
X-381232703Y-309940383D01*
X-382590383Y-308917297D01*
X-381567297Y-307559617D01*
X-381567297Y-307559617D01*
G37*
D14*
X-436804502Y-279365141D03*
D15*
X-436804502Y-279365141D02*
X-436804502Y-279365141D01*
D14*
X-435853001Y-277010094D03*
D15*
X-435853001Y-277010094D02*
X-435853001Y-277010094D01*
D14*
X-434901501Y-274655047D03*
D15*
X-434901501Y-274655047D02*
X-434901501Y-274655047D01*
D14*
X-433950000Y-272300000D03*
D12*
G36*
X-432843478Y-271830309D02*
G01*
X-433480309Y-273406522D01*
X-435056522Y-272769691D01*
X-434419691Y-271193478D01*
X-432843478Y-271830309D01*
X-432843478Y-271830309D01*
G37*
D28*
X-321360000Y-307160002D03*
X-321360000Y-321160002D03*
X-350900000Y-297700000D03*
X-348300000Y-297800000D03*
X-345800000Y-297900000D03*
X-343100000Y-297900000D03*
X-361400000Y-297700000D03*
X-358700000Y-297900000D03*
X-356000000Y-297800000D03*
X-353500000Y-297800000D03*
X-358750000Y-312150000D03*
X-361250000Y-312200000D03*
X-363700000Y-312100000D03*
X-366122730Y-311904000D03*
X-339000000Y-292050000D03*
X-359200000Y-241899996D03*
X-378850000Y-298000000D03*
X-376300000Y-297900000D03*
X-339529944Y-247866081D03*
X-339100000Y-272100000D03*
X-339000000Y-287100000D03*
X-342950000Y-259950002D03*
X-305714400Y-272300700D03*
X-291312600Y-235737400D03*
X-305866800Y-296875200D03*
X-284300000Y-249000000D03*
X-276750000Y-280450000D03*
X-305850000Y-304350000D03*
X-305800000Y-299400000D03*
X-273100000Y-238800000D03*
X-305900000Y-301900000D03*
X-267100000Y-247500000D03*
X-258800000Y-273800000D03*
X-275800000Y-296700000D03*
X-258500000Y-295200000D03*
X-258450000Y-302850000D03*
X-260500000Y-304050000D03*
X-260500000Y-295950000D03*
X-305625500Y-294462200D03*
X-305917600Y-291896800D03*
X-305879500Y-289369500D03*
X-305955700Y-286816800D03*
X-290300000Y-296300000D03*
X-292700000Y-296800000D03*
X-295500000Y-296700000D03*
X-298400000Y-296700000D03*
X-273100000Y-296400000D03*
X-233279741Y-276620259D03*
X-270200000Y-296500000D03*
X-213790215Y-277109785D03*
X-336402774Y-238505546D03*
X-413450000Y-283350000D03*
X-412700000Y-285900000D03*
X-283373080Y-305146607D03*
X-325182137Y-311406956D03*
X-336527002Y-240949647D03*
X-285400000Y-305150000D03*
X-325781639Y-312207345D03*
X-336550000Y-239900000D03*
X-327680476Y-312934355D03*
X-329550000Y-320300000D03*
X-337717069Y-239980187D03*
X-328750000Y-313700000D03*
X-367300000Y-266150000D03*
X-352100000Y-236900000D03*
X-359450000Y-254500000D03*
X-359950000Y-249500000D03*
X-366750001Y-270600000D03*
X-379200000Y-289050000D03*
X-383650000Y-289100000D03*
X-352050000Y-229800000D03*
X-256550000Y-293800000D03*
X-329297124Y-310577010D03*
X-373550000Y-283950000D03*
X-264000000Y-285000000D03*
X-316941979Y-310952945D03*
X-376850000Y-304200000D03*
X-390700000Y-278550000D03*
X-326878778Y-315048430D03*
X-326808800Y-316045990D03*
X-302400000Y-320300000D03*
X-333400000Y-295200000D03*
X-333400000Y-304300000D03*
X-316941979Y-308200000D03*
X-316927010Y-304900000D03*
X-339000000Y-284600000D03*
X-339000000Y-282100000D03*
X-339000000Y-279600000D03*
X-339100000Y-277100000D03*
X-351227000Y-223137313D03*
X-339000000Y-289600000D03*
X-339400000Y-236600000D03*
X-339100000Y-274600000D03*
X-356250000Y-312200000D03*
X-295484402Y-223488239D03*
X-305600100Y-269544800D03*
X-353750000Y-312300000D03*
X-280725000Y-221775000D03*
X-305955700Y-284353000D03*
X-305892200Y-281940000D03*
X-305879500Y-279539700D03*
X-305943000Y-277152100D03*
X-305866800Y-274739100D03*
X-278700000Y-296800000D03*
X-281500000Y-296700000D03*
X-284300000Y-296600000D03*
X-287100000Y-296600000D03*
D29*
X-315100000Y-323450000D02*
X-317389998Y-321160002D01*
X-320794315Y-321160002D02*
X-321360000Y-321160002D01*
X-317389998Y-321160002D02*
X-320794315Y-321160002D01*
X-211916049Y-273493133D02*
X-210964548Y-274444634D01*
X-330140000Y-254330000D02*
X-323980000Y-254330000D01*
X-211916049Y-272089587D02*
X-211916049Y-273493133D01*
X-323980000Y-254330000D02*
X-322900000Y-253250000D01*
X-210100000Y-278300000D02*
X-210100000Y-276886633D01*
X-209061547Y-279154728D02*
X-209245272Y-279154728D01*
X-209245272Y-279154728D02*
X-210100000Y-278300000D01*
X-210100000Y-276886633D02*
X-210013048Y-276799681D01*
X-210013048Y-276799681D02*
X-210200319Y-276799681D01*
X-210200319Y-276799681D02*
X-211000000Y-276000000D01*
X-211000000Y-276000000D02*
X-211000000Y-274480086D01*
X-211000000Y-274480086D02*
X-210964548Y-274444634D01*
X-322900000Y-258330000D02*
X-322900000Y-260870000D01*
X-435340333Y-276993021D02*
X-435340333Y-278396567D01*
X-435340333Y-278396567D02*
X-436291834Y-279348068D01*
X-434901501Y-274651501D02*
X-433950000Y-273700000D01*
X-433950000Y-273700000D02*
X-433950000Y-272300000D01*
X-434901501Y-274655047D02*
X-434901501Y-274651501D01*
X-322900000Y-253250000D02*
X-322900000Y-255790000D01*
X-393250000Y-292050000D02*
X-409956289Y-292050000D01*
X-321360000Y-321160002D02*
X-324939998Y-321160002D01*
X-433721352Y-282448291D02*
X-435954503Y-280215140D01*
X-409956289Y-292050000D02*
X-433721352Y-282448291D01*
X-369400000Y-315900000D02*
X-393250000Y-292050000D01*
X-324939998Y-321160002D02*
X-330200000Y-315900000D01*
X-330200000Y-315900000D02*
X-369400000Y-315900000D01*
X-435954503Y-280215140D02*
X-436804502Y-279365141D01*
X-434388833Y-274637974D02*
X-434388833Y-276041521D01*
X-434388833Y-276041521D02*
X-435340333Y-276993021D01*
X-322900000Y-255790000D02*
X-322900000Y-258330000D01*
X-330140000Y-254330000D02*
X-330140000Y-256870000D01*
X-290259966Y-306454628D02*
X-293450263Y-309644924D01*
X-209785204Y-280235204D02*
X-211939252Y-282389252D01*
X-209785204Y-279878385D02*
X-209785204Y-280235204D01*
X-245255775Y-295850000D02*
X-255771672Y-295850000D01*
X-320794315Y-307160002D02*
X-321360000Y-307160002D01*
X-266426300Y-306454627D02*
X-290259966Y-306454628D01*
X-293450263Y-309644924D02*
X-307365351Y-309644924D01*
X-261090662Y-301118989D02*
X-266426300Y-306454627D01*
X-261040661Y-301118989D02*
X-261090662Y-301118989D01*
X-309850272Y-307160002D02*
X-320794315Y-307160002D01*
X-307365351Y-309644924D02*
X-309850272Y-307160002D01*
X-209061547Y-279154728D02*
X-209785204Y-279878385D01*
X-211939252Y-282389252D02*
X-245255775Y-295850000D01*
X-255771672Y-295850000D02*
X-261040661Y-301118989D01*
X-314900000Y-251790000D02*
X-322798000Y-251790000D01*
X-322798000Y-251790000D02*
X-322900000Y-251892000D01*
X-322900000Y-251892000D02*
X-322900000Y-253250000D01*
D30*
X-350900000Y-298950000D02*
X-350900000Y-297700000D01*
X-348300000Y-298950000D02*
X-348300000Y-297800000D01*
X-345700000Y-298000000D02*
X-345800000Y-297900000D01*
X-345700000Y-298950000D02*
X-345700000Y-298000000D01*
X-343100000Y-298950000D02*
X-343100000Y-297900000D01*
X-361250000Y-298950000D02*
X-361250000Y-297850000D01*
X-361250000Y-297850000D02*
X-361400000Y-297700000D01*
X-358650000Y-297950000D02*
X-358700000Y-297900000D01*
X-358650000Y-298950000D02*
X-358650000Y-297950000D01*
X-356050000Y-297850000D02*
X-356000000Y-297800000D01*
X-356050000Y-298950000D02*
X-356050000Y-297850000D01*
X-353450000Y-298950000D02*
X-353450000Y-297850000D01*
X-353450000Y-297850000D02*
X-353500000Y-297800000D01*
X-358786359Y-311200000D02*
X-358786359Y-312113641D01*
X-358786359Y-312113641D02*
X-358750000Y-312150000D01*
X-361231813Y-311904000D02*
X-361231813Y-311200000D01*
X-361231813Y-312181813D02*
X-361250000Y-312200000D01*
X-361231813Y-311904000D02*
X-361231813Y-312181813D01*
X-363677267Y-312077267D02*
X-363700000Y-312100000D01*
X-363677267Y-311904000D02*
X-363677267Y-312077267D01*
X-363677267Y-311904000D02*
X-363677267Y-311200000D01*
X-366122730Y-311904000D02*
X-366122730Y-311200000D01*
X-383600000Y-281900000D02*
X-390863764Y-281900000D01*
X-390863764Y-281900000D02*
X-393869951Y-278893813D01*
X-393869951Y-278893813D02*
X-395372046Y-278893813D01*
X-371486363Y-294013637D02*
X-383600000Y-281900000D01*
X-371486363Y-298950000D02*
X-371486363Y-294013637D01*
X-396441380Y-279963147D02*
X-396441380Y-282771774D01*
X-396441380Y-282771774D02*
X-399638353Y-285968747D01*
X-399638353Y-285968747D02*
X-400669278Y-286999672D01*
X-395372046Y-278893813D02*
X-396441380Y-279963147D01*
X-414273780Y-277000000D02*
X-414861573Y-276412207D01*
X-420158805Y-283208805D02*
X-420158805Y-284518066D01*
X-414861573Y-277911573D02*
X-420158805Y-283208805D01*
X-414861573Y-276412207D02*
X-414861573Y-277911573D01*
X-377750000Y-290550000D02*
X-405100000Y-290550000D01*
X-418683673Y-284518066D02*
X-420158805Y-284518066D01*
X-405100000Y-290550000D02*
X-411131934Y-284518066D01*
X-373931817Y-298950000D02*
X-373931817Y-294368183D01*
X-373931817Y-294368183D02*
X-377750000Y-290550000D01*
X-411131934Y-284518066D02*
X-418683673Y-284518066D01*
X-358174019Y-237838985D02*
X-359200000Y-238864966D01*
X-359200000Y-238864966D02*
X-359200000Y-241900000D01*
X-338023500Y-292107400D02*
X-338023500Y-291957400D01*
X-363500000Y-245973593D02*
X-363471251Y-245944844D01*
X-362440326Y-244913919D02*
X-363471251Y-245944844D01*
X-362213919Y-244913919D02*
X-362440326Y-244913919D01*
X-359200000Y-241900000D02*
X-362213919Y-244913919D01*
X-338023500Y-292107400D02*
X-338942600Y-292107400D01*
X-338942600Y-292107400D02*
X-339000000Y-292050000D01*
X-363117925Y-267750000D02*
X-367200000Y-267750000D01*
X-367200000Y-267750000D02*
X-370200000Y-264750000D01*
X-370200000Y-264750000D02*
X-370200000Y-263950114D01*
X-370200000Y-263950114D02*
X-370588776Y-263561338D01*
X-350722240Y-280145685D02*
X-363117925Y-267750000D01*
X-338023500Y-294597400D02*
X-338902600Y-294597400D01*
X-350722240Y-282777760D02*
X-350722240Y-280145685D01*
X-338902600Y-294597400D02*
X-350722240Y-282777760D01*
X-369557851Y-262530413D02*
X-370588776Y-263561338D01*
X-365291544Y-255455479D02*
X-366360878Y-256524813D01*
X-366360878Y-256524813D02*
X-366360878Y-259333440D01*
X-366360878Y-259333440D02*
X-369557851Y-262530413D01*
X-369040909Y-289904008D02*
X-377808293Y-281136624D01*
X-369040909Y-298950000D02*
X-369040909Y-289904008D01*
X-372511061Y-273030765D02*
X-373580395Y-274100099D01*
X-373580395Y-276908726D02*
X-376777368Y-280105699D01*
X-373580395Y-274100099D02*
X-373580395Y-276908726D01*
X-376777368Y-280105699D02*
X-377808293Y-281136624D01*
X-378822725Y-298950000D02*
X-378822725Y-298027275D01*
X-378822725Y-298027275D02*
X-378850000Y-298000000D01*
X-376377271Y-298950000D02*
X-376377271Y-297977271D01*
X-376377271Y-297977271D02*
X-376300000Y-297900000D01*
X-339929943Y-247466082D02*
X-339529944Y-247866081D01*
X-340095629Y-247866081D02*
X-339529944Y-247866081D01*
X-341354245Y-247866081D02*
X-340095629Y-247866081D01*
X-340284911Y-243988120D02*
X-340284911Y-247111114D01*
X-340284911Y-247111114D02*
X-339929943Y-247466082D01*
X-345582143Y-252093979D02*
X-341354245Y-247866081D01*
X-338023500Y-272157400D02*
X-339042600Y-272157400D01*
X-339042600Y-272157400D02*
X-339100000Y-272100000D01*
X-345747825Y-259950002D02*
X-343515685Y-259950002D01*
X-343515685Y-259950002D02*
X-342950000Y-259950002D01*
X-347402436Y-261604613D02*
X-345747825Y-259950002D01*
X-338023500Y-287107400D02*
X-338992600Y-287107400D01*
X-338992600Y-287107400D02*
X-339000000Y-287100000D01*
X-347402436Y-264413240D02*
X-352699668Y-269710472D01*
X-347402436Y-261604613D02*
X-347402436Y-264413240D01*
X-366595455Y-294105227D02*
X-359817193Y-287326965D01*
X-366595455Y-298950000D02*
X-366595455Y-294105227D01*
X-354519961Y-279221106D02*
X-355589295Y-280290440D01*
X-355589295Y-280290440D02*
X-355589295Y-283099067D01*
X-355589295Y-283099067D02*
X-358786268Y-286296040D01*
X-358786268Y-286296040D02*
X-359817193Y-287326965D01*
X-291312600Y-236656914D02*
X-290187170Y-237782344D01*
X-291312600Y-235737400D02*
X-291312600Y-236656914D01*
X-305715100Y-272300000D02*
X-305714400Y-272300700D01*
X-306900000Y-272300000D02*
X-305715100Y-272300000D01*
X-290187170Y-239284439D02*
X-288366877Y-241104732D01*
X-290187170Y-237782344D02*
X-290187170Y-239284439D01*
X-288366877Y-241104732D02*
X-288366877Y-245844810D01*
X-288366877Y-245844810D02*
X-288366877Y-247292978D01*
X-281249352Y-264909471D02*
X-282280277Y-263878546D01*
X-282280277Y-263878546D02*
X-282280277Y-257690300D01*
X-282280277Y-257690300D02*
X-283069645Y-256900932D01*
X-283069645Y-256900932D02*
X-283069645Y-255398837D01*
X-283069645Y-255398837D02*
X-283069645Y-250230355D01*
X-283900001Y-249399999D02*
X-284300000Y-249000000D01*
X-283069645Y-250230355D02*
X-283900001Y-249399999D01*
X-306900000Y-296900000D02*
X-305891600Y-296900000D01*
X-305891600Y-296900000D02*
X-305866800Y-296875200D01*
X-306900000Y-304350000D02*
X-305850000Y-304350000D01*
X-276750000Y-280450000D02*
X-274674035Y-282525965D01*
X-274674035Y-282525965D02*
X-274131826Y-282525965D01*
X-274131826Y-282525965D02*
X-274131826Y-274835624D01*
X-274131826Y-274835624D02*
X-275952119Y-273015331D01*
X-273100000Y-238800000D02*
X-270797363Y-241102637D01*
X-270797363Y-241102637D02*
X-270375777Y-241102637D01*
X-306900000Y-299400000D02*
X-305800000Y-299400000D01*
X-272196070Y-234388170D02*
X-272275300Y-234467400D01*
X-272275300Y-234467400D02*
X-271195800Y-235546900D01*
X-271195800Y-239860810D02*
X-271406702Y-240071712D01*
X-271195800Y-235546900D02*
X-271195800Y-239860810D01*
X-271406702Y-240071712D02*
X-270375777Y-241102637D01*
X-272196070Y-231592003D02*
X-272196070Y-234388170D01*
X-306900000Y-301862500D02*
X-305937500Y-301862500D01*
X-305937500Y-301862500D02*
X-305900000Y-301900000D01*
X-267100000Y-247500000D02*
X-265391504Y-249208496D01*
X-265391504Y-249208496D02*
X-265078545Y-249208496D01*
X-264668000Y-255054100D02*
X-264668000Y-252514100D01*
X-265078545Y-252103555D02*
X-265078545Y-249208496D01*
X-264668000Y-252514100D02*
X-265078545Y-252103555D01*
X-264845800Y-257131582D02*
X-264845800Y-255231900D01*
X-263258252Y-258719130D02*
X-264845800Y-257131582D01*
X-264845800Y-255231900D02*
X-264668000Y-255054100D01*
X-256140726Y-276335623D02*
X-257171651Y-275304698D01*
X-257171651Y-269116452D02*
X-257961019Y-268327084D01*
X-257961019Y-268327084D02*
X-257961019Y-266824989D01*
X-257171651Y-275304698D02*
X-257171651Y-269116452D01*
X-258800000Y-273800000D02*
X-256264377Y-276335623D01*
X-275876930Y-297800000D02*
X-275876930Y-296776930D01*
X-256264377Y-276335623D02*
X-256140726Y-276335623D01*
X-275876930Y-296776930D02*
X-275800000Y-296700000D01*
X-264265240Y-295200000D02*
X-259065685Y-295200000D01*
X-266865240Y-297800000D02*
X-264265240Y-295200000D01*
X-259065685Y-295200000D02*
X-258500000Y-295200000D01*
X-267719240Y-297800000D02*
X-266865240Y-297800000D01*
X-258474166Y-303230346D02*
X-258474166Y-304432427D01*
X-258474166Y-302874166D02*
X-258450000Y-302850000D01*
X-258474166Y-303230346D02*
X-258474166Y-302874166D01*
X-260502700Y-304052700D02*
X-260500000Y-304050000D01*
X-260502700Y-304758956D02*
X-260502700Y-304052700D01*
X-264900000Y-297800000D02*
X-263050000Y-295950000D01*
X-263050000Y-295950000D02*
X-260500000Y-295950000D01*
X-260502700Y-304758956D02*
X-260502700Y-305961037D01*
X-305687700Y-294400000D02*
X-305625500Y-294462200D01*
X-306900000Y-294400000D02*
X-305687700Y-294400000D01*
X-305920800Y-291900000D02*
X-305917600Y-291896800D01*
X-306900000Y-291900000D02*
X-305920800Y-291900000D01*
X-306900000Y-289400000D02*
X-305910000Y-289400000D01*
X-305910000Y-289400000D02*
X-305879500Y-289369500D01*
X-306900000Y-286850000D02*
X-305988900Y-286850000D01*
X-305988900Y-286850000D02*
X-305955700Y-286816800D01*
X-289892310Y-297800000D02*
X-289892310Y-296707690D01*
X-289892310Y-296707690D02*
X-290300000Y-296300000D01*
X-292711540Y-296811540D02*
X-292700000Y-296800000D01*
X-292711540Y-297800000D02*
X-292711540Y-296811540D01*
X-295530770Y-296730770D02*
X-295500000Y-296700000D01*
X-295530770Y-297800000D02*
X-295530770Y-296730770D01*
X-298350000Y-297800000D02*
X-298350000Y-296750000D01*
X-298350000Y-296750000D02*
X-298400000Y-296700000D01*
X-233279741Y-276620259D02*
X-233279741Y-280750504D01*
X-233279741Y-276010426D02*
X-233279741Y-276620259D01*
X-273057700Y-296442300D02*
X-273100000Y-296400000D01*
X-273057700Y-297800000D02*
X-273057700Y-296442300D01*
X-235100034Y-272688038D02*
X-235100034Y-274190133D01*
X-235100034Y-274190133D02*
X-233279741Y-276010426D01*
X-233279741Y-280750504D02*
X-233279741Y-282198672D01*
X-213790215Y-273528820D02*
X-213790215Y-277109785D01*
X-213790215Y-277109785D02*
X-213790215Y-278268898D01*
X-270238470Y-296538470D02*
X-270200000Y-296500000D01*
X-270238470Y-297800000D02*
X-270238470Y-296538470D01*
X-213790215Y-278268898D02*
X-213790215Y-279717066D01*
X-215610508Y-270206432D02*
X-215610508Y-271708527D01*
X-215610508Y-271708527D02*
X-213790215Y-273528820D01*
X-294820053Y-311679947D02*
X-324343461Y-311679947D01*
X-283500000Y-323000000D02*
X-294820053Y-311679947D01*
X-324343461Y-311679947D02*
X-324616452Y-311406956D01*
X-324616452Y-311406956D02*
X-325182137Y-311406956D01*
X-355955963Y-233591978D02*
X-346331819Y-233591978D01*
X-346331819Y-233591978D02*
X-341418251Y-238505546D01*
X-341418251Y-238505546D02*
X-336968459Y-238505546D01*
X-368473099Y-226266225D02*
X-363281716Y-226266225D01*
X-336968459Y-238505546D02*
X-336402774Y-238505546D01*
X-369323098Y-227116224D02*
X-368473099Y-226266225D01*
X-363281716Y-226266225D02*
X-355955963Y-233591978D01*
X-392645989Y-291004011D02*
X-368785024Y-314864976D01*
X-331867058Y-314864976D02*
X-328409038Y-311406956D01*
X-328409038Y-311406956D02*
X-325747822Y-311406956D01*
X-368785024Y-314864976D02*
X-331867058Y-314864976D01*
X-410392068Y-285900000D02*
X-405288057Y-291004011D01*
X-412700000Y-285900000D02*
X-410392068Y-285900000D01*
X-325747822Y-311406956D02*
X-325182137Y-311406956D01*
X-405288057Y-291004011D02*
X-392645989Y-291004011D01*
X-411550000Y-278750000D02*
X-413078718Y-280278718D01*
X-408177302Y-272527302D02*
X-411550000Y-275900000D01*
X-411550000Y-275900000D02*
X-411550000Y-278750000D01*
X-405256885Y-272527302D02*
X-408177302Y-272527302D01*
X-413078718Y-280278718D02*
X-413700444Y-280278718D01*
X-249008900Y-277350698D02*
X-249008900Y-284729675D01*
X-248161227Y-285577348D02*
X-247322345Y-286416230D01*
X-249008900Y-284729675D02*
X-248161227Y-285577348D01*
X-246633142Y-274974940D02*
X-249008900Y-277350698D01*
X-413450000Y-280529162D02*
X-413700444Y-280278718D01*
X-413450000Y-283350000D02*
X-413450000Y-280529162D01*
X-282807395Y-305146607D02*
X-283373080Y-305146607D01*
X-261519382Y-300083968D02*
X-266582021Y-305146607D01*
X-248161227Y-287255112D02*
X-248647180Y-287255112D01*
X-266582021Y-305146607D02*
X-282807395Y-305146607D01*
X-248647180Y-287255112D02*
X-261476035Y-300083967D01*
X-261476035Y-300083967D02*
X-261519382Y-300083968D01*
X-247322345Y-286416230D02*
X-248161227Y-287255112D01*
X-426995696Y-270045696D02*
X-427800000Y-270850000D01*
X-427800000Y-270850000D02*
X-432351089Y-275401089D01*
X-228900000Y-274249718D02*
X-228900000Y-281688909D01*
X-227832819Y-282756090D02*
X-227832819Y-283934624D01*
X-228900000Y-281688909D02*
X-227832819Y-282756090D01*
X-227143616Y-272493334D02*
X-228900000Y-274249718D01*
X-285528534Y-324528610D02*
X-297849799Y-312207345D01*
X-297849799Y-312207345D02*
X-325215954Y-312207345D01*
X-325215954Y-312207345D02*
X-325781639Y-312207345D01*
X-365587857Y-230650000D02*
X-364050000Y-230650000D01*
X-340900353Y-240949647D02*
X-337092687Y-240949647D01*
X-346895990Y-234954010D02*
X-340900353Y-240949647D01*
X-366968051Y-228067725D02*
X-366968051Y-229269806D01*
X-366968051Y-229269806D02*
X-365587857Y-230650000D01*
X-359745990Y-234954010D02*
X-346895990Y-234954010D01*
X-337092687Y-240949647D02*
X-336527002Y-240949647D01*
X-364050000Y-230650000D02*
X-359745990Y-234954010D01*
X-432351089Y-275401089D02*
X-432351089Y-276958230D01*
X-424746412Y-270045696D02*
X-426995696Y-270045696D01*
X-432351089Y-276958230D02*
X-433189971Y-277797112D01*
X-392834046Y-291458022D02*
X-368973081Y-315318987D01*
X-419650000Y-287050000D02*
X-409884136Y-287050000D01*
X-427450000Y-282700000D02*
X-423450000Y-285850000D01*
X-328567359Y-312207345D02*
X-326347324Y-312207345D01*
X-427800000Y-270850000D02*
X-427450000Y-271200000D01*
X-331679000Y-315318986D02*
X-328567359Y-312207345D01*
X-368973081Y-315318987D02*
X-331679000Y-315318986D01*
X-409884136Y-287050000D02*
X-405476114Y-291458022D01*
X-427450000Y-271200000D02*
X-427450000Y-282700000D01*
X-405476114Y-291458022D02*
X-392834046Y-291458022D01*
X-326347324Y-312207345D02*
X-325781639Y-312207345D01*
X-423450000Y-285850000D02*
X-419650000Y-287050000D01*
X-227832819Y-283934624D02*
X-233648195Y-289750000D01*
X-250500000Y-289750000D02*
X-261287978Y-300537978D01*
X-285000001Y-305549999D02*
X-285400000Y-305150000D01*
X-261287978Y-300537978D02*
X-261331324Y-300537978D01*
X-261331324Y-300537978D02*
X-266666963Y-305873617D01*
X-266666963Y-305873617D02*
X-284676383Y-305873617D01*
X-233648195Y-289750000D02*
X-250500000Y-289750000D01*
X-284676383Y-305873617D02*
X-285000001Y-305549999D01*
X-346519876Y-234045990D02*
X-341569875Y-238995989D01*
X-356144017Y-234045990D02*
X-346519876Y-234045990D01*
X-364613004Y-229019225D02*
X-363763005Y-228169226D01*
X-336949999Y-239500001D02*
X-336550000Y-239900000D01*
X-341569875Y-238995989D02*
X-337454011Y-238995989D01*
X-363763005Y-228169226D02*
X-362020781Y-228169226D01*
X-362020781Y-228169226D02*
X-356144017Y-234045990D01*
X-337454011Y-238995989D02*
X-336949999Y-239500001D01*
X-327114791Y-312934355D02*
X-327680476Y-312934355D01*
X-299477852Y-312934355D02*
X-327114791Y-312934355D01*
X-287557068Y-326057220D02*
X-287557068Y-324855139D01*
X-287557068Y-324855139D02*
X-299477852Y-312934355D01*
X-347899797Y-321752492D02*
X-347222140Y-322430149D01*
X-347222140Y-322430149D02*
X-347222140Y-324672140D01*
X-347222140Y-324672140D02*
X-350388095Y-327838095D01*
X-350388095Y-327838095D02*
X-352485627Y-327838095D01*
X-347899797Y-321752492D02*
X-346447305Y-320300000D01*
X-330115685Y-320300000D02*
X-329550000Y-320300000D01*
X-346447305Y-320300000D02*
X-330115685Y-320300000D01*
X-300015867Y-313700000D02*
X-289585603Y-324130264D01*
X-289585603Y-324130264D02*
X-289585603Y-326383749D01*
X-289585603Y-326383749D02*
X-289585603Y-327585830D01*
X-328750000Y-313700000D02*
X-300015867Y-313700000D01*
X-346707932Y-234500000D02*
X-341227745Y-239980187D01*
X-357728684Y-234499999D02*
X-346707932Y-234500000D01*
X-341227745Y-239980187D02*
X-338282754Y-239980187D01*
X-362257957Y-229970726D02*
X-357728684Y-234499999D01*
X-338282754Y-239980187D02*
X-337717069Y-239980187D01*
X-351495783Y-227756531D02*
X-351495783Y-229245783D01*
X-351495783Y-229245783D02*
X-351650001Y-229400001D01*
X-351650001Y-229400001D02*
X-352050000Y-229800000D01*
X-341660000Y-258050000D02*
X-348500000Y-258050000D01*
X-330140000Y-269570000D02*
X-341660000Y-258050000D01*
X-348500000Y-258050000D02*
X-352381232Y-254168768D01*
X-356217941Y-254168768D02*
X-357287275Y-255238102D01*
X-352381232Y-254168768D02*
X-356217941Y-254168768D01*
X-366659395Y-270600000D02*
X-366750001Y-270600000D01*
X-364404800Y-272854595D02*
X-366659395Y-270600000D01*
X-352100000Y-237465685D02*
X-351944076Y-237621609D01*
X-351944076Y-237621609D02*
X-351671845Y-237621609D01*
X-351671845Y-237621609D02*
X-350169750Y-237621609D01*
X-352100000Y-236900000D02*
X-352100000Y-237465685D01*
X-365730834Y-262989518D02*
X-366569716Y-263828400D01*
X-366569716Y-265419716D02*
X-367300000Y-266150000D01*
X-366569716Y-263828400D02*
X-366569716Y-265419716D01*
X-358025377Y-254500000D02*
X-357287275Y-255238102D01*
X-359450000Y-254500000D02*
X-358025377Y-254500000D01*
X-383650000Y-289100000D02*
X-379250000Y-289100000D01*
X-379250000Y-289100000D02*
X-379200000Y-289050000D01*
X-350656901Y-226917649D02*
X-351495783Y-227756531D01*
X-350656901Y-224656901D02*
X-350656901Y-226917649D01*
X-343052224Y-220005115D02*
X-346005115Y-220005115D01*
X-346005115Y-220005115D02*
X-350656901Y-224656901D01*
X-372009477Y-277909477D02*
X-372009477Y-279767129D01*
X-366954595Y-272854595D02*
X-372009477Y-277909477D01*
X-372009477Y-279767129D02*
X-372848359Y-280606011D01*
X-364404800Y-272854595D02*
X-366954595Y-272854595D01*
X-294602753Y-257685739D02*
X-296900000Y-259982986D01*
X-296900000Y-266340451D02*
X-295291956Y-267948495D01*
X-296900000Y-259982986D02*
X-296900000Y-266340451D01*
X-295291956Y-267948495D02*
X-295291956Y-269127029D01*
X-309527006Y-232715509D02*
X-309527006Y-233894043D01*
X-308837803Y-222452753D02*
X-311000000Y-224614950D01*
X-311000000Y-224614950D02*
X-311000000Y-231242515D01*
X-311000000Y-231242515D02*
X-309527006Y-232715509D01*
X-302409481Y-252190519D02*
X-296914261Y-257685739D01*
X-302409481Y-251510536D02*
X-302409481Y-252190519D01*
X-296914261Y-257685739D02*
X-294602753Y-257685739D01*
X-295291956Y-269127029D02*
X-289116752Y-275302233D01*
X-289116752Y-275302233D02*
X-287485227Y-275302233D01*
X-288174430Y-285564989D02*
X-288174430Y-286743523D01*
X-287485227Y-275302233D02*
X-289700000Y-277517006D01*
X-289700000Y-284039419D02*
X-288174430Y-285564989D01*
X-289700000Y-277517006D02*
X-289700000Y-284039419D01*
X-303800000Y-242148968D02*
X-303800000Y-248941483D01*
X-303800000Y-248941483D02*
X-302409481Y-250332002D01*
X-302409481Y-250332002D02*
X-302409481Y-251510536D01*
X-301720278Y-240069246D02*
X-303800000Y-242148968D01*
X-359113309Y-245813309D02*
X-359113309Y-248663309D01*
X-358673025Y-245373025D02*
X-359113309Y-245813309D01*
X-359113309Y-248663309D02*
X-359950000Y-249500000D01*
X-358613309Y-245373025D02*
X-358673025Y-245373025D01*
X-256445632Y-302903817D02*
X-256445632Y-302254368D01*
X-372848359Y-280606011D02*
X-372848359Y-283248359D01*
X-372848359Y-283248359D02*
X-373550000Y-283950000D01*
X-309527006Y-233894043D02*
X-303351803Y-240069246D01*
X-303351803Y-240069246D02*
X-301720278Y-240069246D01*
X-360227286Y-256307436D02*
X-365730834Y-261810984D01*
X-365730834Y-261810984D02*
X-365730834Y-262989518D01*
X-358356609Y-256307436D02*
X-360227286Y-256307436D01*
X-357287275Y-255238102D02*
X-358356609Y-256307436D01*
X-328848201Y-310225935D02*
X-328897125Y-310177011D01*
X-328897125Y-310177011D02*
X-329297124Y-310577010D01*
X-256445632Y-302903817D02*
X-257649449Y-301700000D01*
X-290019303Y-307035637D02*
X-293209601Y-310225935D01*
X-281867953Y-293050000D02*
X-288174430Y-286743523D01*
X-257649449Y-301700000D02*
X-260850000Y-301700000D01*
X-256550000Y-293800000D02*
X-257300000Y-293050000D01*
X-257300000Y-293050000D02*
X-281867953Y-293050000D01*
X-266185636Y-307035636D02*
X-290019303Y-307035637D01*
X-293209601Y-310225935D02*
X-328848201Y-310225935D01*
X-260850000Y-301700000D02*
X-266185636Y-307035636D01*
X-357774427Y-242224427D02*
X-357774427Y-244534143D01*
X-351671845Y-237621609D02*
X-353171609Y-237621609D01*
X-353171609Y-237621609D02*
X-357774427Y-242224427D01*
X-357774427Y-244534143D02*
X-358613309Y-245373025D01*
X-390655129Y-274600000D02*
X-390839459Y-274415670D01*
X-383465234Y-267733588D02*
X-385933588Y-267733588D01*
X-382395900Y-266664254D02*
X-383465234Y-267733588D01*
X-390200000Y-274600000D02*
X-390655129Y-274600000D01*
X-388400000Y-272800000D02*
X-390200000Y-274600000D01*
X-388400000Y-270200000D02*
X-388400000Y-272800000D01*
X-385933588Y-267733588D02*
X-388400000Y-270200000D01*
X-383750000Y-258148976D02*
X-383619942Y-258018918D01*
X-383619942Y-258018918D02*
X-383619942Y-256840384D01*
X-384950000Y-264110154D02*
X-384950000Y-261900000D01*
X-384950000Y-261900000D02*
X-383750000Y-260700000D01*
X-382395900Y-266664254D02*
X-384950000Y-264110154D01*
X-383750000Y-260700000D02*
X-383750000Y-258148976D01*
X-292600000Y-225461074D02*
X-291535906Y-226525168D01*
X-292600000Y-218015709D02*
X-292600000Y-225461074D01*
X-290846703Y-216262412D02*
X-292600000Y-218015709D01*
X-291535906Y-226525168D02*
X-291535906Y-227703702D01*
X-284418381Y-244141661D02*
X-284418381Y-245320195D01*
X-285300000Y-235449727D02*
X-285300000Y-243260042D01*
X-285300000Y-243260042D02*
X-284418381Y-244141661D01*
X-283729178Y-233878905D02*
X-285300000Y-235449727D01*
X-265736511Y-285000000D02*
X-270183330Y-280553181D01*
X-264000000Y-285000000D02*
X-265736511Y-285000000D01*
X-328324096Y-310679946D02*
X-324320054Y-310679946D01*
X-324320054Y-310679946D02*
X-324047055Y-310952945D01*
X-376850000Y-304200000D02*
X-376850000Y-306150000D01*
X-332055115Y-314410965D02*
X-328324096Y-310679946D01*
X-317507664Y-310952945D02*
X-316941979Y-310952945D01*
X-368589035Y-314410965D02*
X-332055115Y-314410965D01*
X-376850000Y-306150000D02*
X-368589035Y-314410965D01*
X-324047055Y-310952945D02*
X-317507664Y-310952945D01*
X-284418381Y-245320195D02*
X-284418381Y-245781619D01*
X-278704602Y-251495398D02*
X-276611653Y-251495398D01*
X-284418381Y-245781619D02*
X-278704602Y-251495398D01*
X-369128192Y-230403140D02*
X-368058858Y-231472474D01*
X-370650000Y-228881332D02*
X-369128192Y-230403140D01*
X-369250000Y-221742289D02*
X-369250000Y-225250000D01*
X-369250000Y-225250000D02*
X-370650000Y-226650000D01*
X-369384892Y-221607397D02*
X-369250000Y-221742289D01*
X-370650000Y-226650000D02*
X-370650000Y-228881332D01*
X-278550000Y-260509010D02*
X-277300856Y-261758154D01*
X-276611653Y-251495398D02*
X-278550000Y-253433745D01*
X-278550000Y-253433745D02*
X-278550000Y-260509010D01*
X-277300856Y-261758154D02*
X-277300856Y-262936688D01*
X-377288968Y-249088968D02*
X-381200000Y-253000000D01*
X-381200000Y-253000000D02*
X-381200000Y-255250000D01*
X-375176383Y-249088968D02*
X-377288968Y-249088968D01*
X-381200000Y-255250000D02*
X-382700000Y-256750000D01*
X-382700000Y-256750000D02*
X-383529558Y-256750000D01*
X-383529558Y-256750000D02*
X-383619942Y-256840384D01*
X-390839459Y-278410541D02*
X-390700000Y-278550000D01*
X-390839459Y-274415670D02*
X-390839459Y-278410541D01*
X-291535906Y-227703702D02*
X-289904381Y-227703702D01*
X-289904381Y-227703702D02*
X-283729178Y-233878905D01*
X-316376294Y-310952945D02*
X-316941979Y-310952945D01*
X-293294543Y-310952945D02*
X-316376294Y-310952945D01*
X-289831245Y-307489647D02*
X-293294543Y-310952945D01*
X-262531235Y-307489647D02*
X-289831245Y-307489647D01*
X-271437100Y-279299411D02*
X-271022212Y-279714299D01*
X-271022212Y-279714299D02*
X-270183330Y-280553181D01*
X-269494127Y-269111891D02*
X-271437100Y-271054864D01*
X-271437100Y-271054864D02*
X-271437100Y-279299411D01*
X-277300856Y-262936688D02*
X-275669330Y-262936688D01*
X-275669330Y-262936688D02*
X-269494127Y-269111891D01*
X-374150000Y-235500000D02*
X-374150000Y-237100000D01*
X-374150000Y-237100000D02*
X-376273890Y-239223890D01*
X-368058858Y-231472474D02*
X-370122474Y-231472474D01*
X-376273890Y-239223890D02*
X-376502417Y-239223890D01*
X-370122474Y-231472474D02*
X-374150000Y-235500000D01*
X-376350000Y-242600000D02*
X-377950000Y-244200000D01*
X-376350000Y-239376307D02*
X-376350000Y-242600000D01*
X-376502417Y-239223890D02*
X-376350000Y-239376307D01*
X-377950000Y-244200000D02*
X-377950000Y-246315351D01*
X-377950000Y-246315351D02*
X-376245717Y-248019634D01*
X-376245717Y-248019634D02*
X-375176383Y-249088968D01*
X-360941333Y-213855981D02*
X-363055981Y-213855981D01*
X-368150000Y-221200000D02*
X-368977495Y-221200000D01*
X-368977495Y-221200000D02*
X-369384892Y-221607397D01*
X-366650000Y-219700000D02*
X-368150000Y-221200000D01*
X-363055981Y-213855981D02*
X-366650000Y-217450000D01*
X-366650000Y-217450000D02*
X-366650000Y-219700000D01*
X-304350000Y-317112500D02*
X-306414070Y-315048430D01*
X-326313093Y-315048430D02*
X-326878778Y-315048430D01*
X-306414070Y-315048430D02*
X-326313093Y-315048430D01*
X-302833490Y-315595990D02*
X-298761942Y-315595990D01*
X-304350000Y-317112500D02*
X-302833490Y-315595990D01*
X-294840045Y-319517887D02*
X-294840045Y-324608103D01*
X-298761942Y-315595990D02*
X-294840045Y-319517887D01*
X-294840045Y-324608103D02*
X-294840045Y-325810184D01*
X-302350000Y-317100000D02*
X-303417999Y-318167999D01*
X-303417999Y-318167999D02*
X-323530330Y-318167999D01*
X-325652339Y-316045990D02*
X-326243115Y-316045990D01*
X-326243115Y-316045990D02*
X-326808800Y-316045990D01*
X-323530330Y-318167999D02*
X-325652339Y-316045990D01*
X-302350000Y-317100000D02*
X-301300000Y-316050000D01*
X-301300000Y-316050000D02*
X-298950000Y-316050000D01*
X-296368655Y-322579569D02*
X-296368655Y-323781650D01*
X-298950000Y-316050000D02*
X-296368655Y-318631345D01*
X-296368655Y-318631345D02*
X-296368655Y-322579569D01*
D29*
X-304350000Y-318987500D02*
X-302362500Y-318987500D01*
X-302362500Y-318987500D02*
X-302350000Y-318975000D01*
X-302350000Y-318975000D02*
X-302350000Y-320250000D01*
X-302350000Y-320250000D02*
X-302400000Y-320300000D01*
D30*
X-340000000Y-302250000D02*
X-343100000Y-302250000D01*
X-335850000Y-293150000D02*
X-335850000Y-298100000D01*
X-335850000Y-298100000D02*
X-340000000Y-302250000D01*
X-334807400Y-292107400D02*
X-335850000Y-293150000D01*
X-334723500Y-292107400D02*
X-334807400Y-292107400D01*
X-343100000Y-302250000D02*
X-343954000Y-302250000D01*
X-343954000Y-302250000D02*
X-350900000Y-302250000D01*
X-336550000Y-274837900D02*
X-336550000Y-290664900D01*
X-335107500Y-292107400D02*
X-334723500Y-292107400D01*
X-334723500Y-272157400D02*
X-334723500Y-273011400D01*
X-336550000Y-290664900D02*
X-335107500Y-292107400D01*
X-334723500Y-273011400D02*
X-336550000Y-274837900D01*
X-334676100Y-272110000D02*
X-334723500Y-272157400D01*
X-330140000Y-272110000D02*
X-334676100Y-272110000D01*
X-353450000Y-302250000D02*
X-361250000Y-302250000D01*
X-334019500Y-287107400D02*
X-333300000Y-287826900D01*
X-334297400Y-294597400D02*
X-334723500Y-294597400D01*
X-333300000Y-293600000D02*
X-334297400Y-294597400D01*
X-333300000Y-287826900D02*
X-333300000Y-293600000D01*
X-334723500Y-287107400D02*
X-334019500Y-287107400D01*
X-334723500Y-294597400D02*
X-334002600Y-294597400D01*
X-334002600Y-294597400D02*
X-333400000Y-295200000D01*
X-333400000Y-304300000D02*
X-352104000Y-304300000D01*
X-353450000Y-302954000D02*
X-353450000Y-302250000D01*
X-352104000Y-304300000D02*
X-353450000Y-302954000D01*
X-333273400Y-277723600D02*
X-333273400Y-286361300D01*
X-332739800Y-277190000D02*
X-333273400Y-277723600D01*
X-330140000Y-277190000D02*
X-332739800Y-277190000D01*
X-333273400Y-286361300D02*
X-334019500Y-287107400D01*
X-366595455Y-302250000D02*
X-366595455Y-307427275D01*
X-366595455Y-307427275D02*
X-366122730Y-307900000D01*
X-358786359Y-307900000D02*
X-366122730Y-307900000D01*
X-366595455Y-302250000D02*
X-369040909Y-302250000D01*
X-318108023Y-309366044D02*
X-317341978Y-308599999D01*
X-357932359Y-307900000D02*
X-356466315Y-309366044D01*
X-317341978Y-308599999D02*
X-316941979Y-308200000D01*
X-356466315Y-309366044D02*
X-318108023Y-309366044D01*
X-358786359Y-307900000D02*
X-357932359Y-307900000D01*
X-371486363Y-302250000D02*
X-378822725Y-302250000D01*
X-356250000Y-307900000D02*
X-356250000Y-307200000D01*
X-371486363Y-302086363D02*
X-371486363Y-302250000D01*
X-370550000Y-301150000D02*
X-371486363Y-302086363D01*
X-365700000Y-301150000D02*
X-370550000Y-301150000D01*
X-360650000Y-306200000D02*
X-365700000Y-301150000D01*
X-357250000Y-306200000D02*
X-360650000Y-306200000D01*
X-356250000Y-307200000D02*
X-357250000Y-306200000D01*
X-355396000Y-307900000D02*
X-352545999Y-305049999D01*
X-356250000Y-307900000D02*
X-355396000Y-307900000D01*
X-317492695Y-304900000D02*
X-316927010Y-304900000D01*
X-317642694Y-305049999D02*
X-317492695Y-304900000D01*
X-352545999Y-305049999D02*
X-317642694Y-305049999D01*
X-311353200Y-285953200D02*
X-310456400Y-286850000D01*
X-310456400Y-286850000D02*
X-310200000Y-286850000D01*
X-310200000Y-272450000D02*
X-311353200Y-273603200D01*
X-310200000Y-272300000D02*
X-310200000Y-272450000D01*
X-311353200Y-273603200D02*
X-311353200Y-285953200D01*
X-310200000Y-272300000D02*
X-310400000Y-272300000D01*
X-313370000Y-267030000D02*
X-314900000Y-267030000D01*
X-310400000Y-272300000D02*
X-311734200Y-270965800D01*
X-311734200Y-270965800D02*
X-311734200Y-268665800D01*
X-311734200Y-268665800D02*
X-313370000Y-267030000D01*
X-310200000Y-287704000D02*
X-310200000Y-294400000D01*
X-310200000Y-286850000D02*
X-310200000Y-287704000D01*
X-308889400Y-295490900D02*
X-308889400Y-298411900D01*
X-309877500Y-299400000D02*
X-310200000Y-299400000D01*
X-308889400Y-298411900D02*
X-309877500Y-299400000D01*
X-310200000Y-294400000D02*
X-309980300Y-294400000D01*
X-309980300Y-294400000D02*
X-308889400Y-295490900D01*
X-311238900Y-297713400D02*
X-311238900Y-301129700D01*
X-310425500Y-296900000D02*
X-311238900Y-297713400D01*
X-310506100Y-301862500D02*
X-310200000Y-301862500D01*
X-310200000Y-296900000D02*
X-310425500Y-296900000D01*
X-311238900Y-301129700D02*
X-310506100Y-301862500D01*
X-311810400Y-272659600D02*
X-311810400Y-295554400D01*
X-311810400Y-295554400D02*
X-310464800Y-296900000D01*
X-314900000Y-269570000D02*
X-311810400Y-272659600D01*
X-310464800Y-296900000D02*
X-310200000Y-296900000D01*
X-289892310Y-301100000D02*
X-290746310Y-301100000D01*
X-290746310Y-301100000D02*
X-298350000Y-301100000D01*
X-309400000Y-303000000D02*
X-310200000Y-302200000D01*
X-310200000Y-302200000D02*
X-310200000Y-301862500D01*
X-298350000Y-301100000D02*
X-298350000Y-301804000D01*
X-298350000Y-301804000D02*
X-299546000Y-303000000D01*
X-299546000Y-303000000D02*
X-309400000Y-303000000D01*
X-334723500Y-274657400D02*
X-334723500Y-284602952D01*
X-334723500Y-284602952D02*
X-335072752Y-284602952D01*
X-335029400Y-289607400D02*
X-334723500Y-289607400D01*
X-335813400Y-288823400D02*
X-335029400Y-289607400D01*
X-335072752Y-284602952D02*
X-335813400Y-285343600D01*
X-335813400Y-285343600D02*
X-335813400Y-288823400D01*
X-330140000Y-274650000D02*
X-334716100Y-274650000D01*
X-334716100Y-274650000D02*
X-334723500Y-274657400D01*
X-338997048Y-284602952D02*
X-339000000Y-284600000D01*
X-338023500Y-284602952D02*
X-338997048Y-284602952D01*
X-338995936Y-282104064D02*
X-339000000Y-282100000D01*
X-338023500Y-282104064D02*
X-338995936Y-282104064D01*
X-338994824Y-279605176D02*
X-339000000Y-279600000D01*
X-338023500Y-279605176D02*
X-338994824Y-279605176D01*
X-338023500Y-277106288D02*
X-339093712Y-277106288D01*
X-339093712Y-277106288D02*
X-339100000Y-277100000D01*
X-338992600Y-289607400D02*
X-339000000Y-289600000D01*
X-338023500Y-289607400D02*
X-338992600Y-289607400D01*
X-351056494Y-223031119D02*
X-356353726Y-228328351D01*
X-351056494Y-220222492D02*
X-351056494Y-223031119D01*
X-338023500Y-274657400D02*
X-339042600Y-274657400D01*
X-339042600Y-274657400D02*
X-339100000Y-274600000D01*
X-339400000Y-235412868D02*
X-338464617Y-234477485D01*
X-339400000Y-236600000D02*
X-339400000Y-235412868D01*
X-337433692Y-233446560D02*
X-338464617Y-234477485D01*
X-333167385Y-226371626D02*
X-334236719Y-227440960D01*
X-334236719Y-227440960D02*
X-334236719Y-230249587D01*
X-334236719Y-230249587D02*
X-337433692Y-233446560D01*
X-356250000Y-311200000D02*
X-356250000Y-312200000D01*
X-297304695Y-220165851D02*
X-297304695Y-221667946D01*
X-297304695Y-221667946D02*
X-295484402Y-223488239D01*
X-295484402Y-228228317D02*
X-295484402Y-229676485D01*
X-295484402Y-223488239D02*
X-295484402Y-228228317D01*
X-305905300Y-269850000D02*
X-305600100Y-269544800D01*
X-306900000Y-269850000D02*
X-305905300Y-269850000D01*
X-314100001Y-265289999D02*
X-314900000Y-264490000D01*
X-310200000Y-269190000D02*
X-314100001Y-265289999D01*
X-310200000Y-269850000D02*
X-310200000Y-269190000D01*
X-309496000Y-269850000D02*
X-309118000Y-270228000D01*
X-310200000Y-269850000D02*
X-309496000Y-269850000D01*
X-309776600Y-274750000D02*
X-310200000Y-274750000D01*
X-309118000Y-270228000D02*
X-309118000Y-274091400D01*
X-309118000Y-274091400D02*
X-309776600Y-274750000D01*
X-310200000Y-274750000D02*
X-310200000Y-284400000D01*
X-349428407Y-323781026D02*
X-349428407Y-323771593D01*
X-353750000Y-311200000D02*
X-353750000Y-312300000D01*
X-280325001Y-222174999D02*
X-280725000Y-221775000D01*
X-279013856Y-223486144D02*
X-280325001Y-222174999D01*
X-277493302Y-223486144D02*
X-279013856Y-223486144D01*
X-279313595Y-215477605D02*
X-279100000Y-215691200D01*
X-279313595Y-213975510D02*
X-279313595Y-215477605D01*
X-279100000Y-215691200D02*
X-279100000Y-220431278D01*
X-279100000Y-220431278D02*
X-277493302Y-222037976D01*
X-277493302Y-222037976D02*
X-277493302Y-223486144D01*
X-306900000Y-284400000D02*
X-306002700Y-284400000D01*
X-306002700Y-284400000D02*
X-305955700Y-284353000D01*
X-305902200Y-281950000D02*
X-305892200Y-281940000D01*
X-306900000Y-281950000D02*
X-305902200Y-281950000D01*
X-306900000Y-279550000D02*
X-305889800Y-279550000D01*
X-305889800Y-279550000D02*
X-305879500Y-279539700D01*
X-305945100Y-277150000D02*
X-305943000Y-277152100D01*
X-306900000Y-277150000D02*
X-305945100Y-277150000D01*
X-305877700Y-274750000D02*
X-305866800Y-274739100D01*
X-306900000Y-274750000D02*
X-305877700Y-274750000D01*
X-278615390Y-297800000D02*
X-278615390Y-296884610D01*
X-278615390Y-296884610D02*
X-278700000Y-296800000D01*
X-281434620Y-297800000D02*
X-281434620Y-296765380D01*
X-281434620Y-296765380D02*
X-281500000Y-296700000D01*
X-284253850Y-297800000D02*
X-284253850Y-296646150D01*
X-284253850Y-296646150D02*
X-284300000Y-296600000D01*
X-287073080Y-297800000D02*
X-287073080Y-296626920D01*
X-287073080Y-296626920D02*
X-287100000Y-296600000D01*
X-312718420Y-276831580D02*
X-312718420Y-303470182D01*
X-314900000Y-274650000D02*
X-312718420Y-276831580D01*
X-270238470Y-301100000D02*
X-273057700Y-301100000D01*
X-352300000Y-305900000D02*
X-353750000Y-307350000D01*
X-353750000Y-307350000D02*
X-353750000Y-307900000D01*
X-315148238Y-305900000D02*
X-352300000Y-305900000D01*
X-312718420Y-303470182D02*
X-315148238Y-305900000D01*
X-264900000Y-301100000D02*
X-270238470Y-301100000D01*
X-312718420Y-303470182D02*
X-307124689Y-309063913D01*
X-273911700Y-301100000D02*
X-273057700Y-301100000D01*
X-289046617Y-304419605D02*
X-277231305Y-304419605D01*
X-277231305Y-304419605D02*
X-273911700Y-301100000D01*
X-307124689Y-309063913D02*
X-293690925Y-309063913D01*
X-293690925Y-309063913D02*
X-289046617Y-304419605D01*
X-287073080Y-301100000D02*
X-287927080Y-301100000D01*
X-295436982Y-308609902D02*
X-305236098Y-308609902D01*
X-275876930Y-301100000D02*
X-287073080Y-301100000D01*
X-305236098Y-308609902D02*
X-309496000Y-304350000D01*
X-287927080Y-301100000D02*
X-295436982Y-308609902D01*
X-309496000Y-304350000D02*
X-310200000Y-304350000D01*
X-312264410Y-302758590D02*
X-310673000Y-304350000D01*
X-314900000Y-272110000D02*
X-312264410Y-274745590D01*
X-310673000Y-304350000D02*
X-310200000Y-304350000D01*
X-312264410Y-274745590D02*
X-312264410Y-302758590D01*
M02*
