G04 #@! TF.GenerationSoftware,KiCad,Pcbnew,(5.1.4)-1*
G04 #@! TF.CreationDate,2023-10-04T20:41:25-04:00*
G04 #@! TF.ProjectId,ThumbsUp,5468756d-6273-4557-902e-6b696361645f,rev?*
G04 #@! TF.SameCoordinates,Original*
G04 #@! TF.FileFunction,Paste,Bot*
G04 #@! TF.FilePolarity,Positive*
%FSLAX46Y46*%
G04 Gerber Fmt 4.6, Leading zero omitted, Abs format (unit mm)*
G04 Created by KiCad (PCBNEW (5.1.4)-1) date 2023-10-04 20:41:25*
%MOMM*%
%LPD*%
G04 APERTURE LIST*
%ADD10R,0.900000X1.200000*%
%ADD11R,1.200000X0.900000*%
%ADD12C,0.100000*%
%ADD13C,0.975000*%
%ADD14C,2.600000*%
%ADD15C,2.500000*%
%ADD16C,2.000000*%
G04 APERTURE END LIST*
D10*
X-306900000Y-274750000D03*
X-310200000Y-274750000D03*
D11*
X-356050000Y-298950000D03*
X-356050000Y-302250000D03*
X-358650000Y-298950000D03*
X-358650000Y-302250000D03*
D10*
X-338023500Y-272157400D03*
X-334723500Y-272157400D03*
D11*
X-275876930Y-297800000D03*
X-275876930Y-301100000D03*
X-366595455Y-298950000D03*
X-366595455Y-302250000D03*
D10*
X-306900000Y-291900000D03*
X-310200000Y-291900000D03*
D11*
X-363677267Y-311200000D03*
X-363677267Y-307900000D03*
D10*
X-306900000Y-304350000D03*
X-310200000Y-304350000D03*
D11*
X-298350000Y-297800000D03*
X-298350000Y-301100000D03*
X-281434620Y-297800000D03*
X-281434620Y-301100000D03*
X-371486363Y-298950000D03*
X-371486363Y-302250000D03*
D10*
X-338023500Y-294597400D03*
X-334723500Y-294597400D03*
D11*
X-270238470Y-297800000D03*
X-270238470Y-301100000D03*
D10*
X-338023500Y-282104064D03*
X-334723500Y-282104064D03*
X-306900000Y-299400000D03*
X-310200000Y-299400000D03*
D11*
X-289892310Y-297800000D03*
X-289892310Y-301100000D03*
D10*
X-306900000Y-301862500D03*
X-310200000Y-301862500D03*
D11*
X-358786359Y-311200000D03*
X-358786359Y-307900000D03*
X-366122730Y-311200000D03*
X-366122730Y-307900000D03*
X-373931817Y-298950000D03*
X-373931817Y-302250000D03*
D10*
X-338023500Y-292107400D03*
X-334723500Y-292107400D03*
D11*
X-376377271Y-298950000D03*
X-376377271Y-302250000D03*
X-350900000Y-298950000D03*
X-350900000Y-302250000D03*
X-345700000Y-298950000D03*
X-345700000Y-302250000D03*
X-348300000Y-298950000D03*
X-348300000Y-302250000D03*
X-343100000Y-298950000D03*
X-343100000Y-302250000D03*
X-361250000Y-298950000D03*
X-361250000Y-302250000D03*
X-353450000Y-298950000D03*
X-353450000Y-302250000D03*
X-369040909Y-298950000D03*
X-369040909Y-302250000D03*
X-361231813Y-311200000D03*
X-361231813Y-307900000D03*
X-378822725Y-298950000D03*
X-378822725Y-302250000D03*
D10*
X-338023500Y-287107400D03*
X-334723500Y-287107400D03*
X-306900000Y-272300000D03*
X-310200000Y-272300000D03*
X-306900000Y-296900000D03*
X-310200000Y-296900000D03*
D11*
X-267719240Y-297800000D03*
X-267719240Y-301100000D03*
X-264900000Y-297800000D03*
X-264900000Y-301100000D03*
D10*
X-306900000Y-294400000D03*
X-310200000Y-294400000D03*
X-306900000Y-289400000D03*
X-310200000Y-289400000D03*
X-306900000Y-286850000D03*
X-310200000Y-286850000D03*
D11*
X-292711540Y-297800000D03*
X-292711540Y-301100000D03*
X-295530770Y-297800000D03*
X-295530770Y-301100000D03*
X-278615390Y-297800000D03*
X-278615390Y-301100000D03*
X-284253850Y-297800000D03*
X-284253850Y-301100000D03*
X-287073080Y-297800000D03*
X-287073080Y-301100000D03*
X-273057700Y-297800000D03*
X-273057700Y-301100000D03*
D10*
X-338023500Y-284602952D03*
X-334723500Y-284602952D03*
X-338023500Y-279605176D03*
X-334723500Y-279605176D03*
X-338023500Y-274657400D03*
X-334723500Y-274657400D03*
X-306900000Y-269850000D03*
X-310200000Y-269850000D03*
D11*
X-353750000Y-311200000D03*
X-353750000Y-307900000D03*
D10*
X-306900000Y-284400000D03*
X-310200000Y-284400000D03*
D11*
X-356250000Y-311200000D03*
X-356250000Y-307900000D03*
D10*
X-306900000Y-281950000D03*
X-310200000Y-281950000D03*
X-306900000Y-279550000D03*
X-310200000Y-279550000D03*
X-338023500Y-289607400D03*
X-334723500Y-289607400D03*
X-306900000Y-277150000D03*
X-310200000Y-277150000D03*
X-338023500Y-277106288D03*
X-334723500Y-277106288D03*
D12*
G36*
X-303869858Y-318501174D02*
G01*
X-303846197Y-318504684D01*
X-303822993Y-318510496D01*
X-303800471Y-318518554D01*
X-303778847Y-318528782D01*
X-303758330Y-318541079D01*
X-303739117Y-318555329D01*
X-303721393Y-318571393D01*
X-303705329Y-318589117D01*
X-303691079Y-318608330D01*
X-303678782Y-318628847D01*
X-303668554Y-318650471D01*
X-303660496Y-318672993D01*
X-303654684Y-318696197D01*
X-303651174Y-318719858D01*
X-303650000Y-318743750D01*
X-303650000Y-319231250D01*
X-303651174Y-319255142D01*
X-303654684Y-319278803D01*
X-303660496Y-319302007D01*
X-303668554Y-319324529D01*
X-303678782Y-319346153D01*
X-303691079Y-319366670D01*
X-303705329Y-319385883D01*
X-303721393Y-319403607D01*
X-303739117Y-319419671D01*
X-303758330Y-319433921D01*
X-303778847Y-319446218D01*
X-303800471Y-319456446D01*
X-303822993Y-319464504D01*
X-303846197Y-319470316D01*
X-303869858Y-319473826D01*
X-303893750Y-319475000D01*
X-304806250Y-319475000D01*
X-304830142Y-319473826D01*
X-304853803Y-319470316D01*
X-304877007Y-319464504D01*
X-304899529Y-319456446D01*
X-304921153Y-319446218D01*
X-304941670Y-319433921D01*
X-304960883Y-319419671D01*
X-304978607Y-319403607D01*
X-304994671Y-319385883D01*
X-305008921Y-319366670D01*
X-305021218Y-319346153D01*
X-305031446Y-319324529D01*
X-305039504Y-319302007D01*
X-305045316Y-319278803D01*
X-305048826Y-319255142D01*
X-305050000Y-319231250D01*
X-305050000Y-318743750D01*
X-305048826Y-318719858D01*
X-305045316Y-318696197D01*
X-305039504Y-318672993D01*
X-305031446Y-318650471D01*
X-305021218Y-318628847D01*
X-305008921Y-318608330D01*
X-304994671Y-318589117D01*
X-304978607Y-318571393D01*
X-304960883Y-318555329D01*
X-304941670Y-318541079D01*
X-304921153Y-318528782D01*
X-304899529Y-318518554D01*
X-304877007Y-318510496D01*
X-304853803Y-318504684D01*
X-304830142Y-318501174D01*
X-304806250Y-318500000D01*
X-303893750Y-318500000D01*
X-303869858Y-318501174D01*
X-303869858Y-318501174D01*
G37*
D13*
X-304350000Y-318987500D03*
D12*
G36*
X-303869858Y-316626174D02*
G01*
X-303846197Y-316629684D01*
X-303822993Y-316635496D01*
X-303800471Y-316643554D01*
X-303778847Y-316653782D01*
X-303758330Y-316666079D01*
X-303739117Y-316680329D01*
X-303721393Y-316696393D01*
X-303705329Y-316714117D01*
X-303691079Y-316733330D01*
X-303678782Y-316753847D01*
X-303668554Y-316775471D01*
X-303660496Y-316797993D01*
X-303654684Y-316821197D01*
X-303651174Y-316844858D01*
X-303650000Y-316868750D01*
X-303650000Y-317356250D01*
X-303651174Y-317380142D01*
X-303654684Y-317403803D01*
X-303660496Y-317427007D01*
X-303668554Y-317449529D01*
X-303678782Y-317471153D01*
X-303691079Y-317491670D01*
X-303705329Y-317510883D01*
X-303721393Y-317528607D01*
X-303739117Y-317544671D01*
X-303758330Y-317558921D01*
X-303778847Y-317571218D01*
X-303800471Y-317581446D01*
X-303822993Y-317589504D01*
X-303846197Y-317595316D01*
X-303869858Y-317598826D01*
X-303893750Y-317600000D01*
X-304806250Y-317600000D01*
X-304830142Y-317598826D01*
X-304853803Y-317595316D01*
X-304877007Y-317589504D01*
X-304899529Y-317581446D01*
X-304921153Y-317571218D01*
X-304941670Y-317558921D01*
X-304960883Y-317544671D01*
X-304978607Y-317528607D01*
X-304994671Y-317510883D01*
X-305008921Y-317491670D01*
X-305021218Y-317471153D01*
X-305031446Y-317449529D01*
X-305039504Y-317427007D01*
X-305045316Y-317403803D01*
X-305048826Y-317380142D01*
X-305050000Y-317356250D01*
X-305050000Y-316868750D01*
X-305048826Y-316844858D01*
X-305045316Y-316821197D01*
X-305039504Y-316797993D01*
X-305031446Y-316775471D01*
X-305021218Y-316753847D01*
X-305008921Y-316733330D01*
X-304994671Y-316714117D01*
X-304978607Y-316696393D01*
X-304960883Y-316680329D01*
X-304941670Y-316666079D01*
X-304921153Y-316653782D01*
X-304899529Y-316643554D01*
X-304877007Y-316635496D01*
X-304853803Y-316629684D01*
X-304830142Y-316626174D01*
X-304806250Y-316625000D01*
X-303893750Y-316625000D01*
X-303869858Y-316626174D01*
X-303869858Y-316626174D01*
G37*
D13*
X-304350000Y-317112500D03*
D12*
G36*
X-301869858Y-316613674D02*
G01*
X-301846197Y-316617184D01*
X-301822993Y-316622996D01*
X-301800471Y-316631054D01*
X-301778847Y-316641282D01*
X-301758330Y-316653579D01*
X-301739117Y-316667829D01*
X-301721393Y-316683893D01*
X-301705329Y-316701617D01*
X-301691079Y-316720830D01*
X-301678782Y-316741347D01*
X-301668554Y-316762971D01*
X-301660496Y-316785493D01*
X-301654684Y-316808697D01*
X-301651174Y-316832358D01*
X-301650000Y-316856250D01*
X-301650000Y-317343750D01*
X-301651174Y-317367642D01*
X-301654684Y-317391303D01*
X-301660496Y-317414507D01*
X-301668554Y-317437029D01*
X-301678782Y-317458653D01*
X-301691079Y-317479170D01*
X-301705329Y-317498383D01*
X-301721393Y-317516107D01*
X-301739117Y-317532171D01*
X-301758330Y-317546421D01*
X-301778847Y-317558718D01*
X-301800471Y-317568946D01*
X-301822993Y-317577004D01*
X-301846197Y-317582816D01*
X-301869858Y-317586326D01*
X-301893750Y-317587500D01*
X-302806250Y-317587500D01*
X-302830142Y-317586326D01*
X-302853803Y-317582816D01*
X-302877007Y-317577004D01*
X-302899529Y-317568946D01*
X-302921153Y-317558718D01*
X-302941670Y-317546421D01*
X-302960883Y-317532171D01*
X-302978607Y-317516107D01*
X-302994671Y-317498383D01*
X-303008921Y-317479170D01*
X-303021218Y-317458653D01*
X-303031446Y-317437029D01*
X-303039504Y-317414507D01*
X-303045316Y-317391303D01*
X-303048826Y-317367642D01*
X-303050000Y-317343750D01*
X-303050000Y-316856250D01*
X-303048826Y-316832358D01*
X-303045316Y-316808697D01*
X-303039504Y-316785493D01*
X-303031446Y-316762971D01*
X-303021218Y-316741347D01*
X-303008921Y-316720830D01*
X-302994671Y-316701617D01*
X-302978607Y-316683893D01*
X-302960883Y-316667829D01*
X-302941670Y-316653579D01*
X-302921153Y-316641282D01*
X-302899529Y-316631054D01*
X-302877007Y-316622996D01*
X-302853803Y-316617184D01*
X-302830142Y-316613674D01*
X-302806250Y-316612500D01*
X-301893750Y-316612500D01*
X-301869858Y-316613674D01*
X-301869858Y-316613674D01*
G37*
D13*
X-302350000Y-317100000D03*
D12*
G36*
X-301869858Y-318488674D02*
G01*
X-301846197Y-318492184D01*
X-301822993Y-318497996D01*
X-301800471Y-318506054D01*
X-301778847Y-318516282D01*
X-301758330Y-318528579D01*
X-301739117Y-318542829D01*
X-301721393Y-318558893D01*
X-301705329Y-318576617D01*
X-301691079Y-318595830D01*
X-301678782Y-318616347D01*
X-301668554Y-318637971D01*
X-301660496Y-318660493D01*
X-301654684Y-318683697D01*
X-301651174Y-318707358D01*
X-301650000Y-318731250D01*
X-301650000Y-319218750D01*
X-301651174Y-319242642D01*
X-301654684Y-319266303D01*
X-301660496Y-319289507D01*
X-301668554Y-319312029D01*
X-301678782Y-319333653D01*
X-301691079Y-319354170D01*
X-301705329Y-319373383D01*
X-301721393Y-319391107D01*
X-301739117Y-319407171D01*
X-301758330Y-319421421D01*
X-301778847Y-319433718D01*
X-301800471Y-319443946D01*
X-301822993Y-319452004D01*
X-301846197Y-319457816D01*
X-301869858Y-319461326D01*
X-301893750Y-319462500D01*
X-302806250Y-319462500D01*
X-302830142Y-319461326D01*
X-302853803Y-319457816D01*
X-302877007Y-319452004D01*
X-302899529Y-319443946D01*
X-302921153Y-319433718D01*
X-302941670Y-319421421D01*
X-302960883Y-319407171D01*
X-302978607Y-319391107D01*
X-302994671Y-319373383D01*
X-303008921Y-319354170D01*
X-303021218Y-319333653D01*
X-303031446Y-319312029D01*
X-303039504Y-319289507D01*
X-303045316Y-319266303D01*
X-303048826Y-319242642D01*
X-303050000Y-319218750D01*
X-303050000Y-318731250D01*
X-303048826Y-318707358D01*
X-303045316Y-318683697D01*
X-303039504Y-318660493D01*
X-303031446Y-318637971D01*
X-303021218Y-318616347D01*
X-303008921Y-318595830D01*
X-302994671Y-318576617D01*
X-302978607Y-318558893D01*
X-302960883Y-318542829D01*
X-302941670Y-318528579D01*
X-302921153Y-318516282D01*
X-302899529Y-318506054D01*
X-302877007Y-318497996D01*
X-302853803Y-318492184D01*
X-302830142Y-318488674D01*
X-302806250Y-318487500D01*
X-301893750Y-318487500D01*
X-301869858Y-318488674D01*
X-301869858Y-318488674D01*
G37*
D13*
X-302350000Y-318975000D03*
D14*
X-375176383Y-249088968D03*
D12*
G36*
X-376868711Y-249807318D02*
G01*
X-375894733Y-247396640D01*
X-373484055Y-248370618D01*
X-374458033Y-250781296D01*
X-376868711Y-249807318D01*
X-376868711Y-249807318D01*
G37*
D14*
X-365291544Y-255455479D03*
D12*
G36*
X-366983872Y-256173829D02*
G01*
X-366009894Y-253763151D01*
X-363599216Y-254737129D01*
X-364573194Y-257147807D01*
X-366983872Y-256173829D01*
X-366983872Y-256173829D01*
G37*
D15*
X-370588776Y-263561338D03*
D12*
G36*
X-372239194Y-264242694D02*
G01*
X-371302677Y-261924735D01*
X-368938358Y-262879982D01*
X-369874875Y-265197941D01*
X-372239194Y-264242694D01*
X-372239194Y-264242694D01*
G37*
D16*
X-383619942Y-256840384D03*
D12*
G36*
X-384921732Y-257392961D02*
G01*
X-384172519Y-255538594D01*
X-382318152Y-256287807D01*
X-383067365Y-258142174D01*
X-384921732Y-257392961D01*
X-384921732Y-257392961D01*
G37*
D14*
X-301720278Y-240069246D03*
D12*
G36*
X-302438628Y-241761574D02*
G01*
X-303412606Y-239350896D01*
X-301001928Y-238376918D01*
X-300027950Y-240787596D01*
X-302438628Y-241761574D01*
X-302438628Y-241761574D01*
G37*
D14*
X-290187170Y-237782344D03*
D12*
G36*
X-290905520Y-239474672D02*
G01*
X-291879498Y-237063994D01*
X-289468820Y-236090016D01*
X-288494842Y-238500694D01*
X-290905520Y-239474672D01*
X-290905520Y-239474672D01*
G37*
D15*
X-288366877Y-247292978D03*
D12*
G36*
X-289080778Y-248929581D02*
G01*
X-290017295Y-246611622D01*
X-287652976Y-245656375D01*
X-286716459Y-247974334D01*
X-289080778Y-248929581D01*
X-289080778Y-248929581D01*
G37*
D16*
X-302409481Y-251510536D03*
D12*
G36*
X-302962058Y-252812326D02*
G01*
X-303711271Y-250957959D01*
X-301856904Y-250208746D01*
X-301107691Y-252063113D01*
X-302962058Y-252812326D01*
X-302962058Y-252812326D01*
G37*
D14*
X-364404800Y-272854595D03*
D12*
G36*
X-366097128Y-273572945D02*
G01*
X-365123150Y-271162267D01*
X-362712472Y-272136245D01*
X-363686450Y-274546923D01*
X-366097128Y-273572945D01*
X-366097128Y-273572945D01*
G37*
D14*
X-354519961Y-279221106D03*
D12*
G36*
X-356212289Y-279939456D02*
G01*
X-355238311Y-277528778D01*
X-352827633Y-278502756D01*
X-353801611Y-280913434D01*
X-356212289Y-279939456D01*
X-356212289Y-279939456D01*
G37*
D15*
X-359817193Y-287326965D03*
D12*
G36*
X-361467611Y-288008321D02*
G01*
X-360531094Y-285690362D01*
X-358166775Y-286645609D01*
X-359103292Y-288963568D01*
X-361467611Y-288008321D01*
X-361467611Y-288008321D01*
G37*
D16*
X-372848359Y-280606011D03*
D12*
G36*
X-374150149Y-281158588D02*
G01*
X-373400936Y-279304221D01*
X-371546569Y-280053434D01*
X-372295782Y-281907801D01*
X-374150149Y-281158588D01*
X-374150149Y-281158588D01*
G37*
D14*
X-246633142Y-274974940D03*
D12*
G36*
X-247351492Y-276667268D02*
G01*
X-248325470Y-274256590D01*
X-245914792Y-273282612D01*
X-244940814Y-275693290D01*
X-247351492Y-276667268D01*
X-247351492Y-276667268D01*
G37*
D14*
X-235100034Y-272688038D03*
D12*
G36*
X-235818384Y-274380366D02*
G01*
X-236792362Y-271969688D01*
X-234381684Y-270995710D01*
X-233407706Y-273406388D01*
X-235818384Y-274380366D01*
X-235818384Y-274380366D01*
G37*
D15*
X-233279741Y-282198672D03*
D12*
G36*
X-233993642Y-283835275D02*
G01*
X-234930159Y-281517316D01*
X-232565840Y-280562069D01*
X-231629323Y-282880028D01*
X-233993642Y-283835275D01*
X-233993642Y-283835275D01*
G37*
D16*
X-247322345Y-286416230D03*
D12*
G36*
X-247874922Y-287718020D02*
G01*
X-248624135Y-285863653D01*
X-246769768Y-285114440D01*
X-246020555Y-286968807D01*
X-247874922Y-287718020D01*
X-247874922Y-287718020D01*
G37*
D14*
X-276611653Y-251495398D03*
D12*
G36*
X-277330003Y-253187726D02*
G01*
X-278303981Y-250777048D01*
X-275893303Y-249803070D01*
X-274919325Y-252213748D01*
X-277330003Y-253187726D01*
X-277330003Y-253187726D01*
G37*
D14*
X-265078545Y-249208496D03*
D12*
G36*
X-265796895Y-250900824D02*
G01*
X-266770873Y-248490146D01*
X-264360195Y-247516168D01*
X-263386217Y-249926846D01*
X-265796895Y-250900824D01*
X-265796895Y-250900824D01*
G37*
D15*
X-263258252Y-258719130D03*
D12*
G36*
X-263972153Y-260355733D02*
G01*
X-264908670Y-258037774D01*
X-262544351Y-257082527D01*
X-261607834Y-259400486D01*
X-263972153Y-260355733D01*
X-263972153Y-260355733D01*
G37*
D16*
X-277300856Y-262936688D03*
D12*
G36*
X-277853433Y-264238478D02*
G01*
X-278602646Y-262384111D01*
X-276748279Y-261634898D01*
X-275999066Y-263489265D01*
X-277853433Y-264238478D01*
X-277853433Y-264238478D01*
G37*
D14*
X-227143616Y-272493334D03*
D12*
G36*
X-227861966Y-274185662D02*
G01*
X-228835944Y-271774984D01*
X-226425266Y-270801006D01*
X-225451288Y-273211684D01*
X-227861966Y-274185662D01*
X-227861966Y-274185662D01*
G37*
D14*
X-215610508Y-270206432D03*
D12*
G36*
X-216328858Y-271898760D02*
G01*
X-217302836Y-269488082D01*
X-214892158Y-268514104D01*
X-213918180Y-270924782D01*
X-216328858Y-271898760D01*
X-216328858Y-271898760D01*
G37*
D15*
X-213790215Y-279717066D03*
D12*
G36*
X-214504116Y-281353669D02*
G01*
X-215440633Y-279035710D01*
X-213076314Y-278080463D01*
X-212139797Y-280398422D01*
X-214504116Y-281353669D01*
X-214504116Y-281353669D01*
G37*
D16*
X-227832819Y-283934624D03*
D12*
G36*
X-228385396Y-285236414D02*
G01*
X-229134609Y-283382047D01*
X-227280242Y-282632834D01*
X-226531029Y-284487201D01*
X-228385396Y-285236414D01*
X-228385396Y-285236414D01*
G37*
D14*
X-269494127Y-269111891D03*
D12*
G36*
X-270212477Y-270804219D02*
G01*
X-271186455Y-268393541D01*
X-268775777Y-267419563D01*
X-267801799Y-269830241D01*
X-270212477Y-270804219D01*
X-270212477Y-270804219D01*
G37*
D14*
X-257961019Y-266824989D03*
D12*
G36*
X-258679369Y-268517317D02*
G01*
X-259653347Y-266106639D01*
X-257242669Y-265132661D01*
X-256268691Y-267543339D01*
X-258679369Y-268517317D01*
X-258679369Y-268517317D01*
G37*
D15*
X-256140726Y-276335623D03*
D12*
G36*
X-256854627Y-277972226D02*
G01*
X-257791144Y-275654267D01*
X-255426825Y-274699020D01*
X-254490308Y-277016979D01*
X-256854627Y-277972226D01*
X-256854627Y-277972226D01*
G37*
D16*
X-270183330Y-280553181D03*
D12*
G36*
X-270735907Y-281854971D02*
G01*
X-271485120Y-280000604D01*
X-269630753Y-279251391D01*
X-268881540Y-281105758D01*
X-270735907Y-281854971D01*
X-270735907Y-281854971D01*
G37*
D14*
X-350169750Y-237621609D03*
D12*
G36*
X-351862078Y-238339959D02*
G01*
X-350888100Y-235929281D01*
X-348477422Y-236903259D01*
X-349451400Y-239313937D01*
X-351862078Y-238339959D01*
X-351862078Y-238339959D01*
G37*
D14*
X-340284911Y-243988120D03*
D12*
G36*
X-341977239Y-244706470D02*
G01*
X-341003261Y-242295792D01*
X-338592583Y-243269770D01*
X-339566561Y-245680448D01*
X-341977239Y-244706470D01*
X-341977239Y-244706470D01*
G37*
D15*
X-345582143Y-252093979D03*
D12*
G36*
X-347232561Y-252775335D02*
G01*
X-346296044Y-250457376D01*
X-343931725Y-251412623D01*
X-344868242Y-253730582D01*
X-347232561Y-252775335D01*
X-347232561Y-252775335D01*
G37*
D16*
X-358613309Y-245373025D03*
D12*
G36*
X-359915099Y-245925602D02*
G01*
X-359165886Y-244071235D01*
X-357311519Y-244820448D01*
X-358060732Y-246674815D01*
X-359915099Y-245925602D01*
X-359915099Y-245925602D01*
G37*
D14*
X-405256885Y-272527302D03*
D12*
G36*
X-406949213Y-273245652D02*
G01*
X-405975235Y-270834974D01*
X-403564557Y-271808952D01*
X-404538535Y-274219630D01*
X-406949213Y-273245652D01*
X-406949213Y-273245652D01*
G37*
D14*
X-395372046Y-278893813D03*
D12*
G36*
X-397064374Y-279612163D02*
G01*
X-396090396Y-277201485D01*
X-393679718Y-278175463D01*
X-394653696Y-280586141D01*
X-397064374Y-279612163D01*
X-397064374Y-279612163D01*
G37*
D15*
X-400669278Y-286999672D03*
D12*
G36*
X-402319696Y-287681028D02*
G01*
X-401383179Y-285363069D01*
X-399018860Y-286318316D01*
X-399955377Y-288636275D01*
X-402319696Y-287681028D01*
X-402319696Y-287681028D01*
G37*
D16*
X-413700444Y-280278718D03*
D12*
G36*
X-415002234Y-280831295D02*
G01*
X-414253021Y-278976928D01*
X-412398654Y-279726141D01*
X-413147867Y-281580508D01*
X-415002234Y-280831295D01*
X-415002234Y-280831295D01*
G37*
D14*
X-368058858Y-231472474D03*
D12*
G36*
X-369751186Y-232190824D02*
G01*
X-368777208Y-229780146D01*
X-366366530Y-230754124D01*
X-367340508Y-233164802D01*
X-369751186Y-232190824D01*
X-369751186Y-232190824D01*
G37*
D14*
X-358174019Y-237838985D03*
D12*
G36*
X-359866347Y-238557335D02*
G01*
X-358892369Y-236146657D01*
X-356481691Y-237120635D01*
X-357455669Y-239531313D01*
X-359866347Y-238557335D01*
X-359866347Y-238557335D01*
G37*
D15*
X-363471251Y-245944844D03*
D12*
G36*
X-365121669Y-246626200D02*
G01*
X-364185152Y-244308241D01*
X-361820833Y-245263488D01*
X-362757350Y-247581447D01*
X-365121669Y-246626200D01*
X-365121669Y-246626200D01*
G37*
D16*
X-376502417Y-239223890D03*
D12*
G36*
X-377804207Y-239776467D02*
G01*
X-377054994Y-237922100D01*
X-375200627Y-238671313D01*
X-375949840Y-240525680D01*
X-377804207Y-239776467D01*
X-377804207Y-239776467D01*
G37*
D14*
X-294602753Y-257685739D03*
D12*
G36*
X-295321103Y-259378067D02*
G01*
X-296295081Y-256967389D01*
X-293884403Y-255993411D01*
X-292910425Y-258404089D01*
X-295321103Y-259378067D01*
X-295321103Y-259378067D01*
G37*
D14*
X-283069645Y-255398837D03*
D12*
G36*
X-283787995Y-257091165D02*
G01*
X-284761973Y-254680487D01*
X-282351295Y-253706509D01*
X-281377317Y-256117187D01*
X-283787995Y-257091165D01*
X-283787995Y-257091165D01*
G37*
D15*
X-281249352Y-264909471D03*
D12*
G36*
X-281963253Y-266546074D02*
G01*
X-282899770Y-264228115D01*
X-280535451Y-263272868D01*
X-279598934Y-265590827D01*
X-281963253Y-266546074D01*
X-281963253Y-266546074D01*
G37*
D16*
X-295291956Y-269127029D03*
D12*
G36*
X-295844533Y-270428819D02*
G01*
X-296593746Y-268574452D01*
X-294739379Y-267825239D01*
X-293990166Y-269679606D01*
X-295844533Y-270428819D01*
X-295844533Y-270428819D01*
G37*
D14*
X-357287275Y-255238102D03*
D12*
G36*
X-358979603Y-255956452D02*
G01*
X-358005625Y-253545774D01*
X-355594947Y-254519752D01*
X-356568925Y-256930430D01*
X-358979603Y-255956452D01*
X-358979603Y-255956452D01*
G37*
D14*
X-347402436Y-261604613D03*
D12*
G36*
X-349094764Y-262322963D02*
G01*
X-348120786Y-259912285D01*
X-345710108Y-260886263D01*
X-346684086Y-263296941D01*
X-349094764Y-262322963D01*
X-349094764Y-262322963D01*
G37*
D15*
X-352699668Y-269710472D03*
D12*
G36*
X-354350086Y-270391828D02*
G01*
X-353413569Y-268073869D01*
X-351049250Y-269029116D01*
X-351985767Y-271347075D01*
X-354350086Y-270391828D01*
X-354350086Y-270391828D01*
G37*
D16*
X-365730834Y-262989518D03*
D12*
G36*
X-367032624Y-263542095D02*
G01*
X-366283411Y-261687728D01*
X-364429044Y-262436941D01*
X-365178257Y-264291308D01*
X-367032624Y-263542095D01*
X-367032624Y-263542095D01*
G37*
D14*
X-287485227Y-275302233D03*
D12*
G36*
X-288203577Y-276994561D02*
G01*
X-289177555Y-274583883D01*
X-286766877Y-273609905D01*
X-285792899Y-276020583D01*
X-288203577Y-276994561D01*
X-288203577Y-276994561D01*
G37*
D14*
X-275952119Y-273015331D03*
D12*
G36*
X-276670469Y-274707659D02*
G01*
X-277644447Y-272296981D01*
X-275233769Y-271323003D01*
X-274259791Y-273733681D01*
X-276670469Y-274707659D01*
X-276670469Y-274707659D01*
G37*
D15*
X-274131826Y-282525965D03*
D12*
G36*
X-274845727Y-284162568D02*
G01*
X-275782244Y-281844609D01*
X-273417925Y-280889362D01*
X-272481408Y-283207321D01*
X-274845727Y-284162568D01*
X-274845727Y-284162568D01*
G37*
D16*
X-288174430Y-286743523D03*
D12*
G36*
X-288727007Y-288045313D02*
G01*
X-289476220Y-286190946D01*
X-287621853Y-285441733D01*
X-286872640Y-287296100D01*
X-288727007Y-288045313D01*
X-288727007Y-288045313D01*
G37*
D14*
X-382395900Y-266664254D03*
D12*
G36*
X-384088228Y-267382604D02*
G01*
X-383114250Y-264971926D01*
X-380703572Y-265945904D01*
X-381677550Y-268356582D01*
X-384088228Y-267382604D01*
X-384088228Y-267382604D01*
G37*
D14*
X-372511061Y-273030765D03*
D12*
G36*
X-374203389Y-273749115D02*
G01*
X-373229411Y-271338437D01*
X-370818733Y-272312415D01*
X-371792711Y-274723093D01*
X-374203389Y-273749115D01*
X-374203389Y-273749115D01*
G37*
D15*
X-377808293Y-281136624D03*
D12*
G36*
X-379458711Y-281817980D02*
G01*
X-378522194Y-279500021D01*
X-376157875Y-280455268D01*
X-377094392Y-282773227D01*
X-379458711Y-281817980D01*
X-379458711Y-281817980D01*
G37*
D16*
X-390839459Y-274415670D03*
D12*
G36*
X-392141249Y-274968247D02*
G01*
X-391392036Y-273113880D01*
X-389537669Y-273863093D01*
X-390286882Y-275717460D01*
X-392141249Y-274968247D01*
X-392141249Y-274968247D01*
G37*
D14*
X-283729178Y-233878905D03*
D12*
G36*
X-284447528Y-235571233D02*
G01*
X-285421506Y-233160555D01*
X-283010828Y-232186577D01*
X-282036850Y-234597255D01*
X-284447528Y-235571233D01*
X-284447528Y-235571233D01*
G37*
D14*
X-272196070Y-231592003D03*
D12*
G36*
X-272914420Y-233284331D02*
G01*
X-273888398Y-230873653D01*
X-271477720Y-229899675D01*
X-270503742Y-232310353D01*
X-272914420Y-233284331D01*
X-272914420Y-233284331D01*
G37*
D15*
X-270375777Y-241102637D03*
D12*
G36*
X-271089678Y-242739240D02*
G01*
X-272026195Y-240421281D01*
X-269661876Y-239466034D01*
X-268725359Y-241783993D01*
X-271089678Y-242739240D01*
X-271089678Y-242739240D01*
G37*
D16*
X-284418381Y-245320195D03*
D12*
G36*
X-284970958Y-246621985D02*
G01*
X-285720171Y-244767618D01*
X-283865804Y-244018405D01*
X-283116591Y-245872772D01*
X-284970958Y-246621985D01*
X-284970958Y-246621985D01*
G37*
D14*
X-424746412Y-270045696D03*
D12*
G36*
X-426438740Y-270764046D02*
G01*
X-425464762Y-268353368D01*
X-423054084Y-269327346D01*
X-424028062Y-271738024D01*
X-426438740Y-270764046D01*
X-426438740Y-270764046D01*
G37*
D14*
X-414861573Y-276412207D03*
D12*
G36*
X-416553901Y-277130557D02*
G01*
X-415579923Y-274719879D01*
X-413169245Y-275693857D01*
X-414143223Y-278104535D01*
X-416553901Y-277130557D01*
X-416553901Y-277130557D01*
G37*
D15*
X-420158805Y-284518066D03*
D12*
G36*
X-421809223Y-285199422D02*
G01*
X-420872706Y-282881463D01*
X-418508387Y-283836710D01*
X-419444904Y-286154669D01*
X-421809223Y-285199422D01*
X-421809223Y-285199422D01*
G37*
D16*
X-433189971Y-277797112D03*
D12*
G36*
X-434491761Y-278349689D02*
G01*
X-433742548Y-276495322D01*
X-431888181Y-277244535D01*
X-432637394Y-279098902D01*
X-434491761Y-278349689D01*
X-434491761Y-278349689D01*
G37*
D14*
X-360941333Y-213855981D03*
D12*
G36*
X-362633661Y-214574331D02*
G01*
X-361659683Y-212163653D01*
X-359249005Y-213137631D01*
X-360222983Y-215548309D01*
X-362633661Y-214574331D01*
X-362633661Y-214574331D01*
G37*
D14*
X-351056494Y-220222492D03*
D12*
G36*
X-352748822Y-220940842D02*
G01*
X-351774844Y-218530164D01*
X-349364166Y-219504142D01*
X-350338144Y-221914820D01*
X-352748822Y-220940842D01*
X-352748822Y-220940842D01*
G37*
D15*
X-356353726Y-228328351D03*
D12*
G36*
X-358004144Y-229009707D02*
G01*
X-357067627Y-226691748D01*
X-354703308Y-227646995D01*
X-355639825Y-229964954D01*
X-358004144Y-229009707D01*
X-358004144Y-229009707D01*
G37*
D16*
X-369384892Y-221607397D03*
D12*
G36*
X-370686682Y-222159974D02*
G01*
X-369937469Y-220305607D01*
X-368083102Y-221054820D01*
X-368832315Y-222909187D01*
X-370686682Y-222159974D01*
X-370686682Y-222159974D01*
G37*
D14*
X-343052224Y-220005115D03*
D12*
G36*
X-344744552Y-220723465D02*
G01*
X-343770574Y-218312787D01*
X-341359896Y-219286765D01*
X-342333874Y-221697443D01*
X-344744552Y-220723465D01*
X-344744552Y-220723465D01*
G37*
D14*
X-333167385Y-226371626D03*
D12*
G36*
X-334859713Y-227089976D02*
G01*
X-333885735Y-224679298D01*
X-331475057Y-225653276D01*
X-332449035Y-228063954D01*
X-334859713Y-227089976D01*
X-334859713Y-227089976D01*
G37*
D15*
X-338464617Y-234477485D03*
D12*
G36*
X-340115035Y-235158841D02*
G01*
X-339178518Y-232840882D01*
X-336814199Y-233796129D01*
X-337750716Y-236114088D01*
X-340115035Y-235158841D01*
X-340115035Y-235158841D01*
G37*
D16*
X-351495783Y-227756531D03*
D12*
G36*
X-352797573Y-228309108D02*
G01*
X-352048360Y-226454741D01*
X-350193993Y-227203954D01*
X-350943206Y-229058321D01*
X-352797573Y-228309108D01*
X-352797573Y-228309108D01*
G37*
D14*
X-308837803Y-222452753D03*
D12*
G36*
X-309556153Y-224145081D02*
G01*
X-310530131Y-221734403D01*
X-308119453Y-220760425D01*
X-307145475Y-223171103D01*
X-309556153Y-224145081D01*
X-309556153Y-224145081D01*
G37*
D14*
X-297304695Y-220165851D03*
D12*
G36*
X-298023045Y-221858179D02*
G01*
X-298997023Y-219447501D01*
X-296586345Y-218473523D01*
X-295612367Y-220884201D01*
X-298023045Y-221858179D01*
X-298023045Y-221858179D01*
G37*
D15*
X-295484402Y-229676485D03*
D12*
G36*
X-296198303Y-231313088D02*
G01*
X-297134820Y-228995129D01*
X-294770501Y-228039882D01*
X-293833984Y-230357841D01*
X-296198303Y-231313088D01*
X-296198303Y-231313088D01*
G37*
D16*
X-309527006Y-233894043D03*
D12*
G36*
X-310079583Y-235195833D02*
G01*
X-310828796Y-233341466D01*
X-308974429Y-232592253D01*
X-308225216Y-234446620D01*
X-310079583Y-235195833D01*
X-310079583Y-235195833D01*
G37*
D14*
X-290846703Y-216262412D03*
D12*
G36*
X-291565053Y-217954740D02*
G01*
X-292539031Y-215544062D01*
X-290128353Y-214570084D01*
X-289154375Y-216980762D01*
X-291565053Y-217954740D01*
X-291565053Y-217954740D01*
G37*
D14*
X-279313595Y-213975510D03*
D12*
G36*
X-280031945Y-215667838D02*
G01*
X-281005923Y-213257160D01*
X-278595245Y-212283182D01*
X-277621267Y-214693860D01*
X-280031945Y-215667838D01*
X-280031945Y-215667838D01*
G37*
D15*
X-277493302Y-223486144D03*
D12*
G36*
X-278207203Y-225122747D02*
G01*
X-279143720Y-222804788D01*
X-276779401Y-221849541D01*
X-275842884Y-224167500D01*
X-278207203Y-225122747D01*
X-278207203Y-225122747D01*
G37*
D16*
X-291535906Y-227703702D03*
D12*
G36*
X-292088483Y-229005492D02*
G01*
X-292837696Y-227151125D01*
X-290983329Y-226401912D01*
X-290234116Y-228256279D01*
X-292088483Y-229005492D01*
X-292088483Y-229005492D01*
G37*
M02*
