M48
; DRILL file {KiCad (5.1.4)-1} date 11/5/2023 6:19:03 PM
; FORMAT={-:-/ absolute / metric / decimal}
; #@! TF.CreationDate,2023-11-05T18:19:03-05:00
; #@! TF.GenerationSoftware,Kicad,Pcbnew,(5.1.4)-1
; #@! TF.FileFunction,Plated,1,2,PTH
FMAT,2
METRIC
T1C0.400
T2C1.000
%
G90
G05
T1
X98.705Y58.605
X126.98Y40.98
X169.28Y50.23
X179.53Y62.68
X212.08Y76.73
T2
X143.13Y115.53
X143.13Y112.99
X143.13Y110.45
X143.13Y107.91
X113.544Y40.944
X115.073Y42.973
X116.601Y45.001
X118.13Y47.03
X168.13Y47.03
X169.659Y45.001
X171.187Y42.973
X172.716Y40.944
X203.494Y61.294
X205.523Y62.823
X207.551Y64.351
X209.58Y65.88
X78.544Y64.616
X80.573Y63.087
X82.601Y61.559
X84.63Y60.03
T0
M30
