M48
; DRILL file {KiCad (5.1.4)-1} date 10/4/2023 8:40:59 PM
; FORMAT={-:-/ absolute / metric / decimal}
; #@! TF.CreationDate,2023-10-04T20:40:59-04:00
; #@! TF.GenerationSoftware,Kicad,Pcbnew,(5.1.4)-1
; #@! TF.FileFunction,NonPlated,1,2,NPTH
FMAT,2
METRIC
T1C1.702
T2C2.950
T3C3.000
T4C5.050
%
G90
G05
T1
X-283.787Y-124.047
X-392.366Y-101.205
X-277.398Y-119.233
X-268.613Y-112.613
X-262.224Y-107.798
X-253.439Y-101.179
X-362.018Y-124.074
X-353.233Y-130.694
X-292.572Y-130.667
X-383.581Y-107.825
X-377.192Y-112.639
X-368.407Y-119.259
T2
X-364.027Y-128.069
X-359.009Y-133.541
X-289.285Y-133.7
X-282.642Y-130.385
X-394.375Y-105.2
X-389.358Y-110.672
X-379.201Y-116.635
X-374.183Y-122.106
X-274.111Y-122.266
X-267.468Y-118.95
X-258.937Y-110.831
X-252.294Y-107.516
T3
X-354.045Y-122.632
X-351.375Y-127.398
X-291.76Y-122.606
X-286.443Y-121.354
X-384.393Y-99.763
X-381.724Y-104.529
X-369.219Y-111.197
X-366.55Y-115.963
X-276.586Y-111.171
X-271.269Y-109.919
X-261.412Y-99.737
X-256.095Y-98.485
T4
X-257.831Y-104.489
X-357.625Y-127.384
X-387.974Y-104.515
X-372.799Y-115.949
X-273.005Y-115.923
X-288.179Y-127.357
T0
M30
