G04 #@! TF.GenerationSoftware,KiCad,Pcbnew,(5.1.4)-1*
G04 #@! TF.CreationDate,2023-11-05T18:19:01-05:00*
G04 #@! TF.ProjectId,ThumbsUp,5468756d-6273-4557-902e-6b696361645f,rev?*
G04 #@! TF.SameCoordinates,Original*
G04 #@! TF.FileFunction,Legend,Bot*
G04 #@! TF.FilePolarity,Positive*
%FSLAX46Y46*%
G04 Gerber Fmt 4.6, Leading zero omitted, Abs format (unit mm)*
G04 Created by KiCad (PCBNEW (5.1.4)-1) date 2023-11-05 18:19:01*
%MOMM*%
%LPD*%
G04 APERTURE LIST*
%ADD10C,0.120000*%
%ADD11C,0.150000*%
%ADD12C,0.400000*%
%ADD13C,0.100000*%
%ADD14C,0.254000*%
G04 APERTURE END LIST*
D10*
X163130000Y71930000D02*
G75*
G03X163130000Y71930000I-20000000J0D01*
G01*
D11*
X182638403Y58083180D02*
X182337496Y58482498D01*
X176216012Y59128599D02*
G75*
G02X175515787Y59227010I-300907J399318D01*
G01*
X171817841Y58318611D02*
X174213747Y60124056D01*
X171719430Y57618385D02*
X171817841Y58318611D01*
X174526008Y54724751D02*
X176522597Y56229288D01*
X180170961Y61357586D02*
X179809872Y61836767D01*
X173825783Y54823161D02*
X174526008Y54724751D01*
X179809872Y61836767D02*
X176216013Y59128600D01*
X175515787Y59227010D02*
X174913972Y60025645D01*
X174213747Y60124056D02*
X174913972Y60025645D01*
X176522596Y56229289D02*
G75*
G02X178623273Y55934058I902723J-1197954D01*
G01*
X179044543Y55375013D02*
X182638403Y58083180D01*
X178623273Y55934058D02*
X179044543Y55375013D01*
X114997752Y49631479D02*
X115298660Y50030797D01*
X114232422Y56093234D02*
G75*
G02X114134013Y56793459I300908J399317D01*
G01*
X112241511Y60097765D02*
X114637417Y58292320D01*
X111541286Y59999354D02*
X112241511Y60097765D01*
X109533343Y56503905D02*
X111529932Y54999367D01*
X117465194Y52905885D02*
X117826283Y53385066D01*
X109434933Y57204130D02*
X109533343Y56503905D01*
X117826283Y53385066D02*
X114232423Y56093234D01*
X114134013Y56793459D02*
X114735828Y57592094D01*
X114637417Y58292320D02*
X114735828Y57592094D01*
X111529932Y54999367D02*
G75*
G02X111825163Y52898692I-902722J-1197953D01*
G01*
X111403892Y52339647D02*
X114997752Y49631479D01*
X111825163Y52898692D02*
X111403892Y52339647D01*
X197812478Y69517665D02*
X197511571Y69916983D01*
X191390087Y70563084D02*
G75*
G02X190689862Y70661495I-300907J399318D01*
G01*
X186991916Y69753096D02*
X189387822Y71558541D01*
X186893505Y69052870D02*
X186991916Y69753096D01*
X189700083Y66159236D02*
X191696672Y67663773D01*
X195345036Y72792071D02*
X194983947Y73271252D01*
X188999858Y66257646D02*
X189700083Y66159236D01*
X194983947Y73271252D02*
X191390088Y70563085D01*
X190689862Y70661495D02*
X190088047Y71460130D01*
X189387822Y71558541D02*
X190088047Y71460130D01*
X191696671Y67663774D02*
G75*
G02X193797348Y67368543I902723J-1197954D01*
G01*
X194218618Y66809498D02*
X197812478Y69517665D01*
X193797348Y67368543D02*
X194218618Y66809498D01*
X212986553Y80952151D02*
X212685646Y81351469D01*
X206564162Y81997570D02*
G75*
G02X205863937Y82095981I-300907J399318D01*
G01*
X202165991Y81187582D02*
X204561897Y82993027D01*
X202067580Y80487356D02*
X202165991Y81187582D01*
X204874158Y77593722D02*
X206870747Y79098259D01*
X210519111Y84226557D02*
X210158022Y84705738D01*
X204173933Y77692132D02*
X204874158Y77593722D01*
X210158022Y84705738D02*
X206564163Y81997571D01*
X205863937Y82095981D02*
X205262122Y82894616D01*
X204561897Y82993027D02*
X205262122Y82894616D01*
X206870746Y79098260D02*
G75*
G02X208971423Y78803029I902723J-1197954D01*
G01*
X209392693Y78243984D02*
X212986553Y80952151D01*
X208971423Y78803029D02*
X209392693Y78243984D01*
X84649603Y72500450D02*
X84950511Y72899768D01*
X83884273Y78962205D02*
G75*
G02X83785864Y79662430I300908J399317D01*
G01*
X81893362Y82966736D02*
X84289268Y81161291D01*
X81193137Y82868325D02*
X81893362Y82966736D01*
X79185194Y79372876D02*
X81181783Y77868338D01*
X87117045Y75774856D02*
X87478134Y76254037D01*
X79086784Y80073101D02*
X79185194Y79372876D01*
X87478134Y76254037D02*
X83884274Y78962205D01*
X83785864Y79662430D02*
X84387679Y80461065D01*
X84289268Y81161291D02*
X84387679Y80461065D01*
X81181783Y77868338D02*
G75*
G02X81477014Y75767663I-902722J-1197953D01*
G01*
X81055743Y75208618D02*
X84649603Y72500450D01*
X81477014Y75767663D02*
X81055743Y75208618D01*
X99823677Y61065964D02*
X100124585Y61465282D01*
X99058347Y67527719D02*
G75*
G02X98959938Y68227944I300908J399317D01*
G01*
X97067436Y71532250D02*
X99463342Y69726805D01*
X96367211Y71433839D02*
X97067436Y71532250D01*
X94359268Y67938390D02*
X96355857Y66433852D01*
X102291119Y64340370D02*
X102652208Y64819551D01*
X94260858Y68638615D02*
X94359268Y67938390D01*
X102652208Y64819551D02*
X99058348Y67527719D01*
X98959938Y68227944D02*
X99561753Y69026579D01*
X99463342Y69726805D02*
X99561753Y69026579D01*
X96355857Y66433852D02*
G75*
G02X96651088Y64333177I-902722J-1197953D01*
G01*
X96229817Y63774132D02*
X99823677Y61065964D01*
X96651088Y64333177D02*
X96229817Y63774132D01*
D10*
X84891771Y58167401D02*
X85692185Y59229586D01*
X83829586Y58967815D02*
X84891771Y58167401D01*
X82815319Y59732120D02*
X84416147Y61856490D01*
X84416147Y61856490D02*
X78282626Y66478430D01*
X82815319Y59732120D02*
X76681798Y64354059D01*
X76681798Y64354059D02*
X78282626Y66478430D01*
X119992599Y47291771D02*
X118930414Y48092185D01*
X119192185Y46229586D02*
X119992599Y47291771D01*
X118427880Y45215319D02*
X116303510Y46816147D01*
X116303510Y46816147D02*
X111681570Y40682626D01*
X118427880Y45215319D02*
X113805941Y39081798D01*
X113805941Y39081798D02*
X111681570Y40682626D01*
X211442599Y65618229D02*
X210642185Y66680414D01*
X210380414Y64817815D02*
X211442599Y65618229D01*
X209366147Y64053510D02*
X207765319Y66177880D01*
X207765319Y66177880D02*
X201631798Y61555941D01*
X209366147Y64053510D02*
X203232626Y59431570D01*
X203232626Y59431570D02*
X201631798Y61555941D01*
X144460000Y116860000D02*
X143130000Y116860000D01*
X144460000Y115530000D02*
X144460000Y116860000D01*
X144460000Y114260000D02*
X141800000Y114260000D01*
X141800000Y114260000D02*
X141800000Y106580000D01*
X144460000Y114260000D02*
X144460000Y106580000D01*
X144460000Y106580000D02*
X141800000Y106580000D01*
X168391771Y48892599D02*
X167329586Y48092185D01*
X169192185Y47830414D02*
X168391771Y48892599D01*
X169956490Y46816147D02*
X167832120Y45215319D01*
X167832120Y45215319D02*
X172454059Y39081798D01*
X169956490Y46816147D02*
X174578430Y40682626D01*
X174578430Y40682626D02*
X172454059Y39081798D01*
D12*
X171030000Y71130000D02*
G75*
G03X171030000Y71230000I0J50000D01*
G01*
X171030000Y71230000D02*
G75*
G03X171030000Y71130000I0J-50000D01*
G01*
X171030000Y71230000D02*
X171030000Y71230000D01*
X171030000Y71130000D02*
X171030000Y71130000D01*
D13*
X169480000Y62580000D02*
X169480000Y63430000D01*
X166480000Y62580000D02*
X169480000Y62580000D01*
X166480000Y63430000D02*
X166480000Y62580000D01*
X169480000Y74280000D02*
X169480000Y73430000D01*
X166480000Y74280000D02*
X169480000Y74280000D01*
X166480000Y73430000D02*
X166480000Y74280000D01*
D11*
X86884550Y60060213D02*
X87455004Y59630346D01*
X87597753Y59582402D01*
X87731129Y59601147D01*
X87855133Y59686580D01*
X87912449Y59762641D01*
X87396607Y59078096D02*
X86597972Y59679911D01*
X86967821Y58983831D01*
X86196762Y59147487D01*
X86995397Y58545672D01*
X85918474Y58224307D02*
X86450898Y57823097D01*
X85757521Y58643721D02*
X86471265Y58404005D01*
X86098713Y57909611D01*
X85394342Y58082640D02*
X85021790Y57588246D01*
X85526637Y57625195D01*
X85440663Y57511105D01*
X85421378Y57406386D01*
X85430750Y57339698D01*
X85478153Y57244352D01*
X85668304Y57101063D01*
X85773022Y57081777D01*
X85839711Y57091150D01*
X85935057Y57138552D01*
X86107004Y57366734D01*
X86126289Y57471452D01*
X86116917Y57538141D01*
X120964671Y48497091D02*
X120534804Y47926637D01*
X120486860Y47783888D01*
X120505605Y47650512D01*
X120591038Y47526508D01*
X120667099Y47469192D01*
X119982554Y47985034D02*
X120584369Y48783669D01*
X119888289Y48413820D01*
X120051945Y49184879D01*
X119450130Y48386244D01*
X119128765Y49463167D02*
X118727555Y48930743D01*
X119548179Y49624120D02*
X119308463Y48910376D01*
X118814069Y49282928D01*
X118530735Y50331194D02*
X118911037Y50044615D01*
X118662489Y49635654D01*
X118653117Y49702343D01*
X118605714Y49797689D01*
X118415563Y49940978D01*
X118310844Y49960263D01*
X118244156Y49950891D01*
X118148810Y49903488D01*
X118005521Y49713337D01*
X117986235Y49608619D01*
X117995608Y49541930D01*
X118043010Y49446584D01*
X118233162Y49303295D01*
X118337880Y49284010D01*
X118404568Y49293382D01*
X212422668Y66889219D02*
X211852214Y66459351D01*
X211766781Y66335347D01*
X211748036Y66201971D01*
X211795979Y66059222D01*
X211853295Y65983162D01*
X211337454Y66667706D02*
X212136089Y67269522D01*
X211365030Y67105865D01*
X211734879Y67801945D01*
X210936244Y67200130D01*
X211161722Y68562550D02*
X211448301Y68182248D01*
X211096656Y67857639D01*
X211106028Y67924327D01*
X211086743Y68029045D01*
X210943454Y68219197D01*
X210848108Y68266599D01*
X210781419Y68275972D01*
X210676701Y68256686D01*
X210486550Y68113397D01*
X210439147Y68018051D01*
X210429775Y67951363D01*
X210449060Y67846645D01*
X210592349Y67656493D01*
X210687695Y67609091D01*
X210754384Y67599718D01*
X144510952Y118407619D02*
X144510952Y117693333D01*
X144558571Y117550476D01*
X144653809Y117455238D01*
X144796666Y117407619D01*
X144891904Y117407619D01*
X144034761Y117407619D02*
X144034761Y118407619D01*
X143701428Y117693333D01*
X143368095Y118407619D01*
X143368095Y117407619D01*
X142368095Y117407619D02*
X142939523Y117407619D01*
X142653809Y117407619D02*
X142653809Y118407619D01*
X142749047Y118264761D01*
X142844285Y118169523D01*
X142939523Y118121904D01*
X142034761Y118407619D02*
X141415714Y118407619D01*
X141749047Y118026666D01*
X141606190Y118026666D01*
X141510952Y117979047D01*
X141463333Y117931428D01*
X141415714Y117836190D01*
X141415714Y117598095D01*
X141463333Y117502857D01*
X141510952Y117455238D01*
X141606190Y117407619D01*
X141891904Y117407619D01*
X141987142Y117455238D01*
X142034761Y117502857D01*
X167501083Y50159246D02*
X167930951Y49588792D01*
X168054954Y49503360D01*
X168188331Y49484615D01*
X168331079Y49532558D01*
X168407140Y49589874D01*
X167722595Y49074032D02*
X167120780Y49872668D01*
X167284436Y49101609D01*
X166588356Y49471458D01*
X167190171Y48672822D01*
X166391536Y48071007D02*
X166847899Y48414902D01*
X166619718Y48242954D02*
X166017903Y49041590D01*
X166179937Y48984815D01*
X166313313Y48966070D01*
X166418031Y48985356D01*
X165523509Y48669038D02*
X164991085Y48267828D01*
X165935173Y47727113D01*
D14*
X167934523Y69458095D02*
X168841666Y69458095D01*
X169023095Y69518571D01*
X169144047Y69639523D01*
X169204523Y69820952D01*
X169204523Y69941904D01*
X169204523Y68188095D02*
X169204523Y68913809D01*
X169204523Y68550952D02*
X167934523Y68550952D01*
X168115952Y68671904D01*
X168236904Y68792857D01*
X168297380Y68913809D01*
X169204523Y67583333D02*
X169204523Y67341428D01*
X169144047Y67220476D01*
X169083571Y67160000D01*
X168902142Y67039047D01*
X168660238Y66978571D01*
X168176428Y66978571D01*
X168055476Y67039047D01*
X167995000Y67099523D01*
X167934523Y67220476D01*
X167934523Y67462380D01*
X167995000Y67583333D01*
X168055476Y67643809D01*
X168176428Y67704285D01*
X168478809Y67704285D01*
X168599761Y67643809D01*
X168660238Y67583333D01*
X168720714Y67462380D01*
X168720714Y67220476D01*
X168660238Y67099523D01*
X168599761Y67039047D01*
X168478809Y66978571D01*
M02*
