%FSLAX45Y45*%
G04 Gerber Fmt 4.5, Leading zero omitted, Abs format (unit mm)*
G04 Created by KiCad (PCBNEW (5.1.4)-1) date 2023-11-05 18:19:02*
%MOMM*%
%LPD*%
G04 APERTURE LIST*
%ADD10C,0.050000*%
%ADD11C,0.200000*%
%ADD12C,0.300000*%
G04 APERTURE END LIST*
D10*
X22132327Y7373000D02*
X22122327Y7288000D01*
X22132327Y7373000D02*
X21202327Y8608000D01*
X22040928Y7226592D02*
X22122327Y7288000D01*
X21202327Y8608000D02*
X20975813Y8608196D01*
X6493000Y7373000D02*
X6503000Y7288000D01*
X6493000Y7373000D02*
X7423000Y8608000D01*
X14212327Y12583000D02*
X14413000Y12583000D01*
X13522327Y12583000D02*
X14212327Y12583000D01*
X13292327Y12453000D02*
X13522327Y12583000D01*
X13262327Y12383000D02*
X13292327Y12453000D01*
X13262327Y12383000D02*
X11227224Y7346058D01*
X15363000Y12383000D02*
X15333000Y12453000D01*
X15103000Y12583000D02*
X14413000Y12583000D01*
X15333000Y12453000D02*
X15103000Y12583000D01*
X11009145Y3896574D02*
X17616182Y3896574D01*
X11227224Y7346058D02*
X11005920Y7252120D01*
X7649514Y8608196D02*
X11005920Y7252120D01*
X7423000Y8608000D02*
X7649514Y8608196D01*
X6584399Y7226592D02*
X6503000Y7288000D01*
X6584399Y7226592D02*
X11009145Y3896574D01*
X17398103Y7346058D02*
X17619407Y7252120D01*
X15363000Y12383000D02*
X17398103Y7346058D01*
X20975813Y8608196D02*
X17619407Y7252120D01*
X22040928Y7226592D02*
X17616182Y3896574D01*
D11*
X10326119Y5680711D02*
X10496299Y5510531D01*
X10496299Y5680711D02*
X10326119Y5510531D01*
X11204618Y5018715D02*
X11374798Y4848535D01*
X11374798Y5018715D02*
X11204618Y4848535D01*
X17270728Y5021344D02*
X17440908Y4851164D01*
X17440908Y5021344D02*
X17270728Y4851164D01*
X18149227Y5683340D02*
X18319407Y5513161D01*
X18319407Y5683340D02*
X18149227Y5513161D01*
X18788136Y6164792D02*
X18958316Y5994612D01*
X18958316Y6164792D02*
X18788136Y5994612D01*
X19666635Y6826789D02*
X19836815Y6656609D01*
X19836815Y6826789D02*
X19666635Y6656609D01*
X7291304Y7967608D02*
X7461484Y7797428D01*
X7461484Y7967608D02*
X7291304Y7797428D01*
X8169803Y7305612D02*
X8339983Y7135432D01*
X8339983Y7305612D02*
X8169803Y7135432D01*
X20305543Y7308241D02*
X20475723Y7138061D01*
X20475723Y7308241D02*
X20305543Y7138061D01*
X21184042Y7970238D02*
X21354222Y7800058D01*
X21354222Y7970238D02*
X21184042Y7800058D01*
X8808711Y6824160D02*
X8978891Y6653980D01*
X8978891Y6824160D02*
X8808711Y6653980D01*
X9687210Y6162163D02*
X9857390Y5991983D01*
X9857390Y6162163D02*
X9687210Y5991983D01*
X10363705Y5154063D02*
G75*
G03X10363705Y5154063I-147500J0D01*
G01*
X10859560Y4648936D02*
G75*
G03X10859560Y4648936I-147500J0D01*
G01*
X17874021Y4627095D02*
G75*
G03X17874021Y4627095I-147500J0D01*
G01*
X18496257Y4964509D02*
G75*
G03X18496257Y4964509I-147500J0D01*
G01*
X19391429Y5770543D02*
G75*
G03X19391429Y5770543I-147500J0D01*
G01*
X20013664Y6107957D02*
G75*
G03X20013664Y6107957I-147500J0D01*
G01*
X7328890Y7440960D02*
G75*
G03X7328890Y7440960I-147500J0D01*
G01*
X7824745Y6935833D02*
G75*
G03X7824745Y6935833I-147500J0D01*
G01*
X20908836Y6913992D02*
G75*
G03X20908836Y6913992I-147500J0D01*
G01*
X21531072Y7251406D02*
G75*
G03X21531072Y7251406I-147500J0D01*
G01*
X8846298Y6297511D02*
G75*
G03X8846298Y6297511I-147500J0D01*
G01*
X9342152Y5792384D02*
G75*
G03X9342152Y5792384I-147500J0D01*
G01*
X11208538Y5889811D02*
X11208538Y5589811D01*
X11058538Y5739811D02*
X11358538Y5739811D01*
X11475456Y5413204D02*
X11475456Y5113204D01*
X11325456Y5263204D02*
X11625456Y5263204D01*
X17436988Y5892440D02*
X17436988Y5592440D01*
X17286988Y5742440D02*
X17586988Y5742440D01*
X17968705Y6017648D02*
X17968705Y5717648D01*
X17818705Y5867648D02*
X18118705Y5867648D01*
X18954395Y7035889D02*
X18954395Y6735889D01*
X18804395Y6885889D02*
X19104395Y6885889D01*
X19486112Y7161096D02*
X19486112Y6861096D01*
X19336112Y7011096D02*
X19636112Y7011096D01*
X8173723Y8176708D02*
X8173723Y7876708D01*
X8023723Y8026708D02*
X8323723Y8026708D01*
X8440642Y7700101D02*
X8440642Y7400101D01*
X8290642Y7550101D02*
X8590642Y7550101D01*
X20471803Y8179337D02*
X20471803Y7879337D01*
X20321803Y8029337D02*
X20621803Y8029337D01*
X21003520Y8304545D02*
X21003520Y8004545D01*
X20853520Y8154545D02*
X21153520Y8154545D01*
X9691131Y7033260D02*
X9691131Y6733260D01*
X9541131Y6883260D02*
X9841131Y6883260D01*
X9958049Y6556652D02*
X9958049Y6256652D01*
X9808049Y6406652D02*
X10108049Y6406652D01*
X21004893Y7379139D02*
X21004893Y7729160D01*
X20654872Y7729160D01*
X20654872Y7379139D01*
X21004893Y7379139D01*
X11025469Y5089613D02*
X11025469Y5439634D01*
X10675448Y5439634D01*
X10675448Y5089613D01*
X11025469Y5089613D01*
X17970078Y5092242D02*
X17970078Y5442263D01*
X17620057Y5442263D01*
X17620057Y5092242D01*
X17970078Y5092242D01*
X19487486Y6235690D02*
X19487486Y6585711D01*
X19137465Y6585711D01*
X19137465Y6235690D01*
X19487486Y6235690D01*
X7990654Y7376510D02*
X7990654Y7726531D01*
X7640633Y7726531D01*
X7640633Y7376510D01*
X7990654Y7376510D01*
X9508061Y6233061D02*
X9508061Y6583082D01*
X9158040Y6583082D01*
X9158040Y6233061D01*
X9508061Y6233061D01*
D12*
X6776928Y3428360D02*
X6776928Y3728360D01*
X6848357Y3728360D01*
X6891214Y3714074D01*
X6919786Y3685503D01*
X6934071Y3656931D01*
X6948357Y3599788D01*
X6948357Y3556931D01*
X6934071Y3499788D01*
X6919786Y3471217D01*
X6891214Y3442645D01*
X6848357Y3428360D01*
X6776928Y3428360D01*
X7076928Y3428360D02*
X7076928Y3628360D01*
X7076928Y3571217D02*
X7091214Y3599788D01*
X7105500Y3614074D01*
X7134071Y3628360D01*
X7162643Y3628360D01*
X7262643Y3428360D02*
X7262643Y3628360D01*
X7262643Y3728360D02*
X7248357Y3714074D01*
X7262643Y3699788D01*
X7276928Y3714074D01*
X7262643Y3728360D01*
X7262643Y3699788D01*
X7448357Y3428360D02*
X7419786Y3442645D01*
X7405500Y3471217D01*
X7405500Y3728360D01*
X7605500Y3428360D02*
X7576928Y3442645D01*
X7562643Y3471217D01*
X7562643Y3728360D01*
X7948357Y3428360D02*
X7948357Y3728360D01*
X8048357Y3514074D01*
X8148357Y3728360D01*
X8148357Y3428360D01*
X8419786Y3428360D02*
X8419786Y3585503D01*
X8405500Y3614074D01*
X8376928Y3628360D01*
X8319786Y3628360D01*
X8291214Y3614074D01*
X8419786Y3442645D02*
X8391214Y3428360D01*
X8319786Y3428360D01*
X8291214Y3442645D01*
X8276928Y3471217D01*
X8276928Y3499788D01*
X8291214Y3528360D01*
X8319786Y3542645D01*
X8391214Y3542645D01*
X8419786Y3556931D01*
X8562643Y3628360D02*
X8562643Y3328360D01*
X8562643Y3614074D02*
X8591214Y3628360D01*
X8648357Y3628360D01*
X8676928Y3614074D01*
X8691214Y3599788D01*
X8705500Y3571217D01*
X8705500Y3485503D01*
X8691214Y3456931D01*
X8676928Y3442645D01*
X8648357Y3428360D01*
X8591214Y3428360D01*
X8562643Y3442645D01*
X8834071Y3456931D02*
X8848357Y3442645D01*
X8834071Y3428360D01*
X8819786Y3442645D01*
X8834071Y3456931D01*
X8834071Y3428360D01*
X8834071Y3614074D02*
X8848357Y3599788D01*
X8834071Y3585503D01*
X8819786Y3599788D01*
X8834071Y3614074D01*
X8834071Y3585503D01*
X6320320Y3019164D02*
X6490500Y2848984D01*
X6490500Y3019164D02*
X6320320Y2848984D01*
X6934071Y2798360D02*
X6762643Y2798360D01*
X6848357Y2798360D02*
X6848357Y3098360D01*
X6819786Y3055503D01*
X6791214Y3026931D01*
X6762643Y3012645D01*
X7062643Y2826931D02*
X7076928Y2812645D01*
X7062643Y2798360D01*
X7048357Y2812645D01*
X7062643Y2826931D01*
X7062643Y2798360D01*
X7176928Y3098360D02*
X7376928Y3098360D01*
X7248357Y2798360D01*
X7548357Y3098360D02*
X7576928Y3098360D01*
X7605500Y3084074D01*
X7619786Y3069788D01*
X7634071Y3041217D01*
X7648357Y2984074D01*
X7648357Y2912645D01*
X7634071Y2855503D01*
X7619786Y2826931D01*
X7605500Y2812645D01*
X7576928Y2798360D01*
X7548357Y2798360D01*
X7519786Y2812645D01*
X7505500Y2826931D01*
X7491214Y2855503D01*
X7476928Y2912645D01*
X7476928Y2984074D01*
X7491214Y3041217D01*
X7505500Y3069788D01*
X7519786Y3084074D01*
X7548357Y3098360D01*
X7776928Y2798360D02*
X7776928Y2998360D01*
X7776928Y2969788D02*
X7791214Y2984074D01*
X7819786Y2998360D01*
X7862643Y2998360D01*
X7891214Y2984074D01*
X7905500Y2955503D01*
X7905500Y2798360D01*
X7905500Y2955503D02*
X7919786Y2984074D01*
X7948357Y2998360D01*
X7991214Y2998360D01*
X8019786Y2984074D01*
X8034071Y2955503D01*
X8034071Y2798360D01*
X8176928Y2798360D02*
X8176928Y2998360D01*
X8176928Y2969788D02*
X8191214Y2984074D01*
X8219786Y2998360D01*
X8262643Y2998360D01*
X8291214Y2984074D01*
X8305500Y2955503D01*
X8305500Y2798360D01*
X8305500Y2955503D02*
X8319786Y2984074D01*
X8348357Y2998360D01*
X8391214Y2998360D01*
X8419786Y2984074D01*
X8434071Y2955503D01*
X8434071Y2798360D01*
X9019786Y3112645D02*
X8762643Y2726931D01*
X9405500Y3098360D02*
X9434071Y3098360D01*
X9462643Y3084074D01*
X9476928Y3069788D01*
X9491214Y3041217D01*
X9505500Y2984074D01*
X9505500Y2912645D01*
X9491214Y2855503D01*
X9476928Y2826931D01*
X9462643Y2812645D01*
X9434071Y2798360D01*
X9405500Y2798360D01*
X9376928Y2812645D01*
X9362643Y2826931D01*
X9348357Y2855503D01*
X9334071Y2912645D01*
X9334071Y2984074D01*
X9348357Y3041217D01*
X9362643Y3069788D01*
X9376928Y3084074D01*
X9405500Y3098360D01*
X9634071Y2826931D02*
X9648357Y2812645D01*
X9634071Y2798360D01*
X9619786Y2812645D01*
X9634071Y2826931D01*
X9634071Y2798360D01*
X9834071Y3098360D02*
X9862643Y3098360D01*
X9891214Y3084074D01*
X9905500Y3069788D01*
X9919786Y3041217D01*
X9934071Y2984074D01*
X9934071Y2912645D01*
X9919786Y2855503D01*
X9905500Y2826931D01*
X9891214Y2812645D01*
X9862643Y2798360D01*
X9834071Y2798360D01*
X9805500Y2812645D01*
X9791214Y2826931D01*
X9776928Y2855503D01*
X9762643Y2912645D01*
X9762643Y2984074D01*
X9776928Y3041217D01*
X9791214Y3069788D01*
X9805500Y3084074D01*
X9834071Y3098360D01*
X10191214Y3098360D02*
X10134071Y3098360D01*
X10105500Y3084074D01*
X10091214Y3069788D01*
X10062643Y3026931D01*
X10048357Y2969788D01*
X10048357Y2855503D01*
X10062643Y2826931D01*
X10076928Y2812645D01*
X10105500Y2798360D01*
X10162643Y2798360D01*
X10191214Y2812645D01*
X10205500Y2826931D01*
X10219786Y2855503D01*
X10219786Y2926931D01*
X10205500Y2955503D01*
X10191214Y2969788D01*
X10162643Y2984074D01*
X10105500Y2984074D01*
X10076928Y2969788D01*
X10062643Y2955503D01*
X10048357Y2926931D01*
X10319786Y3098360D02*
X10519786Y3098360D01*
X10391214Y2798360D01*
X10619786Y3098360D02*
X10619786Y3041217D01*
X10734071Y3098360D02*
X10734071Y3041217D01*
X11176928Y2684074D02*
X11162643Y2698360D01*
X11134071Y2741217D01*
X11119786Y2769788D01*
X11105500Y2812645D01*
X11091214Y2884074D01*
X11091214Y2941217D01*
X11105500Y3012645D01*
X11119786Y3055503D01*
X11134071Y3084074D01*
X11162643Y3126931D01*
X11176928Y3141217D01*
X11448357Y2798360D02*
X11276928Y2798360D01*
X11362643Y2798360D02*
X11362643Y3098360D01*
X11334071Y3055503D01*
X11305500Y3026931D01*
X11276928Y3012645D01*
X11562643Y3069788D02*
X11576928Y3084074D01*
X11605500Y3098360D01*
X11676928Y3098360D01*
X11705500Y3084074D01*
X11719786Y3069788D01*
X11734071Y3041217D01*
X11734071Y3012645D01*
X11719786Y2969788D01*
X11548357Y2798360D01*
X11734071Y2798360D01*
X12091214Y2798360D02*
X12091214Y3098360D01*
X12219786Y2798360D02*
X12219786Y2955503D01*
X12205500Y2984074D01*
X12176928Y2998360D01*
X12134071Y2998360D01*
X12105500Y2984074D01*
X12091214Y2969788D01*
X12405500Y2798360D02*
X12376928Y2812645D01*
X12362643Y2826931D01*
X12348357Y2855503D01*
X12348357Y2941217D01*
X12362643Y2969788D01*
X12376928Y2984074D01*
X12405500Y2998360D01*
X12448357Y2998360D01*
X12476928Y2984074D01*
X12491214Y2969788D01*
X12505500Y2941217D01*
X12505500Y2855503D01*
X12491214Y2826931D01*
X12476928Y2812645D01*
X12448357Y2798360D01*
X12405500Y2798360D01*
X12676928Y2798360D02*
X12648357Y2812645D01*
X12634071Y2841217D01*
X12634071Y3098360D01*
X12905500Y2812645D02*
X12876928Y2798360D01*
X12819786Y2798360D01*
X12791214Y2812645D01*
X12776928Y2841217D01*
X12776928Y2955503D01*
X12791214Y2984074D01*
X12819786Y2998360D01*
X12876928Y2998360D01*
X12905500Y2984074D01*
X12919786Y2955503D01*
X12919786Y2926931D01*
X12776928Y2898360D01*
X13034071Y2812645D02*
X13062643Y2798360D01*
X13119786Y2798360D01*
X13148357Y2812645D01*
X13162643Y2841217D01*
X13162643Y2855503D01*
X13148357Y2884074D01*
X13119786Y2898360D01*
X13076928Y2898360D01*
X13048357Y2912645D01*
X13034071Y2941217D01*
X13034071Y2955503D01*
X13048357Y2984074D01*
X13076928Y2998360D01*
X13119786Y2998360D01*
X13148357Y2984074D01*
X13262643Y2684074D02*
X13276928Y2698360D01*
X13305500Y2741217D01*
X13319786Y2769788D01*
X13334071Y2812645D01*
X13348357Y2884074D01*
X13348357Y2941217D01*
X13334071Y3012645D01*
X13319786Y3055503D01*
X13305500Y3084074D01*
X13276928Y3126931D01*
X13262643Y3141217D01*
X13805500Y2684074D02*
X13791214Y2698360D01*
X13762643Y2741217D01*
X13748357Y2769788D01*
X13734071Y2812645D01*
X13719786Y2884074D01*
X13719786Y2941217D01*
X13734071Y3012645D01*
X13748357Y3055503D01*
X13762643Y3084074D01*
X13791214Y3126931D01*
X13805500Y3141217D01*
X13919786Y2998360D02*
X13919786Y2798360D01*
X13919786Y2969788D02*
X13934071Y2984074D01*
X13962643Y2998360D01*
X14005500Y2998360D01*
X14034071Y2984074D01*
X14048357Y2955503D01*
X14048357Y2798360D01*
X14234071Y2798360D02*
X14205500Y2812645D01*
X14191214Y2826931D01*
X14176928Y2855503D01*
X14176928Y2941217D01*
X14191214Y2969788D01*
X14205500Y2984074D01*
X14234071Y2998360D01*
X14276928Y2998360D01*
X14305500Y2984074D01*
X14319786Y2969788D01*
X14334071Y2941217D01*
X14334071Y2855503D01*
X14319786Y2826931D01*
X14305500Y2812645D01*
X14276928Y2798360D01*
X14234071Y2798360D01*
X14419786Y2998360D02*
X14534071Y2998360D01*
X14462643Y3098360D02*
X14462643Y2841217D01*
X14476928Y2812645D01*
X14505500Y2798360D01*
X14534071Y2798360D01*
X14862643Y2998360D02*
X14862643Y2698360D01*
X14862643Y2984074D02*
X14891214Y2998360D01*
X14948357Y2998360D01*
X14976928Y2984074D01*
X14991214Y2969788D01*
X15005500Y2941217D01*
X15005500Y2855503D01*
X14991214Y2826931D01*
X14976928Y2812645D01*
X14948357Y2798360D01*
X14891214Y2798360D01*
X14862643Y2812645D01*
X15176928Y2798360D02*
X15148357Y2812645D01*
X15134071Y2841217D01*
X15134071Y3098360D01*
X15419786Y2798360D02*
X15419786Y2955503D01*
X15405500Y2984074D01*
X15376928Y2998360D01*
X15319786Y2998360D01*
X15291214Y2984074D01*
X15419786Y2812645D02*
X15391214Y2798360D01*
X15319786Y2798360D01*
X15291214Y2812645D01*
X15276928Y2841217D01*
X15276928Y2869788D01*
X15291214Y2898360D01*
X15319786Y2912645D01*
X15391214Y2912645D01*
X15419786Y2926931D01*
X15519786Y2998360D02*
X15634071Y2998360D01*
X15562643Y3098360D02*
X15562643Y2841217D01*
X15576928Y2812645D01*
X15605500Y2798360D01*
X15634071Y2798360D01*
X15848357Y2812645D02*
X15819786Y2798360D01*
X15762643Y2798360D01*
X15734071Y2812645D01*
X15719786Y2841217D01*
X15719786Y2955503D01*
X15734071Y2984074D01*
X15762643Y2998360D01*
X15819786Y2998360D01*
X15848357Y2984074D01*
X15862643Y2955503D01*
X15862643Y2926931D01*
X15719786Y2898360D01*
X16119786Y2798360D02*
X16119786Y3098360D01*
X16119786Y2812645D02*
X16091214Y2798360D01*
X16034071Y2798360D01*
X16005500Y2812645D01*
X15991214Y2826931D01*
X15976928Y2855503D01*
X15976928Y2941217D01*
X15991214Y2969788D01*
X16005500Y2984074D01*
X16034071Y2998360D01*
X16091214Y2998360D01*
X16119786Y2984074D01*
X16234071Y2684074D02*
X16248357Y2698360D01*
X16276928Y2741217D01*
X16291214Y2769788D01*
X16305500Y2812645D01*
X16319786Y2884074D01*
X16319786Y2941217D01*
X16305500Y3012645D01*
X16291214Y3055503D01*
X16276928Y3084074D01*
X16248357Y3126931D01*
X16234071Y3141217D01*
X6490500Y2538074D02*
G75*
G03X6490500Y2538074I-147500J0D01*
G01*
X6762643Y2673788D02*
X6776928Y2688074D01*
X6805500Y2702360D01*
X6876928Y2702360D01*
X6905500Y2688074D01*
X6919786Y2673788D01*
X6934071Y2645217D01*
X6934071Y2616646D01*
X6919786Y2573788D01*
X6748357Y2402360D01*
X6934071Y2402360D01*
X7062643Y2430931D02*
X7076928Y2416646D01*
X7062643Y2402360D01*
X7048357Y2416646D01*
X7062643Y2430931D01*
X7062643Y2402360D01*
X7219786Y2402360D02*
X7276928Y2402360D01*
X7305500Y2416646D01*
X7319786Y2430931D01*
X7348357Y2473788D01*
X7362643Y2530931D01*
X7362643Y2645217D01*
X7348357Y2673788D01*
X7334071Y2688074D01*
X7305500Y2702360D01*
X7248357Y2702360D01*
X7219786Y2688074D01*
X7205500Y2673788D01*
X7191214Y2645217D01*
X7191214Y2573788D01*
X7205500Y2545217D01*
X7219786Y2530931D01*
X7248357Y2516646D01*
X7305500Y2516646D01*
X7334071Y2530931D01*
X7348357Y2545217D01*
X7362643Y2573788D01*
X7634071Y2702360D02*
X7491214Y2702360D01*
X7476928Y2559503D01*
X7491214Y2573788D01*
X7519786Y2588074D01*
X7591214Y2588074D01*
X7619786Y2573788D01*
X7634071Y2559503D01*
X7648357Y2530931D01*
X7648357Y2459503D01*
X7634071Y2430931D01*
X7619786Y2416646D01*
X7591214Y2402360D01*
X7519786Y2402360D01*
X7491214Y2416646D01*
X7476928Y2430931D01*
X7776928Y2402360D02*
X7776928Y2602360D01*
X7776928Y2573788D02*
X7791214Y2588074D01*
X7819786Y2602360D01*
X7862643Y2602360D01*
X7891214Y2588074D01*
X7905500Y2559503D01*
X7905500Y2402360D01*
X7905500Y2559503D02*
X7919786Y2588074D01*
X7948357Y2602360D01*
X7991214Y2602360D01*
X8019786Y2588074D01*
X8034071Y2559503D01*
X8034071Y2402360D01*
X8176928Y2402360D02*
X8176928Y2602360D01*
X8176928Y2573788D02*
X8191214Y2588074D01*
X8219786Y2602360D01*
X8262643Y2602360D01*
X8291214Y2588074D01*
X8305500Y2559503D01*
X8305500Y2402360D01*
X8305500Y2559503D02*
X8319786Y2588074D01*
X8348357Y2602360D01*
X8391214Y2602360D01*
X8419786Y2588074D01*
X8434071Y2559503D01*
X8434071Y2402360D01*
X9019786Y2716646D02*
X8762643Y2330931D01*
X9405500Y2702360D02*
X9434071Y2702360D01*
X9462643Y2688074D01*
X9476928Y2673788D01*
X9491214Y2645217D01*
X9505500Y2588074D01*
X9505500Y2516646D01*
X9491214Y2459503D01*
X9476928Y2430931D01*
X9462643Y2416646D01*
X9434071Y2402360D01*
X9405500Y2402360D01*
X9376928Y2416646D01*
X9362643Y2430931D01*
X9348357Y2459503D01*
X9334071Y2516646D01*
X9334071Y2588074D01*
X9348357Y2645217D01*
X9362643Y2673788D01*
X9376928Y2688074D01*
X9405500Y2702360D01*
X9634071Y2430931D02*
X9648357Y2416646D01*
X9634071Y2402360D01*
X9619786Y2416646D01*
X9634071Y2430931D01*
X9634071Y2402360D01*
X9934071Y2402360D02*
X9762643Y2402360D01*
X9848357Y2402360D02*
X9848357Y2702360D01*
X9819786Y2659503D01*
X9791214Y2630931D01*
X9762643Y2616646D01*
X10219786Y2402360D02*
X10048357Y2402360D01*
X10134071Y2402360D02*
X10134071Y2702360D01*
X10105500Y2659503D01*
X10076928Y2630931D01*
X10048357Y2616646D01*
X10476928Y2702360D02*
X10419786Y2702360D01*
X10391214Y2688074D01*
X10376928Y2673788D01*
X10348357Y2630931D01*
X10334071Y2573788D01*
X10334071Y2459503D01*
X10348357Y2430931D01*
X10362643Y2416646D01*
X10391214Y2402360D01*
X10448357Y2402360D01*
X10476928Y2416646D01*
X10491214Y2430931D01*
X10505500Y2459503D01*
X10505500Y2530931D01*
X10491214Y2559503D01*
X10476928Y2573788D01*
X10448357Y2588074D01*
X10391214Y2588074D01*
X10362643Y2573788D01*
X10348357Y2559503D01*
X10334071Y2530931D01*
X10619786Y2702360D02*
X10619786Y2645217D01*
X10734071Y2702360D02*
X10734071Y2645217D01*
X11176928Y2288074D02*
X11162643Y2302360D01*
X11134071Y2345217D01*
X11119786Y2373788D01*
X11105500Y2416646D01*
X11091214Y2488074D01*
X11091214Y2545217D01*
X11105500Y2616646D01*
X11119786Y2659503D01*
X11134071Y2688074D01*
X11162643Y2730931D01*
X11176928Y2745217D01*
X11448357Y2402360D02*
X11276928Y2402360D01*
X11362643Y2402360D02*
X11362643Y2702360D01*
X11334071Y2659503D01*
X11305500Y2630931D01*
X11276928Y2616646D01*
X11562643Y2673788D02*
X11576928Y2688074D01*
X11605500Y2702360D01*
X11676928Y2702360D01*
X11705500Y2688074D01*
X11719786Y2673788D01*
X11734071Y2645217D01*
X11734071Y2616646D01*
X11719786Y2573788D01*
X11548357Y2402360D01*
X11734071Y2402360D01*
X12091214Y2402360D02*
X12091214Y2702360D01*
X12219786Y2402360D02*
X12219786Y2559503D01*
X12205500Y2588074D01*
X12176928Y2602360D01*
X12134071Y2602360D01*
X12105500Y2588074D01*
X12091214Y2573788D01*
X12405500Y2402360D02*
X12376928Y2416646D01*
X12362643Y2430931D01*
X12348357Y2459503D01*
X12348357Y2545217D01*
X12362643Y2573788D01*
X12376928Y2588074D01*
X12405500Y2602360D01*
X12448357Y2602360D01*
X12476928Y2588074D01*
X12491214Y2573788D01*
X12505500Y2545217D01*
X12505500Y2459503D01*
X12491214Y2430931D01*
X12476928Y2416646D01*
X12448357Y2402360D01*
X12405500Y2402360D01*
X12676928Y2402360D02*
X12648357Y2416646D01*
X12634071Y2445217D01*
X12634071Y2702360D01*
X12905500Y2416646D02*
X12876928Y2402360D01*
X12819786Y2402360D01*
X12791214Y2416646D01*
X12776928Y2445217D01*
X12776928Y2559503D01*
X12791214Y2588074D01*
X12819786Y2602360D01*
X12876928Y2602360D01*
X12905500Y2588074D01*
X12919786Y2559503D01*
X12919786Y2530931D01*
X12776928Y2502360D01*
X13034071Y2416646D02*
X13062643Y2402360D01*
X13119786Y2402360D01*
X13148357Y2416646D01*
X13162643Y2445217D01*
X13162643Y2459503D01*
X13148357Y2488074D01*
X13119786Y2502360D01*
X13076928Y2502360D01*
X13048357Y2516646D01*
X13034071Y2545217D01*
X13034071Y2559503D01*
X13048357Y2588074D01*
X13076928Y2602360D01*
X13119786Y2602360D01*
X13148357Y2588074D01*
X13262643Y2288074D02*
X13276928Y2302360D01*
X13305500Y2345217D01*
X13319786Y2373788D01*
X13334071Y2416646D01*
X13348357Y2488074D01*
X13348357Y2545217D01*
X13334071Y2616646D01*
X13319786Y2659503D01*
X13305500Y2688074D01*
X13276928Y2730931D01*
X13262643Y2745217D01*
X13805500Y2288074D02*
X13791214Y2302360D01*
X13762643Y2345217D01*
X13748357Y2373788D01*
X13734071Y2416646D01*
X13719786Y2488074D01*
X13719786Y2545217D01*
X13734071Y2616646D01*
X13748357Y2659503D01*
X13762643Y2688074D01*
X13791214Y2730931D01*
X13805500Y2745217D01*
X13919786Y2602360D02*
X13919786Y2402360D01*
X13919786Y2573788D02*
X13934071Y2588074D01*
X13962643Y2602360D01*
X14005500Y2602360D01*
X14034071Y2588074D01*
X14048357Y2559503D01*
X14048357Y2402360D01*
X14234071Y2402360D02*
X14205500Y2416646D01*
X14191214Y2430931D01*
X14176928Y2459503D01*
X14176928Y2545217D01*
X14191214Y2573788D01*
X14205500Y2588074D01*
X14234071Y2602360D01*
X14276928Y2602360D01*
X14305500Y2588074D01*
X14319786Y2573788D01*
X14334071Y2545217D01*
X14334071Y2459503D01*
X14319786Y2430931D01*
X14305500Y2416646D01*
X14276928Y2402360D01*
X14234071Y2402360D01*
X14419786Y2602360D02*
X14534071Y2602360D01*
X14462643Y2702360D02*
X14462643Y2445217D01*
X14476928Y2416646D01*
X14505500Y2402360D01*
X14534071Y2402360D01*
X14862643Y2602360D02*
X14862643Y2302360D01*
X14862643Y2588074D02*
X14891214Y2602360D01*
X14948357Y2602360D01*
X14976928Y2588074D01*
X14991214Y2573788D01*
X15005500Y2545217D01*
X15005500Y2459503D01*
X14991214Y2430931D01*
X14976928Y2416646D01*
X14948357Y2402360D01*
X14891214Y2402360D01*
X14862643Y2416646D01*
X15176928Y2402360D02*
X15148357Y2416646D01*
X15134071Y2445217D01*
X15134071Y2702360D01*
X15419786Y2402360D02*
X15419786Y2559503D01*
X15405500Y2588074D01*
X15376928Y2602360D01*
X15319786Y2602360D01*
X15291214Y2588074D01*
X15419786Y2416646D02*
X15391214Y2402360D01*
X15319786Y2402360D01*
X15291214Y2416646D01*
X15276928Y2445217D01*
X15276928Y2473788D01*
X15291214Y2502360D01*
X15319786Y2516646D01*
X15391214Y2516646D01*
X15419786Y2530931D01*
X15519786Y2602360D02*
X15634071Y2602360D01*
X15562643Y2702360D02*
X15562643Y2445217D01*
X15576928Y2416646D01*
X15605500Y2402360D01*
X15634071Y2402360D01*
X15848357Y2416646D02*
X15819786Y2402360D01*
X15762643Y2402360D01*
X15734071Y2416646D01*
X15719786Y2445217D01*
X15719786Y2559503D01*
X15734071Y2588074D01*
X15762643Y2602360D01*
X15819786Y2602360D01*
X15848357Y2588074D01*
X15862643Y2559503D01*
X15862643Y2530931D01*
X15719786Y2502360D01*
X16119786Y2402360D02*
X16119786Y2702360D01*
X16119786Y2416646D02*
X16091214Y2402360D01*
X16034071Y2402360D01*
X16005500Y2416646D01*
X15991214Y2430931D01*
X15976928Y2459503D01*
X15976928Y2545217D01*
X15991214Y2573788D01*
X16005500Y2588074D01*
X16034071Y2602360D01*
X16091214Y2602360D01*
X16119786Y2588074D01*
X16234071Y2288074D02*
X16248357Y2302360D01*
X16276928Y2345217D01*
X16291214Y2373788D01*
X16305500Y2416646D01*
X16319786Y2488074D01*
X16319786Y2545217D01*
X16305500Y2616646D01*
X16291214Y2659503D01*
X16276928Y2688074D01*
X16248357Y2730931D01*
X16234071Y2745217D01*
X6340500Y2263074D02*
X6340500Y1963074D01*
X6190500Y2113074D02*
X6490500Y2113074D01*
X6748357Y2277360D02*
X6934071Y2277360D01*
X6834071Y2163074D01*
X6876928Y2163074D01*
X6905500Y2148788D01*
X6919786Y2134503D01*
X6934071Y2105931D01*
X6934071Y2034503D01*
X6919786Y2005931D01*
X6905500Y1991645D01*
X6876928Y1977360D01*
X6791214Y1977360D01*
X6762643Y1991645D01*
X6748357Y2005931D01*
X7062643Y2005931D02*
X7076928Y1991645D01*
X7062643Y1977360D01*
X7048357Y1991645D01*
X7062643Y2005931D01*
X7062643Y1977360D01*
X7262643Y2277360D02*
X7291214Y2277360D01*
X7319786Y2263074D01*
X7334071Y2248788D01*
X7348357Y2220217D01*
X7362643Y2163074D01*
X7362643Y2091645D01*
X7348357Y2034503D01*
X7334071Y2005931D01*
X7319786Y1991645D01*
X7291214Y1977360D01*
X7262643Y1977360D01*
X7234071Y1991645D01*
X7219786Y2005931D01*
X7205500Y2034503D01*
X7191214Y2091645D01*
X7191214Y2163074D01*
X7205500Y2220217D01*
X7219786Y2248788D01*
X7234071Y2263074D01*
X7262643Y2277360D01*
X7548357Y2277360D02*
X7576928Y2277360D01*
X7605500Y2263074D01*
X7619786Y2248788D01*
X7634071Y2220217D01*
X7648357Y2163074D01*
X7648357Y2091645D01*
X7634071Y2034503D01*
X7619786Y2005931D01*
X7605500Y1991645D01*
X7576928Y1977360D01*
X7548357Y1977360D01*
X7519786Y1991645D01*
X7505500Y2005931D01*
X7491214Y2034503D01*
X7476928Y2091645D01*
X7476928Y2163074D01*
X7491214Y2220217D01*
X7505500Y2248788D01*
X7519786Y2263074D01*
X7548357Y2277360D01*
X7776928Y1977360D02*
X7776928Y2177360D01*
X7776928Y2148788D02*
X7791214Y2163074D01*
X7819786Y2177360D01*
X7862643Y2177360D01*
X7891214Y2163074D01*
X7905500Y2134503D01*
X7905500Y1977360D01*
X7905500Y2134503D02*
X7919786Y2163074D01*
X7948357Y2177360D01*
X7991214Y2177360D01*
X8019786Y2163074D01*
X8034071Y2134503D01*
X8034071Y1977360D01*
X8176928Y1977360D02*
X8176928Y2177360D01*
X8176928Y2148788D02*
X8191214Y2163074D01*
X8219786Y2177360D01*
X8262643Y2177360D01*
X8291214Y2163074D01*
X8305500Y2134503D01*
X8305500Y1977360D01*
X8305500Y2134503D02*
X8319786Y2163074D01*
X8348357Y2177360D01*
X8391214Y2177360D01*
X8419786Y2163074D01*
X8434071Y2134503D01*
X8434071Y1977360D01*
X9019786Y2291646D02*
X8762643Y1905931D01*
X9405500Y2277360D02*
X9434071Y2277360D01*
X9462643Y2263074D01*
X9476928Y2248788D01*
X9491214Y2220217D01*
X9505500Y2163074D01*
X9505500Y2091645D01*
X9491214Y2034503D01*
X9476928Y2005931D01*
X9462643Y1991645D01*
X9434071Y1977360D01*
X9405500Y1977360D01*
X9376928Y1991645D01*
X9362643Y2005931D01*
X9348357Y2034503D01*
X9334071Y2091645D01*
X9334071Y2163074D01*
X9348357Y2220217D01*
X9362643Y2248788D01*
X9376928Y2263074D01*
X9405500Y2277360D01*
X9634071Y2005931D02*
X9648357Y1991645D01*
X9634071Y1977360D01*
X9619786Y1991645D01*
X9634071Y2005931D01*
X9634071Y1977360D01*
X9934071Y1977360D02*
X9762643Y1977360D01*
X9848357Y1977360D02*
X9848357Y2277360D01*
X9819786Y2234503D01*
X9791214Y2205931D01*
X9762643Y2191646D01*
X10219786Y1977360D02*
X10048357Y1977360D01*
X10134071Y1977360D02*
X10134071Y2277360D01*
X10105500Y2234503D01*
X10076928Y2205931D01*
X10048357Y2191646D01*
X10391214Y2148788D02*
X10362643Y2163074D01*
X10348357Y2177360D01*
X10334071Y2205931D01*
X10334071Y2220217D01*
X10348357Y2248788D01*
X10362643Y2263074D01*
X10391214Y2277360D01*
X10448357Y2277360D01*
X10476928Y2263074D01*
X10491214Y2248788D01*
X10505500Y2220217D01*
X10505500Y2205931D01*
X10491214Y2177360D01*
X10476928Y2163074D01*
X10448357Y2148788D01*
X10391214Y2148788D01*
X10362643Y2134503D01*
X10348357Y2120217D01*
X10334071Y2091645D01*
X10334071Y2034503D01*
X10348357Y2005931D01*
X10362643Y1991645D01*
X10391214Y1977360D01*
X10448357Y1977360D01*
X10476928Y1991645D01*
X10491214Y2005931D01*
X10505500Y2034503D01*
X10505500Y2091645D01*
X10491214Y2120217D01*
X10476928Y2134503D01*
X10448357Y2148788D01*
X10619786Y2277360D02*
X10619786Y2220217D01*
X10734071Y2277360D02*
X10734071Y2220217D01*
X11176928Y1863074D02*
X11162643Y1877360D01*
X11134071Y1920217D01*
X11119786Y1948788D01*
X11105500Y1991645D01*
X11091214Y2063074D01*
X11091214Y2120217D01*
X11105500Y2191646D01*
X11119786Y2234503D01*
X11134071Y2263074D01*
X11162643Y2305931D01*
X11176928Y2320217D01*
X11448357Y1977360D02*
X11276928Y1977360D01*
X11362643Y1977360D02*
X11362643Y2277360D01*
X11334071Y2234503D01*
X11305500Y2205931D01*
X11276928Y2191646D01*
X11562643Y2248788D02*
X11576928Y2263074D01*
X11605500Y2277360D01*
X11676928Y2277360D01*
X11705500Y2263074D01*
X11719786Y2248788D01*
X11734071Y2220217D01*
X11734071Y2191646D01*
X11719786Y2148788D01*
X11548357Y1977360D01*
X11734071Y1977360D01*
X12091214Y1977360D02*
X12091214Y2277360D01*
X12219786Y1977360D02*
X12219786Y2134503D01*
X12205500Y2163074D01*
X12176928Y2177360D01*
X12134071Y2177360D01*
X12105500Y2163074D01*
X12091214Y2148788D01*
X12405500Y1977360D02*
X12376928Y1991645D01*
X12362643Y2005931D01*
X12348357Y2034503D01*
X12348357Y2120217D01*
X12362643Y2148788D01*
X12376928Y2163074D01*
X12405500Y2177360D01*
X12448357Y2177360D01*
X12476928Y2163074D01*
X12491214Y2148788D01*
X12505500Y2120217D01*
X12505500Y2034503D01*
X12491214Y2005931D01*
X12476928Y1991645D01*
X12448357Y1977360D01*
X12405500Y1977360D01*
X12676928Y1977360D02*
X12648357Y1991645D01*
X12634071Y2020217D01*
X12634071Y2277360D01*
X12905500Y1991645D02*
X12876928Y1977360D01*
X12819786Y1977360D01*
X12791214Y1991645D01*
X12776928Y2020217D01*
X12776928Y2134503D01*
X12791214Y2163074D01*
X12819786Y2177360D01*
X12876928Y2177360D01*
X12905500Y2163074D01*
X12919786Y2134503D01*
X12919786Y2105931D01*
X12776928Y2077360D01*
X13034071Y1991645D02*
X13062643Y1977360D01*
X13119786Y1977360D01*
X13148357Y1991645D01*
X13162643Y2020217D01*
X13162643Y2034503D01*
X13148357Y2063074D01*
X13119786Y2077360D01*
X13076928Y2077360D01*
X13048357Y2091645D01*
X13034071Y2120217D01*
X13034071Y2134503D01*
X13048357Y2163074D01*
X13076928Y2177360D01*
X13119786Y2177360D01*
X13148357Y2163074D01*
X13262643Y1863074D02*
X13276928Y1877360D01*
X13305500Y1920217D01*
X13319786Y1948788D01*
X13334071Y1991645D01*
X13348357Y2063074D01*
X13348357Y2120217D01*
X13334071Y2191646D01*
X13319786Y2234503D01*
X13305500Y2263074D01*
X13276928Y2305931D01*
X13262643Y2320217D01*
X13805500Y1863074D02*
X13791214Y1877360D01*
X13762643Y1920217D01*
X13748357Y1948788D01*
X13734071Y1991645D01*
X13719786Y2063074D01*
X13719786Y2120217D01*
X13734071Y2191646D01*
X13748357Y2234503D01*
X13762643Y2263074D01*
X13791214Y2305931D01*
X13805500Y2320217D01*
X13919786Y2177360D02*
X13919786Y1977360D01*
X13919786Y2148788D02*
X13934071Y2163074D01*
X13962643Y2177360D01*
X14005500Y2177360D01*
X14034071Y2163074D01*
X14048357Y2134503D01*
X14048357Y1977360D01*
X14234071Y1977360D02*
X14205500Y1991645D01*
X14191214Y2005931D01*
X14176928Y2034503D01*
X14176928Y2120217D01*
X14191214Y2148788D01*
X14205500Y2163074D01*
X14234071Y2177360D01*
X14276928Y2177360D01*
X14305500Y2163074D01*
X14319786Y2148788D01*
X14334071Y2120217D01*
X14334071Y2034503D01*
X14319786Y2005931D01*
X14305500Y1991645D01*
X14276928Y1977360D01*
X14234071Y1977360D01*
X14419786Y2177360D02*
X14534071Y2177360D01*
X14462643Y2277360D02*
X14462643Y2020217D01*
X14476928Y1991645D01*
X14505500Y1977360D01*
X14534071Y1977360D01*
X14862643Y2177360D02*
X14862643Y1877360D01*
X14862643Y2163074D02*
X14891214Y2177360D01*
X14948357Y2177360D01*
X14976928Y2163074D01*
X14991214Y2148788D01*
X15005500Y2120217D01*
X15005500Y2034503D01*
X14991214Y2005931D01*
X14976928Y1991645D01*
X14948357Y1977360D01*
X14891214Y1977360D01*
X14862643Y1991645D01*
X15176928Y1977360D02*
X15148357Y1991645D01*
X15134071Y2020217D01*
X15134071Y2277360D01*
X15419786Y1977360D02*
X15419786Y2134503D01*
X15405500Y2163074D01*
X15376928Y2177360D01*
X15319786Y2177360D01*
X15291214Y2163074D01*
X15419786Y1991645D02*
X15391214Y1977360D01*
X15319786Y1977360D01*
X15291214Y1991645D01*
X15276928Y2020217D01*
X15276928Y2048788D01*
X15291214Y2077360D01*
X15319786Y2091645D01*
X15391214Y2091645D01*
X15419786Y2105931D01*
X15519786Y2177360D02*
X15634071Y2177360D01*
X15562643Y2277360D02*
X15562643Y2020217D01*
X15576928Y1991645D01*
X15605500Y1977360D01*
X15634071Y1977360D01*
X15848357Y1991645D02*
X15819786Y1977360D01*
X15762643Y1977360D01*
X15734071Y1991645D01*
X15719786Y2020217D01*
X15719786Y2134503D01*
X15734071Y2163074D01*
X15762643Y2177360D01*
X15819786Y2177360D01*
X15848357Y2163074D01*
X15862643Y2134503D01*
X15862643Y2105931D01*
X15719786Y2077360D01*
X16119786Y1977360D02*
X16119786Y2277360D01*
X16119786Y1991645D02*
X16091214Y1977360D01*
X16034071Y1977360D01*
X16005500Y1991645D01*
X15991214Y2005931D01*
X15976928Y2034503D01*
X15976928Y2120217D01*
X15991214Y2148788D01*
X16005500Y2163074D01*
X16034071Y2177360D01*
X16091214Y2177360D01*
X16119786Y2163074D01*
X16234071Y1863074D02*
X16248357Y1877360D01*
X16276928Y1920217D01*
X16291214Y1948788D01*
X16305500Y1991645D01*
X16319786Y2063074D01*
X16319786Y2120217D01*
X16305500Y2191646D01*
X16291214Y2234503D01*
X16276928Y2263074D01*
X16248357Y2305931D01*
X16234071Y2320217D01*
X6418010Y1508063D02*
X6418010Y1858085D01*
X6067989Y1858085D01*
X6067989Y1508063D01*
X6418010Y1508063D01*
X6905500Y1747360D02*
X6905500Y1547360D01*
X6834071Y1861645D02*
X6762643Y1647360D01*
X6948357Y1647360D01*
X7062643Y1575931D02*
X7076928Y1561645D01*
X7062643Y1547360D01*
X7048357Y1561645D01*
X7062643Y1575931D01*
X7062643Y1547360D01*
X7219786Y1547360D02*
X7276928Y1547360D01*
X7305500Y1561645D01*
X7319786Y1575931D01*
X7348357Y1618788D01*
X7362643Y1675931D01*
X7362643Y1790217D01*
X7348357Y1818788D01*
X7334071Y1833074D01*
X7305500Y1847360D01*
X7248357Y1847360D01*
X7219786Y1833074D01*
X7205500Y1818788D01*
X7191214Y1790217D01*
X7191214Y1718788D01*
X7205500Y1690217D01*
X7219786Y1675931D01*
X7248357Y1661645D01*
X7305500Y1661645D01*
X7334071Y1675931D01*
X7348357Y1690217D01*
X7362643Y1718788D01*
X7634071Y1847360D02*
X7491214Y1847360D01*
X7476928Y1704503D01*
X7491214Y1718788D01*
X7519786Y1733074D01*
X7591214Y1733074D01*
X7619786Y1718788D01*
X7634071Y1704503D01*
X7648357Y1675931D01*
X7648357Y1604503D01*
X7634071Y1575931D01*
X7619786Y1561645D01*
X7591214Y1547360D01*
X7519786Y1547360D01*
X7491214Y1561645D01*
X7476928Y1575931D01*
X7776928Y1547360D02*
X7776928Y1747360D01*
X7776928Y1718788D02*
X7791214Y1733074D01*
X7819786Y1747360D01*
X7862643Y1747360D01*
X7891214Y1733074D01*
X7905500Y1704503D01*
X7905500Y1547360D01*
X7905500Y1704503D02*
X7919786Y1733074D01*
X7948357Y1747360D01*
X7991214Y1747360D01*
X8019786Y1733074D01*
X8034071Y1704503D01*
X8034071Y1547360D01*
X8176928Y1547360D02*
X8176928Y1747360D01*
X8176928Y1718788D02*
X8191214Y1733074D01*
X8219786Y1747360D01*
X8262643Y1747360D01*
X8291214Y1733074D01*
X8305500Y1704503D01*
X8305500Y1547360D01*
X8305500Y1704503D02*
X8319786Y1733074D01*
X8348357Y1747360D01*
X8391214Y1747360D01*
X8419786Y1733074D01*
X8434071Y1704503D01*
X8434071Y1547360D01*
X9019786Y1861645D02*
X8762643Y1475931D01*
X9405500Y1847360D02*
X9434071Y1847360D01*
X9462643Y1833074D01*
X9476928Y1818788D01*
X9491214Y1790217D01*
X9505500Y1733074D01*
X9505500Y1661645D01*
X9491214Y1604503D01*
X9476928Y1575931D01*
X9462643Y1561645D01*
X9434071Y1547360D01*
X9405500Y1547360D01*
X9376928Y1561645D01*
X9362643Y1575931D01*
X9348357Y1604503D01*
X9334071Y1661645D01*
X9334071Y1733074D01*
X9348357Y1790217D01*
X9362643Y1818788D01*
X9376928Y1833074D01*
X9405500Y1847360D01*
X9634071Y1575931D02*
X9648357Y1561645D01*
X9634071Y1547360D01*
X9619786Y1561645D01*
X9634071Y1575931D01*
X9634071Y1547360D01*
X9934071Y1547360D02*
X9762643Y1547360D01*
X9848357Y1547360D02*
X9848357Y1847360D01*
X9819786Y1804503D01*
X9791214Y1775931D01*
X9762643Y1761645D01*
X10076928Y1547360D02*
X10134071Y1547360D01*
X10162643Y1561645D01*
X10176928Y1575931D01*
X10205500Y1618788D01*
X10219786Y1675931D01*
X10219786Y1790217D01*
X10205500Y1818788D01*
X10191214Y1833074D01*
X10162643Y1847360D01*
X10105500Y1847360D01*
X10076928Y1833074D01*
X10062643Y1818788D01*
X10048357Y1790217D01*
X10048357Y1718788D01*
X10062643Y1690217D01*
X10076928Y1675931D01*
X10105500Y1661645D01*
X10162643Y1661645D01*
X10191214Y1675931D01*
X10205500Y1690217D01*
X10219786Y1718788D01*
X10491214Y1847360D02*
X10348357Y1847360D01*
X10334071Y1704503D01*
X10348357Y1718788D01*
X10376928Y1733074D01*
X10448357Y1733074D01*
X10476928Y1718788D01*
X10491214Y1704503D01*
X10505500Y1675931D01*
X10505500Y1604503D01*
X10491214Y1575931D01*
X10476928Y1561645D01*
X10448357Y1547360D01*
X10376928Y1547360D01*
X10348357Y1561645D01*
X10334071Y1575931D01*
X10619786Y1847360D02*
X10619786Y1790217D01*
X10734071Y1847360D02*
X10734071Y1790217D01*
X11176928Y1433074D02*
X11162643Y1447360D01*
X11134071Y1490217D01*
X11119786Y1518788D01*
X11105500Y1561645D01*
X11091214Y1633074D01*
X11091214Y1690217D01*
X11105500Y1761645D01*
X11119786Y1804503D01*
X11134071Y1833074D01*
X11162643Y1875931D01*
X11176928Y1890217D01*
X11419786Y1847360D02*
X11362643Y1847360D01*
X11334071Y1833074D01*
X11319786Y1818788D01*
X11291214Y1775931D01*
X11276928Y1718788D01*
X11276928Y1604503D01*
X11291214Y1575931D01*
X11305500Y1561645D01*
X11334071Y1547360D01*
X11391214Y1547360D01*
X11419786Y1561645D01*
X11434071Y1575931D01*
X11448357Y1604503D01*
X11448357Y1675931D01*
X11434071Y1704503D01*
X11419786Y1718788D01*
X11391214Y1733074D01*
X11334071Y1733074D01*
X11305500Y1718788D01*
X11291214Y1704503D01*
X11276928Y1675931D01*
X11805500Y1547360D02*
X11805500Y1847360D01*
X11934071Y1547360D02*
X11934071Y1704503D01*
X11919786Y1733074D01*
X11891214Y1747360D01*
X11848357Y1747360D01*
X11819786Y1733074D01*
X11805500Y1718788D01*
X12119786Y1547360D02*
X12091214Y1561645D01*
X12076928Y1575931D01*
X12062643Y1604503D01*
X12062643Y1690217D01*
X12076928Y1718788D01*
X12091214Y1733074D01*
X12119786Y1747360D01*
X12162643Y1747360D01*
X12191214Y1733074D01*
X12205500Y1718788D01*
X12219786Y1690217D01*
X12219786Y1604503D01*
X12205500Y1575931D01*
X12191214Y1561645D01*
X12162643Y1547360D01*
X12119786Y1547360D01*
X12391214Y1547360D02*
X12362643Y1561645D01*
X12348357Y1590217D01*
X12348357Y1847360D01*
X12619786Y1561645D02*
X12591214Y1547360D01*
X12534071Y1547360D01*
X12505500Y1561645D01*
X12491214Y1590217D01*
X12491214Y1704503D01*
X12505500Y1733074D01*
X12534071Y1747360D01*
X12591214Y1747360D01*
X12619786Y1733074D01*
X12634071Y1704503D01*
X12634071Y1675931D01*
X12491214Y1647360D01*
X12748357Y1561645D02*
X12776928Y1547360D01*
X12834071Y1547360D01*
X12862643Y1561645D01*
X12876928Y1590217D01*
X12876928Y1604503D01*
X12862643Y1633074D01*
X12834071Y1647360D01*
X12791214Y1647360D01*
X12762643Y1661645D01*
X12748357Y1690217D01*
X12748357Y1704503D01*
X12762643Y1733074D01*
X12791214Y1747360D01*
X12834071Y1747360D01*
X12862643Y1733074D01*
X12976928Y1433074D02*
X12991214Y1447360D01*
X13019786Y1490217D01*
X13034071Y1518788D01*
X13048357Y1561645D01*
X13062643Y1633074D01*
X13062643Y1690217D01*
X13048357Y1761645D01*
X13034071Y1804503D01*
X13019786Y1833074D01*
X12991214Y1875931D01*
X12976928Y1890217D01*
X13519786Y1433074D02*
X13505500Y1447360D01*
X13476928Y1490217D01*
X13462643Y1518788D01*
X13448357Y1561645D01*
X13434071Y1633074D01*
X13434071Y1690217D01*
X13448357Y1761645D01*
X13462643Y1804503D01*
X13476928Y1833074D01*
X13505500Y1875931D01*
X13519786Y1890217D01*
X13634071Y1747360D02*
X13634071Y1547360D01*
X13634071Y1718788D02*
X13648357Y1733074D01*
X13676928Y1747360D01*
X13719786Y1747360D01*
X13748357Y1733074D01*
X13762643Y1704503D01*
X13762643Y1547360D01*
X13948357Y1547360D02*
X13919786Y1561645D01*
X13905500Y1575931D01*
X13891214Y1604503D01*
X13891214Y1690217D01*
X13905500Y1718788D01*
X13919786Y1733074D01*
X13948357Y1747360D01*
X13991214Y1747360D01*
X14019786Y1733074D01*
X14034071Y1718788D01*
X14048357Y1690217D01*
X14048357Y1604503D01*
X14034071Y1575931D01*
X14019786Y1561645D01*
X13991214Y1547360D01*
X13948357Y1547360D01*
X14134071Y1747360D02*
X14248357Y1747360D01*
X14176928Y1847360D02*
X14176928Y1590217D01*
X14191214Y1561645D01*
X14219786Y1547360D01*
X14248357Y1547360D01*
X14576928Y1747360D02*
X14576928Y1447360D01*
X14576928Y1733074D02*
X14605500Y1747360D01*
X14662643Y1747360D01*
X14691214Y1733074D01*
X14705500Y1718788D01*
X14719786Y1690217D01*
X14719786Y1604503D01*
X14705500Y1575931D01*
X14691214Y1561645D01*
X14662643Y1547360D01*
X14605500Y1547360D01*
X14576928Y1561645D01*
X14891214Y1547360D02*
X14862643Y1561645D01*
X14848357Y1590217D01*
X14848357Y1847360D01*
X15134071Y1547360D02*
X15134071Y1704503D01*
X15119786Y1733074D01*
X15091214Y1747360D01*
X15034071Y1747360D01*
X15005500Y1733074D01*
X15134071Y1561645D02*
X15105500Y1547360D01*
X15034071Y1547360D01*
X15005500Y1561645D01*
X14991214Y1590217D01*
X14991214Y1618788D01*
X15005500Y1647360D01*
X15034071Y1661645D01*
X15105500Y1661645D01*
X15134071Y1675931D01*
X15234071Y1747360D02*
X15348357Y1747360D01*
X15276928Y1847360D02*
X15276928Y1590217D01*
X15291214Y1561645D01*
X15319786Y1547360D01*
X15348357Y1547360D01*
X15562643Y1561645D02*
X15534071Y1547360D01*
X15476928Y1547360D01*
X15448357Y1561645D01*
X15434071Y1590217D01*
X15434071Y1704503D01*
X15448357Y1733074D01*
X15476928Y1747360D01*
X15534071Y1747360D01*
X15562643Y1733074D01*
X15576928Y1704503D01*
X15576928Y1675931D01*
X15434071Y1647360D01*
X15834071Y1547360D02*
X15834071Y1847360D01*
X15834071Y1561645D02*
X15805500Y1547360D01*
X15748357Y1547360D01*
X15719786Y1561645D01*
X15705500Y1575931D01*
X15691214Y1604503D01*
X15691214Y1690217D01*
X15705500Y1718788D01*
X15719786Y1733074D01*
X15748357Y1747360D01*
X15805500Y1747360D01*
X15834071Y1733074D01*
X15948357Y1433074D02*
X15962643Y1447360D01*
X15991214Y1490217D01*
X16005500Y1518788D01*
X16019786Y1561645D01*
X16034071Y1633074D01*
X16034071Y1690217D01*
X16019786Y1761645D01*
X16005500Y1804503D01*
X15991214Y1833074D01*
X15962643Y1875931D01*
X15948357Y1890217D01*
M02*
