G04 #@! TF.GenerationSoftware,KiCad,Pcbnew,(5.1.4)-1*
G04 #@! TF.CreationDate,2023-11-05T18:19:01-05:00*
G04 #@! TF.ProjectId,ThumbsUp,5468756d-6273-4557-902e-6b696361645f,rev?*
G04 #@! TF.SameCoordinates,Original*
G04 #@! TF.FileFunction,Soldermask,Bot*
G04 #@! TF.FilePolarity,Negative*
%FSLAX46Y46*%
G04 Gerber Fmt 4.6, Leading zero omitted, Abs format (unit mm)*
G04 Created by KiCad (PCBNEW (5.1.4)-1) date 2023-11-05 18:19:01*
%MOMM*%
%LPD*%
G04 APERTURE LIST*
%ADD10C,0.100000*%
G04 APERTURE END LIST*
D10*
G36*
X172826273Y41838878D02*
G01*
X172892457Y41832360D01*
X173062296Y41780840D01*
X173218821Y41697175D01*
X173254559Y41667845D01*
X173356016Y41584583D01*
X173439278Y41483126D01*
X173468608Y41447388D01*
X173552273Y41290863D01*
X173603793Y41121024D01*
X173621189Y40944397D01*
X173603793Y40767770D01*
X173552273Y40597931D01*
X173468608Y40441406D01*
X173439278Y40405668D01*
X173356016Y40304211D01*
X173254559Y40220949D01*
X173218821Y40191619D01*
X173062296Y40107954D01*
X172892457Y40056434D01*
X172826273Y40049916D01*
X172760090Y40043397D01*
X172671570Y40043397D01*
X172605387Y40049916D01*
X172539203Y40056434D01*
X172369364Y40107954D01*
X172212839Y40191619D01*
X172177101Y40220949D01*
X172075644Y40304211D01*
X171992382Y40405668D01*
X171963052Y40441406D01*
X171879387Y40597931D01*
X171827867Y40767770D01*
X171810471Y40944397D01*
X171827867Y41121024D01*
X171879387Y41290863D01*
X171963052Y41447388D01*
X171992382Y41483126D01*
X172075644Y41584583D01*
X172177101Y41667845D01*
X172212839Y41697175D01*
X172369364Y41780840D01*
X172539203Y41832360D01*
X172605388Y41838879D01*
X172671570Y41845397D01*
X172760090Y41845397D01*
X172826273Y41838878D01*
X172826273Y41838878D01*
G37*
G36*
X113654613Y41838878D02*
G01*
X113720797Y41832360D01*
X113890636Y41780840D01*
X114047161Y41697175D01*
X114082899Y41667845D01*
X114184356Y41584583D01*
X114267618Y41483126D01*
X114296948Y41447388D01*
X114380613Y41290863D01*
X114432133Y41121024D01*
X114449529Y40944397D01*
X114432133Y40767770D01*
X114380613Y40597931D01*
X114296948Y40441406D01*
X114267618Y40405668D01*
X114184356Y40304211D01*
X114082899Y40220949D01*
X114047161Y40191619D01*
X113890636Y40107954D01*
X113720797Y40056434D01*
X113654613Y40049916D01*
X113588430Y40043397D01*
X113499910Y40043397D01*
X113433727Y40049916D01*
X113367543Y40056434D01*
X113197704Y40107954D01*
X113041179Y40191619D01*
X113005441Y40220949D01*
X112903984Y40304211D01*
X112820722Y40405668D01*
X112791392Y40441406D01*
X112707727Y40597931D01*
X112656207Y40767770D01*
X112638811Y40944397D01*
X112656207Y41121024D01*
X112707727Y41290863D01*
X112791392Y41447388D01*
X112820722Y41483126D01*
X112903984Y41584583D01*
X113005441Y41667845D01*
X113041179Y41697175D01*
X113197704Y41780840D01*
X113367543Y41832360D01*
X113433728Y41838879D01*
X113499910Y41845397D01*
X113588430Y41845397D01*
X113654613Y41838878D01*
X113654613Y41838878D01*
G37*
G36*
X115183223Y43867413D02*
G01*
X115249407Y43860895D01*
X115419246Y43809375D01*
X115575771Y43725710D01*
X115611509Y43696380D01*
X115712966Y43613118D01*
X115796228Y43511661D01*
X115825558Y43475923D01*
X115909223Y43319398D01*
X115960743Y43149559D01*
X115978139Y42972932D01*
X115960743Y42796305D01*
X115909223Y42626466D01*
X115825558Y42469941D01*
X115796228Y42434203D01*
X115712966Y42332746D01*
X115611509Y42249484D01*
X115575771Y42220154D01*
X115419246Y42136489D01*
X115249407Y42084969D01*
X115183223Y42078451D01*
X115117040Y42071932D01*
X115028520Y42071932D01*
X114962337Y42078451D01*
X114896153Y42084969D01*
X114726314Y42136489D01*
X114569789Y42220154D01*
X114534051Y42249484D01*
X114432594Y42332746D01*
X114349332Y42434203D01*
X114320002Y42469941D01*
X114236337Y42626466D01*
X114184817Y42796305D01*
X114167421Y42972932D01*
X114184817Y43149559D01*
X114236337Y43319398D01*
X114320002Y43475923D01*
X114349332Y43511661D01*
X114432594Y43613118D01*
X114534051Y43696380D01*
X114569789Y43725710D01*
X114726314Y43809375D01*
X114896153Y43860895D01*
X114962337Y43867413D01*
X115028520Y43873932D01*
X115117040Y43873932D01*
X115183223Y43867413D01*
X115183223Y43867413D01*
G37*
G36*
X171297663Y43867413D02*
G01*
X171363847Y43860895D01*
X171533686Y43809375D01*
X171690211Y43725710D01*
X171725949Y43696380D01*
X171827406Y43613118D01*
X171910668Y43511661D01*
X171939998Y43475923D01*
X172023663Y43319398D01*
X172075183Y43149559D01*
X172092579Y42972932D01*
X172075183Y42796305D01*
X172023663Y42626466D01*
X171939998Y42469941D01*
X171910668Y42434203D01*
X171827406Y42332746D01*
X171725949Y42249484D01*
X171690211Y42220154D01*
X171533686Y42136489D01*
X171363847Y42084969D01*
X171297663Y42078451D01*
X171231480Y42071932D01*
X171142960Y42071932D01*
X171076777Y42078451D01*
X171010593Y42084969D01*
X170840754Y42136489D01*
X170684229Y42220154D01*
X170648491Y42249484D01*
X170547034Y42332746D01*
X170463772Y42434203D01*
X170434442Y42469941D01*
X170350777Y42626466D01*
X170299257Y42796305D01*
X170281861Y42972932D01*
X170299257Y43149559D01*
X170350777Y43319398D01*
X170434442Y43475923D01*
X170463772Y43511661D01*
X170547034Y43613118D01*
X170648491Y43696380D01*
X170684229Y43725710D01*
X170840754Y43809375D01*
X171010593Y43860895D01*
X171076777Y43867413D01*
X171142960Y43873932D01*
X171231480Y43873932D01*
X171297663Y43867413D01*
X171297663Y43867413D01*
G37*
G36*
X111630476Y44719949D02*
G01*
X111997364Y44443479D01*
X110431442Y42365430D01*
X110431441Y42365429D01*
X108313460Y43961443D01*
X108614759Y44361280D01*
X109879382Y46039492D01*
X109879383Y46039493D01*
X111630476Y44719949D01*
X111630476Y44719949D01*
G37*
G36*
X175521726Y44016785D02*
G01*
X173842994Y42751769D01*
X172577978Y44430501D01*
X174256710Y45695517D01*
X175521726Y44016785D01*
X175521726Y44016785D01*
G37*
G36*
X116711832Y45895948D02*
G01*
X116778017Y45889429D01*
X116947856Y45837909D01*
X116947858Y45837908D01*
X117026119Y45796076D01*
X117104381Y45754244D01*
X117140119Y45724914D01*
X117241576Y45641652D01*
X117324838Y45540195D01*
X117354168Y45504457D01*
X117437833Y45347932D01*
X117489353Y45178093D01*
X117506749Y45001466D01*
X117489353Y44824839D01*
X117437833Y44655000D01*
X117354168Y44498475D01*
X117324838Y44462737D01*
X117241576Y44361280D01*
X117140119Y44278018D01*
X117104381Y44248688D01*
X116947856Y44165023D01*
X116778017Y44113503D01*
X116711833Y44106985D01*
X116645650Y44100466D01*
X116557130Y44100466D01*
X116490947Y44106985D01*
X116424763Y44113503D01*
X116254924Y44165023D01*
X116098399Y44248688D01*
X116062661Y44278018D01*
X115961204Y44361280D01*
X115877942Y44462737D01*
X115848612Y44498475D01*
X115764947Y44655000D01*
X115713427Y44824839D01*
X115696031Y45001466D01*
X115713427Y45178093D01*
X115764947Y45347932D01*
X115848612Y45504457D01*
X115877942Y45540195D01*
X115961204Y45641652D01*
X116062661Y45724914D01*
X116098399Y45754244D01*
X116176662Y45796077D01*
X116254922Y45837908D01*
X116254924Y45837909D01*
X116424763Y45889429D01*
X116490948Y45895948D01*
X116557130Y45902466D01*
X116645650Y45902466D01*
X116711832Y45895948D01*
X116711832Y45895948D01*
G37*
G36*
X169769052Y45895948D02*
G01*
X169835237Y45889429D01*
X170005076Y45837909D01*
X170005078Y45837908D01*
X170083339Y45796076D01*
X170161601Y45754244D01*
X170197339Y45724914D01*
X170298796Y45641652D01*
X170382058Y45540195D01*
X170411388Y45504457D01*
X170495053Y45347932D01*
X170546573Y45178093D01*
X170563969Y45001466D01*
X170546573Y44824839D01*
X170495053Y44655000D01*
X170411388Y44498475D01*
X170382058Y44462737D01*
X170298796Y44361280D01*
X170197339Y44278018D01*
X170161601Y44248688D01*
X170005076Y44165023D01*
X169835237Y44113503D01*
X169769053Y44106985D01*
X169702870Y44100466D01*
X169614350Y44100466D01*
X169548167Y44106985D01*
X169481983Y44113503D01*
X169312144Y44165023D01*
X169155619Y44248688D01*
X169119881Y44278018D01*
X169018424Y44361280D01*
X168935162Y44462737D01*
X168905832Y44498475D01*
X168822167Y44655000D01*
X168770647Y44824839D01*
X168753251Y45001466D01*
X168770647Y45178093D01*
X168822167Y45347932D01*
X168905832Y45504457D01*
X168935162Y45540195D01*
X169018424Y45641652D01*
X169119881Y45724914D01*
X169155619Y45754244D01*
X169233882Y45796077D01*
X169312142Y45837908D01*
X169312144Y45837909D01*
X169481983Y45889429D01*
X169548168Y45895948D01*
X169614350Y45902466D01*
X169702870Y45902466D01*
X169769052Y45895948D01*
X169769052Y45895948D01*
G37*
G36*
X177567796Y47792147D02*
G01*
X177717621Y47762345D01*
X177999885Y47645428D01*
X178253916Y47475690D01*
X178469952Y47259654D01*
X178639690Y47005623D01*
X178703047Y46852664D01*
X178756607Y46723358D01*
X178816211Y46423710D01*
X178816211Y46118188D01*
X178800557Y46039492D01*
X178756607Y45818539D01*
X178639690Y45536275D01*
X178469952Y45282244D01*
X178253916Y45066208D01*
X177999885Y44896470D01*
X177717621Y44779553D01*
X177567796Y44749751D01*
X177417972Y44719949D01*
X177112450Y44719949D01*
X176962626Y44749751D01*
X176812801Y44779553D01*
X176530537Y44896470D01*
X176276506Y45066208D01*
X176060470Y45282244D01*
X175890732Y45536275D01*
X175773815Y45818539D01*
X175729865Y46039492D01*
X175714211Y46118188D01*
X175714211Y46423710D01*
X175773815Y46723358D01*
X175827375Y46852664D01*
X175890732Y47005623D01*
X176060470Y47259654D01*
X176276506Y47475690D01*
X176530537Y47645428D01*
X176812801Y47762345D01*
X176962626Y47792147D01*
X177112450Y47821949D01*
X177417972Y47821949D01*
X177567796Y47792147D01*
X177567796Y47792147D01*
G37*
G36*
X107423182Y48010556D02*
G01*
X107573007Y47980754D01*
X107855271Y47863837D01*
X108109302Y47694099D01*
X108325338Y47478063D01*
X108495076Y47224032D01*
X108611993Y46941768D01*
X108671597Y46642118D01*
X108671597Y46336598D01*
X108611993Y46036948D01*
X108495076Y45754684D01*
X108325338Y45500653D01*
X108109302Y45284617D01*
X107855271Y45114879D01*
X107573007Y44997962D01*
X107423182Y44968160D01*
X107273358Y44938358D01*
X106967836Y44938358D01*
X106818012Y44968160D01*
X106668187Y44997962D01*
X106385923Y45114879D01*
X106131892Y45284617D01*
X105915856Y45500653D01*
X105746118Y45754684D01*
X105629201Y46036948D01*
X105569597Y46336598D01*
X105569597Y46642118D01*
X105629201Y46941768D01*
X105746118Y47224032D01*
X105915856Y47478063D01*
X106131892Y47694099D01*
X106385923Y47863837D01*
X106668187Y47980754D01*
X106818012Y48010556D01*
X106967836Y48040358D01*
X107273358Y48040358D01*
X107423182Y48010556D01*
X107423182Y48010556D01*
G37*
G36*
X168794416Y47645428D02*
G01*
X169391806Y46852665D01*
X169391806Y46852664D01*
X168706962Y46336598D01*
X167952665Y45768194D01*
X167952664Y45768194D01*
X167068314Y46941767D01*
X166868194Y47207335D01*
X166868194Y47207336D01*
X167739401Y47863837D01*
X168307335Y48291806D01*
X168307336Y48291806D01*
X168794416Y47645428D01*
X168794416Y47645428D01*
G37*
G36*
X118520599Y47863837D02*
G01*
X119391806Y47207336D01*
X119391806Y47207335D01*
X119191686Y46941767D01*
X118307336Y45768194D01*
X118307335Y45768194D01*
X117553038Y46336598D01*
X116868194Y46852664D01*
X116868194Y46852665D01*
X117465584Y47645428D01*
X117952664Y48291806D01*
X117952665Y48291806D01*
X118520599Y47863837D01*
X118520599Y47863837D01*
G37*
G36*
X183790151Y51166285D02*
G01*
X183939976Y51136483D01*
X184222240Y51019566D01*
X184476271Y50849828D01*
X184692307Y50633792D01*
X184862045Y50379761D01*
X184952330Y50161792D01*
X184978962Y50097496D01*
X185016024Y49911176D01*
X185038566Y49797847D01*
X185038566Y49492327D01*
X184978962Y49192677D01*
X184862045Y48910413D01*
X184692307Y48656382D01*
X184476271Y48440346D01*
X184222240Y48270608D01*
X183939976Y48153691D01*
X183790151Y48123889D01*
X183640327Y48094087D01*
X183334805Y48094087D01*
X183184981Y48123889D01*
X183035156Y48153691D01*
X182752892Y48270608D01*
X182498861Y48440346D01*
X182282825Y48656382D01*
X182113087Y48910413D01*
X181996170Y49192677D01*
X181936566Y49492327D01*
X181936566Y49797847D01*
X181959109Y49911176D01*
X181996170Y50097496D01*
X182022802Y50161792D01*
X182113087Y50379761D01*
X182282825Y50633792D01*
X182498861Y50849828D01*
X182752892Y51019566D01*
X183035156Y51136483D01*
X183184981Y51166285D01*
X183334805Y51196087D01*
X183640327Y51196087D01*
X183790151Y51166285D01*
X183790151Y51166285D01*
G37*
G36*
X113073028Y50220818D02*
G01*
X113160151Y50203489D01*
X113260815Y50161792D01*
X113324287Y50135501D01*
X113453395Y50049234D01*
X113472004Y50036800D01*
X113597628Y49911176D01*
X113597630Y49911173D01*
X113696329Y49763459D01*
X113696329Y49763458D01*
X113764317Y49599323D01*
X113764317Y49599321D01*
X113798976Y49425079D01*
X113798976Y49247417D01*
X113781646Y49160296D01*
X113764317Y49073173D01*
X113718992Y48963750D01*
X113696329Y48909037D01*
X113615197Y48787614D01*
X113597628Y48761320D01*
X113472004Y48635696D01*
X113472001Y48635694D01*
X113324287Y48536995D01*
X113269574Y48514332D01*
X113160151Y48469007D01*
X113073028Y48451677D01*
X112985907Y48434348D01*
X112808245Y48434348D01*
X112721124Y48451677D01*
X112634001Y48469007D01*
X112524578Y48514332D01*
X112469865Y48536995D01*
X112322151Y48635694D01*
X112322148Y48635696D01*
X112196524Y48761320D01*
X112178955Y48787614D01*
X112097823Y48909037D01*
X112075160Y48963750D01*
X112029835Y49073173D01*
X112012506Y49160296D01*
X111995176Y49247417D01*
X111995176Y49425079D01*
X112029835Y49599321D01*
X112029835Y49599323D01*
X112097823Y49763458D01*
X112097823Y49763459D01*
X112196522Y49911173D01*
X112196524Y49911176D01*
X112322148Y50036800D01*
X112340757Y50049234D01*
X112469865Y50135501D01*
X112533337Y50161792D01*
X112634001Y50203489D01*
X112721124Y50220819D01*
X112808245Y50238148D01*
X112985907Y50238148D01*
X113073028Y50220818D01*
X113073028Y50220818D01*
G37*
G36*
X173734134Y50247110D02*
G01*
X173821257Y50229780D01*
X173930680Y50184455D01*
X173985393Y50161792D01*
X174081619Y50097496D01*
X174133110Y50063091D01*
X174258734Y49937467D01*
X174258736Y49937464D01*
X174357435Y49789750D01*
X174357435Y49789749D01*
X174425423Y49625614D01*
X174430653Y49599321D01*
X174460082Y49451370D01*
X174460082Y49273708D01*
X174454852Y49247417D01*
X174425423Y49099464D01*
X174380098Y48990041D01*
X174357435Y48935328D01*
X174259399Y48788606D01*
X174258734Y48787611D01*
X174133110Y48661987D01*
X174133107Y48661985D01*
X173985393Y48563286D01*
X173930680Y48540623D01*
X173821257Y48495298D01*
X173734134Y48477969D01*
X173647013Y48460639D01*
X173469351Y48460639D01*
X173382230Y48477969D01*
X173295107Y48495298D01*
X173185684Y48540623D01*
X173130971Y48563286D01*
X172983257Y48661985D01*
X172983254Y48661987D01*
X172857630Y48787611D01*
X172856965Y48788606D01*
X172758929Y48935328D01*
X172736266Y48990041D01*
X172690941Y49099464D01*
X172661512Y49247417D01*
X172656282Y49273708D01*
X172656282Y49451370D01*
X172685711Y49599321D01*
X172690941Y49625614D01*
X172758929Y49789749D01*
X172758929Y49789750D01*
X172857628Y49937464D01*
X172857630Y49937467D01*
X172983254Y50063091D01*
X173034745Y50097496D01*
X173130971Y50161792D01*
X173185684Y50184455D01*
X173295107Y50229780D01*
X173382230Y50247109D01*
X173469351Y50264439D01*
X173647013Y50264439D01*
X173734134Y50247110D01*
X173734134Y50247110D01*
G37*
G36*
X118031511Y51854319D02*
G01*
X119262105Y50927000D01*
X119262105Y50926999D01*
X118685480Y50161792D01*
X117636001Y48769086D01*
X117636000Y48769086D01*
X116676227Y49492327D01*
X115478087Y50395190D01*
X115478087Y50395191D01*
X116272734Y51449723D01*
X117104191Y52553104D01*
X117104192Y52553104D01*
X118031511Y51854319D01*
X118031511Y51854319D01*
G37*
G36*
X102464639Y53061828D02*
G01*
X102614464Y53032026D01*
X102896728Y52915109D01*
X103150759Y52745371D01*
X103366795Y52529335D01*
X103536533Y52275304D01*
X103653450Y51993040D01*
X103713054Y51693390D01*
X103713054Y51387870D01*
X103653450Y51088220D01*
X103536533Y50805956D01*
X103366795Y50551925D01*
X103150759Y50335889D01*
X102896728Y50166151D01*
X102614464Y50049234D01*
X102464639Y50019432D01*
X102314815Y49989630D01*
X102009293Y49989630D01*
X101859469Y50019432D01*
X101709644Y50049234D01*
X101427380Y50166151D01*
X101173349Y50335889D01*
X100957313Y50551925D01*
X100787575Y50805956D01*
X100670658Y51088220D01*
X100611054Y51387870D01*
X100611054Y51693390D01*
X100670658Y51993040D01*
X100787575Y52275304D01*
X100957313Y52529335D01*
X101173349Y52745371D01*
X101427380Y52915109D01*
X101709644Y53032026D01*
X101859469Y53061828D01*
X102009293Y53091630D01*
X102314815Y53091630D01*
X102464639Y53061828D01*
X102464639Y53061828D01*
G37*
G36*
X186798411Y53769015D02*
G01*
X187812155Y52423731D01*
X188364333Y51690966D01*
X186246352Y50094952D01*
X186192700Y50166151D01*
X184680429Y52173002D01*
X184978271Y52397442D01*
X186798410Y53769016D01*
X186798411Y53769015D01*
X186798411Y53769015D01*
G37*
G36*
X109241387Y55075159D02*
G01*
X109637619Y54911034D01*
X109701091Y54884743D01*
X110114812Y54608303D01*
X110466653Y54256462D01*
X110743093Y53842741D01*
X110743094Y53842739D01*
X110933509Y53383037D01*
X111030581Y52895022D01*
X111030581Y52397440D01*
X110933509Y51909425D01*
X110823290Y51643334D01*
X110743093Y51449721D01*
X110466653Y51036000D01*
X110114812Y50684159D01*
X109701091Y50407719D01*
X109701090Y50407718D01*
X109701089Y50407718D01*
X109241387Y50217303D01*
X108753372Y50120231D01*
X108255790Y50120231D01*
X107767775Y50217303D01*
X107308073Y50407718D01*
X107308072Y50407718D01*
X107308071Y50407719D01*
X106894350Y50684159D01*
X106542509Y51036000D01*
X106266069Y51449721D01*
X106185872Y51643334D01*
X106075653Y51909425D01*
X105978581Y52397440D01*
X105978581Y52895022D01*
X106075653Y53383037D01*
X106266068Y53842739D01*
X106266069Y53842741D01*
X106542509Y54256462D01*
X106894350Y54608303D01*
X107308071Y54884743D01*
X107371543Y54911034D01*
X107767775Y55075159D01*
X108255790Y55172231D01*
X108753372Y55172231D01*
X109241387Y55075159D01*
X109241387Y55075159D01*
G37*
G36*
X178687483Y55101450D02*
G01*
X179147185Y54911035D01*
X179147187Y54911034D01*
X179560908Y54634594D01*
X179912749Y54282753D01*
X180189189Y53869032D01*
X180189190Y53869030D01*
X180379605Y53409328D01*
X180476677Y52921313D01*
X180476677Y52423731D01*
X180379605Y51935716D01*
X180258496Y51643334D01*
X180189189Y51476012D01*
X179912749Y51062291D01*
X179560908Y50710450D01*
X179147187Y50434010D01*
X179147186Y50434009D01*
X179147185Y50434009D01*
X178687483Y50243594D01*
X178199468Y50146522D01*
X177701886Y50146522D01*
X177213871Y50243594D01*
X176754169Y50434009D01*
X176754168Y50434009D01*
X176754167Y50434010D01*
X176340446Y50710450D01*
X175988605Y51062291D01*
X175712165Y51476012D01*
X175642858Y51643334D01*
X175521749Y51935716D01*
X175424677Y52423731D01*
X175424677Y52921313D01*
X175521749Y53409328D01*
X175712164Y53869030D01*
X175712165Y53869032D01*
X175988605Y54282753D01*
X176340446Y54634594D01*
X176754167Y54911034D01*
X176754169Y54911035D01*
X177213871Y55101450D01*
X177701886Y55198522D01*
X178199468Y55198522D01*
X178687483Y55101450D01*
X178687483Y55101450D01*
G37*
G36*
X115057150Y54153237D02*
G01*
X115206975Y54123435D01*
X115489239Y54006518D01*
X115743270Y53836780D01*
X115959306Y53620744D01*
X116129044Y53366713D01*
X116245961Y53084449D01*
X116305565Y52784799D01*
X116305565Y52479279D01*
X116245961Y52179629D01*
X116129044Y51897365D01*
X115959306Y51643334D01*
X115743270Y51427298D01*
X115489239Y51257560D01*
X115206975Y51140643D01*
X115057150Y51110841D01*
X114907326Y51081039D01*
X114601804Y51081039D01*
X114451980Y51110841D01*
X114302155Y51140643D01*
X114019891Y51257560D01*
X113765860Y51427298D01*
X113549824Y51643334D01*
X113380086Y51897365D01*
X113263169Y52179629D01*
X113203565Y52479279D01*
X113203565Y52784799D01*
X113263169Y53084449D01*
X113380086Y53366713D01*
X113549824Y53620744D01*
X113765860Y53836780D01*
X114019891Y54006518D01*
X114302155Y54123435D01*
X114451980Y54153237D01*
X114601804Y54183039D01*
X114907326Y54183039D01*
X115057150Y54153237D01*
X115057150Y54153237D01*
G37*
G36*
X100779658Y54273976D02*
G01*
X99514642Y52595244D01*
X97835910Y53860260D01*
X99100926Y55538992D01*
X100779658Y54273976D01*
X100779658Y54273976D01*
G37*
G36*
X172708261Y56432447D02*
G01*
X173646355Y55187555D01*
X173646355Y55187554D01*
X172445643Y54282753D01*
X171488442Y53561450D01*
X171488441Y53561450D01*
X170263084Y55187554D01*
X169862337Y55719363D01*
X169862337Y55719364D01*
X171141204Y56683059D01*
X172020250Y57345468D01*
X172020251Y57345468D01*
X172708261Y56432447D01*
X172708261Y56432447D01*
G37*
G36*
X96785134Y55906716D02*
G01*
X96823289Y55877964D01*
X95257367Y53799915D01*
X95257366Y53799914D01*
X93139385Y55395928D01*
X93383111Y55719363D01*
X94705307Y57473977D01*
X94705308Y57473978D01*
X96785134Y55906716D01*
X96785134Y55906716D01*
G37*
G36*
X190695801Y55451270D02*
G01*
X190695800Y55451269D01*
X190622360Y55395928D01*
X189017069Y54186254D01*
X188944353Y54282752D01*
X188699032Y54608303D01*
X187752053Y55864986D01*
X187755237Y55867385D01*
X188025889Y56071336D01*
X189430785Y57130002D01*
X190695801Y55451270D01*
X190695801Y55451270D01*
G37*
G36*
X104288038Y56840784D02*
G01*
X104375161Y56823455D01*
X104475825Y56781758D01*
X104539297Y56755467D01*
X104677026Y56663440D01*
X104687014Y56656766D01*
X104812638Y56531142D01*
X104812640Y56531139D01*
X104911339Y56383425D01*
X104911339Y56383424D01*
X104979327Y56219289D01*
X104979327Y56219287D01*
X105013016Y56049924D01*
X105013986Y56045043D01*
X105013986Y55867385D01*
X104979327Y55693139D01*
X104934002Y55583716D01*
X104911339Y55529003D01*
X104859399Y55451269D01*
X104812638Y55381286D01*
X104687014Y55255662D01*
X104687011Y55255660D01*
X104539297Y55156961D01*
X104484584Y55134298D01*
X104375161Y55088973D01*
X104305712Y55075159D01*
X104200917Y55054314D01*
X104023255Y55054314D01*
X103918460Y55075159D01*
X103849011Y55088973D01*
X103739588Y55134298D01*
X103684875Y55156961D01*
X103537161Y55255660D01*
X103537158Y55255662D01*
X103411534Y55381286D01*
X103364773Y55451269D01*
X103312833Y55529003D01*
X103290170Y55583716D01*
X103244845Y55693139D01*
X103210186Y55867385D01*
X103210186Y56045043D01*
X103211157Y56049924D01*
X103244845Y56219287D01*
X103244845Y56219289D01*
X103312833Y56383424D01*
X103312833Y56383425D01*
X103411532Y56531139D01*
X103411534Y56531142D01*
X103537158Y56656766D01*
X103547146Y56663440D01*
X103684875Y56755467D01*
X103748347Y56781758D01*
X103849011Y56823455D01*
X103936134Y56840784D01*
X104023255Y56858114D01*
X104200917Y56858114D01*
X104288038Y56840784D01*
X104288038Y56840784D01*
G37*
G36*
X182519124Y56867076D02*
G01*
X182606247Y56849746D01*
X182715670Y56804421D01*
X182770383Y56781758D01*
X182867706Y56716729D01*
X182918100Y56683057D01*
X183043724Y56557433D01*
X183043726Y56557430D01*
X183142425Y56409716D01*
X183142553Y56409407D01*
X183210413Y56245580D01*
X183220798Y56193371D01*
X183245072Y56071336D01*
X183245072Y55893674D01*
X183235810Y55847112D01*
X183210413Y55719430D01*
X183165088Y55610007D01*
X183142425Y55555294D01*
X183072918Y55451269D01*
X183043724Y55407577D01*
X182918100Y55281953D01*
X182918097Y55281951D01*
X182770383Y55183252D01*
X182715670Y55160589D01*
X182606247Y55115264D01*
X182536798Y55101450D01*
X182432003Y55080605D01*
X182254341Y55080605D01*
X182149546Y55101450D01*
X182080097Y55115264D01*
X181970674Y55160589D01*
X181915961Y55183252D01*
X181768247Y55281951D01*
X181768244Y55281953D01*
X181642620Y55407577D01*
X181613426Y55451269D01*
X181543919Y55555294D01*
X181521256Y55610007D01*
X181475931Y55719430D01*
X181450534Y55847112D01*
X181441272Y55893674D01*
X181441272Y56071336D01*
X181465546Y56193371D01*
X181475931Y56245580D01*
X181543791Y56409407D01*
X181543919Y56409716D01*
X181642618Y56557430D01*
X181642620Y56557433D01*
X181768244Y56683057D01*
X181818638Y56716729D01*
X181915961Y56781758D01*
X181970674Y56804421D01*
X182080097Y56849746D01*
X182167220Y56867076D01*
X182254341Y56884405D01*
X182432003Y56884405D01*
X182519124Y56867076D01*
X182519124Y56867076D01*
G37*
G36*
X112387965Y58919310D02*
G01*
X112537790Y58889508D01*
X112820054Y58772591D01*
X113074085Y58602853D01*
X113290121Y58386817D01*
X113459859Y58132786D01*
X113576776Y57850522D01*
X113606578Y57700697D01*
X113636380Y57550873D01*
X113636380Y57245351D01*
X113613435Y57130001D01*
X113576776Y56945702D01*
X113459859Y56663438D01*
X113290121Y56409407D01*
X113074085Y56193371D01*
X112820054Y56023633D01*
X112537790Y55906716D01*
X112472233Y55893676D01*
X112238141Y55847112D01*
X111932619Y55847112D01*
X111698527Y55893676D01*
X111632970Y55906716D01*
X111350706Y56023633D01*
X111096675Y56193371D01*
X110880639Y56409407D01*
X110710901Y56663438D01*
X110593984Y56945702D01*
X110557325Y57130001D01*
X110534380Y57245351D01*
X110534380Y57550873D01*
X110564182Y57700697D01*
X110593984Y57850522D01*
X110710901Y58132786D01*
X110880639Y58386817D01*
X111096675Y58602853D01*
X111350706Y58772591D01*
X111632970Y58889508D01*
X111782795Y58919310D01*
X111932619Y58949112D01*
X112238141Y58949112D01*
X112387965Y58919310D01*
X112387965Y58919310D01*
G37*
G36*
X174654812Y58949112D02*
G01*
X174822288Y58915799D01*
X175104552Y58798882D01*
X175358583Y58629144D01*
X175574619Y58413108D01*
X175744357Y58159077D01*
X175861274Y57876813D01*
X175866504Y57850521D01*
X175920878Y57577164D01*
X175920878Y57271642D01*
X175915648Y57245351D01*
X175861274Y56971993D01*
X175744357Y56689729D01*
X175574619Y56435698D01*
X175358583Y56219662D01*
X175104552Y56049924D01*
X174822288Y55933007D01*
X174690114Y55906716D01*
X174522639Y55873403D01*
X174217117Y55873403D01*
X174049642Y55906716D01*
X173917468Y55933007D01*
X173635204Y56049924D01*
X173381173Y56219662D01*
X173165137Y56435698D01*
X172995399Y56689729D01*
X172878482Y56971993D01*
X172824108Y57245351D01*
X172818878Y57271642D01*
X172818878Y57577164D01*
X172873252Y57850521D01*
X172878482Y57876813D01*
X172995399Y58159077D01*
X173165137Y58413108D01*
X173381173Y58629144D01*
X173635204Y58798882D01*
X173917468Y58915799D01*
X174084944Y58949112D01*
X174217117Y58975403D01*
X174522639Y58975403D01*
X174654812Y58949112D01*
X174654812Y58949112D01*
G37*
G36*
X192741871Y59226632D02*
G01*
X192891696Y59196830D01*
X193173960Y59079913D01*
X193427991Y58910175D01*
X193644027Y58694139D01*
X193813765Y58440108D01*
X193903250Y58224071D01*
X193930682Y58157843D01*
X193990286Y57858195D01*
X193990286Y57552673D01*
X193974632Y57473977D01*
X193930682Y57253024D01*
X193813765Y56970760D01*
X193644027Y56716729D01*
X193427991Y56500693D01*
X193173960Y56330955D01*
X192891696Y56214038D01*
X192787801Y56193372D01*
X192592047Y56154434D01*
X192286525Y56154434D01*
X192090771Y56193372D01*
X191986876Y56214038D01*
X191704612Y56330955D01*
X191450581Y56500693D01*
X191234545Y56716729D01*
X191064807Y56970760D01*
X190947890Y57253024D01*
X190903940Y57473977D01*
X190888286Y57552673D01*
X190888286Y57858195D01*
X190947890Y58157843D01*
X190975322Y58224071D01*
X191064807Y58440108D01*
X191234545Y58694139D01*
X191450581Y58910175D01*
X191704612Y59079913D01*
X191986876Y59196830D01*
X192136701Y59226632D01*
X192286525Y59256434D01*
X192592047Y59256434D01*
X192741871Y59226632D01*
X192741871Y59226632D01*
G37*
G36*
X92249107Y59445041D02*
G01*
X92398932Y59415239D01*
X92681196Y59298322D01*
X92935227Y59128584D01*
X93151263Y58912548D01*
X93321001Y58658517D01*
X93437918Y58376253D01*
X93497522Y58076603D01*
X93497522Y57771083D01*
X93437918Y57471433D01*
X93321001Y57189169D01*
X93151263Y56935138D01*
X92935227Y56719102D01*
X92681196Y56549364D01*
X92398932Y56432447D01*
X92284655Y56409716D01*
X92099283Y56372843D01*
X91793761Y56372843D01*
X91608389Y56409716D01*
X91494112Y56432447D01*
X91211848Y56549364D01*
X90957817Y56719102D01*
X90741781Y56935138D01*
X90572043Y57189169D01*
X90455126Y57471433D01*
X90395522Y57771083D01*
X90395522Y58076603D01*
X90455126Y58376253D01*
X90572043Y58658517D01*
X90741781Y58912548D01*
X90957817Y59128584D01*
X91211848Y59298322D01*
X91494112Y59415239D01*
X91643937Y59445041D01*
X91793761Y59474843D01*
X92099283Y59474843D01*
X92249107Y59445041D01*
X92249107Y59445041D01*
G37*
G36*
X179941079Y60207336D02*
G01*
X180139458Y60167876D01*
X180421722Y60050959D01*
X180675753Y59881221D01*
X180891789Y59665185D01*
X181061527Y59411154D01*
X181178444Y59128890D01*
X181238048Y58829240D01*
X181238048Y58523720D01*
X181178444Y58224070D01*
X181061527Y57941806D01*
X180891789Y57687775D01*
X180675753Y57471739D01*
X180421722Y57302001D01*
X180139458Y57185084D01*
X179989633Y57155282D01*
X179839809Y57125480D01*
X179534287Y57125480D01*
X179384463Y57155282D01*
X179234638Y57185084D01*
X178952374Y57302001D01*
X178698343Y57471739D01*
X178482307Y57687775D01*
X178312569Y57941806D01*
X178195652Y58224070D01*
X178136048Y58523720D01*
X178136048Y58829240D01*
X178195652Y59128890D01*
X178312569Y59411154D01*
X178482307Y59665185D01*
X178698343Y59881221D01*
X178952374Y60050959D01*
X179234638Y60167876D01*
X179433017Y60207336D01*
X179534287Y60227480D01*
X179839809Y60227480D01*
X179941079Y60207336D01*
X179941079Y60207336D01*
G37*
G36*
X109972517Y60681904D02*
G01*
X111361858Y59634961D01*
X111361858Y59634960D01*
X110961111Y59103151D01*
X109735754Y57477047D01*
X109735753Y57477047D01*
X108808434Y58175832D01*
X107577840Y59103151D01*
X107577840Y59103152D01*
X108292064Y60050959D01*
X109203944Y61261065D01*
X109203945Y61261065D01*
X109972517Y60681904D01*
X109972517Y60681904D01*
G37*
G36*
X183495804Y61308839D02*
G01*
X184194589Y60381520D01*
X184194589Y60381519D01*
X182991389Y59474843D01*
X182036676Y58755415D01*
X182036675Y58755415D01*
X181026118Y60096470D01*
X180410571Y60913328D01*
X180410571Y60913329D01*
X181834598Y61986410D01*
X182568484Y62539433D01*
X182568485Y62539433D01*
X183495804Y61308839D01*
X183495804Y61308839D01*
G37*
G36*
X85026269Y60859564D02*
G01*
X85891806Y60207336D01*
X85891806Y60207335D01*
X85641247Y59874832D01*
X84807336Y58768194D01*
X84807335Y58768194D01*
X83954101Y59411152D01*
X83368194Y59852664D01*
X83368194Y59852665D01*
X83861768Y60507660D01*
X84452664Y61291806D01*
X84452665Y61291806D01*
X85026269Y60859564D01*
X85026269Y60859564D01*
G37*
G36*
X198964226Y62600770D02*
G01*
X199114051Y62570968D01*
X199396315Y62454051D01*
X199650346Y62284313D01*
X199866382Y62068277D01*
X200036120Y61814246D01*
X200126405Y61596277D01*
X200153037Y61531981D01*
X200190099Y61345661D01*
X200212641Y61232332D01*
X200212641Y60926812D01*
X200153037Y60627162D01*
X200036120Y60344898D01*
X199866382Y60090867D01*
X199650346Y59874831D01*
X199396315Y59705093D01*
X199114051Y59588176D01*
X198964226Y59558374D01*
X198814402Y59528572D01*
X198508880Y59528572D01*
X198359056Y59558374D01*
X198209231Y59588176D01*
X197926967Y59705093D01*
X197672936Y59874831D01*
X197456900Y60090867D01*
X197287162Y60344898D01*
X197170245Y60627162D01*
X197110641Y60926812D01*
X197110641Y61232332D01*
X197133184Y61345661D01*
X197170245Y61531981D01*
X197196877Y61596277D01*
X197287162Y61814246D01*
X197456900Y62068277D01*
X197672936Y62284313D01*
X197926967Y62454051D01*
X198209231Y62570968D01*
X198359056Y62600770D01*
X198508880Y62630572D01*
X198814402Y62630572D01*
X198964226Y62600770D01*
X198964226Y62600770D01*
G37*
G36*
X97898953Y61655304D02*
G01*
X97986076Y61637974D01*
X98086740Y61596277D01*
X98150212Y61569986D01*
X98279320Y61483719D01*
X98297929Y61471285D01*
X98423553Y61345661D01*
X98423555Y61345658D01*
X98522254Y61197944D01*
X98522254Y61197943D01*
X98590242Y61033808D01*
X98590242Y61033806D01*
X98624901Y60859564D01*
X98624901Y60681902D01*
X98607571Y60594781D01*
X98590242Y60507658D01*
X98548219Y60406207D01*
X98522254Y60343522D01*
X98444717Y60227480D01*
X98423553Y60195805D01*
X98297929Y60070181D01*
X98297926Y60070179D01*
X98150212Y59971480D01*
X98095499Y59948817D01*
X97986076Y59903492D01*
X97898953Y59886162D01*
X97811832Y59868833D01*
X97634170Y59868833D01*
X97547049Y59886162D01*
X97459926Y59903492D01*
X97350503Y59948817D01*
X97295790Y59971480D01*
X97148076Y60070179D01*
X97148073Y60070181D01*
X97022449Y60195805D01*
X97001285Y60227480D01*
X96923748Y60343522D01*
X96897783Y60406207D01*
X96855760Y60507658D01*
X96838431Y60594781D01*
X96821101Y60681902D01*
X96821101Y60859564D01*
X96855760Y61033806D01*
X96855760Y61033808D01*
X96923748Y61197943D01*
X96923748Y61197944D01*
X97022447Y61345658D01*
X97022449Y61345661D01*
X97148073Y61471285D01*
X97166682Y61483719D01*
X97295790Y61569986D01*
X97359262Y61596277D01*
X97459926Y61637974D01*
X97547049Y61655304D01*
X97634170Y61672633D01*
X97811832Y61672633D01*
X97898953Y61655304D01*
X97898953Y61655304D01*
G37*
G36*
X188908209Y61681594D02*
G01*
X188995332Y61664265D01*
X189104755Y61618940D01*
X189159468Y61596277D01*
X189255694Y61531981D01*
X189307185Y61497576D01*
X189432809Y61371952D01*
X189432811Y61371949D01*
X189531510Y61224235D01*
X189531510Y61224234D01*
X189599498Y61060099D01*
X189604728Y61033806D01*
X189634157Y60885855D01*
X189634157Y60708193D01*
X189624095Y60657610D01*
X189599498Y60533949D01*
X189567925Y60457727D01*
X189531510Y60369813D01*
X189436406Y60227480D01*
X189432809Y60222096D01*
X189307185Y60096472D01*
X189307182Y60096470D01*
X189159468Y59997771D01*
X189104755Y59975108D01*
X188995332Y59929783D01*
X188908209Y59912454D01*
X188821088Y59895124D01*
X188643426Y59895124D01*
X188556305Y59912454D01*
X188469182Y59929783D01*
X188359759Y59975108D01*
X188305046Y59997771D01*
X188157332Y60096470D01*
X188157329Y60096472D01*
X188031705Y60222096D01*
X188028108Y60227480D01*
X187933004Y60369813D01*
X187896589Y60457727D01*
X187865016Y60533949D01*
X187840419Y60657610D01*
X187830357Y60708193D01*
X187830357Y60885855D01*
X187859786Y61033806D01*
X187865016Y61060099D01*
X187933004Y61224234D01*
X187933004Y61224235D01*
X188031703Y61371949D01*
X188031705Y61371952D01*
X188157329Y61497576D01*
X188208820Y61531981D01*
X188305046Y61596277D01*
X188359759Y61618940D01*
X188469182Y61664265D01*
X188556305Y61681594D01*
X188643426Y61698924D01*
X188821088Y61698924D01*
X188908209Y61681594D01*
X188908209Y61681594D01*
G37*
G36*
X102808379Y63325771D02*
G01*
X104088030Y62361485D01*
X104088030Y62361484D01*
X103511405Y61596277D01*
X102461926Y60203571D01*
X102461925Y60203571D01*
X101474428Y60947704D01*
X100304012Y61829675D01*
X100304012Y61829676D01*
X101098659Y62884208D01*
X101930116Y63987589D01*
X101930117Y63987589D01*
X102808379Y63325771D01*
X102808379Y63325771D01*
G37*
G36*
X203604839Y62188652D02*
G01*
X203671024Y62182133D01*
X203840863Y62130613D01*
X203997388Y62046948D01*
X204033126Y62017618D01*
X204134583Y61934356D01*
X204210209Y61842204D01*
X204247175Y61797161D01*
X204330840Y61640636D01*
X204382360Y61470797D01*
X204399756Y61294170D01*
X204382360Y61117543D01*
X204330840Y60947704D01*
X204247175Y60791179D01*
X204217845Y60755441D01*
X204134583Y60653984D01*
X204033126Y60570722D01*
X203997388Y60541392D01*
X203840863Y60457727D01*
X203671024Y60406207D01*
X203604840Y60399689D01*
X203538657Y60393170D01*
X203450137Y60393170D01*
X203383954Y60399689D01*
X203317770Y60406207D01*
X203147931Y60457727D01*
X202991406Y60541392D01*
X202955668Y60570722D01*
X202854211Y60653984D01*
X202770949Y60755441D01*
X202741619Y60791179D01*
X202657954Y60947704D01*
X202606434Y61117543D01*
X202589038Y61294170D01*
X202606434Y61470797D01*
X202657954Y61640636D01*
X202741619Y61797161D01*
X202778585Y61842204D01*
X202854211Y61934356D01*
X202955668Y62017618D01*
X202991406Y62046948D01*
X203147931Y62130613D01*
X203317770Y62182133D01*
X203383955Y62188652D01*
X203450137Y62195170D01*
X203538657Y62195170D01*
X203604839Y62188652D01*
X203604839Y62188652D01*
G37*
G36*
X82711908Y62453092D02*
G01*
X82778093Y62446573D01*
X82947932Y62395053D01*
X83104457Y62311388D01*
X83137448Y62284313D01*
X83241652Y62198796D01*
X83297608Y62130612D01*
X83354244Y62061601D01*
X83354245Y62061599D01*
X83428981Y61921780D01*
X83437909Y61905076D01*
X83489429Y61735237D01*
X83506825Y61558610D01*
X83489429Y61381983D01*
X83437909Y61212144D01*
X83354244Y61055619D01*
X83336344Y61033808D01*
X83241652Y60918424D01*
X83169927Y60859562D01*
X83104457Y60805832D01*
X82947932Y60722167D01*
X82778093Y60670647D01*
X82711908Y60664128D01*
X82645726Y60657610D01*
X82557206Y60657610D01*
X82491024Y60664128D01*
X82424839Y60670647D01*
X82255000Y60722167D01*
X82098475Y60805832D01*
X82033005Y60859562D01*
X81961280Y60918424D01*
X81866588Y61033808D01*
X81848688Y61055619D01*
X81765023Y61212144D01*
X81713503Y61381983D01*
X81696107Y61558610D01*
X81713503Y61735237D01*
X81765023Y61905076D01*
X81773952Y61921780D01*
X81848687Y62061599D01*
X81848688Y62061601D01*
X81905324Y62130612D01*
X81961280Y62198796D01*
X82065484Y62284313D01*
X82098475Y62311388D01*
X82255000Y62395053D01*
X82424839Y62446573D01*
X82491024Y62453092D01*
X82557206Y62459610D01*
X82645726Y62459610D01*
X82711908Y62453092D01*
X82711908Y62453092D01*
G37*
G36*
X87290564Y64496313D02*
G01*
X87440389Y64466511D01*
X87722653Y64349594D01*
X87976684Y64179856D01*
X88192720Y63963820D01*
X88362458Y63709789D01*
X88479375Y63427525D01*
X88498406Y63331850D01*
X88530750Y63169248D01*
X88538979Y63127875D01*
X88538979Y62822355D01*
X88479375Y62522705D01*
X88362458Y62240441D01*
X88192720Y61986410D01*
X87976684Y61770374D01*
X87722653Y61600636D01*
X87440389Y61483719D01*
X87290564Y61453917D01*
X87140740Y61424115D01*
X86835218Y61424115D01*
X86685394Y61453917D01*
X86535569Y61483719D01*
X86253305Y61600636D01*
X85999274Y61770374D01*
X85783238Y61986410D01*
X85613500Y62240441D01*
X85496583Y62522705D01*
X85436979Y62822355D01*
X85436979Y63127875D01*
X85445209Y63169248D01*
X85477552Y63331850D01*
X85496583Y63427525D01*
X85613500Y63709789D01*
X85783238Y63963820D01*
X85999274Y64179856D01*
X86253305Y64349594D01*
X86535569Y64466511D01*
X86685394Y64496313D01*
X86835218Y64526115D01*
X87140740Y64526115D01*
X87290564Y64496313D01*
X87290564Y64496313D01*
G37*
G36*
X201972486Y65203500D02*
G01*
X203097359Y63710743D01*
X203538408Y63125451D01*
X201420427Y61529437D01*
X201398444Y61558610D01*
X199854504Y63607487D01*
X199992141Y63711204D01*
X201972485Y65203501D01*
X201972486Y65203500D01*
X201972486Y65203500D01*
G37*
G36*
X94067312Y66509644D02*
G01*
X94527014Y66319229D01*
X94527016Y66319228D01*
X94940737Y66042788D01*
X95292578Y65690947D01*
X95569018Y65277226D01*
X95569019Y65277224D01*
X95759434Y64817522D01*
X95856506Y64329507D01*
X95856506Y63831925D01*
X95759434Y63343910D01*
X95649215Y63077819D01*
X95569018Y62884206D01*
X95292578Y62470485D01*
X94940737Y62118644D01*
X94527016Y61842204D01*
X94527015Y61842203D01*
X94527014Y61842203D01*
X94067312Y61651788D01*
X93579297Y61554716D01*
X93081715Y61554716D01*
X92593700Y61651788D01*
X92133998Y61842203D01*
X92133997Y61842203D01*
X92133996Y61842204D01*
X91720275Y62118644D01*
X91368434Y62470485D01*
X91091994Y62884206D01*
X91011797Y63077819D01*
X90901578Y63343910D01*
X90804506Y63831925D01*
X90804506Y64329507D01*
X90901578Y64817522D01*
X91091993Y65277224D01*
X91091994Y65277226D01*
X91368434Y65690947D01*
X91720275Y66042788D01*
X92133996Y66319228D01*
X92133998Y66319229D01*
X92593700Y66509644D01*
X93081715Y66606716D01*
X93579297Y66606716D01*
X94067312Y66509644D01*
X94067312Y66509644D01*
G37*
G36*
X193861558Y66535935D02*
G01*
X194321260Y66345520D01*
X194321262Y66345519D01*
X194734983Y66069079D01*
X195086824Y65717238D01*
X195363264Y65303517D01*
X195363265Y65303515D01*
X195553680Y64843813D01*
X195650752Y64355798D01*
X195650752Y63858216D01*
X195553680Y63370201D01*
X195432571Y63077819D01*
X195363264Y62910497D01*
X195086824Y62496776D01*
X194734983Y62144935D01*
X194321262Y61868495D01*
X194321261Y61868494D01*
X194321260Y61868494D01*
X193861558Y61678079D01*
X193373543Y61581007D01*
X192875961Y61581007D01*
X192387946Y61678079D01*
X191928244Y61868494D01*
X191928243Y61868494D01*
X191928242Y61868495D01*
X191514521Y62144935D01*
X191162680Y62496776D01*
X190886240Y62910497D01*
X190816933Y63077819D01*
X190695824Y63370201D01*
X190598752Y63858216D01*
X190598752Y64355798D01*
X190695824Y64843813D01*
X190886239Y65303515D01*
X190886240Y65303517D01*
X191162680Y65717238D01*
X191514521Y66069079D01*
X191928242Y66345519D01*
X191928244Y66345520D01*
X192387946Y66535935D01*
X192875961Y66633007D01*
X193373543Y66633007D01*
X193861558Y66535935D01*
X193861558Y66535935D01*
G37*
G36*
X205633375Y63717261D02*
G01*
X205699559Y63710743D01*
X205869398Y63659223D01*
X206025923Y63575558D01*
X206061661Y63546228D01*
X206163118Y63462966D01*
X206239247Y63370201D01*
X206275710Y63325771D01*
X206359375Y63169246D01*
X206410895Y62999407D01*
X206428291Y62822780D01*
X206410895Y62646153D01*
X206371269Y62515524D01*
X206359374Y62476312D01*
X206347475Y62454051D01*
X206275710Y62319789D01*
X206268816Y62311389D01*
X206163118Y62182594D01*
X206061661Y62099332D01*
X206025923Y62070002D01*
X206025921Y62070001D01*
X205869537Y61986411D01*
X205869398Y61986337D01*
X205699559Y61934817D01*
X205633375Y61928299D01*
X205567192Y61921780D01*
X205478672Y61921780D01*
X205412489Y61928299D01*
X205346305Y61934817D01*
X205176466Y61986337D01*
X205176328Y61986411D01*
X205019943Y62070001D01*
X205019941Y62070002D01*
X204984203Y62099332D01*
X204882746Y62182594D01*
X204777048Y62311389D01*
X204770154Y62319789D01*
X204698389Y62454051D01*
X204686490Y62476312D01*
X204674595Y62515524D01*
X204634969Y62646153D01*
X204617573Y62822780D01*
X204634969Y62999407D01*
X204686489Y63169246D01*
X204770154Y63325771D01*
X204806617Y63370201D01*
X204882746Y63462966D01*
X204984203Y63546228D01*
X205019941Y63575558D01*
X205176466Y63659223D01*
X205346305Y63710743D01*
X205412489Y63717261D01*
X205478672Y63723780D01*
X205567192Y63723780D01*
X205633375Y63717261D01*
X205633375Y63717261D01*
G37*
G36*
X80683375Y63981701D02*
G01*
X80749559Y63975183D01*
X80919398Y63923663D01*
X80919400Y63923662D01*
X80997661Y63881830D01*
X81075923Y63839998D01*
X81111661Y63810668D01*
X81213118Y63727406D01*
X81269074Y63659222D01*
X81325710Y63590211D01*
X81325711Y63590209D01*
X81400447Y63450390D01*
X81409375Y63433686D01*
X81460895Y63263847D01*
X81478291Y63087220D01*
X81460895Y62910593D01*
X81409375Y62740754D01*
X81325710Y62584229D01*
X81296380Y62548491D01*
X81213118Y62447034D01*
X81111661Y62363772D01*
X81075923Y62334442D01*
X80919398Y62250777D01*
X80749559Y62199257D01*
X80708062Y62195170D01*
X80617192Y62186220D01*
X80528672Y62186220D01*
X80437802Y62195170D01*
X80396305Y62199257D01*
X80226466Y62250777D01*
X80069941Y62334442D01*
X80034203Y62363772D01*
X79932746Y62447034D01*
X79849484Y62548491D01*
X79820154Y62584229D01*
X79736489Y62740754D01*
X79684969Y62910593D01*
X79667573Y63087220D01*
X79684969Y63263847D01*
X79736489Y63433686D01*
X79745418Y63450390D01*
X79820153Y63590209D01*
X79820154Y63590211D01*
X79876790Y63659222D01*
X79932746Y63727406D01*
X80034203Y63810668D01*
X80069941Y63839998D01*
X80148204Y63881831D01*
X80226464Y63923662D01*
X80226466Y63923663D01*
X80396305Y63975183D01*
X80462489Y63981701D01*
X80528672Y63988220D01*
X80617192Y63988220D01*
X80683375Y63981701D01*
X80683375Y63981701D01*
G37*
G36*
X99883075Y65587722D02*
G01*
X100032900Y65557920D01*
X100315164Y65441003D01*
X100569195Y65271265D01*
X100785231Y65055229D01*
X100954969Y64801198D01*
X101071886Y64518934D01*
X101087745Y64439205D01*
X101129558Y64229000D01*
X101131490Y64219284D01*
X101131490Y63913764D01*
X101071886Y63614114D01*
X100954969Y63331850D01*
X100785231Y63077819D01*
X100569195Y62861783D01*
X100315164Y62692045D01*
X100032900Y62575128D01*
X99883075Y62545326D01*
X99733251Y62515524D01*
X99427729Y62515524D01*
X99277905Y62545326D01*
X99128080Y62575128D01*
X98845816Y62692045D01*
X98591785Y62861783D01*
X98375749Y63077819D01*
X98206011Y63331850D01*
X98089094Y63614114D01*
X98029490Y63913764D01*
X98029490Y64219284D01*
X98031423Y64229000D01*
X98073235Y64439205D01*
X98089094Y64518934D01*
X98206011Y64801198D01*
X98375749Y65055229D01*
X98591785Y65271265D01*
X98845816Y65441003D01*
X99128080Y65557920D01*
X99277905Y65587722D01*
X99427729Y65617524D01*
X99733251Y65617524D01*
X99883075Y65587722D01*
X99883075Y65587722D01*
G37*
G36*
X207661908Y65245872D02*
G01*
X207728093Y65239353D01*
X207897932Y65187833D01*
X208054457Y65104168D01*
X208090195Y65074838D01*
X208191652Y64991576D01*
X208274914Y64890119D01*
X208304244Y64854381D01*
X208387909Y64697856D01*
X208439429Y64528017D01*
X208456825Y64351390D01*
X208439429Y64174763D01*
X208387909Y64004924D01*
X208387908Y64004922D01*
X208378643Y63987589D01*
X208304244Y63848399D01*
X208290724Y63831925D01*
X208191652Y63711204D01*
X208090195Y63627942D01*
X208054457Y63598612D01*
X207897932Y63514947D01*
X207728093Y63463427D01*
X207661908Y63456908D01*
X207595726Y63450390D01*
X207507206Y63450390D01*
X207441024Y63456908D01*
X207374839Y63463427D01*
X207205000Y63514947D01*
X207048475Y63598612D01*
X207012737Y63627942D01*
X206911280Y63711204D01*
X206812208Y63831925D01*
X206798688Y63848399D01*
X206724289Y63987589D01*
X206715024Y64004922D01*
X206715023Y64004924D01*
X206663503Y64174763D01*
X206646107Y64351390D01*
X206663503Y64528017D01*
X206715023Y64697856D01*
X206798688Y64854381D01*
X206828018Y64890119D01*
X206911280Y64991576D01*
X207012737Y65074838D01*
X207048475Y65104168D01*
X207205000Y65187833D01*
X207374839Y65239353D01*
X207441024Y65245872D01*
X207507206Y65252390D01*
X207595726Y65252390D01*
X207661908Y65245872D01*
X207661908Y65245872D01*
G37*
G36*
X78654840Y65510311D02*
G01*
X78721024Y65503793D01*
X78890863Y65452273D01*
X79047388Y65368608D01*
X79083126Y65339278D01*
X79184583Y65256016D01*
X79240539Y65187832D01*
X79297175Y65118821D01*
X79380840Y64962296D01*
X79432360Y64792457D01*
X79449756Y64615830D01*
X79432360Y64439203D01*
X79380840Y64269364D01*
X79380839Y64269362D01*
X79339007Y64191101D01*
X79297175Y64112839D01*
X79267845Y64077101D01*
X79184583Y63975644D01*
X79083126Y63892382D01*
X79047388Y63863052D01*
X78890863Y63779387D01*
X78721024Y63727867D01*
X78679527Y63723780D01*
X78588657Y63714830D01*
X78500137Y63714830D01*
X78409267Y63723780D01*
X78367770Y63727867D01*
X78197931Y63779387D01*
X78041406Y63863052D01*
X78005668Y63892382D01*
X77904211Y63975644D01*
X77820949Y64077101D01*
X77791619Y64112839D01*
X77749786Y64191102D01*
X77707955Y64269362D01*
X77707954Y64269364D01*
X77656434Y64439203D01*
X77639038Y64615830D01*
X77656434Y64792457D01*
X77707954Y64962296D01*
X77791619Y65118821D01*
X77848255Y65187832D01*
X77904211Y65256016D01*
X78005668Y65339278D01*
X78041406Y65368608D01*
X78197931Y65452273D01*
X78367770Y65503793D01*
X78433954Y65510311D01*
X78500137Y65516830D01*
X78588657Y65516830D01*
X78654840Y65510311D01*
X78654840Y65510311D01*
G37*
G36*
X85398724Y65864341D02*
G01*
X85445623Y65829000D01*
X85605583Y65708461D01*
X84496447Y64236588D01*
X84403197Y64112841D01*
X84340567Y64029729D01*
X82741914Y65234401D01*
X82661836Y65294744D01*
X82661835Y65294745D01*
X83926851Y66973477D01*
X85398724Y65864341D01*
X85398724Y65864341D01*
G37*
G36*
X170531000Y64229000D02*
G01*
X168929000Y64229000D01*
X168929000Y65131000D01*
X170531000Y65131000D01*
X170531000Y64229000D01*
X170531000Y64229000D01*
G37*
G36*
X167731000Y64229000D02*
G01*
X166129000Y64229000D01*
X166129000Y66031000D01*
X167731000Y66031000D01*
X167731000Y64229000D01*
X167731000Y64229000D01*
G37*
G36*
X210233704Y66509643D02*
G01*
X210841806Y65702665D01*
X210841806Y65702664D01*
X210179392Y65203500D01*
X209402665Y64618194D01*
X209402664Y64618194D01*
X208725494Y65516830D01*
X208318194Y66057335D01*
X208318194Y66057336D01*
X209344104Y66830414D01*
X209757335Y67141806D01*
X209757336Y67141806D01*
X210233704Y66509643D01*
X210233704Y66509643D01*
G37*
G36*
X187899465Y67844201D02*
G01*
X188820430Y66622040D01*
X188820430Y66622039D01*
X188036094Y66031000D01*
X186662517Y64995935D01*
X186662516Y64995935D01*
X185437159Y66622039D01*
X185036412Y67153848D01*
X185036412Y67153849D01*
X186315279Y68117544D01*
X187194325Y68779953D01*
X187194326Y68779953D01*
X187899465Y67844201D01*
X187899465Y67844201D01*
G37*
G36*
X81392603Y67505821D02*
G01*
X81649215Y67312450D01*
X80083293Y65234401D01*
X80083292Y65234400D01*
X77965311Y66830414D01*
X78340390Y67328161D01*
X79531233Y68908463D01*
X79531234Y68908464D01*
X81392603Y67505821D01*
X81392603Y67505821D01*
G37*
G36*
X204604861Y68564487D02*
G01*
X204630095Y68531000D01*
X205869876Y66885756D01*
X204191144Y65620740D01*
X204118428Y65717238D01*
X203853296Y66069079D01*
X202926128Y67299472D01*
X202929308Y67301868D01*
X203233376Y67531000D01*
X204604860Y68564488D01*
X204604861Y68564487D01*
X204604861Y68564487D01*
G37*
G36*
X170531000Y65829000D02*
G01*
X168929000Y65829000D01*
X168929000Y66531000D01*
X170531000Y66531000D01*
X170531000Y65829000D01*
X170531000Y65829000D01*
G37*
G36*
X167731000Y66329000D02*
G01*
X166129000Y66329000D01*
X166129000Y67031000D01*
X167731000Y67031000D01*
X167731000Y66329000D01*
X167731000Y66329000D01*
G37*
G36*
X89113963Y68275270D02*
G01*
X89201086Y68257940D01*
X89301750Y68216243D01*
X89365222Y68189952D01*
X89502951Y68097925D01*
X89512939Y68091251D01*
X89638563Y67965627D01*
X89638565Y67965624D01*
X89737264Y67817910D01*
X89758997Y67765441D01*
X89805252Y67653774D01*
X89805252Y67653772D01*
X89839911Y67479530D01*
X89839911Y67301868D01*
X89839434Y67299472D01*
X89805252Y67127624D01*
X89765228Y67031000D01*
X89737264Y66963488D01*
X89656132Y66842065D01*
X89638563Y66815771D01*
X89512939Y66690147D01*
X89512936Y66690145D01*
X89365222Y66591446D01*
X89310509Y66568783D01*
X89201086Y66523458D01*
X89131637Y66509644D01*
X89026842Y66488799D01*
X88849180Y66488799D01*
X88744385Y66509644D01*
X88674936Y66523458D01*
X88565513Y66568783D01*
X88510800Y66591446D01*
X88363086Y66690145D01*
X88363083Y66690147D01*
X88237459Y66815771D01*
X88219890Y66842065D01*
X88138758Y66963488D01*
X88110794Y67031000D01*
X88070770Y67127624D01*
X88036588Y67299472D01*
X88036111Y67301868D01*
X88036111Y67479530D01*
X88070770Y67653772D01*
X88070770Y67653774D01*
X88117025Y67765441D01*
X88138758Y67817910D01*
X88237457Y67965624D01*
X88237459Y67965627D01*
X88363083Y68091251D01*
X88373071Y68097925D01*
X88510800Y68189952D01*
X88574272Y68216243D01*
X88674936Y68257940D01*
X88762059Y68275270D01*
X88849180Y68292599D01*
X89026842Y68292599D01*
X89113963Y68275270D01*
X89113963Y68275270D01*
G37*
G36*
X197693199Y68301561D02*
G01*
X197780322Y68284231D01*
X197889745Y68238906D01*
X197944458Y68216243D01*
X198082187Y68124216D01*
X198092175Y68117542D01*
X198217799Y67991918D01*
X198217801Y67991915D01*
X198316500Y67844201D01*
X198316628Y67843892D01*
X198384488Y67680065D01*
X198394873Y67627856D01*
X198419147Y67505821D01*
X198419147Y67328159D01*
X198413917Y67301868D01*
X198384488Y67153915D01*
X198339163Y67044492D01*
X198316500Y66989779D01*
X198218464Y66843057D01*
X198217799Y66842062D01*
X198092175Y66716438D01*
X198092172Y66716436D01*
X197944458Y66617737D01*
X197889745Y66595074D01*
X197780322Y66549749D01*
X197710873Y66535935D01*
X197606078Y66515090D01*
X197428416Y66515090D01*
X197323621Y66535935D01*
X197254172Y66549749D01*
X197144749Y66595074D01*
X197090036Y66617737D01*
X196942322Y66716436D01*
X196942319Y66716438D01*
X196816695Y66842062D01*
X196816030Y66843057D01*
X196717994Y66989779D01*
X196695331Y67044492D01*
X196650006Y67153915D01*
X196620577Y67301868D01*
X196615347Y67328159D01*
X196615347Y67505821D01*
X196639621Y67627856D01*
X196650006Y67680065D01*
X196717866Y67843892D01*
X196717994Y67844201D01*
X196816693Y67991915D01*
X196816695Y67991918D01*
X196942319Y68117542D01*
X196952307Y68124216D01*
X197090036Y68216243D01*
X197144749Y68238906D01*
X197254172Y68284231D01*
X197341295Y68301561D01*
X197428416Y68318890D01*
X197606078Y68318890D01*
X197693199Y68301561D01*
X197693199Y68301561D01*
G37*
G36*
X170531000Y66829000D02*
G01*
X168929000Y66829000D01*
X168929000Y67531000D01*
X170531000Y67531000D01*
X170531000Y66829000D01*
X170531000Y66829000D01*
G37*
G36*
X97213890Y70353795D02*
G01*
X97363715Y70323993D01*
X97645979Y70207076D01*
X97900010Y70037338D01*
X98116046Y69821302D01*
X98285784Y69567271D01*
X98402701Y69285007D01*
X98402701Y69285006D01*
X98462305Y68985358D01*
X98462305Y68679836D01*
X98438461Y68559965D01*
X98402701Y68380187D01*
X98285784Y68097923D01*
X98116046Y67843892D01*
X97900010Y67627856D01*
X97645979Y67458118D01*
X97363715Y67341201D01*
X97302376Y67329000D01*
X97064066Y67281597D01*
X96758544Y67281597D01*
X96520234Y67329000D01*
X96458895Y67341201D01*
X96176631Y67458118D01*
X95922600Y67627856D01*
X95706564Y67843892D01*
X95536826Y68097923D01*
X95419909Y68380187D01*
X95384149Y68559965D01*
X95360305Y68679836D01*
X95360305Y68985358D01*
X95419909Y69285006D01*
X95419909Y69285007D01*
X95536826Y69567271D01*
X95706564Y69821302D01*
X95922600Y70037338D01*
X96176631Y70207076D01*
X96458895Y70323993D01*
X96608720Y70353795D01*
X96758544Y70383597D01*
X97064066Y70383597D01*
X97213890Y70353795D01*
X97213890Y70353795D01*
G37*
G36*
X189828887Y70383597D02*
G01*
X189996363Y70350284D01*
X190278627Y70233367D01*
X190532658Y70063629D01*
X190748694Y69847593D01*
X190918432Y69593562D01*
X191035349Y69311298D01*
X191040579Y69285006D01*
X191094953Y69011649D01*
X191094953Y68706127D01*
X191089723Y68679836D01*
X191035349Y68406478D01*
X190918432Y68124214D01*
X190748694Y67870183D01*
X190532658Y67654147D01*
X190278627Y67484409D01*
X189996363Y67367492D01*
X189864189Y67341201D01*
X189696714Y67307888D01*
X189391192Y67307888D01*
X189223717Y67341201D01*
X189091543Y67367492D01*
X188809279Y67484409D01*
X188555248Y67654147D01*
X188339212Y67870183D01*
X188169474Y68124214D01*
X188052557Y68406478D01*
X187998183Y68679836D01*
X187992953Y68706127D01*
X187992953Y69011649D01*
X188047327Y69285006D01*
X188052557Y69311298D01*
X188169474Y69593562D01*
X188339212Y69847593D01*
X188555248Y70063629D01*
X188809279Y70233367D01*
X189091543Y70350284D01*
X189259019Y70383597D01*
X189391192Y70409888D01*
X189696714Y70409888D01*
X189828887Y70383597D01*
X189828887Y70383597D01*
G37*
G36*
X167731000Y67329000D02*
G01*
X166129000Y67329000D01*
X166129000Y68031000D01*
X167731000Y68031000D01*
X167731000Y67329000D01*
X167731000Y67329000D01*
G37*
G36*
X207915946Y70661118D02*
G01*
X208065771Y70631316D01*
X208348035Y70514399D01*
X208602066Y70344661D01*
X208818102Y70128625D01*
X208987840Y69874594D01*
X209104757Y69592330D01*
X209109742Y69567269D01*
X209164361Y69292681D01*
X209164361Y68987159D01*
X209148707Y68908463D01*
X209104757Y68687510D01*
X208987840Y68405246D01*
X208818102Y68151215D01*
X208602066Y67935179D01*
X208348035Y67765441D01*
X208065771Y67648524D01*
X207915946Y67618722D01*
X207766122Y67588920D01*
X207460600Y67588920D01*
X207310776Y67618722D01*
X207160951Y67648524D01*
X206878687Y67765441D01*
X206624656Y67935179D01*
X206408620Y68151215D01*
X206238882Y68405246D01*
X206121965Y68687510D01*
X206078015Y68908463D01*
X206062361Y68987159D01*
X206062361Y69292681D01*
X206116980Y69567269D01*
X206121965Y69592330D01*
X206238882Y69874594D01*
X206408620Y70128625D01*
X206624656Y70344661D01*
X206878687Y70514399D01*
X207160951Y70631316D01*
X207310776Y70661118D01*
X207460600Y70690920D01*
X207766122Y70690920D01*
X207915946Y70661118D01*
X207915946Y70661118D01*
G37*
G36*
X77075033Y70879527D02*
G01*
X77224858Y70849725D01*
X77507122Y70732808D01*
X77761153Y70563070D01*
X77977189Y70347034D01*
X78146927Y70093003D01*
X78259469Y69821301D01*
X78263844Y69810738D01*
X78319488Y69531000D01*
X78323448Y69511089D01*
X78323448Y69205569D01*
X78263844Y68905919D01*
X78146927Y68623655D01*
X77977189Y68369624D01*
X77761153Y68153588D01*
X77507122Y67983850D01*
X77224858Y67866933D01*
X77110576Y67844201D01*
X76925209Y67807329D01*
X76619687Y67807329D01*
X76434320Y67844201D01*
X76320038Y67866933D01*
X76037774Y67983850D01*
X75783743Y68153588D01*
X75567707Y68369624D01*
X75397969Y68623655D01*
X75281052Y68905919D01*
X75221448Y69205569D01*
X75221448Y69511089D01*
X75225409Y69531000D01*
X75281052Y69810738D01*
X75285427Y69821301D01*
X75397969Y70093003D01*
X75567707Y70347034D01*
X75783743Y70563070D01*
X76037774Y70732808D01*
X76320038Y70849725D01*
X76469863Y70879527D01*
X76619687Y70909329D01*
X76925209Y70909329D01*
X77075033Y70879527D01*
X77075033Y70879527D01*
G37*
G36*
X170531000Y67829000D02*
G01*
X168929000Y67829000D01*
X168929000Y68531000D01*
X170531000Y68531000D01*
X170531000Y67829000D01*
X170531000Y67829000D01*
G37*
G36*
X167731000Y68329000D02*
G01*
X166129000Y68329000D01*
X166129000Y69031000D01*
X167731000Y69031000D01*
X167731000Y68329000D01*
X167731000Y68329000D01*
G37*
G36*
X195134077Y71638057D02*
G01*
X195313533Y71602361D01*
X195595797Y71485444D01*
X195849828Y71315706D01*
X196065864Y71099670D01*
X196235602Y70845639D01*
X196352519Y70563375D01*
X196412123Y70263725D01*
X196412123Y69958205D01*
X196352519Y69658555D01*
X196235602Y69376291D01*
X196065864Y69122260D01*
X195849828Y68906224D01*
X195595797Y68736486D01*
X195313533Y68619569D01*
X195163708Y68589767D01*
X195013884Y68559965D01*
X194708362Y68559965D01*
X194558538Y68589767D01*
X194408713Y68619569D01*
X194126449Y68736486D01*
X193872418Y68906224D01*
X193656382Y69122260D01*
X193486644Y69376291D01*
X193369727Y69658555D01*
X193310123Y69958205D01*
X193310123Y70263725D01*
X193369727Y70563375D01*
X193486644Y70845639D01*
X193656382Y71099670D01*
X193872418Y71315706D01*
X194126449Y71485444D01*
X194408713Y71602361D01*
X194588169Y71638057D01*
X194708362Y71661965D01*
X195013884Y71661965D01*
X195134077Y71638057D01*
X195134077Y71638057D01*
G37*
G36*
X170531000Y68829000D02*
G01*
X168929000Y68829000D01*
X168929000Y69531000D01*
X170531000Y69531000D01*
X170531000Y68829000D01*
X170531000Y68829000D01*
G37*
G36*
X94871086Y72061648D02*
G01*
X96187783Y71069446D01*
X96187783Y71069445D01*
X95690771Y70409888D01*
X94561679Y68911532D01*
X94561678Y68911532D01*
X93634359Y69610317D01*
X92403765Y70537636D01*
X92403765Y70537637D01*
X93152318Y71531000D01*
X94029869Y72695550D01*
X94029870Y72695550D01*
X94871086Y72061648D01*
X94871086Y72061648D01*
G37*
G36*
X167731000Y69329000D02*
G01*
X166129000Y69329000D01*
X166129000Y70031000D01*
X167731000Y70031000D01*
X167731000Y69329000D01*
X167731000Y69329000D01*
G37*
G36*
X170531000Y69829000D02*
G01*
X168929000Y69829000D01*
X168929000Y70531000D01*
X170531000Y70531000D01*
X170531000Y69829000D01*
X170531000Y69829000D01*
G37*
G36*
X198642133Y72780144D02*
G01*
X199368664Y71816005D01*
X199368664Y71816004D01*
X198377946Y71069445D01*
X197210751Y70189900D01*
X197210750Y70189900D01*
X196220004Y71504665D01*
X195584646Y72347813D01*
X195584646Y72347814D01*
X196852196Y73302981D01*
X197742559Y73973918D01*
X197742560Y73973918D01*
X198642133Y72780144D01*
X198642133Y72780144D01*
G37*
G36*
X167731000Y70329000D02*
G01*
X166129000Y70329000D01*
X166129000Y71031000D01*
X167731000Y71031000D01*
X167731000Y70329000D01*
X167731000Y70329000D01*
G37*
G36*
X170531000Y70829000D02*
G01*
X168929000Y70829000D01*
X168929000Y72631000D01*
X170531000Y72631000D01*
X170531000Y70829000D01*
X170531000Y70829000D01*
G37*
G36*
X214138301Y74035256D02*
G01*
X214288126Y74005454D01*
X214570390Y73888537D01*
X214824421Y73718799D01*
X215040457Y73502763D01*
X215210195Y73248732D01*
X215300480Y73030763D01*
X215327112Y72966467D01*
X215364174Y72780147D01*
X215386716Y72666818D01*
X215386716Y72361298D01*
X215327112Y72061648D01*
X215210195Y71779384D01*
X215040457Y71525353D01*
X214824421Y71309317D01*
X214570390Y71139579D01*
X214288126Y71022662D01*
X214138301Y70992860D01*
X213988477Y70963058D01*
X213682955Y70963058D01*
X213533131Y70992860D01*
X213383306Y71022662D01*
X213101042Y71139579D01*
X212847011Y71309317D01*
X212630975Y71525353D01*
X212461237Y71779384D01*
X212344320Y72061648D01*
X212284716Y72361298D01*
X212284716Y72666818D01*
X212307259Y72780147D01*
X212344320Y72966467D01*
X212370952Y73030763D01*
X212461237Y73248732D01*
X212630975Y73502763D01*
X212847011Y73718799D01*
X213101042Y73888537D01*
X213383306Y74005454D01*
X213533131Y74035256D01*
X213682955Y74065058D01*
X213988477Y74065058D01*
X214138301Y74035256D01*
X214138301Y74035256D01*
G37*
G36*
X82724879Y73089789D02*
G01*
X82812002Y73072460D01*
X82912666Y73030763D01*
X82976138Y73004472D01*
X83105246Y72918205D01*
X83123855Y72905771D01*
X83249479Y72780147D01*
X83249481Y72780144D01*
X83348180Y72632430D01*
X83348180Y72632429D01*
X83416168Y72468294D01*
X83416168Y72468292D01*
X83450827Y72294050D01*
X83450827Y72116388D01*
X83433498Y72029267D01*
X83416168Y71942144D01*
X83370843Y71832721D01*
X83348180Y71778008D01*
X83315434Y71729000D01*
X83249479Y71630291D01*
X83123855Y71504667D01*
X83123852Y71504665D01*
X82976138Y71405966D01*
X82921425Y71383303D01*
X82812002Y71337978D01*
X82724879Y71320648D01*
X82637758Y71303319D01*
X82460096Y71303319D01*
X82372975Y71320648D01*
X82285852Y71337978D01*
X82176429Y71383303D01*
X82121716Y71405966D01*
X81974002Y71504665D01*
X81973999Y71504667D01*
X81848375Y71630291D01*
X81782420Y71729000D01*
X81749674Y71778008D01*
X81727011Y71832721D01*
X81681686Y71942144D01*
X81664356Y72029267D01*
X81647027Y72116388D01*
X81647027Y72294050D01*
X81681686Y72468292D01*
X81681686Y72468294D01*
X81749674Y72632429D01*
X81749674Y72632430D01*
X81848373Y72780144D01*
X81848375Y72780147D01*
X81973999Y72905771D01*
X81992608Y72918205D01*
X82121716Y73004472D01*
X82185188Y73030763D01*
X82285852Y73072460D01*
X82372975Y73089789D01*
X82460096Y73107119D01*
X82637758Y73107119D01*
X82724879Y73089789D01*
X82724879Y73089789D01*
G37*
G36*
X204082284Y73116081D02*
G01*
X204169407Y73098751D01*
X204278830Y73053426D01*
X204333543Y73030763D01*
X204429769Y72966467D01*
X204481260Y72932062D01*
X204606884Y72806438D01*
X204606886Y72806435D01*
X204705585Y72658721D01*
X204705585Y72658720D01*
X204773573Y72494585D01*
X204778803Y72468292D01*
X204808232Y72320341D01*
X204808232Y72142679D01*
X204803002Y72116388D01*
X204773573Y71968435D01*
X204728248Y71859012D01*
X204705585Y71804299D01*
X204655272Y71729000D01*
X204606884Y71656582D01*
X204481260Y71530958D01*
X204481257Y71530956D01*
X204333543Y71432257D01*
X204278830Y71409594D01*
X204169407Y71364269D01*
X204082284Y71346939D01*
X203995163Y71329610D01*
X203817501Y71329610D01*
X203730380Y71346939D01*
X203643257Y71364269D01*
X203533834Y71409594D01*
X203479121Y71432257D01*
X203331407Y71530956D01*
X203331404Y71530958D01*
X203205780Y71656582D01*
X203157392Y71729000D01*
X203107079Y71804299D01*
X203084416Y71859012D01*
X203039091Y71968435D01*
X203009662Y72116388D01*
X203004432Y72142679D01*
X203004432Y72320341D01*
X203033861Y72468292D01*
X203039091Y72494585D01*
X203107079Y72658720D01*
X203107079Y72658721D01*
X203205778Y72806435D01*
X203205780Y72806438D01*
X203331404Y72932062D01*
X203382895Y72966467D01*
X203479121Y73030763D01*
X203533834Y73053426D01*
X203643257Y73098751D01*
X203730380Y73116081D01*
X203817501Y73133410D01*
X203995163Y73133410D01*
X204082284Y73116081D01*
X204082284Y73116081D01*
G37*
G36*
X87683362Y74723290D02*
G01*
X88913956Y73795971D01*
X88913956Y73795970D01*
X88337331Y73030763D01*
X87287852Y71638057D01*
X87287851Y71638057D01*
X86360532Y72336842D01*
X85129938Y73264161D01*
X85129938Y73264162D01*
X85924585Y74318694D01*
X86756042Y75422075D01*
X86756043Y75422075D01*
X87683362Y74723290D01*
X87683362Y74723290D01*
G37*
G36*
X167731000Y71729000D02*
G01*
X166129000Y71729000D01*
X166129000Y72631000D01*
X167731000Y72631000D01*
X167731000Y71729000D01*
X167731000Y71729000D01*
G37*
G36*
X72116490Y75930799D02*
G01*
X72266315Y75900997D01*
X72548579Y75784080D01*
X72802610Y75614342D01*
X73018646Y75398306D01*
X73188384Y75144275D01*
X73305301Y74862011D01*
X73364905Y74562361D01*
X73364905Y74256841D01*
X73305301Y73957191D01*
X73188384Y73674927D01*
X73018646Y73420896D01*
X72802610Y73204860D01*
X72548579Y73035122D01*
X72266315Y72918205D01*
X72116490Y72888403D01*
X71966666Y72858601D01*
X71661144Y72858601D01*
X71511320Y72888403D01*
X71361495Y72918205D01*
X71079231Y73035122D01*
X70825200Y73204860D01*
X70609164Y73420896D01*
X70439426Y73674927D01*
X70322509Y73957191D01*
X70262905Y74256841D01*
X70262905Y74562361D01*
X70322509Y74862011D01*
X70439426Y75144275D01*
X70609164Y75398306D01*
X70825200Y75614342D01*
X71079231Y75784080D01*
X71361495Y75900997D01*
X71511320Y75930799D01*
X71661144Y75960601D01*
X71966666Y75960601D01*
X72116490Y75930799D01*
X72116490Y75930799D01*
G37*
G36*
X217146561Y76637986D02*
G01*
X218160305Y75292702D01*
X218712483Y74559937D01*
X216594502Y72963923D01*
X216540850Y73035122D01*
X215028579Y75041973D01*
X215326421Y75266413D01*
X217146560Y76637987D01*
X217146561Y76637986D01*
X217146561Y76637986D01*
G37*
G36*
X78893238Y77944130D02*
G01*
X79289470Y77780005D01*
X79352942Y77753714D01*
X79766663Y77477274D01*
X80118504Y77125433D01*
X80394944Y76711712D01*
X80394945Y76711710D01*
X80585360Y76252008D01*
X80682432Y75763993D01*
X80682432Y75266411D01*
X80585360Y74778396D01*
X80475141Y74512305D01*
X80394944Y74318692D01*
X80118504Y73904971D01*
X79766663Y73553130D01*
X79352942Y73276690D01*
X79352941Y73276689D01*
X79352940Y73276689D01*
X78893238Y73086274D01*
X78405223Y72989202D01*
X77907641Y72989202D01*
X77419626Y73086274D01*
X76959924Y73276689D01*
X76959923Y73276689D01*
X76959922Y73276690D01*
X76546201Y73553130D01*
X76194360Y73904971D01*
X75917920Y74318692D01*
X75837723Y74512305D01*
X75727504Y74778396D01*
X75630432Y75266411D01*
X75630432Y75763993D01*
X75727504Y76252008D01*
X75917919Y76711710D01*
X75917920Y76711712D01*
X76194360Y77125433D01*
X76546201Y77477274D01*
X76959922Y77753714D01*
X77023394Y77780005D01*
X77419626Y77944130D01*
X77907641Y78041202D01*
X78405223Y78041202D01*
X78893238Y77944130D01*
X78893238Y77944130D01*
G37*
G36*
X209035633Y77970421D02*
G01*
X209495335Y77780006D01*
X209495337Y77780005D01*
X209909058Y77503565D01*
X210260899Y77151724D01*
X210537339Y76738003D01*
X210537340Y76738001D01*
X210727755Y76278299D01*
X210824827Y75790284D01*
X210824827Y75292702D01*
X210727755Y74804687D01*
X210606646Y74512305D01*
X210537339Y74344983D01*
X210260899Y73931262D01*
X209909058Y73579421D01*
X209495337Y73302981D01*
X209495336Y73302980D01*
X209495335Y73302980D01*
X209035633Y73112565D01*
X208547618Y73015493D01*
X208050036Y73015493D01*
X207562021Y73112565D01*
X207102319Y73302980D01*
X207102318Y73302980D01*
X207102317Y73302981D01*
X206688596Y73579421D01*
X206336755Y73931262D01*
X206060315Y74344983D01*
X205991008Y74512305D01*
X205869899Y74804687D01*
X205772827Y75292702D01*
X205772827Y75790284D01*
X205869899Y76278299D01*
X206060314Y76738001D01*
X206060315Y76738003D01*
X206336755Y77151724D01*
X206688596Y77503565D01*
X207102317Y77780005D01*
X207102319Y77780006D01*
X207562021Y77970421D01*
X208050036Y78067493D01*
X208547618Y78067493D01*
X209035633Y77970421D01*
X209035633Y77970421D01*
G37*
G36*
X84709001Y77022208D02*
G01*
X84858826Y76992406D01*
X85141090Y76875489D01*
X85395121Y76705751D01*
X85611157Y76489715D01*
X85780895Y76235684D01*
X85897812Y75953420D01*
X85957416Y75653770D01*
X85957416Y75348250D01*
X85897812Y75048600D01*
X85780895Y74766336D01*
X85611157Y74512305D01*
X85395121Y74296269D01*
X85141090Y74126531D01*
X84858826Y74009614D01*
X84709001Y73979812D01*
X84559177Y73950010D01*
X84253655Y73950010D01*
X84103831Y73979812D01*
X83954006Y74009614D01*
X83671742Y74126531D01*
X83417711Y74296269D01*
X83201675Y74512305D01*
X83031937Y74766336D01*
X82915020Y75048600D01*
X82855416Y75348250D01*
X82855416Y75653770D01*
X82915020Y75953420D01*
X83031937Y76235684D01*
X83201675Y76489715D01*
X83417711Y76705751D01*
X83671742Y76875489D01*
X83954006Y76992406D01*
X84103831Y77022208D01*
X84253655Y77052010D01*
X84559177Y77052010D01*
X84709001Y77022208D01*
X84709001Y77022208D01*
G37*
G36*
X70431509Y77142947D02*
G01*
X69166493Y75464215D01*
X67487761Y76729231D01*
X68752777Y78407963D01*
X70431509Y77142947D01*
X70431509Y77142947D01*
G37*
G36*
X203073540Y79278687D02*
G01*
X203994505Y78056526D01*
X203994505Y78056525D01*
X202793793Y77151724D01*
X201836592Y76430421D01*
X201836591Y76430421D01*
X200611234Y78056525D01*
X200210487Y78588334D01*
X200210487Y78588335D01*
X201489354Y79552030D01*
X202368400Y80214439D01*
X202368401Y80214439D01*
X203073540Y79278687D01*
X203073540Y79278687D01*
G37*
G36*
X73939889Y79709755D02*
G01*
X74027012Y79692426D01*
X74127676Y79650729D01*
X74191148Y79624438D01*
X74328877Y79532411D01*
X74338865Y79525737D01*
X74464489Y79400113D01*
X74464491Y79400110D01*
X74563190Y79252396D01*
X74563190Y79252395D01*
X74631178Y79088260D01*
X74631178Y79088258D01*
X74664867Y78918895D01*
X74665837Y78914014D01*
X74665837Y78736356D01*
X74631178Y78562110D01*
X74585853Y78452687D01*
X74563190Y78397974D01*
X74482058Y78276551D01*
X74464489Y78250257D01*
X74338865Y78124633D01*
X74338862Y78124631D01*
X74191148Y78025932D01*
X74136435Y78003269D01*
X74027012Y77957944D01*
X73957563Y77944130D01*
X73852768Y77923285D01*
X73675106Y77923285D01*
X73570311Y77944130D01*
X73500862Y77957944D01*
X73391439Y78003269D01*
X73336726Y78025932D01*
X73189012Y78124631D01*
X73189009Y78124633D01*
X73063385Y78250257D01*
X73045816Y78276551D01*
X72964684Y78397974D01*
X72942021Y78452687D01*
X72896696Y78562110D01*
X72862037Y78736356D01*
X72862037Y78914014D01*
X72863008Y78918895D01*
X72896696Y79088258D01*
X72896696Y79088260D01*
X72964684Y79252395D01*
X72964684Y79252396D01*
X73063383Y79400110D01*
X73063385Y79400113D01*
X73189009Y79525737D01*
X73198997Y79532411D01*
X73336726Y79624438D01*
X73400198Y79650729D01*
X73500862Y79692426D01*
X73587985Y79709755D01*
X73675106Y79727085D01*
X73852768Y79727085D01*
X73939889Y79709755D01*
X73939889Y79709755D01*
G37*
G36*
X212867274Y79736046D02*
G01*
X212954397Y79718717D01*
X213063820Y79673392D01*
X213118533Y79650729D01*
X213157880Y79624438D01*
X213266250Y79552028D01*
X213391874Y79426404D01*
X213391876Y79426401D01*
X213490575Y79278687D01*
X213490703Y79278378D01*
X213558563Y79114551D01*
X213568948Y79062342D01*
X213593222Y78940307D01*
X213593222Y78762645D01*
X213587992Y78736354D01*
X213558563Y78588401D01*
X213513238Y78478978D01*
X213490575Y78424265D01*
X213392539Y78277543D01*
X213391874Y78276548D01*
X213266250Y78150924D01*
X213266247Y78150922D01*
X213118533Y78052223D01*
X213063820Y78029560D01*
X212954397Y77984235D01*
X212884948Y77970421D01*
X212780153Y77949576D01*
X212602491Y77949576D01*
X212497696Y77970421D01*
X212428247Y77984235D01*
X212318824Y78029560D01*
X212264111Y78052223D01*
X212116397Y78150922D01*
X212116394Y78150924D01*
X211990770Y78276548D01*
X211990105Y78277543D01*
X211892069Y78424265D01*
X211869406Y78478978D01*
X211824081Y78588401D01*
X211794652Y78736354D01*
X211789422Y78762645D01*
X211789422Y78940307D01*
X211813696Y79062342D01*
X211824081Y79114551D01*
X211891941Y79278378D01*
X211892069Y79278687D01*
X211990768Y79426401D01*
X211990770Y79426404D01*
X212116394Y79552028D01*
X212224764Y79624438D01*
X212264111Y79650729D01*
X212318824Y79673392D01*
X212428247Y79718717D01*
X212515370Y79736046D01*
X212602491Y79753376D01*
X212780153Y79753376D01*
X212867274Y79736046D01*
X212867274Y79736046D01*
G37*
G36*
X82039816Y81788281D02*
G01*
X82189641Y81758479D01*
X82471905Y81641562D01*
X82725936Y81471824D01*
X82941972Y81255788D01*
X83111710Y81001757D01*
X83190815Y80810779D01*
X83228627Y80719492D01*
X83283002Y80446134D01*
X83288231Y80419843D01*
X83288231Y80114323D01*
X83228627Y79814673D01*
X83111710Y79532409D01*
X82941972Y79278378D01*
X82725936Y79062342D01*
X82471905Y78892604D01*
X82189641Y78775687D01*
X82124084Y78762647D01*
X81889992Y78716083D01*
X81584470Y78716083D01*
X81350378Y78762647D01*
X81284821Y78775687D01*
X81002557Y78892604D01*
X80748526Y79062342D01*
X80532490Y79278378D01*
X80362752Y79532409D01*
X80245835Y79814673D01*
X80186231Y80114323D01*
X80186231Y80419843D01*
X80191461Y80446134D01*
X80245835Y80719492D01*
X80283647Y80810779D01*
X80362752Y81001757D01*
X80532490Y81255788D01*
X80748526Y81471824D01*
X81002557Y81641562D01*
X81284821Y81758479D01*
X81434646Y81788281D01*
X81584470Y81818083D01*
X81889992Y81818083D01*
X82039816Y81788281D01*
X82039816Y81788281D01*
G37*
G36*
X205002962Y81818083D02*
G01*
X205170438Y81784770D01*
X205452702Y81667853D01*
X205706733Y81498115D01*
X205922769Y81282079D01*
X206092507Y81028048D01*
X206209424Y80745784D01*
X206214654Y80719492D01*
X206269028Y80446135D01*
X206269028Y80140613D01*
X206263798Y80114322D01*
X206209424Y79840964D01*
X206092507Y79558700D01*
X205922769Y79304669D01*
X205706733Y79088633D01*
X205452702Y78918895D01*
X205170438Y78801978D01*
X205038264Y78775687D01*
X204870789Y78742374D01*
X204565267Y78742374D01*
X204397792Y78775687D01*
X204265618Y78801978D01*
X203983354Y78918895D01*
X203729323Y79088633D01*
X203513287Y79304669D01*
X203343549Y79558700D01*
X203226632Y79840964D01*
X203172258Y80114322D01*
X203167028Y80140613D01*
X203167028Y80446135D01*
X203221402Y80719492D01*
X203226632Y80745784D01*
X203343549Y81028048D01*
X203513287Y81282079D01*
X203729323Y81498115D01*
X203983354Y81667853D01*
X204265618Y81784770D01*
X204433094Y81818083D01*
X204565267Y81844374D01*
X204870789Y81844374D01*
X205002962Y81818083D01*
X205002962Y81818083D01*
G37*
G36*
X210337783Y83066649D02*
G01*
X210487608Y83036847D01*
X210769872Y82919930D01*
X211023903Y82750192D01*
X211239939Y82534156D01*
X211409677Y82280125D01*
X211526594Y81997861D01*
X211586198Y81698211D01*
X211586198Y81392691D01*
X211526594Y81093041D01*
X211409677Y80810777D01*
X211239939Y80556746D01*
X211023903Y80340710D01*
X210769872Y80170972D01*
X210487608Y80054055D01*
X210337783Y80024253D01*
X210187959Y79994451D01*
X209882437Y79994451D01*
X209732613Y80024253D01*
X209582788Y80054055D01*
X209300524Y80170972D01*
X209046493Y80340710D01*
X208830457Y80556746D01*
X208660719Y80810777D01*
X208543802Y81093041D01*
X208484198Y81392691D01*
X208484198Y81698211D01*
X208543802Y81997861D01*
X208660719Y82280125D01*
X208830457Y82534156D01*
X209046493Y82750192D01*
X209300524Y82919930D01*
X209582788Y83036847D01*
X209732613Y83066649D01*
X209882437Y83096451D01*
X210187959Y83096451D01*
X210337783Y83066649D01*
X210337783Y83066649D01*
G37*
G36*
X79317258Y83782299D02*
G01*
X81013709Y82503932D01*
X81013709Y82503931D01*
X80612962Y81972122D01*
X79387605Y80346018D01*
X79387604Y80346018D01*
X78460285Y81044803D01*
X77229691Y81972122D01*
X77229691Y81972123D01*
X77943915Y82919930D01*
X78855795Y84130036D01*
X78855796Y84130036D01*
X79317258Y83782299D01*
X79317258Y83782299D01*
G37*
G36*
X213843954Y84177810D02*
G01*
X214542739Y83250491D01*
X214542739Y83250490D01*
X213552021Y82503931D01*
X212384826Y81624386D01*
X212384825Y81624386D01*
X211159468Y83250490D01*
X210758721Y83782299D01*
X210758721Y83782300D01*
X211989315Y84709619D01*
X212916634Y85408404D01*
X212916635Y85408404D01*
X213843954Y84177810D01*
X213843954Y84177810D01*
G37*
G36*
X143240443Y108804481D02*
G01*
X143306627Y108797963D01*
X143476466Y108746443D01*
X143632991Y108662778D01*
X143668729Y108633448D01*
X143770186Y108550186D01*
X143853448Y108448729D01*
X143882778Y108412991D01*
X143966443Y108256466D01*
X144017963Y108086627D01*
X144035359Y107910000D01*
X144017963Y107733373D01*
X143966443Y107563534D01*
X143882778Y107407009D01*
X143853448Y107371271D01*
X143770186Y107269814D01*
X143668729Y107186552D01*
X143632991Y107157222D01*
X143476466Y107073557D01*
X143306627Y107022037D01*
X143240443Y107015519D01*
X143174260Y107009000D01*
X143085740Y107009000D01*
X143019557Y107015519D01*
X142953373Y107022037D01*
X142783534Y107073557D01*
X142627009Y107157222D01*
X142591271Y107186552D01*
X142489814Y107269814D01*
X142406552Y107371271D01*
X142377222Y107407009D01*
X142293557Y107563534D01*
X142242037Y107733373D01*
X142224641Y107910000D01*
X142242037Y108086627D01*
X142293557Y108256466D01*
X142377222Y108412991D01*
X142406552Y108448729D01*
X142489814Y108550186D01*
X142591271Y108633448D01*
X142627009Y108662778D01*
X142783534Y108746443D01*
X142953373Y108797963D01*
X143019557Y108804481D01*
X143085740Y108811000D01*
X143174260Y108811000D01*
X143240443Y108804481D01*
X143240443Y108804481D01*
G37*
G36*
X143240442Y111344482D02*
G01*
X143306627Y111337963D01*
X143476466Y111286443D01*
X143632991Y111202778D01*
X143668729Y111173448D01*
X143770186Y111090186D01*
X143853448Y110988729D01*
X143882778Y110952991D01*
X143966443Y110796466D01*
X144017963Y110626627D01*
X144035359Y110450000D01*
X144017963Y110273373D01*
X143966443Y110103534D01*
X143882778Y109947009D01*
X143853448Y109911271D01*
X143770186Y109809814D01*
X143668729Y109726552D01*
X143632991Y109697222D01*
X143476466Y109613557D01*
X143306627Y109562037D01*
X143240442Y109555518D01*
X143174260Y109549000D01*
X143085740Y109549000D01*
X143019558Y109555518D01*
X142953373Y109562037D01*
X142783534Y109613557D01*
X142627009Y109697222D01*
X142591271Y109726552D01*
X142489814Y109809814D01*
X142406552Y109911271D01*
X142377222Y109947009D01*
X142293557Y110103534D01*
X142242037Y110273373D01*
X142224641Y110450000D01*
X142242037Y110626627D01*
X142293557Y110796466D01*
X142377222Y110952991D01*
X142406552Y110988729D01*
X142489814Y111090186D01*
X142591271Y111173448D01*
X142627009Y111202778D01*
X142783534Y111286443D01*
X142953373Y111337963D01*
X143019558Y111344482D01*
X143085740Y111351000D01*
X143174260Y111351000D01*
X143240442Y111344482D01*
X143240442Y111344482D01*
G37*
G36*
X143240443Y113884481D02*
G01*
X143306627Y113877963D01*
X143476466Y113826443D01*
X143632991Y113742778D01*
X143668729Y113713448D01*
X143770186Y113630186D01*
X143853448Y113528729D01*
X143882778Y113492991D01*
X143966443Y113336466D01*
X144017963Y113166627D01*
X144035359Y112990000D01*
X144017963Y112813373D01*
X143966443Y112643534D01*
X143882778Y112487009D01*
X143853448Y112451271D01*
X143770186Y112349814D01*
X143668729Y112266552D01*
X143632991Y112237222D01*
X143476466Y112153557D01*
X143306627Y112102037D01*
X143240443Y112095519D01*
X143174260Y112089000D01*
X143085740Y112089000D01*
X143019557Y112095519D01*
X142953373Y112102037D01*
X142783534Y112153557D01*
X142627009Y112237222D01*
X142591271Y112266552D01*
X142489814Y112349814D01*
X142406552Y112451271D01*
X142377222Y112487009D01*
X142293557Y112643534D01*
X142242037Y112813373D01*
X142224641Y112990000D01*
X142242037Y113166627D01*
X142293557Y113336466D01*
X142377222Y113492991D01*
X142406552Y113528729D01*
X142489814Y113630186D01*
X142591271Y113713448D01*
X142627009Y113742778D01*
X142783534Y113826443D01*
X142953373Y113877963D01*
X143019557Y113884481D01*
X143085740Y113891000D01*
X143174260Y113891000D01*
X143240443Y113884481D01*
X143240443Y113884481D01*
G37*
G36*
X144031000Y114629000D02*
G01*
X142229000Y114629000D01*
X142229000Y116431000D01*
X144031000Y116431000D01*
X144031000Y114629000D01*
X144031000Y114629000D01*
G37*
M02*
