G04 #@! TF.GenerationSoftware,KiCad,Pcbnew,(5.1.4)-1*
G04 #@! TF.CreationDate,2023-11-05T18:19:01-05:00*
G04 #@! TF.ProjectId,ThumbsUp,5468756d-6273-4557-902e-6b696361645f,rev?*
G04 #@! TF.SameCoordinates,Original*
G04 #@! TF.FileFunction,Paste,Bot*
G04 #@! TF.FilePolarity,Positive*
%FSLAX46Y46*%
G04 Gerber Fmt 4.6, Leading zero omitted, Abs format (unit mm)*
G04 Created by KiCad (PCBNEW (5.1.4)-1) date 2023-11-05 18:19:01*
%MOMM*%
%LPD*%
G04 APERTURE LIST*
%ADD10C,2.000000*%
%ADD11C,0.100000*%
%ADD12C,2.500000*%
%ADD13C,2.600000*%
%ADD14R,1.500000X0.800000*%
%ADD15R,1.500000X0.600000*%
G04 APERTURE END LIST*
D10*
X174049852Y44223643D03*
D11*
G36*
X173853032Y42823192D02*
G01*
X172649401Y44420463D01*
X174246672Y45624094D01*
X175450303Y44026823D01*
X173853032Y42823192D01*
X173853032Y42823192D01*
G37*
D12*
X186522381Y51931984D03*
D11*
G36*
X186256390Y50166375D02*
G01*
X184751852Y52162964D01*
X186788372Y53697593D01*
X188292910Y51701004D01*
X186256390Y50166375D01*
X186256390Y50166375D01*
G37*
D13*
X182302580Y60647424D03*
D11*
G36*
X182046713Y58826838D02*
G01*
X180481994Y60903291D01*
X182558447Y62468010D01*
X184123166Y60391557D01*
X182046713Y58826838D01*
X182046713Y58826838D01*
G37*
D13*
X171754346Y55453459D03*
D11*
G36*
X171498479Y53632873D02*
G01*
X169933760Y55709326D01*
X172010213Y57274045D01*
X173574932Y55197592D01*
X171498479Y53632873D01*
X171498479Y53632873D01*
G37*
D10*
X99307784Y54067118D03*
D11*
G36*
X97907333Y53870298D02*
G01*
X99110964Y55467569D01*
X100708235Y54263938D01*
X99504604Y52666667D01*
X97907333Y53870298D01*
X97907333Y53870298D01*
G37*
D12*
X110155412Y44202461D03*
D11*
G36*
X108384883Y43971481D02*
G01*
X109889421Y45968070D01*
X111925941Y44433441D01*
X110421403Y42436852D01*
X108384883Y43971481D01*
X108384883Y43971481D01*
G37*
D13*
X117370096Y50661095D03*
D11*
G36*
X115549510Y50405228D02*
G01*
X117114229Y52481681D01*
X119190682Y50916962D01*
X117625963Y48840509D01*
X115549510Y50405228D01*
X115549510Y50405228D01*
G37*
D13*
X109469849Y59369056D03*
D11*
G36*
X107649263Y59113189D02*
G01*
X109213982Y61189642D01*
X111290435Y59624923D01*
X109725716Y57548470D01*
X107649263Y59113189D01*
X107649263Y59113189D01*
G37*
D10*
X189223927Y55658128D03*
D11*
G36*
X189027107Y54257677D02*
G01*
X187823476Y55854948D01*
X189420747Y57058579D01*
X190624378Y55461308D01*
X189027107Y54257677D01*
X189027107Y54257677D01*
G37*
D12*
X201696456Y63366469D03*
D11*
G36*
X201430465Y61600860D02*
G01*
X199925927Y63597449D01*
X201962447Y65132078D01*
X203466985Y63135489D01*
X201430465Y61600860D01*
X201430465Y61600860D01*
G37*
D13*
X197476655Y72081909D03*
D11*
G36*
X197220788Y70261323D02*
G01*
X195656069Y72337776D01*
X197732522Y73902495D01*
X199297241Y71826042D01*
X197220788Y70261323D01*
X197220788Y70261323D01*
G37*
D13*
X186928421Y66887944D03*
D11*
G36*
X186672554Y65067358D02*
G01*
X185107835Y67143811D01*
X187184288Y68708530D01*
X188749007Y66632077D01*
X186672554Y65067358D01*
X186672554Y65067358D01*
G37*
D10*
X204398002Y67092614D03*
D11*
G36*
X204201182Y65692163D02*
G01*
X202997551Y67289434D01*
X204594822Y68493065D01*
X205798453Y66895794D01*
X204201182Y65692163D01*
X204201182Y65692163D01*
G37*
D12*
X216870531Y74800955D03*
D11*
G36*
X216604540Y73035346D02*
G01*
X215100002Y75031935D01*
X217136522Y76566564D01*
X218641060Y74569975D01*
X216604540Y73035346D01*
X216604540Y73035346D01*
G37*
D13*
X212650730Y83516395D03*
D11*
G36*
X212394863Y81695809D02*
G01*
X210830144Y83772262D01*
X212906597Y85336981D01*
X214471316Y83260528D01*
X212394863Y81695809D01*
X212394863Y81695809D01*
G37*
D13*
X202102496Y78322430D03*
D11*
G36*
X201846629Y76501844D02*
G01*
X200281910Y78578297D01*
X202358363Y80143016D01*
X203923082Y78066563D01*
X201846629Y76501844D01*
X201846629Y76501844D01*
G37*
D10*
X68959635Y76936089D03*
D11*
G36*
X67559184Y76739269D02*
G01*
X68762815Y78336540D01*
X70360086Y77132909D01*
X69156455Y75535638D01*
X67559184Y76739269D01*
X67559184Y76739269D01*
G37*
D12*
X79807263Y67071432D03*
D11*
G36*
X78036734Y66840452D02*
G01*
X79541272Y68837041D01*
X81577792Y67302412D01*
X80073254Y65305823D01*
X78036734Y66840452D01*
X78036734Y66840452D01*
G37*
D13*
X87021947Y73530066D03*
D11*
G36*
X85201361Y73274199D02*
G01*
X86766080Y75350652D01*
X88842533Y73785933D01*
X87277814Y71709480D01*
X85201361Y73274199D01*
X85201361Y73274199D01*
G37*
D13*
X79121700Y82238027D03*
D11*
G36*
X77301114Y81982160D02*
G01*
X78865833Y84058613D01*
X80942286Y82493894D01*
X79377567Y80417441D01*
X77301114Y81982160D01*
X77301114Y81982160D01*
G37*
D10*
X84133709Y65501603D03*
D11*
G36*
X82733258Y65304783D02*
G01*
X83936889Y66902054D01*
X85534160Y65698423D01*
X84330529Y64101152D01*
X82733258Y65304783D01*
X82733258Y65304783D01*
G37*
D12*
X94981337Y55636946D03*
D11*
G36*
X93210808Y55405966D02*
G01*
X94715346Y57402555D01*
X96751866Y55867926D01*
X95247328Y53871337D01*
X93210808Y55405966D01*
X93210808Y55405966D01*
G37*
D13*
X102196021Y62095580D03*
D11*
G36*
X100375435Y61839713D02*
G01*
X101940154Y63916166D01*
X104016607Y62351447D01*
X102451888Y60274994D01*
X100375435Y61839713D01*
X100375435Y61839713D01*
G37*
D13*
X94295774Y70803541D03*
D11*
G36*
X92475188Y70547674D02*
G01*
X94039907Y72624127D01*
X96116360Y71059408D01*
X94551641Y68982955D01*
X92475188Y70547674D01*
X92475188Y70547674D01*
G37*
D14*
X166930000Y64680000D03*
X169730000Y64680000D03*
X166930000Y72180000D03*
X169730000Y72180000D03*
D15*
X166930000Y65680000D03*
X169730000Y66180000D03*
X166930000Y66680000D03*
X169730000Y67180000D03*
X166930000Y67680000D03*
X169730000Y68180000D03*
X166930000Y68680000D03*
X169730000Y69180000D03*
X166930000Y69680000D03*
X169730000Y70180000D03*
X166930000Y70680000D03*
X169730000Y71180000D03*
M02*
