G04 #@! TF.GenerationSoftware,KiCad,Pcbnew,(5.1.4)-1*
G04 #@! TF.CreationDate,2023-10-04T20:40:57-04:00*
G04 #@! TF.ProjectId,ThumbsUp,5468756d-6273-4557-902e-6b696361645f,rev?*
G04 #@! TF.SameCoordinates,Original*
G04 #@! TF.FileFunction,Legend,Bot*
G04 #@! TF.FilePolarity,Positive*
%FSLAX46Y46*%
G04 Gerber Fmt 4.6, Leading zero omitted, Abs format (unit mm)*
G04 Created by KiCad (PCBNEW (5.1.4)-1) date 2023-10-04 20:40:57*
%MOMM*%
%LPD*%
G04 APERTURE LIST*
%ADD10C,0.120000*%
%ADD11C,0.400000*%
%ADD12C,0.100000*%
%ADD13C,0.150000*%
%ADD14C,0.254000*%
G04 APERTURE END LIST*
D10*
X-303000000Y-108100000D02*
G75*
G03X-303000000Y-108100000I-20000000J0D01*
G01*
X-297738229Y-131137401D02*
X-298800414Y-131937815D01*
X-296937815Y-132199586D02*
X-297738229Y-131137401D01*
X-296173510Y-133213853D02*
X-298297880Y-134814681D01*
X-298297880Y-134814681D02*
X-293675941Y-140948202D01*
X-296173510Y-133213853D02*
X-291551570Y-139347374D01*
X-291551570Y-139347374D02*
X-293675941Y-140948202D01*
D11*
X-295100000Y-108900000D02*
G75*
G03X-295100000Y-108800000I0J50000D01*
G01*
X-295100000Y-108800000D02*
G75*
G03X-295100000Y-108900000I0J-50000D01*
G01*
X-295100000Y-108800000D02*
X-295100000Y-108800000D01*
X-295100000Y-108900000D02*
X-295100000Y-108900000D01*
D12*
X-296650000Y-117450000D02*
X-296650000Y-116600000D01*
X-299650000Y-117450000D02*
X-296650000Y-117450000D01*
X-299650000Y-116600000D02*
X-299650000Y-117450000D01*
X-296650000Y-105750000D02*
X-296650000Y-106600000D01*
X-299650000Y-105750000D02*
X-296650000Y-105750000D01*
X-299650000Y-106600000D02*
X-299650000Y-105750000D01*
D10*
X-321670000Y-63170000D02*
X-323000000Y-63170000D01*
X-321670000Y-64500000D02*
X-321670000Y-63170000D01*
X-321670000Y-65770000D02*
X-324330000Y-65770000D01*
X-324330000Y-65770000D02*
X-324330000Y-73450000D01*
X-321670000Y-65770000D02*
X-321670000Y-73450000D01*
X-321670000Y-73450000D02*
X-324330000Y-73450000D01*
D13*
X-268317522Y-110512335D02*
X-268618429Y-110113017D01*
X-274739913Y-109466916D02*
G75*
G02X-275440138Y-109368505I-300907J399318D01*
G01*
X-279138084Y-110276904D02*
X-276742178Y-108471459D01*
X-279236495Y-110977130D02*
X-279138084Y-110276904D01*
X-276429917Y-113870764D02*
X-274433328Y-112366227D01*
X-270784964Y-107237929D02*
X-271146053Y-106758748D01*
X-277130142Y-113772354D02*
X-276429917Y-113870764D01*
X-271146053Y-106758748D02*
X-274739912Y-109466915D01*
X-275440138Y-109368505D02*
X-276041953Y-108569870D01*
X-276742178Y-108471459D02*
X-276041953Y-108569870D01*
X-274433329Y-112366226D02*
G75*
G02X-272332652Y-112661457I902723J-1197954D01*
G01*
X-271911382Y-113220502D02*
X-268317522Y-110512335D01*
X-272332652Y-112661457D02*
X-271911382Y-113220502D01*
X-366306323Y-118964036D02*
X-366005415Y-118564718D01*
X-367071653Y-112502281D02*
G75*
G02X-367170062Y-111802056I300908J399317D01*
G01*
X-369062564Y-108497750D02*
X-366666658Y-110303195D01*
X-369762789Y-108596161D02*
X-369062564Y-108497750D01*
X-371770732Y-112091610D02*
X-369774143Y-113596148D01*
X-363838881Y-115689630D02*
X-363477792Y-115210449D01*
X-371869142Y-111391385D02*
X-371770732Y-112091610D01*
X-363477792Y-115210449D02*
X-367071652Y-112502281D01*
X-367170062Y-111802056D02*
X-366568247Y-111003421D01*
X-366666658Y-110303195D02*
X-366568247Y-111003421D01*
X-369774143Y-113596148D02*
G75*
G02X-369478912Y-115696823I-902722J-1197953D01*
G01*
X-369900183Y-116255868D02*
X-366306323Y-118964036D01*
X-369478912Y-115696823D02*
X-369900183Y-116255868D01*
X-253143447Y-99077849D02*
X-253444354Y-98678531D01*
X-259565838Y-98032430D02*
G75*
G02X-260266063Y-97934019I-300907J399318D01*
G01*
X-263964009Y-98842418D02*
X-261568103Y-97036973D01*
X-264062420Y-99542644D02*
X-263964009Y-98842418D01*
X-261255842Y-102436278D02*
X-259259253Y-100931741D01*
X-255610889Y-95803443D02*
X-255971978Y-95324262D01*
X-261956067Y-102337868D02*
X-261255842Y-102436278D01*
X-255971978Y-95324262D02*
X-259565837Y-98032429D01*
X-260266063Y-97934019D02*
X-260867878Y-97135384D01*
X-261568103Y-97036973D02*
X-260867878Y-97135384D01*
X-259259254Y-100931740D02*
G75*
G02X-257158577Y-101226971I902723J-1197954D01*
G01*
X-256737307Y-101786016D02*
X-253143447Y-99077849D01*
X-257158577Y-101226971D02*
X-256737307Y-101786016D01*
X-381480397Y-107529550D02*
X-381179489Y-107130232D01*
X-382245727Y-101067795D02*
G75*
G02X-382344136Y-100367570I300908J399317D01*
G01*
X-384236638Y-97063264D02*
X-381840732Y-98868709D01*
X-384936863Y-97161675D02*
X-384236638Y-97063264D01*
X-386944806Y-100657124D02*
X-384948217Y-102161662D01*
X-379012955Y-104255144D02*
X-378651866Y-103775963D01*
X-387043216Y-99956899D02*
X-386944806Y-100657124D01*
X-378651866Y-103775963D02*
X-382245726Y-101067795D01*
X-382344136Y-100367570D02*
X-381742321Y-99568935D01*
X-381840732Y-98868709D02*
X-381742321Y-99568935D01*
X-384948217Y-102161662D02*
G75*
G02X-384652986Y-104262337I-902722J-1197953D01*
G01*
X-385074257Y-104821382D02*
X-381480397Y-107529550D01*
X-384652986Y-104262337D02*
X-385074257Y-104821382D01*
X-351132248Y-130398521D02*
X-350831340Y-129999203D01*
X-351897578Y-123936766D02*
G75*
G02X-351995987Y-123236541I300908J399317D01*
G01*
X-353888489Y-119932235D02*
X-351492583Y-121737680D01*
X-354588714Y-120030646D02*
X-353888489Y-119932235D01*
X-356596657Y-123526095D02*
X-354600068Y-125030633D01*
X-348664806Y-127124115D02*
X-348303717Y-126644934D01*
X-356695067Y-122825870D02*
X-356596657Y-123526095D01*
X-348303717Y-126644934D02*
X-351897577Y-123936766D01*
X-351995987Y-123236541D02*
X-351394172Y-122437906D01*
X-351492583Y-121737680D02*
X-351394172Y-122437906D01*
X-354600068Y-125030633D02*
G75*
G02X-354304837Y-127131308I-902722J-1197953D01*
G01*
X-354726108Y-127690353D02*
X-351132248Y-130398521D01*
X-354304837Y-127131308D02*
X-354726108Y-127690353D01*
X-283491597Y-121946820D02*
X-283792504Y-121547502D01*
X-289913988Y-120901401D02*
G75*
G02X-290614213Y-120802990I-300907J399318D01*
G01*
X-294312159Y-121711389D02*
X-291916253Y-119905944D01*
X-294410570Y-122411615D02*
X-294312159Y-121711389D01*
X-291603992Y-125305249D02*
X-289607403Y-123800712D01*
X-285959039Y-118672414D02*
X-286320128Y-118193233D01*
X-292304217Y-125206839D02*
X-291603992Y-125305249D01*
X-286320128Y-118193233D02*
X-289913987Y-120901400D01*
X-290614213Y-120802990D02*
X-291216028Y-120004355D01*
X-291916253Y-119905944D02*
X-291216028Y-120004355D01*
X-289607404Y-123800711D02*
G75*
G02X-287506727Y-124095942I902723J-1197954D01*
G01*
X-287085457Y-124654987D02*
X-283491597Y-121946820D01*
X-287506727Y-124095942D02*
X-287085457Y-124654987D01*
D10*
X-254687401Y-114411771D02*
X-255487815Y-113349586D01*
X-255749586Y-115212185D02*
X-254687401Y-114411771D01*
X-256763853Y-115976490D02*
X-258364681Y-113852120D01*
X-258364681Y-113852120D02*
X-264498202Y-118474059D01*
X-256763853Y-115976490D02*
X-262897374Y-120598430D01*
X-262897374Y-120598430D02*
X-264498202Y-118474059D01*
X-346137401Y-132738229D02*
X-347199586Y-131937815D01*
X-346937815Y-133800414D02*
X-346137401Y-132738229D01*
X-347702120Y-134814681D02*
X-349826490Y-133213853D01*
X-349826490Y-133213853D02*
X-354448430Y-139347374D01*
X-347702120Y-134814681D02*
X-352324059Y-140948202D01*
X-352324059Y-140948202D02*
X-354448430Y-139347374D01*
X-381238229Y-121862599D02*
X-380437815Y-120800414D01*
X-382300414Y-121062185D02*
X-381238229Y-121862599D01*
X-383314681Y-120297880D02*
X-381713853Y-118173510D01*
X-381713853Y-118173510D02*
X-387847374Y-113551570D01*
X-383314681Y-120297880D02*
X-389448202Y-115675941D01*
X-389448202Y-115675941D02*
X-387847374Y-113551570D01*
D13*
X-298628916Y-129870753D02*
X-298199048Y-130441207D01*
X-298075045Y-130526639D01*
X-297941668Y-130545384D01*
X-297798920Y-130497441D01*
X-297722859Y-130440125D01*
X-298407404Y-130955967D02*
X-299009219Y-130157331D01*
X-298845563Y-130928390D01*
X-299541643Y-130558541D01*
X-298939828Y-131357177D01*
X-299738463Y-131958992D02*
X-299282100Y-131615097D01*
X-299510281Y-131787045D02*
X-300112096Y-130988409D01*
X-299950062Y-131045184D01*
X-299816686Y-131063929D01*
X-299711968Y-131044643D01*
X-300606490Y-131360961D02*
X-301138914Y-131762171D01*
X-300194826Y-132302886D01*
D14*
X-298195476Y-110571904D02*
X-297288333Y-110571904D01*
X-297106904Y-110511428D01*
X-296985952Y-110390476D01*
X-296925476Y-110209047D01*
X-296925476Y-110088095D01*
X-296925476Y-111841904D02*
X-296925476Y-111116190D01*
X-296925476Y-111479047D02*
X-298195476Y-111479047D01*
X-298014047Y-111358095D01*
X-297893095Y-111237142D01*
X-297832619Y-111116190D01*
X-296925476Y-112446666D02*
X-296925476Y-112688571D01*
X-296985952Y-112809523D01*
X-297046428Y-112870000D01*
X-297227857Y-112990952D01*
X-297469761Y-113051428D01*
X-297953571Y-113051428D01*
X-298074523Y-112990952D01*
X-298135000Y-112930476D01*
X-298195476Y-112809523D01*
X-298195476Y-112567619D01*
X-298135000Y-112446666D01*
X-298074523Y-112386190D01*
X-297953571Y-112325714D01*
X-297651190Y-112325714D01*
X-297530238Y-112386190D01*
X-297469761Y-112446666D01*
X-297409285Y-112567619D01*
X-297409285Y-112809523D01*
X-297469761Y-112930476D01*
X-297530238Y-112990952D01*
X-297651190Y-113051428D01*
D13*
X-321619047Y-61622380D02*
X-321619047Y-62336666D01*
X-321571428Y-62479523D01*
X-321476190Y-62574761D01*
X-321333333Y-62622380D01*
X-321238095Y-62622380D01*
X-322095238Y-62622380D02*
X-322095238Y-61622380D01*
X-322428571Y-62336666D01*
X-322761904Y-61622380D01*
X-322761904Y-62622380D01*
X-323761904Y-62622380D02*
X-323190476Y-62622380D01*
X-323476190Y-62622380D02*
X-323476190Y-61622380D01*
X-323380952Y-61765238D01*
X-323285714Y-61860476D01*
X-323190476Y-61908095D01*
X-324095238Y-61622380D02*
X-324714285Y-61622380D01*
X-324380952Y-62003333D01*
X-324523809Y-62003333D01*
X-324619047Y-62050952D01*
X-324666666Y-62098571D01*
X-324714285Y-62193809D01*
X-324714285Y-62431904D01*
X-324666666Y-62527142D01*
X-324619047Y-62574761D01*
X-324523809Y-62622380D01*
X-324238095Y-62622380D01*
X-324142857Y-62574761D01*
X-324095238Y-62527142D01*
X-253707331Y-113140780D02*
X-254277785Y-113570648D01*
X-254363218Y-113694652D01*
X-254381963Y-113828028D01*
X-254334020Y-113970777D01*
X-254276704Y-114046837D01*
X-254792545Y-113362293D02*
X-253993910Y-112760477D01*
X-254764969Y-112924134D01*
X-254395120Y-112228054D01*
X-255193755Y-112829869D01*
X-254968277Y-111467449D02*
X-254681698Y-111847751D01*
X-255033343Y-112172360D01*
X-255023971Y-112105672D01*
X-255043256Y-112000954D01*
X-255186545Y-111810802D01*
X-255281891Y-111763400D01*
X-255348580Y-111754027D01*
X-255453298Y-111773313D01*
X-255643449Y-111916602D01*
X-255690852Y-112011948D01*
X-255700224Y-112078636D01*
X-255680939Y-112183354D01*
X-255537650Y-112373506D01*
X-255442304Y-112420908D01*
X-255375615Y-112430281D01*
X-345165328Y-131532908D02*
X-345595195Y-132103362D01*
X-345643139Y-132246111D01*
X-345624394Y-132379487D01*
X-345538961Y-132503491D01*
X-345462900Y-132560807D01*
X-346147445Y-132044965D02*
X-345545630Y-131246330D01*
X-346241710Y-131616179D01*
X-346078054Y-130845120D01*
X-346679869Y-131643755D01*
X-347001234Y-130566832D02*
X-347402444Y-131099256D01*
X-346581820Y-130405879D02*
X-346821536Y-131119623D01*
X-347315930Y-130747071D01*
X-347599264Y-129698805D02*
X-347218962Y-129985384D01*
X-347467510Y-130394345D01*
X-347476882Y-130327656D01*
X-347524285Y-130232310D01*
X-347714436Y-130089021D01*
X-347819155Y-130069736D01*
X-347885843Y-130079108D01*
X-347981189Y-130126511D01*
X-348124478Y-130316662D01*
X-348143764Y-130421380D01*
X-348134391Y-130488069D01*
X-348086989Y-130583415D01*
X-347896837Y-130726704D01*
X-347792119Y-130745989D01*
X-347725431Y-130736617D01*
X-379245449Y-119969786D02*
X-378674995Y-120399653D01*
X-378532246Y-120447597D01*
X-378398870Y-120428852D01*
X-378274866Y-120343419D01*
X-378217550Y-120267358D01*
X-378733392Y-120951903D02*
X-379532027Y-120350088D01*
X-379162178Y-121046168D01*
X-379933237Y-120882512D01*
X-379134602Y-121484327D01*
X-380211525Y-121805692D02*
X-379679101Y-122206902D01*
X-380372478Y-121386278D02*
X-379658734Y-121625994D01*
X-380031286Y-122120388D01*
X-380735657Y-121947359D02*
X-381108209Y-122441753D01*
X-380603362Y-122404804D01*
X-380689336Y-122518894D01*
X-380708621Y-122623613D01*
X-380699249Y-122690301D01*
X-380651846Y-122785647D01*
X-380461695Y-122928936D01*
X-380356977Y-122948222D01*
X-380290288Y-122938849D01*
X-380194942Y-122891447D01*
X-380022995Y-122663265D01*
X-380003710Y-122558547D01*
X-380013082Y-122491858D01*
M02*
