M48
; DRILL file {KiCad (5.1.4)-1} date 11/5/2023 6:19:03 PM
; FORMAT={-:-/ absolute / metric / decimal}
; #@! TF.CreationDate,2023-11-05T18:19:03-05:00
; #@! TF.GenerationSoftware,Kicad,Pcbnew,(5.1.4)-1
; #@! TF.FileFunction,NonPlated,1,2,NPTH
FMAT,2
METRIC
T1C1.702
T2C2.950
T3C3.000
T4C4.950
%
G90
G05
T1
X104.112Y55.956
X112.897Y49.336
X173.558Y49.363
X182.343Y55.983
X188.732Y60.797
X197.517Y67.417
X73.764Y78.825
X82.549Y72.205
X203.906Y72.232
X212.691Y78.851
X88.938Y67.391
X97.723Y60.771
T2
X102.162Y51.541
X107.121Y46.489
X177.265Y46.271
X183.488Y49.645
X192.439Y57.705
X198.662Y61.08
X71.814Y74.41
X76.772Y69.358
X207.613Y69.14
X213.836Y72.514
X86.988Y62.975
X91.947Y57.924
T3
X112.085Y57.398
X114.755Y52.632
X174.37Y57.424
X179.687Y58.676
X189.544Y68.859
X194.861Y70.111
X81.737Y80.267
X84.406Y75.501
X204.718Y80.293
X210.035Y81.545
X96.911Y68.833
X99.58Y64.067
T4
X208.299Y75.541
X108.505Y52.646
X177.951Y52.673
X193.125Y64.107
X78.156Y75.515
X93.331Y64.081
T0
M30
