G04 #@! TF.GenerationSoftware,KiCad,Pcbnew,(5.1.4)-1*
G04 #@! TF.CreationDate,2023-11-05T18:19:01-05:00*
G04 #@! TF.ProjectId,ThumbsUp,5468756d-6273-4557-902e-6b696361645f,rev?*
G04 #@! TF.SameCoordinates,Original*
G04 #@! TF.FileFunction,Copper,L1,Top*
G04 #@! TF.FilePolarity,Positive*
%FSLAX46Y46*%
G04 Gerber Fmt 4.6, Leading zero omitted, Abs format (unit mm)*
G04 Created by KiCad (PCBNEW (5.1.4)-1) date 2023-11-05 18:19:01*
%MOMM*%
%LPD*%
G04 APERTURE LIST*
%ADD10C,3.000000*%
%ADD11C,1.700000*%
%ADD12C,1.700000*%
%ADD13C,0.100000*%
%ADD14O,1.700000X1.700000*%
%ADD15R,1.700000X1.700000*%
%ADD16C,0.800000*%
%ADD17C,0.254000*%
G04 APERTURE END LIST*
D10*
X177265211Y46270949D03*
X183487566Y49645087D03*
X102162054Y51540630D03*
X107120597Y46489358D03*
X192439286Y57705434D03*
X198661641Y61079572D03*
X207613361Y69139920D03*
X213835716Y72514058D03*
X71813905Y74409601D03*
X76772448Y69358329D03*
X86987979Y62975115D03*
X91946522Y57923843D03*
D11*
X78544397Y64615830D03*
D12*
X78544397Y64615830D02*
X78544397Y64615830D01*
D11*
X80572932Y63087220D03*
D12*
X80572932Y63087220D02*
X80572932Y63087220D01*
D11*
X82601466Y61558610D03*
D12*
X82601466Y61558610D02*
X82601466Y61558610D01*
D11*
X84630000Y60030000D03*
D13*
G36*
X84797297Y58839617D02*
G01*
X83439617Y59862703D01*
X84462703Y61220383D01*
X85820383Y60197297D01*
X84797297Y58839617D01*
X84797297Y58839617D01*
G37*
D11*
X113544170Y40944397D03*
D12*
X113544170Y40944397D02*
X113544170Y40944397D01*
D11*
X115072780Y42972932D03*
D12*
X115072780Y42972932D02*
X115072780Y42972932D01*
D11*
X116601390Y45001466D03*
D12*
X116601390Y45001466D02*
X116601390Y45001466D01*
D11*
X118130000Y47030000D03*
D13*
G36*
X119320383Y47197297D02*
G01*
X118297297Y45839617D01*
X116939617Y46862703D01*
X117962703Y48220383D01*
X119320383Y47197297D01*
X119320383Y47197297D01*
G37*
D11*
X203494397Y61294170D03*
D12*
X203494397Y61294170D02*
X203494397Y61294170D01*
D11*
X205522932Y62822780D03*
D12*
X205522932Y62822780D02*
X205522932Y62822780D01*
D11*
X207551466Y64351390D03*
D12*
X207551466Y64351390D02*
X207551466Y64351390D01*
D11*
X209580000Y65880000D03*
D13*
G36*
X210770383Y65712703D02*
G01*
X209412703Y64689617D01*
X208389617Y66047297D01*
X209747297Y67070383D01*
X210770383Y65712703D01*
X210770383Y65712703D01*
G37*
D14*
X143130000Y107910000D03*
X143130000Y110450000D03*
X143130000Y112990000D03*
D15*
X143130000Y115530000D03*
D11*
X172715830Y40944397D03*
D12*
X172715830Y40944397D02*
X172715830Y40944397D01*
D11*
X171187220Y42972932D03*
D12*
X171187220Y42972932D02*
X171187220Y42972932D01*
D11*
X169658610Y45001466D03*
D12*
X169658610Y45001466D02*
X169658610Y45001466D01*
D11*
X168130000Y47030000D03*
D13*
G36*
X168297297Y48220383D02*
G01*
X169320383Y46862703D01*
X167962703Y45839617D01*
X166939617Y47197297D01*
X168297297Y48220383D01*
X168297297Y48220383D01*
G37*
D16*
X212080000Y76730000D03*
X98705221Y58604779D03*
X179530000Y62680000D03*
X126980000Y40980000D03*
X169280000Y50230000D03*
D17*
X211680001Y76330001D02*
X212080000Y76730000D01*
X211630001Y76280001D02*
X211680001Y76330001D01*
X211630001Y70230001D02*
X211630001Y76280001D01*
X207551466Y64351390D02*
X207551466Y66151466D01*
X207551466Y66151466D02*
X211630001Y70230001D01*
X94680221Y58604779D02*
X98705221Y58604779D01*
X92705000Y60580000D02*
X94680221Y58604779D01*
X86480000Y60580000D02*
X92705000Y60580000D01*
X85130000Y61930000D02*
X86480000Y60580000D01*
X82601466Y61558610D02*
X82972856Y61930000D01*
X82972856Y61930000D02*
X85130000Y61930000D01*
X164930000Y40980000D02*
X126980000Y40980000D01*
X165130000Y41180000D02*
X164930000Y40980000D01*
X165130000Y52430000D02*
X165130000Y41180000D01*
X179530000Y62680000D02*
X175380000Y62680000D01*
X175380000Y62680000D02*
X165130000Y52430000D01*
X167080000Y50230000D02*
X169280000Y50230000D01*
X165680000Y48830000D02*
X167080000Y50230000D01*
X165680000Y40444803D02*
X165680000Y48830000D01*
X165415197Y40180000D02*
X165680000Y40444803D01*
X118130000Y47030000D02*
X124980000Y40180000D01*
X124980000Y40180000D02*
X165415197Y40180000D01*
M02*
