G04 #@! TF.GenerationSoftware,KiCad,Pcbnew,(5.1.4)-1*
G04 #@! TF.CreationDate,2023-10-04T20:40:56-04:00*
G04 #@! TF.ProjectId,ThumbsUp,5468756d-6273-4557-902e-6b696361645f,rev?*
G04 #@! TF.SameCoordinates,Original*
G04 #@! TF.FileFunction,Paste,Bot*
G04 #@! TF.FilePolarity,Positive*
%FSLAX46Y46*%
G04 Gerber Fmt 4.6, Leading zero omitted, Abs format (unit mm)*
G04 Created by KiCad (PCBNEW (5.1.4)-1) date 2023-10-04 20:40:56*
%MOMM*%
%LPD*%
G04 APERTURE LIST*
%ADD10R,1.500000X0.800000*%
%ADD11R,1.500000X0.600000*%
%ADD12C,2.000000*%
%ADD13C,0.100000*%
%ADD14C,2.500000*%
%ADD15C,2.600000*%
G04 APERTURE END LIST*
D10*
X-299200000Y-115350000D03*
X-296400000Y-115350000D03*
X-299200000Y-107850000D03*
X-296400000Y-107850000D03*
D11*
X-299200000Y-114350000D03*
X-296400000Y-113850000D03*
X-299200000Y-113350000D03*
X-296400000Y-112850000D03*
X-299200000Y-112350000D03*
X-296400000Y-111850000D03*
X-299200000Y-111350000D03*
X-296400000Y-110850000D03*
X-299200000Y-110350000D03*
X-296400000Y-109850000D03*
X-299200000Y-109350000D03*
X-296400000Y-108850000D03*
D12*
X-276906073Y-124371872D03*
D13*
G36*
X-277102893Y-125772323D02*
G01*
X-278306524Y-124175052D01*
X-276709253Y-122971421D01*
X-275505622Y-124568692D01*
X-277102893Y-125772323D01*
X-277102893Y-125772323D01*
G37*
D14*
X-264433544Y-116663531D03*
D13*
G36*
X-264699535Y-118429140D02*
G01*
X-266204073Y-116432551D01*
X-264167553Y-114897922D01*
X-262663015Y-116894511D01*
X-264699535Y-118429140D01*
X-264699535Y-118429140D01*
G37*
D15*
X-268653345Y-107948091D03*
D13*
G36*
X-268909212Y-109768677D02*
G01*
X-270473931Y-107692224D01*
X-268397478Y-106127505D01*
X-266832759Y-108203958D01*
X-268909212Y-109768677D01*
X-268909212Y-109768677D01*
G37*
D15*
X-279201579Y-113142056D03*
D13*
G36*
X-279457446Y-114962642D02*
G01*
X-281022165Y-112886189D01*
X-278945712Y-111321470D01*
X-277380993Y-113397923D01*
X-279457446Y-114962642D01*
X-279457446Y-114962642D01*
G37*
D12*
X-381996291Y-114528397D03*
D13*
G36*
X-383396742Y-114725217D02*
G01*
X-382193111Y-113127946D01*
X-380595840Y-114331577D01*
X-381799471Y-115928848D01*
X-383396742Y-114725217D01*
X-383396742Y-114725217D01*
G37*
D14*
X-371148663Y-124393054D03*
D13*
G36*
X-372919192Y-124624034D02*
G01*
X-371414654Y-122627445D01*
X-369378134Y-124162074D01*
X-370882672Y-126158663D01*
X-372919192Y-124624034D01*
X-372919192Y-124624034D01*
G37*
D15*
X-363933979Y-117934420D03*
D13*
G36*
X-365754565Y-118190287D02*
G01*
X-364189846Y-116113834D01*
X-362113393Y-117678553D01*
X-363678112Y-119755006D01*
X-365754565Y-118190287D01*
X-365754565Y-118190287D01*
G37*
D15*
X-371834226Y-109226459D03*
D13*
G36*
X-373654812Y-109482326D02*
G01*
X-372090093Y-107405873D01*
X-370013640Y-108970592D01*
X-371578359Y-111047045D01*
X-373654812Y-109482326D01*
X-373654812Y-109482326D01*
G37*
D12*
X-261731998Y-112937386D03*
D13*
G36*
X-261928818Y-114337837D02*
G01*
X-263132449Y-112740566D01*
X-261535178Y-111536935D01*
X-260331547Y-113134206D01*
X-261928818Y-114337837D01*
X-261928818Y-114337837D01*
G37*
D14*
X-249259469Y-105229045D03*
D13*
G36*
X-249525460Y-106994654D02*
G01*
X-251029998Y-104998065D01*
X-248993478Y-103463436D01*
X-247488940Y-105460025D01*
X-249525460Y-106994654D01*
X-249525460Y-106994654D01*
G37*
D15*
X-253479270Y-96513605D03*
D13*
G36*
X-253735137Y-98334191D02*
G01*
X-255299856Y-96257738D01*
X-253223403Y-94693019D01*
X-251658684Y-96769472D01*
X-253735137Y-98334191D01*
X-253735137Y-98334191D01*
G37*
D15*
X-264027504Y-101707570D03*
D13*
G36*
X-264283371Y-103528156D02*
G01*
X-265848090Y-101451703D01*
X-263771637Y-99886984D01*
X-262206918Y-101963437D01*
X-264283371Y-103528156D01*
X-264283371Y-103528156D01*
G37*
D12*
X-397170365Y-103093911D03*
D13*
G36*
X-398570816Y-103290731D02*
G01*
X-397367185Y-101693460D01*
X-395769914Y-102897091D01*
X-396973545Y-104494362D01*
X-398570816Y-103290731D01*
X-398570816Y-103290731D01*
G37*
D14*
X-386322737Y-112958568D03*
D13*
G36*
X-388093266Y-113189548D02*
G01*
X-386588728Y-111192959D01*
X-384552208Y-112727588D01*
X-386056746Y-114724177D01*
X-388093266Y-113189548D01*
X-388093266Y-113189548D01*
G37*
D15*
X-379108053Y-106499934D03*
D13*
G36*
X-380928639Y-106755801D02*
G01*
X-379363920Y-104679348D01*
X-377287467Y-106244067D01*
X-378852186Y-108320520D01*
X-380928639Y-106755801D01*
X-380928639Y-106755801D01*
G37*
D15*
X-387008300Y-97791973D03*
D13*
G36*
X-388828886Y-98047840D02*
G01*
X-387264167Y-95971387D01*
X-385187714Y-97536106D01*
X-386752433Y-99612559D01*
X-388828886Y-98047840D01*
X-388828886Y-98047840D01*
G37*
D12*
X-366822216Y-125962882D03*
D13*
G36*
X-368222667Y-126159702D02*
G01*
X-367019036Y-124562431D01*
X-365421765Y-125766062D01*
X-366625396Y-127363333D01*
X-368222667Y-126159702D01*
X-368222667Y-126159702D01*
G37*
D14*
X-355974588Y-135827539D03*
D13*
G36*
X-357745117Y-136058519D02*
G01*
X-356240579Y-134061930D01*
X-354204059Y-135596559D01*
X-355708597Y-137593148D01*
X-357745117Y-136058519D01*
X-357745117Y-136058519D01*
G37*
D15*
X-348759904Y-129368905D03*
D13*
G36*
X-350580490Y-129624772D02*
G01*
X-349015771Y-127548319D01*
X-346939318Y-129113038D01*
X-348504037Y-131189491D01*
X-350580490Y-129624772D01*
X-350580490Y-129624772D01*
G37*
D15*
X-356660151Y-120660944D03*
D13*
G36*
X-358480737Y-120916811D02*
G01*
X-356916018Y-118840358D01*
X-354839565Y-120405077D01*
X-356404284Y-122481530D01*
X-358480737Y-120916811D01*
X-358480737Y-120916811D01*
G37*
D12*
X-292080148Y-135806357D03*
D13*
G36*
X-292276968Y-137206808D02*
G01*
X-293480599Y-135609537D01*
X-291883328Y-134405906D01*
X-290679697Y-136003177D01*
X-292276968Y-137206808D01*
X-292276968Y-137206808D01*
G37*
D14*
X-279607619Y-128098016D03*
D13*
G36*
X-279873610Y-129863625D02*
G01*
X-281378148Y-127867036D01*
X-279341628Y-126332407D01*
X-277837090Y-128328996D01*
X-279873610Y-129863625D01*
X-279873610Y-129863625D01*
G37*
D15*
X-283827420Y-119382576D03*
D13*
G36*
X-284083287Y-121203162D02*
G01*
X-285648006Y-119126709D01*
X-283571553Y-117561990D01*
X-282006834Y-119638443D01*
X-284083287Y-121203162D01*
X-284083287Y-121203162D01*
G37*
D15*
X-294375654Y-124576541D03*
D13*
G36*
X-294631521Y-126397127D02*
G01*
X-296196240Y-124320674D01*
X-294119787Y-122755955D01*
X-292555068Y-124832408D01*
X-294631521Y-126397127D01*
X-294631521Y-126397127D01*
G37*
M02*
