%FSLAX45Y45*%
G04 Gerber Fmt 4.5, Leading zero omitted, Abs format (unit mm)*
G04 Created by KiCad (PCBNEW (5.1.4)-1) date 2023-11-05 18:19:02*
%MOMM*%
%LPD*%
G04 APERTURE LIST*
%ADD10C,0.050000*%
%ADD11C,0.200000*%
%ADD12C,0.300000*%
G04 APERTURE END LIST*
D10*
X22132327Y7373000D02*
X22122327Y7288000D01*
X22132327Y7373000D02*
X21202327Y8608000D01*
X22040928Y7226592D02*
X22122327Y7288000D01*
X21202327Y8608000D02*
X20975813Y8608196D01*
X6493000Y7373000D02*
X6503000Y7288000D01*
X6493000Y7373000D02*
X7423000Y8608000D01*
X14212327Y12583000D02*
X14413000Y12583000D01*
X13522327Y12583000D02*
X14212327Y12583000D01*
X13292327Y12453000D02*
X13522327Y12583000D01*
X13262327Y12383000D02*
X13292327Y12453000D01*
X13262327Y12383000D02*
X11227224Y7346058D01*
X15363000Y12383000D02*
X15333000Y12453000D01*
X15103000Y12583000D02*
X14413000Y12583000D01*
X15333000Y12453000D02*
X15103000Y12583000D01*
X11009145Y3896574D02*
X17616182Y3896574D01*
X11227224Y7346058D02*
X11005920Y7252120D01*
X7649514Y8608196D02*
X11005920Y7252120D01*
X7423000Y8608000D02*
X7649514Y8608196D01*
X6584399Y7226592D02*
X6503000Y7288000D01*
X6584399Y7226592D02*
X11009145Y3896574D01*
X17398103Y7346058D02*
X17619407Y7252120D01*
X15363000Y12383000D02*
X17398103Y7346058D01*
X20975813Y8608196D02*
X17619407Y7252120D01*
X22040928Y7226592D02*
X17616182Y3896574D01*
D11*
X9850522Y5880478D02*
X9890522Y5840478D01*
X9890522Y5880478D02*
X9850522Y5840478D01*
X12678000Y4118000D02*
X12718000Y4078000D01*
X12718000Y4118000D02*
X12678000Y4078000D01*
X16908000Y5043000D02*
X16948000Y5003000D01*
X16948000Y5043000D02*
X16908000Y5003000D01*
X17933000Y6288000D02*
X17973000Y6248000D01*
X17973000Y6288000D02*
X17933000Y6248000D01*
X21188000Y7693000D02*
X21228000Y7653000D01*
X21228000Y7693000D02*
X21188000Y7653000D01*
X14363000Y11553000D02*
G75*
G03X14363000Y11553000I-50000J0D01*
G01*
X14363000Y11299000D02*
G75*
G03X14363000Y11299000I-50000J0D01*
G01*
X14363000Y11045000D02*
G75*
G03X14363000Y11045000I-50000J0D01*
G01*
X14363000Y10791000D02*
G75*
G03X14363000Y10791000I-50000J0D01*
G01*
X11404417Y4094440D02*
G75*
G03X11404417Y4094440I-50000J0D01*
G01*
X11557278Y4297293D02*
G75*
G03X11557278Y4297293I-50000J0D01*
G01*
X11710139Y4500147D02*
G75*
G03X11710139Y4500147I-50000J0D01*
G01*
X11863000Y4703000D02*
G75*
G03X11863000Y4703000I-50000J0D01*
G01*
X16863000Y4703000D02*
G75*
G03X16863000Y4703000I-50000J0D01*
G01*
X17015861Y4500147D02*
G75*
G03X17015861Y4500147I-50000J0D01*
G01*
X17168722Y4297293D02*
G75*
G03X17168722Y4297293I-50000J0D01*
G01*
X17321583Y4094440D02*
G75*
G03X17321583Y4094440I-50000J0D01*
G01*
X20399440Y6129417D02*
G75*
G03X20399440Y6129417I-50000J0D01*
G01*
X20602293Y6282278D02*
G75*
G03X20602293Y6282278I-50000J0D01*
G01*
X20805147Y6435139D02*
G75*
G03X20805147Y6435139I-50000J0D01*
G01*
X21008000Y6588000D02*
G75*
G03X21008000Y6588000I-50000J0D01*
G01*
X7904440Y6461583D02*
G75*
G03X7904440Y6461583I-50000J0D01*
G01*
X8107293Y6308722D02*
G75*
G03X8107293Y6308722I-50000J0D01*
G01*
X8310147Y6155861D02*
G75*
G03X8310147Y6155861I-50000J0D01*
G01*
X8513000Y6003000D02*
G75*
G03X8513000Y6003000I-50000J0D01*
G01*
D12*
X6776928Y3428360D02*
X6776928Y3728360D01*
X6848357Y3728360D01*
X6891214Y3714074D01*
X6919786Y3685503D01*
X6934071Y3656931D01*
X6948357Y3599788D01*
X6948357Y3556931D01*
X6934071Y3499788D01*
X6919786Y3471217D01*
X6891214Y3442645D01*
X6848357Y3428360D01*
X6776928Y3428360D01*
X7076928Y3428360D02*
X7076928Y3628360D01*
X7076928Y3571217D02*
X7091214Y3599788D01*
X7105500Y3614074D01*
X7134071Y3628360D01*
X7162643Y3628360D01*
X7262643Y3428360D02*
X7262643Y3628360D01*
X7262643Y3728360D02*
X7248357Y3714074D01*
X7262643Y3699788D01*
X7276928Y3714074D01*
X7262643Y3728360D01*
X7262643Y3699788D01*
X7448357Y3428360D02*
X7419786Y3442645D01*
X7405500Y3471217D01*
X7405500Y3728360D01*
X7605500Y3428360D02*
X7576928Y3442645D01*
X7562643Y3471217D01*
X7562643Y3728360D01*
X7948357Y3428360D02*
X7948357Y3728360D01*
X8048357Y3514074D01*
X8148357Y3728360D01*
X8148357Y3428360D01*
X8419786Y3428360D02*
X8419786Y3585503D01*
X8405500Y3614074D01*
X8376928Y3628360D01*
X8319786Y3628360D01*
X8291214Y3614074D01*
X8419786Y3442645D02*
X8391214Y3428360D01*
X8319786Y3428360D01*
X8291214Y3442645D01*
X8276928Y3471217D01*
X8276928Y3499788D01*
X8291214Y3528360D01*
X8319786Y3542645D01*
X8391214Y3542645D01*
X8419786Y3556931D01*
X8562643Y3628360D02*
X8562643Y3328360D01*
X8562643Y3614074D02*
X8591214Y3628360D01*
X8648357Y3628360D01*
X8676928Y3614074D01*
X8691214Y3599788D01*
X8705500Y3571217D01*
X8705500Y3485503D01*
X8691214Y3456931D01*
X8676928Y3442645D01*
X8648357Y3428360D01*
X8591214Y3428360D01*
X8562643Y3442645D01*
X8834071Y3456931D02*
X8848357Y3442645D01*
X8834071Y3428360D01*
X8819786Y3442645D01*
X8834071Y3456931D01*
X8834071Y3428360D01*
X8834071Y3614074D02*
X8848357Y3599788D01*
X8834071Y3585503D01*
X8819786Y3599788D01*
X8834071Y3614074D01*
X8834071Y3585503D01*
X6450500Y2954074D02*
X6490500Y2914074D01*
X6490500Y2954074D02*
X6450500Y2914074D01*
X6834071Y3098360D02*
X6862643Y3098360D01*
X6891214Y3084074D01*
X6905500Y3069788D01*
X6919786Y3041217D01*
X6934071Y2984074D01*
X6934071Y2912645D01*
X6919786Y2855503D01*
X6905500Y2826931D01*
X6891214Y2812645D01*
X6862643Y2798360D01*
X6834071Y2798360D01*
X6805500Y2812645D01*
X6791214Y2826931D01*
X6776928Y2855503D01*
X6762643Y2912645D01*
X6762643Y2984074D01*
X6776928Y3041217D01*
X6791214Y3069788D01*
X6805500Y3084074D01*
X6834071Y3098360D01*
X7062643Y2826931D02*
X7076928Y2812645D01*
X7062643Y2798360D01*
X7048357Y2812645D01*
X7062643Y2826931D01*
X7062643Y2798360D01*
X7334071Y2998360D02*
X7334071Y2798360D01*
X7262643Y3112645D02*
X7191214Y2898360D01*
X7376928Y2898360D01*
X7548357Y3098360D02*
X7576928Y3098360D01*
X7605500Y3084074D01*
X7619786Y3069788D01*
X7634071Y3041217D01*
X7648357Y2984074D01*
X7648357Y2912645D01*
X7634071Y2855503D01*
X7619786Y2826931D01*
X7605500Y2812645D01*
X7576928Y2798360D01*
X7548357Y2798360D01*
X7519786Y2812645D01*
X7505500Y2826931D01*
X7491214Y2855503D01*
X7476928Y2912645D01*
X7476928Y2984074D01*
X7491214Y3041217D01*
X7505500Y3069788D01*
X7519786Y3084074D01*
X7548357Y3098360D01*
X7776928Y2798360D02*
X7776928Y2998360D01*
X7776928Y2969788D02*
X7791214Y2984074D01*
X7819786Y2998360D01*
X7862643Y2998360D01*
X7891214Y2984074D01*
X7905500Y2955503D01*
X7905500Y2798360D01*
X7905500Y2955503D02*
X7919786Y2984074D01*
X7948357Y2998360D01*
X7991214Y2998360D01*
X8019786Y2984074D01*
X8034071Y2955503D01*
X8034071Y2798360D01*
X8176928Y2798360D02*
X8176928Y2998360D01*
X8176928Y2969788D02*
X8191214Y2984074D01*
X8219786Y2998360D01*
X8262643Y2998360D01*
X8291214Y2984074D01*
X8305500Y2955503D01*
X8305500Y2798360D01*
X8305500Y2955503D02*
X8319786Y2984074D01*
X8348357Y2998360D01*
X8391214Y2998360D01*
X8419786Y2984074D01*
X8434071Y2955503D01*
X8434071Y2798360D01*
X9019786Y3112645D02*
X8762643Y2726931D01*
X9405500Y3098360D02*
X9434071Y3098360D01*
X9462643Y3084074D01*
X9476928Y3069788D01*
X9491214Y3041217D01*
X9505500Y2984074D01*
X9505500Y2912645D01*
X9491214Y2855503D01*
X9476928Y2826931D01*
X9462643Y2812645D01*
X9434071Y2798360D01*
X9405500Y2798360D01*
X9376928Y2812645D01*
X9362643Y2826931D01*
X9348357Y2855503D01*
X9334071Y2912645D01*
X9334071Y2984074D01*
X9348357Y3041217D01*
X9362643Y3069788D01*
X9376928Y3084074D01*
X9405500Y3098360D01*
X9634071Y2826931D02*
X9648357Y2812645D01*
X9634071Y2798360D01*
X9619786Y2812645D01*
X9634071Y2826931D01*
X9634071Y2798360D01*
X9834071Y3098360D02*
X9862643Y3098360D01*
X9891214Y3084074D01*
X9905500Y3069788D01*
X9919786Y3041217D01*
X9934071Y2984074D01*
X9934071Y2912645D01*
X9919786Y2855503D01*
X9905500Y2826931D01*
X9891214Y2812645D01*
X9862643Y2798360D01*
X9834071Y2798360D01*
X9805500Y2812645D01*
X9791214Y2826931D01*
X9776928Y2855503D01*
X9762643Y2912645D01*
X9762643Y2984074D01*
X9776928Y3041217D01*
X9791214Y3069788D01*
X9805500Y3084074D01*
X9834071Y3098360D01*
X10219786Y2798360D02*
X10048357Y2798360D01*
X10134071Y2798360D02*
X10134071Y3098360D01*
X10105500Y3055503D01*
X10076928Y3026931D01*
X10048357Y3012645D01*
X10476928Y3098360D02*
X10419786Y3098360D01*
X10391214Y3084074D01*
X10376928Y3069788D01*
X10348357Y3026931D01*
X10334071Y2969788D01*
X10334071Y2855503D01*
X10348357Y2826931D01*
X10362643Y2812645D01*
X10391214Y2798360D01*
X10448357Y2798360D01*
X10476928Y2812645D01*
X10491214Y2826931D01*
X10505500Y2855503D01*
X10505500Y2926931D01*
X10491214Y2955503D01*
X10476928Y2969788D01*
X10448357Y2984074D01*
X10391214Y2984074D01*
X10362643Y2969788D01*
X10348357Y2955503D01*
X10334071Y2926931D01*
X10619786Y3098360D02*
X10619786Y3041217D01*
X10734071Y3098360D02*
X10734071Y3041217D01*
X11176928Y2684074D02*
X11162643Y2698360D01*
X11134071Y2741217D01*
X11119786Y2769788D01*
X11105500Y2812645D01*
X11091214Y2884074D01*
X11091214Y2941217D01*
X11105500Y3012645D01*
X11119786Y3055503D01*
X11134071Y3084074D01*
X11162643Y3126931D01*
X11176928Y3141217D01*
X11434071Y3098360D02*
X11291214Y3098360D01*
X11276928Y2955503D01*
X11291214Y2969788D01*
X11319786Y2984074D01*
X11391214Y2984074D01*
X11419786Y2969788D01*
X11434071Y2955503D01*
X11448357Y2926931D01*
X11448357Y2855503D01*
X11434071Y2826931D01*
X11419786Y2812645D01*
X11391214Y2798360D01*
X11319786Y2798360D01*
X11291214Y2812645D01*
X11276928Y2826931D01*
X11805500Y2798360D02*
X11805500Y3098360D01*
X11934071Y2798360D02*
X11934071Y2955503D01*
X11919786Y2984074D01*
X11891214Y2998360D01*
X11848357Y2998360D01*
X11819786Y2984074D01*
X11805500Y2969788D01*
X12119786Y2798360D02*
X12091214Y2812645D01*
X12076928Y2826931D01*
X12062643Y2855503D01*
X12062643Y2941217D01*
X12076928Y2969788D01*
X12091214Y2984074D01*
X12119786Y2998360D01*
X12162643Y2998360D01*
X12191214Y2984074D01*
X12205500Y2969788D01*
X12219786Y2941217D01*
X12219786Y2855503D01*
X12205500Y2826931D01*
X12191214Y2812645D01*
X12162643Y2798360D01*
X12119786Y2798360D01*
X12391214Y2798360D02*
X12362643Y2812645D01*
X12348357Y2841217D01*
X12348357Y3098360D01*
X12619786Y2812645D02*
X12591214Y2798360D01*
X12534071Y2798360D01*
X12505500Y2812645D01*
X12491214Y2841217D01*
X12491214Y2955503D01*
X12505500Y2984074D01*
X12534071Y2998360D01*
X12591214Y2998360D01*
X12619786Y2984074D01*
X12634071Y2955503D01*
X12634071Y2926931D01*
X12491214Y2898360D01*
X12748357Y2812645D02*
X12776928Y2798360D01*
X12834071Y2798360D01*
X12862643Y2812645D01*
X12876928Y2841217D01*
X12876928Y2855503D01*
X12862643Y2884074D01*
X12834071Y2898360D01*
X12791214Y2898360D01*
X12762643Y2912645D01*
X12748357Y2941217D01*
X12748357Y2955503D01*
X12762643Y2984074D01*
X12791214Y2998360D01*
X12834071Y2998360D01*
X12862643Y2984074D01*
X12976928Y2684074D02*
X12991214Y2698360D01*
X13019786Y2741217D01*
X13034071Y2769788D01*
X13048357Y2812645D01*
X13062643Y2884074D01*
X13062643Y2941217D01*
X13048357Y3012645D01*
X13034071Y3055503D01*
X13019786Y3084074D01*
X12991214Y3126931D01*
X12976928Y3141217D01*
X6490500Y2538074D02*
G75*
G03X6490500Y2538074I-50000J0D01*
G01*
X6934071Y2402360D02*
X6762643Y2402360D01*
X6848357Y2402360D02*
X6848357Y2702360D01*
X6819786Y2659503D01*
X6791214Y2630931D01*
X6762643Y2616646D01*
X7062643Y2430931D02*
X7076928Y2416646D01*
X7062643Y2402360D01*
X7048357Y2416646D01*
X7062643Y2430931D01*
X7062643Y2402360D01*
X7262643Y2702360D02*
X7291214Y2702360D01*
X7319786Y2688074D01*
X7334071Y2673788D01*
X7348357Y2645217D01*
X7362643Y2588074D01*
X7362643Y2516646D01*
X7348357Y2459503D01*
X7334071Y2430931D01*
X7319786Y2416646D01*
X7291214Y2402360D01*
X7262643Y2402360D01*
X7234071Y2416646D01*
X7219786Y2430931D01*
X7205500Y2459503D01*
X7191214Y2516646D01*
X7191214Y2588074D01*
X7205500Y2645217D01*
X7219786Y2673788D01*
X7234071Y2688074D01*
X7262643Y2702360D01*
X7548357Y2702360D02*
X7576928Y2702360D01*
X7605500Y2688074D01*
X7619786Y2673788D01*
X7634071Y2645217D01*
X7648357Y2588074D01*
X7648357Y2516646D01*
X7634071Y2459503D01*
X7619786Y2430931D01*
X7605500Y2416646D01*
X7576928Y2402360D01*
X7548357Y2402360D01*
X7519786Y2416646D01*
X7505500Y2430931D01*
X7491214Y2459503D01*
X7476928Y2516646D01*
X7476928Y2588074D01*
X7491214Y2645217D01*
X7505500Y2673788D01*
X7519786Y2688074D01*
X7548357Y2702360D01*
X7776928Y2402360D02*
X7776928Y2602360D01*
X7776928Y2573788D02*
X7791214Y2588074D01*
X7819786Y2602360D01*
X7862643Y2602360D01*
X7891214Y2588074D01*
X7905500Y2559503D01*
X7905500Y2402360D01*
X7905500Y2559503D02*
X7919786Y2588074D01*
X7948357Y2602360D01*
X7991214Y2602360D01*
X8019786Y2588074D01*
X8034071Y2559503D01*
X8034071Y2402360D01*
X8176928Y2402360D02*
X8176928Y2602360D01*
X8176928Y2573788D02*
X8191214Y2588074D01*
X8219786Y2602360D01*
X8262643Y2602360D01*
X8291214Y2588074D01*
X8305500Y2559503D01*
X8305500Y2402360D01*
X8305500Y2559503D02*
X8319786Y2588074D01*
X8348357Y2602360D01*
X8391214Y2602360D01*
X8419786Y2588074D01*
X8434071Y2559503D01*
X8434071Y2402360D01*
X9019786Y2716646D02*
X8762643Y2330931D01*
X9405500Y2702360D02*
X9434071Y2702360D01*
X9462643Y2688074D01*
X9476928Y2673788D01*
X9491214Y2645217D01*
X9505500Y2588074D01*
X9505500Y2516646D01*
X9491214Y2459503D01*
X9476928Y2430931D01*
X9462643Y2416646D01*
X9434071Y2402360D01*
X9405500Y2402360D01*
X9376928Y2416646D01*
X9362643Y2430931D01*
X9348357Y2459503D01*
X9334071Y2516646D01*
X9334071Y2588074D01*
X9348357Y2645217D01*
X9362643Y2673788D01*
X9376928Y2688074D01*
X9405500Y2702360D01*
X9634071Y2430931D02*
X9648357Y2416646D01*
X9634071Y2402360D01*
X9619786Y2416646D01*
X9634071Y2430931D01*
X9634071Y2402360D01*
X9834071Y2702360D02*
X9862643Y2702360D01*
X9891214Y2688074D01*
X9905500Y2673788D01*
X9919786Y2645217D01*
X9934071Y2588074D01*
X9934071Y2516646D01*
X9919786Y2459503D01*
X9905500Y2430931D01*
X9891214Y2416646D01*
X9862643Y2402360D01*
X9834071Y2402360D01*
X9805500Y2416646D01*
X9791214Y2430931D01*
X9776928Y2459503D01*
X9762643Y2516646D01*
X9762643Y2588074D01*
X9776928Y2645217D01*
X9791214Y2673788D01*
X9805500Y2688074D01*
X9834071Y2702360D01*
X10034071Y2702360D02*
X10219786Y2702360D01*
X10119786Y2588074D01*
X10162643Y2588074D01*
X10191214Y2573788D01*
X10205500Y2559503D01*
X10219786Y2530931D01*
X10219786Y2459503D01*
X10205500Y2430931D01*
X10191214Y2416646D01*
X10162643Y2402360D01*
X10076928Y2402360D01*
X10048357Y2416646D01*
X10034071Y2430931D01*
X10362643Y2402360D02*
X10419786Y2402360D01*
X10448357Y2416646D01*
X10462643Y2430931D01*
X10491214Y2473788D01*
X10505500Y2530931D01*
X10505500Y2645217D01*
X10491214Y2673788D01*
X10476928Y2688074D01*
X10448357Y2702360D01*
X10391214Y2702360D01*
X10362643Y2688074D01*
X10348357Y2673788D01*
X10334071Y2645217D01*
X10334071Y2573788D01*
X10348357Y2545217D01*
X10362643Y2530931D01*
X10391214Y2516646D01*
X10448357Y2516646D01*
X10476928Y2530931D01*
X10491214Y2545217D01*
X10505500Y2573788D01*
X10619786Y2702360D02*
X10619786Y2645217D01*
X10734071Y2702360D02*
X10734071Y2645217D01*
X11176928Y2288074D02*
X11162643Y2302360D01*
X11134071Y2345217D01*
X11119786Y2373788D01*
X11105500Y2416646D01*
X11091214Y2488074D01*
X11091214Y2545217D01*
X11105500Y2616646D01*
X11119786Y2659503D01*
X11134071Y2688074D01*
X11162643Y2730931D01*
X11176928Y2745217D01*
X11276928Y2673788D02*
X11291214Y2688074D01*
X11319786Y2702360D01*
X11391214Y2702360D01*
X11419786Y2688074D01*
X11434071Y2673788D01*
X11448357Y2645217D01*
X11448357Y2616646D01*
X11434071Y2573788D01*
X11262643Y2402360D01*
X11448357Y2402360D01*
X11634071Y2702360D02*
X11662643Y2702360D01*
X11691214Y2688074D01*
X11705500Y2673788D01*
X11719786Y2645217D01*
X11734071Y2588074D01*
X11734071Y2516646D01*
X11719786Y2459503D01*
X11705500Y2430931D01*
X11691214Y2416646D01*
X11662643Y2402360D01*
X11634071Y2402360D01*
X11605500Y2416646D01*
X11591214Y2430931D01*
X11576928Y2459503D01*
X11562643Y2516646D01*
X11562643Y2588074D01*
X11576928Y2645217D01*
X11591214Y2673788D01*
X11605500Y2688074D01*
X11634071Y2702360D01*
X12091214Y2402360D02*
X12091214Y2702360D01*
X12219786Y2402360D02*
X12219786Y2559503D01*
X12205500Y2588074D01*
X12176928Y2602360D01*
X12134071Y2602360D01*
X12105500Y2588074D01*
X12091214Y2573788D01*
X12405500Y2402360D02*
X12376928Y2416646D01*
X12362643Y2430931D01*
X12348357Y2459503D01*
X12348357Y2545217D01*
X12362643Y2573788D01*
X12376928Y2588074D01*
X12405500Y2602360D01*
X12448357Y2602360D01*
X12476928Y2588074D01*
X12491214Y2573788D01*
X12505500Y2545217D01*
X12505500Y2459503D01*
X12491214Y2430931D01*
X12476928Y2416646D01*
X12448357Y2402360D01*
X12405500Y2402360D01*
X12676928Y2402360D02*
X12648357Y2416646D01*
X12634071Y2445217D01*
X12634071Y2702360D01*
X12905500Y2416646D02*
X12876928Y2402360D01*
X12819786Y2402360D01*
X12791214Y2416646D01*
X12776928Y2445217D01*
X12776928Y2559503D01*
X12791214Y2588074D01*
X12819786Y2602360D01*
X12876928Y2602360D01*
X12905500Y2588074D01*
X12919786Y2559503D01*
X12919786Y2530931D01*
X12776928Y2502360D01*
X13034071Y2416646D02*
X13062643Y2402360D01*
X13119786Y2402360D01*
X13148357Y2416646D01*
X13162643Y2445217D01*
X13162643Y2459503D01*
X13148357Y2488074D01*
X13119786Y2502360D01*
X13076928Y2502360D01*
X13048357Y2516646D01*
X13034071Y2545217D01*
X13034071Y2559503D01*
X13048357Y2588074D01*
X13076928Y2602360D01*
X13119786Y2602360D01*
X13148357Y2588074D01*
X13262643Y2288074D02*
X13276928Y2302360D01*
X13305500Y2345217D01*
X13319786Y2373788D01*
X13334071Y2416646D01*
X13348357Y2488074D01*
X13348357Y2545217D01*
X13334071Y2616646D01*
X13319786Y2659503D01*
X13305500Y2688074D01*
X13276928Y2730931D01*
X13262643Y2745217D01*
M02*
