M48
; DRILL file {KiCad (5.1.4)-1} date 10/4/2023 8:40:59 PM
; FORMAT={-:-/ absolute / metric / decimal}
; #@! TF.CreationDate,2023-10-04T20:40:59-04:00
; #@! TF.GenerationSoftware,Kicad,Pcbnew,(5.1.4)-1
; #@! TF.FileFunction,Plated,1,2,PTH
FMAT,2
METRIC
T1C0.400
T2C1.000
%
G90
G05
T1
X-367.425Y-121.425
X-339.15Y-139.05
X-296.85Y-129.8
X-286.6Y-117.35
X-254.05Y-103.3
T2
X-298.0Y-133.0
X-296.471Y-135.029
X-294.943Y-137.057
X-293.414Y-139.086
X-352.586Y-139.086
X-351.057Y-137.057
X-349.529Y-135.029
X-348.0Y-133.0
X-387.586Y-115.414
X-385.557Y-116.943
X-383.529Y-118.471
X-381.5Y-120.0
X-323.0Y-64.5
X-323.0Y-67.04
X-323.0Y-69.58
X-323.0Y-72.12
X-262.636Y-118.736
X-260.607Y-117.207
X-258.579Y-115.679
X-256.55Y-114.15
T0
M30
