G04 #@! TF.GenerationSoftware,KiCad,Pcbnew,(5.1.4)-1*
G04 #@! TF.CreationDate,2023-11-05T18:19:01-05:00*
G04 #@! TF.ProjectId,ThumbsUp,5468756d-6273-4557-902e-6b696361645f,rev?*
G04 #@! TF.SameCoordinates,Original*
G04 #@! TF.FileFunction,Profile,NP*
%FSLAX46Y46*%
G04 Gerber Fmt 4.6, Leading zero omitted, Abs format (unit mm)*
G04 Created by KiCad (PCBNEW (5.1.4)-1) date 2023-11-05 18:19:01*
%MOMM*%
%LPD*%
G04 APERTURE LIST*
%ADD10C,0.050000*%
G04 APERTURE END LIST*
D10*
X221323268Y73730000D02*
X221223268Y72880000D01*
X221323268Y73730000D02*
X212023268Y86080000D01*
X220409281Y72265924D02*
X221223268Y72880000D01*
X212023268Y86080000D02*
X209758126Y86081962D01*
X64930000Y73730000D02*
X65030000Y72880000D01*
X64930000Y73730000D02*
X74230000Y86080000D01*
X142123268Y125830000D02*
X144130000Y125830000D01*
X135223268Y125830000D02*
X142123268Y125830000D01*
X132923268Y124530000D02*
X135223268Y125830000D01*
X132623268Y123830000D02*
X132923268Y124530000D01*
X132623268Y123830000D02*
X112272241Y73460584D01*
X153630000Y123830000D02*
X153330000Y124530000D01*
X151030000Y125830000D02*
X144130000Y125830000D01*
X153330000Y124530000D02*
X151030000Y125830000D01*
X110091449Y38965742D02*
X176161819Y38965742D01*
X112272241Y73460584D02*
X110059197Y72521203D01*
X76495142Y86081962D02*
X110059197Y72521203D01*
X74230000Y86080000D02*
X76495142Y86081962D01*
X65843987Y72265924D02*
X65030000Y72880000D01*
X65843987Y72265924D02*
X110091449Y38965742D01*
X173981027Y73460584D02*
X176194071Y72521203D01*
X153630000Y123830000D02*
X173981027Y73460584D01*
X209758126Y86081962D02*
X176194071Y72521203D01*
X220409281Y72265924D02*
X176161819Y38965742D01*
M02*
