%FSLAX45Y45*%
G04 Gerber Fmt 4.5, Leading zero omitted, Abs format (unit mm)*
G04 Created by KiCad (PCBNEW (5.1.4)-1) date 2023-10-04 20:40:59*
%MOMM*%
%LPD*%
G04 APERTURE LIST*
%ADD10C,0.050000*%
%ADD11C,0.200000*%
%ADD12C,0.300000*%
G04 APERTURE END LIST*
D10*
X-35603855Y-14106426D02*
X-28996818Y-14106426D01*
X-24572072Y-10776408D02*
X-28996818Y-14106426D01*
X-25637187Y-9394804D02*
X-28993593Y-10750880D01*
X-31250000Y-5620000D02*
X-29214897Y-10656942D01*
X-29214897Y-10656942D02*
X-28993593Y-10750880D01*
X-40028601Y-10776408D02*
X-35603855Y-14106426D01*
X-38963486Y-9394804D02*
X-35607080Y-10750880D01*
X-39190000Y-9395000D02*
X-38963486Y-9394804D01*
X-40028601Y-10776408D02*
X-40110000Y-10715000D01*
X-35385776Y-10656942D02*
X-35607080Y-10750880D01*
X-33350673Y-5620000D02*
X-33320673Y-5550000D01*
X-33320673Y-5550000D02*
X-33090673Y-5420000D01*
X-31250000Y-5620000D02*
X-31280000Y-5550000D01*
X-33090673Y-5420000D02*
X-32400673Y-5420000D01*
X-32400673Y-5420000D02*
X-32200000Y-5420000D01*
X-33350673Y-5620000D02*
X-35385776Y-10656942D01*
X-31280000Y-5550000D02*
X-31510000Y-5420000D01*
X-31510000Y-5420000D02*
X-32200000Y-5420000D01*
X-24572072Y-10776408D02*
X-24490673Y-10715000D01*
X-24480673Y-10630000D02*
X-24490673Y-10715000D01*
X-24480673Y-10630000D02*
X-25410673Y-9395000D01*
X-40120000Y-10630000D02*
X-39190000Y-9395000D01*
X-25410673Y-9395000D02*
X-25637187Y-9394804D01*
X-40120000Y-10630000D02*
X-40110000Y-10715000D01*
D11*
X-28463773Y-12319659D02*
X-28293593Y-12489839D01*
X-28293593Y-12319659D02*
X-28463773Y-12489839D01*
X-39321696Y-10035392D02*
X-39151516Y-10205572D01*
X-39151516Y-10035392D02*
X-39321696Y-10205572D01*
X-27824864Y-11838208D02*
X-27654684Y-12008388D01*
X-27654684Y-11838208D02*
X-27824864Y-12008388D01*
X-26946365Y-11176211D02*
X-26776185Y-11346391D01*
X-26776185Y-11176211D02*
X-26946365Y-11346391D01*
X-26307457Y-10694759D02*
X-26137277Y-10864939D01*
X-26137277Y-10694759D02*
X-26307457Y-10864939D01*
X-25428958Y-10032762D02*
X-25258778Y-10202942D01*
X-25258778Y-10032762D02*
X-25428958Y-10202942D01*
X-36286881Y-12322289D02*
X-36116701Y-12492469D01*
X-36116701Y-12322289D02*
X-36286881Y-12492469D01*
X-35408382Y-12984285D02*
X-35238202Y-13154465D01*
X-35238202Y-12984285D02*
X-35408382Y-13154465D01*
X-29342272Y-12981656D02*
X-29172092Y-13151836D01*
X-29172092Y-12981656D02*
X-29342272Y-13151836D01*
X-38443197Y-10697388D02*
X-38273017Y-10867568D01*
X-38273017Y-10697388D02*
X-38443197Y-10867568D01*
X-37804289Y-11178840D02*
X-37634109Y-11349020D01*
X-37634109Y-11178840D02*
X-37804289Y-11349020D01*
X-36925790Y-11840837D02*
X-36755610Y-12011017D01*
X-36755610Y-11840837D02*
X-36925790Y-12011017D01*
X-36255199Y-12806923D02*
G75*
G03X-36255199Y-12806923I-147500J0D01*
G01*
X-35753440Y-13354064D02*
G75*
G03X-35753440Y-13354064I-147500J0D01*
G01*
X-28780992Y-13370000D02*
G75*
G03X-28780992Y-13370000I-147500J0D01*
G01*
X-28116743Y-13038491D02*
G75*
G03X-28116743Y-13038491I-147500J0D01*
G01*
X-39290014Y-10520026D02*
G75*
G03X-39290014Y-10520026I-147500J0D01*
G01*
X-38788255Y-11067167D02*
G75*
G03X-38788255Y-11067167I-147500J0D01*
G01*
X-37772607Y-11663475D02*
G75*
G03X-37772607Y-11663475I-147500J0D01*
G01*
X-37270848Y-12210616D02*
G75*
G03X-37270848Y-12210616I-147500J0D01*
G01*
X-27263585Y-12226552D02*
G75*
G03X-27263585Y-12226552I-147500J0D01*
G01*
X-26599336Y-11895043D02*
G75*
G03X-26599336Y-11895043I-147500J0D01*
G01*
X-25746177Y-11083103D02*
G75*
G03X-25746177Y-11083103I-147500J0D01*
G01*
X-25081928Y-10751594D02*
G75*
G03X-25081928Y-10751594I-147500J0D01*
G01*
X-35404462Y-12113189D02*
X-35404462Y-12413189D01*
X-35554462Y-12263189D02*
X-35254462Y-12263189D01*
X-35137544Y-12589796D02*
X-35137544Y-12889796D01*
X-35287544Y-12739796D02*
X-34987544Y-12739796D01*
X-29176012Y-12110560D02*
X-29176012Y-12410560D01*
X-29326012Y-12260560D02*
X-29026012Y-12260560D01*
X-28644295Y-11985352D02*
X-28644295Y-12285352D01*
X-28794295Y-12135352D02*
X-28494295Y-12135352D01*
X-38439277Y-9826292D02*
X-38439277Y-10126292D01*
X-38589277Y-9976292D02*
X-38289277Y-9976292D01*
X-38172358Y-10302899D02*
X-38172358Y-10602899D01*
X-38322358Y-10452899D02*
X-38022358Y-10452899D01*
X-36921870Y-10969740D02*
X-36921870Y-11269740D01*
X-37071870Y-11119740D02*
X-36771870Y-11119740D01*
X-36654951Y-11446348D02*
X-36654951Y-11746348D01*
X-36804951Y-11596348D02*
X-36504951Y-11596348D01*
X-27658605Y-10967111D02*
X-27658605Y-11267111D01*
X-27808605Y-11117111D02*
X-27508605Y-11117111D01*
X-27126888Y-10841904D02*
X-27126888Y-11141904D01*
X-27276888Y-10991904D02*
X-26976888Y-10991904D01*
X-26141197Y-9823663D02*
X-26141197Y-10123663D01*
X-26291197Y-9973663D02*
X-25991197Y-9973663D01*
X-25609480Y-9698455D02*
X-25609480Y-9998455D01*
X-25759480Y-9848455D02*
X-25459480Y-9848455D01*
X-25604571Y-10627397D02*
X-25604571Y-10270305D01*
X-25961663Y-10270305D01*
X-25961663Y-10627397D01*
X-25604571Y-10627397D01*
X-35583996Y-12916923D02*
X-35583996Y-12559831D01*
X-35941088Y-12559831D01*
X-35941088Y-12916923D01*
X-35583996Y-12916923D01*
X-38618811Y-10630026D02*
X-38618811Y-10272934D01*
X-38975903Y-10272934D01*
X-38975903Y-10630026D01*
X-38618811Y-10630026D01*
X-37101403Y-11773475D02*
X-37101403Y-11416382D01*
X-37458496Y-11416382D01*
X-37458496Y-11773475D01*
X-37101403Y-11773475D01*
X-27121979Y-11770845D02*
X-27121979Y-11413753D01*
X-27479071Y-11413753D01*
X-27479071Y-11770845D01*
X-27121979Y-11770845D01*
X-28639386Y-12914294D02*
X-28639386Y-12557202D01*
X-28996478Y-12557202D01*
X-28996478Y-12914294D01*
X-28639386Y-12914294D01*
D12*
X-39836072Y-14574640D02*
X-39836072Y-14274640D01*
X-39764643Y-14274640D01*
X-39721786Y-14288926D01*
X-39693214Y-14317497D01*
X-39678929Y-14346069D01*
X-39664643Y-14403212D01*
X-39664643Y-14446069D01*
X-39678929Y-14503212D01*
X-39693214Y-14531783D01*
X-39721786Y-14560354D01*
X-39764643Y-14574640D01*
X-39836072Y-14574640D01*
X-39536072Y-14574640D02*
X-39536072Y-14374640D01*
X-39536072Y-14431783D02*
X-39521786Y-14403212D01*
X-39507500Y-14388926D01*
X-39478929Y-14374640D01*
X-39450357Y-14374640D01*
X-39350357Y-14574640D02*
X-39350357Y-14374640D01*
X-39350357Y-14274640D02*
X-39364643Y-14288926D01*
X-39350357Y-14303212D01*
X-39336072Y-14288926D01*
X-39350357Y-14274640D01*
X-39350357Y-14303212D01*
X-39164643Y-14574640D02*
X-39193214Y-14560354D01*
X-39207500Y-14531783D01*
X-39207500Y-14274640D01*
X-39007500Y-14574640D02*
X-39036072Y-14560354D01*
X-39050357Y-14531783D01*
X-39050357Y-14274640D01*
X-38664643Y-14574640D02*
X-38664643Y-14274640D01*
X-38564643Y-14488926D01*
X-38464643Y-14274640D01*
X-38464643Y-14574640D01*
X-38193214Y-14574640D02*
X-38193214Y-14417497D01*
X-38207500Y-14388926D01*
X-38236072Y-14374640D01*
X-38293214Y-14374640D01*
X-38321786Y-14388926D01*
X-38193214Y-14560354D02*
X-38221786Y-14574640D01*
X-38293214Y-14574640D01*
X-38321786Y-14560354D01*
X-38336072Y-14531783D01*
X-38336072Y-14503212D01*
X-38321786Y-14474640D01*
X-38293214Y-14460354D01*
X-38221786Y-14460354D01*
X-38193214Y-14446069D01*
X-38050357Y-14374640D02*
X-38050357Y-14674640D01*
X-38050357Y-14388926D02*
X-38021786Y-14374640D01*
X-37964643Y-14374640D01*
X-37936072Y-14388926D01*
X-37921786Y-14403212D01*
X-37907500Y-14431783D01*
X-37907500Y-14517497D01*
X-37921786Y-14546069D01*
X-37936072Y-14560354D01*
X-37964643Y-14574640D01*
X-38021786Y-14574640D01*
X-38050357Y-14560354D01*
X-37778929Y-14546069D02*
X-37764643Y-14560354D01*
X-37778929Y-14574640D01*
X-37793214Y-14560354D01*
X-37778929Y-14546069D01*
X-37778929Y-14574640D01*
X-37778929Y-14388926D02*
X-37764643Y-14403212D01*
X-37778929Y-14417497D01*
X-37793214Y-14403212D01*
X-37778929Y-14388926D01*
X-37778929Y-14417497D01*
X-40292680Y-14983836D02*
X-40122500Y-15154016D01*
X-40122500Y-14983836D02*
X-40292680Y-15154016D01*
X-39678929Y-15204640D02*
X-39850357Y-15204640D01*
X-39764643Y-15204640D02*
X-39764643Y-14904640D01*
X-39793214Y-14947497D01*
X-39821786Y-14976069D01*
X-39850357Y-14990354D01*
X-39550357Y-15176069D02*
X-39536072Y-15190354D01*
X-39550357Y-15204640D01*
X-39564643Y-15190354D01*
X-39550357Y-15176069D01*
X-39550357Y-15204640D01*
X-39436072Y-14904640D02*
X-39236072Y-14904640D01*
X-39364643Y-15204640D01*
X-39064643Y-14904640D02*
X-39036072Y-14904640D01*
X-39007500Y-14918926D01*
X-38993214Y-14933212D01*
X-38978929Y-14961783D01*
X-38964643Y-15018926D01*
X-38964643Y-15090354D01*
X-38978929Y-15147497D01*
X-38993214Y-15176069D01*
X-39007500Y-15190354D01*
X-39036072Y-15204640D01*
X-39064643Y-15204640D01*
X-39093214Y-15190354D01*
X-39107500Y-15176069D01*
X-39121786Y-15147497D01*
X-39136072Y-15090354D01*
X-39136072Y-15018926D01*
X-39121786Y-14961783D01*
X-39107500Y-14933212D01*
X-39093214Y-14918926D01*
X-39064643Y-14904640D01*
X-38836072Y-15204640D02*
X-38836072Y-15004640D01*
X-38836072Y-15033212D02*
X-38821786Y-15018926D01*
X-38793214Y-15004640D01*
X-38750357Y-15004640D01*
X-38721786Y-15018926D01*
X-38707500Y-15047497D01*
X-38707500Y-15204640D01*
X-38707500Y-15047497D02*
X-38693214Y-15018926D01*
X-38664643Y-15004640D01*
X-38621786Y-15004640D01*
X-38593214Y-15018926D01*
X-38578929Y-15047497D01*
X-38578929Y-15204640D01*
X-38436072Y-15204640D02*
X-38436072Y-15004640D01*
X-38436072Y-15033212D02*
X-38421786Y-15018926D01*
X-38393214Y-15004640D01*
X-38350357Y-15004640D01*
X-38321786Y-15018926D01*
X-38307500Y-15047497D01*
X-38307500Y-15204640D01*
X-38307500Y-15047497D02*
X-38293214Y-15018926D01*
X-38264643Y-15004640D01*
X-38221786Y-15004640D01*
X-38193214Y-15018926D01*
X-38178929Y-15047497D01*
X-38178929Y-15204640D01*
X-37593214Y-14890354D02*
X-37850357Y-15276069D01*
X-37207500Y-14904640D02*
X-37178929Y-14904640D01*
X-37150357Y-14918926D01*
X-37136072Y-14933212D01*
X-37121786Y-14961783D01*
X-37107500Y-15018926D01*
X-37107500Y-15090354D01*
X-37121786Y-15147497D01*
X-37136072Y-15176069D01*
X-37150357Y-15190354D01*
X-37178929Y-15204640D01*
X-37207500Y-15204640D01*
X-37236072Y-15190354D01*
X-37250357Y-15176069D01*
X-37264643Y-15147497D01*
X-37278929Y-15090354D01*
X-37278929Y-15018926D01*
X-37264643Y-14961783D01*
X-37250357Y-14933212D01*
X-37236072Y-14918926D01*
X-37207500Y-14904640D01*
X-36978929Y-15176069D02*
X-36964643Y-15190354D01*
X-36978929Y-15204640D01*
X-36993214Y-15190354D01*
X-36978929Y-15176069D01*
X-36978929Y-15204640D01*
X-36778929Y-14904640D02*
X-36750357Y-14904640D01*
X-36721786Y-14918926D01*
X-36707500Y-14933212D01*
X-36693214Y-14961783D01*
X-36678929Y-15018926D01*
X-36678929Y-15090354D01*
X-36693214Y-15147497D01*
X-36707500Y-15176069D01*
X-36721786Y-15190354D01*
X-36750357Y-15204640D01*
X-36778929Y-15204640D01*
X-36807500Y-15190354D01*
X-36821786Y-15176069D01*
X-36836072Y-15147497D01*
X-36850357Y-15090354D01*
X-36850357Y-15018926D01*
X-36836072Y-14961783D01*
X-36821786Y-14933212D01*
X-36807500Y-14918926D01*
X-36778929Y-14904640D01*
X-36421786Y-14904640D02*
X-36478929Y-14904640D01*
X-36507500Y-14918926D01*
X-36521786Y-14933212D01*
X-36550357Y-14976069D01*
X-36564643Y-15033212D01*
X-36564643Y-15147497D01*
X-36550357Y-15176069D01*
X-36536072Y-15190354D01*
X-36507500Y-15204640D01*
X-36450357Y-15204640D01*
X-36421786Y-15190354D01*
X-36407500Y-15176069D01*
X-36393214Y-15147497D01*
X-36393214Y-15076069D01*
X-36407500Y-15047497D01*
X-36421786Y-15033212D01*
X-36450357Y-15018926D01*
X-36507500Y-15018926D01*
X-36536072Y-15033212D01*
X-36550357Y-15047497D01*
X-36564643Y-15076069D01*
X-36293214Y-14904640D02*
X-36093214Y-14904640D01*
X-36221786Y-15204640D01*
X-35993214Y-14904640D02*
X-35993214Y-14961783D01*
X-35878929Y-14904640D02*
X-35878929Y-14961783D01*
X-35436072Y-15318926D02*
X-35450357Y-15304640D01*
X-35478929Y-15261783D01*
X-35493214Y-15233212D01*
X-35507500Y-15190354D01*
X-35521786Y-15118926D01*
X-35521786Y-15061783D01*
X-35507500Y-14990354D01*
X-35493214Y-14947497D01*
X-35478929Y-14918926D01*
X-35450357Y-14876069D01*
X-35436072Y-14861783D01*
X-35164643Y-15204640D02*
X-35336072Y-15204640D01*
X-35250357Y-15204640D02*
X-35250357Y-14904640D01*
X-35278929Y-14947497D01*
X-35307500Y-14976069D01*
X-35336072Y-14990354D01*
X-35050357Y-14933212D02*
X-35036072Y-14918926D01*
X-35007500Y-14904640D01*
X-34936072Y-14904640D01*
X-34907500Y-14918926D01*
X-34893214Y-14933212D01*
X-34878929Y-14961783D01*
X-34878929Y-14990354D01*
X-34893214Y-15033212D01*
X-35064643Y-15204640D01*
X-34878929Y-15204640D01*
X-34521786Y-15204640D02*
X-34521786Y-14904640D01*
X-34393214Y-15204640D02*
X-34393214Y-15047497D01*
X-34407500Y-15018926D01*
X-34436072Y-15004640D01*
X-34478929Y-15004640D01*
X-34507500Y-15018926D01*
X-34521786Y-15033212D01*
X-34207500Y-15204640D02*
X-34236072Y-15190354D01*
X-34250357Y-15176069D01*
X-34264643Y-15147497D01*
X-34264643Y-15061783D01*
X-34250357Y-15033212D01*
X-34236072Y-15018926D01*
X-34207500Y-15004640D01*
X-34164643Y-15004640D01*
X-34136072Y-15018926D01*
X-34121786Y-15033212D01*
X-34107500Y-15061783D01*
X-34107500Y-15147497D01*
X-34121786Y-15176069D01*
X-34136072Y-15190354D01*
X-34164643Y-15204640D01*
X-34207500Y-15204640D01*
X-33936072Y-15204640D02*
X-33964643Y-15190354D01*
X-33978929Y-15161783D01*
X-33978929Y-14904640D01*
X-33707500Y-15190354D02*
X-33736072Y-15204640D01*
X-33793214Y-15204640D01*
X-33821786Y-15190354D01*
X-33836072Y-15161783D01*
X-33836072Y-15047497D01*
X-33821786Y-15018926D01*
X-33793214Y-15004640D01*
X-33736072Y-15004640D01*
X-33707500Y-15018926D01*
X-33693214Y-15047497D01*
X-33693214Y-15076069D01*
X-33836072Y-15104640D01*
X-33578929Y-15190354D02*
X-33550357Y-15204640D01*
X-33493214Y-15204640D01*
X-33464643Y-15190354D01*
X-33450357Y-15161783D01*
X-33450357Y-15147497D01*
X-33464643Y-15118926D01*
X-33493214Y-15104640D01*
X-33536071Y-15104640D01*
X-33564643Y-15090354D01*
X-33578929Y-15061783D01*
X-33578929Y-15047497D01*
X-33564643Y-15018926D01*
X-33536071Y-15004640D01*
X-33493214Y-15004640D01*
X-33464643Y-15018926D01*
X-33350357Y-15318926D02*
X-33336071Y-15304640D01*
X-33307500Y-15261783D01*
X-33293214Y-15233212D01*
X-33278929Y-15190354D01*
X-33264643Y-15118926D01*
X-33264643Y-15061783D01*
X-33278929Y-14990354D01*
X-33293214Y-14947497D01*
X-33307500Y-14918926D01*
X-33336071Y-14876069D01*
X-33350357Y-14861783D01*
X-32807500Y-15318926D02*
X-32821786Y-15304640D01*
X-32850357Y-15261783D01*
X-32864643Y-15233212D01*
X-32878929Y-15190354D01*
X-32893214Y-15118926D01*
X-32893214Y-15061783D01*
X-32878929Y-14990354D01*
X-32864643Y-14947497D01*
X-32850357Y-14918926D01*
X-32821786Y-14876069D01*
X-32807500Y-14861783D01*
X-32693214Y-15004640D02*
X-32693214Y-15204640D01*
X-32693214Y-15033212D02*
X-32678929Y-15018926D01*
X-32650357Y-15004640D01*
X-32607500Y-15004640D01*
X-32578929Y-15018926D01*
X-32564643Y-15047497D01*
X-32564643Y-15204640D01*
X-32378929Y-15204640D02*
X-32407500Y-15190354D01*
X-32421786Y-15176069D01*
X-32436071Y-15147497D01*
X-32436071Y-15061783D01*
X-32421786Y-15033212D01*
X-32407500Y-15018926D01*
X-32378929Y-15004640D01*
X-32336071Y-15004640D01*
X-32307500Y-15018926D01*
X-32293214Y-15033212D01*
X-32278929Y-15061783D01*
X-32278929Y-15147497D01*
X-32293214Y-15176069D01*
X-32307500Y-15190354D01*
X-32336071Y-15204640D01*
X-32378929Y-15204640D01*
X-32193214Y-15004640D02*
X-32078929Y-15004640D01*
X-32150357Y-14904640D02*
X-32150357Y-15161783D01*
X-32136071Y-15190354D01*
X-32107500Y-15204640D01*
X-32078929Y-15204640D01*
X-31750357Y-15004640D02*
X-31750357Y-15304640D01*
X-31750357Y-15018926D02*
X-31721786Y-15004640D01*
X-31664643Y-15004640D01*
X-31636071Y-15018926D01*
X-31621786Y-15033212D01*
X-31607500Y-15061783D01*
X-31607500Y-15147497D01*
X-31621786Y-15176069D01*
X-31636071Y-15190354D01*
X-31664643Y-15204640D01*
X-31721786Y-15204640D01*
X-31750357Y-15190354D01*
X-31436071Y-15204640D02*
X-31464643Y-15190354D01*
X-31478929Y-15161783D01*
X-31478929Y-14904640D01*
X-31193214Y-15204640D02*
X-31193214Y-15047497D01*
X-31207500Y-15018926D01*
X-31236071Y-15004640D01*
X-31293214Y-15004640D01*
X-31321786Y-15018926D01*
X-31193214Y-15190354D02*
X-31221786Y-15204640D01*
X-31293214Y-15204640D01*
X-31321786Y-15190354D01*
X-31336071Y-15161783D01*
X-31336071Y-15133212D01*
X-31321786Y-15104640D01*
X-31293214Y-15090354D01*
X-31221786Y-15090354D01*
X-31193214Y-15076069D01*
X-31093214Y-15004640D02*
X-30978929Y-15004640D01*
X-31050357Y-14904640D02*
X-31050357Y-15161783D01*
X-31036071Y-15190354D01*
X-31007500Y-15204640D01*
X-30978929Y-15204640D01*
X-30764643Y-15190354D02*
X-30793214Y-15204640D01*
X-30850357Y-15204640D01*
X-30878929Y-15190354D01*
X-30893214Y-15161783D01*
X-30893214Y-15047497D01*
X-30878929Y-15018926D01*
X-30850357Y-15004640D01*
X-30793214Y-15004640D01*
X-30764643Y-15018926D01*
X-30750357Y-15047497D01*
X-30750357Y-15076069D01*
X-30893214Y-15104640D01*
X-30493214Y-15204640D02*
X-30493214Y-14904640D01*
X-30493214Y-15190354D02*
X-30521786Y-15204640D01*
X-30578929Y-15204640D01*
X-30607500Y-15190354D01*
X-30621786Y-15176069D01*
X-30636071Y-15147497D01*
X-30636071Y-15061783D01*
X-30621786Y-15033212D01*
X-30607500Y-15018926D01*
X-30578929Y-15004640D01*
X-30521786Y-15004640D01*
X-30493214Y-15018926D01*
X-30378929Y-15318926D02*
X-30364643Y-15304640D01*
X-30336071Y-15261783D01*
X-30321786Y-15233212D01*
X-30307500Y-15190354D01*
X-30293214Y-15118926D01*
X-30293214Y-15061783D01*
X-30307500Y-14990354D01*
X-30321786Y-14947497D01*
X-30336071Y-14918926D01*
X-30364643Y-14876069D01*
X-30378929Y-14861783D01*
X-40122500Y-15464926D02*
G75*
G03X-40122500Y-15464926I-147500J0D01*
G01*
X-39850357Y-15329212D02*
X-39836072Y-15314926D01*
X-39807500Y-15300640D01*
X-39736072Y-15300640D01*
X-39707500Y-15314926D01*
X-39693214Y-15329212D01*
X-39678929Y-15357783D01*
X-39678929Y-15386354D01*
X-39693214Y-15429212D01*
X-39864643Y-15600640D01*
X-39678929Y-15600640D01*
X-39550357Y-15572069D02*
X-39536072Y-15586354D01*
X-39550357Y-15600640D01*
X-39564643Y-15586354D01*
X-39550357Y-15572069D01*
X-39550357Y-15600640D01*
X-39393214Y-15600640D02*
X-39336072Y-15600640D01*
X-39307500Y-15586354D01*
X-39293214Y-15572069D01*
X-39264643Y-15529212D01*
X-39250357Y-15472069D01*
X-39250357Y-15357783D01*
X-39264643Y-15329212D01*
X-39278929Y-15314926D01*
X-39307500Y-15300640D01*
X-39364643Y-15300640D01*
X-39393214Y-15314926D01*
X-39407500Y-15329212D01*
X-39421786Y-15357783D01*
X-39421786Y-15429212D01*
X-39407500Y-15457783D01*
X-39393214Y-15472069D01*
X-39364643Y-15486354D01*
X-39307500Y-15486354D01*
X-39278929Y-15472069D01*
X-39264643Y-15457783D01*
X-39250357Y-15429212D01*
X-38978929Y-15300640D02*
X-39121786Y-15300640D01*
X-39136072Y-15443497D01*
X-39121786Y-15429212D01*
X-39093214Y-15414926D01*
X-39021786Y-15414926D01*
X-38993214Y-15429212D01*
X-38978929Y-15443497D01*
X-38964643Y-15472069D01*
X-38964643Y-15543497D01*
X-38978929Y-15572069D01*
X-38993214Y-15586354D01*
X-39021786Y-15600640D01*
X-39093214Y-15600640D01*
X-39121786Y-15586354D01*
X-39136072Y-15572069D01*
X-38836072Y-15600640D02*
X-38836072Y-15400640D01*
X-38836072Y-15429212D02*
X-38821786Y-15414926D01*
X-38793214Y-15400640D01*
X-38750357Y-15400640D01*
X-38721786Y-15414926D01*
X-38707500Y-15443497D01*
X-38707500Y-15600640D01*
X-38707500Y-15443497D02*
X-38693214Y-15414926D01*
X-38664643Y-15400640D01*
X-38621786Y-15400640D01*
X-38593214Y-15414926D01*
X-38578929Y-15443497D01*
X-38578929Y-15600640D01*
X-38436072Y-15600640D02*
X-38436072Y-15400640D01*
X-38436072Y-15429212D02*
X-38421786Y-15414926D01*
X-38393214Y-15400640D01*
X-38350357Y-15400640D01*
X-38321786Y-15414926D01*
X-38307500Y-15443497D01*
X-38307500Y-15600640D01*
X-38307500Y-15443497D02*
X-38293214Y-15414926D01*
X-38264643Y-15400640D01*
X-38221786Y-15400640D01*
X-38193214Y-15414926D01*
X-38178929Y-15443497D01*
X-38178929Y-15600640D01*
X-37593214Y-15286354D02*
X-37850357Y-15672069D01*
X-37207500Y-15300640D02*
X-37178929Y-15300640D01*
X-37150357Y-15314926D01*
X-37136072Y-15329212D01*
X-37121786Y-15357783D01*
X-37107500Y-15414926D01*
X-37107500Y-15486354D01*
X-37121786Y-15543497D01*
X-37136072Y-15572069D01*
X-37150357Y-15586354D01*
X-37178929Y-15600640D01*
X-37207500Y-15600640D01*
X-37236072Y-15586354D01*
X-37250357Y-15572069D01*
X-37264643Y-15543497D01*
X-37278929Y-15486354D01*
X-37278929Y-15414926D01*
X-37264643Y-15357783D01*
X-37250357Y-15329212D01*
X-37236072Y-15314926D01*
X-37207500Y-15300640D01*
X-36978929Y-15572069D02*
X-36964643Y-15586354D01*
X-36978929Y-15600640D01*
X-36993214Y-15586354D01*
X-36978929Y-15572069D01*
X-36978929Y-15600640D01*
X-36678929Y-15600640D02*
X-36850357Y-15600640D01*
X-36764643Y-15600640D02*
X-36764643Y-15300640D01*
X-36793214Y-15343497D01*
X-36821786Y-15372069D01*
X-36850357Y-15386354D01*
X-36393214Y-15600640D02*
X-36564643Y-15600640D01*
X-36478929Y-15600640D02*
X-36478929Y-15300640D01*
X-36507500Y-15343497D01*
X-36536072Y-15372069D01*
X-36564643Y-15386354D01*
X-36136072Y-15300640D02*
X-36193214Y-15300640D01*
X-36221786Y-15314926D01*
X-36236072Y-15329212D01*
X-36264643Y-15372069D01*
X-36278929Y-15429212D01*
X-36278929Y-15543497D01*
X-36264643Y-15572069D01*
X-36250357Y-15586354D01*
X-36221786Y-15600640D01*
X-36164643Y-15600640D01*
X-36136072Y-15586354D01*
X-36121786Y-15572069D01*
X-36107500Y-15543497D01*
X-36107500Y-15472069D01*
X-36121786Y-15443497D01*
X-36136072Y-15429212D01*
X-36164643Y-15414926D01*
X-36221786Y-15414926D01*
X-36250357Y-15429212D01*
X-36264643Y-15443497D01*
X-36278929Y-15472069D01*
X-35993214Y-15300640D02*
X-35993214Y-15357783D01*
X-35878929Y-15300640D02*
X-35878929Y-15357783D01*
X-35436072Y-15714926D02*
X-35450357Y-15700640D01*
X-35478929Y-15657783D01*
X-35493214Y-15629212D01*
X-35507500Y-15586354D01*
X-35521786Y-15514926D01*
X-35521786Y-15457783D01*
X-35507500Y-15386354D01*
X-35493214Y-15343497D01*
X-35478929Y-15314926D01*
X-35450357Y-15272069D01*
X-35436072Y-15257783D01*
X-35164643Y-15600640D02*
X-35336072Y-15600640D01*
X-35250357Y-15600640D02*
X-35250357Y-15300640D01*
X-35278929Y-15343497D01*
X-35307500Y-15372069D01*
X-35336072Y-15386354D01*
X-35050357Y-15329212D02*
X-35036072Y-15314926D01*
X-35007500Y-15300640D01*
X-34936072Y-15300640D01*
X-34907500Y-15314926D01*
X-34893214Y-15329212D01*
X-34878929Y-15357783D01*
X-34878929Y-15386354D01*
X-34893214Y-15429212D01*
X-35064643Y-15600640D01*
X-34878929Y-15600640D01*
X-34521786Y-15600640D02*
X-34521786Y-15300640D01*
X-34393214Y-15600640D02*
X-34393214Y-15443497D01*
X-34407500Y-15414926D01*
X-34436072Y-15400640D01*
X-34478929Y-15400640D01*
X-34507500Y-15414926D01*
X-34521786Y-15429212D01*
X-34207500Y-15600640D02*
X-34236072Y-15586354D01*
X-34250357Y-15572069D01*
X-34264643Y-15543497D01*
X-34264643Y-15457783D01*
X-34250357Y-15429212D01*
X-34236072Y-15414926D01*
X-34207500Y-15400640D01*
X-34164643Y-15400640D01*
X-34136072Y-15414926D01*
X-34121786Y-15429212D01*
X-34107500Y-15457783D01*
X-34107500Y-15543497D01*
X-34121786Y-15572069D01*
X-34136072Y-15586354D01*
X-34164643Y-15600640D01*
X-34207500Y-15600640D01*
X-33936072Y-15600640D02*
X-33964643Y-15586354D01*
X-33978929Y-15557783D01*
X-33978929Y-15300640D01*
X-33707500Y-15586354D02*
X-33736072Y-15600640D01*
X-33793214Y-15600640D01*
X-33821786Y-15586354D01*
X-33836072Y-15557783D01*
X-33836072Y-15443497D01*
X-33821786Y-15414926D01*
X-33793214Y-15400640D01*
X-33736072Y-15400640D01*
X-33707500Y-15414926D01*
X-33693214Y-15443497D01*
X-33693214Y-15472069D01*
X-33836072Y-15500640D01*
X-33578929Y-15586354D02*
X-33550357Y-15600640D01*
X-33493214Y-15600640D01*
X-33464643Y-15586354D01*
X-33450357Y-15557783D01*
X-33450357Y-15543497D01*
X-33464643Y-15514926D01*
X-33493214Y-15500640D01*
X-33536071Y-15500640D01*
X-33564643Y-15486354D01*
X-33578929Y-15457783D01*
X-33578929Y-15443497D01*
X-33564643Y-15414926D01*
X-33536071Y-15400640D01*
X-33493214Y-15400640D01*
X-33464643Y-15414926D01*
X-33350357Y-15714926D02*
X-33336071Y-15700640D01*
X-33307500Y-15657783D01*
X-33293214Y-15629212D01*
X-33278929Y-15586354D01*
X-33264643Y-15514926D01*
X-33264643Y-15457783D01*
X-33278929Y-15386354D01*
X-33293214Y-15343497D01*
X-33307500Y-15314926D01*
X-33336071Y-15272069D01*
X-33350357Y-15257783D01*
X-32807500Y-15714926D02*
X-32821786Y-15700640D01*
X-32850357Y-15657783D01*
X-32864643Y-15629212D01*
X-32878929Y-15586354D01*
X-32893214Y-15514926D01*
X-32893214Y-15457783D01*
X-32878929Y-15386354D01*
X-32864643Y-15343497D01*
X-32850357Y-15314926D01*
X-32821786Y-15272069D01*
X-32807500Y-15257783D01*
X-32693214Y-15400640D02*
X-32693214Y-15600640D01*
X-32693214Y-15429212D02*
X-32678929Y-15414926D01*
X-32650357Y-15400640D01*
X-32607500Y-15400640D01*
X-32578929Y-15414926D01*
X-32564643Y-15443497D01*
X-32564643Y-15600640D01*
X-32378929Y-15600640D02*
X-32407500Y-15586354D01*
X-32421786Y-15572069D01*
X-32436071Y-15543497D01*
X-32436071Y-15457783D01*
X-32421786Y-15429212D01*
X-32407500Y-15414926D01*
X-32378929Y-15400640D01*
X-32336071Y-15400640D01*
X-32307500Y-15414926D01*
X-32293214Y-15429212D01*
X-32278929Y-15457783D01*
X-32278929Y-15543497D01*
X-32293214Y-15572069D01*
X-32307500Y-15586354D01*
X-32336071Y-15600640D01*
X-32378929Y-15600640D01*
X-32193214Y-15400640D02*
X-32078929Y-15400640D01*
X-32150357Y-15300640D02*
X-32150357Y-15557783D01*
X-32136071Y-15586354D01*
X-32107500Y-15600640D01*
X-32078929Y-15600640D01*
X-31750357Y-15400640D02*
X-31750357Y-15700640D01*
X-31750357Y-15414926D02*
X-31721786Y-15400640D01*
X-31664643Y-15400640D01*
X-31636071Y-15414926D01*
X-31621786Y-15429212D01*
X-31607500Y-15457783D01*
X-31607500Y-15543497D01*
X-31621786Y-15572069D01*
X-31636071Y-15586354D01*
X-31664643Y-15600640D01*
X-31721786Y-15600640D01*
X-31750357Y-15586354D01*
X-31436071Y-15600640D02*
X-31464643Y-15586354D01*
X-31478929Y-15557783D01*
X-31478929Y-15300640D01*
X-31193214Y-15600640D02*
X-31193214Y-15443497D01*
X-31207500Y-15414926D01*
X-31236071Y-15400640D01*
X-31293214Y-15400640D01*
X-31321786Y-15414926D01*
X-31193214Y-15586354D02*
X-31221786Y-15600640D01*
X-31293214Y-15600640D01*
X-31321786Y-15586354D01*
X-31336071Y-15557783D01*
X-31336071Y-15529212D01*
X-31321786Y-15500640D01*
X-31293214Y-15486354D01*
X-31221786Y-15486354D01*
X-31193214Y-15472069D01*
X-31093214Y-15400640D02*
X-30978929Y-15400640D01*
X-31050357Y-15300640D02*
X-31050357Y-15557783D01*
X-31036071Y-15586354D01*
X-31007500Y-15600640D01*
X-30978929Y-15600640D01*
X-30764643Y-15586354D02*
X-30793214Y-15600640D01*
X-30850357Y-15600640D01*
X-30878929Y-15586354D01*
X-30893214Y-15557783D01*
X-30893214Y-15443497D01*
X-30878929Y-15414926D01*
X-30850357Y-15400640D01*
X-30793214Y-15400640D01*
X-30764643Y-15414926D01*
X-30750357Y-15443497D01*
X-30750357Y-15472069D01*
X-30893214Y-15500640D01*
X-30493214Y-15600640D02*
X-30493214Y-15300640D01*
X-30493214Y-15586354D02*
X-30521786Y-15600640D01*
X-30578929Y-15600640D01*
X-30607500Y-15586354D01*
X-30621786Y-15572069D01*
X-30636071Y-15543497D01*
X-30636071Y-15457783D01*
X-30621786Y-15429212D01*
X-30607500Y-15414926D01*
X-30578929Y-15400640D01*
X-30521786Y-15400640D01*
X-30493214Y-15414926D01*
X-30378929Y-15714926D02*
X-30364643Y-15700640D01*
X-30336071Y-15657783D01*
X-30321786Y-15629212D01*
X-30307500Y-15586354D01*
X-30293214Y-15514926D01*
X-30293214Y-15457783D01*
X-30307500Y-15386354D01*
X-30321786Y-15343497D01*
X-30336071Y-15314926D01*
X-30364643Y-15272069D01*
X-30378929Y-15257783D01*
X-40272500Y-15739926D02*
X-40272500Y-16039926D01*
X-40422500Y-15889926D02*
X-40122500Y-15889926D01*
X-39864643Y-15725640D02*
X-39678929Y-15725640D01*
X-39778929Y-15839926D01*
X-39736072Y-15839926D01*
X-39707500Y-15854212D01*
X-39693214Y-15868497D01*
X-39678929Y-15897069D01*
X-39678929Y-15968497D01*
X-39693214Y-15997069D01*
X-39707500Y-16011354D01*
X-39736072Y-16025640D01*
X-39821786Y-16025640D01*
X-39850357Y-16011354D01*
X-39864643Y-15997069D01*
X-39550357Y-15997069D02*
X-39536072Y-16011354D01*
X-39550357Y-16025640D01*
X-39564643Y-16011354D01*
X-39550357Y-15997069D01*
X-39550357Y-16025640D01*
X-39350357Y-15725640D02*
X-39321786Y-15725640D01*
X-39293214Y-15739926D01*
X-39278929Y-15754212D01*
X-39264643Y-15782783D01*
X-39250357Y-15839926D01*
X-39250357Y-15911354D01*
X-39264643Y-15968497D01*
X-39278929Y-15997069D01*
X-39293214Y-16011354D01*
X-39321786Y-16025640D01*
X-39350357Y-16025640D01*
X-39378929Y-16011354D01*
X-39393214Y-15997069D01*
X-39407500Y-15968497D01*
X-39421786Y-15911354D01*
X-39421786Y-15839926D01*
X-39407500Y-15782783D01*
X-39393214Y-15754212D01*
X-39378929Y-15739926D01*
X-39350357Y-15725640D01*
X-39064643Y-15725640D02*
X-39036072Y-15725640D01*
X-39007500Y-15739926D01*
X-38993214Y-15754212D01*
X-38978929Y-15782783D01*
X-38964643Y-15839926D01*
X-38964643Y-15911354D01*
X-38978929Y-15968497D01*
X-38993214Y-15997069D01*
X-39007500Y-16011354D01*
X-39036072Y-16025640D01*
X-39064643Y-16025640D01*
X-39093214Y-16011354D01*
X-39107500Y-15997069D01*
X-39121786Y-15968497D01*
X-39136072Y-15911354D01*
X-39136072Y-15839926D01*
X-39121786Y-15782783D01*
X-39107500Y-15754212D01*
X-39093214Y-15739926D01*
X-39064643Y-15725640D01*
X-38836072Y-16025640D02*
X-38836072Y-15825640D01*
X-38836072Y-15854212D02*
X-38821786Y-15839926D01*
X-38793214Y-15825640D01*
X-38750357Y-15825640D01*
X-38721786Y-15839926D01*
X-38707500Y-15868497D01*
X-38707500Y-16025640D01*
X-38707500Y-15868497D02*
X-38693214Y-15839926D01*
X-38664643Y-15825640D01*
X-38621786Y-15825640D01*
X-38593214Y-15839926D01*
X-38578929Y-15868497D01*
X-38578929Y-16025640D01*
X-38436072Y-16025640D02*
X-38436072Y-15825640D01*
X-38436072Y-15854212D02*
X-38421786Y-15839926D01*
X-38393214Y-15825640D01*
X-38350357Y-15825640D01*
X-38321786Y-15839926D01*
X-38307500Y-15868497D01*
X-38307500Y-16025640D01*
X-38307500Y-15868497D02*
X-38293214Y-15839926D01*
X-38264643Y-15825640D01*
X-38221786Y-15825640D01*
X-38193214Y-15839926D01*
X-38178929Y-15868497D01*
X-38178929Y-16025640D01*
X-37593214Y-15711354D02*
X-37850357Y-16097069D01*
X-37207500Y-15725640D02*
X-37178929Y-15725640D01*
X-37150357Y-15739926D01*
X-37136072Y-15754212D01*
X-37121786Y-15782783D01*
X-37107500Y-15839926D01*
X-37107500Y-15911354D01*
X-37121786Y-15968497D01*
X-37136072Y-15997069D01*
X-37150357Y-16011354D01*
X-37178929Y-16025640D01*
X-37207500Y-16025640D01*
X-37236072Y-16011354D01*
X-37250357Y-15997069D01*
X-37264643Y-15968497D01*
X-37278929Y-15911354D01*
X-37278929Y-15839926D01*
X-37264643Y-15782783D01*
X-37250357Y-15754212D01*
X-37236072Y-15739926D01*
X-37207500Y-15725640D01*
X-36978929Y-15997069D02*
X-36964643Y-16011354D01*
X-36978929Y-16025640D01*
X-36993214Y-16011354D01*
X-36978929Y-15997069D01*
X-36978929Y-16025640D01*
X-36678929Y-16025640D02*
X-36850357Y-16025640D01*
X-36764643Y-16025640D02*
X-36764643Y-15725640D01*
X-36793214Y-15768497D01*
X-36821786Y-15797069D01*
X-36850357Y-15811354D01*
X-36393214Y-16025640D02*
X-36564643Y-16025640D01*
X-36478929Y-16025640D02*
X-36478929Y-15725640D01*
X-36507500Y-15768497D01*
X-36536072Y-15797069D01*
X-36564643Y-15811354D01*
X-36221786Y-15854212D02*
X-36250357Y-15839926D01*
X-36264643Y-15825640D01*
X-36278929Y-15797069D01*
X-36278929Y-15782783D01*
X-36264643Y-15754212D01*
X-36250357Y-15739926D01*
X-36221786Y-15725640D01*
X-36164643Y-15725640D01*
X-36136072Y-15739926D01*
X-36121786Y-15754212D01*
X-36107500Y-15782783D01*
X-36107500Y-15797069D01*
X-36121786Y-15825640D01*
X-36136072Y-15839926D01*
X-36164643Y-15854212D01*
X-36221786Y-15854212D01*
X-36250357Y-15868497D01*
X-36264643Y-15882783D01*
X-36278929Y-15911354D01*
X-36278929Y-15968497D01*
X-36264643Y-15997069D01*
X-36250357Y-16011354D01*
X-36221786Y-16025640D01*
X-36164643Y-16025640D01*
X-36136072Y-16011354D01*
X-36121786Y-15997069D01*
X-36107500Y-15968497D01*
X-36107500Y-15911354D01*
X-36121786Y-15882783D01*
X-36136072Y-15868497D01*
X-36164643Y-15854212D01*
X-35993214Y-15725640D02*
X-35993214Y-15782783D01*
X-35878929Y-15725640D02*
X-35878929Y-15782783D01*
X-35436072Y-16139926D02*
X-35450357Y-16125640D01*
X-35478929Y-16082783D01*
X-35493214Y-16054212D01*
X-35507500Y-16011354D01*
X-35521786Y-15939926D01*
X-35521786Y-15882783D01*
X-35507500Y-15811354D01*
X-35493214Y-15768497D01*
X-35478929Y-15739926D01*
X-35450357Y-15697069D01*
X-35436072Y-15682783D01*
X-35164643Y-16025640D02*
X-35336072Y-16025640D01*
X-35250357Y-16025640D02*
X-35250357Y-15725640D01*
X-35278929Y-15768497D01*
X-35307500Y-15797069D01*
X-35336072Y-15811354D01*
X-35050357Y-15754212D02*
X-35036072Y-15739926D01*
X-35007500Y-15725640D01*
X-34936072Y-15725640D01*
X-34907500Y-15739926D01*
X-34893214Y-15754212D01*
X-34878929Y-15782783D01*
X-34878929Y-15811354D01*
X-34893214Y-15854212D01*
X-35064643Y-16025640D01*
X-34878929Y-16025640D01*
X-34521786Y-16025640D02*
X-34521786Y-15725640D01*
X-34393214Y-16025640D02*
X-34393214Y-15868497D01*
X-34407500Y-15839926D01*
X-34436072Y-15825640D01*
X-34478929Y-15825640D01*
X-34507500Y-15839926D01*
X-34521786Y-15854212D01*
X-34207500Y-16025640D02*
X-34236072Y-16011354D01*
X-34250357Y-15997069D01*
X-34264643Y-15968497D01*
X-34264643Y-15882783D01*
X-34250357Y-15854212D01*
X-34236072Y-15839926D01*
X-34207500Y-15825640D01*
X-34164643Y-15825640D01*
X-34136072Y-15839926D01*
X-34121786Y-15854212D01*
X-34107500Y-15882783D01*
X-34107500Y-15968497D01*
X-34121786Y-15997069D01*
X-34136072Y-16011354D01*
X-34164643Y-16025640D01*
X-34207500Y-16025640D01*
X-33936072Y-16025640D02*
X-33964643Y-16011354D01*
X-33978929Y-15982783D01*
X-33978929Y-15725640D01*
X-33707500Y-16011354D02*
X-33736072Y-16025640D01*
X-33793214Y-16025640D01*
X-33821786Y-16011354D01*
X-33836072Y-15982783D01*
X-33836072Y-15868497D01*
X-33821786Y-15839926D01*
X-33793214Y-15825640D01*
X-33736072Y-15825640D01*
X-33707500Y-15839926D01*
X-33693214Y-15868497D01*
X-33693214Y-15897069D01*
X-33836072Y-15925640D01*
X-33578929Y-16011354D02*
X-33550357Y-16025640D01*
X-33493214Y-16025640D01*
X-33464643Y-16011354D01*
X-33450357Y-15982783D01*
X-33450357Y-15968497D01*
X-33464643Y-15939926D01*
X-33493214Y-15925640D01*
X-33536071Y-15925640D01*
X-33564643Y-15911354D01*
X-33578929Y-15882783D01*
X-33578929Y-15868497D01*
X-33564643Y-15839926D01*
X-33536071Y-15825640D01*
X-33493214Y-15825640D01*
X-33464643Y-15839926D01*
X-33350357Y-16139926D02*
X-33336071Y-16125640D01*
X-33307500Y-16082783D01*
X-33293214Y-16054212D01*
X-33278929Y-16011354D01*
X-33264643Y-15939926D01*
X-33264643Y-15882783D01*
X-33278929Y-15811354D01*
X-33293214Y-15768497D01*
X-33307500Y-15739926D01*
X-33336071Y-15697069D01*
X-33350357Y-15682783D01*
X-32807500Y-16139926D02*
X-32821786Y-16125640D01*
X-32850357Y-16082783D01*
X-32864643Y-16054212D01*
X-32878929Y-16011354D01*
X-32893214Y-15939926D01*
X-32893214Y-15882783D01*
X-32878929Y-15811354D01*
X-32864643Y-15768497D01*
X-32850357Y-15739926D01*
X-32821786Y-15697069D01*
X-32807500Y-15682783D01*
X-32693214Y-15825640D02*
X-32693214Y-16025640D01*
X-32693214Y-15854212D02*
X-32678929Y-15839926D01*
X-32650357Y-15825640D01*
X-32607500Y-15825640D01*
X-32578929Y-15839926D01*
X-32564643Y-15868497D01*
X-32564643Y-16025640D01*
X-32378929Y-16025640D02*
X-32407500Y-16011354D01*
X-32421786Y-15997069D01*
X-32436071Y-15968497D01*
X-32436071Y-15882783D01*
X-32421786Y-15854212D01*
X-32407500Y-15839926D01*
X-32378929Y-15825640D01*
X-32336071Y-15825640D01*
X-32307500Y-15839926D01*
X-32293214Y-15854212D01*
X-32278929Y-15882783D01*
X-32278929Y-15968497D01*
X-32293214Y-15997069D01*
X-32307500Y-16011354D01*
X-32336071Y-16025640D01*
X-32378929Y-16025640D01*
X-32193214Y-15825640D02*
X-32078929Y-15825640D01*
X-32150357Y-15725640D02*
X-32150357Y-15982783D01*
X-32136071Y-16011354D01*
X-32107500Y-16025640D01*
X-32078929Y-16025640D01*
X-31750357Y-15825640D02*
X-31750357Y-16125640D01*
X-31750357Y-15839926D02*
X-31721786Y-15825640D01*
X-31664643Y-15825640D01*
X-31636071Y-15839926D01*
X-31621786Y-15854212D01*
X-31607500Y-15882783D01*
X-31607500Y-15968497D01*
X-31621786Y-15997069D01*
X-31636071Y-16011354D01*
X-31664643Y-16025640D01*
X-31721786Y-16025640D01*
X-31750357Y-16011354D01*
X-31436071Y-16025640D02*
X-31464643Y-16011354D01*
X-31478929Y-15982783D01*
X-31478929Y-15725640D01*
X-31193214Y-16025640D02*
X-31193214Y-15868497D01*
X-31207500Y-15839926D01*
X-31236071Y-15825640D01*
X-31293214Y-15825640D01*
X-31321786Y-15839926D01*
X-31193214Y-16011354D02*
X-31221786Y-16025640D01*
X-31293214Y-16025640D01*
X-31321786Y-16011354D01*
X-31336071Y-15982783D01*
X-31336071Y-15954212D01*
X-31321786Y-15925640D01*
X-31293214Y-15911354D01*
X-31221786Y-15911354D01*
X-31193214Y-15897069D01*
X-31093214Y-15825640D02*
X-30978929Y-15825640D01*
X-31050357Y-15725640D02*
X-31050357Y-15982783D01*
X-31036071Y-16011354D01*
X-31007500Y-16025640D01*
X-30978929Y-16025640D01*
X-30764643Y-16011354D02*
X-30793214Y-16025640D01*
X-30850357Y-16025640D01*
X-30878929Y-16011354D01*
X-30893214Y-15982783D01*
X-30893214Y-15868497D01*
X-30878929Y-15839926D01*
X-30850357Y-15825640D01*
X-30793214Y-15825640D01*
X-30764643Y-15839926D01*
X-30750357Y-15868497D01*
X-30750357Y-15897069D01*
X-30893214Y-15925640D01*
X-30493214Y-16025640D02*
X-30493214Y-15725640D01*
X-30493214Y-16011354D02*
X-30521786Y-16025640D01*
X-30578929Y-16025640D01*
X-30607500Y-16011354D01*
X-30621786Y-15997069D01*
X-30636071Y-15968497D01*
X-30636071Y-15882783D01*
X-30621786Y-15854212D01*
X-30607500Y-15839926D01*
X-30578929Y-15825640D01*
X-30521786Y-15825640D01*
X-30493214Y-15839926D01*
X-30378929Y-16139926D02*
X-30364643Y-16125640D01*
X-30336071Y-16082783D01*
X-30321786Y-16054212D01*
X-30307500Y-16011354D01*
X-30293214Y-15939926D01*
X-30293214Y-15882783D01*
X-30307500Y-15811354D01*
X-30321786Y-15768497D01*
X-30336071Y-15739926D01*
X-30364643Y-15697069D01*
X-30378929Y-15682783D01*
X-40196454Y-16498472D02*
X-40196454Y-16141380D01*
X-40553546Y-16141380D01*
X-40553546Y-16498472D01*
X-40196454Y-16498472D01*
X-39693214Y-16155640D02*
X-39836072Y-16155640D01*
X-39850357Y-16298497D01*
X-39836072Y-16284212D01*
X-39807500Y-16269926D01*
X-39736072Y-16269926D01*
X-39707500Y-16284212D01*
X-39693214Y-16298497D01*
X-39678929Y-16327069D01*
X-39678929Y-16398497D01*
X-39693214Y-16427069D01*
X-39707500Y-16441354D01*
X-39736072Y-16455640D01*
X-39807500Y-16455640D01*
X-39836072Y-16441354D01*
X-39850357Y-16427069D01*
X-39550357Y-16427069D02*
X-39536072Y-16441354D01*
X-39550357Y-16455640D01*
X-39564643Y-16441354D01*
X-39550357Y-16427069D01*
X-39550357Y-16455640D01*
X-39350357Y-16155640D02*
X-39321786Y-16155640D01*
X-39293214Y-16169926D01*
X-39278929Y-16184212D01*
X-39264643Y-16212783D01*
X-39250357Y-16269926D01*
X-39250357Y-16341354D01*
X-39264643Y-16398497D01*
X-39278929Y-16427069D01*
X-39293214Y-16441354D01*
X-39321786Y-16455640D01*
X-39350357Y-16455640D01*
X-39378929Y-16441354D01*
X-39393214Y-16427069D01*
X-39407500Y-16398497D01*
X-39421786Y-16341354D01*
X-39421786Y-16269926D01*
X-39407500Y-16212783D01*
X-39393214Y-16184212D01*
X-39378929Y-16169926D01*
X-39350357Y-16155640D01*
X-38978929Y-16155640D02*
X-39121786Y-16155640D01*
X-39136072Y-16298497D01*
X-39121786Y-16284212D01*
X-39093214Y-16269926D01*
X-39021786Y-16269926D01*
X-38993214Y-16284212D01*
X-38978929Y-16298497D01*
X-38964643Y-16327069D01*
X-38964643Y-16398497D01*
X-38978929Y-16427069D01*
X-38993214Y-16441354D01*
X-39021786Y-16455640D01*
X-39093214Y-16455640D01*
X-39121786Y-16441354D01*
X-39136072Y-16427069D01*
X-38836072Y-16455640D02*
X-38836072Y-16255640D01*
X-38836072Y-16284212D02*
X-38821786Y-16269926D01*
X-38793214Y-16255640D01*
X-38750357Y-16255640D01*
X-38721786Y-16269926D01*
X-38707500Y-16298497D01*
X-38707500Y-16455640D01*
X-38707500Y-16298497D02*
X-38693214Y-16269926D01*
X-38664643Y-16255640D01*
X-38621786Y-16255640D01*
X-38593214Y-16269926D01*
X-38578929Y-16298497D01*
X-38578929Y-16455640D01*
X-38436072Y-16455640D02*
X-38436072Y-16255640D01*
X-38436072Y-16284212D02*
X-38421786Y-16269926D01*
X-38393214Y-16255640D01*
X-38350357Y-16255640D01*
X-38321786Y-16269926D01*
X-38307500Y-16298497D01*
X-38307500Y-16455640D01*
X-38307500Y-16298497D02*
X-38293214Y-16269926D01*
X-38264643Y-16255640D01*
X-38221786Y-16255640D01*
X-38193214Y-16269926D01*
X-38178929Y-16298497D01*
X-38178929Y-16455640D01*
X-37593214Y-16141354D02*
X-37850357Y-16527069D01*
X-37207500Y-16155640D02*
X-37178929Y-16155640D01*
X-37150357Y-16169926D01*
X-37136072Y-16184212D01*
X-37121786Y-16212783D01*
X-37107500Y-16269926D01*
X-37107500Y-16341354D01*
X-37121786Y-16398497D01*
X-37136072Y-16427069D01*
X-37150357Y-16441354D01*
X-37178929Y-16455640D01*
X-37207500Y-16455640D01*
X-37236072Y-16441354D01*
X-37250357Y-16427069D01*
X-37264643Y-16398497D01*
X-37278929Y-16341354D01*
X-37278929Y-16269926D01*
X-37264643Y-16212783D01*
X-37250357Y-16184212D01*
X-37236072Y-16169926D01*
X-37207500Y-16155640D01*
X-36978929Y-16427069D02*
X-36964643Y-16441354D01*
X-36978929Y-16455640D01*
X-36993214Y-16441354D01*
X-36978929Y-16427069D01*
X-36978929Y-16455640D01*
X-36678929Y-16455640D02*
X-36850357Y-16455640D01*
X-36764643Y-16455640D02*
X-36764643Y-16155640D01*
X-36793214Y-16198497D01*
X-36821786Y-16227069D01*
X-36850357Y-16241354D01*
X-36536072Y-16455640D02*
X-36478929Y-16455640D01*
X-36450357Y-16441354D01*
X-36436072Y-16427069D01*
X-36407500Y-16384212D01*
X-36393214Y-16327069D01*
X-36393214Y-16212783D01*
X-36407500Y-16184212D01*
X-36421786Y-16169926D01*
X-36450357Y-16155640D01*
X-36507500Y-16155640D01*
X-36536072Y-16169926D01*
X-36550357Y-16184212D01*
X-36564643Y-16212783D01*
X-36564643Y-16284212D01*
X-36550357Y-16312783D01*
X-36536072Y-16327069D01*
X-36507500Y-16341354D01*
X-36450357Y-16341354D01*
X-36421786Y-16327069D01*
X-36407500Y-16312783D01*
X-36393214Y-16284212D01*
X-36250357Y-16455640D02*
X-36193214Y-16455640D01*
X-36164643Y-16441354D01*
X-36150357Y-16427069D01*
X-36121786Y-16384212D01*
X-36107500Y-16327069D01*
X-36107500Y-16212783D01*
X-36121786Y-16184212D01*
X-36136072Y-16169926D01*
X-36164643Y-16155640D01*
X-36221786Y-16155640D01*
X-36250357Y-16169926D01*
X-36264643Y-16184212D01*
X-36278929Y-16212783D01*
X-36278929Y-16284212D01*
X-36264643Y-16312783D01*
X-36250357Y-16327069D01*
X-36221786Y-16341354D01*
X-36164643Y-16341354D01*
X-36136072Y-16327069D01*
X-36121786Y-16312783D01*
X-36107500Y-16284212D01*
X-35993214Y-16155640D02*
X-35993214Y-16212783D01*
X-35878929Y-16155640D02*
X-35878929Y-16212783D01*
X-35436072Y-16569926D02*
X-35450357Y-16555640D01*
X-35478929Y-16512783D01*
X-35493214Y-16484212D01*
X-35507500Y-16441354D01*
X-35521786Y-16369926D01*
X-35521786Y-16312783D01*
X-35507500Y-16241354D01*
X-35493214Y-16198497D01*
X-35478929Y-16169926D01*
X-35450357Y-16127069D01*
X-35436072Y-16112783D01*
X-35193214Y-16155640D02*
X-35250357Y-16155640D01*
X-35278929Y-16169926D01*
X-35293214Y-16184212D01*
X-35321786Y-16227069D01*
X-35336072Y-16284212D01*
X-35336072Y-16398497D01*
X-35321786Y-16427069D01*
X-35307500Y-16441354D01*
X-35278929Y-16455640D01*
X-35221786Y-16455640D01*
X-35193214Y-16441354D01*
X-35178929Y-16427069D01*
X-35164643Y-16398497D01*
X-35164643Y-16327069D01*
X-35178929Y-16298497D01*
X-35193214Y-16284212D01*
X-35221786Y-16269926D01*
X-35278929Y-16269926D01*
X-35307500Y-16284212D01*
X-35321786Y-16298497D01*
X-35336072Y-16327069D01*
X-34807500Y-16455640D02*
X-34807500Y-16155640D01*
X-34678929Y-16455640D02*
X-34678929Y-16298497D01*
X-34693214Y-16269926D01*
X-34721786Y-16255640D01*
X-34764643Y-16255640D01*
X-34793214Y-16269926D01*
X-34807500Y-16284212D01*
X-34493214Y-16455640D02*
X-34521786Y-16441354D01*
X-34536072Y-16427069D01*
X-34550357Y-16398497D01*
X-34550357Y-16312783D01*
X-34536072Y-16284212D01*
X-34521786Y-16269926D01*
X-34493214Y-16255640D01*
X-34450357Y-16255640D01*
X-34421786Y-16269926D01*
X-34407500Y-16284212D01*
X-34393214Y-16312783D01*
X-34393214Y-16398497D01*
X-34407500Y-16427069D01*
X-34421786Y-16441354D01*
X-34450357Y-16455640D01*
X-34493214Y-16455640D01*
X-34221786Y-16455640D02*
X-34250357Y-16441354D01*
X-34264643Y-16412783D01*
X-34264643Y-16155640D01*
X-33993214Y-16441354D02*
X-34021786Y-16455640D01*
X-34078929Y-16455640D01*
X-34107500Y-16441354D01*
X-34121786Y-16412783D01*
X-34121786Y-16298497D01*
X-34107500Y-16269926D01*
X-34078929Y-16255640D01*
X-34021786Y-16255640D01*
X-33993214Y-16269926D01*
X-33978929Y-16298497D01*
X-33978929Y-16327069D01*
X-34121786Y-16355640D01*
X-33864643Y-16441354D02*
X-33836072Y-16455640D01*
X-33778929Y-16455640D01*
X-33750357Y-16441354D01*
X-33736072Y-16412783D01*
X-33736072Y-16398497D01*
X-33750357Y-16369926D01*
X-33778929Y-16355640D01*
X-33821786Y-16355640D01*
X-33850357Y-16341354D01*
X-33864643Y-16312783D01*
X-33864643Y-16298497D01*
X-33850357Y-16269926D01*
X-33821786Y-16255640D01*
X-33778929Y-16255640D01*
X-33750357Y-16269926D01*
X-33636072Y-16569926D02*
X-33621786Y-16555640D01*
X-33593214Y-16512783D01*
X-33578929Y-16484212D01*
X-33564643Y-16441354D01*
X-33550357Y-16369926D01*
X-33550357Y-16312783D01*
X-33564643Y-16241354D01*
X-33578929Y-16198497D01*
X-33593214Y-16169926D01*
X-33621786Y-16127069D01*
X-33636072Y-16112783D01*
X-33093214Y-16569926D02*
X-33107500Y-16555640D01*
X-33136071Y-16512783D01*
X-33150357Y-16484212D01*
X-33164643Y-16441354D01*
X-33178929Y-16369926D01*
X-33178929Y-16312783D01*
X-33164643Y-16241354D01*
X-33150357Y-16198497D01*
X-33136071Y-16169926D01*
X-33107500Y-16127069D01*
X-33093214Y-16112783D01*
X-32978929Y-16255640D02*
X-32978929Y-16455640D01*
X-32978929Y-16284212D02*
X-32964643Y-16269926D01*
X-32936071Y-16255640D01*
X-32893214Y-16255640D01*
X-32864643Y-16269926D01*
X-32850357Y-16298497D01*
X-32850357Y-16455640D01*
X-32664643Y-16455640D02*
X-32693214Y-16441354D01*
X-32707500Y-16427069D01*
X-32721786Y-16398497D01*
X-32721786Y-16312783D01*
X-32707500Y-16284212D01*
X-32693214Y-16269926D01*
X-32664643Y-16255640D01*
X-32621786Y-16255640D01*
X-32593214Y-16269926D01*
X-32578929Y-16284212D01*
X-32564643Y-16312783D01*
X-32564643Y-16398497D01*
X-32578929Y-16427069D01*
X-32593214Y-16441354D01*
X-32621786Y-16455640D01*
X-32664643Y-16455640D01*
X-32478929Y-16255640D02*
X-32364643Y-16255640D01*
X-32436071Y-16155640D02*
X-32436071Y-16412783D01*
X-32421786Y-16441354D01*
X-32393214Y-16455640D01*
X-32364643Y-16455640D01*
X-32036071Y-16255640D02*
X-32036071Y-16555640D01*
X-32036071Y-16269926D02*
X-32007500Y-16255640D01*
X-31950357Y-16255640D01*
X-31921786Y-16269926D01*
X-31907500Y-16284212D01*
X-31893214Y-16312783D01*
X-31893214Y-16398497D01*
X-31907500Y-16427069D01*
X-31921786Y-16441354D01*
X-31950357Y-16455640D01*
X-32007500Y-16455640D01*
X-32036071Y-16441354D01*
X-31721786Y-16455640D02*
X-31750357Y-16441354D01*
X-31764643Y-16412783D01*
X-31764643Y-16155640D01*
X-31478929Y-16455640D02*
X-31478929Y-16298497D01*
X-31493214Y-16269926D01*
X-31521786Y-16255640D01*
X-31578929Y-16255640D01*
X-31607500Y-16269926D01*
X-31478929Y-16441354D02*
X-31507500Y-16455640D01*
X-31578929Y-16455640D01*
X-31607500Y-16441354D01*
X-31621786Y-16412783D01*
X-31621786Y-16384212D01*
X-31607500Y-16355640D01*
X-31578929Y-16341354D01*
X-31507500Y-16341354D01*
X-31478929Y-16327069D01*
X-31378929Y-16255640D02*
X-31264643Y-16255640D01*
X-31336071Y-16155640D02*
X-31336071Y-16412783D01*
X-31321786Y-16441354D01*
X-31293214Y-16455640D01*
X-31264643Y-16455640D01*
X-31050357Y-16441354D02*
X-31078929Y-16455640D01*
X-31136071Y-16455640D01*
X-31164643Y-16441354D01*
X-31178929Y-16412783D01*
X-31178929Y-16298497D01*
X-31164643Y-16269926D01*
X-31136071Y-16255640D01*
X-31078929Y-16255640D01*
X-31050357Y-16269926D01*
X-31036071Y-16298497D01*
X-31036071Y-16327069D01*
X-31178929Y-16355640D01*
X-30778929Y-16455640D02*
X-30778929Y-16155640D01*
X-30778929Y-16441354D02*
X-30807500Y-16455640D01*
X-30864643Y-16455640D01*
X-30893214Y-16441354D01*
X-30907500Y-16427069D01*
X-30921786Y-16398497D01*
X-30921786Y-16312783D01*
X-30907500Y-16284212D01*
X-30893214Y-16269926D01*
X-30864643Y-16255640D01*
X-30807500Y-16255640D01*
X-30778929Y-16269926D01*
X-30664643Y-16569926D02*
X-30650357Y-16555640D01*
X-30621786Y-16512783D01*
X-30607500Y-16484212D01*
X-30593214Y-16441354D01*
X-30578929Y-16369926D01*
X-30578929Y-16312783D01*
X-30593214Y-16241354D01*
X-30607500Y-16198497D01*
X-30621786Y-16169926D01*
X-30650357Y-16127069D01*
X-30664643Y-16112783D01*
M02*
