G04 #@! TF.GenerationSoftware,KiCad,Pcbnew,(5.1.4)-1*
G04 #@! TF.CreationDate,2023-10-04T20:40:56-04:00*
G04 #@! TF.ProjectId,ThumbsUp,5468756d-6273-4557-902e-6b696361645f,rev?*
G04 #@! TF.SameCoordinates,Original*
G04 #@! TF.FileFunction,Copper,L1,Top*
G04 #@! TF.FilePolarity,Positive*
%FSLAX46Y46*%
G04 Gerber Fmt 4.6, Leading zero omitted, Abs format (unit mm)*
G04 Created by KiCad (PCBNEW (5.1.4)-1) date 2023-10-04 20:40:56*
%MOMM*%
%LPD*%
G04 APERTURE LIST*
%ADD10C,1.700000*%
%ADD11C,1.700000*%
%ADD12C,0.100000*%
%ADD13O,1.700000X1.700000*%
%ADD14R,1.700000X1.700000*%
%ADD15C,3.000000*%
%ADD16C,0.800000*%
%ADD17C,0.254000*%
G04 APERTURE END LIST*
D10*
X-293414170Y-139085603D03*
D11*
X-293414170Y-139085603D02*
X-293414170Y-139085603D01*
D10*
X-294942780Y-137057068D03*
D11*
X-294942780Y-137057068D02*
X-294942780Y-137057068D01*
D10*
X-296471390Y-135028534D03*
D11*
X-296471390Y-135028534D02*
X-296471390Y-135028534D01*
D10*
X-298000000Y-133000000D03*
D12*
G36*
X-297832703Y-131809617D02*
G01*
X-296809617Y-133167297D01*
X-298167297Y-134190383D01*
X-299190383Y-132832703D01*
X-297832703Y-131809617D01*
X-297832703Y-131809617D01*
G37*
D13*
X-323000000Y-72120000D03*
X-323000000Y-69580000D03*
X-323000000Y-67040000D03*
D14*
X-323000000Y-64500000D03*
D15*
X-274110849Y-122265520D03*
X-267468359Y-118950428D03*
X-379201067Y-116634750D03*
X-374183478Y-122106157D03*
X-258936774Y-110831034D03*
X-252294284Y-107515942D03*
X-394375141Y-105200264D03*
X-389357552Y-110671671D03*
X-364026992Y-128069235D03*
X-359009403Y-133540642D03*
X-289284924Y-133700005D03*
X-282642434Y-130384913D03*
D10*
X-262635603Y-118735830D03*
D11*
X-262635603Y-118735830D02*
X-262635603Y-118735830D01*
D10*
X-260607068Y-117207220D03*
D11*
X-260607068Y-117207220D02*
X-260607068Y-117207220D01*
D10*
X-258578534Y-115678610D03*
D11*
X-258578534Y-115678610D02*
X-258578534Y-115678610D01*
D10*
X-256550000Y-114150000D03*
D12*
G36*
X-255359617Y-114317297D02*
G01*
X-256717297Y-115340383D01*
X-257740383Y-113982703D01*
X-256382703Y-112959617D01*
X-255359617Y-114317297D01*
X-255359617Y-114317297D01*
G37*
D10*
X-352585830Y-139085603D03*
D11*
X-352585830Y-139085603D02*
X-352585830Y-139085603D01*
D10*
X-351057220Y-137057068D03*
D11*
X-351057220Y-137057068D02*
X-351057220Y-137057068D01*
D10*
X-349528610Y-135028534D03*
D11*
X-349528610Y-135028534D02*
X-349528610Y-135028534D01*
D10*
X-348000000Y-133000000D03*
D12*
G36*
X-346809617Y-132832703D02*
G01*
X-347832703Y-134190383D01*
X-349190383Y-133167297D01*
X-348167297Y-131809617D01*
X-346809617Y-132832703D01*
X-346809617Y-132832703D01*
G37*
D10*
X-387585603Y-115414170D03*
D11*
X-387585603Y-115414170D02*
X-387585603Y-115414170D01*
D10*
X-385557068Y-116942780D03*
D11*
X-385557068Y-116942780D02*
X-385557068Y-116942780D01*
D10*
X-383528534Y-118471390D03*
D11*
X-383528534Y-118471390D02*
X-383528534Y-118471390D01*
D10*
X-381500000Y-120000000D03*
D12*
G36*
X-381332703Y-121190383D02*
G01*
X-382690383Y-120167297D01*
X-381667297Y-118809617D01*
X-380309617Y-119832703D01*
X-381332703Y-121190383D01*
X-381332703Y-121190383D01*
G37*
D16*
X-254050000Y-103300000D03*
X-367424779Y-121425221D03*
X-286600000Y-117350000D03*
X-339150000Y-139050000D03*
X-296850000Y-129800000D03*
D17*
X-254499999Y-109799999D02*
X-254499999Y-103749999D01*
X-254449999Y-103699999D02*
X-254050000Y-103300000D01*
X-258578534Y-115678610D02*
X-258578534Y-113878534D01*
X-254499999Y-103749999D02*
X-254449999Y-103699999D01*
X-258578534Y-113878534D02*
X-254499999Y-109799999D01*
X-383157144Y-118100000D02*
X-381000000Y-118100000D01*
X-373425000Y-119450000D02*
X-371449779Y-121425221D01*
X-383528534Y-118471390D02*
X-383157144Y-118100000D01*
X-379650000Y-119450000D02*
X-373425000Y-119450000D01*
X-381000000Y-118100000D02*
X-379650000Y-119450000D01*
X-371449779Y-121425221D02*
X-367424779Y-121425221D01*
X-301000000Y-127600000D02*
X-301000000Y-138850000D01*
X-301000000Y-138850000D02*
X-301200000Y-139050000D01*
X-301200000Y-139050000D02*
X-339150000Y-139050000D01*
X-290750000Y-117350000D02*
X-301000000Y-127600000D01*
X-286600000Y-117350000D02*
X-290750000Y-117350000D01*
X-299050000Y-129800000D02*
X-296850000Y-129800000D01*
X-300714803Y-139850000D02*
X-300450000Y-139585197D01*
X-300450000Y-131200000D02*
X-299050000Y-129800000D01*
X-341150000Y-139850000D02*
X-300714803Y-139850000D01*
X-348000000Y-133000000D02*
X-341150000Y-139850000D01*
X-300450000Y-139585197D02*
X-300450000Y-131200000D01*
M02*
